<?xml version="1.0" encoding="UTF-8" standalone="no"?>
<!DOCTYPE svg PUBLIC "-//W3C//DTD SVG 1.1//EN" "http://www.w3.org/Graphics/SVG/1.1/DTD/svg11.dtd">
<svg width="100%" height="100%" viewBox="0 0 842 596" version="1.1" xmlns="http://www.w3.org/2000/svg" xmlns:xlink="http://www.w3.org/1999/xlink" xml:space="preserve" xmlns:serif="http://www.serif.com/" style="fill-rule:evenodd;clip-rule:evenodd;stroke-linecap:round;stroke-linejoin:round;">
    <g>
        <path d="M413.27,263.316L413.27,261.899" style="fill:none;fill-rule:nonzero;stroke:black;stroke-width:0.03px;"/>
        <path d="M413.27,261.899L414.12,261.899" style="fill:none;fill-rule:nonzero;stroke:black;stroke-width:0.03px;"/>
        <path d="M414.12,261.899L414.12,263.316" style="fill:none;fill-rule:nonzero;stroke:black;stroke-width:0.03px;"/>
        <path d="M414.12,263.316L413.27,263.316" style="fill:none;fill-rule:nonzero;stroke:black;stroke-width:0.03px;"/>
    </g>
    <g>
        <rect x="413.27" y="261.899" width="0.85" height="1.417" style="stroke:black;stroke-width:0.03px;"/>
    </g>
    <g>
        <path d="M415.113,263.316L415.113,261.899" style="fill:none;fill-rule:nonzero;stroke:black;stroke-width:0.03px;"/>
        <path d="M415.113,261.899L415.963,261.899" style="fill:none;fill-rule:nonzero;stroke:black;stroke-width:0.03px;"/>
        <path d="M415.963,261.899L415.963,263.316" style="fill:none;fill-rule:nonzero;stroke:black;stroke-width:0.03px;"/>
        <path d="M415.963,263.316L415.113,263.316" style="fill:none;fill-rule:nonzero;stroke:black;stroke-width:0.03px;"/>
    </g>
    <g>
        <rect x="415.113" y="261.899" width="0.85" height="1.417" style="stroke:black;stroke-width:0.03px;"/>
    </g>
    <g>
        <path d="M411.428,263.316L411.428,261.899" style="fill:none;fill-rule:nonzero;stroke:black;stroke-width:0.03px;"/>
        <path d="M411.428,261.899L412.278,261.899" style="fill:none;fill-rule:nonzero;stroke:black;stroke-width:0.03px;"/>
        <path d="M412.278,261.899L412.278,263.316" style="fill:none;fill-rule:nonzero;stroke:black;stroke-width:0.03px;"/>
        <path d="M412.278,263.316L411.428,263.316" style="fill:none;fill-rule:nonzero;stroke:black;stroke-width:0.03px;"/>
    </g>
    <g>
        <rect x="411.428" y="261.899" width="0.85" height="1.417" style="stroke:black;stroke-width:0.03px;"/>
    </g>
    <g>
        <path d="M413.27,269.411L413.27,267.993" style="fill:none;fill-rule:nonzero;stroke:black;stroke-width:0.03px;"/>
        <path d="M413.27,267.993L414.12,267.993" style="fill:none;fill-rule:nonzero;stroke:black;stroke-width:0.03px;"/>
        <path d="M414.12,267.993L414.12,269.411" style="fill:none;fill-rule:nonzero;stroke:black;stroke-width:0.03px;"/>
        <path d="M414.12,269.411L413.27,269.411" style="fill:none;fill-rule:nonzero;stroke:black;stroke-width:0.03px;"/>
    </g>
    <g>
        <rect x="413.27" y="267.993" width="0.85" height="1.417" style="stroke:black;stroke-width:0.03px;"/>
    </g>
    <g>
        <path d="M415.113,269.411L415.113,267.993" style="fill:none;fill-rule:nonzero;stroke:black;stroke-width:0.03px;"/>
        <path d="M415.113,267.993L415.963,267.993" style="fill:none;fill-rule:nonzero;stroke:black;stroke-width:0.03px;"/>
        <path d="M415.963,267.993L415.963,269.411" style="fill:none;fill-rule:nonzero;stroke:black;stroke-width:0.03px;"/>
        <path d="M415.963,269.411L415.113,269.411" style="fill:none;fill-rule:nonzero;stroke:black;stroke-width:0.03px;"/>
    </g>
    <g>
        <rect x="415.113" y="267.993" width="0.85" height="1.417" style="stroke:black;stroke-width:0.03px;"/>
    </g>
    <g>
        <path d="M411.428,269.411L411.428,267.993" style="fill:none;fill-rule:nonzero;stroke:black;stroke-width:0.03px;"/>
        <path d="M411.428,267.993L412.278,267.993" style="fill:none;fill-rule:nonzero;stroke:black;stroke-width:0.03px;"/>
        <path d="M412.278,267.993L412.278,269.411" style="fill:none;fill-rule:nonzero;stroke:black;stroke-width:0.03px;"/>
        <path d="M412.278,269.411L411.428,269.411" style="fill:none;fill-rule:nonzero;stroke:black;stroke-width:0.03px;"/>
    </g>
    <g>
        <rect x="411.428" y="267.993" width="0.85" height="1.417" style="stroke:black;stroke-width:0.03px;"/>
        <g>
            <rect x="425.877" y="377.972" width="4.252" height="2.551"/>
            <rect x="415.106" y="377.972" width="4.252" height="2.551"/>
            <rect x="415.106" y="373.72" width="4.252" height="2.551"/>
            <rect x="425.877" y="373.72" width="4.252" height="2.551"/>
        </g>
        <g>
            <rect x="446.611" y="357.428" width="2.551" height="2.551"/>
            <rect x="440.375" y="363.664" width="2.551" height="2.551"/>
            <rect x="440.375" y="360.546" width="2.551" height="2.551"/>
            <rect x="446.611" y="363.664" width="2.551" height="2.551"/>
            <rect x="443.493" y="363.664" width="2.551" height="2.551"/>
            <rect x="440.375" y="357.428" width="2.551" height="2.551"/>
            <rect x="443.493" y="357.428" width="2.551" height="2.551"/>
            <rect x="443.493" y="360.546" width="2.551" height="2.551"/>
            <rect x="446.611" y="360.546" width="2.551" height="2.551"/>
            <rect x="440.162" y="367.349" width="0.709" height="2.551"/>
            <rect x="441.58" y="367.349" width="0.709" height="2.551"/>
            <rect x="442.997" y="367.349" width="0.709" height="2.551"/>
            <rect x="444.414" y="367.349" width="0.709" height="2.551"/>
            <rect x="445.832" y="367.349" width="0.709" height="2.551"/>
            <rect x="447.249" y="367.349" width="0.709" height="2.551"/>
            <rect x="448.666" y="367.349" width="0.709" height="2.551"/>
            <rect x="450.296" y="365.719" width="2.551" height="0.709"/>
            <rect x="450.296" y="364.302" width="2.551" height="0.709"/>
            <rect x="450.296" y="362.885" width="2.551" height="0.709"/>
            <rect x="450.296" y="361.467" width="2.551" height="0.709"/>
            <rect x="450.296" y="360.05" width="2.551" height="0.709"/>
            <rect x="450.296" y="358.633" width="2.551" height="0.709"/>
            <rect x="450.296" y="357.215" width="2.551" height="0.709"/>
            <rect x="448.666" y="353.743" width="0.709" height="2.551"/>
            <rect x="447.249" y="353.743" width="0.709" height="2.551"/>
            <rect x="445.832" y="353.743" width="0.709" height="2.551"/>
            <rect x="444.414" y="353.743" width="0.709" height="2.551"/>
            <rect x="442.997" y="353.743" width="0.709" height="2.551"/>
            <rect x="441.58" y="353.743" width="0.709" height="2.551"/>
            <rect x="440.162" y="353.743" width="0.709" height="2.551"/>
            <rect x="436.69" y="357.215" width="2.551" height="0.709"/>
            <rect x="436.69" y="358.633" width="2.551" height="0.709"/>
            <rect x="436.69" y="360.05" width="2.551" height="0.709"/>
            <rect x="436.69" y="361.467" width="2.551" height="0.709"/>
            <rect x="436.69" y="362.885" width="2.551" height="0.709"/>
            <rect x="436.69" y="364.302" width="2.551" height="0.709"/>
            <rect x="436.69" y="365.719" width="2.551" height="0.709"/>
        </g>
        <g>
            <rect x="415.019" y="361.397" width="4.252" height="2.551"/>
            <rect x="425.791" y="361.397" width="4.252" height="2.551"/>
            <rect x="415.019" y="365.649" width="4.252" height="2.551"/>
            <rect x="425.791" y="365.649" width="4.252" height="2.551"/>
        </g>
        <g>
            <path d="M452.636,227.672L452.585,227.929L452.439,228.148L452.221,228.294L451.963,228.345L450.546,228.345L450.288,228.294L450.07,228.148L449.924,227.929L449.872,227.672L449.872,226.325L449.924,226.068L450.07,225.849L450.288,225.703L450.546,225.652L451.963,225.652L452.221,225.703L452.439,225.849L452.585,226.068L452.636,226.325L452.636,227.672Z"/>
            <path d="M447.463,227.672L447.412,227.929L447.266,228.148L447.047,228.294L446.79,228.345L445.372,228.345L445.115,228.294L444.896,228.148L444.75,227.929L444.699,227.672L444.699,226.325L444.75,226.068L444.896,225.849L445.115,225.703L445.372,225.652L446.79,225.652L447.047,225.703L447.266,225.849L447.412,226.068L447.463,226.325L447.463,227.672Z"/>
        </g>
        <g>
            <path d="M411.456,382.535L411.198,382.484L410.98,382.338L410.834,382.12L410.783,381.862L410.783,380.161L410.834,379.904L410.98,379.685L411.198,379.539L411.456,379.488L412.802,379.488L413.06,379.539L413.278,379.685L413.424,379.904L413.476,380.161L413.476,381.862L413.424,382.12L413.278,382.338L413.06,382.484L412.802,382.535L411.456,382.535Z"/>
            <path d="M411.456,377.646L411.198,377.594L410.98,377.448L410.834,377.23L410.783,376.972L410.783,375.272L410.834,375.014L410.98,374.796L411.198,374.65L411.456,374.598L412.802,374.598L413.06,374.65L413.278,374.796L413.424,375.014L413.476,375.272L413.476,376.972L413.424,377.23L413.278,377.448L413.06,377.594L412.802,377.646L411.456,377.646Z"/>
        </g>
        <g>
            <path d="M397.02,252.305L396.969,252.562L396.823,252.781L396.605,252.927L396.347,252.978L394.646,252.978L394.389,252.927L394.17,252.781L394.024,252.562L393.973,252.305L393.973,250.958L394.024,250.701L394.17,250.482L394.389,250.336L394.646,250.285L396.347,250.285L396.605,250.336L396.823,250.482L396.969,250.701L397.02,250.958L397.02,252.305Z"/>
            <path d="M392.131,252.305L392.079,252.562L391.934,252.781L391.715,252.927L391.457,252.978L389.757,252.978L389.499,252.927L389.281,252.781L389.135,252.562L389.083,252.305L389.083,250.958L389.135,250.701L389.281,250.482L389.499,250.336L389.757,250.285L391.457,250.285L391.715,250.336L391.934,250.482L392.079,250.701L392.131,250.958L392.131,252.305Z"/>
        </g>
        <g>
            <path d="M379.821,262.602L379.564,262.55L379.345,262.404L379.199,262.186L379.148,261.928L379.148,260.511L379.199,260.253L379.345,260.035L379.564,259.889L379.821,259.838L381.168,259.838L381.425,259.889L381.644,260.035L381.79,260.253L381.841,260.511L381.841,261.928L381.79,262.186L381.644,262.404L381.425,262.55L381.168,262.602L379.821,262.602Z"/>
            <path d="M379.821,257.428L379.564,257.377L379.345,257.231L379.199,257.013L379.148,256.755L379.148,255.338L379.199,255.08L379.345,254.862L379.564,254.716L379.821,254.665L381.168,254.665L381.425,254.716L381.644,254.862L381.79,255.08L381.841,255.338L381.841,256.755L381.79,257.013L381.644,257.231L381.425,257.377L381.168,257.428L379.821,257.428Z"/>
        </g>
        <g>
            <path d="M432.879,332.44L432.827,332.698L432.682,332.916L432.463,333.062L432.206,333.113L430.505,333.113L430.247,333.062L430.029,332.916L429.883,332.698L429.831,332.44L429.831,331.094L429.883,330.836L430.029,330.618L430.247,330.472L430.505,330.42L432.206,330.42L432.463,330.472L432.682,330.618L432.827,330.836L432.879,331.094L432.879,332.44Z"/>
            <path d="M427.989,332.44L427.938,332.698L427.792,332.916L427.573,333.062L427.316,333.113L425.615,333.113L425.357,333.062L425.139,332.916L424.993,332.698L424.942,332.44L424.942,331.094L424.993,330.836L425.139,330.618L425.357,330.472L425.615,330.42L427.316,330.42L427.573,330.472L427.792,330.618L427.938,330.836L427.989,331.094L427.989,332.44Z"/>
        </g>
        <g>
            <path d="M452.498,373.186L452.756,373.237L452.974,373.383L453.12,373.602L453.171,373.859L453.171,375.56L453.12,375.818L452.974,376.036L452.756,376.182L452.498,376.233L451.151,376.233L450.894,376.182L450.675,376.036L450.529,375.818L450.478,375.56L450.478,373.859L450.529,373.602L450.675,373.383L450.894,373.237L451.151,373.186L452.498,373.186Z"/>
            <path d="M452.498,378.076L452.756,378.127L452.974,378.273L453.12,378.491L453.171,378.749L453.171,380.45L453.12,380.707L452.974,380.926L452.756,381.072L452.498,381.123L451.151,381.123L450.894,381.072L450.675,380.926L450.529,380.707L450.478,380.45L450.478,378.749L450.529,378.491L450.675,378.273L450.894,378.127L451.151,378.076L452.498,378.076Z"/>
        </g>
        <g>
            <path d="M408.508,261.801L408.765,261.852L408.984,261.998L409.13,262.216L409.181,262.474L409.181,263.891L409.13,264.149L408.984,264.367L408.765,264.513L408.508,264.564L407.161,264.564L406.903,264.513L406.685,264.367L406.539,264.149L406.488,263.891L406.488,262.474L406.539,262.216L406.685,261.998L406.903,261.852L407.161,261.801L408.508,261.801Z"/>
            <path d="M408.508,266.974L408.765,267.025L408.984,267.171L409.13,267.389L409.181,267.647L409.181,269.064L409.13,269.322L408.984,269.54L408.765,269.686L408.508,269.738L407.161,269.738L406.903,269.686L406.685,269.54L406.539,269.322L406.488,269.064L406.488,267.647L406.539,267.389L406.685,267.171L406.903,267.025L407.161,266.974L408.508,266.974Z"/>
        </g>
        <g>
            <rect x="383.704" y="255.89" width="4.752" height="1.008"/>
            <rect x="383.704" y="257.732" width="4.752" height="1.008"/>
            <rect x="383.704" y="259.575" width="4.752" height="1.008"/>
            <rect x="383.704" y="261.417" width="4.752" height="1.008"/>
            <rect x="383.704" y="263.26" width="4.752" height="1.008"/>
            <rect x="383.704" y="265.102" width="4.752" height="1.008"/>
            <rect x="383.704" y="266.945" width="4.752" height="1.008"/>
            <rect x="399.688" y="266.945" width="4.752" height="1.008"/>
            <rect x="399.688" y="265.102" width="4.752" height="1.008"/>
            <rect x="399.688" y="263.26" width="4.752" height="1.008"/>
            <rect x="399.688" y="261.417" width="4.752" height="1.008"/>
            <rect x="399.688" y="259.575" width="4.752" height="1.008"/>
            <rect x="399.688" y="257.732" width="4.752" height="1.008"/>
            <rect x="399.688" y="255.89" width="4.752" height="1.008"/>
        </g>
        <g>
            <path d="M380.438,343.488L380.275,343.456L380.137,343.364L380.045,343.226L380.013,343.063L380.013,339.732L380.045,339.57L380.137,339.432L380.275,339.339L380.438,339.307L381.288,339.307L381.451,339.339L381.589,339.432L381.681,339.57L381.713,339.732L381.713,343.063L381.681,343.226L381.589,343.364L381.451,343.456L381.288,343.488L380.438,343.488Z"/>
            <path d="M385.824,343.488L385.661,343.456L385.523,343.364L385.431,343.226L385.398,343.063L385.398,339.732L385.431,339.57L385.523,339.432L385.661,339.339L385.824,339.307L386.674,339.307L386.837,339.339L386.975,339.432L387.067,339.57L387.099,339.732L387.099,343.063L387.067,343.226L386.975,343.364L386.837,343.456L386.674,343.488L385.824,343.488Z"/>
            <path d="M383.131,338.173L382.968,338.141L382.83,338.049L382.738,337.911L382.706,337.748L382.706,334.417L382.738,334.255L382.83,334.117L382.968,334.024L383.131,333.992L383.981,333.992L384.144,334.024L384.282,334.117L384.374,334.255L384.406,334.417L384.406,337.748L384.374,337.911L384.282,338.049L384.144,338.141L383.981,338.173L383.131,338.173Z"/>
        </g>
        <g>
            <rect x="427.124" y="348.009" width="5.669" height="4.252"/>
            <rect x="427.124" y="341.49" width="5.669" height="4.252"/>
            <rect x="427.124" y="334.97" width="5.669" height="4.252"/>
            <rect x="409.266" y="338.23" width="5.669" height="10.772"/>
        </g>
        <g>
            <rect x="443.962" y="216.177" width="1.701" height="3.685"/>
            <rect x="441.694" y="216.177" width="1.701" height="3.685"/>
            <rect x="438.86" y="216.177" width="0.85" height="3.685"/>
            <rect x="436.025" y="216.177" width="0.85" height="3.685"/>
            <rect x="434.608" y="216.177" width="0.85" height="3.685"/>
            <rect x="431.773" y="216.177" width="0.85" height="3.685"/>
            <rect x="425.82" y="216.177" width="1.701" height="3.685"/>
            <rect x="428.088" y="216.177" width="1.701" height="3.685"/>
            <rect x="430.356" y="216.177" width="0.85" height="3.685"/>
            <rect x="433.191" y="216.177" width="0.85" height="3.685"/>
            <rect x="437.443" y="216.177" width="0.85" height="3.685"/>
            <rect x="440.277" y="216.177" width="0.85" height="3.685"/>
        </g>
        <g>
            <path d="M406.68,333.935L406.842,333.968L406.98,334.06L407.072,334.198L407.105,334.361L407.105,337.691L407.072,337.854L406.98,337.992L406.842,338.084L406.68,338.117L405.829,338.117L405.666,338.084L405.528,337.992L405.436,337.854L405.404,337.691L405.404,334.361L405.436,334.198L405.528,334.06L405.666,333.968L405.829,333.935L406.68,333.935Z"/>
            <path d="M401.294,333.935L401.456,333.968L401.594,334.06L401.687,334.198L401.719,334.361L401.719,337.691L401.687,337.854L401.594,337.992L401.456,338.084L401.294,338.117L400.443,338.117L400.281,338.084L400.143,337.992L400.05,337.854L400.018,337.691L400.018,334.361L400.05,334.198L400.143,334.06L400.281,333.968L400.443,333.935L401.294,333.935Z"/>
            <path d="M403.987,339.25L404.149,339.283L404.287,339.375L404.379,339.513L404.412,339.676L404.412,343.006L404.379,343.169L404.287,343.307L404.149,343.399L403.987,343.431L403.136,343.431L402.974,343.399L402.836,343.307L402.743,343.169L402.711,343.006L402.711,339.676L402.743,339.513L402.836,339.375L402.974,339.283L403.136,339.25L403.987,339.25Z"/>
        </g>
        <g>
            <path d="M384.746,346.032L384.798,345.775L384.944,345.556L385.162,345.41L385.42,345.359L386.837,345.359L387.095,345.41L387.313,345.556L387.459,345.775L387.51,346.032L387.51,347.379L387.459,347.636L387.313,347.855L387.095,348.001L386.837,348.052L385.42,348.052L385.162,348.001L384.944,347.855L384.798,347.636L384.746,347.379L384.746,346.032Z"/>
            <path d="M389.92,346.032L389.971,345.775L390.117,345.556L390.335,345.41L390.593,345.359L392.01,345.359L392.268,345.41L392.486,345.556L392.632,345.775L392.683,346.032L392.683,347.379L392.632,347.636L392.486,347.855L392.268,348.001L392.01,348.052L390.593,348.052L390.335,348.001L390.117,347.855L389.971,347.636L389.92,347.379L389.92,346.032Z"/>
        </g>
        <g>
            <path d="M432.41,381.323L432.152,381.272L431.934,381.126L431.788,380.907L431.736,380.65L431.736,379.233L431.788,378.975L431.934,378.756L432.152,378.611L432.41,378.559L433.756,378.559L434.014,378.611L434.232,378.756L434.378,378.975L434.429,379.233L434.429,380.65L434.378,380.907L434.232,381.126L434.014,381.272L433.756,381.323L432.41,381.323Z"/>
            <path d="M432.41,376.15L432.152,376.099L431.934,375.953L431.788,375.734L431.736,375.477L431.736,374.059L431.788,373.802L431.934,373.583L432.152,373.437L432.41,373.386L433.756,373.386L434.014,373.437L434.232,373.583L434.378,373.802L434.429,374.059L434.429,375.477L434.378,375.734L434.232,375.953L434.014,376.099L433.756,376.15L432.41,376.15Z"/>
        </g>
        <g>
            <path d="M451.899,345.991L451.848,346.249L451.702,346.468L451.484,346.613L451.226,346.665L449.596,346.665L449.338,346.613L449.12,346.468L448.974,346.249L448.923,345.991L448.923,344.645L448.974,344.387L449.12,344.169L449.338,344.023L449.596,343.972L451.226,343.972L451.484,344.023L451.702,344.169L451.848,344.387L451.899,344.645L451.899,345.991Z"/>
            <path d="M446.939,345.991L446.887,346.249L446.741,346.468L446.523,346.613L446.265,346.665L444.635,346.665L444.378,346.613L444.159,346.468L444.013,346.249L443.962,345.991L443.962,344.645L444.013,344.387L444.159,344.169L444.378,344.023L444.635,343.972L446.265,343.972L446.523,344.023L446.741,344.169L446.887,344.387L446.939,344.645L446.939,345.991Z"/>
        </g>
        <g>
            <path d="M446.831,381.123L446.574,381.072L446.355,380.926L446.209,380.707L446.158,380.45L446.158,378.749L446.209,378.491L446.355,378.273L446.574,378.127L446.831,378.076L448.178,378.076L448.436,378.127L448.654,378.273L448.8,378.491L448.851,378.749L448.851,380.45L448.8,380.707L448.654,380.926L448.436,381.072L448.178,381.123L446.831,381.123Z"/>
            <path d="M446.831,376.233L446.574,376.182L446.355,376.036L446.209,375.818L446.158,375.56L446.158,373.859L446.209,373.602L446.355,373.383L446.574,373.237L446.831,373.186L448.178,373.186L448.436,373.237L448.654,373.383L448.8,373.602L448.851,373.859L448.851,375.56L448.8,375.818L448.654,376.036L448.436,376.182L448.178,376.233L446.831,376.233Z"/>
        </g>
        <g>
            <path d="M379.587,236.948L379.641,236.677L379.795,236.447L380.025,236.293L380.296,236.239L388.8,236.239L389.071,236.293L389.301,236.447L389.455,236.677L389.509,236.948L389.509,240.066L389.455,240.337L389.301,240.567L389.071,240.721L388.8,240.775L380.296,240.775L380.025,240.721L379.795,240.567L379.641,240.337L379.587,240.066L379.587,236.948Z"/>
            <path d="M395.461,236.948L395.515,236.677L395.669,236.447L395.899,236.293L396.17,236.239L404.674,236.239L404.945,236.293L405.175,236.447L405.329,236.677L405.383,236.948L405.383,240.066L405.329,240.337L405.175,240.567L404.945,240.721L404.674,240.775L396.17,240.775L395.899,240.721L395.669,240.567L395.515,240.337L395.461,240.066L395.461,236.948Z"/>
        </g>
        <g>
            <path d="M429.087,269.858L428.83,269.807L428.611,269.661L428.465,269.443L428.414,269.185L428.414,267.484L428.465,267.227L428.611,267.008L428.83,266.862L429.087,266.811L430.434,266.811L430.691,266.862L430.91,267.008L431.056,267.227L431.107,267.484L431.107,269.185L431.056,269.443L430.91,269.661L430.691,269.807L430.434,269.858L429.087,269.858Z"/>
            <path d="M429.087,264.969L428.83,264.917L428.611,264.771L428.465,264.553L428.414,264.295L428.414,262.594L428.465,262.337L428.611,262.118L428.83,261.973L429.087,261.921L430.434,261.921L430.691,261.973L430.91,262.118L431.056,262.337L431.107,262.594L431.107,264.295L431.056,264.553L430.91,264.771L430.691,264.917L430.434,264.969L429.087,264.969Z"/>
        </g>
        <g>
            <path d="M417.209,331.763L417.158,332.02L417.012,332.239L416.793,332.385L416.536,332.436L414.835,332.436L414.577,332.385L414.359,332.239L414.213,332.02L414.162,331.763L414.162,330.416L414.213,330.159L414.359,329.94L414.577,329.794L414.835,329.743L416.536,329.743L416.793,329.794L417.012,329.94L417.158,330.159L417.209,330.416L417.209,331.763Z"/>
            <path d="M412.319,331.763L412.268,332.02L412.122,332.239L411.903,332.385L411.646,332.436L409.945,332.436L409.687,332.385L409.469,332.239L409.323,332.02L409.272,331.763L409.272,330.416L409.323,330.159L409.469,329.94L409.687,329.794L409.945,329.743L411.646,329.743L411.903,329.794L412.122,329.94L412.268,330.159L412.319,330.416L412.319,331.763Z"/>
        </g>
        <g>
            <path d="M452.75,223.352L452.698,223.609L452.552,223.828L452.334,223.974L452.076,224.025L450.659,224.025L450.401,223.974L450.183,223.828L450.037,223.609L449.986,223.352L449.986,222.005L450.037,221.748L450.183,221.529L450.401,221.383L450.659,221.332L452.076,221.332L452.334,221.383L452.552,221.529L452.698,221.748L452.75,222.005L452.75,223.352Z"/>
            <path d="M447.576,223.352L447.525,223.609L447.379,223.828L447.161,223.974L446.903,224.025L445.486,224.025L445.228,223.974L445.01,223.828L444.864,223.609L444.813,223.352L444.813,222.005L444.864,221.748L445.01,221.529L445.228,221.383L445.486,221.332L446.903,221.332L447.161,221.383L447.379,221.529L447.525,221.748L447.576,222.005L447.576,223.352Z"/>
        </g>
        <g>
            <path d="M392.457,331.618L392.405,331.876L392.26,332.094L392.041,332.24L391.783,332.291L390.366,332.291L390.109,332.24L389.89,332.094L389.744,331.876L389.693,331.618L389.693,330.272L389.744,330.014L389.89,329.796L390.109,329.65L390.366,329.598L391.783,329.598L392.041,329.65L392.26,329.796L392.405,330.014L392.457,330.272L392.457,331.618Z"/>
            <path d="M387.283,331.618L387.232,331.876L387.086,332.094L386.868,332.24L386.61,332.291L385.193,332.291L384.935,332.24L384.717,332.094L384.571,331.876L384.52,331.618L384.52,330.272L384.571,330.014L384.717,329.796L384.935,329.65L385.193,329.598L386.61,329.598L386.868,329.65L387.086,329.796L387.232,330.014L387.283,330.272L387.283,331.618Z"/>
        </g>
        <g>
            <path d="M380.58,366.094L380.633,365.823L380.787,365.593L381.017,365.44L381.288,365.386L389.792,365.386L390.063,365.44L390.293,365.593L390.447,365.823L390.501,366.094L390.501,369.213L390.447,369.484L390.293,369.714L390.063,369.867L389.792,369.921L381.288,369.921L381.017,369.867L380.787,369.714L380.633,369.484L380.58,369.213L380.58,366.094Z"/>
            <path d="M396.454,366.094L396.507,365.823L396.661,365.593L396.891,365.44L397.162,365.386L405.666,365.386L405.937,365.44L406.167,365.593L406.321,365.823L406.375,366.094L406.375,369.213L406.321,369.484L406.167,369.714L405.937,369.867L405.666,369.921L397.162,369.921L396.891,369.867L396.661,369.714L396.507,369.484L396.454,369.213L396.454,366.094Z"/>
        </g>
        <g>
            <rect x="413.093" y="228.898" width="5.102" height="7.087"/>
            <rect x="413.093" y="240.236" width="5.102" height="7.087"/>
        </g>
        <g>
            <rect x="430.644" y="271.874" width="2.551" height="5.669"/>
            <rect x="427.044" y="271.874" width="2.551" height="5.669"/>
            <rect x="423.444" y="271.874" width="2.551" height="5.669"/>
            <rect x="419.844" y="271.874" width="2.551" height="5.669"/>
            <rect x="416.244" y="271.874" width="2.551" height="5.669"/>
            <rect x="412.644" y="271.874" width="2.551" height="5.669"/>
            <rect x="409.044" y="271.874" width="2.551" height="5.669"/>
            <rect x="405.444" y="271.874" width="2.551" height="5.669"/>
            <rect x="401.844" y="271.874" width="2.551" height="5.669"/>
            <rect x="398.244" y="271.874" width="2.551" height="5.669"/>
            <rect x="394.644" y="271.874" width="2.551" height="5.669"/>
            <rect x="391.044" y="271.874" width="2.551" height="5.669"/>
            <rect x="387.444" y="271.874" width="2.551" height="5.669"/>
            <rect x="383.844" y="271.874" width="2.551" height="5.669"/>
            <rect x="379.451" y="281.328" width="5.669" height="2.551"/>
            <rect x="379.451" y="284.928" width="5.669" height="2.551"/>
            <rect x="379.451" y="288.528" width="5.669" height="2.551"/>
            <rect x="379.451" y="292.128" width="5.669" height="2.551"/>
            <rect x="379.451" y="295.728" width="5.669" height="2.551"/>
            <rect x="379.451" y="299.328" width="5.669" height="2.551"/>
            <rect x="379.451" y="302.928" width="5.669" height="2.551"/>
            <rect x="379.451" y="306.528" width="5.669" height="2.551"/>
            <rect x="379.451" y="310.128" width="5.669" height="2.551"/>
            <rect x="379.451" y="313.728" width="5.669" height="2.551"/>
            <rect x="383.844" y="320.063" width="2.551" height="5.669"/>
            <rect x="387.444" y="320.063" width="2.551" height="5.669"/>
            <rect x="391.044" y="320.063" width="2.551" height="5.669"/>
            <rect x="394.644" y="320.063" width="2.551" height="5.669"/>
            <rect x="398.244" y="320.063" width="2.551" height="5.669"/>
            <rect x="401.844" y="320.063" width="2.551" height="5.669"/>
            <rect x="405.444" y="320.063" width="2.551" height="5.669"/>
            <rect x="409.044" y="320.063" width="2.551" height="5.669"/>
            <rect x="412.644" y="320.063" width="2.551" height="5.669"/>
            <rect x="416.244" y="320.063" width="2.551" height="5.669"/>
            <rect x="419.844" y="320.063" width="2.551" height="5.669"/>
            <rect x="423.444" y="320.063" width="2.551" height="5.669"/>
            <rect x="427.044" y="320.063" width="2.551" height="5.669"/>
            <rect x="430.644" y="320.063" width="2.551" height="5.669"/>
            <rect x="413.977" y="288.882" width="3.77" height="3.77"/>
            <rect x="413.977" y="294.084" width="3.77" height="3.77"/>
            <rect x="413.977" y="299.285" width="3.77" height="3.77"/>
            <rect x="408.775" y="288.882" width="3.77" height="3.77"/>
            <rect x="408.775" y="294.084" width="3.77" height="3.77"/>
            <rect x="408.775" y="299.285" width="3.77" height="3.77"/>
            <rect x="403.574" y="288.882" width="3.77" height="3.77"/>
            <rect x="403.574" y="294.084" width="3.77" height="3.77"/>
            <rect x="403.574" y="299.285" width="3.77" height="3.77"/>
        </g>
        <g>
            <path d="M425.914,261.974L426.172,262.026L426.39,262.171L426.536,262.39L426.587,262.648L426.587,264.348L426.536,264.606L426.39,264.824L426.172,264.97L425.914,265.022L424.568,265.022L424.31,264.97L424.091,264.824L423.946,264.606L423.894,264.348L423.894,262.648L423.946,262.39L424.091,262.171L424.31,262.026L424.568,261.974L425.914,261.974Z"/>
            <path d="M425.914,266.864L426.172,266.915L426.39,267.061L426.536,267.28L426.587,267.537L426.587,269.238L426.536,269.496L426.39,269.714L426.172,269.86L425.914,269.911L424.568,269.911L424.31,269.86L424.091,269.714L423.946,269.496L423.894,269.238L423.894,267.537L423.946,267.28L424.091,267.061L424.31,266.915L424.568,266.864L425.914,266.864Z"/>
        </g>
        <g>
            <path d="M414.298,358.044L414.265,358.207L414.173,358.345L414.035,358.437L413.872,358.469L410.542,358.469L410.379,358.437L410.241,358.345L410.149,358.207L410.117,358.044L410.117,357.194L410.149,357.031L410.241,356.893L410.379,356.801L410.542,356.769L413.872,356.769L414.035,356.801L414.173,356.893L414.265,357.031L414.298,357.194L414.298,358.044Z"/>
            <path d="M414.298,352.658L414.265,352.821L414.173,352.959L414.035,353.051L413.872,353.083L410.542,353.083L410.379,353.051L410.241,352.959L410.149,352.821L410.117,352.658L410.117,351.808L410.149,351.645L410.241,351.507L410.379,351.415L410.542,351.383L413.872,351.383L414.035,351.415L414.173,351.507L414.265,351.645L414.298,351.808L414.298,352.658Z"/>
            <path d="M408.983,355.351L408.95,355.514L408.858,355.652L408.72,355.744L408.557,355.776L405.227,355.776L405.064,355.744L404.926,355.652L404.834,355.514L404.802,355.351L404.802,354.501L404.834,354.338L404.926,354.2L405.064,354.108L405.227,354.076L408.557,354.076L408.72,354.108L408.858,354.2L408.95,354.338L408.983,354.501L408.983,355.351Z"/>
        </g>
        <g>
            <path d="M451.899,350.383L451.848,350.641L451.702,350.86L451.484,351.005L451.226,351.057L449.809,351.057L449.551,351.005L449.333,350.86L449.187,350.641L449.135,350.383L449.135,349.037L449.187,348.779L449.333,348.561L449.551,348.415L449.809,348.364L451.226,348.364L451.484,348.415L451.702,348.561L451.848,348.779L451.899,349.037L451.899,350.383Z"/>
            <path d="M446.726,350.383L446.675,350.641L446.529,350.86L446.31,351.005L446.053,351.057L444.635,351.057L444.378,351.005L444.159,350.86L444.013,350.641L443.962,350.383L443.962,349.037L444.013,348.779L444.159,348.561L444.378,348.415L444.635,348.364L446.053,348.364L446.31,348.415L446.529,348.561L446.675,348.779L446.726,349.037L446.726,350.383Z"/>
        </g>
        <g>
            <path d="M390.488,343.526L390.325,343.494L390.187,343.402L390.095,343.264L390.063,343.101L390.063,339.77L390.095,339.608L390.187,339.47L390.325,339.377L390.488,339.345L391.338,339.345L391.501,339.377L391.639,339.47L391.731,339.608L391.763,339.77L391.763,343.101L391.731,343.264L391.639,343.402L391.501,343.494L391.338,343.526L390.488,343.526Z"/>
            <path d="M395.874,343.526L395.711,343.494L395.573,343.402L395.481,343.264L395.448,343.101L395.448,339.77L395.481,339.608L395.573,339.47L395.711,339.377L395.874,339.345L396.724,339.345L396.887,339.377L397.025,339.47L397.117,339.608L397.149,339.77L397.149,343.101L397.117,343.264L397.025,343.402L396.887,343.494L396.724,343.526L395.874,343.526Z"/>
            <path d="M393.181,338.211L393.018,338.179L392.88,338.087L392.788,337.949L392.755,337.786L392.755,334.455L392.788,334.293L392.88,334.155L393.018,334.062L393.181,334.03L394.031,334.03L394.194,334.062L394.332,334.155L394.424,334.293L394.456,334.455L394.456,337.786L394.424,337.949L394.332,338.087L394.194,338.179L394.031,338.211L393.181,338.211Z"/>
        </g>
    </g>
    <g>
        <path d="M448.816,258.193L440.221,258.193" style="fill:none;fill-rule:nonzero;stroke:black;stroke-width:0.28px;"/>
        <path d="M448.816,416.748L383.228,416.748" style="fill:none;fill-rule:nonzero;stroke:black;stroke-width:0.28px;"/>
        <path d="M377.558,411.079L377.558,411.079C377.558,414.189 380.118,416.748 383.228,416.748L383.228,416.748" style="fill-opacity:0;fill-rule:nonzero;stroke:black;stroke-width:0.28px;"/>
        <path d="M448.816,258.193L448.816,258.193C451.926,258.193 454.485,255.634 454.485,252.524L454.485,252.524" style="fill-opacity:0;fill-rule:nonzero;stroke:black;stroke-width:0.28px;"/>
        <path d="M434.552,333.028L434.552,333.028C434.552,336.138 437.111,338.697 440.221,338.697L440.221,338.697" style="fill-opacity:0;fill-rule:nonzero;stroke:black;stroke-width:0.28px;"/>
        <path d="M440.221,338.697L448.816,338.697" style="fill:none;fill-rule:nonzero;stroke:black;stroke-width:0.28px;"/>
        <path d="M440.221,258.193L440.221,258.193C437.111,258.193 434.552,260.752 434.552,263.862L434.552,263.862" style="fill-opacity:0;fill-rule:nonzero;stroke:black;stroke-width:0.28px;"/>
        <path d="M454.485,205.184L454.485,252.524" style="fill:none;fill-rule:nonzero;stroke:black;stroke-width:0.28px;"/>
        <path d="M383.228,199.514L448.816,199.514" style="fill:none;fill-rule:nonzero;stroke:black;stroke-width:0.28px;"/>
        <path d="M383.228,199.514L383.228,199.514C380.118,199.514 377.558,202.074 377.558,205.184L377.558,205.184" style="fill-opacity:0;fill-rule:nonzero;stroke:black;stroke-width:0.28px;"/>
        <path d="M434.552,263.862L434.552,333.028" style="fill:none;fill-rule:nonzero;stroke:black;stroke-width:0.28px;"/>
        <path d="M454.485,205.184L454.485,205.184C454.485,202.074 451.926,199.514 448.816,199.514L448.816,199.514" style="fill-opacity:0;fill-rule:nonzero;stroke:black;stroke-width:0.28px;"/>
        <path d="M454.485,344.366L454.485,344.366C454.485,341.256 451.926,338.697 448.816,338.697L448.816,338.697" style="fill-opacity:0;fill-rule:nonzero;stroke:black;stroke-width:0.28px;"/>
        <path d="M448.816,416.748L448.816,416.748C451.926,416.748 454.485,414.189 454.485,411.079L454.485,411.079" style="fill-opacity:0;fill-rule:nonzero;stroke:black;stroke-width:0.28px;"/>
        <path d="M454.485,344.366L454.485,411.079" style="fill:none;fill-rule:nonzero;stroke:black;stroke-width:0.28px;"/>
        <path d="M377.558,411.079L377.558,205.184" style="fill:none;fill-rule:nonzero;stroke:black;stroke-width:0.28px;"/>
    </g>
    <g transform="matrix(1,0,0,1,333.858,175.61)">
        <path d="M83.069,89.366L83.259,88.949L83.492,88.61L83.805,88.237L84.111,88.034L84.397,87.898L84.726,87.775L84.955,87.792L85.122,87.966L85.122,88.229L85.02,88.38L84.832,88.448L84.592,88.535L84.435,88.622L84.223,88.761L84.056,88.945L83.915,89.125L83.785,89.319L83.687,89.578L83.568,89.802L83.379,89.869L83.225,89.848L83.084,89.735L83.061,89.536L83.069,89.366Z" style="fill:none;stroke:black;stroke-width:0.1px;stroke-miterlimit:1.5;"/>
    </g>
    <g transform="matrix(6.12323e-17,-1,1,6.12323e-17,329.105,350.969)">
        <path d="M83.069,89.366L83.259,88.949L83.492,88.61L83.805,88.237L84.111,88.034L84.397,87.898L84.726,87.775L84.955,87.792L85.122,87.966L85.122,88.229L85.02,88.38L84.832,88.448L84.592,88.535L84.435,88.622L84.223,88.761L84.056,88.945L83.915,89.125L83.785,89.319L83.687,89.578L83.568,89.802L83.379,89.869L83.225,89.848L83.084,89.735L83.061,89.536L83.069,89.366Z" style="fill:none;stroke:black;stroke-width:0.1px;stroke-miterlimit:1.5;"/>
    </g>
    <g transform="matrix(-1,-1.22465e-16,1.22465e-16,-1,504.421,355.726)">
        <path d="M83.069,89.366L83.259,88.949L83.492,88.61L83.805,88.237L84.111,88.034L84.397,87.898L84.726,87.775L84.955,87.792L85.122,87.966L85.122,88.229L85.02,88.38L84.832,88.448L84.592,88.535L84.435,88.622L84.223,88.761L84.056,88.945L83.915,89.125L83.785,89.319L83.687,89.578L83.568,89.802L83.379,89.869L83.225,89.848L83.084,89.735L83.061,89.536L83.069,89.366Z" style="fill:none;stroke:black;stroke-width:0.1px;stroke-miterlimit:1.5;"/>
    </g>
    <g transform="matrix(-1.83697e-16,1,-1,-1.83697e-16,509.174,180.367)">
        <path d="M83.069,89.366L83.259,88.949L83.492,88.61L83.805,88.237L84.111,88.034L84.397,87.898L84.726,87.775L84.955,87.792L85.122,87.966L85.122,88.229L85.02,88.38L84.832,88.448L84.592,88.535L84.435,88.622L84.223,88.761L84.056,88.945L83.915,89.125L83.785,89.319L83.687,89.578L83.568,89.802L83.379,89.869L83.225,89.848L83.084,89.735L83.061,89.536L83.069,89.366Z" style="fill:none;stroke:black;stroke-width:0.1px;stroke-miterlimit:1.5;"/>
    </g>
</svg>
