<?xml version="1.0" standalone="no"?>
 <!DOCTYPE svg PUBLIC "-//W3C//DTD SVG 1.1//EN" 
 "http://www.w3.org/Graphics/SVG/1.1/DTD/svg11.dtd"> 
<svg
  xmlns:svg="http://www.w3.org/2000/svg"
  xmlns="http://www.w3.org/2000/svg"
  xmlns:xlink="http://www.w3.org/1999/xlink"
  version="1.1"
  width="29.700220cm" height="21.000720cm" viewBox="0 0 297002200 210007200">
<title>SVG Picture created as GlowCoreMini-F_Paste.svg date 2022/03/25 12:32:18 </title>
  <desc>Picture generated by PCBNEW </desc>
<g style="fill:#000000; fill-opacity:1.000000;stroke:#000000; stroke-opacity:1.000000;
stroke-linecap:round; stroke-linejoin:round;"
 transform="translate(0 0) scale(1 1)">
</g>
<g style="fill:#000000; fill-opacity:0.0; 
stroke:#000000; stroke-width:0.000000; stroke-opacity:1; 
stroke-linecap:round; stroke-linejoin:round;">
</g>
<g style="fill:#000000; fill-opacity:0.0; 
stroke:#000000; stroke-width:10000.000000; stroke-opacity:1; 
stroke-linecap:round; stroke-linejoin:round;">
<path d="M145242490 94952116
L145242490 94452116
" />
<path d="M145242490 94452116
L145542490 94452116
" />
<path d="M145542490 94452116
L145542490 94952116
" />
<path d="M145542490 94952116
L145242490 94952116
" />
</g>
<g style="fill:#000000; fill-opacity:1.0; 
stroke:#000000; stroke-width:10000.000000; stroke-opacity:1; 
stroke-linecap:round; stroke-linejoin:round;">
<path style="fill:#000000; fill-opacity:1.0; 
stroke:#000000; stroke-width:10000.000000; stroke-opacity:1; 
stroke-linecap:round; stroke-linejoin:round;fill-rule:evenodd;"
d="M 145542490.000000,94952116.000000
145242490.000000,94952116.000000
145242490.000000,94452116.000000
145542490.000000,94452116.000000
Z" /> 
</g>
<g style="fill:#000000; fill-opacity:0.0; 
stroke:#000000; stroke-width:10000.000000; stroke-opacity:1; 
stroke-linecap:round; stroke-linejoin:round;">
<path d="M146542490 94952116
L146542490 94452116
" />
<path d="M146542490 94452116
L146842490 94452116
" />
<path d="M146842490 94452116
L146842490 94952116
" />
<path d="M146842490 94952116
L146542490 94952116
" />
</g>
<g style="fill:#000000; fill-opacity:1.0; 
stroke:#000000; stroke-width:10000.000000; stroke-opacity:1; 
stroke-linecap:round; stroke-linejoin:round;">
<path style="fill:#000000; fill-opacity:1.0; 
stroke:#000000; stroke-width:10000.000000; stroke-opacity:1; 
stroke-linecap:round; stroke-linejoin:round;fill-rule:evenodd;"
d="M 146842490.000000,94952116.000000
146542490.000000,94952116.000000
146542490.000000,94452116.000000
146842490.000000,94452116.000000
Z" /> 
</g>
<g style="fill:#000000; fill-opacity:0.0; 
stroke:#000000; stroke-width:10000.000000; stroke-opacity:1; 
stroke-linecap:round; stroke-linejoin:round;">
<path d="M145892490 94952116
L145892490 94452116
" />
<path d="M145892490 94452116
L146192490 94452116
" />
<path d="M146192490 94452116
L146192490 94952116
" />
<path d="M146192490 94952116
L145892490 94952116
" />
</g>
<g style="fill:#000000; fill-opacity:1.0; 
stroke:#000000; stroke-width:10000.000000; stroke-opacity:1; 
stroke-linecap:round; stroke-linejoin:round;">
<path style="fill:#000000; fill-opacity:1.0; 
stroke:#000000; stroke-width:10000.000000; stroke-opacity:1; 
stroke-linecap:round; stroke-linejoin:round;fill-rule:evenodd;"
d="M 146192490.000000,94952116.000000
145892490.000000,94952116.000000
145892490.000000,94452116.000000
146192490.000000,94452116.000000
Z" /> 
</g>
<g style="fill:#000000; fill-opacity:0.0; 
stroke:#000000; stroke-width:10000.000000; stroke-opacity:1; 
stroke-linecap:round; stroke-linejoin:round;">
<path d="M145242490 92802116
L145242490 92302116
" />
<path d="M145242490 92302116
L145542490 92302116
" />
<path d="M145542490 92302116
L145542490 92802116
" />
<path d="M145542490 92802116
L145242490 92802116
" />
</g>
<g style="fill:#000000; fill-opacity:1.0; 
stroke:#000000; stroke-width:10000.000000; stroke-opacity:1; 
stroke-linecap:round; stroke-linejoin:round;">
<path style="fill:#000000; fill-opacity:1.0; 
stroke:#000000; stroke-width:10000.000000; stroke-opacity:1; 
stroke-linecap:round; stroke-linejoin:round;fill-rule:evenodd;"
d="M 145542490.000000,92802116.000000
145242490.000000,92802116.000000
145242490.000000,92302116.000000
145542490.000000,92302116.000000
Z" /> 
</g>
<g style="fill:#000000; fill-opacity:0.0; 
stroke:#000000; stroke-width:10000.000000; stroke-opacity:1; 
stroke-linecap:round; stroke-linejoin:round;">
<path d="M146542490 92802116
L146542490 92302116
" />
<path d="M146542490 92302116
L146842490 92302116
" />
<path d="M146842490 92302116
L146842490 92802116
" />
<path d="M146842490 92802116
L146542490 92802116
" />
</g>
<g style="fill:#000000; fill-opacity:1.0; 
stroke:#000000; stroke-width:10000.000000; stroke-opacity:1; 
stroke-linecap:round; stroke-linejoin:round;">
<path style="fill:#000000; fill-opacity:1.0; 
stroke:#000000; stroke-width:10000.000000; stroke-opacity:1; 
stroke-linecap:round; stroke-linejoin:round;fill-rule:evenodd;"
d="M 146842490.000000,92802116.000000
146542490.000000,92802116.000000
146542490.000000,92302116.000000
146842490.000000,92302116.000000
Z" /> 
</g>
<g style="fill:#000000; fill-opacity:0.0; 
stroke:#000000; stroke-width:10000.000000; stroke-opacity:1; 
stroke-linecap:round; stroke-linejoin:round;">
<path d="M145892490 92802116
L145892490 92302116
" />
<path d="M145892490 92302116
L146192490 92302116
" />
<path d="M146192490 92302116
L146192490 92802116
" />
<path d="M146192490 92802116
L145892490 92802116
" />
</g>
<g style="fill:#000000; fill-opacity:1.0; 
stroke:#000000; stroke-width:10000.000000; stroke-opacity:1; 
stroke-linecap:round; stroke-linejoin:round;">
<path style="fill:#000000; fill-opacity:1.0; 
stroke:#000000; stroke-width:10000.000000; stroke-opacity:1; 
stroke-linecap:round; stroke-linejoin:round;fill-rule:evenodd;"
d="M 146192490.000000,92802116.000000
145892490.000000,92802116.000000
145892490.000000,92302116.000000
146192490.000000,92302116.000000
Z" /> 
</g>
<g style="fill:#000000; fill-opacity:0.0; 
stroke:#000000; stroke-width:240000.000000; stroke-opacity:1; 
stroke-linecap:round; stroke-linejoin:round;">
<path d="M147287489.971780 93797116.007561 A721249.000000 721249.000000 0.0 0 0 147797489.992439 94307116.028220" />
<path d="M148647490.028220 93457115.992439 A721249.000000 721249.000000 0.0 0 0 148137490.007561 92947115.971780" />
<path d="M147797489.992439 92947115.971780 A721249.000000 721249.000000 0.0 0 0 147287489.971780 93457115.992439" />
<path d="M148137490.007561 94307116.028220 A721249.000000 721249.000000 0.0 0 0 148647490.028220 93797116.007561" />
<g >
</g>
<g style="fill:#000000; fill-opacity:0.0; 
stroke:#000000; stroke-width:1.000000; stroke-opacity:1; 
stroke-linecap:round; stroke-linejoin:round;">
</g>
<g style="fill:#000000; fill-opacity:1.0; 
stroke:#000000; stroke-width:1.000000; stroke-opacity:1; 
stroke-linecap:round; stroke-linejoin:round;">
<path style="fill:#000000; fill-opacity:1.0; 
stroke:#000000; stroke-width:1.000000; stroke-opacity:1; 
stroke-linecap:round; stroke-linejoin:round;fill-rule:evenodd;"
d="M 151839999.000000,131750001.000000
151839999.000000,132649999.000000
150340001.000000,132649999.000000
150340001.000000,131750001.000000
Z" /> 
<path style="fill:#000000; fill-opacity:1.0; 
stroke:#000000; stroke-width:1.000000; stroke-opacity:1; 
stroke-linecap:round; stroke-linejoin:round;fill-rule:evenodd;"
d="M 148039999.000000,131750001.000000
148039999.000000,132649999.000000
146540001.000000,132649999.000000
146540001.000000,131750001.000000
Z" /> 
<path style="fill:#000000; fill-opacity:1.0; 
stroke:#000000; stroke-width:1.000000; stroke-opacity:1; 
stroke-linecap:round; stroke-linejoin:round;fill-rule:evenodd;"
d="M 148039999.000000,133250001.000000
148039999.000000,134149999.000000
146540001.000000,134149999.000000
146540001.000000,133250001.000000
Z" /> 
<path style="fill:#000000; fill-opacity:1.0; 
stroke:#000000; stroke-width:1.000000; stroke-opacity:1; 
stroke-linecap:round; stroke-linejoin:round;fill-rule:evenodd;"
d="M 151839999.000000,133250001.000000
151839999.000000,134149999.000000
150340001.000000,134149999.000000
150340001.000000,133250001.000000
Z" /> 
</g>
<g >
</g>
<g style="fill:#000000; fill-opacity:1.0; 
stroke:#000000; stroke-width:1.000000; stroke-opacity:1; 
stroke-linecap:round; stroke-linejoin:round;">
<path style="fill:#000000; fill-opacity:1.0; 
stroke:#000000; stroke-width:1.000000; stroke-opacity:1; 
stroke-linecap:round; stroke-linejoin:round;fill-rule:evenodd;"
d="M 155054486.000000,129177598.000000
154154488.000000,129177598.000000
154154488.000000,128927600.000000
155054486.000000,128927600.000000
Z" /> 
<path style="fill:#000000; fill-opacity:1.0; 
stroke:#000000; stroke-width:1.000000; stroke-opacity:1; 
stroke-linecap:round; stroke-linejoin:round;fill-rule:evenodd;"
d="M 155054486.000000,128677598.000000
154154488.000000,128677598.000000
154154488.000000,128427600.000000
155054486.000000,128427600.000000
Z" /> 
<path style="fill:#000000; fill-opacity:1.0; 
stroke:#000000; stroke-width:1.000000; stroke-opacity:1; 
stroke-linecap:round; stroke-linejoin:round;fill-rule:evenodd;"
d="M 155054486.000000,128177598.000000
154154488.000000,128177598.000000
154154488.000000,127927600.000000
155054486.000000,127927600.000000
Z" /> 
<path style="fill:#000000; fill-opacity:1.0; 
stroke:#000000; stroke-width:1.000000; stroke-opacity:1; 
stroke-linecap:round; stroke-linejoin:round;fill-rule:evenodd;"
d="M 155054486.000000,127677598.000000
154154488.000000,127677598.000000
154154488.000000,127427600.000000
155054486.000000,127427600.000000
Z" /> 
<path style="fill:#000000; fill-opacity:1.0; 
stroke:#000000; stroke-width:1.000000; stroke-opacity:1; 
stroke-linecap:round; stroke-linejoin:round;fill-rule:evenodd;"
d="M 155054486.000000,127177599.000000
154154488.000000,127177599.000000
154154488.000000,126927601.000000
155054486.000000,126927601.000000
Z" /> 
<path style="fill:#000000; fill-opacity:1.0; 
stroke:#000000; stroke-width:1.000000; stroke-opacity:1; 
stroke-linecap:round; stroke-linejoin:round;fill-rule:evenodd;"
d="M 155054486.000000,126677599.000000
154154488.000000,126677599.000000
154154488.000000,126427601.000000
155054486.000000,126427601.000000
Z" /> 
<path style="fill:#000000; fill-opacity:1.0; 
stroke:#000000; stroke-width:1.000000; stroke-opacity:1; 
stroke-linecap:round; stroke-linejoin:round;fill-rule:evenodd;"
d="M 155054486.000000,126177599.000000
154154488.000000,126177599.000000
154154488.000000,125927601.000000
155054486.000000,125927601.000000
Z" /> 
<path style="fill:#000000; fill-opacity:1.0; 
stroke:#000000; stroke-width:1.000000; stroke-opacity:1; 
stroke-linecap:round; stroke-linejoin:round;fill-rule:evenodd;"
d="M 155629500.000000,125602585.000000
155379502.000000,125602585.000000
155379502.000000,124702587.000000
155629500.000000,124702587.000000
Z" /> 
<path style="fill:#000000; fill-opacity:1.0; 
stroke:#000000; stroke-width:1.000000; stroke-opacity:1; 
stroke-linecap:round; stroke-linejoin:round;fill-rule:evenodd;"
d="M 156129500.000000,125602585.000000
155879502.000000,125602585.000000
155879502.000000,124702587.000000
156129500.000000,124702587.000000
Z" /> 
<path style="fill:#000000; fill-opacity:1.0; 
stroke:#000000; stroke-width:1.000000; stroke-opacity:1; 
stroke-linecap:round; stroke-linejoin:round;fill-rule:evenodd;"
d="M 156629500.000000,125602585.000000
156379502.000000,125602585.000000
156379502.000000,124702587.000000
156629500.000000,124702587.000000
Z" /> 
<path style="fill:#000000; fill-opacity:1.0; 
stroke:#000000; stroke-width:1.000000; stroke-opacity:1; 
stroke-linecap:round; stroke-linejoin:round;fill-rule:evenodd;"
d="M 157129500.000000,125602585.000000
156879502.000000,125602585.000000
156879502.000000,124702587.000000
157129500.000000,124702587.000000
Z" /> 
<path style="fill:#000000; fill-opacity:1.0; 
stroke:#000000; stroke-width:1.000000; stroke-opacity:1; 
stroke-linecap:round; stroke-linejoin:round;fill-rule:evenodd;"
d="M 157629499.000000,125602585.000000
157379501.000000,125602585.000000
157379501.000000,124702587.000000
157629499.000000,124702587.000000
Z" /> 
<path style="fill:#000000; fill-opacity:1.0; 
stroke:#000000; stroke-width:1.000000; stroke-opacity:1; 
stroke-linecap:round; stroke-linejoin:round;fill-rule:evenodd;"
d="M 158129499.000000,125602585.000000
157879501.000000,125602585.000000
157879501.000000,124702587.000000
158129499.000000,124702587.000000
Z" /> 
<path style="fill:#000000; fill-opacity:1.0; 
stroke:#000000; stroke-width:1.000000; stroke-opacity:1; 
stroke-linecap:round; stroke-linejoin:round;fill-rule:evenodd;"
d="M 158629499.000000,125602585.000000
158379501.000000,125602585.000000
158379501.000000,124702587.000000
158629499.000000,124702587.000000
Z" /> 
<path style="fill:#000000; fill-opacity:1.0; 
stroke:#000000; stroke-width:1.000000; stroke-opacity:1; 
stroke-linecap:round; stroke-linejoin:round;fill-rule:evenodd;"
d="M 159854513.000000,126177599.000000
158954515.000000,126177599.000000
158954515.000000,125927601.000000
159854513.000000,125927601.000000
Z" /> 
<path style="fill:#000000; fill-opacity:1.0; 
stroke:#000000; stroke-width:1.000000; stroke-opacity:1; 
stroke-linecap:round; stroke-linejoin:round;fill-rule:evenodd;"
d="M 159854513.000000,126677599.000000
158954515.000000,126677599.000000
158954515.000000,126427601.000000
159854513.000000,126427601.000000
Z" /> 
<path style="fill:#000000; fill-opacity:1.0; 
stroke:#000000; stroke-width:1.000000; stroke-opacity:1; 
stroke-linecap:round; stroke-linejoin:round;fill-rule:evenodd;"
d="M 159854513.000000,127177599.000000
158954515.000000,127177599.000000
158954515.000000,126927601.000000
159854513.000000,126927601.000000
Z" /> 
<path style="fill:#000000; fill-opacity:1.0; 
stroke:#000000; stroke-width:1.000000; stroke-opacity:1; 
stroke-linecap:round; stroke-linejoin:round;fill-rule:evenodd;"
d="M 159854513.000000,127677598.000000
158954515.000000,127677598.000000
158954515.000000,127427600.000000
159854513.000000,127427600.000000
Z" /> 
<path style="fill:#000000; fill-opacity:1.0; 
stroke:#000000; stroke-width:1.000000; stroke-opacity:1; 
stroke-linecap:round; stroke-linejoin:round;fill-rule:evenodd;"
d="M 159854513.000000,128177598.000000
158954515.000000,128177598.000000
158954515.000000,127927600.000000
159854513.000000,127927600.000000
Z" /> 
<path style="fill:#000000; fill-opacity:1.0; 
stroke:#000000; stroke-width:1.000000; stroke-opacity:1; 
stroke-linecap:round; stroke-linejoin:round;fill-rule:evenodd;"
d="M 159854513.000000,128677598.000000
158954515.000000,128677598.000000
158954515.000000,128427600.000000
159854513.000000,128427600.000000
Z" /> 
<path style="fill:#000000; fill-opacity:1.0; 
stroke:#000000; stroke-width:1.000000; stroke-opacity:1; 
stroke-linecap:round; stroke-linejoin:round;fill-rule:evenodd;"
d="M 159854513.000000,129177598.000000
158954515.000000,129177598.000000
158954515.000000,128927600.000000
159854513.000000,128927600.000000
Z" /> 
<path style="fill:#000000; fill-opacity:1.0; 
stroke:#000000; stroke-width:1.000000; stroke-opacity:1; 
stroke-linecap:round; stroke-linejoin:round;fill-rule:evenodd;"
d="M 158629499.000000,130402612.000000
158379501.000000,130402612.000000
158379501.000000,129502614.000000
158629499.000000,129502614.000000
Z" /> 
<path style="fill:#000000; fill-opacity:1.0; 
stroke:#000000; stroke-width:1.000000; stroke-opacity:1; 
stroke-linecap:round; stroke-linejoin:round;fill-rule:evenodd;"
d="M 158129499.000000,130402612.000000
157879501.000000,130402612.000000
157879501.000000,129502614.000000
158129499.000000,129502614.000000
Z" /> 
<path style="fill:#000000; fill-opacity:1.0; 
stroke:#000000; stroke-width:1.000000; stroke-opacity:1; 
stroke-linecap:round; stroke-linejoin:round;fill-rule:evenodd;"
d="M 157629499.000000,130402612.000000
157379501.000000,130402612.000000
157379501.000000,129502614.000000
157629499.000000,129502614.000000
Z" /> 
<path style="fill:#000000; fill-opacity:1.0; 
stroke:#000000; stroke-width:1.000000; stroke-opacity:1; 
stroke-linecap:round; stroke-linejoin:round;fill-rule:evenodd;"
d="M 157129500.000000,130402612.000000
156879502.000000,130402612.000000
156879502.000000,129502614.000000
157129500.000000,129502614.000000
Z" /> 
<path style="fill:#000000; fill-opacity:1.0; 
stroke:#000000; stroke-width:1.000000; stroke-opacity:1; 
stroke-linecap:round; stroke-linejoin:round;fill-rule:evenodd;"
d="M 156629500.000000,130402612.000000
156379502.000000,130402612.000000
156379502.000000,129502614.000000
156629500.000000,129502614.000000
Z" /> 
<path style="fill:#000000; fill-opacity:1.0; 
stroke:#000000; stroke-width:1.000000; stroke-opacity:1; 
stroke-linecap:round; stroke-linejoin:round;fill-rule:evenodd;"
d="M 156129500.000000,130402612.000000
155879502.000000,130402612.000000
155879502.000000,129502614.000000
156129500.000000,129502614.000000
Z" /> 
<path style="fill:#000000; fill-opacity:1.0; 
stroke:#000000; stroke-width:1.000000; stroke-opacity:1; 
stroke-linecap:round; stroke-linejoin:round;fill-rule:evenodd;"
d="M 155629500.000000,130402612.000000
155379502.000000,130402612.000000
155379502.000000,129502614.000000
155629500.000000,129502614.000000
Z" /> 
<path style="fill:#000000; fill-opacity:1.0; 
stroke:#000000; stroke-width:1.000000; stroke-opacity:1; 
stroke-linecap:round; stroke-linejoin:round;fill-rule:evenodd;"
d="M 158554499.000000,128002599.000000
157654501.000000,128002599.000000
157654501.000000,127102601.000000
158554499.000000,127102601.000000
Z" /> 
<path style="fill:#000000; fill-opacity:1.0; 
stroke:#000000; stroke-width:1.000000; stroke-opacity:1; 
stroke-linecap:round; stroke-linejoin:round;fill-rule:evenodd;"
d="M 157454499.000000,128002599.000000
156554501.000000,128002599.000000
156554501.000000,127102601.000000
157454499.000000,127102601.000000
Z" /> 
<path style="fill:#000000; fill-opacity:1.0; 
stroke:#000000; stroke-width:1.000000; stroke-opacity:1; 
stroke-linecap:round; stroke-linejoin:round;fill-rule:evenodd;"
d="M 157454499.000000,126902599.000000
156554501.000000,126902599.000000
156554501.000000,126002601.000000
157454499.000000,126002601.000000
Z" /> 
<path style="fill:#000000; fill-opacity:1.0; 
stroke:#000000; stroke-width:1.000000; stroke-opacity:1; 
stroke-linecap:round; stroke-linejoin:round;fill-rule:evenodd;"
d="M 156354499.000000,126902599.000000
155454501.000000,126902599.000000
155454501.000000,126002601.000000
156354499.000000,126002601.000000
Z" /> 
<path style="fill:#000000; fill-opacity:1.0; 
stroke:#000000; stroke-width:1.000000; stroke-opacity:1; 
stroke-linecap:round; stroke-linejoin:round;fill-rule:evenodd;"
d="M 157454499.000000,129102599.000000
156554501.000000,129102599.000000
156554501.000000,128202601.000000
157454499.000000,128202601.000000
Z" /> 
<path style="fill:#000000; fill-opacity:1.0; 
stroke:#000000; stroke-width:1.000000; stroke-opacity:1; 
stroke-linecap:round; stroke-linejoin:round;fill-rule:evenodd;"
d="M 158554499.000000,129102599.000000
157654501.000000,129102599.000000
157654501.000000,128202601.000000
158554499.000000,128202601.000000
Z" /> 
<path style="fill:#000000; fill-opacity:1.0; 
stroke:#000000; stroke-width:1.000000; stroke-opacity:1; 
stroke-linecap:round; stroke-linejoin:round;fill-rule:evenodd;"
d="M 156354499.000000,128002599.000000
155454501.000000,128002599.000000
155454501.000000,127102601.000000
156354499.000000,127102601.000000
Z" /> 
<path style="fill:#000000; fill-opacity:1.0; 
stroke:#000000; stroke-width:1.000000; stroke-opacity:1; 
stroke-linecap:round; stroke-linejoin:round;fill-rule:evenodd;"
d="M 156354499.000000,129102599.000000
155454501.000000,129102599.000000
155454501.000000,128202601.000000
156354499.000000,128202601.000000
Z" /> 
<path style="fill:#000000; fill-opacity:1.0; 
stroke:#000000; stroke-width:1.000000; stroke-opacity:1; 
stroke-linecap:round; stroke-linejoin:round;fill-rule:evenodd;"
d="M 158554499.000000,126902599.000000
157654501.000000,126902599.000000
157654501.000000,126002601.000000
158554499.000000,126002601.000000
Z" /> 
</g>
<g >
</g>
<g style="fill:#000000; fill-opacity:1.0; 
stroke:#000000; stroke-width:1.000000; stroke-opacity:1; 
stroke-linecap:round; stroke-linejoin:round;">
<path style="fill:#000000; fill-opacity:1.0; 
stroke:#000000; stroke-width:1.000000; stroke-opacity:1; 
stroke-linecap:round; stroke-linejoin:round;fill-rule:evenodd;"
d="M 150309601.000000,129802799.000000
150309601.000000,128902801.000000
151809599.000000,128902801.000000
151809599.000000,129802799.000000
Z" /> 
<path style="fill:#000000; fill-opacity:1.0; 
stroke:#000000; stroke-width:1.000000; stroke-opacity:1; 
stroke-linecap:round; stroke-linejoin:round;fill-rule:evenodd;"
d="M 146509601.000000,129802799.000000
146509601.000000,128902801.000000
148009599.000000,128902801.000000
148009599.000000,129802799.000000
Z" /> 
<path style="fill:#000000; fill-opacity:1.0; 
stroke:#000000; stroke-width:1.000000; stroke-opacity:1; 
stroke-linecap:round; stroke-linejoin:round;fill-rule:evenodd;"
d="M 150309601.000000,128302799.000000
150309601.000000,127402801.000000
151809599.000000,127402801.000000
151809599.000000,128302799.000000
Z" /> 
<path style="fill:#000000; fill-opacity:1.0; 
stroke:#000000; stroke-width:1.000000; stroke-opacity:1; 
stroke-linecap:round; stroke-linejoin:round;fill-rule:evenodd;"
d="M 146509601.000000,128302799.000000
146509601.000000,127402801.000000
148009599.000000,127402801.000000
148009599.000000,128302799.000000
Z" /> 
</g>
<g >
</g>
<g style="fill:#000000; fill-opacity:1.0; 
stroke:#000000; stroke-width:1.000000; stroke-opacity:1; 
stroke-linecap:round; stroke-linejoin:round;">
<path style="fill:#000000; fill-opacity:1.0; 
stroke:#000000; stroke-width:1.000000; stroke-opacity:1; 
stroke-linecap:round; stroke-linejoin:round;fill-rule:evenodd;"
d="M 157955000.000000,80227500.000000
157936921.000000,80318387.000000
157885438.000000,80395438.000000
157808387.000000,80446921.000000
157717500.000000,80465000.000000
157217500.000000,80465000.000000
157126613.000000,80446921.000000
157049562.000000,80395438.000000
156998079.000000,80318387.000000
156980000.000000,80227500.000000
156980000.000000,79752500.000000
156998079.000000,79661613.000000
157049562.000000,79584562.000000
157126613.000000,79533079.000000
157217500.000000,79515000.000000
157717500.000000,79515000.000000
157808387.000000,79533079.000000
157885438.000000,79584562.000000
157936921.000000,79661613.000000
157955000.000000,79752500.000000
Z" /> 
<path style="fill:#000000; fill-opacity:1.0; 
stroke:#000000; stroke-width:1.000000; stroke-opacity:1; 
stroke-linecap:round; stroke-linejoin:round;fill-rule:evenodd;"
d="M 159780000.000000,80227500.000000
159761921.000000,80318387.000000
159710438.000000,80395438.000000
159633387.000000,80446921.000000
159542500.000000,80465000.000000
159042500.000000,80465000.000000
158951613.000000,80446921.000000
158874562.000000,80395438.000000
158823079.000000,80318387.000000
158805000.000000,80227500.000000
158805000.000000,79752500.000000
158823079.000000,79661613.000000
158874562.000000,79584562.000000
158951613.000000,79533079.000000
159042500.000000,79515000.000000
159542500.000000,79515000.000000
159633387.000000,79533079.000000
159710438.000000,79584562.000000
159761921.000000,79661613.000000
159780000.000000,79752500.000000
Z" /> 
</g>
<g >
</g>
<g style="fill:#000000; fill-opacity:1.0; 
stroke:#000000; stroke-width:1.000000; stroke-opacity:1; 
stroke-linecap:round; stroke-linejoin:round;">
<path style="fill:#000000; fill-opacity:1.0; 
stroke:#000000; stroke-width:1.000000; stroke-opacity:1; 
stroke-linecap:round; stroke-linejoin:round;fill-rule:evenodd;"
d="M 145252500.000000,133135000.000000
145161613.000000,133116921.000000
145084562.000000,133065438.000000
145033079.000000,132988387.000000
145015000.000000,132897500.000000
145015000.000000,132297500.000000
145033079.000000,132206613.000000
145084562.000000,132129562.000000
145161613.000000,132078079.000000
145252500.000000,132060000.000000
145727500.000000,132060000.000000
145818387.000000,132078079.000000
145895438.000000,132129562.000000
145946921.000000,132206613.000000
145965000.000000,132297500.000000
145965000.000000,132897500.000000
145946921.000000,132988387.000000
145895438.000000,133065438.000000
145818387.000000,133116921.000000
145727500.000000,133135000.000000
Z" /> 
<path style="fill:#000000; fill-opacity:1.0; 
stroke:#000000; stroke-width:1.000000; stroke-opacity:1; 
stroke-linecap:round; stroke-linejoin:round;fill-rule:evenodd;"
d="M 145252500.000000,134860000.000000
145161613.000000,134841921.000000
145084562.000000,134790438.000000
145033079.000000,134713387.000000
145015000.000000,134622500.000000
145015000.000000,134022500.000000
145033079.000000,133931613.000000
145084562.000000,133854562.000000
145161613.000000,133803079.000000
145252500.000000,133785000.000000
145727500.000000,133785000.000000
145818387.000000,133803079.000000
145895438.000000,133854562.000000
145946921.000000,133931613.000000
145965000.000000,134022500.000000
145965000.000000,134622500.000000
145946921.000000,134713387.000000
145895438.000000,134790438.000000
145818387.000000,134841921.000000
145727500.000000,134860000.000000
Z" /> 
</g>
<g >
</g>
<g style="fill:#000000; fill-opacity:1.0; 
stroke:#000000; stroke-width:1.000000; stroke-opacity:1; 
stroke-linecap:round; stroke-linejoin:round;">
<path style="fill:#000000; fill-opacity:1.0; 
stroke:#000000; stroke-width:1.000000; stroke-opacity:1; 
stroke-linecap:round; stroke-linejoin:round;fill-rule:evenodd;"
d="M 138435000.000000,88917500.000000
138416921.000000,89008387.000000
138365438.000000,89085438.000000
138288387.000000,89136921.000000
138197500.000000,89155000.000000
137597500.000000,89155000.000000
137506613.000000,89136921.000000
137429562.000000,89085438.000000
137378079.000000,89008387.000000
137360000.000000,88917500.000000
137360000.000000,88442500.000000
137378079.000000,88351613.000000
137429562.000000,88274562.000000
137506613.000000,88223079.000000
137597500.000000,88205000.000000
138197500.000000,88205000.000000
138288387.000000,88223079.000000
138365438.000000,88274562.000000
138416921.000000,88351613.000000
138435000.000000,88442500.000000
Z" /> 
<path style="fill:#000000; fill-opacity:1.0; 
stroke:#000000; stroke-width:1.000000; stroke-opacity:1; 
stroke-linecap:round; stroke-linejoin:round;fill-rule:evenodd;"
d="M 140160000.000000,88917500.000000
140141921.000000,89008387.000000
140090438.000000,89085438.000000
140013387.000000,89136921.000000
139922500.000000,89155000.000000
139322500.000000,89155000.000000
139231613.000000,89136921.000000
139154562.000000,89085438.000000
139103079.000000,89008387.000000
139085000.000000,88917500.000000
139085000.000000,88442500.000000
139103079.000000,88351613.000000
139154562.000000,88274562.000000
139231613.000000,88223079.000000
139322500.000000,88205000.000000
139922500.000000,88205000.000000
140013387.000000,88223079.000000
140090438.000000,88274562.000000
140141921.000000,88351613.000000
140160000.000000,88442500.000000
Z" /> 
</g>
<g >
</g>
<g style="fill:#000000; fill-opacity:1.0; 
stroke:#000000; stroke-width:1.000000; stroke-opacity:1; 
stroke-linecap:round; stroke-linejoin:round;">
<path style="fill:#000000; fill-opacity:1.0; 
stroke:#000000; stroke-width:1.000000; stroke-opacity:1; 
stroke-linecap:round; stroke-linejoin:round;fill-rule:evenodd;"
d="M 134092500.000000,90725000.000000
134001613.000000,90706921.000000
133924562.000000,90655438.000000
133873079.000000,90578387.000000
133855000.000000,90487500.000000
133855000.000000,89987500.000000
133873079.000000,89896613.000000
133924562.000000,89819562.000000
134001613.000000,89768079.000000
134092500.000000,89750000.000000
134567500.000000,89750000.000000
134658387.000000,89768079.000000
134735438.000000,89819562.000000
134786921.000000,89896613.000000
134805000.000000,89987500.000000
134805000.000000,90487500.000000
134786921.000000,90578387.000000
134735438.000000,90655438.000000
134658387.000000,90706921.000000
134567500.000000,90725000.000000
Z" /> 
<path style="fill:#000000; fill-opacity:1.0; 
stroke:#000000; stroke-width:1.000000; stroke-opacity:1; 
stroke-linecap:round; stroke-linejoin:round;fill-rule:evenodd;"
d="M 134092500.000000,92550000.000000
134001613.000000,92531921.000000
133924562.000000,92480438.000000
133873079.000000,92403387.000000
133855000.000000,92312500.000000
133855000.000000,91812500.000000
133873079.000000,91721613.000000
133924562.000000,91644562.000000
134001613.000000,91593079.000000
134092500.000000,91575000.000000
134567500.000000,91575000.000000
134658387.000000,91593079.000000
134735438.000000,91644562.000000
134786921.000000,91721613.000000
134805000.000000,91812500.000000
134805000.000000,92312500.000000
134786921.000000,92403387.000000
134735438.000000,92480438.000000
134658387.000000,92531921.000000
134567500.000000,92550000.000000
Z" /> 
</g>
<g >
</g>
<g style="fill:#000000; fill-opacity:1.0; 
stroke:#000000; stroke-width:1.000000; stroke-opacity:1; 
stroke-linecap:round; stroke-linejoin:round;">
<path style="fill:#000000; fill-opacity:1.0; 
stroke:#000000; stroke-width:1.000000; stroke-opacity:1; 
stroke-linecap:round; stroke-linejoin:round;fill-rule:evenodd;"
d="M 151085000.000000,117187500.000000
151066921.000000,117278387.000000
151015438.000000,117355438.000000
150938387.000000,117406921.000000
150847500.000000,117425000.000000
150247500.000000,117425000.000000
150156613.000000,117406921.000000
150079562.000000,117355438.000000
150028079.000000,117278387.000000
150010000.000000,117187500.000000
150010000.000000,116712500.000000
150028079.000000,116621613.000000
150079562.000000,116544562.000000
150156613.000000,116493079.000000
150247500.000000,116475000.000000
150847500.000000,116475000.000000
150938387.000000,116493079.000000
151015438.000000,116544562.000000
151066921.000000,116621613.000000
151085000.000000,116712500.000000
Z" /> 
<path style="fill:#000000; fill-opacity:1.0; 
stroke:#000000; stroke-width:1.000000; stroke-opacity:1; 
stroke-linecap:round; stroke-linejoin:round;fill-rule:evenodd;"
d="M 152810000.000000,117187500.000000
152791921.000000,117278387.000000
152740438.000000,117355438.000000
152663387.000000,117406921.000000
152572500.000000,117425000.000000
151972500.000000,117425000.000000
151881613.000000,117406921.000000
151804562.000000,117355438.000000
151753079.000000,117278387.000000
151735000.000000,117187500.000000
151735000.000000,116712500.000000
151753079.000000,116621613.000000
151804562.000000,116544562.000000
151881613.000000,116493079.000000
151972500.000000,116475000.000000
152572500.000000,116475000.000000
152663387.000000,116493079.000000
152740438.000000,116544562.000000
152791921.000000,116621613.000000
152810000.000000,116712500.000000
Z" /> 
</g>
<g >
</g>
<g style="fill:#000000; fill-opacity:1.0; 
stroke:#000000; stroke-width:1.000000; stroke-opacity:1; 
stroke-linecap:round; stroke-linejoin:round;">
<path style="fill:#000000; fill-opacity:1.0; 
stroke:#000000; stroke-width:1.000000; stroke-opacity:1; 
stroke-linecap:round; stroke-linejoin:round;fill-rule:evenodd;"
d="M 159731200.000000,133286700.000000
159822087.000000,133304779.000000
159899138.000000,133356262.000000
159950621.000000,133433313.000000
159968700.000000,133524200.000000
159968700.000000,134124200.000000
159950621.000000,134215087.000000
159899138.000000,134292138.000000
159822087.000000,134343621.000000
159731200.000000,134361700.000000
159256200.000000,134361700.000000
159165313.000000,134343621.000000
159088262.000000,134292138.000000
159036779.000000,134215087.000000
159018700.000000,134124200.000000
159018700.000000,133524200.000000
159036779.000000,133433313.000000
159088262.000000,133356262.000000
159165313.000000,133304779.000000
159256200.000000,133286700.000000
Z" /> 
<path style="fill:#000000; fill-opacity:1.0; 
stroke:#000000; stroke-width:1.000000; stroke-opacity:1; 
stroke-linecap:round; stroke-linejoin:round;fill-rule:evenodd;"
d="M 159731200.000000,131561700.000000
159822087.000000,131579779.000000
159899138.000000,131631262.000000
159950621.000000,131708313.000000
159968700.000000,131799200.000000
159968700.000000,132399200.000000
159950621.000000,132490087.000000
159899138.000000,132567138.000000
159822087.000000,132618621.000000
159731200.000000,132636700.000000
159256200.000000,132636700.000000
159165313.000000,132618621.000000
159088262.000000,132567138.000000
159036779.000000,132490087.000000
159018700.000000,132399200.000000
159018700.000000,131799200.000000
159036779.000000,131708313.000000
159088262.000000,131631262.000000
159165313.000000,131579779.000000
159256200.000000,131561700.000000
Z" /> 
</g>
<g >
</g>
<g style="fill:#000000; fill-opacity:1.0; 
stroke:#000000; stroke-width:1.000000; stroke-opacity:1; 
stroke-linecap:round; stroke-linejoin:round;">
<path style="fill:#000000; fill-opacity:1.0; 
stroke:#000000; stroke-width:1.000000; stroke-opacity:1; 
stroke-linecap:round; stroke-linejoin:round;fill-rule:evenodd;"
d="M 144212390.000000,94092416.000000
144303277.000000,94110495.000000
144380328.000000,94161978.000000
144431811.000000,94239029.000000
144449890.000000,94329916.000000
144449890.000000,94829916.000000
144431811.000000,94920803.000000
144380328.000000,94997854.000000
144303277.000000,95049337.000000
144212390.000000,95067416.000000
143737390.000000,95067416.000000
143646503.000000,95049337.000000
143569452.000000,94997854.000000
143517969.000000,94920803.000000
143499890.000000,94829916.000000
143499890.000000,94329916.000000
143517969.000000,94239029.000000
143569452.000000,94161978.000000
143646503.000000,94110495.000000
143737390.000000,94092416.000000
Z" /> 
<path style="fill:#000000; fill-opacity:1.0; 
stroke:#000000; stroke-width:1.000000; stroke-opacity:1; 
stroke-linecap:round; stroke-linejoin:round;fill-rule:evenodd;"
d="M 144212390.000000,92267416.000000
144303277.000000,92285495.000000
144380328.000000,92336978.000000
144431811.000000,92414029.000000
144449890.000000,92504916.000000
144449890.000000,93004916.000000
144431811.000000,93095803.000000
144380328.000000,93172854.000000
144303277.000000,93224337.000000
144212390.000000,93242416.000000
143737390.000000,93242416.000000
143646503.000000,93224337.000000
143569452.000000,93172854.000000
143517969.000000,93095803.000000
143499890.000000,93004916.000000
143499890.000000,92504916.000000
143517969.000000,92414029.000000
143569452.000000,92336978.000000
143646503.000000,92285495.000000
143737390.000000,92267416.000000
Z" /> 
</g>
<g >
</g>
<g style="fill:#000000; fill-opacity:1.0; 
stroke:#000000; stroke-width:1.000000; stroke-opacity:1; 
stroke-linecap:round; stroke-linejoin:round;">
<path style="fill:#000000; fill-opacity:1.0; 
stroke:#000000; stroke-width:1.000000; stroke-opacity:1; 
stroke-linecap:round; stroke-linejoin:round;fill-rule:evenodd;"
d="M 141101201.000000,90537800.000000
141101201.000000,90182202.000000
142777599.000000,90182202.000000
142777599.000000,90537800.000000
Z" /> 
<path style="fill:#000000; fill-opacity:1.0; 
stroke:#000000; stroke-width:1.000000; stroke-opacity:1; 
stroke-linecap:round; stroke-linejoin:round;fill-rule:evenodd;"
d="M 141101201.000000,91187799.000000
141101201.000000,90832201.000000
142777599.000000,90832201.000000
142777599.000000,91187799.000000
Z" /> 
<path style="fill:#000000; fill-opacity:1.0; 
stroke:#000000; stroke-width:1.000000; stroke-opacity:1; 
stroke-linecap:round; stroke-linejoin:round;fill-rule:evenodd;"
d="M 141101201.000000,91837800.000000
141101201.000000,91482202.000000
142777599.000000,91482202.000000
142777599.000000,91837800.000000
Z" /> 
<path style="fill:#000000; fill-opacity:1.0; 
stroke:#000000; stroke-width:1.000000; stroke-opacity:1; 
stroke-linecap:round; stroke-linejoin:round;fill-rule:evenodd;"
d="M 141101201.000000,92487799.000000
141101201.000000,92132201.000000
142777599.000000,92132201.000000
142777599.000000,92487799.000000
Z" /> 
<path style="fill:#000000; fill-opacity:1.0; 
stroke:#000000; stroke-width:1.000000; stroke-opacity:1; 
stroke-linecap:round; stroke-linejoin:round;fill-rule:evenodd;"
d="M 141101201.000000,93137800.000000
141101201.000000,92782202.000000
142777599.000000,92782202.000000
142777599.000000,93137800.000000
Z" /> 
<path style="fill:#000000; fill-opacity:1.0; 
stroke:#000000; stroke-width:1.000000; stroke-opacity:1; 
stroke-linecap:round; stroke-linejoin:round;fill-rule:evenodd;"
d="M 141101201.000000,93787799.000000
141101201.000000,93432201.000000
142777599.000000,93432201.000000
142777599.000000,93787799.000000
Z" /> 
<path style="fill:#000000; fill-opacity:1.0; 
stroke:#000000; stroke-width:1.000000; stroke-opacity:1; 
stroke-linecap:round; stroke-linejoin:round;fill-rule:evenodd;"
d="M 141101201.000000,94437800.000000
141101201.000000,94082202.000000
142777599.000000,94082202.000000
142777599.000000,94437800.000000
Z" /> 
<path style="fill:#000000; fill-opacity:1.0; 
stroke:#000000; stroke-width:1.000000; stroke-opacity:1; 
stroke-linecap:round; stroke-linejoin:round;fill-rule:evenodd;"
d="M 135462401.000000,94437798.000000
135462401.000000,94082200.000000
137138799.000000,94082200.000000
137138799.000000,94437798.000000
Z" /> 
<path style="fill:#000000; fill-opacity:1.0; 
stroke:#000000; stroke-width:1.000000; stroke-opacity:1; 
stroke-linecap:round; stroke-linejoin:round;fill-rule:evenodd;"
d="M 135462401.000000,93787799.000000
135462401.000000,93432201.000000
137138799.000000,93432201.000000
137138799.000000,93787799.000000
Z" /> 
<path style="fill:#000000; fill-opacity:1.0; 
stroke:#000000; stroke-width:1.000000; stroke-opacity:1; 
stroke-linecap:round; stroke-linejoin:round;fill-rule:evenodd;"
d="M 135462401.000000,93137798.000000
135462401.000000,92782200.000000
137138799.000000,92782200.000000
137138799.000000,93137798.000000
Z" /> 
<path style="fill:#000000; fill-opacity:1.0; 
stroke:#000000; stroke-width:1.000000; stroke-opacity:1; 
stroke-linecap:round; stroke-linejoin:round;fill-rule:evenodd;"
d="M 135462401.000000,92487799.000000
135462401.000000,92132201.000000
137138799.000000,92132201.000000
137138799.000000,92487799.000000
Z" /> 
<path style="fill:#000000; fill-opacity:1.0; 
stroke:#000000; stroke-width:1.000000; stroke-opacity:1; 
stroke-linecap:round; stroke-linejoin:round;fill-rule:evenodd;"
d="M 135462401.000000,91837800.000000
135462401.000000,91482202.000000
137138799.000000,91482202.000000
137138799.000000,91837800.000000
Z" /> 
<path style="fill:#000000; fill-opacity:1.0; 
stroke:#000000; stroke-width:1.000000; stroke-opacity:1; 
stroke-linecap:round; stroke-linejoin:round;fill-rule:evenodd;"
d="M 135462401.000000,91187799.000000
135462401.000000,90832201.000000
137138799.000000,90832201.000000
137138799.000000,91187799.000000
Z" /> 
<path style="fill:#000000; fill-opacity:1.0; 
stroke:#000000; stroke-width:1.000000; stroke-opacity:1; 
stroke-linecap:round; stroke-linejoin:round;fill-rule:evenodd;"
d="M 135462401.000000,90537798.000000
135462401.000000,90182200.000000
137138799.000000,90182200.000000
137138799.000000,90537798.000000
Z" /> 
</g>
<g >
</g>
<g style="fill:#000000; fill-opacity:1.0; 
stroke:#000000; stroke-width:1.000000; stroke-opacity:1; 
stroke-linecap:round; stroke-linejoin:round;">
<path style="fill:#000000; fill-opacity:1.0; 
stroke:#000000; stroke-width:1.000000; stroke-opacity:1; 
stroke-linecap:round; stroke-linejoin:round;fill-rule:evenodd;"
d="M 135260000.000000,119210000.000000
135202597.000000,119198582.000000
135153934.000000,119166066.000000
135121418.000000,119117403.000000
135110000.000000,119060000.000000
135110000.000000,117885000.000000
135121418.000000,117827597.000000
135153934.000000,117778934.000000
135202597.000000,117746418.000000
135260000.000000,117735000.000000
135560000.000000,117735000.000000
135617403.000000,117746418.000000
135666066.000000,117778934.000000
135698582.000000,117827597.000000
135710000.000000,117885000.000000
135710000.000000,119060000.000000
135698582.000000,119117403.000000
135666066.000000,119166066.000000
135617403.000000,119198582.000000
135560000.000000,119210000.000000
Z" /> 
<path style="fill:#000000; fill-opacity:1.0; 
stroke:#000000; stroke-width:1.000000; stroke-opacity:1; 
stroke-linecap:round; stroke-linejoin:round;fill-rule:evenodd;"
d="M 136210000.000000,121085000.000000
136152597.000000,121073582.000000
136103934.000000,121041066.000000
136071418.000000,120992403.000000
136060000.000000,120935000.000000
136060000.000000,119760000.000000
136071418.000000,119702597.000000
136103934.000000,119653934.000000
136152597.000000,119621418.000000
136210000.000000,119610000.000000
136510000.000000,119610000.000000
136567403.000000,119621418.000000
136616066.000000,119653934.000000
136648582.000000,119702597.000000
136660000.000000,119760000.000000
136660000.000000,120935000.000000
136648582.000000,120992403.000000
136616066.000000,121041066.000000
136567403.000000,121073582.000000
136510000.000000,121085000.000000
Z" /> 
<path style="fill:#000000; fill-opacity:1.0; 
stroke:#000000; stroke-width:1.000000; stroke-opacity:1; 
stroke-linecap:round; stroke-linejoin:round;fill-rule:evenodd;"
d="M 134310000.000000,121085000.000000
134252597.000000,121073582.000000
134203934.000000,121041066.000000
134171418.000000,120992403.000000
134160000.000000,120935000.000000
134160000.000000,119760000.000000
134171418.000000,119702597.000000
134203934.000000,119653934.000000
134252597.000000,119621418.000000
134310000.000000,119610000.000000
134610000.000000,119610000.000000
134667403.000000,119621418.000000
134716066.000000,119653934.000000
134748582.000000,119702597.000000
134760000.000000,119760000.000000
134760000.000000,120935000.000000
134748582.000000,120992403.000000
134716066.000000,121041066.000000
134667403.000000,121073582.000000
134610000.000000,121085000.000000
Z" /> 
</g>
<g >
</g>
<g style="fill:#000000; fill-opacity:1.0; 
stroke:#000000; stroke-width:1.000000; stroke-opacity:1; 
stroke-linecap:round; stroke-linejoin:round;">
<path style="fill:#000000; fill-opacity:1.0; 
stroke:#000000; stroke-width:1.000000; stroke-opacity:1; 
stroke-linecap:round; stroke-linejoin:round;fill-rule:evenodd;"
d="M 146479999.000000,119230001.000000
146479999.000000,123029999.000000
144480001.000000,123029999.000000
144480001.000000,119230001.000000
Z" /> 
<path style="fill:#000000; fill-opacity:1.0; 
stroke:#000000; stroke-width:1.000000; stroke-opacity:1; 
stroke-linecap:round; stroke-linejoin:round;fill-rule:evenodd;"
d="M 152779999.000000,118080001.000000
152779999.000000,119579999.000000
150780001.000000,119579999.000000
150780001.000000,118080001.000000
Z" /> 
<path style="fill:#000000; fill-opacity:1.0; 
stroke:#000000; stroke-width:1.000000; stroke-opacity:1; 
stroke-linecap:round; stroke-linejoin:round;fill-rule:evenodd;"
d="M 152779999.000000,120380001.000000
152779999.000000,121879999.000000
150780001.000000,121879999.000000
150780001.000000,120380001.000000
Z" /> 
<path style="fill:#000000; fill-opacity:1.0; 
stroke:#000000; stroke-width:1.000000; stroke-opacity:1; 
stroke-linecap:round; stroke-linejoin:round;fill-rule:evenodd;"
d="M 152779999.000000,122680001.000000
152779999.000000,124179999.000000
150780001.000000,124179999.000000
150780001.000000,122680001.000000
Z" /> 
</g>
<g >
</g>
<g style="fill:#000000; fill-opacity:1.0; 
stroke:#000000; stroke-width:1.000000; stroke-opacity:1; 
stroke-linecap:round; stroke-linejoin:round;">
<path style="fill:#000000; fill-opacity:1.0; 
stroke:#000000; stroke-width:1.000000; stroke-opacity:1; 
stroke-linecap:round; stroke-linejoin:round;fill-rule:evenodd;"
d="M 155719999.000000,76172501.000000
155719999.000000,77472499.000000
155420001.000000,77472499.000000
155420001.000000,76172501.000000
Z" /> 
<path style="fill:#000000; fill-opacity:1.0; 
stroke:#000000; stroke-width:1.000000; stroke-opacity:1; 
stroke-linecap:round; stroke-linejoin:round;fill-rule:evenodd;"
d="M 154719999.000000,76172501.000000
154719999.000000,77472499.000000
154420001.000000,77472499.000000
154420001.000000,76172501.000000
Z" /> 
<path style="fill:#000000; fill-opacity:1.0; 
stroke:#000000; stroke-width:1.000000; stroke-opacity:1; 
stroke-linecap:round; stroke-linejoin:round;fill-rule:evenodd;"
d="M 153219999.000000,76172501.000000
153219999.000000,77472499.000000
152920001.000000,77472499.000000
152920001.000000,76172501.000000
Z" /> 
<path style="fill:#000000; fill-opacity:1.0; 
stroke:#000000; stroke-width:1.000000; stroke-opacity:1; 
stroke-linecap:round; stroke-linejoin:round;fill-rule:evenodd;"
d="M 152219999.000000,76172501.000000
152219999.000000,77472499.000000
151920001.000000,77472499.000000
151920001.000000,76172501.000000
Z" /> 
<path style="fill:#000000; fill-opacity:1.0; 
stroke:#000000; stroke-width:1.000000; stroke-opacity:1; 
stroke-linecap:round; stroke-linejoin:round;fill-rule:evenodd;"
d="M 151719999.000000,76172501.000000
151719999.000000,77472499.000000
151120001.000000,77472499.000000
151120001.000000,76172501.000000
Z" /> 
<path style="fill:#000000; fill-opacity:1.0; 
stroke:#000000; stroke-width:1.000000; stroke-opacity:1; 
stroke-linecap:round; stroke-linejoin:round;fill-rule:evenodd;"
d="M 150919999.000000,76172501.000000
150919999.000000,77472499.000000
150320001.000000,77472499.000000
150320001.000000,76172501.000000
Z" /> 
<path style="fill:#000000; fill-opacity:1.0; 
stroke:#000000; stroke-width:1.000000; stroke-opacity:1; 
stroke-linecap:round; stroke-linejoin:round;fill-rule:evenodd;"
d="M 152719999.000000,76172501.000000
152719999.000000,77472499.000000
152420001.000000,77472499.000000
152420001.000000,76172501.000000
Z" /> 
<path style="fill:#000000; fill-opacity:1.0; 
stroke:#000000; stroke-width:1.000000; stroke-opacity:1; 
stroke-linecap:round; stroke-linejoin:round;fill-rule:evenodd;"
d="M 153719999.000000,76172501.000000
153719999.000000,77472499.000000
153420001.000000,77472499.000000
153420001.000000,76172501.000000
Z" /> 
<path style="fill:#000000; fill-opacity:1.0; 
stroke:#000000; stroke-width:1.000000; stroke-opacity:1; 
stroke-linecap:round; stroke-linejoin:round;fill-rule:evenodd;"
d="M 154219999.000000,76172501.000000
154219999.000000,77472499.000000
153920001.000000,77472499.000000
153920001.000000,76172501.000000
Z" /> 
<path style="fill:#000000; fill-opacity:1.0; 
stroke:#000000; stroke-width:1.000000; stroke-opacity:1; 
stroke-linecap:round; stroke-linejoin:round;fill-rule:evenodd;"
d="M 155219999.000000,76172501.000000
155219999.000000,77472499.000000
154920001.000000,77472499.000000
154920001.000000,76172501.000000
Z" /> 
<path style="fill:#000000; fill-opacity:1.0; 
stroke:#000000; stroke-width:1.000000; stroke-opacity:1; 
stroke-linecap:round; stroke-linejoin:round;fill-rule:evenodd;"
d="M 156519999.000000,76172501.000000
156519999.000000,77472499.000000
155920001.000000,77472499.000000
155920001.000000,76172501.000000
Z" /> 
<path style="fill:#000000; fill-opacity:1.0; 
stroke:#000000; stroke-width:1.000000; stroke-opacity:1; 
stroke-linecap:round; stroke-linejoin:round;fill-rule:evenodd;"
d="M 157319999.000000,76172501.000000
157319999.000000,77472499.000000
156720001.000000,77472499.000000
156720001.000000,76172501.000000
Z" /> 
</g>
<g >
</g>
<g style="fill:#000000; fill-opacity:1.0; 
stroke:#000000; stroke-width:1.000000; stroke-opacity:1; 
stroke-linecap:round; stroke-linejoin:round;">
<path style="fill:#000000; fill-opacity:1.0; 
stroke:#000000; stroke-width:1.000000; stroke-opacity:1; 
stroke-linecap:round; stroke-linejoin:round;fill-rule:evenodd;"
d="M 142617500.000000,119590000.000000
142674903.000000,119601418.000000
142723566.000000,119633934.000000
142756082.000000,119682597.000000
142767500.000000,119740000.000000
142767500.000000,120915000.000000
142756082.000000,120972403.000000
142723566.000000,121021066.000000
142674903.000000,121053582.000000
142617500.000000,121065000.000000
142317500.000000,121065000.000000
142260097.000000,121053582.000000
142211434.000000,121021066.000000
142178918.000000,120972403.000000
142167500.000000,120915000.000000
142167500.000000,119740000.000000
142178918.000000,119682597.000000
142211434.000000,119633934.000000
142260097.000000,119601418.000000
142317500.000000,119590000.000000
Z" /> 
<path style="fill:#000000; fill-opacity:1.0; 
stroke:#000000; stroke-width:1.000000; stroke-opacity:1; 
stroke-linecap:round; stroke-linejoin:round;fill-rule:evenodd;"
d="M 141667500.000000,117715000.000000
141724903.000000,117726418.000000
141773566.000000,117758934.000000
141806082.000000,117807597.000000
141817500.000000,117865000.000000
141817500.000000,119040000.000000
141806082.000000,119097403.000000
141773566.000000,119146066.000000
141724903.000000,119178582.000000
141667500.000000,119190000.000000
141367500.000000,119190000.000000
141310097.000000,119178582.000000
141261434.000000,119146066.000000
141228918.000000,119097403.000000
141217500.000000,119040000.000000
141217500.000000,117865000.000000
141228918.000000,117807597.000000
141261434.000000,117758934.000000
141310097.000000,117726418.000000
141367500.000000,117715000.000000
Z" /> 
<path style="fill:#000000; fill-opacity:1.0; 
stroke:#000000; stroke-width:1.000000; stroke-opacity:1; 
stroke-linecap:round; stroke-linejoin:round;fill-rule:evenodd;"
d="M 143567500.000000,117715000.000000
143624903.000000,117726418.000000
143673566.000000,117758934.000000
143706082.000000,117807597.000000
143717500.000000,117865000.000000
143717500.000000,119040000.000000
143706082.000000,119097403.000000
143673566.000000,119146066.000000
143624903.000000,119178582.000000
143567500.000000,119190000.000000
143267500.000000,119190000.000000
143210097.000000,119178582.000000
143161434.000000,119146066.000000
143128918.000000,119097403.000000
143117500.000000,119040000.000000
143117500.000000,117865000.000000
143128918.000000,117807597.000000
143161434.000000,117758934.000000
143210097.000000,117726418.000000
143267500.000000,117715000.000000
Z" /> 
</g>
<g >
</g>
<g style="fill:#000000; fill-opacity:1.0; 
stroke:#000000; stroke-width:1.000000; stroke-opacity:1; 
stroke-linecap:round; stroke-linejoin:round;">
<path style="fill:#000000; fill-opacity:1.0; 
stroke:#000000; stroke-width:1.000000; stroke-opacity:1; 
stroke-linecap:round; stroke-linejoin:round;fill-rule:evenodd;"
d="M 137655000.000000,121982500.000000
137673079.000000,121891613.000000
137724562.000000,121814562.000000
137801613.000000,121763079.000000
137892500.000000,121745000.000000
138392500.000000,121745000.000000
138483387.000000,121763079.000000
138560438.000000,121814562.000000
138611921.000000,121891613.000000
138630000.000000,121982500.000000
138630000.000000,122457500.000000
138611921.000000,122548387.000000
138560438.000000,122625438.000000
138483387.000000,122676921.000000
138392500.000000,122695000.000000
137892500.000000,122695000.000000
137801613.000000,122676921.000000
137724562.000000,122625438.000000
137673079.000000,122548387.000000
137655000.000000,122457500.000000
Z" /> 
<path style="fill:#000000; fill-opacity:1.0; 
stroke:#000000; stroke-width:1.000000; stroke-opacity:1; 
stroke-linecap:round; stroke-linejoin:round;fill-rule:evenodd;"
d="M 135830000.000000,121982500.000000
135848079.000000,121891613.000000
135899562.000000,121814562.000000
135976613.000000,121763079.000000
136067500.000000,121745000.000000
136567500.000000,121745000.000000
136658387.000000,121763079.000000
136735438.000000,121814562.000000
136786921.000000,121891613.000000
136805000.000000,121982500.000000
136805000.000000,122457500.000000
136786921.000000,122548387.000000
136735438.000000,122625438.000000
136658387.000000,122676921.000000
136567500.000000,122695000.000000
136067500.000000,122695000.000000
135976613.000000,122676921.000000
135899562.000000,122625438.000000
135848079.000000,122548387.000000
135830000.000000,122457500.000000
Z" /> 
</g>
<g >
</g>
<g >
</g>
<g >
</g>
<g style="fill:#000000; fill-opacity:1.0; 
stroke:#000000; stroke-width:1.000000; stroke-opacity:1; 
stroke-linecap:round; stroke-linejoin:round;">
<path style="fill:#000000; fill-opacity:1.0; 
stroke:#000000; stroke-width:1.000000; stroke-opacity:1; 
stroke-linecap:round; stroke-linejoin:round;fill-rule:evenodd;"
d="M 152644500.000000,132607300.000000
152553613.000000,132589221.000000
152476562.000000,132537738.000000
152425079.000000,132460687.000000
152407000.000000,132369800.000000
152407000.000000,131869800.000000
152425079.000000,131778913.000000
152476562.000000,131701862.000000
152553613.000000,131650379.000000
152644500.000000,131632300.000000
153119500.000000,131632300.000000
153210387.000000,131650379.000000
153287438.000000,131701862.000000
153338921.000000,131778913.000000
153357000.000000,131869800.000000
153357000.000000,132369800.000000
153338921.000000,132460687.000000
153287438.000000,132537738.000000
153210387.000000,132589221.000000
153119500.000000,132607300.000000
Z" /> 
<path style="fill:#000000; fill-opacity:1.0; 
stroke:#000000; stroke-width:1.000000; stroke-opacity:1; 
stroke-linecap:round; stroke-linejoin:round;fill-rule:evenodd;"
d="M 152644500.000000,134432300.000000
152553613.000000,134414221.000000
152476562.000000,134362738.000000
152425079.000000,134285687.000000
152407000.000000,134194800.000000
152407000.000000,133694800.000000
152425079.000000,133603913.000000
152476562.000000,133526862.000000
152553613.000000,133475379.000000
152644500.000000,133457300.000000
153119500.000000,133457300.000000
153210387.000000,133475379.000000
153287438.000000,133526862.000000
153338921.000000,133603913.000000
153357000.000000,133694800.000000
153357000.000000,134194800.000000
153338921.000000,134285687.000000
153287438.000000,134362738.000000
153210387.000000,134414221.000000
153119500.000000,134432300.000000
Z" /> 
</g>
<g >
</g>
<g style="fill:#000000; fill-opacity:1.0; 
stroke:#000000; stroke-width:1.000000; stroke-opacity:1; 
stroke-linecap:round; stroke-linejoin:round;">
<path style="fill:#000000; fill-opacity:1.0; 
stroke:#000000; stroke-width:1.000000; stroke-opacity:1; 
stroke-linecap:round; stroke-linejoin:round;fill-rule:evenodd;"
d="M 157770000.000000,121968100.000000
157751921.000000,122058987.000000
157700438.000000,122136038.000000
157623387.000000,122187521.000000
157532500.000000,122205600.000000
156957500.000000,122205600.000000
156866613.000000,122187521.000000
156789562.000000,122136038.000000
156738079.000000,122058987.000000
156720000.000000,121968100.000000
156720000.000000,121493100.000000
156738079.000000,121402213.000000
156789562.000000,121325162.000000
156866613.000000,121273679.000000
156957500.000000,121255600.000000
157532500.000000,121255600.000000
157623387.000000,121273679.000000
157700438.000000,121325162.000000
157751921.000000,121402213.000000
157770000.000000,121493100.000000
Z" /> 
<path style="fill:#000000; fill-opacity:1.0; 
stroke:#000000; stroke-width:1.000000; stroke-opacity:1; 
stroke-linecap:round; stroke-linejoin:round;fill-rule:evenodd;"
d="M 159520000.000000,121968100.000000
159501921.000000,122058987.000000
159450438.000000,122136038.000000
159373387.000000,122187521.000000
159282500.000000,122205600.000000
158707500.000000,122205600.000000
158616613.000000,122187521.000000
158539562.000000,122136038.000000
158488079.000000,122058987.000000
158470000.000000,121968100.000000
158470000.000000,121493100.000000
158488079.000000,121402213.000000
158539562.000000,121325162.000000
158616613.000000,121273679.000000
158707500.000000,121255600.000000
159282500.000000,121255600.000000
159373387.000000,121273679.000000
159450438.000000,121325162.000000
159501921.000000,121402213.000000
159520000.000000,121493100.000000
Z" /> 
</g>
<g >
</g>
<g style="fill:#000000; fill-opacity:1.0; 
stroke:#000000; stroke-width:1.000000; stroke-opacity:1; 
stroke-linecap:round; stroke-linejoin:round;">
<path style="fill:#000000; fill-opacity:1.0; 
stroke:#000000; stroke-width:1.000000; stroke-opacity:1; 
stroke-linecap:round; stroke-linejoin:round;fill-rule:evenodd;"
d="M 157732200.000000,132636700.000000
157641313.000000,132618621.000000
157564262.000000,132567138.000000
157512779.000000,132490087.000000
157494700.000000,132399200.000000
157494700.000000,131799200.000000
157512779.000000,131708313.000000
157564262.000000,131631262.000000
157641313.000000,131579779.000000
157732200.000000,131561700.000000
158207200.000000,131561700.000000
158298087.000000,131579779.000000
158375138.000000,131631262.000000
158426621.000000,131708313.000000
158444700.000000,131799200.000000
158444700.000000,132399200.000000
158426621.000000,132490087.000000
158375138.000000,132567138.000000
158298087.000000,132618621.000000
158207200.000000,132636700.000000
Z" /> 
<path style="fill:#000000; fill-opacity:1.0; 
stroke:#000000; stroke-width:1.000000; stroke-opacity:1; 
stroke-linecap:round; stroke-linejoin:round;fill-rule:evenodd;"
d="M 157732200.000000,134361700.000000
157641313.000000,134343621.000000
157564262.000000,134292138.000000
157512779.000000,134215087.000000
157494700.000000,134124200.000000
157494700.000000,133524200.000000
157512779.000000,133433313.000000
157564262.000000,133356262.000000
157641313.000000,133304779.000000
157732200.000000,133286700.000000
158207200.000000,133286700.000000
158298087.000000,133304779.000000
158375138.000000,133356262.000000
158426621.000000,133433313.000000
158444700.000000,133524200.000000
158444700.000000,134124200.000000
158426621.000000,134215087.000000
158375138.000000,134292138.000000
158298087.000000,134343621.000000
158207200.000000,134361700.000000
Z" /> 
</g>
<g >
</g>
<g style="fill:#000000; fill-opacity:1.0; 
stroke:#000000; stroke-width:1.000000; stroke-opacity:1; 
stroke-linecap:round; stroke-linejoin:round;">
<path style="fill:#000000; fill-opacity:1.0; 
stroke:#000000; stroke-width:1.000000; stroke-opacity:1; 
stroke-linecap:round; stroke-linejoin:round;fill-rule:evenodd;"
d="M 139610000.000000,83500000.000000
139629030.000000,83404329.000000
139683223.000000,83323223.000000
139764329.000000,83269030.000000
139860000.000000,83250000.000000
142860000.000000,83250000.000000
142955671.000000,83269030.000000
143036777.000000,83323223.000000
143090970.000000,83404329.000000
143110000.000000,83500000.000000
143110000.000000,84600000.000000
143090970.000000,84695671.000000
143036777.000000,84776777.000000
142955671.000000,84830970.000000
142860000.000000,84850000.000000
139860000.000000,84850000.000000
139764329.000000,84830970.000000
139683223.000000,84776777.000000
139629030.000000,84695671.000000
139610000.000000,84600000.000000
Z" /> 
<path style="fill:#000000; fill-opacity:1.0; 
stroke:#000000; stroke-width:1.000000; stroke-opacity:1; 
stroke-linecap:round; stroke-linejoin:round;fill-rule:evenodd;"
d="M 134010000.000000,83500000.000000
134029030.000000,83404329.000000
134083223.000000,83323223.000000
134164329.000000,83269030.000000
134260000.000000,83250000.000000
137260000.000000,83250000.000000
137355671.000000,83269030.000000
137436777.000000,83323223.000000
137490970.000000,83404329.000000
137510000.000000,83500000.000000
137510000.000000,84600000.000000
137490970.000000,84695671.000000
137436777.000000,84776777.000000
137355671.000000,84830970.000000
137260000.000000,84850000.000000
134260000.000000,84850000.000000
134164329.000000,84830970.000000
134083223.000000,84776777.000000
134029030.000000,84695671.000000
134010000.000000,84600000.000000
Z" /> 
</g>
<g >
</g>
<g style="fill:#000000; fill-opacity:1.0; 
stroke:#000000; stroke-width:1.000000; stroke-opacity:1; 
stroke-linecap:round; stroke-linejoin:round;">
<path style="fill:#000000; fill-opacity:1.0; 
stroke:#000000; stroke-width:1.000000; stroke-opacity:1; 
stroke-linecap:round; stroke-linejoin:round;fill-rule:evenodd;"
d="M 151472500.000000,93385000.000000
151381613.000000,93366921.000000
151304562.000000,93315438.000000
151253079.000000,93238387.000000
151235000.000000,93147500.000000
151235000.000000,92547500.000000
151253079.000000,92456613.000000
151304562.000000,92379562.000000
151381613.000000,92328079.000000
151472500.000000,92310000.000000
151947500.000000,92310000.000000
152038387.000000,92328079.000000
152115438.000000,92379562.000000
152166921.000000,92456613.000000
152185000.000000,92547500.000000
152185000.000000,93147500.000000
152166921.000000,93238387.000000
152115438.000000,93315438.000000
152038387.000000,93366921.000000
151947500.000000,93385000.000000
Z" /> 
<path style="fill:#000000; fill-opacity:1.0; 
stroke:#000000; stroke-width:1.000000; stroke-opacity:1; 
stroke-linecap:round; stroke-linejoin:round;fill-rule:evenodd;"
d="M 151472500.000000,95110000.000000
151381613.000000,95091921.000000
151304562.000000,95040438.000000
151253079.000000,94963387.000000
151235000.000000,94872500.000000
151235000.000000,94272500.000000
151253079.000000,94181613.000000
151304562.000000,94104562.000000
151381613.000000,94053079.000000
151472500.000000,94035000.000000
151947500.000000,94035000.000000
152038387.000000,94053079.000000
152115438.000000,94104562.000000
152166921.000000,94181613.000000
152185000.000000,94272500.000000
152185000.000000,94872500.000000
152166921.000000,94963387.000000
152115438.000000,95040438.000000
152038387.000000,95091921.000000
151947500.000000,95110000.000000
Z" /> 
</g>
<g >
</g>
<g style="fill:#000000; fill-opacity:1.0; 
stroke:#000000; stroke-width:1.000000; stroke-opacity:1; 
stroke-linecap:round; stroke-linejoin:round;">
<path style="fill:#000000; fill-opacity:1.0; 
stroke:#000000; stroke-width:1.000000; stroke-opacity:1; 
stroke-linecap:round; stroke-linejoin:round;fill-rule:evenodd;"
d="M 145557000.000000,116948500.000000
145538921.000000,117039387.000000
145487438.000000,117116438.000000
145410387.000000,117167921.000000
145319500.000000,117186000.000000
144719500.000000,117186000.000000
144628613.000000,117167921.000000
144551562.000000,117116438.000000
144500079.000000,117039387.000000
144482000.000000,116948500.000000
144482000.000000,116473500.000000
144500079.000000,116382613.000000
144551562.000000,116305562.000000
144628613.000000,116254079.000000
144719500.000000,116236000.000000
145319500.000000,116236000.000000
145410387.000000,116254079.000000
145487438.000000,116305562.000000
145538921.000000,116382613.000000
145557000.000000,116473500.000000
Z" /> 
<path style="fill:#000000; fill-opacity:1.0; 
stroke:#000000; stroke-width:1.000000; stroke-opacity:1; 
stroke-linecap:round; stroke-linejoin:round;fill-rule:evenodd;"
d="M 147282000.000000,116948500.000000
147263921.000000,117039387.000000
147212438.000000,117116438.000000
147135387.000000,117167921.000000
147044500.000000,117186000.000000
146444500.000000,117186000.000000
146353613.000000,117167921.000000
146276562.000000,117116438.000000
146225079.000000,117039387.000000
146207000.000000,116948500.000000
146207000.000000,116473500.000000
146225079.000000,116382613.000000
146276562.000000,116305562.000000
146353613.000000,116254079.000000
146444500.000000,116236000.000000
147044500.000000,116236000.000000
147135387.000000,116254079.000000
147212438.000000,116305562.000000
147263921.000000,116382613.000000
147282000.000000,116473500.000000
Z" /> 
</g>
<g >
</g>
<g style="fill:#000000; fill-opacity:1.0; 
stroke:#000000; stroke-width:1.000000; stroke-opacity:1; 
stroke-linecap:round; stroke-linejoin:round;">
<path style="fill:#000000; fill-opacity:1.0; 
stroke:#000000; stroke-width:1.000000; stroke-opacity:1; 
stroke-linecap:round; stroke-linejoin:round;fill-rule:evenodd;"
d="M 157995000.000000,78703500.000000
157976921.000000,78794387.000000
157925438.000000,78871438.000000
157848387.000000,78922921.000000
157757500.000000,78941000.000000
157257500.000000,78941000.000000
157166613.000000,78922921.000000
157089562.000000,78871438.000000
157038079.000000,78794387.000000
157020000.000000,78703500.000000
157020000.000000,78228500.000000
157038079.000000,78137613.000000
157089562.000000,78060562.000000
157166613.000000,78009079.000000
157257500.000000,77991000.000000
157757500.000000,77991000.000000
157848387.000000,78009079.000000
157925438.000000,78060562.000000
157976921.000000,78137613.000000
157995000.000000,78228500.000000
Z" /> 
<path style="fill:#000000; fill-opacity:1.0; 
stroke:#000000; stroke-width:1.000000; stroke-opacity:1; 
stroke-linecap:round; stroke-linejoin:round;fill-rule:evenodd;"
d="M 159820000.000000,78703500.000000
159801921.000000,78794387.000000
159750438.000000,78871438.000000
159673387.000000,78922921.000000
159582500.000000,78941000.000000
159082500.000000,78941000.000000
158991613.000000,78922921.000000
158914562.000000,78871438.000000
158863079.000000,78794387.000000
158845000.000000,78703500.000000
158845000.000000,78228500.000000
158863079.000000,78137613.000000
158914562.000000,78060562.000000
158991613.000000,78009079.000000
159082500.000000,77991000.000000
159582500.000000,77991000.000000
159673387.000000,78009079.000000
159750438.000000,78060562.000000
159801921.000000,78137613.000000
159820000.000000,78228500.000000
Z" /> 
</g>
<g >
</g>
<g style="fill:#000000; fill-opacity:1.0; 
stroke:#000000; stroke-width:1.000000; stroke-opacity:1; 
stroke-linecap:round; stroke-linejoin:round;">
<path style="fill:#000000; fill-opacity:1.0; 
stroke:#000000; stroke-width:1.000000; stroke-opacity:1; 
stroke-linecap:round; stroke-linejoin:round;fill-rule:evenodd;"
d="M 136725000.000000,116897500.000000
136706921.000000,116988387.000000
136655438.000000,117065438.000000
136578387.000000,117116921.000000
136487500.000000,117135000.000000
135987500.000000,117135000.000000
135896613.000000,117116921.000000
135819562.000000,117065438.000000
135768079.000000,116988387.000000
135750000.000000,116897500.000000
135750000.000000,116422500.000000
135768079.000000,116331613.000000
135819562.000000,116254562.000000
135896613.000000,116203079.000000
135987500.000000,116185000.000000
136487500.000000,116185000.000000
136578387.000000,116203079.000000
136655438.000000,116254562.000000
136706921.000000,116331613.000000
136725000.000000,116422500.000000
Z" /> 
<path style="fill:#000000; fill-opacity:1.0; 
stroke:#000000; stroke-width:1.000000; stroke-opacity:1; 
stroke-linecap:round; stroke-linejoin:round;fill-rule:evenodd;"
d="M 138550000.000000,116897500.000000
138531921.000000,116988387.000000
138480438.000000,117065438.000000
138403387.000000,117116921.000000
138312500.000000,117135000.000000
137812500.000000,117135000.000000
137721613.000000,117116921.000000
137644562.000000,117065438.000000
137593079.000000,116988387.000000
137575000.000000,116897500.000000
137575000.000000,116422500.000000
137593079.000000,116331613.000000
137644562.000000,116254562.000000
137721613.000000,116203079.000000
137812500.000000,116185000.000000
138312500.000000,116185000.000000
138403387.000000,116203079.000000
138480438.000000,116254562.000000
138531921.000000,116331613.000000
138550000.000000,116422500.000000
Z" /> 
</g>
<g >
</g>
<g style="fill:#000000; fill-opacity:1.0; 
stroke:#000000; stroke-width:1.000000; stroke-opacity:1; 
stroke-linecap:round; stroke-linejoin:round;">
<path style="fill:#000000; fill-opacity:1.0; 
stroke:#000000; stroke-width:1.000000; stroke-opacity:1; 
stroke-linecap:round; stroke-linejoin:round;fill-rule:evenodd;"
d="M 139960000.000000,129060000.000000
139979030.000000,128964329.000000
140033223.000000,128883223.000000
140114329.000000,128829030.000000
140210000.000000,128810000.000000
143210000.000000,128810000.000000
143305671.000000,128829030.000000
143386777.000000,128883223.000000
143440970.000000,128964329.000000
143460000.000000,129060000.000000
143460000.000000,130160000.000000
143440970.000000,130255671.000000
143386777.000000,130336777.000000
143305671.000000,130390970.000000
143210000.000000,130410000.000000
140210000.000000,130410000.000000
140114329.000000,130390970.000000
140033223.000000,130336777.000000
139979030.000000,130255671.000000
139960000.000000,130160000.000000
Z" /> 
<path style="fill:#000000; fill-opacity:1.0; 
stroke:#000000; stroke-width:1.000000; stroke-opacity:1; 
stroke-linecap:round; stroke-linejoin:round;fill-rule:evenodd;"
d="M 134360000.000000,129060000.000000
134379030.000000,128964329.000000
134433223.000000,128883223.000000
134514329.000000,128829030.000000
134610000.000000,128810000.000000
137610000.000000,128810000.000000
137705671.000000,128829030.000000
137786777.000000,128883223.000000
137840970.000000,128964329.000000
137860000.000000,129060000.000000
137860000.000000,130160000.000000
137840970.000000,130255671.000000
137786777.000000,130336777.000000
137705671.000000,130390970.000000
137610000.000000,130410000.000000
134610000.000000,130410000.000000
134514329.000000,130390970.000000
134433223.000000,130336777.000000
134379030.000000,130255671.000000
134360000.000000,130160000.000000
Z" /> 
</g>
<g >
</g>
<g style="fill:#000000; fill-opacity:1.0; 
stroke:#000000; stroke-width:1.000000; stroke-opacity:1; 
stroke-linecap:round; stroke-linejoin:round;">
<path style="fill:#000000; fill-opacity:1.0; 
stroke:#000000; stroke-width:1.000000; stroke-opacity:1; 
stroke-linecap:round; stroke-linejoin:round;fill-rule:evenodd;"
d="M 145830001.000000,84660001.000000
147629999.000000,84660001.000000
147629999.000000,87159999.000000
145830001.000000,87159999.000000
Z" /> 
<path style="fill:#000000; fill-opacity:1.0; 
stroke:#000000; stroke-width:1.000000; stroke-opacity:1; 
stroke-linecap:round; stroke-linejoin:round;fill-rule:evenodd;"
d="M 145830001.000000,80660001.000000
147629999.000000,80660001.000000
147629999.000000,83159999.000000
145830001.000000,83159999.000000
Z" /> 
</g>
<g >
</g>
<g style="fill:#000000; fill-opacity:1.0; 
stroke:#000000; stroke-width:1.000000; stroke-opacity:1; 
stroke-linecap:round; stroke-linejoin:round;">
<path style="fill:#000000; fill-opacity:1.0; 
stroke:#000000; stroke-width:1.000000; stroke-opacity:1; 
stroke-linecap:round; stroke-linejoin:round;fill-rule:evenodd;"
d="M 142471801.000000,105491201.000000
143801799.000000,105491201.000000
143801799.000000,106821199.000000
142471801.000000,106821199.000000
Z" /> 
<path style="fill:#000000; fill-opacity:1.0; 
stroke:#000000; stroke-width:1.000000; stroke-opacity:1; 
stroke-linecap:round; stroke-linejoin:round;fill-rule:evenodd;"
d="M 142471801.000000,103656201.000000
143801799.000000,103656201.000000
143801799.000000,104986199.000000
142471801.000000,104986199.000000
Z" /> 
<path style="fill:#000000; fill-opacity:1.0; 
stroke:#000000; stroke-width:1.000000; stroke-opacity:1; 
stroke-linecap:round; stroke-linejoin:round;fill-rule:evenodd;"
d="M 142471801.000000,101821201.000000
143801799.000000,101821201.000000
143801799.000000,103151199.000000
142471801.000000,103151199.000000
Z" /> 
<path style="fill:#000000; fill-opacity:1.0; 
stroke:#000000; stroke-width:1.000000; stroke-opacity:1; 
stroke-linecap:round; stroke-linejoin:round;fill-rule:evenodd;"
d="M 144306801.000000,105491201.000000
145636799.000000,105491201.000000
145636799.000000,106821199.000000
144306801.000000,106821199.000000
Z" /> 
<path style="fill:#000000; fill-opacity:1.0; 
stroke:#000000; stroke-width:1.000000; stroke-opacity:1; 
stroke-linecap:round; stroke-linejoin:round;fill-rule:evenodd;"
d="M 144306801.000000,103656201.000000
145636799.000000,103656201.000000
145636799.000000,104986199.000000
144306801.000000,104986199.000000
Z" /> 
<path style="fill:#000000; fill-opacity:1.0; 
stroke:#000000; stroke-width:1.000000; stroke-opacity:1; 
stroke-linecap:round; stroke-linejoin:round;fill-rule:evenodd;"
d="M 144306801.000000,101821201.000000
145636799.000000,101821201.000000
145636799.000000,103151199.000000
144306801.000000,103151199.000000
Z" /> 
<path style="fill:#000000; fill-opacity:1.0; 
stroke:#000000; stroke-width:1.000000; stroke-opacity:1; 
stroke-linecap:round; stroke-linejoin:round;fill-rule:evenodd;"
d="M 146141801.000000,105491201.000000
147471799.000000,105491201.000000
147471799.000000,106821199.000000
146141801.000000,106821199.000000
Z" /> 
<path style="fill:#000000; fill-opacity:1.0; 
stroke:#000000; stroke-width:1.000000; stroke-opacity:1; 
stroke-linecap:round; stroke-linejoin:round;fill-rule:evenodd;"
d="M 146141801.000000,103656201.000000
147471799.000000,103656201.000000
147471799.000000,104986199.000000
146141801.000000,104986199.000000
Z" /> 
<path style="fill:#000000; fill-opacity:1.0; 
stroke:#000000; stroke-width:1.000000; stroke-opacity:1; 
stroke-linecap:round; stroke-linejoin:round;fill-rule:evenodd;"
d="M 146141801.000000,101821201.000000
147471799.000000,101821201.000000
147471799.000000,103151199.000000
146141801.000000,103151199.000000
Z" /> 
<path style="fill:#000000; fill-opacity:1.0; 
stroke:#000000; stroke-width:1.000000; stroke-opacity:1; 
stroke-linecap:round; stroke-linejoin:round;fill-rule:evenodd;"
d="M 152021801.000000,112821201.000000
152921799.000000,112821201.000000
152921799.000000,114821199.000000
152021801.000000,114821199.000000
Z" /> 
<path style="fill:#000000; fill-opacity:1.0; 
stroke:#000000; stroke-width:1.000000; stroke-opacity:1; 
stroke-linecap:round; stroke-linejoin:round;fill-rule:evenodd;"
d="M 150751801.000000,112821201.000000
151651799.000000,112821201.000000
151651799.000000,114821199.000000
150751801.000000,114821199.000000
Z" /> 
<path style="fill:#000000; fill-opacity:1.0; 
stroke:#000000; stroke-width:1.000000; stroke-opacity:1; 
stroke-linecap:round; stroke-linejoin:round;fill-rule:evenodd;"
d="M 149481801.000000,112821201.000000
150381799.000000,112821201.000000
150381799.000000,114821199.000000
149481801.000000,114821199.000000
Z" /> 
<path style="fill:#000000; fill-opacity:1.0; 
stroke:#000000; stroke-width:1.000000; stroke-opacity:1; 
stroke-linecap:round; stroke-linejoin:round;fill-rule:evenodd;"
d="M 148211801.000000,112821201.000000
149111799.000000,112821201.000000
149111799.000000,114821199.000000
148211801.000000,114821199.000000
Z" /> 
<path style="fill:#000000; fill-opacity:1.0; 
stroke:#000000; stroke-width:1.000000; stroke-opacity:1; 
stroke-linecap:round; stroke-linejoin:round;fill-rule:evenodd;"
d="M 146941801.000000,112821201.000000
147841799.000000,112821201.000000
147841799.000000,114821199.000000
146941801.000000,114821199.000000
Z" /> 
<path style="fill:#000000; fill-opacity:1.0; 
stroke:#000000; stroke-width:1.000000; stroke-opacity:1; 
stroke-linecap:round; stroke-linejoin:round;fill-rule:evenodd;"
d="M 145671801.000000,112821201.000000
146571799.000000,112821201.000000
146571799.000000,114821199.000000
145671801.000000,114821199.000000
Z" /> 
<path style="fill:#000000; fill-opacity:1.0; 
stroke:#000000; stroke-width:1.000000; stroke-opacity:1; 
stroke-linecap:round; stroke-linejoin:round;fill-rule:evenodd;"
d="M 144401801.000000,112821201.000000
145301799.000000,112821201.000000
145301799.000000,114821199.000000
144401801.000000,114821199.000000
Z" /> 
<path style="fill:#000000; fill-opacity:1.0; 
stroke:#000000; stroke-width:1.000000; stroke-opacity:1; 
stroke-linecap:round; stroke-linejoin:round;fill-rule:evenodd;"
d="M 143131801.000000,112821201.000000
144031799.000000,112821201.000000
144031799.000000,114821199.000000
143131801.000000,114821199.000000
Z" /> 
<path style="fill:#000000; fill-opacity:1.0; 
stroke:#000000; stroke-width:1.000000; stroke-opacity:1; 
stroke-linecap:round; stroke-linejoin:round;fill-rule:evenodd;"
d="M 141861801.000000,112821201.000000
142761799.000000,112821201.000000
142761799.000000,114821199.000000
141861801.000000,114821199.000000
Z" /> 
<path style="fill:#000000; fill-opacity:1.0; 
stroke:#000000; stroke-width:1.000000; stroke-opacity:1; 
stroke-linecap:round; stroke-linejoin:round;fill-rule:evenodd;"
d="M 140591801.000000,112821201.000000
141491799.000000,112821201.000000
141491799.000000,114821199.000000
140591801.000000,114821199.000000
Z" /> 
<path style="fill:#000000; fill-opacity:1.0; 
stroke:#000000; stroke-width:1.000000; stroke-opacity:1; 
stroke-linecap:round; stroke-linejoin:round;fill-rule:evenodd;"
d="M 139321801.000000,112821201.000000
140221799.000000,112821201.000000
140221799.000000,114821199.000000
139321801.000000,114821199.000000
Z" /> 
<path style="fill:#000000; fill-opacity:1.0; 
stroke:#000000; stroke-width:1.000000; stroke-opacity:1; 
stroke-linecap:round; stroke-linejoin:round;fill-rule:evenodd;"
d="M 138051801.000000,112821201.000000
138951799.000000,112821201.000000
138951799.000000,114821199.000000
138051801.000000,114821199.000000
Z" /> 
<path style="fill:#000000; fill-opacity:1.0; 
stroke:#000000; stroke-width:1.000000; stroke-opacity:1; 
stroke-linecap:round; stroke-linejoin:round;fill-rule:evenodd;"
d="M 136781801.000000,112821201.000000
137681799.000000,112821201.000000
137681799.000000,114821199.000000
136781801.000000,114821199.000000
Z" /> 
<path style="fill:#000000; fill-opacity:1.0; 
stroke:#000000; stroke-width:1.000000; stroke-opacity:1; 
stroke-linecap:round; stroke-linejoin:round;fill-rule:evenodd;"
d="M 135511801.000000,112821201.000000
136411799.000000,112821201.000000
136411799.000000,114821199.000000
135511801.000000,114821199.000000
Z" /> 
<path style="fill:#000000; fill-opacity:1.0; 
stroke:#000000; stroke-width:1.000000; stroke-opacity:1; 
stroke-linecap:round; stroke-linejoin:round;fill-rule:evenodd;"
d="M 133961801.000000,110586201.000000
135961799.000000,110586201.000000
135961799.000000,111486199.000000
133961801.000000,111486199.000000
Z" /> 
<path style="fill:#000000; fill-opacity:1.0; 
stroke:#000000; stroke-width:1.000000; stroke-opacity:1; 
stroke-linecap:round; stroke-linejoin:round;fill-rule:evenodd;"
d="M 133961801.000000,109316201.000000
135961799.000000,109316201.000000
135961799.000000,110216199.000000
133961801.000000,110216199.000000
Z" /> 
<path style="fill:#000000; fill-opacity:1.0; 
stroke:#000000; stroke-width:1.000000; stroke-opacity:1; 
stroke-linecap:round; stroke-linejoin:round;fill-rule:evenodd;"
d="M 133961801.000000,108046201.000000
135961799.000000,108046201.000000
135961799.000000,108946199.000000
133961801.000000,108946199.000000
Z" /> 
<path style="fill:#000000; fill-opacity:1.0; 
stroke:#000000; stroke-width:1.000000; stroke-opacity:1; 
stroke-linecap:round; stroke-linejoin:round;fill-rule:evenodd;"
d="M 133961801.000000,106776201.000000
135961799.000000,106776201.000000
135961799.000000,107676199.000000
133961801.000000,107676199.000000
Z" /> 
<path style="fill:#000000; fill-opacity:1.0; 
stroke:#000000; stroke-width:1.000000; stroke-opacity:1; 
stroke-linecap:round; stroke-linejoin:round;fill-rule:evenodd;"
d="M 133961801.000000,105506201.000000
135961799.000000,105506201.000000
135961799.000000,106406199.000000
133961801.000000,106406199.000000
Z" /> 
<path style="fill:#000000; fill-opacity:1.0; 
stroke:#000000; stroke-width:1.000000; stroke-opacity:1; 
stroke-linecap:round; stroke-linejoin:round;fill-rule:evenodd;"
d="M 133961801.000000,104236201.000000
135961799.000000,104236201.000000
135961799.000000,105136199.000000
133961801.000000,105136199.000000
Z" /> 
<path style="fill:#000000; fill-opacity:1.0; 
stroke:#000000; stroke-width:1.000000; stroke-opacity:1; 
stroke-linecap:round; stroke-linejoin:round;fill-rule:evenodd;"
d="M 133961801.000000,102966201.000000
135961799.000000,102966201.000000
135961799.000000,103866199.000000
133961801.000000,103866199.000000
Z" /> 
<path style="fill:#000000; fill-opacity:1.0; 
stroke:#000000; stroke-width:1.000000; stroke-opacity:1; 
stroke-linecap:round; stroke-linejoin:round;fill-rule:evenodd;"
d="M 133961801.000000,101696201.000000
135961799.000000,101696201.000000
135961799.000000,102596199.000000
133961801.000000,102596199.000000
Z" /> 
<path style="fill:#000000; fill-opacity:1.0; 
stroke:#000000; stroke-width:1.000000; stroke-opacity:1; 
stroke-linecap:round; stroke-linejoin:round;fill-rule:evenodd;"
d="M 133961801.000000,100426201.000000
135961799.000000,100426201.000000
135961799.000000,101326199.000000
133961801.000000,101326199.000000
Z" /> 
<path style="fill:#000000; fill-opacity:1.0; 
stroke:#000000; stroke-width:1.000000; stroke-opacity:1; 
stroke-linecap:round; stroke-linejoin:round;fill-rule:evenodd;"
d="M 133961801.000000,99156201.000000
135961799.000000,99156201.000000
135961799.000000,100056199.000000
133961801.000000,100056199.000000
Z" /> 
<path style="fill:#000000; fill-opacity:1.0; 
stroke:#000000; stroke-width:1.000000; stroke-opacity:1; 
stroke-linecap:round; stroke-linejoin:round;fill-rule:evenodd;"
d="M 135511801.000000,95821201.000000
136411799.000000,95821201.000000
136411799.000000,97821199.000000
135511801.000000,97821199.000000
Z" /> 
<path style="fill:#000000; fill-opacity:1.0; 
stroke:#000000; stroke-width:1.000000; stroke-opacity:1; 
stroke-linecap:round; stroke-linejoin:round;fill-rule:evenodd;"
d="M 136781801.000000,95821201.000000
137681799.000000,95821201.000000
137681799.000000,97821199.000000
136781801.000000,97821199.000000
Z" /> 
<path style="fill:#000000; fill-opacity:1.0; 
stroke:#000000; stroke-width:1.000000; stroke-opacity:1; 
stroke-linecap:round; stroke-linejoin:round;fill-rule:evenodd;"
d="M 138051801.000000,95821201.000000
138951799.000000,95821201.000000
138951799.000000,97821199.000000
138051801.000000,97821199.000000
Z" /> 
<path style="fill:#000000; fill-opacity:1.0; 
stroke:#000000; stroke-width:1.000000; stroke-opacity:1; 
stroke-linecap:round; stroke-linejoin:round;fill-rule:evenodd;"
d="M 139321801.000000,95821201.000000
140221799.000000,95821201.000000
140221799.000000,97821199.000000
139321801.000000,97821199.000000
Z" /> 
<path style="fill:#000000; fill-opacity:1.0; 
stroke:#000000; stroke-width:1.000000; stroke-opacity:1; 
stroke-linecap:round; stroke-linejoin:round;fill-rule:evenodd;"
d="M 140591801.000000,95821201.000000
141491799.000000,95821201.000000
141491799.000000,97821199.000000
140591801.000000,97821199.000000
Z" /> 
<path style="fill:#000000; fill-opacity:1.0; 
stroke:#000000; stroke-width:1.000000; stroke-opacity:1; 
stroke-linecap:round; stroke-linejoin:round;fill-rule:evenodd;"
d="M 141861801.000000,95821201.000000
142761799.000000,95821201.000000
142761799.000000,97821199.000000
141861801.000000,97821199.000000
Z" /> 
<path style="fill:#000000; fill-opacity:1.0; 
stroke:#000000; stroke-width:1.000000; stroke-opacity:1; 
stroke-linecap:round; stroke-linejoin:round;fill-rule:evenodd;"
d="M 143131801.000000,95821201.000000
144031799.000000,95821201.000000
144031799.000000,97821199.000000
143131801.000000,97821199.000000
Z" /> 
<path style="fill:#000000; fill-opacity:1.0; 
stroke:#000000; stroke-width:1.000000; stroke-opacity:1; 
stroke-linecap:round; stroke-linejoin:round;fill-rule:evenodd;"
d="M 144401801.000000,95821201.000000
145301799.000000,95821201.000000
145301799.000000,97821199.000000
144401801.000000,97821199.000000
Z" /> 
<path style="fill:#000000; fill-opacity:1.0; 
stroke:#000000; stroke-width:1.000000; stroke-opacity:1; 
stroke-linecap:round; stroke-linejoin:round;fill-rule:evenodd;"
d="M 145671801.000000,95821201.000000
146571799.000000,95821201.000000
146571799.000000,97821199.000000
145671801.000000,97821199.000000
Z" /> 
<path style="fill:#000000; fill-opacity:1.0; 
stroke:#000000; stroke-width:1.000000; stroke-opacity:1; 
stroke-linecap:round; stroke-linejoin:round;fill-rule:evenodd;"
d="M 146941801.000000,95821201.000000
147841799.000000,95821201.000000
147841799.000000,97821199.000000
146941801.000000,97821199.000000
Z" /> 
<path style="fill:#000000; fill-opacity:1.0; 
stroke:#000000; stroke-width:1.000000; stroke-opacity:1; 
stroke-linecap:round; stroke-linejoin:round;fill-rule:evenodd;"
d="M 148211801.000000,95821201.000000
149111799.000000,95821201.000000
149111799.000000,97821199.000000
148211801.000000,97821199.000000
Z" /> 
<path style="fill:#000000; fill-opacity:1.0; 
stroke:#000000; stroke-width:1.000000; stroke-opacity:1; 
stroke-linecap:round; stroke-linejoin:round;fill-rule:evenodd;"
d="M 149481801.000000,95821201.000000
150381799.000000,95821201.000000
150381799.000000,97821199.000000
149481801.000000,97821199.000000
Z" /> 
<path style="fill:#000000; fill-opacity:1.0; 
stroke:#000000; stroke-width:1.000000; stroke-opacity:1; 
stroke-linecap:round; stroke-linejoin:round;fill-rule:evenodd;"
d="M 150751801.000000,95821201.000000
151651799.000000,95821201.000000
151651799.000000,97821199.000000
150751801.000000,97821199.000000
Z" /> 
<path style="fill:#000000; fill-opacity:1.0; 
stroke:#000000; stroke-width:1.000000; stroke-opacity:1; 
stroke-linecap:round; stroke-linejoin:round;fill-rule:evenodd;"
d="M 152021801.000000,95821201.000000
152921799.000000,95821201.000000
152921799.000000,97821199.000000
152021801.000000,97821199.000000
Z" /> 
</g>
<g >
</g>
<g >
</g>
<g style="fill:#000000; fill-opacity:1.0; 
stroke:#000000; stroke-width:1.000000; stroke-opacity:1; 
stroke-linecap:round; stroke-linejoin:round;">
<path style="fill:#000000; fill-opacity:1.0; 
stroke:#000000; stroke-width:1.000000; stroke-opacity:1; 
stroke-linecap:round; stroke-linejoin:round;fill-rule:evenodd;"
d="M 150352990.000000,94053716.000000
150443877.000000,94071795.000000
150520928.000000,94123278.000000
150572411.000000,94200329.000000
150590490.000000,94291216.000000
150590490.000000,94891216.000000
150572411.000000,94982103.000000
150520928.000000,95059154.000000
150443877.000000,95110637.000000
150352990.000000,95128716.000000
149877990.000000,95128716.000000
149787103.000000,95110637.000000
149710052.000000,95059154.000000
149658569.000000,94982103.000000
149640490.000000,94891216.000000
149640490.000000,94291216.000000
149658569.000000,94200329.000000
149710052.000000,94123278.000000
149787103.000000,94071795.000000
149877990.000000,94053716.000000
Z" /> 
<path style="fill:#000000; fill-opacity:1.0; 
stroke:#000000; stroke-width:1.000000; stroke-opacity:1; 
stroke-linecap:round; stroke-linejoin:round;fill-rule:evenodd;"
d="M 150352990.000000,92328716.000000
150443877.000000,92346795.000000
150520928.000000,92398278.000000
150572411.000000,92475329.000000
150590490.000000,92566216.000000
150590490.000000,93166216.000000
150572411.000000,93257103.000000
150520928.000000,93334154.000000
150443877.000000,93385637.000000
150352990.000000,93403716.000000
149877990.000000,93403716.000000
149787103.000000,93385637.000000
149710052.000000,93334154.000000
149658569.000000,93257103.000000
149640490.000000,93166216.000000
149640490.000000,92566216.000000
149658569.000000,92475329.000000
149710052.000000,92398278.000000
149787103.000000,92346795.000000
149877990.000000,92328716.000000
Z" /> 
</g>
<g >
</g>
<g style="fill:#000000; fill-opacity:1.0; 
stroke:#000000; stroke-width:1.000000; stroke-opacity:1; 
stroke-linecap:round; stroke-linejoin:round;">
<path style="fill:#000000; fill-opacity:1.0; 
stroke:#000000; stroke-width:1.000000; stroke-opacity:1; 
stroke-linecap:round; stroke-linejoin:round;fill-rule:evenodd;"
d="M 144380000.000000,125270000.000000
144368582.000000,125327403.000000
144336066.000000,125376066.000000
144287403.000000,125408582.000000
144230000.000000,125420000.000000
143055000.000000,125420000.000000
142997597.000000,125408582.000000
142948934.000000,125376066.000000
142916418.000000,125327403.000000
142905000.000000,125270000.000000
142905000.000000,124970000.000000
142916418.000000,124912597.000000
142948934.000000,124863934.000000
142997597.000000,124831418.000000
143055000.000000,124820000.000000
144230000.000000,124820000.000000
144287403.000000,124831418.000000
144336066.000000,124863934.000000
144368582.000000,124912597.000000
144380000.000000,124970000.000000
Z" /> 
<path style="fill:#000000; fill-opacity:1.0; 
stroke:#000000; stroke-width:1.000000; stroke-opacity:1; 
stroke-linecap:round; stroke-linejoin:round;fill-rule:evenodd;"
d="M 146255000.000000,124320000.000000
146243582.000000,124377403.000000
146211066.000000,124426066.000000
146162403.000000,124458582.000000
146105000.000000,124470000.000000
144930000.000000,124470000.000000
144872597.000000,124458582.000000
144823934.000000,124426066.000000
144791418.000000,124377403.000000
144780000.000000,124320000.000000
144780000.000000,124020000.000000
144791418.000000,123962597.000000
144823934.000000,123913934.000000
144872597.000000,123881418.000000
144930000.000000,123870000.000000
146105000.000000,123870000.000000
146162403.000000,123881418.000000
146211066.000000,123913934.000000
146243582.000000,123962597.000000
146255000.000000,124020000.000000
Z" /> 
<path style="fill:#000000; fill-opacity:1.0; 
stroke:#000000; stroke-width:1.000000; stroke-opacity:1; 
stroke-linecap:round; stroke-linejoin:round;fill-rule:evenodd;"
d="M 146255000.000000,126220000.000000
146243582.000000,126277403.000000
146211066.000000,126326066.000000
146162403.000000,126358582.000000
146105000.000000,126370000.000000
144930000.000000,126370000.000000
144872597.000000,126358582.000000
144823934.000000,126326066.000000
144791418.000000,126277403.000000
144780000.000000,126220000.000000
144780000.000000,125920000.000000
144791418.000000,125862597.000000
144823934.000000,125813934.000000
144872597.000000,125781418.000000
144930000.000000,125770000.000000
146105000.000000,125770000.000000
146162403.000000,125781418.000000
146211066.000000,125813934.000000
146243582.000000,125862597.000000
146255000.000000,125920000.000000
Z" /> 
</g>
<g >
</g>
<g >
</g>
<g >
</g>
<g style="fill:#000000; fill-opacity:1.0; 
stroke:#000000; stroke-width:1.000000; stroke-opacity:1; 
stroke-linecap:round; stroke-linejoin:round;">
<path style="fill:#000000; fill-opacity:1.0; 
stroke:#000000; stroke-width:1.000000; stroke-opacity:1; 
stroke-linecap:round; stroke-linejoin:round;fill-rule:evenodd;"
d="M 157695000.000000,123517500.000000
157676921.000000,123608387.000000
157625438.000000,123685438.000000
157548387.000000,123736921.000000
157457500.000000,123755000.000000
156957500.000000,123755000.000000
156866613.000000,123736921.000000
156789562.000000,123685438.000000
156738079.000000,123608387.000000
156720000.000000,123517500.000000
156720000.000000,123042500.000000
156738079.000000,122951613.000000
156789562.000000,122874562.000000
156866613.000000,122823079.000000
156957500.000000,122805000.000000
157457500.000000,122805000.000000
157548387.000000,122823079.000000
157625438.000000,122874562.000000
157676921.000000,122951613.000000
157695000.000000,123042500.000000
Z" /> 
<path style="fill:#000000; fill-opacity:1.0; 
stroke:#000000; stroke-width:1.000000; stroke-opacity:1; 
stroke-linecap:round; stroke-linejoin:round;fill-rule:evenodd;"
d="M 159520000.000000,123517500.000000
159501921.000000,123608387.000000
159450438.000000,123685438.000000
159373387.000000,123736921.000000
159282500.000000,123755000.000000
158782500.000000,123755000.000000
158691613.000000,123736921.000000
158614562.000000,123685438.000000
158563079.000000,123608387.000000
158545000.000000,123517500.000000
158545000.000000,123042500.000000
158563079.000000,122951613.000000
158614562.000000,122874562.000000
158691613.000000,122823079.000000
158782500.000000,122805000.000000
159282500.000000,122805000.000000
159373387.000000,122823079.000000
159450438.000000,122874562.000000
159501921.000000,122951613.000000
159520000.000000,123042500.000000
Z" /> 
</g>
<g >
</g>
<g style="fill:#000000; fill-opacity:1.0; 
stroke:#000000; stroke-width:1.000000; stroke-opacity:1; 
stroke-linecap:round; stroke-linejoin:round;">
<path style="fill:#000000; fill-opacity:1.0; 
stroke:#000000; stroke-width:1.000000; stroke-opacity:1; 
stroke-linecap:round; stroke-linejoin:round;fill-rule:evenodd;"
d="M 138805400.000000,119223400.000000
138747997.000000,119211982.000000
138699334.000000,119179466.000000
138666818.000000,119130803.000000
138655400.000000,119073400.000000
138655400.000000,117898400.000000
138666818.000000,117840997.000000
138699334.000000,117792334.000000
138747997.000000,117759818.000000
138805400.000000,117748400.000000
139105400.000000,117748400.000000
139162803.000000,117759818.000000
139211466.000000,117792334.000000
139243982.000000,117840997.000000
139255400.000000,117898400.000000
139255400.000000,119073400.000000
139243982.000000,119130803.000000
139211466.000000,119179466.000000
139162803.000000,119211982.000000
139105400.000000,119223400.000000
Z" /> 
<path style="fill:#000000; fill-opacity:1.0; 
stroke:#000000; stroke-width:1.000000; stroke-opacity:1; 
stroke-linecap:round; stroke-linejoin:round;fill-rule:evenodd;"
d="M 139755400.000000,121098400.000000
139697997.000000,121086982.000000
139649334.000000,121054466.000000
139616818.000000,121005803.000000
139605400.000000,120948400.000000
139605400.000000,119773400.000000
139616818.000000,119715997.000000
139649334.000000,119667334.000000
139697997.000000,119634818.000000
139755400.000000,119623400.000000
140055400.000000,119623400.000000
140112803.000000,119634818.000000
140161466.000000,119667334.000000
140193982.000000,119715997.000000
140205400.000000,119773400.000000
140205400.000000,120948400.000000
140193982.000000,121005803.000000
140161466.000000,121054466.000000
140112803.000000,121086982.000000
140055400.000000,121098400.000000
Z" /> 
<path style="fill:#000000; fill-opacity:1.0; 
stroke:#000000; stroke-width:1.000000; stroke-opacity:1; 
stroke-linecap:round; stroke-linejoin:round;fill-rule:evenodd;"
d="M 137855400.000000,121098400.000000
137797997.000000,121086982.000000
137749334.000000,121054466.000000
137716818.000000,121005803.000000
137705400.000000,120948400.000000
137705400.000000,119773400.000000
137716818.000000,119715997.000000
137749334.000000,119667334.000000
137797997.000000,119634818.000000
137855400.000000,119623400.000000
138155400.000000,119623400.000000
138212803.000000,119634818.000000
138261466.000000,119667334.000000
138293982.000000,119715997.000000
138305400.000000,119773400.000000
138305400.000000,120948400.000000
138293982.000000,121005803.000000
138261466.000000,121054466.000000
138212803.000000,121086982.000000
138155400.000000,121098400.000000
Z" /> 
</g>
<g >
</g>
<g >
</g>
<g >
</g>
<g >
</g>
<g >
</g>
<g >
</g>
</g> 
</svg>
