<?xml version="1.0" standalone="no"?>
 <!DOCTYPE svg PUBLIC "-//W3C//DTD SVG 1.1//EN" 
 "http://www.w3.org/Graphics/SVG/1.1/DTD/svg11.dtd"> 
<svg
  xmlns:svg="http://www.w3.org/2000/svg"
  xmlns="http://www.w3.org/2000/svg"
  xmlns:xlink="http://www.w3.org/1999/xlink"
  version="1.1"
  width="29.700220cm" height="21.000720cm" viewBox="0 0 297002200 210007200">
<title>SVG Picture created as GlowCoreMini-Edge_Cuts.svg date 2022/03/25 12:32:18 </title>
  <desc>Picture generated by PCBNEW </desc>
<g style="fill:#000000; fill-opacity:1.000000;stroke:#000000; stroke-opacity:1.000000;
stroke-linecap:round; stroke-linejoin:round;"
 transform="translate(0 0) scale(1 1)">
</g>
<g style="fill:#000000; fill-opacity:0.0; 
stroke:#000000; stroke-width:0.000000; stroke-opacity:1; 
stroke-linecap:round; stroke-linejoin:round;">
</g>
<g style="fill:#000000; fill-opacity:0.0; 
stroke:#000000; stroke-width:100000.000000; stroke-opacity:1; 
stroke-linecap:round; stroke-linejoin:round;">
<path d="M158432158 90994756
L155400188 90994756
" />
<path d="M158432158 146929536
L135294214 146929536
" />
<path d="M133294214.000000 144929536.000000 A1999999.000000 1999999.000000 0.0 0 0 135294214.000000 146929536.000000" />
<path d="M158432158.000000 90994756.000000 A1999999.000000 1999999.000000 0.0 0 0 160432158.000000 88994756.000000" />
<path d="M153400188.000000 117394756.000000 A1999999.000000 1999999.000000 0.0 0 0 155400188.000000 119394756.000000" />
<path d="M155400188 119394756
L158432158 119394756
" />
<path d="M155400188.000000 90994756.000000 A1999999.000000 1999999.000000 0.0 0 0 153400188.000000 92994756.000000" />
<path d="M160432158 72294214
L160432158 88994756
" />
<path d="M135294214 70294214
L158432158 70294214
" />
<path d="M135294214.000000 70294214.000000 A1999999.000000 1999999.000000 0.0 0 0 133294214.000000 72294214.000000" />
<path d="M153400188 92994756
L153400188 117394756
" />
<path d="M160432158.000000 72294214.000000 A1999999.000000 1999999.000000 0.0 0 0 158432158.000000 70294214.000000" />
<path d="M160432158.000000 121394756.000000 A1999999.000000 1999999.000000 0.0 0 0 158432158.000000 119394756.000000" />
<path d="M158432158.000000 146929536.000000 A1999999.000000 1999999.000000 0.0 0 0 160432158.000000 144929536.000000" />
<path d="M160432158 121394756
L160432158 144929536
" />
<path d="M133294214 144929536
L133294214 72294214
" />
<g >
</g>
<g >
</g>
<g >
</g>
<g >
</g>
<g >
</g>
<g >
</g>
<g >
</g>
<g >
</g>
<g >
</g>
<g >
</g>
<g >
</g>
<g >
</g>
<g >
</g>
<g >
</g>
<g >
</g>
<g >
</g>
<g >
</g>
<g >
</g>
<g >
</g>
<g >
</g>
<g >
</g>
<g >
</g>
<g >
</g>
<g >
</g>
<g >
</g>
<g >
</g>
<g >
</g>
<g >
</g>
<g >
</g>
<g >
</g>
<g >
</g>
<g >
</g>
<g >
</g>
<g >
</g>
<g >
</g>
<g >
</g>
<g >
</g>
<g >
</g>
<g >
</g>
<g >
</g>
<g >
</g>
<g >
</g>
</g> 
</svg>
