%TF.GenerationSoftware,KiCad,Pcbnew,(6.0.0-0)*%
%TF.CreationDate,2022-01-26T18:23:46+01:00*%
%TF.ProjectId,GlowCoreMini,476c6f77-436f-4726-954d-696e692e6b69,rev?*%
%TF.SameCoordinates,Original*%
%TF.FileFunction,Soldermask,Bot*%
%TF.FilePolarity,Negative*%
%FSLAX46Y46*%
G04 Gerber Fmt 4.6, Leading zero omitted, Abs format (unit mm)*
G04 Created by KiCad (PCBNEW (6.0.0-0)) date 2022-01-26 18:23:46*
%MOMM*%
%LPD*%
G01*
G04 APERTURE LIST*
%ADD10C,0.700000*%
%ADD11O,2.200000X1.200000*%
%ADD12O,1.800000X1.200000*%
%ADD13C,1.800000*%
%ADD14O,3.000000X1.600000*%
%ADD15O,1.600000X3.200000*%
%ADD16C,2.300000*%
%ADD17C,0.500000*%
%ADD18R,1.700000X1.700000*%
%ADD19O,1.700000X1.700000*%
%ADD20R,2.600000X2.600000*%
%ADD21C,2.600000*%
%ADD22C,0.300000*%
%ADD23R,1.500000X1.000000*%
G04 APERTURE END LIST*
D10*
%TO.C,USB1*%
X167817000Y-87915000D03*
X167817000Y-93695000D03*
D11*
X167317000Y-86485000D03*
X167317000Y-95125000D03*
D12*
X171497000Y-86485000D03*
X171497000Y-95125000D03*
%TD*%
D13*
%TO.C,J2*%
X171315000Y-103662000D03*
D14*
X163865000Y-108512000D03*
X163865000Y-98812000D03*
X168565000Y-108512000D03*
X168565000Y-98812000D03*
D15*
X168065000Y-103662000D03*
D16*
X160365000Y-103662000D03*
%TD*%
D17*
%TO.C,MK1*%
X156729000Y-91821000D03*
%TD*%
D18*
%TO.C,J3*%
X122276000Y-87523000D03*
D19*
X122276000Y-84983000D03*
X119736000Y-87523000D03*
X119736000Y-84983000D03*
X117196000Y-87523000D03*
X117196000Y-84983000D03*
X114656000Y-87523000D03*
X114656000Y-84983000D03*
X112116000Y-87523000D03*
X112116000Y-84983000D03*
X109576000Y-87523000D03*
X109576000Y-84983000D03*
%TD*%
D20*
%TO.C,J4*%
X113538000Y-97028000D03*
D21*
X113538000Y-102108000D03*
X113538000Y-107188000D03*
%TD*%
D22*
%TO.C,U2*%
X137401500Y-96925000D03*
X139236500Y-96925000D03*
X136484000Y-97842500D03*
X138319000Y-97842500D03*
X140154000Y-97842500D03*
X137401500Y-98760000D03*
X139236500Y-98760000D03*
X136484000Y-99677500D03*
X138319000Y-99677500D03*
X140154000Y-99677500D03*
X137401500Y-100595000D03*
X139236500Y-100595000D03*
%TD*%
D23*
%TO.C,Status_LED1*%
X109728000Y-90917000D03*
X109728000Y-92217000D03*
%TD*%
M02*
