%TF.GenerationSoftware,KiCad,Pcbnew,(6.0.9-0)*%
%TF.CreationDate,2022-11-16T22:53:00+01:00*%
%TF.ProjectId,GlowCoreMini PCB,476c6f77-436f-4726-954d-696e69205043,rev?*%
%TF.SameCoordinates,Original*%
%TF.FileFunction,Soldermask,Top*%
%TF.FilePolarity,Negative*%
%FSLAX46Y46*%
G04 Gerber Fmt 4.6, Leading zero omitted, Abs format (unit mm)*
G04 Created by KiCad (PCBNEW (6.0.9-0)) date 2022-11-16 22:53:00*
%MOMM*%
%LPD*%
G01*
G04 APERTURE LIST*
G04 Aperture macros list*
%AMRoundRect*
0 Rectangle with rounded corners*
0 $1 Rounding radius*
0 $2 $3 $4 $5 $6 $7 $8 $9 X,Y pos of 4 corners*
0 Add a 4 corners polygon primitive as box body*
4,1,4,$2,$3,$4,$5,$6,$7,$8,$9,$2,$3,0*
0 Add four circle primitives for the rounded corners*
1,1,$1+$1,$2,$3*
1,1,$1+$1,$4,$5*
1,1,$1+$1,$6,$7*
1,1,$1+$1,$8,$9*
0 Add four rect primitives between the rounded corners*
20,1,$1+$1,$2,$3,$4,$5,0*
20,1,$1+$1,$4,$5,$6,$7,0*
20,1,$1+$1,$6,$7,$8,$9,0*
20,1,$1+$1,$8,$9,$2,$3,0*%
G04 Aperture macros list end*
%ADD10RoundRect,0.225000X0.250000X-0.225000X0.250000X0.225000X-0.250000X0.225000X-0.250000X-0.225000X0*%
%ADD11RoundRect,0.135000X0.135000X0.185000X-0.135000X0.185000X-0.135000X-0.185000X0.135000X-0.185000X0*%
%ADD12C,2.200000*%
%ADD13RoundRect,0.250000X0.400000X1.450000X-0.400000X1.450000X-0.400000X-1.450000X0.400000X-1.450000X0*%
%ADD14RoundRect,0.200000X0.200000X0.275000X-0.200000X0.275000X-0.200000X-0.275000X0.200000X-0.275000X0*%
%ADD15R,0.550013X1.000000*%
%ADD16R,1.250013X0.700000*%
%ADD17RoundRect,0.140000X-0.170000X0.140000X-0.170000X-0.140000X0.170000X-0.140000X0.170000X0.140000X0*%
%ADD18R,0.900000X0.280010*%
%ADD19R,0.280010X0.900000*%
%ADD20R,3.300000X3.300000*%
%ADD21RoundRect,0.225000X-0.225000X-0.250000X0.225000X-0.250000X0.225000X0.250000X-0.225000X0.250000X0*%
%ADD22R,2.046380X1.620015*%
%ADD23C,0.700025*%
%ADD24R,1.200000X0.900000*%
%ADD25R,1.300000X1.200000*%
%ADD26RoundRect,0.250000X-0.412500X-0.650000X0.412500X-0.650000X0.412500X0.650000X-0.412500X0.650000X0*%
%ADD27O,0.750013X0.250013*%
%ADD28RoundRect,0.135000X-0.185000X0.135000X-0.185000X-0.135000X0.185000X-0.135000X0.185000X0.135000X0*%
%ADD29R,1.050013X0.550013*%
%ADD30R,0.450013X1.400000*%
%ADD31R,2.400000X0.450013*%
%ADD32RoundRect,0.135000X-0.135000X-0.185000X0.135000X-0.185000X0.135000X0.185000X-0.135000X0.185000X0*%
%ADD33RoundRect,0.140000X0.140000X0.170000X-0.140000X0.170000X-0.140000X-0.170000X0.140000X-0.170000X0*%
%ADD34R,1.000000X0.600000*%
%ADD35R,1.070003X0.600000*%
%ADD36RoundRect,0.135000X0.185000X-0.135000X0.185000X0.135000X-0.185000X0.135000X-0.185000X-0.135000X0*%
%ADD37R,0.900000X1.200000*%
%ADD38R,1.200000X1.300000*%
%ADD39R,0.419990X0.600000*%
%ADD40R,0.900000X2.000000*%
%ADD41R,2.000000X0.900000*%
%ADD42R,1.330000X1.330000*%
%ADD43R,0.600000X1.300000*%
%ADD44R,0.300000X1.300000*%
%ADD45O,1.200000X2.200000*%
%ADD46O,1.200000X1.800000*%
%ADD47RoundRect,0.140000X-0.140000X-0.170000X0.140000X-0.170000X0.140000X0.170000X-0.140000X0.170000X0*%
%ADD48RoundRect,0.140000X0.170000X-0.140000X0.170000X0.140000X-0.170000X0.140000X-0.170000X-0.140000X0*%
G04 APERTURE END LIST*
D10*
%TO.C,C14*%
X100406200Y-79997600D03*
X100406200Y-78447600D03*
%TD*%
D11*
%TO.C,R6*%
X85092000Y-83743800D03*
X84072000Y-83743800D03*
%TD*%
D12*
%TO.C,H1*%
X86309200Y-51231800D03*
%TD*%
D13*
%TO.C,F1*%
X98745000Y-78740000D03*
X94295000Y-78740000D03*
%TD*%
D14*
%TO.C,R4*%
X92699950Y-79248600D03*
X91049950Y-79248600D03*
%TD*%
D15*
%TO.C,U9*%
X104188515Y-80413349D03*
X103238553Y-80413349D03*
X102288591Y-80413349D03*
X102288591Y-83213451D03*
X103238553Y-83213451D03*
X104188515Y-83213451D03*
%TD*%
D11*
%TO.C,R5*%
X87736750Y-75692600D03*
X86716750Y-75692600D03*
%TD*%
D16*
%TO.C,U5*%
X86476549Y-76660303D03*
X86476549Y-74760379D03*
X84476549Y-75710341D03*
%TD*%
D12*
%TO.C,H2*%
X110337600Y-86893400D03*
%TD*%
D17*
%TO.C,C8*%
X101513848Y-74897587D03*
X101513848Y-75857587D03*
%TD*%
D18*
%TO.C,U12*%
X106361721Y-80490133D03*
X106361721Y-80990514D03*
X106361721Y-81490895D03*
X106361721Y-81991276D03*
X106361721Y-82491657D03*
X106361721Y-82992038D03*
X106361721Y-83492419D03*
D19*
X107360451Y-84491403D03*
X107860832Y-84491403D03*
X108361213Y-84491403D03*
X108861594Y-84491403D03*
X109361975Y-84491403D03*
X109862356Y-84491403D03*
X110362737Y-84491403D03*
D18*
X111361721Y-83492419D03*
X111361721Y-82992038D03*
X111361721Y-82491657D03*
X111361721Y-81991276D03*
X111361721Y-81490895D03*
X111361721Y-80990514D03*
X111361721Y-80490133D03*
D19*
X110362737Y-79491403D03*
X109862356Y-79491403D03*
X109361975Y-79491403D03*
X108861594Y-79491403D03*
X108361213Y-79491403D03*
X107860832Y-79491403D03*
X107360451Y-79491403D03*
D20*
X108861594Y-81991276D03*
%TD*%
D21*
%TO.C,C6*%
X102758448Y-75354787D03*
X104308448Y-75354787D03*
%TD*%
D22*
%TO.C,U7*%
X99237831Y-75361825D03*
X94107020Y-75361825D03*
%TD*%
D21*
%TO.C,C5*%
X101853400Y-53545855D03*
X103403400Y-53545855D03*
%TD*%
D23*
%TO.C,SW2*%
X83985932Y-58203686D03*
X83985932Y-56503660D03*
D24*
X83985932Y-59653775D03*
X83985932Y-55053825D03*
D25*
X85535843Y-59028679D03*
X85535843Y-55678667D03*
%TD*%
D26*
%TO.C,C7*%
X98183300Y-51155600D03*
X101308300Y-51155600D03*
%TD*%
D27*
%TO.C,U2*%
X91605780Y-53617663D03*
X91605780Y-53117536D03*
X91605780Y-52617663D03*
X91605780Y-52117536D03*
X88505958Y-52117536D03*
X88505958Y-52617663D03*
X88505958Y-53117536D03*
X88505958Y-53617663D03*
%TD*%
D26*
%TO.C,C9*%
X93230300Y-51003200D03*
X96355300Y-51003200D03*
%TD*%
D28*
%TO.C,R13*%
X85956750Y-70737600D03*
X85956750Y-71757600D03*
%TD*%
D23*
%TO.C,SW3*%
X83985932Y-72097486D03*
X83985932Y-70397460D03*
D24*
X83985932Y-73547575D03*
X83985932Y-68947625D03*
D25*
X85535843Y-72922479D03*
X85535843Y-69572467D03*
%TD*%
D11*
%TO.C,R14*%
X93702600Y-52730400D03*
X92682600Y-52730400D03*
%TD*%
D17*
%TO.C,C1*%
X91617800Y-50370800D03*
X91617800Y-51330800D03*
%TD*%
D29*
%TO.C,U3*%
X103617317Y-51615455D03*
X104967584Y-51615455D03*
X104967584Y-50765569D03*
X103617317Y-50765569D03*
D30*
X102567533Y-51190512D03*
D31*
X104292451Y-52415557D03*
D30*
X106017368Y-51190512D03*
D31*
X104292451Y-49965468D03*
%TD*%
D32*
%TO.C,R12*%
X93444600Y-53898800D03*
X94464600Y-53898800D03*
%TD*%
%TO.C,R9*%
X84783200Y-60731400D03*
X85803200Y-60731400D03*
%TD*%
%TO.C,R3*%
X91898350Y-78004000D03*
X92918350Y-78004000D03*
%TD*%
D33*
%TO.C,C4*%
X105509000Y-53289200D03*
X104549000Y-53289200D03*
%TD*%
D23*
%TO.C,SW4*%
X83985932Y-65150586D03*
X83985932Y-63450560D03*
D24*
X83985932Y-66600675D03*
X83985932Y-62000725D03*
D25*
X85535843Y-65975579D03*
X85535843Y-62625567D03*
%TD*%
D34*
%TO.C,U6*%
X104401852Y-78750711D03*
X104401852Y-77800749D03*
X104401852Y-76850787D03*
X101801648Y-76850787D03*
X101801648Y-78750711D03*
%TD*%
D35*
%TO.C,U11*%
X89728677Y-78800962D03*
X89728677Y-76901038D03*
X87258523Y-77851000D03*
%TD*%
D36*
%TO.C,R7*%
X89890600Y-88147200D03*
X89890600Y-87127200D03*
%TD*%
D11*
%TO.C,R15*%
X85041200Y-67919600D03*
X84021200Y-67919600D03*
%TD*%
D23*
%TO.C,SW1*%
X87401400Y-87692668D03*
X85701374Y-87692668D03*
D37*
X88851489Y-87692668D03*
X84251539Y-87692668D03*
D38*
X88226393Y-86142757D03*
X84876381Y-86142757D03*
%TD*%
D36*
%TO.C,R8*%
X90855800Y-88147200D03*
X90855800Y-87127200D03*
%TD*%
D10*
%TO.C,C10*%
X105333800Y-87770000D03*
X105333800Y-86220000D03*
%TD*%
D39*
%TO.C,U14*%
X102321613Y-87767162D03*
X102971600Y-87767162D03*
X103621587Y-87767162D03*
X103621587Y-85867238D03*
X102971600Y-85867238D03*
X102321613Y-85867238D03*
%TD*%
D40*
%TO.C,U1*%
X105250150Y-55653500D03*
X103980150Y-55653500D03*
X102710150Y-55653500D03*
X101440150Y-55653500D03*
X100170150Y-55653500D03*
X98900150Y-55653500D03*
X97630150Y-55653500D03*
X96360150Y-55653500D03*
X95090150Y-55653500D03*
X93820150Y-55653500D03*
X92550150Y-55653500D03*
X91280150Y-55653500D03*
X90010150Y-55653500D03*
X88740150Y-55653500D03*
D41*
X87740150Y-58438500D03*
X87740150Y-59708500D03*
X87740150Y-60978500D03*
X87740150Y-62248500D03*
X87740150Y-63518500D03*
X87740150Y-64788500D03*
X87740150Y-66058500D03*
X87740150Y-67328500D03*
X87740150Y-68598500D03*
X87740150Y-69868500D03*
D40*
X88740150Y-72653500D03*
X90010150Y-72653500D03*
X91280150Y-72653500D03*
X92550150Y-72653500D03*
X93820150Y-72653500D03*
X95090150Y-72653500D03*
X96360150Y-72653500D03*
X97630150Y-72653500D03*
X98900150Y-72653500D03*
X100170150Y-72653500D03*
X101440150Y-72653500D03*
X102710150Y-72653500D03*
X103980150Y-72653500D03*
X105250150Y-72653500D03*
D42*
X99585150Y-64988500D03*
X95915150Y-64988500D03*
X99585150Y-61318500D03*
X97750150Y-64988500D03*
X95915150Y-61318500D03*
X99585150Y-63153500D03*
X95915150Y-63153500D03*
X97750150Y-63153500D03*
X97750150Y-61318500D03*
%TD*%
D23*
%TO.C,USB1*%
X99438568Y-83781855D03*
X93658532Y-83781855D03*
D43*
X93348652Y-82539284D03*
X94148499Y-82539284D03*
D44*
X95298614Y-82539284D03*
X96298614Y-82539284D03*
X96798486Y-82539284D03*
X97798486Y-82539284D03*
D43*
X99748448Y-82539284D03*
X98948601Y-82539284D03*
D44*
X98298614Y-82539284D03*
X97298614Y-82539284D03*
X95798486Y-82539284D03*
X94798486Y-82539284D03*
D45*
X92228509Y-83281728D03*
D46*
X92228509Y-87461814D03*
X100868591Y-87461814D03*
D45*
X100868591Y-83281728D03*
%TD*%
D47*
%TO.C,C11*%
X104574400Y-85064600D03*
X105534400Y-85064600D03*
%TD*%
D21*
%TO.C,C12*%
X98589800Y-53669000D03*
X100139800Y-53669000D03*
%TD*%
D11*
%TO.C,R1*%
X89460800Y-51257200D03*
X88440800Y-51257200D03*
%TD*%
D48*
%TO.C,C13*%
X85931350Y-68247800D03*
X85931350Y-67287800D03*
%TD*%
D15*
%TO.C,U4*%
X85938260Y-79702149D03*
X84988298Y-79702149D03*
X84038336Y-79702149D03*
X84038336Y-82502251D03*
X84988298Y-82502251D03*
X85938260Y-82502251D03*
%TD*%
D48*
%TO.C,C2*%
X87528400Y-53540600D03*
X87528400Y-52580600D03*
%TD*%
D21*
%TO.C,C3*%
X95631000Y-53669000D03*
X97181000Y-53669000D03*
%TD*%
M02*
