%TF.GenerationSoftware,KiCad,Pcbnew,(6.0.9-0)*%
%TF.CreationDate,2022-11-18T22:27:02+01:00*%
%TF.ProjectId,GlowCoreMini PCB,476c6f77-436f-4726-954d-696e69205043,rev?*%
%TF.SameCoordinates,Original*%
%TF.FileFunction,Other,Comment*%
%FSLAX46Y46*%
G04 Gerber Fmt 4.6, Leading zero omitted, Abs format (unit mm)*
G04 Created by KiCad (PCBNEW (6.0.9-0)) date 2022-11-18 22:27:02*
%MOMM*%
%LPD*%
G01*
G04 APERTURE LIST*
%ADD10C,0.150000*%
%ADD11C,0.100000*%
G04 APERTURE END LIST*
D10*
%TO.C,U1*%
X116432230Y-70207028D02*
X115432230Y-70207028D01*
X116432230Y-69635600D02*
X115860802Y-70064171D01*
X115432230Y-69635600D02*
X116003659Y-70207028D01*
X115908421Y-69207028D02*
X115908421Y-68873695D01*
X116432230Y-68730838D02*
X116432230Y-69207028D01*
X115432230Y-69207028D01*
X115432230Y-68730838D01*
X115908421Y-68302266D02*
X115908421Y-67968933D01*
X116432230Y-67826076D02*
X116432230Y-68302266D01*
X115432230Y-68302266D01*
X115432230Y-67826076D01*
X116432230Y-67397504D02*
X115432230Y-67397504D01*
X115432230Y-67016552D01*
X115479850Y-66921314D01*
X115527469Y-66873695D01*
X115622707Y-66826076D01*
X115765564Y-66826076D01*
X115860802Y-66873695D01*
X115908421Y-66921314D01*
X115956040Y-67016552D01*
X115956040Y-67397504D01*
X116051278Y-66397504D02*
X116051278Y-65635600D01*
X115432230Y-64968933D02*
X115432230Y-64778457D01*
X115479850Y-64683219D01*
X115575088Y-64587980D01*
X115765564Y-64540361D01*
X116098897Y-64540361D01*
X116289373Y-64587980D01*
X116384611Y-64683219D01*
X116432230Y-64778457D01*
X116432230Y-64968933D01*
X116384611Y-65064171D01*
X116289373Y-65159409D01*
X116098897Y-65207028D01*
X115765564Y-65207028D01*
X115575088Y-65159409D01*
X115479850Y-65064171D01*
X115432230Y-64968933D01*
X115432230Y-64111790D02*
X116241754Y-64111790D01*
X116336992Y-64064171D01*
X116384611Y-64016552D01*
X116432230Y-63921314D01*
X116432230Y-63730838D01*
X116384611Y-63635600D01*
X116336992Y-63587980D01*
X116241754Y-63540361D01*
X115432230Y-63540361D01*
X115432230Y-63207028D02*
X115432230Y-62635600D01*
X116432230Y-62921314D02*
X115432230Y-62921314D01*
X115432230Y-61635600D02*
X115432230Y-60968933D01*
X116432230Y-61635600D01*
X116432230Y-60968933D01*
X115432230Y-60397504D02*
X115432230Y-60207028D01*
X115479850Y-60111790D01*
X115575088Y-60016552D01*
X115765564Y-59968933D01*
X116098897Y-59968933D01*
X116289373Y-60016552D01*
X116384611Y-60111790D01*
X116432230Y-60207028D01*
X116432230Y-60397504D01*
X116384611Y-60492742D01*
X116289373Y-60587980D01*
X116098897Y-60635600D01*
X115765564Y-60635600D01*
X115575088Y-60587980D01*
X115479850Y-60492742D01*
X115432230Y-60397504D01*
X116432230Y-59540361D02*
X115432230Y-59540361D01*
X116432230Y-58968933D01*
X115432230Y-58968933D01*
X115908421Y-58492742D02*
X115908421Y-58159409D01*
X116432230Y-58016552D02*
X116432230Y-58492742D01*
X115432230Y-58492742D01*
X115432230Y-58016552D01*
D11*
X111081040Y-53673695D02*
X111081040Y-53911790D01*
X111319135Y-53935600D01*
X111295326Y-53911790D01*
X111271516Y-53864171D01*
X111271516Y-53745123D01*
X111295326Y-53697504D01*
X111319135Y-53673695D01*
X111366754Y-53649885D01*
X111485802Y-53649885D01*
X111533421Y-53673695D01*
X111557230Y-53697504D01*
X111581040Y-53745123D01*
X111581040Y-53864171D01*
X111557230Y-53911790D01*
X111533421Y-53935600D01*
X111581040Y-53054647D02*
X111247707Y-53054647D01*
X111295326Y-53054647D02*
X111271516Y-53030838D01*
X111247707Y-52983219D01*
X111247707Y-52911790D01*
X111271516Y-52864171D01*
X111319135Y-52840361D01*
X111581040Y-52840361D01*
X111319135Y-52840361D02*
X111271516Y-52816552D01*
X111247707Y-52768933D01*
X111247707Y-52697504D01*
X111271516Y-52649885D01*
X111319135Y-52626076D01*
X111581040Y-52626076D01*
X111581040Y-52387980D02*
X111247707Y-52387980D01*
X111295326Y-52387980D02*
X111271516Y-52364171D01*
X111247707Y-52316552D01*
X111247707Y-52245123D01*
X111271516Y-52197504D01*
X111319135Y-52173695D01*
X111581040Y-52173695D01*
X111319135Y-52173695D02*
X111271516Y-52149885D01*
X111247707Y-52102266D01*
X111247707Y-52030838D01*
X111271516Y-51983219D01*
X111319135Y-51959409D01*
X111581040Y-51959409D01*
X111081040Y-76673695D02*
X111081040Y-76911790D01*
X111319135Y-76935600D01*
X111295326Y-76911790D01*
X111271516Y-76864171D01*
X111271516Y-76745123D01*
X111295326Y-76697504D01*
X111319135Y-76673695D01*
X111366754Y-76649885D01*
X111485802Y-76649885D01*
X111533421Y-76673695D01*
X111557230Y-76697504D01*
X111581040Y-76745123D01*
X111581040Y-76864171D01*
X111557230Y-76911790D01*
X111533421Y-76935600D01*
X111581040Y-76054647D02*
X111247707Y-76054647D01*
X111295326Y-76054647D02*
X111271516Y-76030838D01*
X111247707Y-75983219D01*
X111247707Y-75911790D01*
X111271516Y-75864171D01*
X111319135Y-75840361D01*
X111581040Y-75840361D01*
X111319135Y-75840361D02*
X111271516Y-75816552D01*
X111247707Y-75768933D01*
X111247707Y-75697504D01*
X111271516Y-75649885D01*
X111319135Y-75626076D01*
X111581040Y-75626076D01*
X111581040Y-75387980D02*
X111247707Y-75387980D01*
X111295326Y-75387980D02*
X111271516Y-75364171D01*
X111247707Y-75316552D01*
X111247707Y-75245123D01*
X111271516Y-75197504D01*
X111319135Y-75173695D01*
X111581040Y-75173695D01*
X111319135Y-75173695D02*
X111271516Y-75149885D01*
X111247707Y-75102266D01*
X111247707Y-75030838D01*
X111271516Y-74983219D01*
X111319135Y-74959409D01*
X111581040Y-74959409D01*
D10*
X110146516Y-66897504D02*
X110146516Y-66421314D01*
X110432230Y-66992742D02*
X109432230Y-66659409D01*
X110432230Y-66326076D01*
X109765564Y-65992742D02*
X110432230Y-65992742D01*
X109860802Y-65992742D02*
X109813183Y-65945123D01*
X109765564Y-65849885D01*
X109765564Y-65707028D01*
X109813183Y-65611790D01*
X109908421Y-65564171D01*
X110432230Y-65564171D01*
X109765564Y-65230838D02*
X109765564Y-64849885D01*
X109432230Y-65087980D02*
X110289373Y-65087980D01*
X110384611Y-65040361D01*
X110432230Y-64945123D01*
X110432230Y-64849885D01*
X110384611Y-64135600D02*
X110432230Y-64230838D01*
X110432230Y-64421314D01*
X110384611Y-64516552D01*
X110289373Y-64564171D01*
X109908421Y-64564171D01*
X109813183Y-64516552D01*
X109765564Y-64421314D01*
X109765564Y-64230838D01*
X109813183Y-64135600D01*
X109908421Y-64087980D01*
X110003659Y-64087980D01*
X110098897Y-64564171D01*
X109765564Y-63659409D02*
X110432230Y-63659409D01*
X109860802Y-63659409D02*
X109813183Y-63611790D01*
X109765564Y-63516552D01*
X109765564Y-63373695D01*
X109813183Y-63278457D01*
X109908421Y-63230838D01*
X110432230Y-63230838D01*
X109765564Y-62754647D02*
X110432230Y-62754647D01*
X109860802Y-62754647D02*
X109813183Y-62707028D01*
X109765564Y-62611790D01*
X109765564Y-62468933D01*
X109813183Y-62373695D01*
X109908421Y-62326076D01*
X110432230Y-62326076D01*
X110432230Y-61421314D02*
X109908421Y-61421314D01*
X109813183Y-61468933D01*
X109765564Y-61564171D01*
X109765564Y-61754647D01*
X109813183Y-61849885D01*
X110384611Y-61421314D02*
X110432230Y-61516552D01*
X110432230Y-61754647D01*
X110384611Y-61849885D01*
X110289373Y-61897504D01*
X110194135Y-61897504D01*
X110098897Y-61849885D01*
X110051278Y-61754647D01*
X110051278Y-61516552D01*
X110003659Y-61421314D01*
D11*
X115316754Y-71661790D02*
X115078659Y-71661790D01*
X115054850Y-71899885D01*
X115078659Y-71876076D01*
X115126278Y-71852266D01*
X115245326Y-71852266D01*
X115292945Y-71876076D01*
X115316754Y-71899885D01*
X115340564Y-71947504D01*
X115340564Y-72066552D01*
X115316754Y-72114171D01*
X115292945Y-72137980D01*
X115245326Y-72161790D01*
X115126278Y-72161790D01*
X115078659Y-72137980D01*
X115054850Y-72114171D01*
X115935802Y-72161790D02*
X115935802Y-71828457D01*
X115935802Y-71876076D02*
X115959611Y-71852266D01*
X116007230Y-71828457D01*
X116078659Y-71828457D01*
X116126278Y-71852266D01*
X116150088Y-71899885D01*
X116150088Y-72161790D01*
X116150088Y-71899885D02*
X116173897Y-71852266D01*
X116221516Y-71828457D01*
X116292945Y-71828457D01*
X116340564Y-71852266D01*
X116364373Y-71899885D01*
X116364373Y-72161790D01*
X116602469Y-72161790D02*
X116602469Y-71828457D01*
X116602469Y-71876076D02*
X116626278Y-71852266D01*
X116673897Y-71828457D01*
X116745326Y-71828457D01*
X116792945Y-71852266D01*
X116816754Y-71899885D01*
X116816754Y-72161790D01*
X116816754Y-71899885D02*
X116840564Y-71852266D01*
X116888183Y-71828457D01*
X116959611Y-71828457D01*
X117007230Y-71852266D01*
X117031040Y-71899885D01*
X117031040Y-72161790D01*
D10*
%TO.C,H1*%
X88059200Y-51231800D02*
G75*
G03*
X88059200Y-51231800I-1750000J0D01*
G01*
%TO.C,H2*%
X112087600Y-86893400D02*
G75*
G03*
X112087600Y-86893400I-1750000J0D01*
G01*
D11*
%TO.C,U1*%
X110854850Y-54935600D02*
X111054850Y-54735600D01*
X110854850Y-54935600D02*
X110654850Y-54735600D01*
X110854850Y-50335600D02*
X111054850Y-50535600D01*
X112979850Y-72535600D02*
X117579850Y-72535600D01*
X110854850Y-77935600D02*
X111054850Y-77735600D01*
X117579850Y-72535600D02*
X117379850Y-72735600D01*
X110854850Y-77935600D02*
X110654850Y-77735600D01*
X110854850Y-50335600D02*
X110854850Y-54935600D01*
X110854850Y-50335600D02*
X110654850Y-50535600D01*
X110854850Y-73335600D02*
X110654850Y-73535600D01*
X110854850Y-73335600D02*
X111054850Y-73535600D01*
X110854850Y-73335600D02*
X110854850Y-77935600D01*
X112979850Y-72535600D02*
X113179850Y-72735600D01*
X112979850Y-72535600D02*
X113179850Y-72335600D01*
X117579850Y-72535600D02*
X117379850Y-72335600D01*
%TD*%
M02*
