%TF.GenerationSoftware,KiCad,Pcbnew,(6.0.9-0)*%
%TF.CreationDate,2022-11-18T22:27:02+01:00*%
%TF.ProjectId,GlowCoreMini PCB,476c6f77-436f-4726-954d-696e69205043,rev?*%
%TF.SameCoordinates,Original*%
%TF.FileFunction,Legend,Bot*%
%TF.FilePolarity,Positive*%
%FSLAX46Y46*%
G04 Gerber Fmt 4.6, Leading zero omitted, Abs format (unit mm)*
G04 Created by KiCad (PCBNEW (6.0.9-0)) date 2022-11-18 22:27:02*
%MOMM*%
%LPD*%
G01*
G04 APERTURE LIST*
G04 Aperture macros list*
%AMFreePoly0*
4,1,22,0.500000,-0.750000,0.000000,-0.750000,0.000000,-0.745033,-0.079941,-0.743568,-0.215256,-0.701293,-0.333266,-0.622738,-0.424486,-0.514219,-0.481581,-0.384460,-0.499164,-0.250000,-0.500000,-0.250000,-0.500000,0.250000,-0.499164,0.250000,-0.499963,0.256109,-0.478152,0.396186,-0.417904,0.524511,-0.324060,0.630769,-0.204165,0.706417,-0.067858,0.745374,0.000000,0.744959,0.000000,0.750000,
0.500000,0.750000,0.500000,-0.750000,0.500000,-0.750000,$1*%
%AMFreePoly1*
4,1,20,0.000000,0.744959,0.073905,0.744508,0.209726,0.703889,0.328688,0.626782,0.421226,0.519385,0.479903,0.390333,0.500000,0.250000,0.500000,-0.250000,0.499851,-0.262216,0.476331,-0.402017,0.414519,-0.529596,0.319384,-0.634700,0.198574,-0.708877,0.061801,-0.746166,0.000000,-0.745033,0.000000,-0.750000,-0.500000,-0.750000,-0.500000,0.750000,0.000000,0.750000,0.000000,0.744959,
0.000000,0.744959,$1*%
G04 Aperture macros list end*
%ADD10C,0.150000*%
%ADD11C,0.120000*%
%ADD12C,2.200000*%
%ADD13C,0.700025*%
%ADD14O,1.200000X2.200000*%
%ADD15O,1.200000X1.800000*%
%ADD16R,3.500000X2.000000*%
%ADD17R,2.000000X3.500000*%
%ADD18FreePoly0,180.000000*%
%ADD19FreePoly1,180.000000*%
%ADD20FreePoly0,0.000000*%
%ADD21FreePoly1,0.000000*%
G04 APERTURE END LIST*
D10*
X108773271Y-85249885D02*
X108644700Y-85292742D01*
X108430414Y-85292742D01*
X108344700Y-85249885D01*
X108301842Y-85207028D01*
X108258985Y-85121314D01*
X108258985Y-85035600D01*
X108301842Y-84949885D01*
X108344700Y-84907028D01*
X108430414Y-84864171D01*
X108601842Y-84821314D01*
X108687557Y-84778457D01*
X108730414Y-84735600D01*
X108773271Y-84649885D01*
X108773271Y-84564171D01*
X108730414Y-84478457D01*
X108687557Y-84435600D01*
X108601842Y-84392742D01*
X108387557Y-84392742D01*
X108258985Y-84435600D01*
X108001842Y-84692742D02*
X107658985Y-84692742D01*
X107873271Y-84392742D02*
X107873271Y-85164171D01*
X107830414Y-85249885D01*
X107744700Y-85292742D01*
X107658985Y-85292742D01*
X106973271Y-85292742D02*
X106973271Y-84821314D01*
X107016128Y-84735600D01*
X107101842Y-84692742D01*
X107273271Y-84692742D01*
X107358985Y-84735600D01*
X106973271Y-85249885D02*
X107058985Y-85292742D01*
X107273271Y-85292742D01*
X107358985Y-85249885D01*
X107401842Y-85164171D01*
X107401842Y-85078457D01*
X107358985Y-84992742D01*
X107273271Y-84949885D01*
X107058985Y-84949885D01*
X106973271Y-84907028D01*
X106673271Y-84692742D02*
X106330414Y-84692742D01*
X106544700Y-84392742D02*
X106544700Y-85164171D01*
X106501842Y-85249885D01*
X106416128Y-85292742D01*
X106330414Y-85292742D01*
X105644700Y-84692742D02*
X105644700Y-85292742D01*
X106030414Y-84692742D02*
X106030414Y-85164171D01*
X105987557Y-85249885D01*
X105901842Y-85292742D01*
X105773271Y-85292742D01*
X105687557Y-85249885D01*
X105644700Y-85207028D01*
X105258985Y-85249885D02*
X105173271Y-85292742D01*
X105001842Y-85292742D01*
X104916128Y-85249885D01*
X104873271Y-85164171D01*
X104873271Y-85121314D01*
X104916128Y-85035600D01*
X105001842Y-84992742D01*
X105130414Y-84992742D01*
X105216128Y-84949885D01*
X105258985Y-84864171D01*
X105258985Y-84821314D01*
X105216128Y-84735600D01*
X105130414Y-84692742D01*
X105001842Y-84692742D01*
X104916128Y-84735600D01*
X103373271Y-85292742D02*
X103801842Y-85292742D01*
X103801842Y-84392742D01*
X103073271Y-84821314D02*
X102773271Y-84821314D01*
X102644700Y-85292742D02*
X103073271Y-85292742D01*
X103073271Y-84392742D01*
X102644700Y-84392742D01*
X102258985Y-85292742D02*
X102258985Y-84392742D01*
X102044700Y-84392742D01*
X101916128Y-84435600D01*
X101830414Y-84521314D01*
X101787557Y-84607028D01*
X101744700Y-84778457D01*
X101744700Y-84907028D01*
X101787557Y-85078457D01*
X101830414Y-85164171D01*
X101916128Y-85249885D01*
X102044700Y-85292742D01*
X102258985Y-85292742D01*
X101358985Y-85207028D02*
X101316128Y-85249885D01*
X101358985Y-85292742D01*
X101401842Y-85249885D01*
X101358985Y-85207028D01*
X101358985Y-85292742D01*
X101358985Y-84735600D02*
X101316128Y-84778457D01*
X101358985Y-84821314D01*
X101401842Y-84778457D01*
X101358985Y-84735600D01*
X101358985Y-84821314D01*
X108730414Y-86741742D02*
X108730414Y-85841742D01*
X108516128Y-85841742D01*
X108387557Y-85884600D01*
X108301842Y-85970314D01*
X108258985Y-86056028D01*
X108216128Y-86227457D01*
X108216128Y-86356028D01*
X108258985Y-86527457D01*
X108301842Y-86613171D01*
X108387557Y-86698885D01*
X108516128Y-86741742D01*
X108730414Y-86741742D01*
X107873271Y-86484600D02*
X107444700Y-86484600D01*
X107958985Y-86741742D02*
X107658985Y-85841742D01*
X107358985Y-86741742D01*
X107187557Y-85841742D02*
X106673271Y-85841742D01*
X106930414Y-86741742D02*
X106930414Y-85841742D01*
X106416128Y-86484600D02*
X105987557Y-86484600D01*
X106501842Y-86741742D02*
X106201842Y-85841742D01*
X105901842Y-86741742D01*
X105601842Y-86656028D02*
X105558985Y-86698885D01*
X105601842Y-86741742D01*
X105644700Y-86698885D01*
X105601842Y-86656028D01*
X105601842Y-86741742D01*
X105601842Y-86184600D02*
X105558985Y-86227457D01*
X105601842Y-86270314D01*
X105644700Y-86227457D01*
X105601842Y-86184600D01*
X105601842Y-86270314D01*
X104487557Y-86741742D02*
X104487557Y-85841742D01*
X103887557Y-85841742D02*
X103716128Y-85841742D01*
X103630414Y-85884600D01*
X103544700Y-85970314D01*
X103501842Y-86141742D01*
X103501842Y-86441742D01*
X103544700Y-86613171D01*
X103630414Y-86698885D01*
X103716128Y-86741742D01*
X103887557Y-86741742D01*
X103973271Y-86698885D01*
X104058985Y-86613171D01*
X104101842Y-86441742D01*
X104101842Y-86141742D01*
X104058985Y-85970314D01*
X103973271Y-85884600D01*
X103887557Y-85841742D01*
X102687557Y-85841742D02*
X103116128Y-85841742D01*
X103158985Y-86270314D01*
X103116128Y-86227457D01*
X103030414Y-86184600D01*
X102816128Y-86184600D01*
X102730414Y-86227457D01*
X102687557Y-86270314D01*
X102644700Y-86356028D01*
X102644700Y-86570314D01*
X102687557Y-86656028D01*
X102730414Y-86698885D01*
X102816128Y-86741742D01*
X103030414Y-86741742D01*
X103116128Y-86698885D01*
X103158985Y-86656028D01*
X108216128Y-88105028D02*
X108258985Y-88147885D01*
X108387557Y-88190742D01*
X108473271Y-88190742D01*
X108601842Y-88147885D01*
X108687557Y-88062171D01*
X108730414Y-87976457D01*
X108773271Y-87805028D01*
X108773271Y-87676457D01*
X108730414Y-87505028D01*
X108687557Y-87419314D01*
X108601842Y-87333600D01*
X108473271Y-87290742D01*
X108387557Y-87290742D01*
X108258985Y-87333600D01*
X108216128Y-87376457D01*
X107401842Y-88190742D02*
X107830414Y-88190742D01*
X107830414Y-87290742D01*
X107101842Y-88190742D02*
X107101842Y-87290742D01*
X106587557Y-88190742D02*
X106973271Y-87676457D01*
X106587557Y-87290742D02*
X107101842Y-87805028D01*
X106201842Y-88105028D02*
X106158985Y-88147885D01*
X106201842Y-88190742D01*
X106244700Y-88147885D01*
X106201842Y-88105028D01*
X106201842Y-88190742D01*
X106201842Y-87633600D02*
X106158985Y-87676457D01*
X106201842Y-87719314D01*
X106244700Y-87676457D01*
X106201842Y-87633600D01*
X106201842Y-87719314D01*
X105087557Y-88190742D02*
X105087557Y-87290742D01*
X104487557Y-87290742D02*
X104316128Y-87290742D01*
X104230414Y-87333600D01*
X104144700Y-87419314D01*
X104101842Y-87590742D01*
X104101842Y-87890742D01*
X104144700Y-88062171D01*
X104230414Y-88147885D01*
X104316128Y-88190742D01*
X104487557Y-88190742D01*
X104573271Y-88147885D01*
X104658985Y-88062171D01*
X104701842Y-87890742D01*
X104701842Y-87590742D01*
X104658985Y-87419314D01*
X104573271Y-87333600D01*
X104487557Y-87290742D01*
X103244700Y-88190742D02*
X103758985Y-88190742D01*
X103501842Y-88190742D02*
X103501842Y-87290742D01*
X103587557Y-87419314D01*
X103673271Y-87505028D01*
X103758985Y-87547885D01*
X102730414Y-87676457D02*
X102816128Y-87633600D01*
X102858985Y-87590742D01*
X102901842Y-87505028D01*
X102901842Y-87462171D01*
X102858985Y-87376457D01*
X102816128Y-87333600D01*
X102730414Y-87290742D01*
X102558985Y-87290742D01*
X102473271Y-87333600D01*
X102430414Y-87376457D01*
X102387557Y-87462171D01*
X102387557Y-87505028D01*
X102430414Y-87590742D01*
X102473271Y-87633600D01*
X102558985Y-87676457D01*
X102730414Y-87676457D01*
X102816128Y-87719314D01*
X102858985Y-87762171D01*
X102901842Y-87847885D01*
X102901842Y-88019314D01*
X102858985Y-88105028D01*
X102816128Y-88147885D01*
X102730414Y-88190742D01*
X102558985Y-88190742D01*
X102473271Y-88147885D01*
X102430414Y-88105028D01*
X102387557Y-88019314D01*
X102387557Y-87847885D01*
X102430414Y-87762171D01*
X102473271Y-87719314D01*
X102558985Y-87676457D01*
X97142300Y-54165500D02*
X97485200Y-54584600D01*
X97116900Y-54165500D02*
X96697800Y-54559200D01*
X97116900Y-54165500D02*
X97104200Y-55143400D01*
X107024376Y-71877180D02*
X107024376Y-70877180D01*
X106357709Y-70877180D02*
X106167233Y-70877180D01*
X106071995Y-70924800D01*
X105976757Y-71020038D01*
X105929138Y-71210514D01*
X105929138Y-71543847D01*
X105976757Y-71734323D01*
X106071995Y-71829561D01*
X106167233Y-71877180D01*
X106357709Y-71877180D01*
X106452947Y-71829561D01*
X106548185Y-71734323D01*
X106595804Y-71543847D01*
X106595804Y-71210514D01*
X106548185Y-71020038D01*
X106452947Y-70924800D01*
X106357709Y-70877180D01*
X105595804Y-70877180D02*
X104976757Y-70877180D01*
X105310090Y-71258133D01*
X105167233Y-71258133D01*
X105071995Y-71305752D01*
X105024376Y-71353371D01*
X104976757Y-71448609D01*
X104976757Y-71686704D01*
X105024376Y-71781942D01*
X105071995Y-71829561D01*
X105167233Y-71877180D01*
X105452947Y-71877180D01*
X105548185Y-71829561D01*
X105595804Y-71781942D01*
X104595804Y-70972419D02*
X104548185Y-70924800D01*
X104452947Y-70877180D01*
X104214852Y-70877180D01*
X104119614Y-70924800D01*
X104071995Y-70972419D01*
X104024376Y-71067657D01*
X104024376Y-71162895D01*
X104071995Y-71305752D01*
X104643423Y-71877180D01*
X104024376Y-71877180D01*
X102881519Y-70829561D02*
X103738661Y-72115276D01*
X102595804Y-71829561D02*
X102452947Y-71877180D01*
X102214852Y-71877180D01*
X102119614Y-71829561D01*
X102071995Y-71781942D01*
X102024376Y-71686704D01*
X102024376Y-71591466D01*
X102071995Y-71496228D01*
X102119614Y-71448609D01*
X102214852Y-71400990D01*
X102405328Y-71353371D01*
X102500566Y-71305752D01*
X102548185Y-71258133D01*
X102595804Y-71162895D01*
X102595804Y-71067657D01*
X102548185Y-70972419D01*
X102500566Y-70924800D01*
X102405328Y-70877180D01*
X102167233Y-70877180D01*
X102024376Y-70924800D01*
X101595804Y-71877180D02*
X101595804Y-70877180D01*
X101357709Y-70877180D01*
X101214852Y-70924800D01*
X101119614Y-71020038D01*
X101071995Y-71115276D01*
X101024376Y-71305752D01*
X101024376Y-71448609D01*
X101071995Y-71639085D01*
X101119614Y-71734323D01*
X101214852Y-71829561D01*
X101357709Y-71877180D01*
X101595804Y-71877180D01*
X104214852Y-76363580D02*
X104691042Y-76363580D01*
X104738661Y-76839771D01*
X104691042Y-76792152D01*
X104595804Y-76744533D01*
X104357709Y-76744533D01*
X104262471Y-76792152D01*
X104214852Y-76839771D01*
X104167233Y-76935009D01*
X104167233Y-77173104D01*
X104214852Y-77268342D01*
X104262471Y-77315961D01*
X104357709Y-77363580D01*
X104595804Y-77363580D01*
X104691042Y-77315961D01*
X104738661Y-77268342D01*
X103881519Y-76363580D02*
X103548185Y-77363580D01*
X103214852Y-76363580D01*
X102119614Y-77363580D02*
X102119614Y-76363580D01*
X101643423Y-77363580D02*
X101643423Y-76363580D01*
X101071995Y-77363580D01*
X101071995Y-76363580D01*
X91587871Y-77137104D02*
X91968823Y-77137104D01*
X91968823Y-76337104D01*
X91321204Y-76718057D02*
X91054538Y-76718057D01*
X90940252Y-77137104D02*
X91321204Y-77137104D01*
X91321204Y-76337104D01*
X90940252Y-76337104D01*
X90597395Y-77137104D02*
X90597395Y-76337104D01*
X90406919Y-76337104D01*
X90292633Y-76375200D01*
X90216442Y-76451390D01*
X90178347Y-76527580D01*
X90140252Y-76679961D01*
X90140252Y-76794247D01*
X90178347Y-76946628D01*
X90216442Y-77022819D01*
X90292633Y-77099009D01*
X90406919Y-77137104D01*
X90597395Y-77137104D01*
X89835490Y-77099009D02*
X89759300Y-77137104D01*
X89606919Y-77137104D01*
X89530728Y-77099009D01*
X89492633Y-77022819D01*
X89492633Y-76984723D01*
X89530728Y-76908533D01*
X89606919Y-76870438D01*
X89721204Y-76870438D01*
X89797395Y-76832342D01*
X89835490Y-76756152D01*
X89835490Y-76718057D01*
X89797395Y-76641866D01*
X89721204Y-76603771D01*
X89606919Y-76603771D01*
X89530728Y-76641866D01*
X91625966Y-78425104D02*
X91625966Y-78006057D01*
X91664061Y-77929866D01*
X91740252Y-77891771D01*
X91892633Y-77891771D01*
X91968823Y-77929866D01*
X91625966Y-78387009D02*
X91702157Y-78425104D01*
X91892633Y-78425104D01*
X91968823Y-78387009D01*
X92006919Y-78310819D01*
X92006919Y-78234628D01*
X91968823Y-78158438D01*
X91892633Y-78120342D01*
X91702157Y-78120342D01*
X91625966Y-78082247D01*
X91130728Y-78425104D02*
X91206919Y-78387009D01*
X91245014Y-78310819D01*
X91245014Y-77625104D01*
X90902157Y-77891771D02*
X90749776Y-78425104D01*
X90597395Y-78044152D01*
X90445014Y-78425104D01*
X90292633Y-77891771D01*
X89645014Y-78425104D02*
X89645014Y-78006057D01*
X89683109Y-77929866D01*
X89759300Y-77891771D01*
X89911680Y-77891771D01*
X89987871Y-77929866D01*
X89645014Y-78387009D02*
X89721204Y-78425104D01*
X89911680Y-78425104D01*
X89987871Y-78387009D01*
X90025966Y-78310819D01*
X90025966Y-78234628D01*
X89987871Y-78158438D01*
X89911680Y-78120342D01*
X89721204Y-78120342D01*
X89645014Y-78082247D01*
X89340252Y-77891771D02*
X89149776Y-78425104D01*
X88959300Y-77891771D02*
X89149776Y-78425104D01*
X89225966Y-78615580D01*
X89264061Y-78653676D01*
X89340252Y-78691771D01*
X88692633Y-78387009D02*
X88616442Y-78425104D01*
X88464061Y-78425104D01*
X88387871Y-78387009D01*
X88349776Y-78310819D01*
X88349776Y-78272723D01*
X88387871Y-78196533D01*
X88464061Y-78158438D01*
X88578347Y-78158438D01*
X88654538Y-78120342D01*
X88692633Y-78044152D01*
X88692633Y-78006057D01*
X88654538Y-77929866D01*
X88578347Y-77891771D01*
X88464061Y-77891771D01*
X88387871Y-77929866D01*
X87283109Y-78425104D02*
X87359300Y-78387009D01*
X87397395Y-78348914D01*
X87435490Y-78272723D01*
X87435490Y-78044152D01*
X87397395Y-77967961D01*
X87359300Y-77929866D01*
X87283109Y-77891771D01*
X87168823Y-77891771D01*
X87092633Y-77929866D01*
X87054538Y-77967961D01*
X87016442Y-78044152D01*
X87016442Y-78272723D01*
X87054538Y-78348914D01*
X87092633Y-78387009D01*
X87168823Y-78425104D01*
X87283109Y-78425104D01*
X86673585Y-77891771D02*
X86673585Y-78425104D01*
X86673585Y-77967961D02*
X86635490Y-77929866D01*
X86559300Y-77891771D01*
X86445014Y-77891771D01*
X86368823Y-77929866D01*
X86330728Y-78006057D01*
X86330728Y-78425104D01*
X91968823Y-67776704D02*
X91968823Y-67243371D01*
X91968823Y-67319561D02*
X91930728Y-67281466D01*
X91854538Y-67243371D01*
X91740252Y-67243371D01*
X91664061Y-67281466D01*
X91625966Y-67357657D01*
X91625966Y-67776704D01*
X91625966Y-67357657D02*
X91587871Y-67281466D01*
X91511680Y-67243371D01*
X91397395Y-67243371D01*
X91321204Y-67281466D01*
X91283109Y-67357657D01*
X91283109Y-67776704D01*
X90902157Y-67776704D02*
X90902157Y-67243371D01*
X90902157Y-66976704D02*
X90940252Y-67014800D01*
X90902157Y-67052895D01*
X90864061Y-67014800D01*
X90902157Y-66976704D01*
X90902157Y-67052895D01*
X90178347Y-67738609D02*
X90254538Y-67776704D01*
X90406919Y-67776704D01*
X90483109Y-67738609D01*
X90521204Y-67700514D01*
X90559300Y-67624323D01*
X90559300Y-67395752D01*
X90521204Y-67319561D01*
X90483109Y-67281466D01*
X90406919Y-67243371D01*
X90254538Y-67243371D01*
X90178347Y-67281466D01*
X89835490Y-67776704D02*
X89835490Y-67243371D01*
X89835490Y-67395752D02*
X89797395Y-67319561D01*
X89759300Y-67281466D01*
X89683109Y-67243371D01*
X89606919Y-67243371D01*
X89225966Y-67776704D02*
X89302157Y-67738609D01*
X89340252Y-67700514D01*
X89378347Y-67624323D01*
X89378347Y-67395752D01*
X89340252Y-67319561D01*
X89302157Y-67281466D01*
X89225966Y-67243371D01*
X89111680Y-67243371D01*
X89035490Y-67281466D01*
X88997395Y-67319561D01*
X88959300Y-67395752D01*
X88959300Y-67624323D01*
X88997395Y-67700514D01*
X89035490Y-67738609D01*
X89111680Y-67776704D01*
X89225966Y-67776704D01*
X88616442Y-67243371D02*
X88616442Y-68043371D01*
X88616442Y-67281466D02*
X88540252Y-67243371D01*
X88387871Y-67243371D01*
X88311680Y-67281466D01*
X88273585Y-67319561D01*
X88235490Y-67395752D01*
X88235490Y-67624323D01*
X88273585Y-67700514D01*
X88311680Y-67738609D01*
X88387871Y-67776704D01*
X88540252Y-67776704D01*
X88616442Y-67738609D01*
X87892633Y-67776704D02*
X87892633Y-66976704D01*
X87549776Y-67776704D02*
X87549776Y-67357657D01*
X87587871Y-67281466D01*
X87664061Y-67243371D01*
X87778347Y-67243371D01*
X87854538Y-67281466D01*
X87892633Y-67319561D01*
X87054538Y-67776704D02*
X87130728Y-67738609D01*
X87168823Y-67700514D01*
X87206919Y-67624323D01*
X87206919Y-67395752D01*
X87168823Y-67319561D01*
X87130728Y-67281466D01*
X87054538Y-67243371D01*
X86940252Y-67243371D01*
X86864061Y-67281466D01*
X86825966Y-67319561D01*
X86787871Y-67395752D01*
X86787871Y-67624323D01*
X86825966Y-67700514D01*
X86864061Y-67738609D01*
X86940252Y-67776704D01*
X87054538Y-67776704D01*
X86445014Y-67243371D02*
X86445014Y-67776704D01*
X86445014Y-67319561D02*
X86406919Y-67281466D01*
X86330728Y-67243371D01*
X86216442Y-67243371D01*
X86140252Y-67281466D01*
X86102157Y-67357657D01*
X86102157Y-67776704D01*
X85416442Y-67738609D02*
X85492633Y-67776704D01*
X85645014Y-67776704D01*
X85721204Y-67738609D01*
X85759300Y-67662419D01*
X85759300Y-67357657D01*
X85721204Y-67281466D01*
X85645014Y-67243371D01*
X85492633Y-67243371D01*
X85416442Y-67281466D01*
X85378347Y-67357657D01*
X85378347Y-67433847D01*
X85759300Y-67510038D01*
X91854538Y-69064704D02*
X91930728Y-69026609D01*
X91968823Y-68988514D01*
X92006919Y-68912323D01*
X92006919Y-68683752D01*
X91968823Y-68607561D01*
X91930728Y-68569466D01*
X91854538Y-68531371D01*
X91740252Y-68531371D01*
X91664061Y-68569466D01*
X91625966Y-68607561D01*
X91587871Y-68683752D01*
X91587871Y-68912323D01*
X91625966Y-68988514D01*
X91664061Y-69026609D01*
X91740252Y-69064704D01*
X91854538Y-69064704D01*
X91245014Y-68531371D02*
X91245014Y-69064704D01*
X91245014Y-68607561D02*
X91206919Y-68569466D01*
X91130728Y-68531371D01*
X91016442Y-68531371D01*
X90940252Y-68569466D01*
X90902157Y-68645657D01*
X90902157Y-69064704D01*
X100106795Y-52636200D02*
X100202033Y-52588580D01*
X100344890Y-52588580D01*
X100487747Y-52636200D01*
X100582985Y-52731438D01*
X100630604Y-52826676D01*
X100678223Y-53017152D01*
X100678223Y-53160009D01*
X100630604Y-53350485D01*
X100582985Y-53445723D01*
X100487747Y-53540961D01*
X100344890Y-53588580D01*
X100249652Y-53588580D01*
X100106795Y-53540961D01*
X100059176Y-53493342D01*
X100059176Y-53160009D01*
X100249652Y-53160009D01*
X88092214Y-64342971D02*
X87949357Y-64390590D01*
X87901738Y-64438209D01*
X87854119Y-64533447D01*
X87854119Y-64676304D01*
X87901738Y-64771542D01*
X87949357Y-64819161D01*
X88044595Y-64866780D01*
X88425547Y-64866780D01*
X88425547Y-63866780D01*
X88092214Y-63866780D01*
X87996976Y-63914400D01*
X87949357Y-63962019D01*
X87901738Y-64057257D01*
X87901738Y-64152495D01*
X87949357Y-64247733D01*
X87996976Y-64295352D01*
X88092214Y-64342971D01*
X88425547Y-64342971D01*
X87235071Y-63866780D02*
X87044595Y-63866780D01*
X86949357Y-63914400D01*
X86854119Y-64009638D01*
X86806500Y-64200114D01*
X86806500Y-64533447D01*
X86854119Y-64723923D01*
X86949357Y-64819161D01*
X87044595Y-64866780D01*
X87235071Y-64866780D01*
X87330309Y-64819161D01*
X87425547Y-64723923D01*
X87473166Y-64533447D01*
X87473166Y-64200114D01*
X87425547Y-64009638D01*
X87330309Y-63914400D01*
X87235071Y-63866780D01*
X86187452Y-63866780D02*
X85996976Y-63866780D01*
X85901738Y-63914400D01*
X85806500Y-64009638D01*
X85758880Y-64200114D01*
X85758880Y-64533447D01*
X85806500Y-64723923D01*
X85901738Y-64819161D01*
X85996976Y-64866780D01*
X86187452Y-64866780D01*
X86282690Y-64819161D01*
X86377928Y-64723923D01*
X86425547Y-64533447D01*
X86425547Y-64200114D01*
X86377928Y-64009638D01*
X86282690Y-63914400D01*
X86187452Y-63866780D01*
X85473166Y-63866780D02*
X84901738Y-63866780D01*
X85187452Y-64866780D02*
X85187452Y-63866780D01*
X107894233Y-74618895D02*
X107856138Y-74580800D01*
X107779947Y-74542704D01*
X107589471Y-74542704D01*
X107513280Y-74580800D01*
X107475185Y-74618895D01*
X107437090Y-74695085D01*
X107437090Y-74771276D01*
X107475185Y-74885561D01*
X107932328Y-75342704D01*
X107437090Y-75342704D01*
X106941852Y-74542704D02*
X106865661Y-74542704D01*
X106789471Y-74580800D01*
X106751376Y-74618895D01*
X106713280Y-74695085D01*
X106675185Y-74847466D01*
X106675185Y-75037942D01*
X106713280Y-75190323D01*
X106751376Y-75266514D01*
X106789471Y-75304609D01*
X106865661Y-75342704D01*
X106941852Y-75342704D01*
X107018042Y-75304609D01*
X107056138Y-75266514D01*
X107094233Y-75190323D01*
X107132328Y-75037942D01*
X107132328Y-74847466D01*
X107094233Y-74695085D01*
X107056138Y-74618895D01*
X107018042Y-74580800D01*
X106941852Y-74542704D01*
X106179947Y-74542704D02*
X106103757Y-74542704D01*
X106027566Y-74580800D01*
X105989471Y-74618895D01*
X105951376Y-74695085D01*
X105913280Y-74847466D01*
X105913280Y-75037942D01*
X105951376Y-75190323D01*
X105989471Y-75266514D01*
X106027566Y-75304609D01*
X106103757Y-75342704D01*
X106179947Y-75342704D01*
X106256138Y-75304609D01*
X106294233Y-75266514D01*
X106332328Y-75190323D01*
X106370423Y-75037942D01*
X106370423Y-74847466D01*
X106332328Y-74695085D01*
X106294233Y-74618895D01*
X106256138Y-74580800D01*
X106179947Y-74542704D01*
X105570423Y-75342704D02*
X105570423Y-74809371D01*
X105570423Y-74885561D02*
X105532328Y-74847466D01*
X105456138Y-74809371D01*
X105341852Y-74809371D01*
X105265661Y-74847466D01*
X105227566Y-74923657D01*
X105227566Y-75342704D01*
X105227566Y-74923657D02*
X105189471Y-74847466D01*
X105113280Y-74809371D01*
X104998995Y-74809371D01*
X104922804Y-74847466D01*
X104884709Y-74923657D01*
X104884709Y-75342704D01*
X104541852Y-75114133D02*
X104160900Y-75114133D01*
X104618042Y-75342704D02*
X104351376Y-74542704D01*
X104084709Y-75342704D01*
X103208519Y-75342704D02*
X103208519Y-74809371D01*
X103208519Y-74885561D02*
X103170423Y-74847466D01*
X103094233Y-74809371D01*
X102979947Y-74809371D01*
X102903757Y-74847466D01*
X102865661Y-74923657D01*
X102865661Y-75342704D01*
X102865661Y-74923657D02*
X102827566Y-74847466D01*
X102751376Y-74809371D01*
X102637090Y-74809371D01*
X102560900Y-74847466D01*
X102522804Y-74923657D01*
X102522804Y-75342704D01*
X101798995Y-75342704D02*
X101798995Y-74923657D01*
X101837090Y-74847466D01*
X101913280Y-74809371D01*
X102065661Y-74809371D01*
X102141852Y-74847466D01*
X101798995Y-75304609D02*
X101875185Y-75342704D01*
X102065661Y-75342704D01*
X102141852Y-75304609D01*
X102179947Y-75228419D01*
X102179947Y-75152228D01*
X102141852Y-75076038D01*
X102065661Y-75037942D01*
X101875185Y-75037942D01*
X101798995Y-74999847D01*
X101494233Y-75342704D02*
X101075185Y-74809371D01*
X101494233Y-74809371D02*
X101075185Y-75342704D01*
X107310090Y-59986351D02*
X107310090Y-58986351D01*
X106643423Y-58986351D02*
X106452947Y-58986351D01*
X106357709Y-59033971D01*
X106262471Y-59129209D01*
X106214852Y-59319685D01*
X106214852Y-59653018D01*
X106262471Y-59843494D01*
X106357709Y-59938732D01*
X106452947Y-59986351D01*
X106643423Y-59986351D01*
X106738661Y-59938732D01*
X106833900Y-59843494D01*
X106881519Y-59653018D01*
X106881519Y-59319685D01*
X106833900Y-59129209D01*
X106738661Y-59033971D01*
X106643423Y-58986351D01*
X105262471Y-59986351D02*
X105833900Y-59986351D01*
X105548185Y-59986351D02*
X105548185Y-58986351D01*
X105643423Y-59129209D01*
X105738661Y-59224447D01*
X105833900Y-59272066D01*
X104881519Y-59081590D02*
X104833900Y-59033971D01*
X104738661Y-58986351D01*
X104500566Y-58986351D01*
X104405328Y-59033971D01*
X104357709Y-59081590D01*
X104310090Y-59176828D01*
X104310090Y-59272066D01*
X104357709Y-59414923D01*
X104929138Y-59986351D01*
X104310090Y-59986351D01*
X103167233Y-58938732D02*
X104024376Y-60224447D01*
X102976757Y-58986351D02*
X102405328Y-58986351D01*
X102691042Y-59986351D02*
X102691042Y-58986351D01*
X102071995Y-59986351D02*
X102071995Y-58986351D01*
X101833900Y-58986351D01*
X101691042Y-59033971D01*
X101595804Y-59129209D01*
X101548185Y-59224447D01*
X101500566Y-59414923D01*
X101500566Y-59557780D01*
X101548185Y-59748256D01*
X101595804Y-59843494D01*
X101691042Y-59938732D01*
X101833900Y-59986351D01*
X102071995Y-59986351D01*
X101071995Y-59986351D02*
X101071995Y-58986351D01*
X107548185Y-73290180D02*
X106929138Y-73290180D01*
X107262471Y-73671133D01*
X107119614Y-73671133D01*
X107024376Y-73718752D01*
X106976757Y-73766371D01*
X106929138Y-73861609D01*
X106929138Y-74099704D01*
X106976757Y-74194942D01*
X107024376Y-74242561D01*
X107119614Y-74290180D01*
X107405328Y-74290180D01*
X107500566Y-74242561D01*
X107548185Y-74194942D01*
X106500566Y-74194942D02*
X106452947Y-74242561D01*
X106500566Y-74290180D01*
X106548185Y-74242561D01*
X106500566Y-74194942D01*
X106500566Y-74290180D01*
X106119614Y-73290180D02*
X105500566Y-73290180D01*
X105833900Y-73671133D01*
X105691042Y-73671133D01*
X105595804Y-73718752D01*
X105548185Y-73766371D01*
X105500566Y-73861609D01*
X105500566Y-74099704D01*
X105548185Y-74194942D01*
X105595804Y-74242561D01*
X105691042Y-74290180D01*
X105976757Y-74290180D01*
X106071995Y-74242561D01*
X106119614Y-74194942D01*
X105214852Y-73290180D02*
X104881519Y-74290180D01*
X104548185Y-73290180D01*
X103262471Y-73290180D02*
X103071995Y-73290180D01*
X102976757Y-73337800D01*
X102881519Y-73433038D01*
X102833900Y-73623514D01*
X102833900Y-73956847D01*
X102881519Y-74147323D01*
X102976757Y-74242561D01*
X103071995Y-74290180D01*
X103262471Y-74290180D01*
X103357709Y-74242561D01*
X103452947Y-74147323D01*
X103500566Y-73956847D01*
X103500566Y-73623514D01*
X103452947Y-73433038D01*
X103357709Y-73337800D01*
X103262471Y-73290180D01*
X102405328Y-73290180D02*
X102405328Y-74099704D01*
X102357709Y-74194942D01*
X102310090Y-74242561D01*
X102214852Y-74290180D01*
X102024376Y-74290180D01*
X101929138Y-74242561D01*
X101881519Y-74194942D01*
X101833900Y-74099704D01*
X101833900Y-73290180D01*
X101500566Y-73290180D02*
X100929138Y-73290180D01*
X101214852Y-74290180D02*
X101214852Y-73290180D01*
X110900595Y-49756800D02*
X110995833Y-49709180D01*
X111138690Y-49709180D01*
X111281547Y-49756800D01*
X111376785Y-49852038D01*
X111424404Y-49947276D01*
X111472023Y-50137752D01*
X111472023Y-50280609D01*
X111424404Y-50471085D01*
X111376785Y-50566323D01*
X111281547Y-50661561D01*
X111138690Y-50709180D01*
X111043452Y-50709180D01*
X110900595Y-50661561D01*
X110852976Y-50613942D01*
X110852976Y-50280609D01*
X111043452Y-50280609D01*
X110281547Y-50709180D02*
X110376785Y-50661561D01*
X110424404Y-50566323D01*
X110424404Y-49709180D01*
X109757738Y-50709180D02*
X109852976Y-50661561D01*
X109900595Y-50613942D01*
X109948214Y-50518704D01*
X109948214Y-50232990D01*
X109900595Y-50137752D01*
X109852976Y-50090133D01*
X109757738Y-50042514D01*
X109614880Y-50042514D01*
X109519642Y-50090133D01*
X109472023Y-50137752D01*
X109424404Y-50232990D01*
X109424404Y-50518704D01*
X109472023Y-50613942D01*
X109519642Y-50661561D01*
X109614880Y-50709180D01*
X109757738Y-50709180D01*
X109091071Y-50042514D02*
X108900595Y-50709180D01*
X108710119Y-50232990D01*
X108519642Y-50709180D01*
X108329166Y-50042514D01*
X107376785Y-50613942D02*
X107424404Y-50661561D01*
X107567261Y-50709180D01*
X107662500Y-50709180D01*
X107805357Y-50661561D01*
X107900595Y-50566323D01*
X107948214Y-50471085D01*
X107995833Y-50280609D01*
X107995833Y-50137752D01*
X107948214Y-49947276D01*
X107900595Y-49852038D01*
X107805357Y-49756800D01*
X107662500Y-49709180D01*
X107567261Y-49709180D01*
X107424404Y-49756800D01*
X107376785Y-49804419D01*
X106805357Y-50709180D02*
X106900595Y-50661561D01*
X106948214Y-50613942D01*
X106995833Y-50518704D01*
X106995833Y-50232990D01*
X106948214Y-50137752D01*
X106900595Y-50090133D01*
X106805357Y-50042514D01*
X106662500Y-50042514D01*
X106567261Y-50090133D01*
X106519642Y-50137752D01*
X106472023Y-50232990D01*
X106472023Y-50518704D01*
X106519642Y-50613942D01*
X106567261Y-50661561D01*
X106662500Y-50709180D01*
X106805357Y-50709180D01*
X106043452Y-50709180D02*
X106043452Y-50042514D01*
X106043452Y-50232990D02*
X105995833Y-50137752D01*
X105948214Y-50090133D01*
X105852976Y-50042514D01*
X105757738Y-50042514D01*
X105043452Y-50661561D02*
X105138690Y-50709180D01*
X105329166Y-50709180D01*
X105424404Y-50661561D01*
X105472023Y-50566323D01*
X105472023Y-50185371D01*
X105424404Y-50090133D01*
X105329166Y-50042514D01*
X105138690Y-50042514D01*
X105043452Y-50090133D01*
X104995833Y-50185371D01*
X104995833Y-50280609D01*
X105472023Y-50375847D01*
X111424404Y-52319180D02*
X111424404Y-51319180D01*
X111091071Y-52033466D01*
X110757738Y-51319180D01*
X110757738Y-52319180D01*
X110281547Y-52319180D02*
X110281547Y-51652514D01*
X110281547Y-51319180D02*
X110329166Y-51366800D01*
X110281547Y-51414419D01*
X110233928Y-51366800D01*
X110281547Y-51319180D01*
X110281547Y-51414419D01*
X109805357Y-51652514D02*
X109805357Y-52319180D01*
X109805357Y-51747752D02*
X109757738Y-51700133D01*
X109662500Y-51652514D01*
X109519642Y-51652514D01*
X109424404Y-51700133D01*
X109376785Y-51795371D01*
X109376785Y-52319180D01*
X108900595Y-52319180D02*
X108900595Y-51652514D01*
X108900595Y-51319180D02*
X108948214Y-51366800D01*
X108900595Y-51414419D01*
X108852976Y-51366800D01*
X108900595Y-51319180D01*
X108900595Y-51414419D01*
X111519642Y-53262514D02*
X111281547Y-53929180D01*
X111043452Y-53262514D01*
X110710119Y-53024419D02*
X110662500Y-52976800D01*
X110567261Y-52929180D01*
X110329166Y-52929180D01*
X110233928Y-52976800D01*
X110186309Y-53024419D01*
X110138690Y-53119657D01*
X110138690Y-53214895D01*
X110186309Y-53357752D01*
X110757738Y-53929180D01*
X110138690Y-53929180D01*
X109710119Y-53833942D02*
X109662500Y-53881561D01*
X109710119Y-53929180D01*
X109757738Y-53881561D01*
X109710119Y-53833942D01*
X109710119Y-53929180D01*
X109043452Y-52929180D02*
X108948214Y-52929180D01*
X108852976Y-52976800D01*
X108805357Y-53024419D01*
X108757738Y-53119657D01*
X108710119Y-53310133D01*
X108710119Y-53548228D01*
X108757738Y-53738704D01*
X108805357Y-53833942D01*
X108852976Y-53881561D01*
X108948214Y-53929180D01*
X109043452Y-53929180D01*
X109138690Y-53881561D01*
X109186309Y-53833942D01*
X109233928Y-53738704D01*
X109281547Y-53548228D01*
X109281547Y-53310133D01*
X109233928Y-53119657D01*
X109186309Y-53024419D01*
X109138690Y-52976800D01*
X109043452Y-52929180D01*
X93978938Y-52538380D02*
X94455128Y-52538380D01*
X94502747Y-53014571D01*
X94455128Y-52966952D01*
X94359890Y-52919333D01*
X94121795Y-52919333D01*
X94026557Y-52966952D01*
X93978938Y-53014571D01*
X93931319Y-53109809D01*
X93931319Y-53347904D01*
X93978938Y-53443142D01*
X94026557Y-53490761D01*
X94121795Y-53538380D01*
X94359890Y-53538380D01*
X94455128Y-53490761D01*
X94502747Y-53443142D01*
X93645604Y-52538380D02*
X93312271Y-53538380D01*
X92978938Y-52538380D01*
X103119614Y-79840200D02*
X103214852Y-79792580D01*
X103357709Y-79792580D01*
X103500566Y-79840200D01*
X103595804Y-79935438D01*
X103643423Y-80030676D01*
X103691042Y-80221152D01*
X103691042Y-80364009D01*
X103643423Y-80554485D01*
X103595804Y-80649723D01*
X103500566Y-80744961D01*
X103357709Y-80792580D01*
X103262471Y-80792580D01*
X103119614Y-80744961D01*
X103071995Y-80697342D01*
X103071995Y-80364009D01*
X103262471Y-80364009D01*
X102643423Y-80792580D02*
X102643423Y-79792580D01*
X102071995Y-80792580D01*
X102071995Y-79792580D01*
X101595804Y-80792580D02*
X101595804Y-79792580D01*
X101357709Y-79792580D01*
X101214852Y-79840200D01*
X101119614Y-79935438D01*
X101071995Y-80030676D01*
X101024376Y-80221152D01*
X101024376Y-80364009D01*
X101071995Y-80554485D01*
X101119614Y-80649723D01*
X101214852Y-80744961D01*
X101357709Y-80792580D01*
X101595804Y-80792580D01*
X111929138Y-65933580D02*
X111929138Y-64933580D01*
X111262471Y-64933580D02*
X111071995Y-64933580D01*
X110976757Y-64981200D01*
X110881519Y-65076438D01*
X110833900Y-65266914D01*
X110833900Y-65600247D01*
X110881519Y-65790723D01*
X110976757Y-65885961D01*
X111071995Y-65933580D01*
X111262471Y-65933580D01*
X111357709Y-65885961D01*
X111452947Y-65790723D01*
X111500566Y-65600247D01*
X111500566Y-65266914D01*
X111452947Y-65076438D01*
X111357709Y-64981200D01*
X111262471Y-64933580D01*
X109881519Y-65933580D02*
X110452947Y-65933580D01*
X110167233Y-65933580D02*
X110167233Y-64933580D01*
X110262471Y-65076438D01*
X110357709Y-65171676D01*
X110452947Y-65219295D01*
X109024376Y-65266914D02*
X109024376Y-65933580D01*
X109262471Y-64885961D02*
X109500566Y-65600247D01*
X108881519Y-65600247D01*
X107786280Y-64885961D02*
X108643423Y-66171676D01*
X107500566Y-65885961D02*
X107357709Y-65933580D01*
X107119614Y-65933580D01*
X107024376Y-65885961D01*
X106976757Y-65838342D01*
X106929138Y-65743104D01*
X106929138Y-65647866D01*
X106976757Y-65552628D01*
X107024376Y-65505009D01*
X107119614Y-65457390D01*
X107310090Y-65409771D01*
X107405328Y-65362152D01*
X107452947Y-65314533D01*
X107500566Y-65219295D01*
X107500566Y-65124057D01*
X107452947Y-65028819D01*
X107405328Y-64981200D01*
X107310090Y-64933580D01*
X107071995Y-64933580D01*
X106929138Y-64981200D01*
X105929138Y-65838342D02*
X105976757Y-65885961D01*
X106119614Y-65933580D01*
X106214852Y-65933580D01*
X106357709Y-65885961D01*
X106452947Y-65790723D01*
X106500566Y-65695485D01*
X106548185Y-65505009D01*
X106548185Y-65362152D01*
X106500566Y-65171676D01*
X106452947Y-65076438D01*
X106357709Y-64981200D01*
X106214852Y-64933580D01*
X106119614Y-64933580D01*
X105976757Y-64981200D01*
X105929138Y-65028819D01*
X105500566Y-65933580D02*
X105500566Y-64933580D01*
X104929138Y-65933580D02*
X105357709Y-65362152D01*
X104929138Y-64933580D02*
X105500566Y-65505009D01*
X103786280Y-64885961D02*
X104643423Y-66171676D01*
X103595804Y-64933580D02*
X103024376Y-64933580D01*
X103310090Y-65933580D02*
X103310090Y-64933580D01*
X102691042Y-65933580D02*
X102691042Y-64933580D01*
X102357709Y-65647866D01*
X102024376Y-64933580D01*
X102024376Y-65933580D01*
X101595804Y-65885961D02*
X101452947Y-65933580D01*
X101214852Y-65933580D01*
X101119614Y-65885961D01*
X101071995Y-65838342D01*
X101024376Y-65743104D01*
X101024376Y-65647866D01*
X101071995Y-65552628D01*
X101119614Y-65505009D01*
X101214852Y-65457390D01*
X101405328Y-65409771D01*
X101500566Y-65362152D01*
X101548185Y-65314533D01*
X101595804Y-65219295D01*
X101595804Y-65124057D01*
X101548185Y-65028819D01*
X101500566Y-64981200D01*
X101405328Y-64933580D01*
X101167233Y-64933580D01*
X101024376Y-64981200D01*
X89641423Y-57783361D02*
X89498566Y-57830980D01*
X89260471Y-57830980D01*
X89165233Y-57783361D01*
X89117614Y-57735742D01*
X89069995Y-57640504D01*
X89069995Y-57545266D01*
X89117614Y-57450028D01*
X89165233Y-57402409D01*
X89260471Y-57354790D01*
X89450947Y-57307171D01*
X89546185Y-57259552D01*
X89593804Y-57211933D01*
X89641423Y-57116695D01*
X89641423Y-57021457D01*
X89593804Y-56926219D01*
X89546185Y-56878600D01*
X89450947Y-56830980D01*
X89212852Y-56830980D01*
X89069995Y-56878600D01*
X88641423Y-57307171D02*
X88308090Y-57307171D01*
X88165233Y-57830980D02*
X88641423Y-57830980D01*
X88641423Y-56830980D01*
X88165233Y-56830980D01*
X87165233Y-57830980D02*
X87498566Y-57354790D01*
X87736661Y-57830980D02*
X87736661Y-56830980D01*
X87355709Y-56830980D01*
X87260471Y-56878600D01*
X87212852Y-56926219D01*
X87165233Y-57021457D01*
X87165233Y-57164314D01*
X87212852Y-57259552D01*
X87260471Y-57307171D01*
X87355709Y-57354790D01*
X87736661Y-57354790D01*
X86736661Y-57830980D02*
X86736661Y-56830980D01*
X86308090Y-57545266D02*
X85831900Y-57545266D01*
X86403328Y-57830980D02*
X86069995Y-56830980D01*
X85736661Y-57830980D01*
X84927138Y-57830980D02*
X85403328Y-57830980D01*
X85403328Y-56830980D01*
X111024376Y-68930780D02*
X111024376Y-67930780D01*
X110357709Y-67930780D02*
X110167233Y-67930780D01*
X110071995Y-67978400D01*
X109976757Y-68073638D01*
X109929138Y-68264114D01*
X109929138Y-68597447D01*
X109976757Y-68787923D01*
X110071995Y-68883161D01*
X110167233Y-68930780D01*
X110357709Y-68930780D01*
X110452947Y-68883161D01*
X110548185Y-68787923D01*
X110595804Y-68597447D01*
X110595804Y-68264114D01*
X110548185Y-68073638D01*
X110452947Y-67978400D01*
X110357709Y-67930780D01*
X108976757Y-68930780D02*
X109548185Y-68930780D01*
X109262471Y-68930780D02*
X109262471Y-67930780D01*
X109357709Y-68073638D01*
X109452947Y-68168876D01*
X109548185Y-68216495D01*
X108071995Y-67930780D02*
X108548185Y-67930780D01*
X108595804Y-68406971D01*
X108548185Y-68359352D01*
X108452947Y-68311733D01*
X108214852Y-68311733D01*
X108119614Y-68359352D01*
X108071995Y-68406971D01*
X108024376Y-68502209D01*
X108024376Y-68740304D01*
X108071995Y-68835542D01*
X108119614Y-68883161D01*
X108214852Y-68930780D01*
X108452947Y-68930780D01*
X108548185Y-68883161D01*
X108595804Y-68835542D01*
X106881519Y-67883161D02*
X107738661Y-69168876D01*
X106643423Y-67930780D02*
X106405328Y-68930780D01*
X106214852Y-68216495D01*
X106024376Y-68930780D01*
X105786280Y-67930780D01*
X105452947Y-68883161D02*
X105310090Y-68930780D01*
X105071995Y-68930780D01*
X104976757Y-68883161D01*
X104929138Y-68835542D01*
X104881519Y-68740304D01*
X104881519Y-68645066D01*
X104929138Y-68549828D01*
X104976757Y-68502209D01*
X105071995Y-68454590D01*
X105262471Y-68406971D01*
X105357709Y-68359352D01*
X105405328Y-68311733D01*
X105452947Y-68216495D01*
X105452947Y-68121257D01*
X105405328Y-68026019D01*
X105357709Y-67978400D01*
X105262471Y-67930780D01*
X105024376Y-67930780D01*
X104881519Y-67978400D01*
X103738661Y-67883161D02*
X104595804Y-69168876D01*
X103548185Y-67930780D02*
X102976757Y-67930780D01*
X103262471Y-68930780D02*
X103262471Y-67930780D01*
X102643423Y-68930780D02*
X102643423Y-67930780D01*
X102405328Y-67930780D01*
X102262471Y-67978400D01*
X102167233Y-68073638D01*
X102119614Y-68168876D01*
X102071995Y-68359352D01*
X102071995Y-68502209D01*
X102119614Y-68692685D01*
X102167233Y-68787923D01*
X102262471Y-68883161D01*
X102405328Y-68930780D01*
X102643423Y-68930780D01*
X101452947Y-67930780D02*
X101262471Y-67930780D01*
X101167233Y-67978400D01*
X101071995Y-68073638D01*
X101024376Y-68264114D01*
X101024376Y-68597447D01*
X101071995Y-68787923D01*
X101167233Y-68883161D01*
X101262471Y-68930780D01*
X101452947Y-68930780D01*
X101548185Y-68883161D01*
X101643423Y-68787923D01*
X101691042Y-68597447D01*
X101691042Y-68264114D01*
X101643423Y-68073638D01*
X101548185Y-67978400D01*
X101452947Y-67930780D01*
X94348228Y-54239095D02*
X94310133Y-54201000D01*
X94233942Y-54162904D01*
X94043466Y-54162904D01*
X93967276Y-54201000D01*
X93929180Y-54239095D01*
X93891085Y-54315285D01*
X93891085Y-54391476D01*
X93929180Y-54505761D01*
X94386323Y-54962904D01*
X93891085Y-54962904D01*
X93586323Y-54734333D02*
X93205371Y-54734333D01*
X93662514Y-54962904D02*
X93395847Y-54162904D01*
X93129180Y-54962904D01*
X94805371Y-56250904D02*
X94805371Y-55717571D01*
X94805371Y-55793761D02*
X94767276Y-55755666D01*
X94691085Y-55717571D01*
X94576800Y-55717571D01*
X94500609Y-55755666D01*
X94462514Y-55831857D01*
X94462514Y-56250904D01*
X94462514Y-55831857D02*
X94424419Y-55755666D01*
X94348228Y-55717571D01*
X94233942Y-55717571D01*
X94157752Y-55755666D01*
X94119657Y-55831857D01*
X94119657Y-56250904D01*
X93395847Y-56250904D02*
X93395847Y-55831857D01*
X93433942Y-55755666D01*
X93510133Y-55717571D01*
X93662514Y-55717571D01*
X93738704Y-55755666D01*
X93395847Y-56212809D02*
X93472038Y-56250904D01*
X93662514Y-56250904D01*
X93738704Y-56212809D01*
X93776800Y-56136619D01*
X93776800Y-56060428D01*
X93738704Y-55984238D01*
X93662514Y-55946142D01*
X93472038Y-55946142D01*
X93395847Y-55908047D01*
X93091085Y-56250904D02*
X92672038Y-55717571D01*
X93091085Y-55717571D02*
X92672038Y-56250904D01*
X87396004Y-82959380D02*
X87396004Y-81959380D01*
X86729338Y-81959380D02*
X86538861Y-81959380D01*
X86443623Y-82007000D01*
X86348385Y-82102238D01*
X86300766Y-82292714D01*
X86300766Y-82626047D01*
X86348385Y-82816523D01*
X86443623Y-82911761D01*
X86538861Y-82959380D01*
X86729338Y-82959380D01*
X86824576Y-82911761D01*
X86919814Y-82816523D01*
X86967433Y-82626047D01*
X86967433Y-82292714D01*
X86919814Y-82102238D01*
X86824576Y-82007000D01*
X86729338Y-81959380D01*
X85967433Y-81959380D02*
X85348385Y-81959380D01*
X85681719Y-82340333D01*
X85538861Y-82340333D01*
X85443623Y-82387952D01*
X85396004Y-82435571D01*
X85348385Y-82530809D01*
X85348385Y-82768904D01*
X85396004Y-82864142D01*
X85443623Y-82911761D01*
X85538861Y-82959380D01*
X85824576Y-82959380D01*
X85919814Y-82911761D01*
X85967433Y-82864142D01*
X85015052Y-81959380D02*
X84396004Y-81959380D01*
X84729338Y-82340333D01*
X84586480Y-82340333D01*
X84491242Y-82387952D01*
X84443623Y-82435571D01*
X84396004Y-82530809D01*
X84396004Y-82768904D01*
X84443623Y-82864142D01*
X84491242Y-82911761D01*
X84586480Y-82959380D01*
X84872195Y-82959380D01*
X84967433Y-82911761D01*
X85015052Y-82864142D01*
X83253147Y-81911761D02*
X84110290Y-83197476D01*
X87062671Y-84045571D02*
X86919814Y-84093190D01*
X86872195Y-84140809D01*
X86824576Y-84236047D01*
X86824576Y-84378904D01*
X86872195Y-84474142D01*
X86919814Y-84521761D01*
X87015052Y-84569380D01*
X87396004Y-84569380D01*
X87396004Y-83569380D01*
X87062671Y-83569380D01*
X86967433Y-83617000D01*
X86919814Y-83664619D01*
X86872195Y-83759857D01*
X86872195Y-83855095D01*
X86919814Y-83950333D01*
X86967433Y-83997952D01*
X87062671Y-84045571D01*
X87396004Y-84045571D01*
X85872195Y-84569380D02*
X86443623Y-84569380D01*
X86157909Y-84569380D02*
X86157909Y-83569380D01*
X86253147Y-83712238D01*
X86348385Y-83807476D01*
X86443623Y-83855095D01*
X92006919Y-60448809D02*
X91892633Y-60486904D01*
X91702157Y-60486904D01*
X91625966Y-60448809D01*
X91587871Y-60410714D01*
X91549776Y-60334523D01*
X91549776Y-60258333D01*
X91587871Y-60182142D01*
X91625966Y-60144047D01*
X91702157Y-60105952D01*
X91854538Y-60067857D01*
X91930728Y-60029761D01*
X91968823Y-59991666D01*
X92006919Y-59915476D01*
X92006919Y-59839285D01*
X91968823Y-59763095D01*
X91930728Y-59725000D01*
X91854538Y-59686904D01*
X91664061Y-59686904D01*
X91549776Y-59725000D01*
X90902157Y-60448809D02*
X90978347Y-60486904D01*
X91130728Y-60486904D01*
X91206919Y-60448809D01*
X91245014Y-60372619D01*
X91245014Y-60067857D01*
X91206919Y-59991666D01*
X91130728Y-59953571D01*
X90978347Y-59953571D01*
X90902157Y-59991666D01*
X90864061Y-60067857D01*
X90864061Y-60144047D01*
X91245014Y-60220238D01*
X90521204Y-60486904D02*
X90521204Y-59953571D01*
X90521204Y-60105952D02*
X90483109Y-60029761D01*
X90445014Y-59991666D01*
X90368823Y-59953571D01*
X90292633Y-59953571D01*
X90025966Y-60486904D02*
X90025966Y-59953571D01*
X90025966Y-59686904D02*
X90064061Y-59725000D01*
X90025966Y-59763095D01*
X89987871Y-59725000D01*
X90025966Y-59686904D01*
X90025966Y-59763095D01*
X89302157Y-60486904D02*
X89302157Y-60067857D01*
X89340252Y-59991666D01*
X89416442Y-59953571D01*
X89568823Y-59953571D01*
X89645014Y-59991666D01*
X89302157Y-60448809D02*
X89378347Y-60486904D01*
X89568823Y-60486904D01*
X89645014Y-60448809D01*
X89683109Y-60372619D01*
X89683109Y-60296428D01*
X89645014Y-60220238D01*
X89568823Y-60182142D01*
X89378347Y-60182142D01*
X89302157Y-60144047D01*
X88806919Y-60486904D02*
X88883109Y-60448809D01*
X88921204Y-60372619D01*
X88921204Y-59686904D01*
X91625966Y-61774904D02*
X91625966Y-61355857D01*
X91664061Y-61279666D01*
X91740252Y-61241571D01*
X91892633Y-61241571D01*
X91968823Y-61279666D01*
X91625966Y-61736809D02*
X91702157Y-61774904D01*
X91892633Y-61774904D01*
X91968823Y-61736809D01*
X92006919Y-61660619D01*
X92006919Y-61584428D01*
X91968823Y-61508238D01*
X91892633Y-61470142D01*
X91702157Y-61470142D01*
X91625966Y-61432047D01*
X91130728Y-61774904D02*
X91206919Y-61736809D01*
X91245014Y-61660619D01*
X91245014Y-60974904D01*
X90902157Y-61241571D02*
X90749776Y-61774904D01*
X90597395Y-61393952D01*
X90445014Y-61774904D01*
X90292633Y-61241571D01*
X89645014Y-61774904D02*
X89645014Y-61355857D01*
X89683109Y-61279666D01*
X89759300Y-61241571D01*
X89911680Y-61241571D01*
X89987871Y-61279666D01*
X89645014Y-61736809D02*
X89721204Y-61774904D01*
X89911680Y-61774904D01*
X89987871Y-61736809D01*
X90025966Y-61660619D01*
X90025966Y-61584428D01*
X89987871Y-61508238D01*
X89911680Y-61470142D01*
X89721204Y-61470142D01*
X89645014Y-61432047D01*
X89340252Y-61241571D02*
X89149776Y-61774904D01*
X88959300Y-61241571D02*
X89149776Y-61774904D01*
X89225966Y-61965380D01*
X89264061Y-62003476D01*
X89340252Y-62041571D01*
X88692633Y-61736809D02*
X88616442Y-61774904D01*
X88464061Y-61774904D01*
X88387871Y-61736809D01*
X88349776Y-61660619D01*
X88349776Y-61622523D01*
X88387871Y-61546333D01*
X88464061Y-61508238D01*
X88578347Y-61508238D01*
X88654538Y-61470142D01*
X88692633Y-61393952D01*
X88692633Y-61355857D01*
X88654538Y-61279666D01*
X88578347Y-61241571D01*
X88464061Y-61241571D01*
X88387871Y-61279666D01*
X87283109Y-61774904D02*
X87359300Y-61736809D01*
X87397395Y-61698714D01*
X87435490Y-61622523D01*
X87435490Y-61393952D01*
X87397395Y-61317761D01*
X87359300Y-61279666D01*
X87283109Y-61241571D01*
X87168823Y-61241571D01*
X87092633Y-61279666D01*
X87054538Y-61317761D01*
X87016442Y-61393952D01*
X87016442Y-61622523D01*
X87054538Y-61698714D01*
X87092633Y-61736809D01*
X87168823Y-61774904D01*
X87283109Y-61774904D01*
X86673585Y-61241571D02*
X86673585Y-61774904D01*
X86673585Y-61317761D02*
X86635490Y-61279666D01*
X86559300Y-61241571D01*
X86445014Y-61241571D01*
X86368823Y-61279666D01*
X86330728Y-61355857D01*
X86330728Y-61774904D01*
X104049776Y-57119780D02*
X104049776Y-56119780D01*
X103383109Y-56119780D02*
X103192633Y-56119780D01*
X103097395Y-56167400D01*
X103002157Y-56262638D01*
X102954538Y-56453114D01*
X102954538Y-56786447D01*
X103002157Y-56976923D01*
X103097395Y-57072161D01*
X103192633Y-57119780D01*
X103383109Y-57119780D01*
X103478347Y-57072161D01*
X103573585Y-56976923D01*
X103621204Y-56786447D01*
X103621204Y-56453114D01*
X103573585Y-56262638D01*
X103478347Y-56167400D01*
X103383109Y-56119780D01*
X102573585Y-56215019D02*
X102525966Y-56167400D01*
X102430728Y-56119780D01*
X102192633Y-56119780D01*
X102097395Y-56167400D01*
X102049776Y-56215019D01*
X102002157Y-56310257D01*
X102002157Y-56405495D01*
X102049776Y-56548352D01*
X102621204Y-57119780D01*
X102002157Y-57119780D01*
X101145014Y-56119780D02*
X101335490Y-56119780D01*
X101430728Y-56167400D01*
X101478347Y-56215019D01*
X101573585Y-56357876D01*
X101621204Y-56548352D01*
X101621204Y-56929304D01*
X101573585Y-57024542D01*
X101525966Y-57072161D01*
X101430728Y-57119780D01*
X101240252Y-57119780D01*
X101145014Y-57072161D01*
X101097395Y-57024542D01*
X101049776Y-56929304D01*
X101049776Y-56691209D01*
X101097395Y-56595971D01*
X101145014Y-56548352D01*
X101240252Y-56500733D01*
X101430728Y-56500733D01*
X101525966Y-56548352D01*
X101573585Y-56595971D01*
X101621204Y-56691209D01*
X91730776Y-53614580D02*
X91730776Y-52614580D01*
X91064109Y-52614580D02*
X90873633Y-52614580D01*
X90778395Y-52662200D01*
X90683157Y-52757438D01*
X90635538Y-52947914D01*
X90635538Y-53281247D01*
X90683157Y-53471723D01*
X90778395Y-53566961D01*
X90873633Y-53614580D01*
X91064109Y-53614580D01*
X91159347Y-53566961D01*
X91254585Y-53471723D01*
X91302204Y-53281247D01*
X91302204Y-52947914D01*
X91254585Y-52757438D01*
X91159347Y-52662200D01*
X91064109Y-52614580D01*
X90254585Y-52709819D02*
X90206966Y-52662200D01*
X90111728Y-52614580D01*
X89873633Y-52614580D01*
X89778395Y-52662200D01*
X89730776Y-52709819D01*
X89683157Y-52805057D01*
X89683157Y-52900295D01*
X89730776Y-53043152D01*
X90302204Y-53614580D01*
X89683157Y-53614580D01*
X89349823Y-52614580D02*
X88683157Y-52614580D01*
X89111728Y-53614580D01*
X88495385Y-71673980D02*
X88828719Y-71197790D01*
X89066814Y-71673980D02*
X89066814Y-70673980D01*
X88685861Y-70673980D01*
X88590623Y-70721600D01*
X88543004Y-70769219D01*
X88495385Y-70864457D01*
X88495385Y-71007314D01*
X88543004Y-71102552D01*
X88590623Y-71150171D01*
X88685861Y-71197790D01*
X89066814Y-71197790D01*
X88066814Y-71150171D02*
X87733480Y-71150171D01*
X87590623Y-71673980D02*
X88066814Y-71673980D01*
X88066814Y-70673980D01*
X87590623Y-70673980D01*
X87209671Y-71626361D02*
X87066814Y-71673980D01*
X86828719Y-71673980D01*
X86733480Y-71626361D01*
X86685861Y-71578742D01*
X86638242Y-71483504D01*
X86638242Y-71388266D01*
X86685861Y-71293028D01*
X86733480Y-71245409D01*
X86828719Y-71197790D01*
X87019195Y-71150171D01*
X87114433Y-71102552D01*
X87162052Y-71054933D01*
X87209671Y-70959695D01*
X87209671Y-70864457D01*
X87162052Y-70769219D01*
X87114433Y-70721600D01*
X87019195Y-70673980D01*
X86781100Y-70673980D01*
X86638242Y-70721600D01*
X86209671Y-71150171D02*
X85876338Y-71150171D01*
X85733480Y-71673980D02*
X86209671Y-71673980D01*
X86209671Y-70673980D01*
X85733480Y-70673980D01*
X85447766Y-70673980D02*
X84876338Y-70673980D01*
X85162052Y-71673980D02*
X85162052Y-70673980D01*
X105274414Y-77743104D02*
X104779176Y-77743104D01*
X105045842Y-78047866D01*
X104931557Y-78047866D01*
X104855366Y-78085961D01*
X104817271Y-78124057D01*
X104779176Y-78200247D01*
X104779176Y-78390723D01*
X104817271Y-78466914D01*
X104855366Y-78505009D01*
X104931557Y-78543104D01*
X105160128Y-78543104D01*
X105236319Y-78505009D01*
X105274414Y-78466914D01*
X104474414Y-78314533D02*
X104093461Y-78314533D01*
X104550604Y-78543104D02*
X104283938Y-77743104D01*
X104017271Y-78543104D01*
X103141080Y-78543104D02*
X103141080Y-78009771D01*
X103141080Y-78085961D02*
X103102985Y-78047866D01*
X103026795Y-78009771D01*
X102912509Y-78009771D01*
X102836319Y-78047866D01*
X102798223Y-78124057D01*
X102798223Y-78543104D01*
X102798223Y-78124057D02*
X102760128Y-78047866D01*
X102683938Y-78009771D01*
X102569652Y-78009771D01*
X102493461Y-78047866D01*
X102455366Y-78124057D01*
X102455366Y-78543104D01*
X101731557Y-78543104D02*
X101731557Y-78124057D01*
X101769652Y-78047866D01*
X101845842Y-78009771D01*
X101998223Y-78009771D01*
X102074414Y-78047866D01*
X101731557Y-78505009D02*
X101807747Y-78543104D01*
X101998223Y-78543104D01*
X102074414Y-78505009D01*
X102112509Y-78428819D01*
X102112509Y-78352628D01*
X102074414Y-78276438D01*
X101998223Y-78238342D01*
X101807747Y-78238342D01*
X101731557Y-78200247D01*
X101426795Y-78543104D02*
X101007747Y-78009771D01*
X101426795Y-78009771D02*
X101007747Y-78543104D01*
X99078414Y-85343542D02*
X99078414Y-84443542D01*
X98692700Y-85343542D02*
X98692700Y-84872114D01*
X98735557Y-84786400D01*
X98821271Y-84743542D01*
X98949842Y-84743542D01*
X99035557Y-84786400D01*
X99078414Y-84829257D01*
X98392700Y-84743542D02*
X98049842Y-84743542D01*
X98264128Y-84443542D02*
X98264128Y-85214971D01*
X98221271Y-85300685D01*
X98135557Y-85343542D01*
X98049842Y-85343542D01*
X97878414Y-84743542D02*
X97535557Y-84743542D01*
X97749842Y-84443542D02*
X97749842Y-85214971D01*
X97706985Y-85300685D01*
X97621271Y-85343542D01*
X97535557Y-85343542D01*
X97235557Y-84743542D02*
X97235557Y-85643542D01*
X97235557Y-84786400D02*
X97149842Y-84743542D01*
X96978414Y-84743542D01*
X96892700Y-84786400D01*
X96849842Y-84829257D01*
X96806985Y-84914971D01*
X96806985Y-85172114D01*
X96849842Y-85257828D01*
X96892700Y-85300685D01*
X96978414Y-85343542D01*
X97149842Y-85343542D01*
X97235557Y-85300685D01*
X96464128Y-85300685D02*
X96378414Y-85343542D01*
X96206985Y-85343542D01*
X96121271Y-85300685D01*
X96078414Y-85214971D01*
X96078414Y-85172114D01*
X96121271Y-85086400D01*
X96206985Y-85043542D01*
X96335557Y-85043542D01*
X96421271Y-85000685D01*
X96464128Y-84914971D01*
X96464128Y-84872114D01*
X96421271Y-84786400D01*
X96335557Y-84743542D01*
X96206985Y-84743542D01*
X96121271Y-84786400D01*
X95692700Y-85257828D02*
X95649842Y-85300685D01*
X95692700Y-85343542D01*
X95735557Y-85300685D01*
X95692700Y-85257828D01*
X95692700Y-85343542D01*
X95692700Y-84786400D02*
X95649842Y-84829257D01*
X95692700Y-84872114D01*
X95735557Y-84829257D01*
X95692700Y-84786400D01*
X95692700Y-84872114D01*
X94621271Y-84400685D02*
X95392700Y-85557828D01*
X93678414Y-84400685D02*
X94449842Y-85557828D01*
X99078414Y-86792542D02*
X99078414Y-85892542D01*
X99078414Y-86235400D02*
X98992700Y-86192542D01*
X98821271Y-86192542D01*
X98735557Y-86235400D01*
X98692700Y-86278257D01*
X98649842Y-86363971D01*
X98649842Y-86621114D01*
X98692700Y-86706828D01*
X98735557Y-86749685D01*
X98821271Y-86792542D01*
X98992700Y-86792542D01*
X99078414Y-86749685D01*
X98264128Y-86792542D02*
X98264128Y-86192542D01*
X98264128Y-85892542D02*
X98306985Y-85935400D01*
X98264128Y-85978257D01*
X98221271Y-85935400D01*
X98264128Y-85892542D01*
X98264128Y-85978257D01*
X97964128Y-86192542D02*
X97621271Y-86192542D01*
X97835557Y-85892542D02*
X97835557Y-86663971D01*
X97792700Y-86749685D01*
X97706985Y-86792542D01*
X97621271Y-86792542D01*
X97321271Y-86706828D02*
X97278414Y-86749685D01*
X97321271Y-86792542D01*
X97364128Y-86749685D01*
X97321271Y-86706828D01*
X97321271Y-86792542D01*
X96764128Y-86792542D02*
X96849842Y-86749685D01*
X96892700Y-86663971D01*
X96892700Y-85892542D01*
X96506985Y-86192542D02*
X96292700Y-86792542D01*
X96078414Y-86192542D02*
X96292700Y-86792542D01*
X96378414Y-87006828D01*
X96421271Y-87049685D01*
X96506985Y-87092542D01*
X95092700Y-85849685D02*
X95864128Y-87006828D01*
X99164128Y-87341542D02*
X98606985Y-87341542D01*
X98906985Y-87684400D01*
X98778414Y-87684400D01*
X98692700Y-87727257D01*
X98649842Y-87770114D01*
X98606985Y-87855828D01*
X98606985Y-88070114D01*
X98649842Y-88155828D01*
X98692700Y-88198685D01*
X98778414Y-88241542D01*
X99035557Y-88241542D01*
X99121271Y-88198685D01*
X99164128Y-88155828D01*
X97749842Y-87384400D02*
X97835557Y-87341542D01*
X97964128Y-87341542D01*
X98092700Y-87384400D01*
X98178414Y-87470114D01*
X98221271Y-87555828D01*
X98264128Y-87727257D01*
X98264128Y-87855828D01*
X98221271Y-88027257D01*
X98178414Y-88112971D01*
X98092700Y-88198685D01*
X97964128Y-88241542D01*
X97878414Y-88241542D01*
X97749842Y-88198685D01*
X97706985Y-88155828D01*
X97706985Y-87855828D01*
X97878414Y-87855828D01*
X97321271Y-87641542D02*
X97321271Y-88241542D01*
X97321271Y-87727257D02*
X97278414Y-87684400D01*
X97192700Y-87641542D01*
X97064128Y-87641542D01*
X96978414Y-87684400D01*
X96935557Y-87770114D01*
X96935557Y-88241542D01*
X96506985Y-88241542D02*
X96506985Y-87341542D01*
X96506985Y-87684400D02*
X96421271Y-87641542D01*
X96249842Y-87641542D01*
X96164128Y-87684400D01*
X96121271Y-87727257D01*
X96078414Y-87812971D01*
X96078414Y-88070114D01*
X96121271Y-88155828D01*
X96164128Y-88198685D01*
X96249842Y-88241542D01*
X96421271Y-88241542D01*
X96506985Y-88198685D01*
X95692700Y-88241542D02*
X95692700Y-87341542D01*
X95264128Y-88241542D02*
X95264128Y-87341542D01*
X95178414Y-87898685D02*
X94921271Y-88241542D01*
X94921271Y-87641542D02*
X95264128Y-87984400D01*
X94149842Y-87641542D02*
X94149842Y-88370114D01*
X94192700Y-88455828D01*
X94235557Y-88498685D01*
X94321271Y-88541542D01*
X94449842Y-88541542D01*
X94535557Y-88498685D01*
X94149842Y-88198685D02*
X94235557Y-88241542D01*
X94406985Y-88241542D01*
X94492700Y-88198685D01*
X94535557Y-88155828D01*
X94578414Y-88070114D01*
X94578414Y-87812971D01*
X94535557Y-87727257D01*
X94492700Y-87684400D01*
X94406985Y-87641542D01*
X94235557Y-87641542D01*
X94149842Y-87684400D01*
X98614176Y-53589180D02*
X98614176Y-52589180D01*
X97947509Y-52589180D02*
X97757033Y-52589180D01*
X97661795Y-52636800D01*
X97566557Y-52732038D01*
X97518938Y-52922514D01*
X97518938Y-53255847D01*
X97566557Y-53446323D01*
X97661795Y-53541561D01*
X97757033Y-53589180D01*
X97947509Y-53589180D01*
X98042747Y-53541561D01*
X98137985Y-53446323D01*
X98185604Y-53255847D01*
X98185604Y-52922514D01*
X98137985Y-52732038D01*
X98042747Y-52636800D01*
X97947509Y-52589180D01*
X96566557Y-53589180D02*
X97137985Y-53589180D01*
X96852271Y-53589180D02*
X96852271Y-52589180D01*
X96947509Y-52732038D01*
X97042747Y-52827276D01*
X97137985Y-52874895D01*
X95709414Y-52589180D02*
X95899890Y-52589180D01*
X95995128Y-52636800D01*
X96042747Y-52684419D01*
X96137985Y-52827276D01*
X96185604Y-53017752D01*
X96185604Y-53398704D01*
X96137985Y-53493942D01*
X96090366Y-53541561D01*
X95995128Y-53589180D01*
X95804652Y-53589180D01*
X95709414Y-53541561D01*
X95661795Y-53493942D01*
X95614176Y-53398704D01*
X95614176Y-53160609D01*
X95661795Y-53065371D01*
X95709414Y-53017752D01*
X95804652Y-52970133D01*
X95995128Y-52970133D01*
X96090366Y-53017752D01*
X96137985Y-53065371D01*
X96185604Y-53160609D01*
X107833900Y-62885580D02*
X107833900Y-61885580D01*
X107167233Y-61885580D02*
X106976757Y-61885580D01*
X106881519Y-61933200D01*
X106786280Y-62028438D01*
X106738661Y-62218914D01*
X106738661Y-62552247D01*
X106786280Y-62742723D01*
X106881519Y-62837961D01*
X106976757Y-62885580D01*
X107167233Y-62885580D01*
X107262471Y-62837961D01*
X107357709Y-62742723D01*
X107405328Y-62552247D01*
X107405328Y-62218914D01*
X107357709Y-62028438D01*
X107262471Y-61933200D01*
X107167233Y-61885580D01*
X105786280Y-62885580D02*
X106357709Y-62885580D01*
X106071995Y-62885580D02*
X106071995Y-61885580D01*
X106167233Y-62028438D01*
X106262471Y-62123676D01*
X106357709Y-62171295D01*
X105452947Y-61885580D02*
X104833900Y-61885580D01*
X105167233Y-62266533D01*
X105024376Y-62266533D01*
X104929138Y-62314152D01*
X104881519Y-62361771D01*
X104833900Y-62457009D01*
X104833900Y-62695104D01*
X104881519Y-62790342D01*
X104929138Y-62837961D01*
X105024376Y-62885580D01*
X105310090Y-62885580D01*
X105405328Y-62837961D01*
X105452947Y-62790342D01*
X103691042Y-61837961D02*
X104548185Y-63123676D01*
X103500566Y-61885580D02*
X102929138Y-61885580D01*
X103214852Y-62885580D02*
X103214852Y-61885580D01*
X102024376Y-62790342D02*
X102071995Y-62837961D01*
X102214852Y-62885580D01*
X102310090Y-62885580D01*
X102452947Y-62837961D01*
X102548185Y-62742723D01*
X102595804Y-62647485D01*
X102643423Y-62457009D01*
X102643423Y-62314152D01*
X102595804Y-62123676D01*
X102548185Y-62028438D01*
X102452947Y-61933200D01*
X102310090Y-61885580D01*
X102214852Y-61885580D01*
X102071995Y-61933200D01*
X102024376Y-61980819D01*
X101595804Y-62885580D02*
X101595804Y-61885580D01*
X101024376Y-62885580D02*
X101452947Y-62314152D01*
X101024376Y-61885580D02*
X101595804Y-62457009D01*
D11*
%TO.C,JP2*%
X95365000Y-77719200D02*
X95365000Y-77119200D01*
X92565000Y-77119200D02*
X92565000Y-77719200D01*
X93265000Y-78419200D02*
X94665000Y-78419200D01*
X94665000Y-76419200D02*
X93265000Y-76419200D01*
X92565000Y-77719200D02*
G75*
G03*
X93265000Y-78419200I700000J0D01*
G01*
X95365000Y-77119200D02*
G75*
G03*
X94665000Y-76419200I-699999J1D01*
G01*
X94665000Y-78419200D02*
G75*
G03*
X95365000Y-77719200I1J699999D01*
G01*
X93265000Y-76419200D02*
G75*
G03*
X92565000Y-77119200I0J-700000D01*
G01*
%TO.C,JP1*%
X92565000Y-67797400D02*
X92565000Y-68397400D01*
X93265000Y-69097400D02*
X94665000Y-69097400D01*
X94665000Y-67097400D02*
X93265000Y-67097400D01*
X95365000Y-68397400D02*
X95365000Y-67797400D01*
X94665000Y-69097400D02*
G75*
G03*
X95365000Y-68397400I1J699999D01*
G01*
X93265000Y-67097400D02*
G75*
G03*
X92565000Y-67797400I0J-700000D01*
G01*
X92565000Y-68397400D02*
G75*
G03*
X93265000Y-69097400I700000J0D01*
G01*
X95365000Y-67797400D02*
G75*
G03*
X94665000Y-67097400I-699999J1D01*
G01*
%TO.C,JP4*%
X95365000Y-61082200D02*
X95365000Y-60482200D01*
X93265000Y-61782200D02*
X94665000Y-61782200D01*
X92565000Y-60482200D02*
X92565000Y-61082200D01*
X94665000Y-59782200D02*
X93265000Y-59782200D01*
X95365000Y-60482200D02*
G75*
G03*
X94665000Y-59782200I-700000J0D01*
G01*
X92565000Y-61082200D02*
G75*
G03*
X93265000Y-61782200I699999J-1D01*
G01*
X93265000Y-59782200D02*
G75*
G03*
X92565000Y-60482200I-1J-699999D01*
G01*
X94665000Y-61782200D02*
G75*
G03*
X95365000Y-61082200I0J700000D01*
G01*
%TD*%
%LPC*%
D12*
%TO.C,H1*%
X86309200Y-51231800D03*
%TD*%
%TO.C,H2*%
X110337600Y-86893400D03*
%TD*%
D13*
%TO.C,SW2*%
X83985932Y-58203686D03*
X83985932Y-56503660D03*
%TD*%
%TO.C,SW3*%
X83985932Y-70397460D03*
X83985932Y-72097486D03*
%TD*%
%TO.C,SW4*%
X83985932Y-63450560D03*
X83985932Y-65150586D03*
%TD*%
%TO.C,SW1*%
X85701374Y-87692668D03*
X87401400Y-87692668D03*
%TD*%
%TO.C,USB1*%
X93658532Y-83781855D03*
X99438568Y-83781855D03*
D14*
X100868591Y-83281728D03*
D15*
X92228509Y-87461814D03*
D14*
X92228509Y-83281728D03*
D15*
X100868591Y-87461814D03*
%TD*%
D16*
%TO.C,P7*%
X98399600Y-62401061D03*
%TD*%
D17*
%TO.C,P1*%
X94160950Y-50495800D03*
%TD*%
D16*
%TO.C,P6*%
X98399600Y-59410600D03*
%TD*%
D18*
%TO.C,JP2*%
X94615000Y-77419200D03*
D19*
X93315000Y-77419200D03*
%TD*%
D16*
%TO.C,P10*%
X98399600Y-74362905D03*
%TD*%
D17*
%TO.C,P3*%
X100050600Y-50495800D03*
%TD*%
D16*
%TO.C,P11*%
X98399600Y-71372444D03*
%TD*%
%TO.C,P8*%
X98399600Y-65391522D03*
%TD*%
%TO.C,P14*%
X98399600Y-56515000D03*
%TD*%
D18*
%TO.C,JP1*%
X94615000Y-68097400D03*
D19*
X93315000Y-68097400D03*
%TD*%
D16*
%TO.C,P4*%
X98399600Y-77353366D03*
%TD*%
D20*
%TO.C,JP4*%
X93315000Y-60782200D03*
D21*
X94615000Y-60782200D03*
%TD*%
D17*
%TO.C,P2*%
X97105775Y-50495800D03*
%TD*%
D16*
%TO.C,P9*%
X98399600Y-68381983D03*
%TD*%
D17*
%TO.C,P12*%
X90401750Y-50495800D03*
%TD*%
D16*
%TO.C,P5*%
X98399600Y-80343829D03*
%TD*%
%TO.C,P13*%
X85394800Y-86029800D03*
%TD*%
M02*
