M48
; DRILL file {KiCad (6.0.9-0)} date 2022 November 16, Wednesday 22:53:00
; FORMAT={-:-/ absolute / inch / decimal}
; #@! TF.CreationDate,2022-11-16T22:53:00+01:00
; #@! TF.GenerationSoftware,Kicad,Pcbnew,(6.0.9-0)
; #@! TF.FileFunction,Plated,1,2,PTH
FMAT,2
INCH
; #@! TA.AperFunction,Plated,PTH,ViaDrill
T1C0.0157
; #@! TA.AperFunction,Plated,PTH,ComponentDrill
T2C0.0276
; #@! TA.AperFunction,Plated,PTH,ViaDrill
T3C0.0454
%
G90
G05
T1
X3.307Y-3.332
X3.3175Y-2.6605
X3.318Y-2.387
X3.325Y-3.086
X3.342Y-3.1843
X3.345Y-2.788
X3.346Y-2.827
X3.353Y-2.429
X3.353Y-2.7073
X3.3538Y-2.1462
X3.3674Y-2.9879
X3.3707Y-2.089
X3.384Y-3.182
X3.3897Y-2.276
X3.3904Y-2.415
X3.3904Y-2.5296
X3.4083Y-2.145
X3.4103Y-2.2273
X3.44Y-1.956
X3.45Y-2.187
X3.49Y-1.9777
X3.526Y-2.941
X3.544Y-3.172
X3.5445Y-2.0895
X3.5666Y-3.3859
X3.569Y-2.3793
X3.569Y-2.502
X3.569Y-2.72
X3.575Y-3.059
X3.617Y-3.159
X3.619Y-2.449
X3.6192Y-2.2647
X3.624Y-3.114
X3.6347Y-2.2984
X3.642Y-2.703
X3.6462Y-2.1171
X3.6563Y-2.3463
X3.6632Y-3.3325
X3.683Y-2.262
X3.701Y-2.456
X3.7131Y-2.7992
X3.74Y-2.062
X3.744Y-2.314
X3.745Y-2.257
X3.75Y-3.457
X3.756Y-3.365
X3.758Y-3.138
X3.764Y-2.741
X3.766Y-2.365
X3.7672Y-1.9535
X3.77Y-3.295
X3.773Y-2.609
X3.782Y-3.047
X3.7844Y-2.259
X3.79Y-2.93
X3.806Y-2.637
X3.806Y-3.366
X3.827Y-3.2993
X3.86Y-3.3693
X3.916Y-2.071
X3.937Y-2.639
X3.958Y-2.751
X3.959Y-3.043
X3.9607Y-3.1111
X3.965Y-2.669
X3.967Y-2.3377
X3.9676Y-2.403
X3.985Y-2.513
X3.986Y-2.286
X3.986Y-2.605
X3.986Y-2.797
X3.989Y-2.9205
X3.9991Y-1.95
X4.0284Y-3.4186
X4.036Y-1.9671
X4.038Y-2.259
X4.0387Y-2.469
X4.039Y-2.765
X4.0402Y-2.8038
X4.064Y-2.673
X4.071Y-3.3467
X4.075Y-2.719
X4.08Y-2.283
X4.085Y-2.623
X4.086Y-2.533
X4.086Y-3.4245
X4.087Y-2.576
X4.106Y-1.9671
X4.1075Y-2.131
X4.1244Y-2.406
X4.137Y-3.196
X4.1456Y-2.555
X4.1457Y-3.1303
X4.1477Y-2.1317
X4.1567Y-3.068
X4.1733Y-2.0159
X4.1746Y-3.3202
X4.1857Y-3.4157
X4.1885Y-3.3725
X4.199Y-3.465
X4.2035Y-3.14
X4.38Y-3.136
X4.383Y-3.32
T3
X3.301Y-2.076
X3.523Y-3.236
T2
G00X3.631Y-3.2572
M15
G01X3.631Y-3.3005
M16
G05
G00X3.631Y-3.4316
M15
G01X3.631Y-3.4552
M16
G05
G00X3.9712Y-3.2572
M15
G01X3.9712Y-3.3005
M16
G05
G00X3.9712Y-3.4316
M15
G01X3.9712Y-3.4552
M16
G05
T0
M30
