%TF.GenerationSoftware,KiCad,Pcbnew,(6.0.9-0)*%
%TF.CreationDate,2022-11-17T22:28:28+01:00*%
%TF.ProjectId,GlowCoreMini PCB,476c6f77-436f-4726-954d-696e69205043,rev?*%
%TF.SameCoordinates,Original*%
%TF.FileFunction,Copper,L2,Bot*%
%TF.FilePolarity,Positive*%
%FSLAX46Y46*%
G04 Gerber Fmt 4.6, Leading zero omitted, Abs format (unit mm)*
G04 Created by KiCad (PCBNEW (6.0.9-0)) date 2022-11-17 22:28:28*
%MOMM*%
%LPD*%
G01*
G04 APERTURE LIST*
G04 Aperture macros list*
%AMFreePoly0*
4,1,22,0.500000,-0.750000,0.000000,-0.750000,0.000000,-0.745033,-0.079941,-0.743568,-0.215256,-0.701293,-0.333266,-0.622738,-0.424486,-0.514219,-0.481581,-0.384460,-0.499164,-0.250000,-0.500000,-0.250000,-0.500000,0.250000,-0.499164,0.250000,-0.499963,0.256109,-0.478152,0.396186,-0.417904,0.524511,-0.324060,0.630769,-0.204165,0.706417,-0.067858,0.745374,0.000000,0.744959,0.000000,0.750000,
0.500000,0.750000,0.500000,-0.750000,0.500000,-0.750000,$1*%
%AMFreePoly1*
4,1,20,0.000000,0.744959,0.073905,0.744508,0.209726,0.703889,0.328688,0.626782,0.421226,0.519385,0.479903,0.390333,0.500000,0.250000,0.500000,-0.250000,0.499851,-0.262216,0.476331,-0.402017,0.414519,-0.529596,0.319384,-0.634700,0.198574,-0.708877,0.061801,-0.746166,0.000000,-0.745033,0.000000,-0.750000,-0.500000,-0.750000,-0.500000,0.750000,0.000000,0.750000,0.000000,0.744959,
0.000000,0.744959,$1*%
G04 Aperture macros list end*
%TA.AperFunction,ComponentPad*%
%ADD10O,1.200000X2.200000*%
%TD*%
%TA.AperFunction,ComponentPad*%
%ADD11O,1.200000X1.800000*%
%TD*%
%TA.AperFunction,SMDPad,CuDef*%
%ADD12R,3.500000X2.000000*%
%TD*%
%TA.AperFunction,SMDPad,CuDef*%
%ADD13R,2.000000X3.500000*%
%TD*%
%TA.AperFunction,SMDPad,CuDef*%
%ADD14FreePoly0,180.000000*%
%TD*%
%TA.AperFunction,SMDPad,CuDef*%
%ADD15FreePoly1,180.000000*%
%TD*%
%TA.AperFunction,SMDPad,CuDef*%
%ADD16FreePoly0,0.000000*%
%TD*%
%TA.AperFunction,SMDPad,CuDef*%
%ADD17FreePoly1,0.000000*%
%TD*%
%TA.AperFunction,ViaPad*%
%ADD18C,1.300000*%
%TD*%
%TA.AperFunction,ViaPad*%
%ADD19C,0.800000*%
%TD*%
%TA.AperFunction,ViaPad*%
%ADD20C,0.500000*%
%TD*%
%TA.AperFunction,Conductor*%
%ADD21C,0.150000*%
%TD*%
%TA.AperFunction,Conductor*%
%ADD22C,1.400000*%
%TD*%
%TA.AperFunction,Conductor*%
%ADD23C,1.000000*%
%TD*%
%TA.AperFunction,Conductor*%
%ADD24C,1.200000*%
%TD*%
%TA.AperFunction,Conductor*%
%ADD25C,0.600000*%
%TD*%
%TA.AperFunction,Conductor*%
%ADD26C,0.800000*%
%TD*%
%TA.AperFunction,Conductor*%
%ADD27C,1.300000*%
%TD*%
G04 APERTURE END LIST*
%TO.C,JP1*%
G36*
X94215000Y-68397400D02*
G01*
X93715000Y-68397400D01*
X93715000Y-67797400D01*
X94215000Y-67797400D01*
X94215000Y-68397400D01*
G37*
%TD*%
D10*
%TO.P,USB1,SHELL,SHELL*%
%TO.N,GND*%
X100868591Y-83281728D03*
D11*
X92228509Y-87461814D03*
D10*
X92228509Y-83281728D03*
D11*
X100868591Y-87461814D03*
%TD*%
D12*
%TO.P,P7,1*%
%TO.N,IO13{slash}TCK*%
X98399600Y-62401061D03*
%TD*%
D13*
%TO.P,P1,1*%
%TO.N,5V AFTER MOSFET*%
X94160950Y-50495800D03*
%TD*%
D12*
%TO.P,P6,1*%
%TO.N,IO12{slash}TDI*%
X98399600Y-59410600D03*
%TD*%
D14*
%TO.P,JP2,1,A*%
%TO.N,+5V*%
X94615000Y-77419200D03*
D15*
%TO.P,JP2,2,B*%
%TO.N,5V AFTER MOSFET*%
X93315000Y-77419200D03*
%TD*%
D12*
%TO.P,P10,1*%
%TO.N,+3V3*%
X98399600Y-74362905D03*
%TD*%
D13*
%TO.P,P3,1*%
%TO.N,GND*%
X100050600Y-50495800D03*
%TD*%
D12*
%TO.P,P11,1*%
%TO.N,IO32{slash}SD*%
X98399600Y-71372444D03*
%TD*%
%TO.P,P8,1*%
%TO.N,IO14{slash}SCK{slash}TMS*%
X98399600Y-65391522D03*
%TD*%
%TO.P,P14,1*%
%TO.N,IO26*%
X98399600Y-56515000D03*
%TD*%
D14*
%TO.P,JP1,1,A*%
%TO.N,+3V3*%
X94615000Y-68097400D03*
D15*
%TO.P,JP1,2,B*%
%TO.N,Net-(C4-Pad2)*%
X93315000Y-68097400D03*
%TD*%
D12*
%TO.P,P4,1*%
%TO.N,+5V*%
X98399600Y-77353366D03*
%TD*%
D16*
%TO.P,JP4,1,A*%
%TO.N,+3V3*%
X93315000Y-60782200D03*
D17*
%TO.P,JP4,2,B*%
%TO.N,Net-(C10-Pad2)*%
X94615000Y-60782200D03*
%TD*%
D13*
%TO.P,P2,1*%
%TO.N,LED1 DATA OUT*%
X97105775Y-50495800D03*
%TD*%
D12*
%TO.P,P9,1*%
%TO.N,IO15{slash}WS{slash}TDO*%
X98399600Y-68381983D03*
%TD*%
D13*
%TO.P,P12,1*%
%TO.N,IO27*%
X90401750Y-50495800D03*
%TD*%
D12*
%TO.P,P5,1*%
%TO.N,GND*%
X98399600Y-80343829D03*
%TD*%
%TO.P,P13,1*%
%TO.N,IO33{slash}MAINBUTTON*%
X85394800Y-86029800D03*
%TD*%
D18*
%TO.N,*%
X83845400Y-52730400D03*
X89484200Y-82194400D03*
D19*
%TO.N,5V AFTER MOSFET*%
X90030800Y-53072800D03*
X94996000Y-52374800D03*
X85531460Y-75892271D03*
%TO.N,GND*%
X90652600Y-63550800D03*
X106654600Y-88011000D03*
X86115198Y-64252802D03*
X99466400Y-52603400D03*
D20*
X105308400Y-49961800D03*
D19*
X90652600Y-69088000D03*
D20*
X106019600Y-51663600D03*
D19*
X90017600Y-80568800D03*
X90805000Y-77698600D03*
X84988400Y-71805800D03*
X92049600Y-79095600D03*
X111328200Y-84328000D03*
X90652600Y-60434700D03*
X86115198Y-61341000D03*
X86097900Y-57810400D03*
X105350550Y-54144150D03*
X92614666Y-53775184D03*
X101320600Y-74180002D03*
%TO.N,+3V3*%
X95605600Y-69621400D03*
X85187116Y-54512884D03*
X87376000Y-49682400D03*
X96266000Y-74422000D03*
X94311846Y-71098957D03*
X88646000Y-50233100D03*
X84263704Y-67577177D03*
X93045210Y-84645910D03*
X100602100Y-79021100D03*
X95097600Y-58775600D03*
%TO.N,+5V*%
X96062800Y-77393800D03*
X100558600Y-77292200D03*
X89560400Y-74701400D03*
%TO.N,EN*%
X103632000Y-57988200D03*
X103403400Y-85005700D03*
%TO.N,IO0*%
X103505000Y-69062600D03*
X103784400Y-86982050D03*
%TO.N,VBUS*%
X95453200Y-79705200D03*
X106388352Y-85661048D03*
X95250000Y-87807800D03*
X95402400Y-85471000D03*
%TO.N,LED1 DATA OUT*%
X95687451Y-49619886D03*
%TO.N,IO25{slash}VBUS*%
X101244400Y-58064400D03*
X91871800Y-80238600D03*
%TO.N,IO33{slash}MAINBUTTON*%
X83997800Y-84632800D03*
X92868875Y-59596500D03*
X95123000Y-57327800D03*
X86621780Y-56573900D03*
%TO.N,IO22{slash}LED LETCH EN*%
X85953600Y-80822800D03*
X102622225Y-71215375D03*
%TO.N,IO23{slash}POWERMOSFETS*%
X84886800Y-80881700D03*
X102590600Y-70231000D03*
%TO.N,IO32{slash}SD*%
X96123098Y-57378600D03*
X102514400Y-49964010D03*
X94005400Y-62382400D03*
X102565200Y-57378600D03*
X95656400Y-60071000D03*
%TO.N,IO14{slash}SCK{slash}TMS*%
X95834200Y-66268600D03*
X102582500Y-62712600D03*
X91927628Y-57522900D03*
X101219000Y-63830200D03*
X91922600Y-62204600D03*
X101577102Y-49530000D03*
%TO.N,IO12{slash}TDI*%
X92320900Y-58378106D03*
%TO.N,IO13{slash}TCK*%
X100761800Y-59377100D03*
%TO.N,IO15{slash}WS{slash}TDO*%
X103784400Y-64338200D03*
X99999800Y-67030600D03*
X96672400Y-66979800D03*
X105298300Y-64897000D03*
%TO.N,IO16{slash}LED1*%
X85615300Y-53060600D03*
X84455000Y-78384400D03*
%TO.N,RXD0*%
X105301925Y-79508475D03*
X100533200Y-69875400D03*
X103759000Y-66624200D03*
X100711000Y-67792600D03*
%TO.N,TXD0*%
X101244400Y-66167000D03*
X105579700Y-77927200D03*
X103809800Y-65430400D03*
X101244400Y-71043800D03*
%TO.N,USB-C DATA+*%
X98044000Y-85580700D03*
X97205800Y-83802700D03*
%TO.N,USB-C DATA-*%
X96672400Y-85496400D03*
X95758000Y-83693000D03*
%TO.N,RTS*%
X102321613Y-86832187D03*
X111252000Y-79654400D03*
%TO.N,DTR*%
X106769935Y-79756857D03*
X106316369Y-86759827D03*
%TO.N,Net-(C4-Pad2)*%
X92506800Y-68656200D03*
X104330500Y-54126998D03*
X103225600Y-67894200D03*
%TO.N,Net-(C10-Pad2)*%
X100776652Y-61036200D03*
X106034435Y-84333709D03*
X104759700Y-61112400D03*
X105079800Y-81178400D03*
%TO.N,Net-(R9-Pad1)*%
X84277677Y-60630277D03*
X90591525Y-86002225D03*
%TO.N,Net-(R12-Pad1)*%
X85166200Y-68766100D03*
X86571300Y-54483000D03*
%TO.N,Net-(R13-Pad1)*%
X85166200Y-61696600D03*
X84963000Y-70815200D03*
%TO.N,IO26*%
X93548200Y-57454800D03*
%TO.N,IO27*%
X87630000Y-55549800D03*
%TD*%
D21*
%TO.N,GND*%
X104292451Y-53086051D02*
X105350550Y-54144150D01*
X105308400Y-49961800D02*
X104292451Y-50977749D01*
X104292451Y-50977749D02*
X104292451Y-53086051D01*
X106019600Y-51663600D02*
X106019600Y-53475100D01*
X106019600Y-53475100D02*
X105350550Y-54144150D01*
D22*
%TO.N,5V AFTER MOSFET*%
X88925400Y-72237600D02*
X86487000Y-74676000D01*
X92072800Y-76327000D02*
X86487000Y-76327000D01*
X92228750Y-52602050D02*
X92405200Y-52425600D01*
X92405200Y-52425600D02*
X93681500Y-52425600D01*
X94160950Y-51539750D02*
X94160950Y-50495800D01*
X85966189Y-76327000D02*
X85531460Y-75892271D01*
D23*
X91733950Y-53072800D02*
X92228750Y-52578000D01*
D22*
X86487000Y-74676000D02*
X86487000Y-76327000D01*
X94996000Y-52374800D02*
X94465750Y-52905050D01*
X93165000Y-77419200D02*
X92072800Y-76327000D01*
X86487000Y-76327000D02*
X85966189Y-76327000D01*
X88925400Y-54178200D02*
X88925400Y-72237600D01*
X94996000Y-52374800D02*
X94160950Y-51539750D01*
D24*
X89458800Y-53644800D02*
X90030800Y-53072800D01*
D22*
X93681500Y-52425600D02*
X94160950Y-52905050D01*
X89458800Y-53644800D02*
X88925400Y-54178200D01*
D24*
X90030800Y-53072800D02*
X91733950Y-53072800D01*
D21*
%TO.N,GND*%
X86097900Y-57810400D02*
X86080600Y-57827700D01*
D22*
X95808800Y-54025800D02*
X100050600Y-54025800D01*
D25*
X101346000Y-74904600D02*
X101346000Y-74205402D01*
D21*
X109347000Y-84328000D02*
X108127800Y-85547200D01*
X86360000Y-70434200D02*
X84988400Y-71805800D01*
X86360000Y-64497604D02*
X86360000Y-70434200D01*
D25*
X96346556Y-72923400D02*
X100564095Y-72923400D01*
D21*
X106654600Y-87909400D02*
X106654600Y-88011000D01*
D22*
X101219000Y-75514200D02*
X101828600Y-76123800D01*
D25*
X94716600Y-69951600D02*
X95275400Y-70510400D01*
D22*
X101828600Y-76123800D02*
X101828600Y-80238600D01*
X100859771Y-80343829D02*
X100868591Y-80352649D01*
D25*
X101346000Y-74205402D02*
X101320600Y-74180002D01*
D21*
X92614666Y-53775184D02*
X92786200Y-53946718D01*
D26*
X99466400Y-52603400D02*
X99466400Y-51080000D01*
D21*
X90805000Y-77851000D02*
X92049600Y-79095600D01*
X86080600Y-61306402D02*
X86115198Y-61341000D01*
X108127800Y-86436200D02*
X106654600Y-87909400D01*
D25*
X100564095Y-72923400D02*
X101320600Y-73679905D01*
D22*
X100868591Y-80352649D02*
X100868591Y-83281728D01*
X90652600Y-69088000D02*
X90652600Y-63550800D01*
X95046800Y-54787800D02*
X95808800Y-54025800D01*
D21*
X86115198Y-64252802D02*
X86115198Y-61341000D01*
D25*
X95275400Y-70510400D02*
X95275400Y-71852244D01*
D22*
X90652600Y-60434700D02*
X90652600Y-54889400D01*
D25*
X95275400Y-71852244D02*
X96346556Y-72923400D01*
D22*
X90652600Y-60434700D02*
X90652600Y-63550800D01*
D25*
X96367600Y-75844400D02*
X100457000Y-75844400D01*
D22*
X100050600Y-54025800D02*
X100050600Y-50495800D01*
D25*
X93345000Y-72821800D02*
X96367600Y-75844400D01*
D21*
X92786200Y-53946718D02*
X92786200Y-54787800D01*
X111328200Y-84328000D02*
X109347000Y-84328000D01*
X90805000Y-77698600D02*
X90805000Y-77851000D01*
X86115198Y-64252802D02*
X86360000Y-64497604D01*
D25*
X101320600Y-73679905D02*
X101320600Y-74180002D01*
D21*
X86080600Y-57827700D02*
X86080600Y-61306402D01*
D25*
X93878400Y-69951600D02*
X93345000Y-70485000D01*
D22*
X101828600Y-80238600D02*
X101041200Y-81026000D01*
D25*
X100457000Y-75844400D02*
X101142800Y-75158600D01*
X93878400Y-69951600D02*
X94716600Y-69951600D01*
D22*
X90754200Y-54787800D02*
X92786200Y-54787800D01*
D25*
X101092000Y-75158600D02*
X101346000Y-74904600D01*
X93345000Y-70485000D02*
X93345000Y-72821800D01*
D21*
X108127800Y-85547200D02*
X108127800Y-86436200D01*
D26*
X99466400Y-51080000D02*
X100050600Y-50495800D01*
D22*
X92786200Y-54787800D02*
X95046800Y-54787800D01*
X90652600Y-69088000D02*
X91516200Y-69951600D01*
X91516200Y-69951600D02*
X93878400Y-69951600D01*
X100859771Y-80343829D02*
X98399600Y-80343829D01*
X90652600Y-54889400D02*
X90754200Y-54787800D01*
D21*
%TO.N,+3V3*%
X93916090Y-84645910D02*
X94284800Y-84277200D01*
X85187116Y-55351084D02*
X84660945Y-55877255D01*
X93268800Y-62788800D02*
X93268800Y-60828400D01*
X95605600Y-69621400D02*
X95605600Y-69088000D01*
X87926700Y-50233100D02*
X87376000Y-49682400D01*
X96266000Y-74422000D02*
X96325095Y-74362905D01*
X94333545Y-84228455D02*
X94333545Y-79504055D01*
X94818200Y-58775600D02*
X93315000Y-60278800D01*
X93268800Y-60828400D02*
X93315000Y-60782200D01*
X95097600Y-58775600D02*
X94818200Y-58775600D01*
X94311846Y-72467846D02*
X94311846Y-71098957D01*
X83642200Y-62052200D02*
X84689495Y-63099495D01*
X100602100Y-79021100D02*
X100448000Y-78867000D01*
X96266000Y-74422000D02*
X94311846Y-72467846D01*
X94333545Y-79504055D02*
X94970600Y-78867000D01*
X84689495Y-67151386D02*
X84263704Y-67577177D01*
X85187116Y-54512884D02*
X85187116Y-55351084D01*
X84660945Y-58518855D02*
X83642200Y-59537600D01*
X99822000Y-78867000D02*
X99847400Y-78841600D01*
X96325095Y-74362905D02*
X98399600Y-74362905D01*
X93315000Y-60278800D02*
X93315000Y-60782200D01*
X94615000Y-64135000D02*
X93268800Y-62788800D01*
X94284800Y-84277200D02*
X94333545Y-84228455D01*
X84689495Y-63099495D02*
X84689495Y-67151386D01*
X94615000Y-68097400D02*
X94615000Y-64135000D01*
X100448000Y-78867000D02*
X99822000Y-78867000D01*
X93045210Y-84645910D02*
X93916090Y-84645910D01*
X83642200Y-59537600D02*
X83642200Y-62052200D01*
X95605600Y-69088000D02*
X94615000Y-68097400D01*
X94970600Y-78867000D02*
X99822000Y-78867000D01*
X88646000Y-50233100D02*
X87926700Y-50233100D01*
X84660945Y-55877255D02*
X84660945Y-58518855D01*
D22*
%TO.N,+5V*%
X96062800Y-77393800D02*
X98359166Y-77393800D01*
D27*
X89560400Y-74701400D02*
X93370400Y-74701400D01*
X93370400Y-74701400D02*
X96062800Y-77393800D01*
D21*
X100497434Y-77353366D02*
X98399600Y-77353366D01*
D27*
X96062800Y-77393800D02*
X94715000Y-77393800D01*
D21*
X100558600Y-77292200D02*
X100497434Y-77353366D01*
D22*
X98359166Y-77393800D02*
X98399600Y-77353366D01*
D21*
%TO.N,EN*%
X103632000Y-62738000D02*
X102463600Y-63906400D01*
X102463600Y-68961000D02*
X104013000Y-70510400D01*
X102463600Y-63906400D02*
X102463600Y-68961000D01*
X104013000Y-70510400D02*
X104013000Y-84396100D01*
X103632000Y-57988200D02*
X103632000Y-62738000D01*
X104013000Y-84396100D02*
X103403400Y-85005700D01*
%TO.N,IO0*%
X104477800Y-72520137D02*
X104477800Y-85184000D01*
X104470200Y-72512537D02*
X104477800Y-72520137D01*
X103505000Y-69062600D02*
X104470200Y-70027800D01*
X104477800Y-85184000D02*
X103784400Y-85877400D01*
X103784400Y-85877400D02*
X103784400Y-86982050D01*
X104470200Y-70027800D02*
X104470200Y-72512537D01*
%TO.N,VBUS*%
X95427800Y-87630000D02*
X95250000Y-87807800D01*
X95402400Y-85471000D02*
X94970600Y-85039200D01*
X94970600Y-80187800D02*
X95453200Y-79705200D01*
X102997000Y-87325200D02*
X102997000Y-86410800D01*
X104153846Y-87782400D02*
X103454200Y-87782400D01*
X102641400Y-86055200D02*
X100507800Y-86055200D01*
X102997000Y-86410800D02*
X102641400Y-86055200D01*
X98933000Y-87630000D02*
X95427800Y-87630000D01*
X103454200Y-87782400D02*
X102997000Y-87325200D01*
X106275198Y-85661048D02*
X104153846Y-87782400D01*
X94970600Y-85039200D02*
X94970600Y-80187800D01*
X100507800Y-86055200D02*
X98933000Y-87630000D01*
X106388352Y-85661048D02*
X106275198Y-85661048D01*
%TO.N,LED1 DATA OUT*%
X96229861Y-49619886D02*
X97105775Y-50495800D01*
X95687451Y-49619886D02*
X96229861Y-49619886D01*
%TO.N,IO25{slash}VBUS*%
X101981000Y-58801000D02*
X101981000Y-66548000D01*
X102209600Y-74777600D02*
X102819200Y-75387200D01*
X101244400Y-58064400D02*
X101981000Y-58801000D01*
X101981000Y-66548000D02*
X101904800Y-66624200D01*
X101904800Y-66624200D02*
X101904800Y-71348600D01*
X101904800Y-71348600D02*
X102209600Y-71653400D01*
X102819200Y-83312000D02*
X101422200Y-84709000D01*
X99999800Y-84709000D02*
X98425000Y-86283800D01*
X92049600Y-85471000D02*
X91186000Y-84607400D01*
X101422200Y-84709000D02*
X99999800Y-84709000D01*
X93345000Y-85471000D02*
X92049600Y-85471000D01*
X98425000Y-86283800D02*
X94157800Y-86283800D01*
X102819200Y-75387200D02*
X102819200Y-83312000D01*
X91186000Y-82042000D02*
X91871800Y-81356200D01*
X94157800Y-86283800D02*
X93345000Y-85471000D01*
X91871800Y-81356200D02*
X91871800Y-80238600D01*
X102209600Y-71653400D02*
X102209600Y-74777600D01*
X91186000Y-84607400D02*
X91186000Y-82042000D01*
%TO.N,IO33{slash}MAINBUTTON*%
X92868875Y-59581925D02*
X95123000Y-57327800D01*
X83997800Y-84632800D02*
X83997800Y-80919343D01*
X86842600Y-71018400D02*
X86842600Y-56794720D01*
X83997800Y-84632800D02*
X85394800Y-86029800D01*
X86842600Y-56794720D02*
X86621780Y-56573900D01*
X83997800Y-80919343D02*
X85572600Y-79344543D01*
X92868875Y-59596500D02*
X92868875Y-59581925D01*
X84175600Y-77012800D02*
X84175600Y-73685400D01*
X85572600Y-78409800D02*
X84175600Y-77012800D01*
X85572600Y-79344543D02*
X85572600Y-78409800D01*
X84175600Y-73685400D02*
X86842600Y-71018400D01*
%TO.N,IO22{slash}LED LETCH EN*%
X93903800Y-86715600D02*
X93116400Y-85928200D01*
X103225600Y-83515200D02*
X101574600Y-85166200D01*
X91592400Y-85928200D02*
X90728800Y-86791800D01*
X101574600Y-85166200D02*
X100126800Y-85166200D01*
X93116400Y-85928200D02*
X91592400Y-85928200D01*
X102622225Y-71215375D02*
X103225600Y-71818750D01*
X103225600Y-71818750D02*
X103225600Y-83515200D01*
X100126800Y-85166200D02*
X98577400Y-86715600D01*
X98577400Y-86715600D02*
X93903800Y-86715600D01*
X90728800Y-86791800D02*
X89941400Y-86791800D01*
X85953600Y-82804000D02*
X85953600Y-80822800D01*
X89941400Y-86791800D02*
X85953600Y-82804000D01*
%TO.N,IO23{slash}POWERMOSFETS*%
X101752400Y-85623400D02*
X100253800Y-85623400D01*
X92862400Y-86309200D02*
X91770200Y-86309200D01*
X91770200Y-86309200D02*
X90779600Y-87299800D01*
X103632000Y-83743800D02*
X101752400Y-85623400D01*
X93726000Y-87172800D02*
X92862400Y-86309200D01*
X102590600Y-70231000D02*
X102793800Y-70231000D01*
X103632000Y-71069200D02*
X103632000Y-83743800D01*
X89789000Y-87299800D02*
X84886800Y-82397600D01*
X100253800Y-85623400D02*
X98704400Y-87172800D01*
X102793800Y-70231000D02*
X103632000Y-71069200D01*
X84886800Y-82397600D02*
X84886800Y-80881700D01*
X98704400Y-87172800D02*
X93726000Y-87172800D01*
X90779600Y-87299800D02*
X89789000Y-87299800D01*
%TO.N,IO32{slash}SD*%
X95758000Y-68021200D02*
X95529400Y-67792600D01*
X98399600Y-71372444D02*
X97686844Y-71372444D01*
X95021400Y-66751200D02*
X95021400Y-65430400D01*
X95529400Y-67310000D02*
X95529400Y-67259200D01*
X102311200Y-50167210D02*
X102311200Y-52171600D01*
X95529400Y-67792600D02*
X95529400Y-67310000D01*
X95021400Y-63398400D02*
X94005400Y-62382400D01*
X96240600Y-69926200D02*
X96240600Y-68580000D01*
X95656400Y-60071000D02*
X96123098Y-59604302D01*
X96240600Y-68580000D02*
X96240600Y-68503800D01*
X96240600Y-68503800D02*
X95758000Y-68021200D01*
X102514400Y-49964010D02*
X102311200Y-50167210D01*
X96291400Y-69977000D02*
X96240600Y-69926200D01*
X95123000Y-66852800D02*
X95021400Y-66751200D01*
X96123098Y-59604302D02*
X96123098Y-57378600D01*
X102311200Y-57124600D02*
X102565200Y-57378600D01*
X95021400Y-65430400D02*
X95021400Y-63398400D01*
X102311200Y-52171600D02*
X102311200Y-57124600D01*
X97686844Y-71372444D02*
X96291400Y-69977000D01*
X95529400Y-67259200D02*
X95123000Y-66852800D01*
%TO.N,IO14{slash}SCK{slash}TMS*%
X101577102Y-52885302D02*
X101663500Y-52971700D01*
X102666800Y-58470800D02*
X102666800Y-62628300D01*
X91719400Y-57731128D02*
X91719400Y-62001400D01*
X91927628Y-57522900D02*
X91719400Y-57731128D01*
X101650800Y-52984400D02*
X101650800Y-57454800D01*
X102666800Y-62628300D02*
X102582500Y-62712600D01*
X101663500Y-52971700D02*
X101701600Y-53009800D01*
X101650800Y-57454800D02*
X102666800Y-58470800D01*
X99657678Y-65391522D02*
X98399600Y-65391522D01*
X91719400Y-62001400D02*
X91922600Y-62204600D01*
X98399600Y-65391522D02*
X96711278Y-65391522D01*
X96711278Y-65391522D02*
X95834200Y-66268600D01*
X101663500Y-52971700D02*
X101650800Y-52984400D01*
X101219000Y-63830200D02*
X99657678Y-65391522D01*
X101577102Y-49530000D02*
X101577102Y-52885302D01*
%TO.N,IO12{slash}TDI*%
X96617200Y-55143400D02*
X100888800Y-55143400D01*
X92684600Y-56413400D02*
X92989400Y-56108600D01*
X92320900Y-58378106D02*
X92684600Y-58014406D01*
X101117400Y-57099200D02*
X98806000Y-59410600D01*
X101117400Y-55372000D02*
X101117400Y-57099200D01*
X100888800Y-55143400D02*
X101117400Y-55372000D01*
X92989400Y-56108600D02*
X95652000Y-56108600D01*
X98806000Y-59410600D02*
X98399600Y-59410600D01*
X92684600Y-58014406D02*
X92684600Y-56413400D01*
X95652000Y-56108600D02*
X96617200Y-55143400D01*
%TO.N,IO13{slash}TCK*%
X100761800Y-59377100D02*
X101447600Y-60062900D01*
X101447600Y-61747400D02*
X100793939Y-62401061D01*
X100793939Y-62401061D02*
X98399600Y-62401061D01*
X101447600Y-60062900D02*
X101447600Y-61747400D01*
%TO.N,IO15{slash}WS{slash}TDO*%
X98074583Y-68381983D02*
X98399600Y-68381983D01*
X104739500Y-64338200D02*
X103784400Y-64338200D01*
X96672400Y-66979800D02*
X98074583Y-68381983D01*
X99999800Y-67030600D02*
X99750983Y-67030600D01*
X105298300Y-64897000D02*
X104739500Y-64338200D01*
X99750983Y-67030600D02*
X98399600Y-68381983D01*
%TO.N,IO16{slash}LED1*%
X84455000Y-78384400D02*
X83591400Y-77520800D01*
X83591400Y-73019083D02*
X83286600Y-72714283D01*
X83286600Y-55389300D02*
X85615300Y-53060600D01*
X83591400Y-77520800D02*
X83591400Y-73019083D01*
X83286600Y-72714283D02*
X83286600Y-55389300D01*
%TO.N,RXD0*%
X100711000Y-69697600D02*
X100711000Y-67792600D01*
X104978200Y-67843400D02*
X104978200Y-79184750D01*
X100533200Y-69875400D02*
X100711000Y-69697600D01*
X103759000Y-66624200D02*
X104978200Y-67843400D01*
X104978200Y-79184750D02*
X105301925Y-79508475D01*
%TO.N,TXD0*%
X105537000Y-67091900D02*
X103875500Y-65430400D01*
X105579700Y-77927200D02*
X105537000Y-77884500D01*
X101244400Y-66167000D02*
X101473000Y-66395600D01*
X103875500Y-65430400D02*
X103809800Y-65430400D01*
X101473000Y-70815200D02*
X101244400Y-71043800D01*
X105537000Y-77884500D02*
X105537000Y-67091900D01*
X101473000Y-66395600D02*
X101473000Y-70815200D01*
%TO.N,USB-C DATA+*%
X97205800Y-83802700D02*
X98044000Y-84640900D01*
X98044000Y-84640900D02*
X98044000Y-85580700D01*
%TO.N,USB-C DATA-*%
X96672400Y-85496400D02*
X96672400Y-84607400D01*
X96672400Y-84607400D02*
X95758000Y-83693000D01*
%TO.N,RTS*%
X103174800Y-88214200D02*
X102321613Y-87361013D01*
X105079800Y-87426800D02*
X104292400Y-88214200D01*
X109093000Y-79654400D02*
X107645200Y-81102200D01*
X111252000Y-79654400D02*
X109093000Y-79654400D01*
X107645200Y-86282353D02*
X106500753Y-87426800D01*
X107645200Y-81102200D02*
X107645200Y-86282353D01*
X104292400Y-88214200D02*
X103174800Y-88214200D01*
X102321613Y-87361013D02*
X102321613Y-86832187D01*
X106500753Y-87426800D02*
X105079800Y-87426800D01*
%TO.N,DTR*%
X106769935Y-79756857D02*
X107238800Y-80225722D01*
X107238800Y-85837396D02*
X106316369Y-86759827D01*
X107238800Y-80225722D02*
X107238800Y-85837396D01*
%TO.N,Net-(C4-Pad2)*%
X104648000Y-54444498D02*
X104648000Y-59817000D01*
X103987600Y-60477400D02*
X103987600Y-62941200D01*
X92756200Y-68656200D02*
X93315000Y-68097400D01*
X104648000Y-59817000D02*
X103987600Y-60477400D01*
X102971600Y-63957200D02*
X102971600Y-67640200D01*
X102971600Y-67640200D02*
X103225600Y-67894200D01*
X92506800Y-68656200D02*
X92756200Y-68656200D01*
X103987600Y-62941200D02*
X102971600Y-63957200D01*
X104330500Y-54126998D02*
X104648000Y-54444498D01*
%TO.N,Net-(C10-Pad2)*%
X104759700Y-61112400D02*
X105994200Y-62346900D01*
X105079800Y-81178400D02*
X105079800Y-83379074D01*
X105994200Y-77490343D02*
X105994200Y-72953150D01*
X94869000Y-61036200D02*
X94615000Y-60782200D01*
X106181700Y-78450900D02*
X106181700Y-77677843D01*
X105994200Y-78638400D02*
X106181700Y-78450900D01*
X105079800Y-80645000D02*
X105994200Y-79730600D01*
X105994200Y-79730600D02*
X105994200Y-78638400D01*
X105079800Y-83379074D02*
X106034435Y-84333709D01*
X105079800Y-81178400D02*
X105079800Y-80645000D01*
X105994200Y-62346900D02*
X105994200Y-72974200D01*
X100776652Y-61036200D02*
X94869000Y-61036200D01*
X106181700Y-77677843D02*
X105994200Y-77490343D01*
%TO.N,Net-(R9-Pad1)*%
X86842600Y-55245000D02*
X86842600Y-55789340D01*
X87172800Y-54914800D02*
X86842600Y-55245000D01*
X84582000Y-76682600D02*
X86512400Y-78613000D01*
X87172800Y-54127400D02*
X87172800Y-54914800D01*
X85826600Y-55448200D02*
X85826600Y-54152800D01*
X87277092Y-71701508D02*
X84582000Y-74396600D01*
X85826600Y-54152800D02*
X86258400Y-53721000D01*
X86258400Y-53721000D02*
X86766400Y-53721000D01*
X86766400Y-53721000D02*
X87172800Y-54127400D01*
X84277677Y-60630277D02*
X85064600Y-59843354D01*
X87277092Y-56223832D02*
X87277092Y-71701508D01*
X89913825Y-86002225D02*
X90591525Y-86002225D01*
X86512400Y-78613000D02*
X86512400Y-79552800D01*
X86868000Y-79908400D02*
X86868000Y-82956400D01*
X85064600Y-59843354D02*
X85064600Y-56210200D01*
X86842600Y-55789340D02*
X87277092Y-56223832D01*
X86512400Y-79552800D02*
X86868000Y-79908400D01*
X85064600Y-56210200D02*
X85826600Y-55448200D01*
X84582000Y-74396600D02*
X84582000Y-76682600D01*
X86868000Y-82956400D02*
X89913825Y-86002225D01*
%TO.N,Net-(R12-Pad1)*%
X85166200Y-62941200D02*
X85166200Y-68766100D01*
X86283800Y-54770500D02*
X86283800Y-55727600D01*
X86571300Y-54483000D02*
X86283800Y-54770500D01*
X86283800Y-55727600D02*
X85496400Y-56515000D01*
X84455000Y-62230000D02*
X85166200Y-62941200D01*
X84455000Y-61391800D02*
X84455000Y-62230000D01*
X85496400Y-60350400D02*
X84455000Y-61391800D01*
X85496400Y-56515000D02*
X85496400Y-60350400D01*
%TO.N,Net-(R13-Pad1)*%
X85471000Y-63500000D02*
X85598000Y-63373000D01*
X85877400Y-65303400D02*
X85598000Y-65024000D01*
X85598000Y-65024000D02*
X85471000Y-64897000D01*
X84963000Y-70459600D02*
X85725000Y-69697600D01*
X85471000Y-64160400D02*
X85471000Y-63500000D01*
X85471000Y-64897000D02*
X85471000Y-64160400D01*
X85598000Y-63373000D02*
X85623400Y-63347600D01*
X85725000Y-69697600D02*
X85877400Y-69545200D01*
X85877400Y-69545200D02*
X85877400Y-67310000D01*
X85598000Y-62128400D02*
X85166200Y-61696600D01*
X84963000Y-70815200D02*
X84963000Y-70459600D01*
X85598000Y-63373000D02*
X85598000Y-62128400D01*
X85877400Y-67310000D02*
X85877400Y-65303400D01*
%TO.N,IO26*%
X94132400Y-56515000D02*
X98399600Y-56515000D01*
X93548200Y-57099200D02*
X94132400Y-56515000D01*
X93548200Y-57454800D02*
X93548200Y-57099200D01*
%TO.N,IO27*%
X87960200Y-53263800D02*
X87833200Y-53390800D01*
X87960200Y-53263800D02*
X87909400Y-53314600D01*
X90401750Y-50495800D02*
X88392000Y-52505550D01*
X88392000Y-52603400D02*
X88392000Y-52832000D01*
X87833200Y-53390800D02*
X87833200Y-55346600D01*
X88392000Y-52832000D02*
X87960200Y-53263800D01*
X88392000Y-52505550D02*
X88392000Y-52603400D01*
X87833200Y-55346600D02*
X87630000Y-55549800D01*
%TD*%
%TA.AperFunction,Conductor*%
%TO.N,GND*%
G36*
X112179528Y-80175608D02*
G01*
X112214439Y-80237428D01*
X112217714Y-80265967D01*
X112217714Y-86767844D01*
X112216214Y-86787231D01*
X112212523Y-86810934D01*
X112214518Y-86826191D01*
X112215261Y-86851511D01*
X112203174Y-87020488D01*
X112200616Y-87038278D01*
X112189875Y-87087652D01*
X112186003Y-87105449D01*
X112151978Y-87167761D01*
X112089665Y-87201786D01*
X112018849Y-87196720D01*
X111962014Y-87154173D01*
X111937204Y-87087652D01*
X111937271Y-87068779D01*
X111937715Y-87063144D01*
X111951074Y-86893400D01*
X111931209Y-86640997D01*
X111872105Y-86394809D01*
X111870211Y-86390236D01*
X111777111Y-86165472D01*
X111777109Y-86165468D01*
X111775216Y-86160898D01*
X111642928Y-85945024D01*
X111478498Y-85752502D01*
X111285976Y-85588072D01*
X111084883Y-85464842D01*
X111074322Y-85458370D01*
X111070102Y-85455784D01*
X111065532Y-85453891D01*
X111065528Y-85453889D01*
X110840764Y-85360789D01*
X110840762Y-85360788D01*
X110836191Y-85358895D01*
X110719033Y-85330768D01*
X110594816Y-85300946D01*
X110594810Y-85300945D01*
X110590003Y-85299791D01*
X110490184Y-85291935D01*
X110403255Y-85285093D01*
X110403248Y-85285093D01*
X110400799Y-85284900D01*
X110274401Y-85284900D01*
X110271952Y-85285093D01*
X110271945Y-85285093D01*
X110185016Y-85291935D01*
X110085197Y-85299791D01*
X110080390Y-85300945D01*
X110080384Y-85300946D01*
X109956167Y-85330768D01*
X109839009Y-85358895D01*
X109834438Y-85360788D01*
X109834436Y-85360789D01*
X109609672Y-85453889D01*
X109609668Y-85453891D01*
X109605098Y-85455784D01*
X109600878Y-85458370D01*
X109590317Y-85464842D01*
X109389224Y-85588072D01*
X109196702Y-85752502D01*
X109032272Y-85945024D01*
X108899984Y-86160898D01*
X108898091Y-86165468D01*
X108898089Y-86165472D01*
X108804989Y-86390236D01*
X108803095Y-86394809D01*
X108743991Y-86640997D01*
X108724126Y-86893400D01*
X108743991Y-87145803D01*
X108745145Y-87150610D01*
X108745146Y-87150616D01*
X108782779Y-87307368D01*
X108803095Y-87391991D01*
X108804988Y-87396562D01*
X108804989Y-87396564D01*
X108894408Y-87612440D01*
X108899984Y-87625902D01*
X109032272Y-87841776D01*
X109196702Y-88034298D01*
X109200458Y-88037506D01*
X109258294Y-88086903D01*
X109297103Y-88146354D01*
X109297609Y-88217349D01*
X109259653Y-88277347D01*
X109195284Y-88307300D01*
X109176463Y-88308714D01*
X105327271Y-88308714D01*
X105259150Y-88288712D01*
X105212657Y-88235056D01*
X105202553Y-88164782D01*
X105232047Y-88100202D01*
X105238176Y-88093619D01*
X105284590Y-88047205D01*
X105346902Y-88013179D01*
X105373685Y-88010300D01*
X106454250Y-88010300D01*
X106470697Y-88011378D01*
X106500753Y-88015335D01*
X106508941Y-88014257D01*
X106538997Y-88010300D01*
X106586804Y-88004006D01*
X106653077Y-87995281D01*
X106795020Y-87936486D01*
X106888025Y-87865121D01*
X106910364Y-87847980D01*
X106916910Y-87842957D01*
X106935372Y-87818897D01*
X106946239Y-87806507D01*
X108024915Y-86727832D01*
X108037306Y-86716965D01*
X108054804Y-86703538D01*
X108061357Y-86698510D01*
X108085527Y-86667011D01*
X108154886Y-86576621D01*
X108192706Y-86485314D01*
X108213681Y-86434677D01*
X108228700Y-86320597D01*
X108228700Y-86320596D01*
X108230318Y-86308305D01*
X108232657Y-86290542D01*
X108232657Y-86290541D01*
X108233735Y-86282353D01*
X108229778Y-86252297D01*
X108228700Y-86235850D01*
X108228700Y-81396083D01*
X108248702Y-81327962D01*
X108265605Y-81306988D01*
X109297788Y-80274805D01*
X109360100Y-80240779D01*
X109386883Y-80237900D01*
X110498781Y-80237900D01*
X110566902Y-80257902D01*
X110592416Y-80279590D01*
X110640747Y-80333266D01*
X110795248Y-80445518D01*
X110801276Y-80448202D01*
X110801278Y-80448203D01*
X110954681Y-80516502D01*
X110969712Y-80523194D01*
X111063113Y-80543047D01*
X111150056Y-80561528D01*
X111150061Y-80561528D01*
X111156513Y-80562900D01*
X111347487Y-80562900D01*
X111353939Y-80561528D01*
X111353944Y-80561528D01*
X111440887Y-80543047D01*
X111534288Y-80523194D01*
X111549319Y-80516502D01*
X111702722Y-80448203D01*
X111702724Y-80448202D01*
X111708752Y-80445518D01*
X111863253Y-80333266D01*
X111915892Y-80274805D01*
X111986619Y-80196254D01*
X111991040Y-80191344D01*
X111991468Y-80190603D01*
X112046000Y-80148552D01*
X112116736Y-80142477D01*
X112179528Y-80175608D01*
G37*
%TD.AperFunction*%
%TA.AperFunction,Conductor*%
G36*
X91588154Y-77555502D02*
G01*
X91609128Y-77572405D01*
X92349165Y-78312442D01*
X92472505Y-78415570D01*
X92659891Y-78522453D01*
X92665168Y-78524322D01*
X92665173Y-78524324D01*
X92857954Y-78592591D01*
X92857957Y-78592592D01*
X92863244Y-78594464D01*
X92904453Y-78601212D01*
X92936934Y-78611174D01*
X92955924Y-78619948D01*
X93013344Y-78637120D01*
X93088844Y-78659699D01*
X93088849Y-78659700D01*
X93093142Y-78660984D01*
X93097574Y-78661646D01*
X93097577Y-78661647D01*
X93232765Y-78681850D01*
X93232768Y-78681850D01*
X93237196Y-78682512D01*
X93311855Y-78682968D01*
X93375945Y-78683360D01*
X93375950Y-78683360D01*
X93380417Y-78683387D01*
X93382861Y-78683052D01*
X93386656Y-78682929D01*
X93815000Y-78682929D01*
X93846986Y-78680641D01*
X93881373Y-78678182D01*
X93881374Y-78678182D01*
X93888111Y-78677700D01*
X93924440Y-78667033D01*
X93977868Y-78663212D01*
X94027693Y-78670376D01*
X94053364Y-78674067D01*
X94117945Y-78703560D01*
X94156328Y-78763286D01*
X94156328Y-78834283D01*
X94124527Y-78887879D01*
X93953830Y-79058576D01*
X93941438Y-79069444D01*
X93917388Y-79087898D01*
X93853458Y-79171214D01*
X93823859Y-79209788D01*
X93765064Y-79351731D01*
X93745010Y-79504055D01*
X93746088Y-79512243D01*
X93748967Y-79534111D01*
X93750045Y-79550558D01*
X93750045Y-82797343D01*
X93730043Y-82865464D01*
X93676387Y-82911957D01*
X93624045Y-82923343D01*
X93611935Y-82923343D01*
X93608541Y-82923712D01*
X93608536Y-82923712D01*
X93476116Y-82938097D01*
X93406234Y-82925569D01*
X93354218Y-82877248D01*
X93336509Y-82812834D01*
X93336509Y-82731896D01*
X93336224Y-82725920D01*
X93322038Y-82577234D01*
X93319779Y-82565500D01*
X93263637Y-82374129D01*
X93259207Y-82363053D01*
X93167890Y-82185750D01*
X93161440Y-82175704D01*
X93038247Y-82018871D01*
X93030010Y-82010222D01*
X92879386Y-81879516D01*
X92869662Y-81872581D01*
X92697042Y-81772718D01*
X92686172Y-81767741D01*
X92503531Y-81704317D01*
X92445742Y-81663076D01*
X92419423Y-81597137D01*
X92428456Y-81537072D01*
X92437121Y-81516153D01*
X92440281Y-81508524D01*
X92460335Y-81356200D01*
X92456378Y-81326142D01*
X92455300Y-81309697D01*
X92455300Y-80996655D01*
X92475302Y-80928534D01*
X92487664Y-80912345D01*
X92606421Y-80780452D01*
X92606422Y-80780451D01*
X92610840Y-80775544D01*
X92689054Y-80640073D01*
X92703023Y-80615879D01*
X92703024Y-80615878D01*
X92706327Y-80610156D01*
X92765342Y-80428528D01*
X92775871Y-80328355D01*
X92784614Y-80245165D01*
X92785304Y-80238600D01*
X92771798Y-80110095D01*
X92766032Y-80055235D01*
X92766032Y-80055233D01*
X92765342Y-80048672D01*
X92706327Y-79867044D01*
X92610840Y-79701656D01*
X92604897Y-79695055D01*
X92487475Y-79564645D01*
X92487474Y-79564644D01*
X92483053Y-79559734D01*
X92328552Y-79447482D01*
X92322524Y-79444798D01*
X92322522Y-79444797D01*
X92160119Y-79372491D01*
X92160118Y-79372491D01*
X92154088Y-79369806D01*
X92051556Y-79348012D01*
X91973744Y-79331472D01*
X91973739Y-79331472D01*
X91967287Y-79330100D01*
X91776313Y-79330100D01*
X91769861Y-79331472D01*
X91769856Y-79331472D01*
X91692044Y-79348012D01*
X91589512Y-79369806D01*
X91583482Y-79372491D01*
X91583481Y-79372491D01*
X91421078Y-79444797D01*
X91421076Y-79444798D01*
X91415048Y-79447482D01*
X91260547Y-79559734D01*
X91256126Y-79564644D01*
X91256125Y-79564645D01*
X91138704Y-79695055D01*
X91132760Y-79701656D01*
X91037273Y-79867044D01*
X90978258Y-80048672D01*
X90977568Y-80055233D01*
X90977568Y-80055235D01*
X90971802Y-80110095D01*
X90958296Y-80238600D01*
X90958986Y-80245165D01*
X90967730Y-80328355D01*
X90978258Y-80428528D01*
X91037273Y-80610156D01*
X91040576Y-80615878D01*
X91040577Y-80615879D01*
X91054546Y-80640073D01*
X91132760Y-80775544D01*
X91137178Y-80780451D01*
X91137179Y-80780452D01*
X91255936Y-80912345D01*
X91286654Y-80976352D01*
X91288300Y-80996655D01*
X91288300Y-81062315D01*
X91268298Y-81130436D01*
X91251396Y-81151410D01*
X90806286Y-81596521D01*
X90793893Y-81607389D01*
X90769843Y-81625843D01*
X90764818Y-81632392D01*
X90764816Y-81632394D01*
X90746360Y-81656446D01*
X90746359Y-81656448D01*
X90726255Y-81682647D01*
X90668916Y-81724513D01*
X90598045Y-81728734D01*
X90536143Y-81693968D01*
X90513288Y-81661669D01*
X90478770Y-81591673D01*
X90476215Y-81586492D01*
X90448933Y-81549956D01*
X90352274Y-81420514D01*
X90348822Y-81415891D01*
X90192471Y-81271363D01*
X90012401Y-81157747D01*
X89814641Y-81078849D01*
X89808981Y-81077723D01*
X89808977Y-81077722D01*
X89611482Y-81038438D01*
X89611480Y-81038438D01*
X89605815Y-81037311D01*
X89600040Y-81037235D01*
X89600036Y-81037235D01*
X89493361Y-81035839D01*
X89392916Y-81034524D01*
X89387219Y-81035503D01*
X89387218Y-81035503D01*
X89188764Y-81069603D01*
X89188761Y-81069604D01*
X89183074Y-81070581D01*
X88983316Y-81144275D01*
X88800334Y-81253139D01*
X88640254Y-81393525D01*
X88508438Y-81560733D01*
X88505749Y-81565844D01*
X88505747Y-81565847D01*
X88455333Y-81661669D01*
X88409300Y-81749162D01*
X88407586Y-81754683D01*
X88407584Y-81754687D01*
X88368824Y-81879516D01*
X88346161Y-81952502D01*
X88321136Y-82163944D01*
X88335061Y-82376406D01*
X88336482Y-82382002D01*
X88336483Y-82382007D01*
X88367555Y-82504349D01*
X88387472Y-82582772D01*
X88389889Y-82588015D01*
X88426589Y-82667623D01*
X88476611Y-82776131D01*
X88599496Y-82950009D01*
X88640300Y-82989759D01*
X88739339Y-83086238D01*
X88752009Y-83098581D01*
X88756805Y-83101786D01*
X88756808Y-83101788D01*
X88865310Y-83174286D01*
X88929043Y-83216871D01*
X88934346Y-83219149D01*
X88934349Y-83219151D01*
X89056135Y-83271474D01*
X89124670Y-83300919D01*
X89200516Y-83318081D01*
X89326701Y-83346634D01*
X89326706Y-83346635D01*
X89332338Y-83347909D01*
X89338109Y-83348136D01*
X89338111Y-83348136D01*
X89399452Y-83350546D01*
X89545091Y-83356269D01*
X89550800Y-83355441D01*
X89550804Y-83355441D01*
X89750090Y-83326545D01*
X89750094Y-83326544D01*
X89755805Y-83325716D01*
X89957423Y-83257276D01*
X90143193Y-83153240D01*
X90162262Y-83137381D01*
X90302455Y-83020784D01*
X90306893Y-83017093D01*
X90362686Y-82950009D01*
X90379626Y-82929641D01*
X90438563Y-82890057D01*
X90509545Y-82888621D01*
X90570036Y-82925788D01*
X90600829Y-82989759D01*
X90602500Y-83010210D01*
X90602500Y-84560897D01*
X90601422Y-84577344D01*
X90597465Y-84607400D01*
X90602500Y-84645644D01*
X90617519Y-84759724D01*
X90620680Y-84767355D01*
X90663468Y-84870653D01*
X90676314Y-84901667D01*
X90679631Y-84905990D01*
X90696062Y-84973720D01*
X90672842Y-85040812D01*
X90617035Y-85084699D01*
X90570205Y-85093725D01*
X90496038Y-85093725D01*
X90489586Y-85095097D01*
X90489581Y-85095097D01*
X90408843Y-85112259D01*
X90309237Y-85133431D01*
X90303207Y-85136116D01*
X90303206Y-85136116D01*
X90140803Y-85208422D01*
X90140801Y-85208423D01*
X90134773Y-85211107D01*
X90113598Y-85226492D01*
X90046732Y-85250349D01*
X89977580Y-85234269D01*
X89950443Y-85213650D01*
X87488405Y-82751612D01*
X87454379Y-82689300D01*
X87451500Y-82662517D01*
X87451500Y-79954901D01*
X87452578Y-79938453D01*
X87455457Y-79916587D01*
X87456535Y-79908400D01*
X87448460Y-79847067D01*
X87436481Y-79756076D01*
X87387908Y-79638810D01*
X87377686Y-79614132D01*
X87346502Y-79573492D01*
X87307639Y-79522846D01*
X87307637Y-79522844D01*
X87296244Y-79507995D01*
X87284157Y-79492243D01*
X87260097Y-79473781D01*
X87247707Y-79462914D01*
X87132805Y-79348012D01*
X87098779Y-79285700D01*
X87095900Y-79258917D01*
X87095900Y-78659503D01*
X87096978Y-78643056D01*
X87099857Y-78621188D01*
X87100935Y-78613000D01*
X87080881Y-78460676D01*
X87068093Y-78429802D01*
X87025246Y-78326361D01*
X87025245Y-78326359D01*
X87022086Y-78318733D01*
X87006575Y-78298519D01*
X86928557Y-78196843D01*
X86904497Y-78178381D01*
X86892107Y-78167514D01*
X86475603Y-77751010D01*
X86441577Y-77688698D01*
X86446642Y-77617883D01*
X86489189Y-77561047D01*
X86549545Y-77536830D01*
X86552986Y-77536413D01*
X86568124Y-77535500D01*
X91520033Y-77535500D01*
X91588154Y-77555502D01*
G37*
%TD.AperFunction*%
%TA.AperFunction,Conductor*%
G36*
X100835348Y-71856156D02*
G01*
X100956077Y-71909908D01*
X100956085Y-71909911D01*
X100962112Y-71912594D01*
X101040312Y-71929216D01*
X101142456Y-71950928D01*
X101142461Y-71950928D01*
X101148913Y-71952300D01*
X101339887Y-71952300D01*
X101346339Y-71950928D01*
X101346344Y-71950928D01*
X101473903Y-71923814D01*
X101544694Y-71929216D01*
X101601326Y-71972033D01*
X101625820Y-72038671D01*
X101626100Y-72047061D01*
X101626100Y-74731097D01*
X101625022Y-74747544D01*
X101621065Y-74777600D01*
X101627044Y-74823015D01*
X101641119Y-74929924D01*
X101699914Y-75071867D01*
X101793443Y-75193757D01*
X101799989Y-75198780D01*
X101817498Y-75212215D01*
X101829890Y-75223083D01*
X102198796Y-75591990D01*
X102232821Y-75654302D01*
X102235700Y-75681085D01*
X102235700Y-83018117D01*
X102215698Y-83086238D01*
X102198795Y-83107212D01*
X102191686Y-83114321D01*
X102129374Y-83148347D01*
X102058559Y-83143282D01*
X102001723Y-83100735D01*
X101976912Y-83034215D01*
X101976591Y-83025226D01*
X101976591Y-82731896D01*
X101976306Y-82725920D01*
X101962120Y-82577234D01*
X101959861Y-82565500D01*
X101903719Y-82374129D01*
X101899289Y-82363053D01*
X101807972Y-82185750D01*
X101801522Y-82175704D01*
X101678329Y-82018871D01*
X101670092Y-82010222D01*
X101519468Y-81879516D01*
X101509744Y-81872581D01*
X101337124Y-81772718D01*
X101326260Y-81767744D01*
X101137864Y-81702321D01*
X101136875Y-81702080D01*
X101126583Y-81703548D01*
X101122591Y-81717113D01*
X101122591Y-83409728D01*
X101102589Y-83477849D01*
X101048933Y-83524342D01*
X100996591Y-83535728D01*
X100740591Y-83535728D01*
X100672470Y-83515726D01*
X100625977Y-83462070D01*
X100614591Y-83409728D01*
X100614591Y-81721326D01*
X100600550Y-81673506D01*
X100597390Y-81668589D01*
X100597393Y-81597593D01*
X100600306Y-81588866D01*
X100648078Y-81461435D01*
X100651705Y-81446180D01*
X100657231Y-81395315D01*
X100657600Y-81388501D01*
X100657600Y-80615944D01*
X100653125Y-80600705D01*
X100651735Y-80599500D01*
X100644052Y-80597829D01*
X98671715Y-80597829D01*
X98656476Y-80602304D01*
X98655271Y-80603694D01*
X98653600Y-80611377D01*
X98653600Y-81833713D01*
X98658075Y-81848952D01*
X98659465Y-81850157D01*
X98667148Y-81851828D01*
X99929866Y-81851828D01*
X99997987Y-81871830D01*
X100044480Y-81925486D01*
X100054584Y-81995760D01*
X100020884Y-82064959D01*
X99999249Y-82087559D01*
X99991853Y-82096924D01*
X99883670Y-82264469D01*
X99878174Y-82275073D01*
X99803630Y-82460040D01*
X99800236Y-82471498D01*
X99761734Y-82668656D01*
X99760657Y-82677519D01*
X99760591Y-82680228D01*
X99760591Y-82816852D01*
X99740589Y-82884973D01*
X99686933Y-82931466D01*
X99616659Y-82941570D01*
X99607106Y-82939818D01*
X99539876Y-82924791D01*
X99539877Y-82924791D01*
X99534830Y-82923663D01*
X99529107Y-82923343D01*
X99391971Y-82923343D01*
X99253128Y-82938426D01*
X99076340Y-82997922D01*
X98916452Y-83093992D01*
X98911492Y-83098683D01*
X98911490Y-83098684D01*
X98786512Y-83216871D01*
X98780923Y-83222156D01*
X98676077Y-83376432D01*
X98606806Y-83549623D01*
X98576341Y-83733649D01*
X98576698Y-83740466D01*
X98576698Y-83740470D01*
X98582690Y-83854792D01*
X98586103Y-83919924D01*
X98587915Y-83926502D01*
X98625927Y-84064508D01*
X98624733Y-84135494D01*
X98585350Y-84194566D01*
X98520282Y-84222969D01*
X98450188Y-84211684D01*
X98415356Y-84187062D01*
X98153402Y-83925108D01*
X98119376Y-83862796D01*
X98117187Y-83822842D01*
X98118614Y-83809265D01*
X98119304Y-83802700D01*
X98115827Y-83769619D01*
X98100032Y-83619335D01*
X98100032Y-83619333D01*
X98099342Y-83612772D01*
X98040327Y-83431144D01*
X98036901Y-83425209D01*
X97991535Y-83346634D01*
X97944840Y-83265756D01*
X97934666Y-83254456D01*
X97821475Y-83128745D01*
X97821474Y-83128744D01*
X97817053Y-83123834D01*
X97681331Y-83025226D01*
X97667894Y-83015463D01*
X97667893Y-83015462D01*
X97662552Y-83011582D01*
X97656524Y-83008898D01*
X97656522Y-83008897D01*
X97494119Y-82936591D01*
X97494118Y-82936591D01*
X97488088Y-82933906D01*
X97384827Y-82911957D01*
X97307744Y-82895572D01*
X97307739Y-82895572D01*
X97301287Y-82894200D01*
X97110313Y-82894200D01*
X97103861Y-82895572D01*
X97103856Y-82895572D01*
X97026773Y-82911957D01*
X96923512Y-82933906D01*
X96917482Y-82936591D01*
X96917481Y-82936591D01*
X96755078Y-83008897D01*
X96755076Y-83008898D01*
X96749048Y-83011582D01*
X96743707Y-83015462D01*
X96743706Y-83015463D01*
X96730269Y-83025226D01*
X96609845Y-83112719D01*
X96542979Y-83136577D01*
X96473827Y-83120497D01*
X96442151Y-83095096D01*
X96369253Y-83014134D01*
X96265050Y-82938426D01*
X96220094Y-82905763D01*
X96220093Y-82905762D01*
X96214752Y-82901882D01*
X96208724Y-82899198D01*
X96208722Y-82899197D01*
X96046319Y-82826891D01*
X96046318Y-82826891D01*
X96040288Y-82824206D01*
X95946888Y-82804353D01*
X95859944Y-82785872D01*
X95859939Y-82785872D01*
X95853487Y-82784500D01*
X95680100Y-82784500D01*
X95611979Y-82764498D01*
X95565486Y-82710842D01*
X95554100Y-82658500D01*
X95554100Y-80714582D01*
X95574102Y-80646461D01*
X95627758Y-80599968D01*
X95653903Y-80591335D01*
X95674556Y-80586945D01*
X95729030Y-80575367D01*
X95729033Y-80575366D01*
X95735488Y-80573994D01*
X95760406Y-80562900D01*
X95903922Y-80499003D01*
X95903924Y-80499002D01*
X95909952Y-80496318D01*
X95941539Y-80473369D01*
X96008405Y-80449510D01*
X96077557Y-80465589D01*
X96127038Y-80516502D01*
X96141600Y-80575304D01*
X96141601Y-81388498D01*
X96141971Y-81395319D01*
X96147495Y-81446181D01*
X96151121Y-81461433D01*
X96196276Y-81581883D01*
X96204814Y-81597478D01*
X96281315Y-81699553D01*
X96293876Y-81712114D01*
X96395951Y-81788615D01*
X96411546Y-81797153D01*
X96531994Y-81842307D01*
X96547249Y-81845934D01*
X96598114Y-81851460D01*
X96604928Y-81851829D01*
X98127485Y-81851829D01*
X98142724Y-81847354D01*
X98143929Y-81845964D01*
X98145600Y-81838281D01*
X98145600Y-80215829D01*
X98165602Y-80147708D01*
X98219258Y-80101215D01*
X98271600Y-80089829D01*
X100639484Y-80089829D01*
X100654723Y-80085354D01*
X100655928Y-80083964D01*
X100657599Y-80076281D01*
X100657599Y-80040133D01*
X100677601Y-79972012D01*
X100731257Y-79925519D01*
X100757402Y-79916886D01*
X100784643Y-79911096D01*
X100884388Y-79889894D01*
X100921594Y-79873329D01*
X101052822Y-79814903D01*
X101052824Y-79814902D01*
X101058852Y-79812218D01*
X101213353Y-79699966D01*
X101333140Y-79566929D01*
X101336721Y-79562952D01*
X101336722Y-79562951D01*
X101341140Y-79558044D01*
X101436627Y-79392656D01*
X101495642Y-79211028D01*
X101503312Y-79138057D01*
X101514914Y-79027665D01*
X101515604Y-79021100D01*
X101501904Y-78890748D01*
X101496332Y-78837735D01*
X101496332Y-78837733D01*
X101495642Y-78831172D01*
X101436627Y-78649544D01*
X101418456Y-78618070D01*
X101344441Y-78489874D01*
X101341140Y-78484156D01*
X101313130Y-78453047D01*
X101217775Y-78347145D01*
X101217774Y-78347144D01*
X101213353Y-78342234D01*
X101188674Y-78324303D01*
X101076472Y-78242784D01*
X101033118Y-78186562D01*
X101027043Y-78115826D01*
X101060174Y-78053034D01*
X101076472Y-78038912D01*
X101124297Y-78004165D01*
X101169853Y-77971066D01*
X101297640Y-77829144D01*
X101393127Y-77663756D01*
X101452142Y-77482128D01*
X101472104Y-77292200D01*
X101452142Y-77102272D01*
X101393127Y-76920644D01*
X101297640Y-76755256D01*
X101169853Y-76613334D01*
X101015352Y-76501082D01*
X101009324Y-76498398D01*
X101009322Y-76498397D01*
X100846919Y-76426091D01*
X100846918Y-76426091D01*
X100840888Y-76423406D01*
X100834427Y-76422033D01*
X100834422Y-76422031D01*
X100756136Y-76405390D01*
X100693662Y-76371662D01*
X100659341Y-76309512D01*
X100657070Y-76295751D01*
X100652199Y-76250906D01*
X100652198Y-76250902D01*
X100651345Y-76243050D01*
X100600215Y-76106661D01*
X100512861Y-75990105D01*
X100471305Y-75958961D01*
X100428791Y-75902104D01*
X100423765Y-75831286D01*
X100457824Y-75768992D01*
X100471306Y-75757310D01*
X100505680Y-75731548D01*
X100505681Y-75731547D01*
X100512861Y-75726166D01*
X100600215Y-75609610D01*
X100651345Y-75473221D01*
X100658100Y-75411039D01*
X100658100Y-73314771D01*
X100651345Y-73252589D01*
X100600215Y-73116200D01*
X100512861Y-72999644D01*
X100471305Y-72968500D01*
X100428791Y-72911643D01*
X100423765Y-72840825D01*
X100457824Y-72778531D01*
X100471306Y-72766849D01*
X100505680Y-72741087D01*
X100505681Y-72741086D01*
X100512861Y-72735705D01*
X100600215Y-72619149D01*
X100651345Y-72482760D01*
X100658100Y-72420578D01*
X100658100Y-71971263D01*
X100678102Y-71903142D01*
X100731758Y-71856649D01*
X100802032Y-71846545D01*
X100835348Y-71856156D01*
G37*
%TD.AperFunction*%
%TA.AperFunction,Conductor*%
G36*
X100246721Y-50261802D02*
G01*
X100293214Y-50315458D01*
X100304600Y-50367800D01*
X100304600Y-52735684D01*
X100309075Y-52750923D01*
X100310465Y-52752128D01*
X100318148Y-52753799D01*
X100863645Y-52753799D01*
X100931766Y-52773801D01*
X100978259Y-52827457D01*
X100989425Y-52878787D01*
X100988567Y-52885302D01*
X100993602Y-52923546D01*
X101008621Y-53037626D01*
X101057521Y-53155679D01*
X101057709Y-53156134D01*
X101067300Y-53204352D01*
X101067300Y-54434690D01*
X101047298Y-54502811D01*
X100993642Y-54549304D01*
X100924854Y-54559612D01*
X100888800Y-54554865D01*
X100880612Y-54555943D01*
X100858744Y-54558822D01*
X100842297Y-54559900D01*
X96663703Y-54559900D01*
X96647256Y-54558822D01*
X96625388Y-54555943D01*
X96617200Y-54554865D01*
X96578956Y-54559900D01*
X96464876Y-54574919D01*
X96322933Y-54633714D01*
X96201043Y-54727243D01*
X96196020Y-54733789D01*
X96182582Y-54751302D01*
X96171714Y-54763693D01*
X95447212Y-55488195D01*
X95384900Y-55522221D01*
X95358117Y-55525100D01*
X93035901Y-55525100D01*
X93019456Y-55524022D01*
X92989400Y-55520065D01*
X92951158Y-55525100D01*
X92951156Y-55525100D01*
X92837076Y-55540119D01*
X92752200Y-55575276D01*
X92695132Y-55598914D01*
X92640457Y-55640868D01*
X92573243Y-55692443D01*
X92568217Y-55698993D01*
X92568216Y-55698994D01*
X92554782Y-55716502D01*
X92543914Y-55728893D01*
X92304893Y-55967914D01*
X92292503Y-55978781D01*
X92268443Y-55997243D01*
X92202174Y-56083607D01*
X92174914Y-56119133D01*
X92116119Y-56261076D01*
X92096065Y-56413400D01*
X92097143Y-56421588D01*
X92100022Y-56443456D01*
X92101100Y-56459903D01*
X92101100Y-56488400D01*
X92081098Y-56556521D01*
X92027442Y-56603014D01*
X91975100Y-56614400D01*
X91832141Y-56614400D01*
X91825689Y-56615772D01*
X91825684Y-56615772D01*
X91754157Y-56630976D01*
X91645340Y-56654106D01*
X91639310Y-56656791D01*
X91639309Y-56656791D01*
X91476906Y-56729097D01*
X91476904Y-56729098D01*
X91470876Y-56731782D01*
X91316375Y-56844034D01*
X91188588Y-56985956D01*
X91093101Y-57151344D01*
X91034086Y-57332972D01*
X91014124Y-57522900D01*
X91034086Y-57712828D01*
X91093101Y-57894456D01*
X91096404Y-57900178D01*
X91096405Y-57900179D01*
X91119019Y-57939347D01*
X91135900Y-58002347D01*
X91135900Y-61716444D01*
X91119019Y-61779444D01*
X91088073Y-61833044D01*
X91029058Y-62014672D01*
X91028368Y-62021233D01*
X91028368Y-62021235D01*
X91022828Y-62073943D01*
X91009096Y-62204600D01*
X91029058Y-62394528D01*
X91088073Y-62576156D01*
X91183560Y-62741544D01*
X91311347Y-62883466D01*
X91404987Y-62951500D01*
X91456321Y-62988796D01*
X91465848Y-62995718D01*
X91471876Y-62998402D01*
X91471878Y-62998403D01*
X91634281Y-63070709D01*
X91640312Y-63073394D01*
X91728759Y-63092194D01*
X91820656Y-63111728D01*
X91820661Y-63111728D01*
X91827113Y-63113100D01*
X92018087Y-63113100D01*
X92024539Y-63111728D01*
X92024544Y-63111728D01*
X92116441Y-63092194D01*
X92204888Y-63073394D01*
X92210919Y-63070709D01*
X92373322Y-62998403D01*
X92373324Y-62998402D01*
X92379352Y-62995718D01*
X92388880Y-62988796D01*
X92440213Y-62951500D01*
X92514148Y-62897783D01*
X92581014Y-62873925D01*
X92650166Y-62890005D01*
X92699646Y-62940919D01*
X92704616Y-62951498D01*
X92759114Y-63083067D01*
X92781106Y-63111728D01*
X92845215Y-63195276D01*
X92852643Y-63204957D01*
X92859189Y-63209980D01*
X92876702Y-63223418D01*
X92889093Y-63234286D01*
X93994595Y-64339788D01*
X94028621Y-64402100D01*
X94031500Y-64428883D01*
X94031500Y-66719388D01*
X94011498Y-66787509D01*
X93957842Y-66834002D01*
X93887568Y-66844105D01*
X93815000Y-66833671D01*
X93327678Y-66833671D01*
X93325369Y-66833650D01*
X93266453Y-66832570D01*
X93261980Y-66832488D01*
X93252483Y-66833671D01*
X93121872Y-66849940D01*
X93121868Y-66849941D01*
X93117435Y-66850493D01*
X92979255Y-66888166D01*
X92975138Y-66889948D01*
X92975134Y-66889949D01*
X92849704Y-66944227D01*
X92849699Y-66944229D01*
X92845580Y-66946012D01*
X92723528Y-67020952D01*
X92611460Y-67113992D01*
X92515346Y-67220176D01*
X92433893Y-67340936D01*
X92371446Y-67469828D01*
X92327162Y-67608588D01*
X92326419Y-67613006D01*
X92313817Y-67687908D01*
X92282790Y-67751766D01*
X92229140Y-67786422D01*
X92224512Y-67787406D01*
X92218477Y-67790093D01*
X92056078Y-67862397D01*
X92056076Y-67862398D01*
X92050048Y-67865082D01*
X91895547Y-67977334D01*
X91767760Y-68119256D01*
X91672273Y-68284644D01*
X91613258Y-68466272D01*
X91612568Y-68472833D01*
X91612568Y-68472835D01*
X91602475Y-68568869D01*
X91593296Y-68656200D01*
X91613258Y-68846128D01*
X91672273Y-69027756D01*
X91767760Y-69193144D01*
X91895547Y-69335066D01*
X91958950Y-69381131D01*
X92032801Y-69434787D01*
X92050048Y-69447318D01*
X92056076Y-69450002D01*
X92056078Y-69450003D01*
X92176143Y-69503459D01*
X92224512Y-69524994D01*
X92291666Y-69539268D01*
X92404856Y-69563328D01*
X92404861Y-69563328D01*
X92411313Y-69564700D01*
X92602287Y-69564700D01*
X92608739Y-69563328D01*
X92608744Y-69563328D01*
X92721934Y-69539268D01*
X92789088Y-69524994D01*
X92837457Y-69503459D01*
X92957522Y-69450003D01*
X92957524Y-69450002D01*
X92963552Y-69447318D01*
X92980800Y-69434787D01*
X93067399Y-69371868D01*
X93134266Y-69348010D01*
X93160083Y-69349188D01*
X93232765Y-69360050D01*
X93232768Y-69360050D01*
X93237196Y-69360712D01*
X93311855Y-69361168D01*
X93375945Y-69361560D01*
X93375950Y-69361560D01*
X93380417Y-69361587D01*
X93382861Y-69361252D01*
X93386656Y-69361129D01*
X93815000Y-69361129D01*
X93846986Y-69358841D01*
X93881373Y-69356382D01*
X93881374Y-69356382D01*
X93888111Y-69355900D01*
X93924440Y-69345233D01*
X93977868Y-69341412D01*
X94115000Y-69361129D01*
X94579514Y-69361129D01*
X94647635Y-69381131D01*
X94694128Y-69434787D01*
X94704824Y-69500299D01*
X94702084Y-69526366D01*
X94692096Y-69621400D01*
X94712058Y-69811328D01*
X94771073Y-69992956D01*
X94822735Y-70082437D01*
X94839472Y-70151428D01*
X94816252Y-70218520D01*
X94760445Y-70262408D01*
X94689770Y-70269157D01*
X94662367Y-70260541D01*
X94600169Y-70232849D01*
X94600161Y-70232846D01*
X94594134Y-70230163D01*
X94500733Y-70210310D01*
X94413790Y-70191829D01*
X94413785Y-70191829D01*
X94407333Y-70190457D01*
X94216359Y-70190457D01*
X94209907Y-70191829D01*
X94209902Y-70191829D01*
X94122959Y-70210310D01*
X94029558Y-70230163D01*
X94023528Y-70232848D01*
X94023527Y-70232848D01*
X93861124Y-70305154D01*
X93861122Y-70305155D01*
X93855094Y-70307839D01*
X93700593Y-70420091D01*
X93696172Y-70425001D01*
X93696171Y-70425002D01*
X93601721Y-70529900D01*
X93572806Y-70562013D01*
X93477319Y-70727401D01*
X93418304Y-70909029D01*
X93417614Y-70915590D01*
X93417614Y-70915592D01*
X93411152Y-70977079D01*
X93398342Y-71098957D01*
X93399032Y-71105522D01*
X93413385Y-71242079D01*
X93418304Y-71288885D01*
X93477319Y-71470513D01*
X93572806Y-71635901D01*
X93577224Y-71640808D01*
X93577225Y-71640809D01*
X93695982Y-71772702D01*
X93726700Y-71836709D01*
X93728346Y-71857012D01*
X93728346Y-72421343D01*
X93727268Y-72437790D01*
X93723311Y-72467846D01*
X93728346Y-72506090D01*
X93743365Y-72620170D01*
X93802160Y-72762113D01*
X93895689Y-72884003D01*
X93902235Y-72889026D01*
X93919748Y-72902464D01*
X93932139Y-72913332D01*
X95318398Y-74299591D01*
X95352424Y-74361903D01*
X95354613Y-74401855D01*
X95352496Y-74422000D01*
X95353186Y-74428565D01*
X95369080Y-74579785D01*
X95372458Y-74611928D01*
X95428389Y-74784065D01*
X95430417Y-74855030D01*
X95393754Y-74915828D01*
X95330042Y-74947153D01*
X95259509Y-74939061D01*
X95219461Y-74912094D01*
X94220209Y-73912843D01*
X94214572Y-73906825D01*
X94175080Y-73861793D01*
X94171275Y-73857454D01*
X94166744Y-73853882D01*
X94100869Y-73801950D01*
X94098306Y-73799874D01*
X94075460Y-73780873D01*
X94029393Y-73742560D01*
X94024348Y-73739735D01*
X94022342Y-73738356D01*
X94010712Y-73730584D01*
X94008606Y-73729216D01*
X94004067Y-73725638D01*
X93924670Y-73683865D01*
X93921864Y-73682341D01*
X93843623Y-73638524D01*
X93838149Y-73636666D01*
X93835802Y-73635621D01*
X93823027Y-73630132D01*
X93820744Y-73629186D01*
X93815638Y-73626500D01*
X93810124Y-73624788D01*
X93810122Y-73624787D01*
X93729972Y-73599899D01*
X93726836Y-73598880D01*
X93697454Y-73588906D01*
X93642005Y-73570084D01*
X93636285Y-73569255D01*
X93633829Y-73568665D01*
X93620278Y-73565599D01*
X93617825Y-73565077D01*
X93612298Y-73563361D01*
X93606561Y-73562682D01*
X93606556Y-73562681D01*
X93537396Y-73554496D01*
X93523260Y-73552823D01*
X93520001Y-73552394D01*
X93504282Y-73550115D01*
X93437004Y-73540359D01*
X93437000Y-73540359D01*
X93431291Y-73539531D01*
X93348023Y-73542803D01*
X93343076Y-73542900D01*
X89633367Y-73542900D01*
X89565246Y-73522898D01*
X89518753Y-73469242D01*
X89508649Y-73398968D01*
X89538143Y-73334388D01*
X89544272Y-73327805D01*
X89717648Y-73154429D01*
X89730039Y-73143562D01*
X89742260Y-73134185D01*
X89742264Y-73134181D01*
X89746711Y-73130769D01*
X89799302Y-73072972D01*
X89803401Y-73068676D01*
X89818642Y-73053435D01*
X89834660Y-73034278D01*
X89838131Y-73030299D01*
X89888121Y-72975361D01*
X89888122Y-72975360D01*
X89891897Y-72971211D01*
X89894880Y-72966456D01*
X89900871Y-72956907D01*
X89910941Y-72943047D01*
X89912167Y-72941581D01*
X89921770Y-72930095D01*
X89961367Y-72860675D01*
X89964058Y-72856178D01*
X90006534Y-72788465D01*
X90012831Y-72772801D01*
X90020290Y-72757371D01*
X90021937Y-72754483D01*
X90028653Y-72742709D01*
X90030524Y-72737426D01*
X90030527Y-72737419D01*
X90055331Y-72667373D01*
X90057186Y-72662465D01*
X90086997Y-72588307D01*
X90090420Y-72571776D01*
X90095029Y-72555269D01*
X90100664Y-72539357D01*
X90109932Y-72482760D01*
X90113576Y-72460509D01*
X90114538Y-72455320D01*
X90129807Y-72381589D01*
X90129808Y-72381585D01*
X90130744Y-72377063D01*
X90132268Y-72350634D01*
X90133715Y-72337529D01*
X90134618Y-72332011D01*
X90135526Y-72326466D01*
X90133916Y-72223964D01*
X90133900Y-72221986D01*
X90133900Y-54730967D01*
X90153902Y-54662846D01*
X90170805Y-54641872D01*
X90352042Y-54460635D01*
X90401990Y-54400898D01*
X90451571Y-54341600D01*
X90451574Y-54341596D01*
X90455170Y-54337295D01*
X90507889Y-54244870D01*
X90559014Y-54195610D01*
X90617335Y-54181300D01*
X91786796Y-54181300D01*
X91944516Y-54166252D01*
X92147484Y-54106708D01*
X92240022Y-54059048D01*
X92330199Y-54012604D01*
X92330202Y-54012602D01*
X92335530Y-54009858D01*
X92419838Y-53943633D01*
X92497153Y-53882902D01*
X92497157Y-53882898D01*
X92501870Y-53879196D01*
X92522023Y-53855972D01*
X92592660Y-53774571D01*
X92638390Y-53741255D01*
X92796969Y-53673614D01*
X92796970Y-53673614D01*
X92802136Y-53671410D01*
X92806826Y-53668329D01*
X92806834Y-53668325D01*
X92827442Y-53654788D01*
X92896618Y-53634100D01*
X93128733Y-53634100D01*
X93196854Y-53654102D01*
X93217828Y-53671005D01*
X93345115Y-53798292D01*
X93347262Y-53800087D01*
X93464150Y-53897821D01*
X93464154Y-53897824D01*
X93468455Y-53901420D01*
X93655841Y-54008304D01*
X93661128Y-54010176D01*
X93661132Y-54010178D01*
X93853907Y-54078442D01*
X93853909Y-54078443D01*
X93859194Y-54080314D01*
X94020374Y-54106708D01*
X94051396Y-54111788D01*
X94072085Y-54115176D01*
X94077699Y-54115088D01*
X94077701Y-54115088D01*
X94188144Y-54113353D01*
X94287783Y-54111788D01*
X94293286Y-54110708D01*
X94293290Y-54110708D01*
X94301571Y-54109083D01*
X94342273Y-54107804D01*
X94346755Y-54108394D01*
X94414939Y-54117370D01*
X94420538Y-54117106D01*
X94420540Y-54117106D01*
X94507480Y-54113006D01*
X94630425Y-54107208D01*
X94840707Y-54059048D01*
X94845868Y-54056847D01*
X94845873Y-54056845D01*
X95033969Y-53976614D01*
X95033970Y-53976614D01*
X95039136Y-53974410D01*
X95043823Y-53971331D01*
X95043829Y-53971328D01*
X95146018Y-53904202D01*
X95219442Y-53855972D01*
X95222880Y-53852909D01*
X95222885Y-53852905D01*
X95259022Y-53820707D01*
X95260379Y-53819498D01*
X95822358Y-53257519D01*
X95827634Y-53252538D01*
X95876327Y-53209154D01*
X95880519Y-53205419D01*
X95934128Y-53137050D01*
X95936617Y-53133975D01*
X95988773Y-53071597D01*
X95992370Y-53067295D01*
X95997253Y-53058735D01*
X96007537Y-53043432D01*
X96010165Y-53040080D01*
X96010175Y-53040065D01*
X96013631Y-53035657D01*
X96054299Y-52958848D01*
X96056201Y-52955388D01*
X96061946Y-52945317D01*
X96099254Y-52879909D01*
X96102548Y-52870607D01*
X96109965Y-52853709D01*
X96114574Y-52845005D01*
X96116280Y-52839658D01*
X96118454Y-52834488D01*
X96120133Y-52835194D01*
X96155296Y-52783182D01*
X96220545Y-52755199D01*
X96235571Y-52754300D01*
X98153909Y-52754300D01*
X98216091Y-52747545D01*
X98352480Y-52696415D01*
X98469036Y-52609061D01*
X98474418Y-52601880D01*
X98477676Y-52597533D01*
X98534536Y-52555020D01*
X98605355Y-52549996D01*
X98667647Y-52584058D01*
X98679326Y-52597536D01*
X98682314Y-52601523D01*
X98694876Y-52614085D01*
X98796951Y-52690586D01*
X98812546Y-52699124D01*
X98932994Y-52744278D01*
X98948249Y-52747905D01*
X98999114Y-52753431D01*
X99005928Y-52753800D01*
X99778485Y-52753800D01*
X99793724Y-52749325D01*
X99794929Y-52747935D01*
X99796600Y-52740252D01*
X99796600Y-50367800D01*
X99816602Y-50299679D01*
X99870258Y-50253186D01*
X99922600Y-50241800D01*
X100178600Y-50241800D01*
X100246721Y-50261802D01*
G37*
%TD.AperFunction*%
%TA.AperFunction,Conductor*%
G36*
X95255079Y-70459816D02*
G01*
X95317277Y-70487508D01*
X95317285Y-70487511D01*
X95323312Y-70490194D01*
X95416712Y-70510047D01*
X95503656Y-70528528D01*
X95503661Y-70528528D01*
X95510113Y-70529900D01*
X95701087Y-70529900D01*
X95707539Y-70528528D01*
X95707544Y-70528528D01*
X95881433Y-70491566D01*
X95881432Y-70491566D01*
X95887888Y-70490194D01*
X95888042Y-70490920D01*
X95953943Y-70489036D01*
X96011009Y-70521802D01*
X96104195Y-70614988D01*
X96138221Y-70677300D01*
X96141100Y-70704083D01*
X96141100Y-72420578D01*
X96147855Y-72482760D01*
X96198985Y-72619149D01*
X96286339Y-72735705D01*
X96293519Y-72741086D01*
X96293520Y-72741087D01*
X96327894Y-72766849D01*
X96370409Y-72823709D01*
X96375434Y-72894527D01*
X96341375Y-72956820D01*
X96327902Y-72968494D01*
X96286339Y-72999644D01*
X96198985Y-73116200D01*
X96195833Y-73124608D01*
X96195832Y-73124610D01*
X96154909Y-73233773D01*
X96112268Y-73290538D01*
X96045706Y-73315238D01*
X95976358Y-73300031D01*
X95947832Y-73278639D01*
X94932251Y-72263058D01*
X94898225Y-72200746D01*
X94895346Y-72173963D01*
X94895346Y-71857012D01*
X94915348Y-71788891D01*
X94927710Y-71772702D01*
X95046467Y-71640809D01*
X95046468Y-71640808D01*
X95050886Y-71635901D01*
X95146373Y-71470513D01*
X95205388Y-71288885D01*
X95210308Y-71242079D01*
X95224660Y-71105522D01*
X95225350Y-71098957D01*
X95212540Y-70977079D01*
X95206078Y-70915592D01*
X95206078Y-70915590D01*
X95205388Y-70909029D01*
X95146373Y-70727401D01*
X95094711Y-70637920D01*
X95077974Y-70568929D01*
X95101194Y-70501837D01*
X95157001Y-70457949D01*
X95227676Y-70451200D01*
X95255079Y-70459816D01*
G37*
%TD.AperFunction*%
%TA.AperFunction,Conductor*%
G36*
X106393521Y-49345716D02*
G01*
X106440014Y-49399372D01*
X106451400Y-49451714D01*
X106451400Y-61674715D01*
X106431398Y-61742836D01*
X106377742Y-61789329D01*
X106307468Y-61799433D01*
X106242888Y-61769939D01*
X106236305Y-61763811D01*
X105707302Y-61234809D01*
X105673277Y-61172496D01*
X105671087Y-61132543D01*
X105672514Y-61118965D01*
X105673204Y-61112400D01*
X105653242Y-60922472D01*
X105594227Y-60740844D01*
X105498740Y-60575456D01*
X105370953Y-60433534D01*
X105216452Y-60321282D01*
X105210424Y-60318598D01*
X105210415Y-60318593D01*
X105198545Y-60313308D01*
X105144450Y-60267327D01*
X105123803Y-60199399D01*
X105143157Y-60131091D01*
X105149826Y-60121511D01*
X105157686Y-60111267D01*
X105216481Y-59969324D01*
X105236535Y-59817000D01*
X105232578Y-59786942D01*
X105231500Y-59770497D01*
X105231500Y-54491001D01*
X105232578Y-54474554D01*
X105235457Y-54452686D01*
X105236535Y-54444498D01*
X105223941Y-54348840D01*
X105225192Y-54317047D01*
X105224042Y-54316926D01*
X105243314Y-54133563D01*
X105244004Y-54126998D01*
X105224042Y-53937070D01*
X105165027Y-53755442D01*
X105069540Y-53590054D01*
X104941753Y-53448132D01*
X104787252Y-53335880D01*
X104781224Y-53333196D01*
X104781222Y-53333195D01*
X104618819Y-53260889D01*
X104618818Y-53260889D01*
X104612788Y-53258204D01*
X104511686Y-53236714D01*
X104432444Y-53219870D01*
X104432439Y-53219870D01*
X104425987Y-53218498D01*
X104235013Y-53218498D01*
X104228561Y-53219870D01*
X104228556Y-53219870D01*
X104149314Y-53236714D01*
X104048212Y-53258204D01*
X104042182Y-53260889D01*
X104042181Y-53260889D01*
X103879778Y-53333195D01*
X103879776Y-53333196D01*
X103873748Y-53335880D01*
X103719247Y-53448132D01*
X103591460Y-53590054D01*
X103495973Y-53755442D01*
X103436958Y-53937070D01*
X103416996Y-54126998D01*
X103436958Y-54316926D01*
X103495973Y-54498554D01*
X103591460Y-54663942D01*
X103595878Y-54668849D01*
X103595879Y-54668850D01*
X103654350Y-54733789D01*
X103719247Y-54805864D01*
X103873748Y-54918116D01*
X103879776Y-54920800D01*
X103879778Y-54920801D01*
X103989749Y-54969763D01*
X104043845Y-55015743D01*
X104064500Y-55084870D01*
X104064500Y-56995737D01*
X104044498Y-57063858D01*
X103990842Y-57110351D01*
X103920568Y-57120455D01*
X103912303Y-57118984D01*
X103733944Y-57081072D01*
X103733939Y-57081072D01*
X103727487Y-57079700D01*
X103536513Y-57079700D01*
X103530055Y-57081073D01*
X103527359Y-57081356D01*
X103457521Y-57068583D01*
X103405675Y-57020081D01*
X103401045Y-57011099D01*
X103399727Y-57007044D01*
X103304240Y-56841656D01*
X103176453Y-56699734D01*
X103021952Y-56587482D01*
X103015924Y-56584798D01*
X103015922Y-56584797D01*
X102969451Y-56564107D01*
X102915355Y-56518127D01*
X102894700Y-56449000D01*
X102894700Y-50870992D01*
X102914702Y-50802871D01*
X102960710Y-50763385D01*
X102959400Y-50761116D01*
X102965120Y-50757813D01*
X102971152Y-50755128D01*
X103125653Y-50642876D01*
X103151707Y-50613940D01*
X103249021Y-50505862D01*
X103249022Y-50505861D01*
X103253440Y-50500954D01*
X103348927Y-50335566D01*
X103407942Y-50153938D01*
X103414905Y-50087694D01*
X103427214Y-49970575D01*
X103427904Y-49964010D01*
X103407942Y-49774082D01*
X103348927Y-49592454D01*
X103304044Y-49514714D01*
X103287306Y-49445718D01*
X103310527Y-49378627D01*
X103366334Y-49334740D01*
X103413163Y-49325714D01*
X106325400Y-49325714D01*
X106393521Y-49345716D01*
G37*
%TD.AperFunction*%
%TA.AperFunction,Conductor*%
G36*
X86197394Y-60558920D02*
G01*
X86245772Y-60610882D01*
X86259100Y-60667282D01*
X86259100Y-61324702D01*
X86239098Y-61392823D01*
X86185442Y-61439316D01*
X86115168Y-61449420D01*
X86050588Y-61419926D01*
X86013267Y-61363638D01*
X86002769Y-61331329D01*
X86000727Y-61325044D01*
X85905240Y-61159656D01*
X85799089Y-61041764D01*
X85768374Y-60977759D01*
X85777138Y-60907306D01*
X85803632Y-60868361D01*
X85876107Y-60795886D01*
X85888498Y-60785018D01*
X85906011Y-60771580D01*
X85912557Y-60766557D01*
X86006086Y-60644667D01*
X86016691Y-60619064D01*
X86061239Y-60563783D01*
X86128602Y-60541362D01*
X86197394Y-60558920D01*
G37*
%TD.AperFunction*%
%TD*%
M02*
