%TF.GenerationSoftware,KiCad,Pcbnew,(6.0.9-0)*%
%TF.CreationDate,2022-11-16T22:53:00+01:00*%
%TF.ProjectId,GlowCoreMini PCB,476c6f77-436f-4726-954d-696e69205043,rev?*%
%TF.SameCoordinates,Original*%
%TF.FileFunction,Copper,L1,Top*%
%TF.FilePolarity,Positive*%
%FSLAX46Y46*%
G04 Gerber Fmt 4.6, Leading zero omitted, Abs format (unit mm)*
G04 Created by KiCad (PCBNEW (6.0.9-0)) date 2022-11-16 22:53:00*
%MOMM*%
%LPD*%
G01*
G04 APERTURE LIST*
G04 Aperture macros list*
%AMRoundRect*
0 Rectangle with rounded corners*
0 $1 Rounding radius*
0 $2 $3 $4 $5 $6 $7 $8 $9 X,Y pos of 4 corners*
0 Add a 4 corners polygon primitive as box body*
4,1,4,$2,$3,$4,$5,$6,$7,$8,$9,$2,$3,0*
0 Add four circle primitives for the rounded corners*
1,1,$1+$1,$2,$3*
1,1,$1+$1,$4,$5*
1,1,$1+$1,$6,$7*
1,1,$1+$1,$8,$9*
0 Add four rect primitives between the rounded corners*
20,1,$1+$1,$2,$3,$4,$5,0*
20,1,$1+$1,$4,$5,$6,$7,0*
20,1,$1+$1,$6,$7,$8,$9,0*
20,1,$1+$1,$8,$9,$2,$3,0*%
G04 Aperture macros list end*
%TA.AperFunction,SMDPad,CuDef*%
%ADD10RoundRect,0.225000X0.250000X-0.225000X0.250000X0.225000X-0.250000X0.225000X-0.250000X-0.225000X0*%
%TD*%
%TA.AperFunction,SMDPad,CuDef*%
%ADD11RoundRect,0.135000X0.135000X0.185000X-0.135000X0.185000X-0.135000X-0.185000X0.135000X-0.185000X0*%
%TD*%
%TA.AperFunction,SMDPad,CuDef*%
%ADD12RoundRect,0.250000X0.400000X1.450000X-0.400000X1.450000X-0.400000X-1.450000X0.400000X-1.450000X0*%
%TD*%
%TA.AperFunction,SMDPad,CuDef*%
%ADD13RoundRect,0.200000X0.200000X0.275000X-0.200000X0.275000X-0.200000X-0.275000X0.200000X-0.275000X0*%
%TD*%
%TA.AperFunction,SMDPad,CuDef*%
%ADD14R,0.550013X1.000000*%
%TD*%
%TA.AperFunction,SMDPad,CuDef*%
%ADD15R,1.250013X0.700000*%
%TD*%
%TA.AperFunction,SMDPad,CuDef*%
%ADD16RoundRect,0.140000X-0.170000X0.140000X-0.170000X-0.140000X0.170000X-0.140000X0.170000X0.140000X0*%
%TD*%
%TA.AperFunction,SMDPad,CuDef*%
%ADD17R,0.900000X0.280010*%
%TD*%
%TA.AperFunction,SMDPad,CuDef*%
%ADD18R,0.280010X0.900000*%
%TD*%
%TA.AperFunction,SMDPad,CuDef*%
%ADD19R,3.300000X3.300000*%
%TD*%
%TA.AperFunction,SMDPad,CuDef*%
%ADD20RoundRect,0.225000X-0.225000X-0.250000X0.225000X-0.250000X0.225000X0.250000X-0.225000X0.250000X0*%
%TD*%
%TA.AperFunction,SMDPad,CuDef*%
%ADD21R,2.046380X1.620015*%
%TD*%
%TA.AperFunction,SMDPad,CuDef*%
%ADD22R,1.200000X0.900000*%
%TD*%
%TA.AperFunction,SMDPad,CuDef*%
%ADD23R,1.300000X1.200000*%
%TD*%
%TA.AperFunction,SMDPad,CuDef*%
%ADD24RoundRect,0.250000X-0.412500X-0.650000X0.412500X-0.650000X0.412500X0.650000X-0.412500X0.650000X0*%
%TD*%
%TA.AperFunction,SMDPad,CuDef*%
%ADD25O,0.750013X0.250013*%
%TD*%
%TA.AperFunction,SMDPad,CuDef*%
%ADD26RoundRect,0.135000X-0.185000X0.135000X-0.185000X-0.135000X0.185000X-0.135000X0.185000X0.135000X0*%
%TD*%
%TA.AperFunction,SMDPad,CuDef*%
%ADD27R,1.050013X0.550013*%
%TD*%
%TA.AperFunction,SMDPad,CuDef*%
%ADD28R,0.450013X1.400000*%
%TD*%
%TA.AperFunction,SMDPad,CuDef*%
%ADD29R,2.400000X0.450013*%
%TD*%
%TA.AperFunction,SMDPad,CuDef*%
%ADD30RoundRect,0.135000X-0.135000X-0.185000X0.135000X-0.185000X0.135000X0.185000X-0.135000X0.185000X0*%
%TD*%
%TA.AperFunction,SMDPad,CuDef*%
%ADD31RoundRect,0.140000X0.140000X0.170000X-0.140000X0.170000X-0.140000X-0.170000X0.140000X-0.170000X0*%
%TD*%
%TA.AperFunction,SMDPad,CuDef*%
%ADD32R,1.000000X0.600000*%
%TD*%
%TA.AperFunction,SMDPad,CuDef*%
%ADD33R,1.070003X0.600000*%
%TD*%
%TA.AperFunction,SMDPad,CuDef*%
%ADD34RoundRect,0.135000X0.185000X-0.135000X0.185000X0.135000X-0.185000X0.135000X-0.185000X-0.135000X0*%
%TD*%
%TA.AperFunction,SMDPad,CuDef*%
%ADD35R,0.900000X1.200000*%
%TD*%
%TA.AperFunction,SMDPad,CuDef*%
%ADD36R,1.200000X1.300000*%
%TD*%
%TA.AperFunction,SMDPad,CuDef*%
%ADD37R,0.419990X0.600000*%
%TD*%
%TA.AperFunction,SMDPad,CuDef*%
%ADD38R,0.900000X2.000000*%
%TD*%
%TA.AperFunction,SMDPad,CuDef*%
%ADD39R,2.000000X0.900000*%
%TD*%
%TA.AperFunction,SMDPad,CuDef*%
%ADD40R,1.330000X1.330000*%
%TD*%
%TA.AperFunction,SMDPad,CuDef*%
%ADD41R,0.600000X1.300000*%
%TD*%
%TA.AperFunction,SMDPad,CuDef*%
%ADD42R,0.300000X1.300000*%
%TD*%
%TA.AperFunction,ComponentPad*%
%ADD43O,1.200000X2.200000*%
%TD*%
%TA.AperFunction,ComponentPad*%
%ADD44O,1.200000X1.800000*%
%TD*%
%TA.AperFunction,SMDPad,CuDef*%
%ADD45RoundRect,0.140000X-0.140000X-0.170000X0.140000X-0.170000X0.140000X0.170000X-0.140000X0.170000X0*%
%TD*%
%TA.AperFunction,SMDPad,CuDef*%
%ADD46RoundRect,0.140000X0.170000X-0.140000X0.170000X0.140000X-0.170000X0.140000X-0.170000X-0.140000X0*%
%TD*%
%TA.AperFunction,ViaPad*%
%ADD47C,0.800000*%
%TD*%
%TA.AperFunction,ViaPad*%
%ADD48C,1.300000*%
%TD*%
%TA.AperFunction,Conductor*%
%ADD49C,0.150000*%
%TD*%
%TA.AperFunction,Conductor*%
%ADD50C,0.400000*%
%TD*%
%TA.AperFunction,Conductor*%
%ADD51C,1.000000*%
%TD*%
%TA.AperFunction,Conductor*%
%ADD52C,1.200000*%
%TD*%
%TA.AperFunction,Conductor*%
%ADD53C,0.127000*%
%TD*%
%TA.AperFunction,Conductor*%
%ADD54C,0.800000*%
%TD*%
%TA.AperFunction,Conductor*%
%ADD55C,0.600000*%
%TD*%
%TA.AperFunction,Conductor*%
%ADD56C,1.300000*%
%TD*%
%TA.AperFunction,Conductor*%
%ADD57C,1.400000*%
%TD*%
G04 APERTURE END LIST*
D10*
%TO.P,C14,1*%
%TO.N,GND*%
X100406200Y-79997600D03*
%TO.P,C14,2*%
%TO.N,+3V3*%
X100406200Y-78447600D03*
%TD*%
D11*
%TO.P,R6,1*%
%TO.N,GND*%
X85092000Y-83743800D03*
%TO.P,R6,2*%
%TO.N,Net-(R6-Pad2)*%
X84072000Y-83743800D03*
%TD*%
D12*
%TO.P,F1,1*%
%TO.N,Net-(F1-Pad1)*%
X98745000Y-78740000D03*
%TO.P,F1,2*%
%TO.N,VBUS*%
X94295000Y-78740000D03*
%TD*%
D13*
%TO.P,R4,1*%
%TO.N,GND*%
X92699950Y-79248600D03*
%TO.P,R4,2*%
%TO.N,IO25{slash}VBUS*%
X91049950Y-79248600D03*
%TD*%
D14*
%TO.P,U9,1,LE*%
%TO.N,Net-(R9-Pad1)*%
X104188515Y-80413349D03*
%TO.P,U9,2,GND*%
%TO.N,GND*%
X103238553Y-80413349D03*
%TO.P,U9,3,D*%
%TO.N,+3V3*%
X102288591Y-80413349D03*
%TO.P,U9,4,Q*%
%TO.N,Net-(C10-Pad2)*%
X102288591Y-83213451D03*
%TO.P,U9,5,VCC*%
%TO.N,+3V3*%
X103238553Y-83213451D03*
%TO.P,U9,6,OE#*%
%TO.N,unconnected-(U9-Pad6)*%
X104188515Y-83213451D03*
%TD*%
D11*
%TO.P,R5,1*%
%TO.N,Net-(R5-Pad1)*%
X87736750Y-75692600D03*
%TO.P,R5,2*%
%TO.N,+5V*%
X86716750Y-75692600D03*
%TD*%
D15*
%TO.P,U5,1,G*%
%TO.N,Net-(R5-Pad1)*%
X86476549Y-76660303D03*
%TO.P,U5,2,S*%
%TO.N,+5V*%
X86476549Y-74760379D03*
%TO.P,U5,3,D*%
%TO.N,5V AFTER MOSFET*%
X84476549Y-75710341D03*
%TD*%
D16*
%TO.P,C8,1*%
%TO.N,GND*%
X101513848Y-74897587D03*
%TO.P,C8,2*%
%TO.N,Net-(C8-Pad2)*%
X101513848Y-75857587D03*
%TD*%
D17*
%TO.P,U12,1,DCD*%
%TO.N,unconnected-(U12-Pad1)*%
X106361721Y-80490133D03*
%TO.P,U12,2,RI*%
%TO.N,unconnected-(U12-Pad2)*%
X106361721Y-80990514D03*
%TO.P,U12,3,GND*%
%TO.N,GND*%
X106361721Y-81490895D03*
%TO.P,U12,4,D+*%
%TO.N,USB-C DATA+*%
X106361721Y-81991276D03*
%TO.P,U12,5,D-*%
%TO.N,USB-C DATA-*%
X106361721Y-82491657D03*
%TO.P,U12,6,VDD*%
%TO.N,Net-(C10-Pad2)*%
X106361721Y-82992038D03*
%TO.P,U12,7,REGIN*%
X106361721Y-83492419D03*
D18*
%TO.P,U12,8,VBUS*%
%TO.N,VBUS*%
X107360451Y-84491403D03*
%TO.P,U12,9,~{RST}*%
%TO.N,unconnected-(U12-Pad9)*%
X107860832Y-84491403D03*
%TO.P,U12,10,NC*%
%TO.N,unconnected-(U12-Pad10)*%
X108361213Y-84491403D03*
%TO.P,U12,11,~{SUSPEND}*%
%TO.N,unconnected-(U12-Pad11)*%
X108861594Y-84491403D03*
%TO.P,U12,12,SUSPEND*%
%TO.N,unconnected-(U12-Pad12)*%
X109361975Y-84491403D03*
%TO.P,U12,13,NC*%
%TO.N,unconnected-(U12-Pad13)*%
X109862356Y-84491403D03*
%TO.P,U12,14,NC*%
%TO.N,unconnected-(U12-Pad14)*%
X110362737Y-84491403D03*
D17*
%TO.P,U12,15,NC*%
%TO.N,unconnected-(U12-Pad15)*%
X111361721Y-83492419D03*
%TO.P,U12,16,NC*%
%TO.N,unconnected-(U12-Pad16)*%
X111361721Y-82992038D03*
%TO.P,U12,17,NC*%
%TO.N,unconnected-(U12-Pad17)*%
X111361721Y-82491657D03*
%TO.P,U12,18,NC*%
%TO.N,unconnected-(U12-Pad18)*%
X111361721Y-81991276D03*
%TO.P,U12,19,NC*%
%TO.N,unconnected-(U12-Pad19)*%
X111361721Y-81490895D03*
%TO.P,U12,20,NC*%
%TO.N,unconnected-(U12-Pad20)*%
X111361721Y-80990514D03*
%TO.P,U12,21,NC*%
%TO.N,unconnected-(U12-Pad21)*%
X111361721Y-80490133D03*
D18*
%TO.P,U12,22,NC*%
%TO.N,unconnected-(U12-Pad22)*%
X110362737Y-79491403D03*
%TO.P,U12,23,CTS*%
%TO.N,unconnected-(U12-Pad23)*%
X109862356Y-79491403D03*
%TO.P,U12,24,RTS*%
%TO.N,RTS*%
X109361975Y-79491403D03*
%TO.P,U12,25,RXD*%
%TO.N,TXD0*%
X108861594Y-79491403D03*
%TO.P,U12,26,TXD*%
%TO.N,RXD0*%
X108361213Y-79491403D03*
%TO.P,U12,27,DSR*%
%TO.N,unconnected-(U12-Pad27)*%
X107860832Y-79491403D03*
%TO.P,U12,28,DTR*%
%TO.N,DTR*%
X107360451Y-79491403D03*
D19*
%TO.P,U12,29,GND_PAD*%
%TO.N,GND*%
X108861594Y-81991276D03*
%TD*%
D20*
%TO.P,C6,1*%
%TO.N,GND*%
X102758448Y-75354787D03*
%TO.P,C6,2*%
%TO.N,+5V*%
X104308448Y-75354787D03*
%TD*%
D21*
%TO.P,U7,1,K*%
%TO.N,+5V*%
X99237831Y-75361825D03*
%TO.P,U7,2,A*%
%TO.N,VBUS*%
X94107020Y-75361825D03*
%TD*%
D20*
%TO.P,C5,1*%
%TO.N,GND*%
X101853400Y-53545855D03*
%TO.P,C5,2*%
%TO.N,Net-(C4-Pad2)*%
X103403400Y-53545855D03*
%TD*%
D22*
%TO.P,SW2,1,1*%
%TO.N,unconnected-(SW2-Pad1)*%
X83985932Y-59653775D03*
%TO.P,SW2,2,2*%
%TO.N,unconnected-(SW2-Pad2)*%
X83985932Y-55053825D03*
D23*
%TO.P,SW2,3,3*%
%TO.N,Net-(R9-Pad1)*%
X85535843Y-59028679D03*
%TO.P,SW2,4,4*%
%TO.N,+3V3*%
X85535843Y-55678667D03*
%TD*%
D24*
%TO.P,C7,1*%
%TO.N,5V AFTER MOSFET*%
X98183300Y-51155600D03*
%TO.P,C7,2*%
%TO.N,GND*%
X101308300Y-51155600D03*
%TD*%
D25*
%TO.P,U2,1,VCCA*%
%TO.N,5V AFTER MOSFET*%
X91605780Y-53617663D03*
%TO.P,U2,2,A1*%
%TO.N,Net-(R1-Pad1)*%
X91605780Y-53117536D03*
%TO.P,U2,3,A2*%
%TO.N,GND*%
X91605780Y-52617663D03*
%TO.P,U2,4,GND*%
X91605780Y-52117536D03*
%TO.P,U2,5,DIR*%
X88505958Y-52117536D03*
%TO.P,U2,6,B2*%
X88505958Y-52617663D03*
%TO.P,U2,7,B1*%
%TO.N,IO16{slash}LED1*%
X88505958Y-53117536D03*
%TO.P,U2,8,VCCB*%
%TO.N,+3V3*%
X88505958Y-53617663D03*
%TD*%
D24*
%TO.P,C9,1*%
%TO.N,5V AFTER MOSFET*%
X93230300Y-51003200D03*
%TO.P,C9,2*%
%TO.N,GND*%
X96355300Y-51003200D03*
%TD*%
D26*
%TO.P,R13,1*%
%TO.N,Net-(R13-Pad1)*%
X85956750Y-70737600D03*
%TO.P,R13,2*%
%TO.N,IO0*%
X85956750Y-71757600D03*
%TD*%
D22*
%TO.P,SW3,1,1*%
%TO.N,unconnected-(SW3-Pad1)*%
X83985932Y-73547575D03*
%TO.P,SW3,2,2*%
%TO.N,unconnected-(SW3-Pad2)*%
X83985932Y-68947625D03*
D23*
%TO.P,SW3,3,3*%
%TO.N,GND*%
X85535843Y-72922479D03*
%TO.P,SW3,4,4*%
%TO.N,Net-(R12-Pad1)*%
X85535843Y-69572467D03*
%TD*%
D11*
%TO.P,R14,1*%
%TO.N,EN*%
X93702600Y-52730400D03*
%TO.P,R14,2*%
%TO.N,+3V3*%
X92682600Y-52730400D03*
%TD*%
D16*
%TO.P,C1,1*%
%TO.N,5V AFTER MOSFET*%
X91617800Y-50370800D03*
%TO.P,C1,2*%
%TO.N,GND*%
X91617800Y-51330800D03*
%TD*%
D27*
%TO.P,U3,1,VDD*%
%TO.N,Net-(C4-Pad2)*%
X103617317Y-51615455D03*
%TO.P,U3,2,L/R*%
%TO.N,IO15{slash}WS{slash}TDO*%
X104967584Y-51615455D03*
%TO.P,U3,3,CLK*%
%TO.N,IO14{slash}SCK{slash}TMS*%
X104967584Y-50765569D03*
%TO.P,U3,4,DATA*%
%TO.N,IO32{slash}SD*%
X103617317Y-50765569D03*
D28*
%TO.P,U3,5,GND*%
%TO.N,GND*%
X102567533Y-51190512D03*
D29*
%TO.P,U3,6,GND*%
X104292451Y-52415557D03*
D28*
%TO.P,U3,7,GND*%
X106017368Y-51190512D03*
D29*
%TO.P,U3,8,GND*%
X104292451Y-49965468D03*
%TD*%
D30*
%TO.P,R12,1*%
%TO.N,Net-(R12-Pad1)*%
X93444600Y-53898800D03*
%TO.P,R12,2*%
%TO.N,EN*%
X94464600Y-53898800D03*
%TD*%
%TO.P,R9,1*%
%TO.N,Net-(R9-Pad1)*%
X84783200Y-60731400D03*
%TO.P,R9,2*%
%TO.N,GND*%
X85803200Y-60731400D03*
%TD*%
%TO.P,R3,1*%
%TO.N,IO25{slash}VBUS*%
X91898350Y-78004000D03*
%TO.P,R3,2*%
%TO.N,VBUS*%
X92918350Y-78004000D03*
%TD*%
D31*
%TO.P,C4,1*%
%TO.N,GND*%
X105509000Y-53289200D03*
%TO.P,C4,2*%
%TO.N,Net-(C4-Pad2)*%
X104549000Y-53289200D03*
%TD*%
D22*
%TO.P,SW4,1,1*%
%TO.N,unconnected-(SW4-Pad1)*%
X83985932Y-66600675D03*
%TO.P,SW4,2,2*%
%TO.N,unconnected-(SW4-Pad2)*%
X83985932Y-62000725D03*
D23*
%TO.P,SW4,3,3*%
%TO.N,GND*%
X85535843Y-65975579D03*
%TO.P,SW4,4,4*%
%TO.N,Net-(R13-Pad1)*%
X85535843Y-62625567D03*
%TD*%
D32*
%TO.P,U6,1,IN*%
%TO.N,+5V*%
X104401852Y-78750711D03*
%TO.P,U6,2,GND*%
%TO.N,GND*%
X104401852Y-77800749D03*
%TO.P,U6,3,EN*%
%TO.N,+5V*%
X104401852Y-76850787D03*
%TO.P,U6,4,BYP*%
%TO.N,Net-(C8-Pad2)*%
X101801648Y-76850787D03*
%TO.P,U6,5,OUT*%
%TO.N,+3V3*%
X101801648Y-78750711D03*
%TD*%
D33*
%TO.P,U11,1,G*%
%TO.N,Net-(R6-Pad2)*%
X89728677Y-78800962D03*
%TO.P,U11,2,S*%
%TO.N,GND*%
X89728677Y-76901038D03*
%TO.P,U11,3,D*%
%TO.N,Net-(R5-Pad1)*%
X87258523Y-77851000D03*
%TD*%
D34*
%TO.P,R7,1*%
%TO.N,GND*%
X89890600Y-88147200D03*
%TO.P,R7,2*%
%TO.N,USB-C CC1*%
X89890600Y-87127200D03*
%TD*%
D11*
%TO.P,R15,1*%
%TO.N,IO0*%
X85041200Y-67919600D03*
%TO.P,R15,2*%
%TO.N,+3V3*%
X84021200Y-67919600D03*
%TD*%
D35*
%TO.P,SW1,1,1*%
%TO.N,unconnected-(SW1-Pad1)*%
X88851489Y-87692668D03*
%TO.P,SW1,2,2*%
%TO.N,unconnected-(SW1-Pad2)*%
X84251539Y-87692668D03*
D36*
%TO.P,SW1,3,3*%
%TO.N,+3V3*%
X88226393Y-86142757D03*
%TO.P,SW1,4,4*%
%TO.N,IO33{slash}MAINBUTTON*%
X84876381Y-86142757D03*
%TD*%
D34*
%TO.P,R8,1*%
%TO.N,GND*%
X90855800Y-88147200D03*
%TO.P,R8,2*%
%TO.N,USB-C CC2*%
X90855800Y-87127200D03*
%TD*%
D10*
%TO.P,C10,1*%
%TO.N,GND*%
X105333800Y-87770000D03*
%TO.P,C10,2*%
%TO.N,Net-(C10-Pad2)*%
X105333800Y-86220000D03*
%TD*%
D37*
%TO.P,U14,1,E*%
%TO.N,RTS*%
X102321613Y-87767162D03*
%TO.P,U14,2,B*%
%TO.N,DTR*%
X102971600Y-87767162D03*
%TO.P,U14,3,C*%
%TO.N,IO0*%
X103621587Y-87767162D03*
%TO.P,U14,4,E*%
%TO.N,DTR*%
X103621587Y-85867238D03*
%TO.P,U14,5,B*%
%TO.N,RTS*%
X102971600Y-85867238D03*
%TO.P,U14,6,C*%
%TO.N,EN*%
X102321613Y-85867238D03*
%TD*%
D38*
%TO.P,U1,1,GND*%
%TO.N,GND*%
X105250150Y-55653500D03*
%TO.P,U1,2,3V3*%
%TO.N,+3V3*%
X103980150Y-55653500D03*
%TO.P,U1,3,EN*%
%TO.N,EN*%
X102710150Y-55653500D03*
%TO.P,U1,4,SENSOR_VP*%
%TO.N,unconnected-(U1-Pad4)*%
X101440150Y-55653500D03*
%TO.P,U1,5,SENSOR_VN*%
%TO.N,unconnected-(U1-Pad5)*%
X100170150Y-55653500D03*
%TO.P,U1,6,I34*%
%TO.N,unconnected-(U1-Pad6)*%
X98900150Y-55653500D03*
%TO.P,U1,7,I35*%
%TO.N,unconnected-(U1-Pad7)*%
X97630150Y-55653500D03*
%TO.P,U1,8,IO32*%
%TO.N,IO32{slash}SD*%
X96360150Y-55653500D03*
%TO.P,U1,9,IO33*%
%TO.N,IO33{slash}MAINBUTTON*%
X95090150Y-55653500D03*
%TO.P,U1,10,IO25*%
%TO.N,IO25{slash}VBUS*%
X93820150Y-55653500D03*
%TO.P,U1,11,IO26*%
%TO.N,IO26*%
X92550150Y-55653500D03*
%TO.P,U1,12,IO27*%
%TO.N,IO27*%
X91280150Y-55653500D03*
%TO.P,U1,13,IO14*%
%TO.N,IO14{slash}SCK{slash}TMS*%
X90010150Y-55653500D03*
%TO.P,U1,14,IO12*%
%TO.N,IO12{slash}TDI*%
X88740150Y-55653500D03*
D39*
%TO.P,U1,15,GND*%
%TO.N,GND*%
X87740150Y-58438500D03*
%TO.P,U1,16,IO13*%
%TO.N,IO13{slash}TCK*%
X87740150Y-59708500D03*
%TO.P,U1,17,NC*%
%TO.N,unconnected-(U1-Pad17)*%
X87740150Y-60978500D03*
%TO.P,U1,18,NC*%
%TO.N,unconnected-(U1-Pad18)*%
X87740150Y-62248500D03*
%TO.P,U1,19,NC*%
%TO.N,unconnected-(U1-Pad19)*%
X87740150Y-63518500D03*
%TO.P,U1,20,NC*%
%TO.N,unconnected-(U1-Pad20)*%
X87740150Y-64788500D03*
%TO.P,U1,21,NC*%
%TO.N,unconnected-(U1-Pad21)*%
X87740150Y-66058500D03*
%TO.P,U1,22,NC*%
%TO.N,unconnected-(U1-Pad22)*%
X87740150Y-67328500D03*
%TO.P,U1,23,IO15*%
%TO.N,IO15{slash}WS{slash}TDO*%
X87740150Y-68598500D03*
%TO.P,U1,24,IO2*%
%TO.N,unconnected-(U1-Pad24)*%
X87740150Y-69868500D03*
D38*
%TO.P,U1,25,IO0*%
%TO.N,IO0*%
X88740150Y-72653500D03*
%TO.P,U1,26,IO4*%
%TO.N,unconnected-(U1-Pad26)*%
X90010150Y-72653500D03*
%TO.P,U1,27,IO16*%
%TO.N,IO16{slash}LED1*%
X91280150Y-72653500D03*
%TO.P,U1,28,IO17*%
%TO.N,unconnected-(U1-Pad28)*%
X92550150Y-72653500D03*
%TO.P,U1,29,IO5*%
%TO.N,IO5*%
X93820150Y-72653500D03*
%TO.P,U1,30,IO18*%
%TO.N,unconnected-(U1-Pad30)*%
X95090150Y-72653500D03*
%TO.P,U1,31,IO19*%
%TO.N,unconnected-(U1-Pad31)*%
X96360150Y-72653500D03*
%TO.P,U1,32,NC1*%
%TO.N,unconnected-(U1-Pad32)*%
X97630150Y-72653500D03*
%TO.P,U1,33,IO21*%
%TO.N,unconnected-(U1-Pad33)*%
X98900150Y-72653500D03*
%TO.P,U1,34,RXD0*%
%TO.N,RXD0*%
X100170150Y-72653500D03*
%TO.P,U1,35,TXD0*%
%TO.N,TXD0*%
X101440150Y-72653500D03*
%TO.P,U1,36,IO22*%
%TO.N,IO22{slash}LED LETCH EN*%
X102710150Y-72653500D03*
%TO.P,U1,37,IO23*%
%TO.N,IO23{slash}POWERMOSFETS*%
X103980150Y-72653500D03*
%TO.P,U1,38,GND*%
%TO.N,GND*%
X105250150Y-72653500D03*
D40*
%TO.P,U1,39,GND*%
X99585150Y-64988500D03*
X95915150Y-64988500D03*
X99585150Y-61318500D03*
X97750150Y-64988500D03*
X95915150Y-61318500D03*
X99585150Y-63153500D03*
X95915150Y-63153500D03*
X97750150Y-63153500D03*
X97750150Y-61318500D03*
%TD*%
D41*
%TO.P,USB1,A1B12,GND*%
%TO.N,GND*%
X93348652Y-82539284D03*
%TO.P,USB1,A4B9,VBUS*%
%TO.N,Net-(F1-Pad1)*%
X94148499Y-82539284D03*
D42*
%TO.P,USB1,A5,CC1*%
%TO.N,USB-C CC1*%
X95298614Y-82539284D03*
%TO.P,USB1,A6,DP1*%
%TO.N,USB-C DATA+*%
X96298614Y-82539284D03*
%TO.P,USB1,A7,DN1*%
%TO.N,USB-C DATA-*%
X96798486Y-82539284D03*
%TO.P,USB1,A8,SBU1*%
%TO.N,unconnected-(USB1-PadA8)*%
X97798486Y-82539284D03*
D41*
%TO.P,USB1,B1A12,GND*%
%TO.N,GND*%
X99748448Y-82539284D03*
%TO.P,USB1,B4A9,VBUS*%
%TO.N,Net-(F1-Pad1)*%
X98948601Y-82539284D03*
D42*
%TO.P,USB1,B5,CC2*%
%TO.N,USB-C CC2*%
X98298614Y-82539284D03*
%TO.P,USB1,B6,DP2*%
%TO.N,USB-C DATA+*%
X97298614Y-82539284D03*
%TO.P,USB1,B7,DN2*%
%TO.N,USB-C DATA-*%
X95798486Y-82539284D03*
%TO.P,USB1,B8,SBU2*%
%TO.N,unconnected-(USB1-PadB8)*%
X94798486Y-82539284D03*
D43*
%TO.P,USB1,SHELL,SHELL*%
%TO.N,GND*%
X92228509Y-83281728D03*
D44*
X92228509Y-87461814D03*
X100868591Y-87461814D03*
D43*
X100868591Y-83281728D03*
%TD*%
D45*
%TO.P,C11,1*%
%TO.N,Net-(C10-Pad2)*%
X104574400Y-85064600D03*
%TO.P,C11,2*%
%TO.N,GND*%
X105534400Y-85064600D03*
%TD*%
D20*
%TO.P,C12,1*%
%TO.N,GND*%
X98589800Y-53669000D03*
%TO.P,C12,2*%
%TO.N,EN*%
X100139800Y-53669000D03*
%TD*%
D11*
%TO.P,R1,1*%
%TO.N,Net-(R1-Pad1)*%
X89460800Y-51257200D03*
%TO.P,R1,2*%
%TO.N,LED1 DATA OUT*%
X88440800Y-51257200D03*
%TD*%
D46*
%TO.P,C13,1*%
%TO.N,IO0*%
X85931350Y-68247800D03*
%TO.P,C13,2*%
%TO.N,GND*%
X85931350Y-67287800D03*
%TD*%
D14*
%TO.P,U4,1,LE*%
%TO.N,IO22{slash}LED LETCH EN*%
X85938260Y-79702149D03*
%TO.P,U4,2,GND*%
%TO.N,GND*%
X84988298Y-79702149D03*
%TO.P,U4,3,D*%
%TO.N,IO23{slash}POWERMOSFETS*%
X84038336Y-79702149D03*
%TO.P,U4,4,Q*%
%TO.N,Net-(R6-Pad2)*%
X84038336Y-82502251D03*
%TO.P,U4,5,VCC*%
%TO.N,+3V3*%
X84988298Y-82502251D03*
%TO.P,U4,6,OE#*%
%TO.N,unconnected-(U4-Pad6)*%
X85938260Y-82502251D03*
%TD*%
D46*
%TO.P,C2,1*%
%TO.N,+3V3*%
X87528400Y-53540600D03*
%TO.P,C2,2*%
%TO.N,GND*%
X87528400Y-52580600D03*
%TD*%
D20*
%TO.P,C3,1*%
%TO.N,+3V3*%
X95631000Y-53669000D03*
%TO.P,C3,2*%
%TO.N,GND*%
X97181000Y-53669000D03*
%TD*%
D47*
%TO.N,GND*%
X90017600Y-80568800D03*
%TO.N,IO14{slash}SCK{slash}TMS*%
X101219000Y-63830200D03*
X102582500Y-62712600D03*
%TO.N,IO32{slash}SD*%
X102565200Y-57378600D03*
%TO.N,GND*%
X106000929Y-51203353D03*
X105350550Y-54144150D03*
X104292451Y-49965468D03*
%TO.N,IO32{slash}SD*%
X102514400Y-49964010D03*
%TO.N,IO14{slash}SCK{slash}TMS*%
X101577102Y-49530000D03*
%TO.N,5V AFTER MOSFET*%
X85531460Y-75892271D03*
%TO.N,IO16{slash}LED1*%
X84455000Y-78384400D03*
X85615300Y-53060600D03*
%TO.N,+3V3*%
X87376000Y-49682400D03*
X88646000Y-50233100D03*
%TO.N,5V AFTER MOSFET*%
X90030800Y-53072800D03*
%TO.N,GND*%
X92614666Y-53775184D03*
%TO.N,IO27*%
X87630000Y-55549800D03*
%TO.N,Net-(C4-Pad2)*%
X92506800Y-68656200D03*
X103225600Y-67894200D03*
X104330500Y-54126998D03*
%TO.N,IO15{slash}WS{slash}TDO*%
X99999800Y-67030600D03*
X105298300Y-64897000D03*
X103784400Y-64338200D03*
%TO.N,IO12{slash}TDI*%
X92320900Y-58378106D03*
%TO.N,IO13{slash}TCK*%
X100761800Y-59377100D03*
%TO.N,IO14{slash}SCK{slash}TMS*%
X91927628Y-57522900D03*
X91922600Y-62204600D03*
X95834200Y-66268600D03*
%TO.N,IO15{slash}WS{slash}TDO*%
X96672400Y-66979800D03*
%TO.N,IO26*%
X93548200Y-57454800D03*
%TO.N,IO32{slash}SD*%
X94005400Y-62382400D03*
X96123098Y-57378600D03*
X95656400Y-60071000D03*
%TO.N,Net-(R13-Pad1)*%
X85166200Y-61696600D03*
X84963000Y-70815200D03*
%TO.N,Net-(R12-Pad1)*%
X86571300Y-54483000D03*
X85166200Y-68766100D03*
%TO.N,+3V3*%
X84263704Y-67577177D03*
X85187116Y-54512884D03*
X95097600Y-58775600D03*
X95605600Y-69621400D03*
X94311846Y-71098957D03*
%TO.N,+5V*%
X100558600Y-77292200D03*
%TO.N,+3V3*%
X96266000Y-74422000D03*
%TO.N,Net-(R9-Pad1)*%
X84277677Y-60630277D03*
%TO.N,+3V3*%
X100602100Y-79021100D03*
X93045210Y-84645910D03*
%TO.N,IO33{slash}MAINBUTTON*%
X86621780Y-56573900D03*
X95123000Y-57327800D03*
X92868875Y-59596500D03*
X83997800Y-84632800D03*
%TO.N,GND*%
X92049600Y-79095600D03*
X90805000Y-77698600D03*
%TO.N,Net-(R9-Pad1)*%
X90591525Y-86002225D03*
%TO.N,Net-(C10-Pad2)*%
X104759700Y-61112400D03*
X100776652Y-61036200D03*
%TO.N,GND*%
X101320600Y-74180002D03*
%TO.N,TXD0*%
X101244400Y-71043800D03*
X103809800Y-65430400D03*
X105579700Y-77927200D03*
X101244400Y-66167000D03*
%TO.N,RXD0*%
X105301925Y-79508475D03*
X103759000Y-66624200D03*
X100533200Y-69875400D03*
X100711000Y-67792600D03*
%TO.N,GND*%
X106654600Y-88011000D03*
X111328200Y-84328000D03*
%TO.N,VBUS*%
X95402400Y-85471000D03*
X95453200Y-79705200D03*
X95250000Y-87807800D03*
X106388352Y-85661048D03*
%TO.N,RTS*%
X111252000Y-79654400D03*
X102321613Y-86832187D03*
%TO.N,DTR*%
X106769935Y-79756857D03*
X106316369Y-86759827D03*
%TO.N,IO0*%
X103784400Y-86982050D03*
%TO.N,EN*%
X103632000Y-57988200D03*
X103403400Y-85005700D03*
%TO.N,IO0*%
X103505000Y-69062600D03*
%TO.N,Net-(C10-Pad2)*%
X106034435Y-84333709D03*
X105079800Y-81178400D03*
%TO.N,USB-C DATA-*%
X95758000Y-83693000D03*
X96672400Y-85496400D03*
%TO.N,USB-C DATA+*%
X98044000Y-85580700D03*
X97205800Y-83802700D03*
%TO.N,IO23{slash}POWERMOSFETS*%
X102590600Y-70231000D03*
X84886800Y-80881700D03*
%TO.N,IO22{slash}LED LETCH EN*%
X85953600Y-80822800D03*
X102622225Y-71215375D03*
%TO.N,IO25{slash}VBUS*%
X101244400Y-58064400D03*
X91871800Y-80238600D03*
D48*
%TO.N,*%
X83845400Y-52730400D03*
X89484200Y-82194400D03*
D47*
%TO.N,5V AFTER MOSFET*%
X94996000Y-52374800D03*
%TO.N,GND*%
X90652600Y-63550800D03*
X86115198Y-64252802D03*
X99466400Y-52603400D03*
X90652600Y-69088000D03*
X84988400Y-71805800D03*
X90652600Y-60434700D03*
X86115198Y-61341000D03*
X86097900Y-57810400D03*
%TO.N,+5V*%
X96062800Y-77393800D03*
X89560400Y-74701400D03*
%TO.N,LED1 DATA OUT*%
X95687451Y-49619886D03*
%TD*%
D49*
%TO.N,IO14{slash}SCK{slash}TMS*%
X105613200Y-49326800D02*
X101780302Y-49326800D01*
X105841800Y-50141353D02*
X105841800Y-49555400D01*
X105217584Y-50765569D02*
X105841800Y-50141353D01*
X105841800Y-49555400D02*
X105613200Y-49326800D01*
X101780302Y-49326800D02*
X101577102Y-49530000D01*
X104967584Y-50765569D02*
X105217584Y-50765569D01*
%TO.N,Net-(C10-Pad2)*%
X105079800Y-81178400D02*
X104952800Y-81178400D01*
X104952800Y-81178400D02*
X104216200Y-81915000D01*
X104216200Y-81915000D02*
X103251000Y-81915000D01*
X102288591Y-82877409D02*
X102288591Y-83213451D01*
X103251000Y-81915000D02*
X102288591Y-82877409D01*
%TO.N,+3V3*%
X103238553Y-83213451D02*
X103238553Y-82587847D01*
X103238553Y-82587847D02*
X103479600Y-82346800D01*
X104521000Y-82346800D02*
X104851200Y-82016600D01*
X102870000Y-79502000D02*
X102288591Y-80083409D01*
X103479600Y-82346800D02*
X104521000Y-82346800D01*
X102288591Y-80083409D02*
X102288591Y-80413349D01*
X104851200Y-82016600D02*
X105232200Y-82016600D01*
X105681800Y-81567000D02*
X105681800Y-80739000D01*
X105232200Y-82016600D02*
X105681800Y-81567000D01*
X105681800Y-80739000D02*
X104444800Y-79502000D01*
X104444800Y-79502000D02*
X102870000Y-79502000D01*
X100406200Y-78447600D02*
X100012200Y-78447600D01*
X100012200Y-78447600D02*
X99771200Y-78206600D01*
X99771200Y-78206600D02*
X99771200Y-77038200D01*
X100406200Y-74142600D02*
X96545400Y-74142600D01*
X96545400Y-74142600D02*
X96266000Y-74422000D01*
X99771200Y-77038200D02*
X100634800Y-76174600D01*
X100634800Y-76174600D02*
X100634800Y-74371200D01*
X100634800Y-74371200D02*
X100406200Y-74142600D01*
%TO.N,GND*%
X85092000Y-83743800D02*
X90500200Y-83743800D01*
X90500200Y-83743800D02*
X90962272Y-83281728D01*
X90962272Y-83281728D02*
X92228509Y-83281728D01*
%TO.N,+3V3*%
X84582000Y-84175600D02*
X86549157Y-86142757D01*
X86549157Y-86142757D02*
X88111079Y-86142757D01*
X88111079Y-86142757D02*
X89671836Y-84582000D01*
X89671836Y-84582000D02*
X91414600Y-84582000D01*
X91414600Y-84582000D02*
X91694000Y-84861400D01*
X91694000Y-84861400D02*
X92829720Y-84861400D01*
X92829720Y-84861400D02*
X93045210Y-84645910D01*
X84988298Y-82502251D02*
X84988298Y-82829502D01*
X84988298Y-82829502D02*
X84582000Y-83235800D01*
X84582000Y-83235800D02*
X84582000Y-84175600D01*
%TO.N,USB-C CC2*%
X90855800Y-87127200D02*
X90756800Y-87127200D01*
X90756800Y-87127200D02*
X89738200Y-86108600D01*
X89738200Y-85699600D02*
X90119200Y-85318600D01*
X90119200Y-85318600D02*
X90957400Y-85318600D01*
X89738200Y-86108600D02*
X89738200Y-85699600D01*
X91338400Y-85699600D02*
X93573600Y-85699600D01*
X90957400Y-85318600D02*
X91338400Y-85699600D01*
X93573600Y-85699600D02*
X94818200Y-84455000D01*
X94818200Y-84455000D02*
X98018600Y-84455000D01*
X98018600Y-84455000D02*
X98298614Y-84174986D01*
X98298614Y-84174986D02*
X98298614Y-82539284D01*
%TO.N,USB-C CC1*%
X89890600Y-87127200D02*
X89230200Y-86466800D01*
X89230200Y-86466800D02*
X89230200Y-85623400D01*
X89230200Y-85623400D02*
X89890600Y-84963000D01*
X89890600Y-84963000D02*
X91160600Y-84963000D01*
X91160600Y-84963000D02*
X91516200Y-85318600D01*
X91516200Y-85318600D02*
X93223170Y-85318600D01*
X93223170Y-85318600D02*
X95298614Y-83243156D01*
X95298614Y-83243156D02*
X95298614Y-82539284D01*
%TO.N,IO33{slash}MAINBUTTON*%
X83997800Y-84632800D02*
X84761067Y-85396067D01*
X84761067Y-85396067D02*
X84761067Y-86345957D01*
%TO.N,IO14{slash}SCK{slash}TMS*%
X102582500Y-62712600D02*
X101464900Y-63830200D01*
X101464900Y-63830200D02*
X101219000Y-63830200D01*
D50*
%TO.N,GND*%
X105151700Y-63368700D02*
X103708200Y-61925200D01*
X103708200Y-61925200D02*
X97143450Y-61925200D01*
X97143450Y-61925200D02*
X95915150Y-63153500D01*
X95915150Y-63153500D02*
X95816700Y-63153500D01*
D49*
%TO.N,IO32{slash}SD*%
X102565200Y-57378600D02*
X96123098Y-57378600D01*
%TO.N,EN*%
X103632000Y-57988200D02*
X103632000Y-57302400D01*
X103632000Y-57302400D02*
X102611700Y-56282100D01*
X102611700Y-56282100D02*
X102611700Y-55037500D01*
X102611700Y-55037500D02*
X101904800Y-54330600D01*
X101904800Y-54330600D02*
X101244400Y-54330600D01*
X101244400Y-54330600D02*
X100582800Y-53669000D01*
X100582800Y-53669000D02*
X100139800Y-53669000D01*
%TO.N,+3V3*%
X95097600Y-58775600D02*
X103962200Y-58775600D01*
X103962200Y-58775600D02*
X104343200Y-58394600D01*
X104343200Y-58394600D02*
X104343200Y-56769000D01*
X104343200Y-56769000D02*
X103881700Y-56307500D01*
X103881700Y-56307500D02*
X103881700Y-55653500D01*
%TO.N,IO32{slash}SD*%
X102514400Y-49964010D02*
X102567410Y-49964010D01*
X102567410Y-49964010D02*
X103368969Y-50765569D01*
X103368969Y-50765569D02*
X103617317Y-50765569D01*
D51*
%TO.N,GND*%
X100913600Y-51156200D02*
X99949000Y-52120800D01*
X99949000Y-52120800D02*
X99466400Y-52603400D01*
D49*
X101853400Y-53545855D02*
X100428345Y-52120800D01*
X100428345Y-52120800D02*
X99949000Y-52120800D01*
X106013770Y-51190512D02*
X106000929Y-51203353D01*
X106017368Y-51190512D02*
X106013770Y-51190512D01*
X105350550Y-54144150D02*
X105250150Y-54244550D01*
X105250150Y-54244550D02*
X105250150Y-55653500D01*
%TO.N,Net-(C4-Pad2)*%
X104330500Y-54126998D02*
X104549000Y-53908498D01*
X104549000Y-53908498D02*
X104549000Y-53289200D01*
%TO.N,GND*%
X105509000Y-53289200D02*
X105250150Y-53548050D01*
X105250150Y-53548050D02*
X105250150Y-55653500D01*
X104292451Y-52415557D02*
X104635357Y-52415557D01*
X104635357Y-52415557D02*
X105509000Y-53289200D01*
X102567533Y-51190512D02*
X101343212Y-51190512D01*
X101343212Y-51190512D02*
X101308300Y-51155600D01*
%TO.N,+3V3*%
X85187116Y-54512884D02*
X85013800Y-54339568D01*
X84480400Y-51739800D02*
X84480400Y-50317400D01*
X84480400Y-50317400D02*
X85318600Y-49479200D01*
X85013800Y-52273200D02*
X84480400Y-51739800D01*
X85013800Y-54339568D02*
X85013800Y-52273200D01*
X85318600Y-49479200D02*
X87172800Y-49479200D01*
X87172800Y-49479200D02*
X87376000Y-49682400D01*
%TO.N,IO16{slash}LED1*%
X84455000Y-78384400D02*
X84607400Y-78536800D01*
X84607400Y-78536800D02*
X87884000Y-78536800D01*
X88747600Y-76555600D02*
X89458800Y-75844400D01*
X87884000Y-78536800D02*
X88747600Y-77673200D01*
X88747600Y-77673200D02*
X88747600Y-76555600D01*
X89458800Y-75844400D02*
X90601800Y-75844400D01*
X90601800Y-75844400D02*
X91280150Y-75166050D01*
X91280150Y-75166050D02*
X91280150Y-72653500D01*
%TO.N,GND*%
X84988298Y-79702149D02*
X84988298Y-79298902D01*
X85318600Y-78968600D02*
X88290400Y-78968600D01*
X84988298Y-79298902D02*
X85318600Y-78968600D01*
X88290400Y-78968600D02*
X89728677Y-77530323D01*
X89728677Y-77530323D02*
X89728677Y-76901038D01*
X90805000Y-77698600D02*
X90526239Y-77698600D01*
X90526239Y-77698600D02*
X89728677Y-76901038D01*
%TO.N,Net-(R5-Pad1)*%
X87258523Y-77851000D02*
X87258523Y-77442277D01*
X87258523Y-77442277D02*
X86476549Y-76660303D01*
D52*
%TO.N,5V AFTER MOSFET*%
X84476549Y-75710341D02*
X85349530Y-75710341D01*
D49*
X85349530Y-75710341D02*
X85531460Y-75892271D01*
%TO.N,Net-(R9-Pad1)*%
X84657723Y-60630277D02*
X85564393Y-59723607D01*
X84277677Y-60630277D02*
X84657723Y-60630277D01*
X85564393Y-59723607D02*
X85564393Y-59028679D01*
%TO.N,+3V3*%
X85564393Y-54890161D02*
X85564393Y-55678667D01*
X85187116Y-54512884D02*
X85564393Y-54890161D01*
%TO.N,Net-(R12-Pad1)*%
X86571300Y-54483000D02*
X86672900Y-54381400D01*
X86672900Y-54381400D02*
X92962000Y-54381400D01*
X92962000Y-54381400D02*
X93444600Y-53898800D01*
%TO.N,IO16{slash}LED1*%
X86000499Y-53060600D02*
X85615300Y-53060600D01*
X86918800Y-53060600D02*
X86000499Y-53060600D01*
D53*
X87518900Y-53051100D02*
X86928300Y-53051100D01*
X86928300Y-53051100D02*
X86918800Y-53060600D01*
X88439522Y-53051100D02*
X87518900Y-53051100D01*
X88505958Y-53117536D02*
X88439522Y-53051100D01*
D49*
%TO.N,GND*%
X87528400Y-52580600D02*
X88468895Y-52580600D01*
X88468895Y-52580600D02*
X88505958Y-52617663D01*
%TO.N,+3V3*%
X89992200Y-50215800D02*
X88663300Y-50215800D01*
X88663300Y-50215800D02*
X88646000Y-50233100D01*
%TO.N,LED1 DATA OUT*%
X92024200Y-49631600D02*
X88392000Y-49631600D01*
X88392000Y-49631600D02*
X88036400Y-49987200D01*
X88036400Y-49987200D02*
X88036400Y-50852800D01*
X88036400Y-50852800D02*
X88440800Y-51257200D01*
%TO.N,+3V3*%
X92303600Y-51968400D02*
X92303600Y-51231800D01*
X92303600Y-51968400D02*
X92303600Y-52568600D01*
X92303600Y-52568600D02*
X92682600Y-52947600D01*
%TO.N,5V AFTER MOSFET*%
X91823600Y-50193000D02*
X92052200Y-50193000D01*
X92052200Y-50193000D02*
X92786200Y-50927000D01*
X92786200Y-50927000D02*
X92786200Y-51155600D01*
D53*
%TO.N,+3V3*%
X91465400Y-50850800D02*
X90627200Y-50850800D01*
X92176600Y-51104800D02*
X91922600Y-50850800D01*
D49*
X90627200Y-50850800D02*
X89992200Y-50215800D01*
D53*
X91922600Y-50850800D02*
X91465400Y-50850800D01*
D49*
%TO.N,GND*%
X88505958Y-52117536D02*
X88505958Y-52057642D01*
X88505958Y-52057642D02*
X88950800Y-51612800D01*
X88950800Y-50850800D02*
X89154000Y-50647600D01*
X88950800Y-51612800D02*
X88950800Y-50850800D01*
X89154000Y-50647600D02*
X89712800Y-50647600D01*
X89712800Y-50647600D02*
X91182736Y-52117536D01*
X91182736Y-52117536D02*
X91605780Y-52117536D01*
%TO.N,Net-(R1-Pad1)*%
X89460800Y-51257200D02*
X91321136Y-53117536D01*
X91321136Y-53117536D02*
X91605780Y-53117536D01*
%TO.N,+3V3*%
X85890100Y-53809900D02*
X85564393Y-54135607D01*
X86207600Y-53492400D02*
X85890100Y-53809900D01*
%TO.N,GND*%
X91617800Y-51330800D02*
X91617800Y-52105516D01*
X91617800Y-52105516D02*
X91605780Y-52117536D01*
D53*
%TO.N,+3V3*%
X92303600Y-51231800D02*
X92176600Y-51104800D01*
D49*
X87780663Y-53617663D02*
X87566500Y-53403500D01*
X85564393Y-54135607D02*
X85564393Y-55678667D01*
X87477600Y-53492400D02*
X86207600Y-53492400D01*
X87566500Y-53403500D02*
X87477600Y-53492400D01*
X88505958Y-53617663D02*
X87780663Y-53617663D01*
%TO.N,5V AFTER MOSFET*%
X91605780Y-53617663D02*
X90575663Y-53617663D01*
X90575663Y-53617663D02*
X90030800Y-53072800D01*
%TO.N,GND*%
X91605780Y-52617663D02*
X91855780Y-52617663D01*
X92182786Y-53219186D02*
X92614666Y-53651066D01*
X92614666Y-53651066D02*
X92614666Y-53775184D01*
X91855780Y-52617663D02*
X92182786Y-52944669D01*
X92182786Y-52944669D02*
X92182786Y-53219186D01*
%TO.N,EN*%
X94363000Y-53898800D02*
X94363000Y-53494400D01*
X94363000Y-53494400D02*
X93824200Y-52955600D01*
X93824200Y-52955600D02*
X93751400Y-52955600D01*
%TO.N,+3V3*%
X92688000Y-52832000D02*
X92688000Y-52269800D01*
X92688000Y-52269800D02*
X92811600Y-52146200D01*
X93929200Y-52146200D02*
X94234000Y-52451000D01*
X94234000Y-52451000D02*
X94234000Y-52705000D01*
X95198000Y-53669000D02*
X95631000Y-53669000D01*
X92811600Y-52146200D02*
X93929200Y-52146200D01*
X94234000Y-52705000D02*
X95198000Y-53669000D01*
%TO.N,LED1 DATA OUT*%
X92024200Y-49631600D02*
X95675737Y-49631600D01*
X95675737Y-49631600D02*
X95687451Y-49619886D01*
%TO.N,5V AFTER MOSFET*%
X95072200Y-52451000D02*
X94996000Y-52374800D01*
D51*
X93752000Y-51130800D02*
X94031400Y-51130800D01*
X94031400Y-51130800D02*
X94996000Y-52095400D01*
D54*
X94996000Y-52095400D02*
X94996000Y-52374800D01*
D49*
%TO.N,EN*%
X94640400Y-53898800D02*
X95123000Y-54381400D01*
X95123000Y-54381400D02*
X99427400Y-54381400D01*
X99427400Y-54381400D02*
X100139800Y-53669000D01*
%TO.N,GND*%
X91605780Y-52617663D02*
X91818363Y-52617663D01*
%TO.N,5V AFTER MOSFET*%
X91605780Y-53617663D02*
X91848137Y-53617663D01*
%TO.N,GND*%
X88505958Y-52117536D02*
X88621264Y-52117536D01*
X88505958Y-52117536D02*
X88505958Y-52617663D01*
%TO.N,Net-(R1-Pad1)*%
X89458800Y-51280000D02*
X89461400Y-51280000D01*
%TO.N,GND*%
X91605780Y-52117536D02*
X91605780Y-52617663D01*
%TO.N,LED1 DATA OUT*%
X91922600Y-49631600D02*
X92024200Y-49631600D01*
%TO.N,IO26*%
X93548200Y-57454800D02*
X92550150Y-56456750D01*
X92550150Y-56456750D02*
X92550150Y-55653500D01*
%TO.N,IO27*%
X87630000Y-55549800D02*
X87757000Y-55676800D01*
X87757000Y-55676800D02*
X87757000Y-56718200D01*
X87757000Y-56718200D02*
X88061800Y-57023000D01*
X88061800Y-57023000D02*
X89077800Y-57023000D01*
X89077800Y-57023000D02*
X89484200Y-57429400D01*
X89484200Y-57429400D02*
X89738200Y-57429400D01*
X89738200Y-57429400D02*
X91313000Y-59004200D01*
X92659200Y-59004200D02*
X93065600Y-58597800D01*
X91313000Y-59004200D02*
X92659200Y-59004200D01*
X93065600Y-58597800D02*
X93065600Y-57988200D01*
X93065600Y-57988200D02*
X92583000Y-57505600D01*
X92583000Y-57505600D02*
X92583000Y-57150000D01*
X92583000Y-57150000D02*
X92353900Y-56920900D01*
X92353900Y-56920900D02*
X91821000Y-56920900D01*
X91821000Y-56920900D02*
X91280150Y-56380050D01*
X91280150Y-56380050D02*
X91280150Y-55653500D01*
%TO.N,IO33{slash}MAINBUTTON*%
X86861438Y-56573900D02*
X86621780Y-56573900D01*
X92701900Y-59596500D02*
X92633800Y-59664600D01*
X92633800Y-59664600D02*
X91236800Y-59664600D01*
X92868875Y-59596500D02*
X92701900Y-59596500D01*
X87716938Y-57429400D02*
X86861438Y-56573900D01*
X91236800Y-59664600D02*
X89001600Y-57429400D01*
X89001600Y-57429400D02*
X87716938Y-57429400D01*
%TO.N,IO12{slash}TDI*%
X89535000Y-56972200D02*
X88641700Y-56078900D01*
X91414600Y-58470800D02*
X89916000Y-56972200D01*
X92320900Y-58378106D02*
X92228206Y-58470800D01*
X88641700Y-56078900D02*
X88641700Y-55653500D01*
X92228206Y-58470800D02*
X91414600Y-58470800D01*
X89916000Y-56972200D02*
X89535000Y-56972200D01*
%TO.N,+3V3*%
X95097600Y-58775600D02*
X94615000Y-58775600D01*
X94615000Y-58775600D02*
X93192600Y-60198000D01*
X93192600Y-60198000D02*
X91287600Y-60198000D01*
X91287600Y-60198000D02*
X88849200Y-57759600D01*
X88849200Y-57759600D02*
X87503000Y-57759600D01*
X87503000Y-57759600D02*
X86944200Y-57200800D01*
X86944200Y-57200800D02*
X86309200Y-57200800D01*
X86309200Y-57200800D02*
X85564393Y-56455993D01*
X85564393Y-56455993D02*
X85564393Y-55678667D01*
%TO.N,IO14{slash}SCK{slash}TMS*%
X89911700Y-56129700D02*
X89911700Y-55653500D01*
X91304900Y-57522900D02*
X89911700Y-56129700D01*
X91927628Y-57522900D02*
X91304900Y-57522900D01*
%TO.N,GND*%
X86097900Y-57810400D02*
X87013600Y-57810400D01*
X87013600Y-57810400D02*
X87641700Y-58438500D01*
X87641700Y-58438500D02*
X88656400Y-58438500D01*
X88656400Y-58438500D02*
X90652600Y-60434700D01*
%TO.N,Net-(C4-Pad2)*%
X93014800Y-69164200D02*
X92506800Y-68656200D01*
X94335600Y-69164200D02*
X93014800Y-69164200D01*
%TO.N,IO0*%
X103505000Y-69062600D02*
X103022400Y-68580000D01*
X103022400Y-68580000D02*
X100203000Y-68580000D01*
X92252800Y-67614800D02*
X91732100Y-68135500D01*
X100203000Y-68580000D02*
X99237800Y-67614800D01*
X99237800Y-67614800D02*
X92252800Y-67614800D01*
X91732100Y-68135500D02*
X91732100Y-68795900D01*
%TO.N,IO15{slash}WS{slash}TDO*%
X96672400Y-66979800D02*
X96621600Y-67030600D01*
X96621600Y-67030600D02*
X90576400Y-67030600D01*
X90576400Y-67030600D02*
X89008500Y-68598500D01*
X89008500Y-68598500D02*
X87641700Y-68598500D01*
%TO.N,IO0*%
X87160100Y-71031100D02*
X87452200Y-70739000D01*
X87452200Y-70739000D02*
X88620600Y-70739000D01*
X88620600Y-70739000D02*
X89611200Y-69748400D01*
X89611200Y-69748400D02*
X89611200Y-68859400D01*
X89611200Y-68859400D02*
X90373200Y-68097400D01*
X90373200Y-68097400D02*
X90855800Y-68097400D01*
X90855800Y-68097400D02*
X91554300Y-68795900D01*
X91554300Y-68795900D02*
X91732100Y-68795900D01*
%TO.N,GND*%
X90652600Y-69088000D02*
X90652600Y-69316600D01*
X90652600Y-69316600D02*
X88696800Y-71272400D01*
X88696800Y-71272400D02*
X87731600Y-71272400D01*
X87731600Y-71272400D02*
X86081521Y-72922479D01*
X86081521Y-72922479D02*
X85564393Y-72922479D01*
X85564393Y-72922479D02*
X84988400Y-72346486D01*
X84988400Y-72346486D02*
X84988400Y-71805800D01*
%TO.N,IO0*%
X88641700Y-72064100D02*
X88641700Y-72653500D01*
X91732100Y-68795900D02*
X91732100Y-68973700D01*
X91732100Y-68973700D02*
X88641700Y-72064100D01*
%TO.N,Net-(C4-Pad2)*%
X96088200Y-68834000D02*
X94665800Y-68834000D01*
X96570800Y-69138800D02*
X96393000Y-69138800D01*
X94665800Y-68834000D02*
X94335600Y-69164200D01*
X96393000Y-69138800D02*
X96088200Y-68834000D01*
%TO.N,+3V3*%
X95605600Y-69621400D02*
X94311846Y-70915154D01*
X94311846Y-70915154D02*
X94311846Y-71098957D01*
%TO.N,Net-(C4-Pad2)*%
X103505000Y-70104000D02*
X103022400Y-69621400D01*
X104216200Y-70104000D02*
X103505000Y-70104000D01*
X103632000Y-67894200D02*
X104317800Y-68580000D01*
X103225600Y-67894200D02*
X103632000Y-67894200D01*
X101092000Y-69138800D02*
X96570800Y-69138800D01*
X104317800Y-68580000D02*
X104317800Y-70002400D01*
X104317800Y-70002400D02*
X104216200Y-70104000D01*
X103022400Y-69621400D02*
X102539800Y-69138800D01*
X102539800Y-69138800D02*
X101092000Y-69138800D01*
D50*
%TO.N,GND*%
X105151700Y-63368700D02*
X104571300Y-63949100D01*
X104571300Y-63949100D02*
X104571300Y-65556900D01*
X104571300Y-65556900D02*
X105537000Y-66522600D01*
X105537000Y-66522600D02*
X105537000Y-72268200D01*
X105537000Y-72268200D02*
X105151700Y-72653500D01*
D49*
%TO.N,IO23{slash}POWERMOSFETS*%
X102590600Y-70231000D02*
X102717600Y-70231000D01*
X102717600Y-70231000D02*
X103881700Y-71395100D01*
X103881700Y-71395100D02*
X103881700Y-72653500D01*
%TO.N,IO22{slash}LED LETCH EN*%
X102622225Y-71215375D02*
X102622225Y-71342375D01*
X102622225Y-71342375D02*
X102611700Y-71352900D01*
X102611700Y-71352900D02*
X102611700Y-72653500D01*
%TO.N,IO25{slash}VBUS*%
X101244400Y-58064400D02*
X94716600Y-58064400D01*
X94716600Y-58064400D02*
X94284800Y-57632600D01*
X94284800Y-57632600D02*
X94284800Y-56972200D01*
X94284800Y-56972200D02*
X93721700Y-56409100D01*
X93721700Y-56409100D02*
X93721700Y-55653500D01*
%TO.N,TXD0*%
X101244400Y-66167000D02*
X101981000Y-65430400D01*
X101981000Y-65430400D02*
X103809800Y-65430400D01*
%TO.N,IO13{slash}TCK*%
X100761800Y-59377100D02*
X100753700Y-59385200D01*
X92887800Y-61239400D02*
X90068400Y-61239400D01*
X100753700Y-59385200D02*
X94742000Y-59385200D01*
X94742000Y-59385200D02*
X92887800Y-61239400D01*
X90068400Y-61239400D02*
X88537500Y-59708500D01*
X88537500Y-59708500D02*
X87641700Y-59708500D01*
%TO.N,Net-(C10-Pad2)*%
X100776652Y-61036200D02*
X100802052Y-61061600D01*
X100802052Y-61061600D02*
X104708900Y-61061600D01*
X104708900Y-61061600D02*
X104759700Y-61112400D01*
D50*
%TO.N,GND*%
X105151700Y-55653500D02*
X105486200Y-55988000D01*
X105486200Y-55988000D02*
X105486200Y-63034200D01*
X105486200Y-63034200D02*
X105151700Y-63368700D01*
D49*
%TO.N,IO15{slash}WS{slash}TDO*%
X105298300Y-64897000D02*
X106070400Y-64124900D01*
X106070400Y-64124900D02*
X106070400Y-52468271D01*
X106070400Y-52468271D02*
X105217584Y-51615455D01*
X105217584Y-51615455D02*
X104967584Y-51615455D01*
%TO.N,Net-(C4-Pad2)*%
X103403400Y-53545855D02*
X104292345Y-53545855D01*
X104292345Y-53545855D02*
X104549000Y-53289200D01*
X103617317Y-51615455D02*
X103367317Y-51615455D01*
X102666800Y-52315972D02*
X102666800Y-52809255D01*
X103367317Y-51615455D02*
X102666800Y-52315972D01*
X102666800Y-52809255D02*
X103403400Y-53545855D01*
%TO.N,IO15{slash}WS{slash}TDO*%
X100076000Y-67030600D02*
X99999800Y-67030600D01*
X100609400Y-66497200D02*
X100076000Y-67030600D01*
X103784400Y-64338200D02*
X102006400Y-64338200D01*
X102006400Y-64338200D02*
X100914200Y-65430400D01*
X100914200Y-65430400D02*
X100609400Y-65735200D01*
X100609400Y-65735200D02*
X100609400Y-66497200D01*
%TO.N,GND*%
X111328200Y-84328000D02*
X111217874Y-84328000D01*
X109262150Y-82372276D02*
X108861594Y-82372276D01*
X111217874Y-84328000D02*
X109262150Y-82372276D01*
%TO.N,VBUS*%
X106388352Y-85661048D02*
X107360451Y-84688949D01*
X107360451Y-84688949D02*
X107360451Y-84491403D01*
%TO.N,GND*%
X108483324Y-82372276D02*
X108861594Y-82372276D01*
X106807000Y-84048600D02*
X108483324Y-82372276D01*
X106807000Y-84531200D02*
X106807000Y-84048600D01*
X106025841Y-85059048D02*
X106279152Y-85059048D01*
X106279152Y-85059048D02*
X106807000Y-84531200D01*
X106020289Y-85064600D02*
X106025841Y-85059048D01*
X105534400Y-85064600D02*
X106020289Y-85064600D01*
%TO.N,Net-(C10-Pad2)*%
X105980721Y-83492419D02*
X105864581Y-83492419D01*
X105864581Y-83492419D02*
X105486200Y-83870800D01*
X105980721Y-82992038D02*
X105907762Y-82992038D01*
X105907762Y-82992038D02*
X105486200Y-83413600D01*
X105486200Y-83413600D02*
X105486200Y-83870800D01*
%TO.N,USB-C DATA-*%
X96672400Y-85496400D02*
X97358200Y-86182200D01*
X105130600Y-83972400D02*
X105130600Y-83229154D01*
X105130600Y-83229154D02*
X105868097Y-82491657D01*
X105868097Y-82491657D02*
X106361721Y-82491657D01*
X101066600Y-86182200D02*
X102844600Y-84404200D01*
X102844600Y-84404200D02*
X104698800Y-84404200D01*
X97358200Y-86182200D02*
X101066600Y-86182200D01*
X104698800Y-84404200D02*
X105130600Y-83972400D01*
%TO.N,USB-C DATA+*%
X98077500Y-85547200D02*
X100990400Y-85547200D01*
X100990400Y-85547200D02*
X102539800Y-83997800D01*
X102539800Y-83997800D02*
X104583172Y-83997800D01*
X98044000Y-85580700D02*
X98077500Y-85547200D01*
X104583172Y-83997800D02*
X104775000Y-83805972D01*
X104775000Y-83805972D02*
X104775000Y-83007200D01*
X104775000Y-83007200D02*
X105790924Y-81991276D01*
X105790924Y-81991276D02*
X106361721Y-81991276D01*
%TO.N,GND*%
X108861594Y-81991276D02*
X108361213Y-81490895D01*
X108361213Y-81490895D02*
X106361721Y-81490895D01*
%TO.N,DTR*%
X106769935Y-79756857D02*
X106885481Y-79872403D01*
X106885481Y-79872403D02*
X107360451Y-79872403D01*
%TO.N,RTS*%
X111252000Y-79654400D02*
X111252000Y-79070200D01*
X111252000Y-79070200D02*
X110769400Y-78587600D01*
X110769400Y-78587600D02*
X109804200Y-78587600D01*
X109804200Y-78587600D02*
X109361975Y-79029825D01*
X109361975Y-79029825D02*
X109361975Y-79872403D01*
%TO.N,RXD0*%
X105301925Y-79508475D02*
X106019600Y-78790800D01*
X106019600Y-78790800D02*
X108154234Y-78790800D01*
X108154234Y-78790800D02*
X108361213Y-78997779D01*
X108361213Y-78997779D02*
X108361213Y-79872403D01*
%TO.N,TXD0*%
X105579700Y-77927200D02*
X106138500Y-78486000D01*
X106138500Y-78486000D02*
X108349815Y-78486000D01*
X108349815Y-78486000D02*
X108861594Y-78997779D01*
X108861594Y-78997779D02*
X108861594Y-79872403D01*
%TO.N,VBUS*%
X95250000Y-87807800D02*
X95250000Y-85623400D01*
X95250000Y-85623400D02*
X95402400Y-85471000D01*
%TO.N,Net-(R9-Pad1)*%
X90591525Y-86002225D02*
X90720700Y-86131400D01*
X90720700Y-86131400D02*
X93751400Y-86131400D01*
X102590600Y-81991200D02*
X103149400Y-81432400D01*
X101041200Y-84836000D02*
X101727000Y-84150200D01*
X102285800Y-81991200D02*
X102590600Y-81991200D01*
X101727000Y-84150200D02*
X101727000Y-82550000D01*
X103149400Y-81432400D02*
X103530400Y-81432400D01*
X93751400Y-86131400D02*
X95046800Y-84836000D01*
X101727000Y-82550000D02*
X102285800Y-81991200D01*
X103530400Y-81432400D02*
X104188515Y-80774285D01*
X95046800Y-84836000D02*
X101041200Y-84836000D01*
X104188515Y-80774285D02*
X104188515Y-80413349D01*
%TO.N,GND*%
X106654600Y-88011000D02*
X105574800Y-88011000D01*
X105574800Y-88011000D02*
X105333800Y-87770000D01*
%TO.N,IO27*%
X91181700Y-56237500D02*
X91181700Y-55653500D01*
%TO.N,IO32{slash}SD*%
X95656400Y-60071000D02*
X95021400Y-60071000D01*
X94005400Y-61087000D02*
X94005400Y-62382400D01*
X95021400Y-60071000D02*
X94005400Y-61087000D01*
%TO.N,IO14{slash}SCK{slash}TMS*%
X91846400Y-62128400D02*
X91922600Y-62204600D01*
X89560400Y-62128400D02*
X91846400Y-62128400D01*
X95834200Y-66268600D02*
X95681800Y-66116200D01*
X89992200Y-66116200D02*
X89560400Y-65684400D01*
X95681800Y-66116200D02*
X89992200Y-66116200D01*
X89560400Y-65684400D02*
X89560400Y-62128400D01*
%TO.N,IO32{slash}SD*%
X96123098Y-57378600D02*
X96261700Y-57239998D01*
X96261700Y-57239998D02*
X96261700Y-55653500D01*
%TO.N,IO0*%
X86433600Y-71757600D02*
X87160100Y-71031100D01*
X86416393Y-70400653D02*
X87046840Y-71031100D01*
X85931350Y-68247800D02*
X86416393Y-68732843D01*
X86416393Y-68732843D02*
X86416393Y-70400653D01*
X87046840Y-71031100D02*
X87160100Y-71031100D01*
%TO.N,Net-(R13-Pad1)*%
X85166200Y-61696600D02*
X85166200Y-62227374D01*
X85166200Y-62227374D02*
X85564393Y-62625567D01*
%TO.N,GND*%
X85803200Y-60731400D02*
X85803200Y-61029002D01*
X85803200Y-61029002D02*
X86115198Y-61341000D01*
X86115198Y-64252802D02*
X85564393Y-64803607D01*
X85564393Y-64803607D02*
X85564393Y-65975579D01*
%TO.N,Net-(R13-Pad1)*%
X85040600Y-70737600D02*
X84963000Y-70815200D01*
X85956750Y-70737600D02*
X85040600Y-70737600D01*
%TO.N,Net-(R12-Pad1)*%
X85564393Y-69572467D02*
X85564393Y-69164293D01*
X85564393Y-69164293D02*
X85166200Y-68766100D01*
%TO.N,IO0*%
X85041200Y-67919600D02*
X85603150Y-67919600D01*
X85603150Y-67919600D02*
X85931350Y-68247800D01*
%TO.N,+3V3*%
X84263704Y-67577177D02*
X84238373Y-67577177D01*
X84238373Y-67577177D02*
X84022350Y-67793200D01*
%TO.N,+5V*%
X100660200Y-77393800D02*
X100558600Y-77292200D01*
X100939600Y-77393800D02*
X100660200Y-77393800D01*
X101244400Y-77698600D02*
X100939600Y-77393800D01*
X103428800Y-77698600D02*
X101244400Y-77698600D01*
X103428800Y-78333600D02*
X103428800Y-77698600D01*
X103428800Y-77698600D02*
X103428800Y-77216000D01*
X104401852Y-78750711D02*
X103845911Y-78750711D01*
X103794013Y-76850787D02*
X104401852Y-76850787D01*
X103845911Y-78750711D02*
X103428800Y-78333600D01*
X103428800Y-77216000D02*
X103794013Y-76850787D01*
X104308448Y-75354787D02*
X104401852Y-75448191D01*
X104401852Y-75448191D02*
X104401852Y-76850787D01*
%TO.N,Net-(C8-Pad2)*%
X101513848Y-75857587D02*
X101513848Y-76562987D01*
X101513848Y-76562987D02*
X101801648Y-76850787D01*
%TO.N,GND*%
X101320600Y-74180002D02*
X101320600Y-74704339D01*
X101320600Y-74704339D02*
X101513848Y-74897587D01*
D55*
%TO.N,Net-(F1-Pad1)*%
X94148499Y-82539284D02*
X94148499Y-81670301D01*
X95631000Y-80746600D02*
X95656400Y-80721200D01*
X98745000Y-79055000D02*
X98745000Y-78740000D01*
X94148499Y-81670301D02*
X94742000Y-81076800D01*
X94742000Y-81076800D02*
X95326200Y-81076800D01*
X97078800Y-80721200D02*
X98745000Y-79055000D01*
X95326200Y-81076800D02*
X95631000Y-80772000D01*
X95631000Y-80772000D02*
X95631000Y-80746600D01*
X95656400Y-80721200D02*
X97078800Y-80721200D01*
X98948601Y-82539284D02*
X98948601Y-78943601D01*
X98948601Y-78943601D02*
X98745000Y-78740000D01*
D49*
%TO.N,+3V3*%
X100602100Y-79021100D02*
X100406200Y-78825200D01*
X100406200Y-78825200D02*
X100406200Y-78447600D01*
%TO.N,IO33{slash}MAINBUTTON*%
X95123000Y-57327800D02*
X94991700Y-57196500D01*
X94991700Y-57196500D02*
X94991700Y-55653500D01*
%TO.N,IO23{slash}POWERMOSFETS*%
X84886800Y-80881700D02*
X84038336Y-80033236D01*
X84038336Y-80033236D02*
X84038336Y-79702149D01*
%TO.N,GND*%
X92546950Y-79095600D02*
X92699950Y-79248600D01*
X92049600Y-79095600D02*
X92546950Y-79095600D01*
%TO.N,Net-(R6-Pad2)*%
X84038336Y-82502251D02*
X84038336Y-81976064D01*
X84038336Y-81976064D02*
X84531200Y-81483200D01*
X84531200Y-81483200D02*
X86842600Y-81483200D01*
X86842600Y-81483200D02*
X89245438Y-79080362D01*
X89245438Y-79080362D02*
X89728677Y-79080362D01*
D56*
%TO.N,+5V*%
X89560400Y-74701400D02*
X89357200Y-74498200D01*
X89357200Y-74498200D02*
X86738728Y-74498200D01*
X86738728Y-74498200D02*
X86476549Y-74760379D01*
D49*
%TO.N,USB-C DATA+*%
X97205800Y-83693000D02*
X97332800Y-83566000D01*
X97205800Y-83802700D02*
X97205800Y-83693000D01*
%TO.N,USB-C DATA-*%
X95798486Y-83652514D02*
X95798486Y-82539284D01*
X95758000Y-83693000D02*
X95798486Y-83652514D01*
%TO.N,EN*%
X102954300Y-85005700D02*
X102321613Y-85638387D01*
X102321613Y-85638387D02*
X102321613Y-85867238D01*
X103403400Y-85005700D02*
X102954300Y-85005700D01*
D57*
%TO.N,GND*%
X100152200Y-82626200D02*
X100152200Y-82600800D01*
D56*
X100807728Y-83281728D02*
X100152200Y-82626200D01*
D49*
X103238553Y-80413349D02*
X103238553Y-80759047D01*
X103238553Y-80759047D02*
X102590600Y-81407000D01*
X102590600Y-81407000D02*
X101117400Y-81407000D01*
X101117400Y-81407000D02*
X100868591Y-81655809D01*
X100868591Y-81655809D02*
X100868591Y-83281728D01*
%TO.N,RXD0*%
X103759000Y-66624200D02*
X103251000Y-67132200D01*
X100711000Y-67691000D02*
X100711000Y-67792600D01*
X103251000Y-67132200D02*
X101269800Y-67132200D01*
X101269800Y-67132200D02*
X100711000Y-67691000D01*
X100533200Y-69875400D02*
X100071700Y-70336900D01*
X100071700Y-70336900D02*
X100071700Y-72653500D01*
%TO.N,TXD0*%
X101244400Y-71043800D02*
X101341700Y-71141100D01*
X101341700Y-71141100D02*
X101341700Y-72653500D01*
%TO.N,GND*%
X104927400Y-74269600D02*
X105151700Y-74045300D01*
X103657400Y-74269600D02*
X104927400Y-74269600D01*
X102758448Y-75168552D02*
X103657400Y-74269600D01*
X102758448Y-75354787D02*
X102758448Y-75168552D01*
X90833550Y-88140600D02*
X91549723Y-88140600D01*
X90826950Y-88147200D02*
X90833550Y-88140600D01*
X91549723Y-88140600D02*
X92228509Y-87461814D01*
X89841350Y-88147200D02*
X90826950Y-88147200D01*
X100406200Y-79997600D02*
X100868591Y-80459991D01*
X100868591Y-80459991D02*
X100868591Y-83281728D01*
%TO.N,+3V3*%
X101801648Y-78750711D02*
X100709311Y-78750711D01*
X100709311Y-78750711D02*
X100406200Y-78447600D01*
X102288591Y-80413349D02*
X102288591Y-79237654D01*
X102288591Y-79237654D02*
X101801648Y-78750711D01*
%TO.N,Net-(C10-Pad2)*%
X105243600Y-84418200D02*
X105322400Y-84418200D01*
X104489400Y-85172400D02*
X105243600Y-84418200D01*
X105537000Y-86220000D02*
X104489400Y-85172400D01*
X105537000Y-86373000D02*
X105537000Y-86220000D01*
%TO.N,GND*%
X108361213Y-81871895D02*
X108861594Y-82372276D01*
%TO.N,DTR*%
X106316369Y-86759827D02*
X106026173Y-86759827D01*
X103621587Y-85968587D02*
X103621587Y-85867238D01*
X104571800Y-86918800D02*
X103621587Y-85968587D01*
X105867200Y-86918800D02*
X104571800Y-86918800D01*
X106026173Y-86759827D02*
X105867200Y-86918800D01*
%TO.N,VBUS*%
X94488000Y-78740000D02*
X94295000Y-78740000D01*
X95453200Y-79705200D02*
X94488000Y-78740000D01*
%TO.N,Net-(C10-Pad2)*%
X106034435Y-84333709D02*
X105949944Y-84418200D01*
X105949944Y-84418200D02*
X105322400Y-84418200D01*
%TO.N,DTR*%
X103621587Y-85867238D02*
X103621587Y-86167213D01*
X103621587Y-86167213D02*
X102971600Y-86817200D01*
X102971600Y-86817200D02*
X102971600Y-87767162D01*
%TO.N,IO0*%
X103621587Y-87144863D02*
X103621587Y-87767162D01*
X103784400Y-86982050D02*
X103621587Y-87144863D01*
%TO.N,GND*%
X105333800Y-87770000D02*
X104788000Y-88315800D01*
X104788000Y-88315800D02*
X101422200Y-88315800D01*
X101422200Y-88315800D02*
X100868591Y-87762191D01*
X100868591Y-87762191D02*
X100868591Y-87461814D01*
%TO.N,RTS*%
X102321613Y-87767162D02*
X102321613Y-86832187D01*
X102971600Y-85867238D02*
X102971600Y-86182200D01*
X102971600Y-86182200D02*
X102321613Y-86832187D01*
%TO.N,IO0*%
X85956750Y-71757600D02*
X86433600Y-71757600D01*
%TO.N,Net-(C10-Pad2)*%
X105486200Y-84254400D02*
X105322400Y-84418200D01*
X105486200Y-83870800D02*
X105486200Y-84254400D01*
%TO.N,USB-C DATA-*%
X96798486Y-82539284D02*
X96798486Y-81761686D01*
X96798486Y-81761686D02*
X96520000Y-81483200D01*
X96520000Y-81483200D02*
X96037400Y-81483200D01*
X96037400Y-81483200D02*
X95798486Y-81722114D01*
X95798486Y-81722114D02*
X95798486Y-82539284D01*
%TO.N,USB-C DATA+*%
X96298614Y-82539284D02*
X96298614Y-83293814D01*
X96596200Y-83591400D02*
X97307400Y-83591400D01*
X97332800Y-83566000D02*
X97332800Y-82573470D01*
X96298614Y-83293814D02*
X96596200Y-83591400D01*
X97307400Y-83591400D02*
X97332800Y-83566000D01*
X97332800Y-82573470D02*
X97298614Y-82539284D01*
%TO.N,IO22{slash}LED LETCH EN*%
X85938260Y-79702149D02*
X85938260Y-80807460D01*
X85938260Y-80807460D02*
X85953600Y-80822800D01*
%TO.N,Net-(R6-Pad2)*%
X84072000Y-83743800D02*
X84072000Y-82535915D01*
X84072000Y-82535915D02*
X84038336Y-82502251D01*
%TO.N,IO25{slash}VBUS*%
X91049950Y-79416750D02*
X91871800Y-80238600D01*
X91049950Y-79248600D02*
X91049950Y-79416750D01*
%TO.N,GND*%
X92699950Y-79248600D02*
X93167200Y-79715850D01*
X93167200Y-79715850D02*
X93167200Y-82343037D01*
X93167200Y-82343037D02*
X92228509Y-83281728D01*
X93348652Y-82539284D02*
X92970953Y-82539284D01*
X92970953Y-82539284D02*
X92228509Y-83281728D01*
D55*
%TO.N,5V AFTER MOSFET*%
X98262650Y-51495750D02*
X97205800Y-52552600D01*
X95173800Y-52552600D02*
X95072200Y-52451000D01*
D49*
X93258850Y-51130800D02*
X93752000Y-51130800D01*
X98262650Y-51156200D02*
X98262650Y-51495750D01*
D55*
X97205800Y-52552600D02*
X95173800Y-52552600D01*
D49*
X93203487Y-51103387D02*
X93255700Y-51155600D01*
%TO.N,GND*%
X102758448Y-75354787D02*
X101971048Y-75354787D01*
D50*
X95816700Y-63153500D02*
X91049900Y-63153500D01*
X91049900Y-63153500D02*
X90652600Y-63550800D01*
D49*
X98589800Y-53670200D02*
X98589800Y-53480000D01*
X104401852Y-77800749D02*
X104774451Y-77800749D01*
X105511600Y-77063600D02*
X105511600Y-74405200D01*
D50*
X99486700Y-64988500D02*
X95816700Y-64988500D01*
D49*
X105511600Y-74405200D02*
X105151700Y-74045300D01*
D50*
X95816700Y-61318500D02*
X99486700Y-61318500D01*
D54*
X99913850Y-49682400D02*
X101387650Y-51156200D01*
D49*
X104774451Y-77800749D02*
X105511600Y-77063600D01*
X101971048Y-75354787D02*
X101513848Y-74897587D01*
X85564393Y-66920843D02*
X85931350Y-67287800D01*
D50*
X95816700Y-63153500D02*
X95816700Y-61318500D01*
D54*
X97358200Y-49682400D02*
X99913850Y-49682400D01*
D50*
X99486700Y-61318500D02*
X99486700Y-64988500D01*
D49*
X85564393Y-65975579D02*
X85564393Y-66920843D01*
D54*
X101387650Y-51156200D02*
X100913600Y-51156200D01*
X96380700Y-51155600D02*
X96380700Y-50659900D01*
D49*
X97181000Y-53670200D02*
X98589800Y-53670200D01*
D50*
X97651700Y-61318500D02*
X97651700Y-64988500D01*
D49*
X98589800Y-53480000D02*
X99466400Y-52603400D01*
X105151700Y-74045300D02*
X105151700Y-72653500D01*
D54*
X96380700Y-50659900D02*
X97358200Y-49682400D01*
D49*
%TO.N,+3V3*%
X101801648Y-78750711D02*
X102052572Y-78750711D01*
%TO.N,+5V*%
X86716750Y-75692600D02*
X86716750Y-75000580D01*
D57*
X98094775Y-75361825D02*
X96062800Y-77393800D01*
D49*
X86716750Y-75000580D02*
X86476549Y-74760379D01*
D57*
X99237831Y-75361825D02*
X98094775Y-75361825D01*
%TO.N,VBUS*%
X94295000Y-78740000D02*
X94295000Y-75549805D01*
D49*
X93559000Y-78004000D02*
X94295000Y-78740000D01*
X92918350Y-78004000D02*
X93559000Y-78004000D01*
D57*
X94295000Y-75549805D02*
X94107020Y-75361825D01*
D49*
%TO.N,IO25{slash}VBUS*%
X91049950Y-79248600D02*
X91049950Y-78852400D01*
X91049950Y-78852400D02*
X91898350Y-78004000D01*
%TO.N,Net-(R5-Pad1)*%
X87736750Y-75692600D02*
X86769047Y-76660303D01*
X86769047Y-76660303D02*
X86476549Y-76660303D01*
%TD*%
%TA.AperFunction,Conductor*%
%TO.N,GND*%
G36*
X90553410Y-87898203D02*
G01*
X90563153Y-87901034D01*
X90563160Y-87901035D01*
X90569334Y-87902829D01*
X90575741Y-87903333D01*
X90575745Y-87903334D01*
X90603356Y-87905507D01*
X90603362Y-87905507D01*
X90605811Y-87905700D01*
X90615730Y-87905700D01*
X90983801Y-87905699D01*
X91051920Y-87925701D01*
X91098413Y-87979356D01*
X91109800Y-88031699D01*
X91109800Y-88182714D01*
X91089798Y-88250835D01*
X91036142Y-88297328D01*
X90983800Y-88308714D01*
X89935989Y-88308714D01*
X89867868Y-88288712D01*
X89821375Y-88235056D01*
X89809989Y-88182714D01*
X89809989Y-88031700D01*
X89829991Y-87963579D01*
X89883647Y-87917086D01*
X89935988Y-87905700D01*
X90134224Y-87905699D01*
X90140588Y-87905699D01*
X90177066Y-87902829D01*
X90183248Y-87901033D01*
X90183253Y-87901032D01*
X90192990Y-87898203D01*
X90228142Y-87893200D01*
X90518258Y-87893200D01*
X90553410Y-87898203D01*
G37*
%TD.AperFunction*%
%TA.AperFunction,Conductor*%
G36*
X94584532Y-86227627D02*
G01*
X94641368Y-86270174D01*
X94666179Y-86336694D01*
X94666500Y-86345683D01*
X94666500Y-87049745D01*
X94646498Y-87117866D01*
X94634136Y-87134055D01*
X94559240Y-87217236D01*
X94510960Y-87270856D01*
X94489125Y-87308676D01*
X94441023Y-87391991D01*
X94415473Y-87436244D01*
X94356458Y-87617872D01*
X94355768Y-87624433D01*
X94355768Y-87624435D01*
X94344740Y-87729362D01*
X94336496Y-87807800D01*
X94337186Y-87814365D01*
X94353156Y-87966308D01*
X94356458Y-87997728D01*
X94401261Y-88135615D01*
X94403913Y-88143778D01*
X94405941Y-88214745D01*
X94369278Y-88275543D01*
X94305566Y-88306869D01*
X94284080Y-88308714D01*
X93389333Y-88308714D01*
X93321212Y-88288712D01*
X93274719Y-88235056D01*
X93264615Y-88164782D01*
X93272467Y-88135615D01*
X93293471Y-88083498D01*
X93296864Y-88072044D01*
X93335366Y-87874886D01*
X93336443Y-87866023D01*
X93336509Y-87863314D01*
X93336509Y-87733929D01*
X93332034Y-87718690D01*
X93330644Y-87717485D01*
X93322961Y-87715814D01*
X91741046Y-87715814D01*
X91672925Y-87695812D01*
X91626432Y-87642156D01*
X91616328Y-87571882D01*
X91629592Y-87534202D01*
X91628885Y-87533896D01*
X91632034Y-87526618D01*
X91636069Y-87519796D01*
X91681429Y-87363666D01*
X91684300Y-87327189D01*
X91684694Y-87327220D01*
X91706795Y-87261590D01*
X91762232Y-87217236D01*
X91810040Y-87207814D01*
X93318394Y-87207814D01*
X93333633Y-87203339D01*
X93334838Y-87201949D01*
X93336509Y-87194266D01*
X93336509Y-87111982D01*
X93336224Y-87106006D01*
X93322038Y-86957320D01*
X93319780Y-86945589D01*
X93299473Y-86876370D01*
X93299490Y-86805373D01*
X93337888Y-86745656D01*
X93402476Y-86716178D01*
X93420378Y-86714900D01*
X93704897Y-86714900D01*
X93721344Y-86715978D01*
X93751400Y-86719935D01*
X93759588Y-86718857D01*
X93789644Y-86714900D01*
X93817460Y-86711238D01*
X93856570Y-86706089D01*
X93903724Y-86699881D01*
X94045667Y-86641086D01*
X94070750Y-86621839D01*
X94167557Y-86547557D01*
X94186019Y-86523497D01*
X94196886Y-86511107D01*
X94451405Y-86256588D01*
X94513717Y-86222562D01*
X94584532Y-86227627D01*
G37*
%TD.AperFunction*%
%TA.AperFunction,Conductor*%
G36*
X96081878Y-86191343D02*
G01*
X96093976Y-86199118D01*
X96154401Y-86243019D01*
X96196408Y-86273539D01*
X96215648Y-86287518D01*
X96221676Y-86290202D01*
X96221678Y-86290203D01*
X96344654Y-86344955D01*
X96390112Y-86365194D01*
X96471756Y-86382548D01*
X96570456Y-86403528D01*
X96570461Y-86403528D01*
X96576913Y-86404900D01*
X96703516Y-86404900D01*
X96771637Y-86424902D01*
X96792611Y-86441805D01*
X96912720Y-86561914D01*
X96923581Y-86574297D01*
X96942043Y-86598357D01*
X96972643Y-86621837D01*
X96972646Y-86621840D01*
X97063933Y-86691886D01*
X97205876Y-86750681D01*
X97358200Y-86770735D01*
X97388258Y-86766778D01*
X97404703Y-86765700D01*
X99664022Y-86765700D01*
X99732143Y-86785702D01*
X99778636Y-86839358D01*
X99787686Y-86915850D01*
X99761734Y-87048742D01*
X99760657Y-87057605D01*
X99760591Y-87060314D01*
X99760591Y-87189699D01*
X99765066Y-87204938D01*
X99766456Y-87206143D01*
X99774139Y-87207814D01*
X100996591Y-87207814D01*
X101064712Y-87227816D01*
X101111205Y-87281472D01*
X101122591Y-87333814D01*
X101122591Y-87589814D01*
X101102589Y-87657935D01*
X101048933Y-87704428D01*
X100996591Y-87715814D01*
X99778706Y-87715814D01*
X99763467Y-87720289D01*
X99762262Y-87721679D01*
X99760591Y-87729362D01*
X99760591Y-87811646D01*
X99760876Y-87817622D01*
X99775062Y-87966308D01*
X99777321Y-87978043D01*
X99826959Y-88147245D01*
X99826942Y-88218241D01*
X99788543Y-88277958D01*
X99723956Y-88307436D01*
X99706054Y-88308714D01*
X96215920Y-88308714D01*
X96147799Y-88288712D01*
X96101306Y-88235056D01*
X96091202Y-88164782D01*
X96096087Y-88143778D01*
X96098739Y-88135615D01*
X96143542Y-87997728D01*
X96146845Y-87966308D01*
X96162814Y-87814365D01*
X96163504Y-87807800D01*
X96155260Y-87729362D01*
X96144232Y-87624435D01*
X96144232Y-87624433D01*
X96143542Y-87617872D01*
X96084527Y-87436244D01*
X96058978Y-87391991D01*
X96010875Y-87308676D01*
X95989040Y-87270856D01*
X95940761Y-87217236D01*
X95865864Y-87134055D01*
X95835146Y-87070048D01*
X95833500Y-87049745D01*
X95833500Y-86344955D01*
X95853502Y-86276834D01*
X95885439Y-86243019D01*
X95945860Y-86199121D01*
X96012726Y-86175263D01*
X96081878Y-86191343D01*
G37*
%TD.AperFunction*%
%TA.AperFunction,Conductor*%
G36*
X107672693Y-85449903D02*
G01*
X108048971Y-85449903D01*
X108097418Y-85444640D01*
X108124628Y-85444640D01*
X108173074Y-85449903D01*
X108549352Y-85449903D01*
X108597799Y-85444640D01*
X108625009Y-85444640D01*
X108673455Y-85449903D01*
X109049733Y-85449903D01*
X109098180Y-85444640D01*
X109125390Y-85444640D01*
X109173836Y-85449903D01*
X109209461Y-85449903D01*
X109277582Y-85469905D01*
X109324075Y-85523561D01*
X109334179Y-85593835D01*
X109304685Y-85658415D01*
X109291292Y-85671714D01*
X109196702Y-85752502D01*
X109032272Y-85945024D01*
X108899984Y-86160898D01*
X108898091Y-86165468D01*
X108898089Y-86165472D01*
X108805803Y-86388271D01*
X108803095Y-86394809D01*
X108791812Y-86441805D01*
X108745177Y-86636057D01*
X108743991Y-86640997D01*
X108724126Y-86893400D01*
X108743991Y-87145803D01*
X108745145Y-87150610D01*
X108745146Y-87150616D01*
X108769371Y-87251519D01*
X108803095Y-87391991D01*
X108804988Y-87396562D01*
X108804989Y-87396564D01*
X108896658Y-87617872D01*
X108899984Y-87625902D01*
X109032272Y-87841776D01*
X109196702Y-88034298D01*
X109200458Y-88037506D01*
X109258294Y-88086903D01*
X109297103Y-88146354D01*
X109297609Y-88217349D01*
X109259653Y-88277347D01*
X109195284Y-88307300D01*
X109176463Y-88308714D01*
X106426395Y-88308714D01*
X106358274Y-88288712D01*
X106311781Y-88235056D01*
X106301677Y-88164782D01*
X106303194Y-88156302D01*
X106307158Y-88137810D01*
X106316472Y-88046903D01*
X106316729Y-88041874D01*
X106312325Y-88026876D01*
X106310935Y-88025671D01*
X106303252Y-88024000D01*
X105205800Y-88024000D01*
X105137679Y-88003998D01*
X105091186Y-87950342D01*
X105079800Y-87898000D01*
X105079800Y-87642000D01*
X105099802Y-87573879D01*
X105153458Y-87527386D01*
X105205800Y-87516000D01*
X105770579Y-87516000D01*
X105844638Y-87540062D01*
X105859617Y-87550945D01*
X105865645Y-87553629D01*
X105865647Y-87553630D01*
X106024679Y-87624435D01*
X106034081Y-87628621D01*
X106127482Y-87648474D01*
X106214425Y-87666955D01*
X106214430Y-87666955D01*
X106220882Y-87668327D01*
X106411856Y-87668327D01*
X106418308Y-87666955D01*
X106418313Y-87666955D01*
X106505256Y-87648474D01*
X106598657Y-87628621D01*
X106608059Y-87624435D01*
X106767091Y-87553630D01*
X106767093Y-87553629D01*
X106773121Y-87550945D01*
X106821219Y-87516000D01*
X106897695Y-87460436D01*
X106927622Y-87438693D01*
X106934980Y-87430521D01*
X107050990Y-87301679D01*
X107050991Y-87301678D01*
X107055409Y-87296771D01*
X107150896Y-87131383D01*
X107209911Y-86949755D01*
X107212281Y-86927212D01*
X107229183Y-86766392D01*
X107229873Y-86759827D01*
X107225151Y-86714900D01*
X107210601Y-86576462D01*
X107210601Y-86576460D01*
X107209911Y-86569899D01*
X107150896Y-86388271D01*
X107138365Y-86366566D01*
X107119810Y-86334428D01*
X107103072Y-86265432D01*
X107126376Y-86199120D01*
X107127392Y-86197992D01*
X107222879Y-86032604D01*
X107281894Y-85850976D01*
X107301856Y-85661048D01*
X107299739Y-85640905D01*
X107312511Y-85571067D01*
X107335954Y-85538639D01*
X107361869Y-85512725D01*
X107387786Y-85486807D01*
X107450100Y-85452782D01*
X107476882Y-85449903D01*
X107548590Y-85449903D01*
X107597037Y-85444640D01*
X107624247Y-85444640D01*
X107672693Y-85449903D01*
G37*
%TD.AperFunction*%
%TA.AperFunction,Conductor*%
G36*
X112180661Y-84115879D02*
G01*
X112214790Y-84178134D01*
X112217714Y-84205123D01*
X112217714Y-86767844D01*
X112216214Y-86787231D01*
X112212523Y-86810934D01*
X112214518Y-86826191D01*
X112215261Y-86851511D01*
X112204296Y-87004805D01*
X112203174Y-87020488D01*
X112200616Y-87038278D01*
X112189875Y-87087652D01*
X112186003Y-87105449D01*
X112151978Y-87167761D01*
X112089665Y-87201786D01*
X112018849Y-87196720D01*
X111962014Y-87154173D01*
X111937204Y-87087652D01*
X111937271Y-87068779D01*
X111937715Y-87063144D01*
X111951074Y-86893400D01*
X111931209Y-86640997D01*
X111930024Y-86636057D01*
X111883388Y-86441805D01*
X111872105Y-86394809D01*
X111869397Y-86388271D01*
X111777111Y-86165472D01*
X111777109Y-86165468D01*
X111775216Y-86160898D01*
X111642928Y-85945024D01*
X111478498Y-85752502D01*
X111285976Y-85588072D01*
X111070102Y-85455784D01*
X111065532Y-85453891D01*
X111065528Y-85453889D01*
X110999653Y-85426603D01*
X110977864Y-85417578D01*
X110922583Y-85373030D01*
X110900162Y-85305667D01*
X110917720Y-85236875D01*
X110925255Y-85225605D01*
X110947971Y-85195294D01*
X110953357Y-85188108D01*
X111004487Y-85051719D01*
X111011242Y-84989537D01*
X111011242Y-84266924D01*
X111031244Y-84198803D01*
X111084900Y-84152310D01*
X111137242Y-84140924D01*
X111859855Y-84140924D01*
X111922037Y-84134169D01*
X111929433Y-84131397D01*
X111929439Y-84131395D01*
X112047485Y-84087141D01*
X112118292Y-84081958D01*
X112180661Y-84115879D01*
G37*
%TD.AperFunction*%
%TA.AperFunction,Conductor*%
G36*
X90109911Y-79629464D02*
G01*
X90156404Y-79683120D01*
X90162023Y-79697780D01*
X90199478Y-79817299D01*
X90288311Y-79963981D01*
X90409569Y-80085239D01*
X90556251Y-80174072D01*
X90563498Y-80176343D01*
X90563500Y-80176344D01*
X90629786Y-80197117D01*
X90719888Y-80225353D01*
X90793315Y-80232100D01*
X90844162Y-80232100D01*
X90912283Y-80252102D01*
X90958776Y-80305758D01*
X90969471Y-80344928D01*
X90978258Y-80428528D01*
X91037273Y-80610156D01*
X91040576Y-80615878D01*
X91040577Y-80615879D01*
X91061146Y-80651506D01*
X91132760Y-80775544D01*
X91137178Y-80780451D01*
X91137179Y-80780452D01*
X91222430Y-80875133D01*
X91260547Y-80917466D01*
X91415048Y-81029718D01*
X91421076Y-81032402D01*
X91421078Y-81032403D01*
X91583481Y-81104709D01*
X91589512Y-81107394D01*
X91682912Y-81127247D01*
X91769856Y-81145728D01*
X91769861Y-81145728D01*
X91776313Y-81147100D01*
X91967287Y-81147100D01*
X91973739Y-81145728D01*
X91973744Y-81145728D01*
X92060688Y-81127247D01*
X92154088Y-81107394D01*
X92160119Y-81104709D01*
X92322522Y-81032403D01*
X92322524Y-81032402D01*
X92328552Y-81029718D01*
X92483053Y-80917466D01*
X92521170Y-80875133D01*
X92606421Y-80780452D01*
X92606422Y-80780451D01*
X92610840Y-80775544D01*
X92682454Y-80651506D01*
X92703023Y-80615879D01*
X92703024Y-80615878D01*
X92706327Y-80610156D01*
X92765342Y-80428528D01*
X92774181Y-80344429D01*
X92801194Y-80278772D01*
X92859416Y-80238142D01*
X92899491Y-80231599D01*
X92953655Y-80231599D01*
X92959404Y-80231336D01*
X93009893Y-80226697D01*
X93079558Y-80240383D01*
X93130765Y-80289560D01*
X93144667Y-80332711D01*
X93145308Y-80332573D01*
X93146701Y-80339025D01*
X93146748Y-80339170D01*
X93147474Y-80346166D01*
X93149655Y-80352702D01*
X93149655Y-80352704D01*
X93182531Y-80451244D01*
X93203450Y-80513946D01*
X93296522Y-80664348D01*
X93421697Y-80789305D01*
X93427927Y-80793145D01*
X93427928Y-80793146D01*
X93572262Y-80882115D01*
X93570702Y-80884646D01*
X93613861Y-80922674D01*
X93633299Y-80990958D01*
X93612734Y-81058911D01*
X93596398Y-81079010D01*
X93583341Y-81092067D01*
X93582404Y-81092995D01*
X93530039Y-81144275D01*
X93517992Y-81156072D01*
X93494501Y-81192522D01*
X93487082Y-81202847D01*
X93460023Y-81236744D01*
X93456958Y-81243085D01*
X93456957Y-81243086D01*
X93445427Y-81266938D01*
X93437898Y-81280355D01*
X93419734Y-81308539D01*
X93417326Y-81315156D01*
X93417323Y-81315161D01*
X93404907Y-81349274D01*
X93399946Y-81361017D01*
X93384145Y-81393704D01*
X93384143Y-81393709D01*
X93381078Y-81400050D01*
X93379495Y-81406908D01*
X93379494Y-81406910D01*
X93373534Y-81432727D01*
X93369167Y-81447470D01*
X93357696Y-81478986D01*
X93356813Y-81485976D01*
X93356811Y-81485984D01*
X93352261Y-81522002D01*
X93350025Y-81534555D01*
X93343422Y-81563155D01*
X93308609Y-81625030D01*
X93245870Y-81658261D01*
X93175124Y-81652297D01*
X93118833Y-81609032D01*
X93094869Y-81542202D01*
X93094652Y-81534810D01*
X93094652Y-81399400D01*
X93090177Y-81384161D01*
X93088787Y-81382956D01*
X93081104Y-81381285D01*
X93003983Y-81381285D01*
X92997162Y-81381655D01*
X92946300Y-81387179D01*
X92931048Y-81390805D01*
X92810598Y-81435960D01*
X92795003Y-81444498D01*
X92692928Y-81520999D01*
X92680367Y-81533560D01*
X92603862Y-81635640D01*
X92603764Y-81635820D01*
X92603620Y-81635964D01*
X92598480Y-81642822D01*
X92597490Y-81642080D01*
X92553506Y-81685967D01*
X92511032Y-81700050D01*
X92486501Y-81703548D01*
X92482509Y-81717113D01*
X92482509Y-83009613D01*
X92486984Y-83024852D01*
X92488374Y-83026057D01*
X92496057Y-83027728D01*
X92895047Y-83027728D01*
X92963168Y-83047730D01*
X93009661Y-83101386D01*
X93019765Y-83171660D01*
X92999259Y-83224550D01*
X92899878Y-83370784D01*
X92899873Y-83370793D01*
X92896041Y-83376432D01*
X92864007Y-83456522D01*
X92820141Y-83512341D01*
X92747020Y-83535728D01*
X91138624Y-83535728D01*
X91123385Y-83540203D01*
X91122180Y-83541593D01*
X91120509Y-83549276D01*
X91120509Y-83831560D01*
X91120793Y-83837532D01*
X91122988Y-83860531D01*
X91109547Y-83930244D01*
X91060551Y-83981624D01*
X90997558Y-83998500D01*
X89718339Y-83998500D01*
X89701892Y-83997422D01*
X89680024Y-83994543D01*
X89671836Y-83993465D01*
X89519512Y-84013519D01*
X89377569Y-84072314D01*
X89286282Y-84142360D01*
X89286281Y-84142361D01*
X89255679Y-84165843D01*
X89250653Y-84172393D01*
X89237227Y-84189890D01*
X89226361Y-84202281D01*
X88481291Y-84947352D01*
X88418978Y-84981377D01*
X88392195Y-84984257D01*
X87578259Y-84984257D01*
X87516077Y-84991012D01*
X87379688Y-85042142D01*
X87263132Y-85129496D01*
X87175778Y-85246052D01*
X87124648Y-85382441D01*
X87117893Y-85444623D01*
X87116754Y-85444499D01*
X87094682Y-85506991D01*
X87038599Y-85550525D01*
X86992509Y-85559257D01*
X86843040Y-85559257D01*
X86774919Y-85539255D01*
X86753945Y-85522352D01*
X85737462Y-84505869D01*
X85703436Y-84443557D01*
X85708501Y-84372742D01*
X85730143Y-84339067D01*
X85728643Y-84337903D01*
X85743144Y-84319208D01*
X85817770Y-84193022D01*
X85824019Y-84178583D01*
X85865338Y-84036364D01*
X85867637Y-84023777D01*
X85868260Y-84015857D01*
X85865090Y-84000770D01*
X85853626Y-83997800D01*
X85291500Y-83997800D01*
X85223379Y-83977798D01*
X85176886Y-83924142D01*
X85165500Y-83871800D01*
X85165500Y-83636751D01*
X85185502Y-83568630D01*
X85239158Y-83522137D01*
X85291500Y-83510751D01*
X85311438Y-83510751D01*
X85373620Y-83503996D01*
X85382663Y-83500606D01*
X85390098Y-83497819D01*
X85434329Y-83489800D01*
X85492229Y-83489800D01*
X85536460Y-83497819D01*
X85543895Y-83500606D01*
X85552938Y-83503996D01*
X85615120Y-83510751D01*
X86261400Y-83510751D01*
X86323582Y-83503996D01*
X86459971Y-83452866D01*
X86576527Y-83365512D01*
X86663881Y-83248956D01*
X86715011Y-83112567D01*
X86721766Y-83050385D01*
X86721766Y-82196657D01*
X86731371Y-82163944D01*
X88321136Y-82163944D01*
X88335061Y-82376406D01*
X88336482Y-82382002D01*
X88336483Y-82382007D01*
X88379149Y-82550000D01*
X88387472Y-82582772D01*
X88389889Y-82588015D01*
X88426589Y-82667623D01*
X88476611Y-82776131D01*
X88599496Y-82950009D01*
X88603630Y-82954036D01*
X88702535Y-83050385D01*
X88752009Y-83098581D01*
X88756805Y-83101786D01*
X88756808Y-83101788D01*
X88859066Y-83170114D01*
X88929043Y-83216871D01*
X88934346Y-83219149D01*
X88934349Y-83219151D01*
X89107967Y-83293743D01*
X89124670Y-83300919D01*
X89200516Y-83318081D01*
X89326701Y-83346634D01*
X89326706Y-83346635D01*
X89332338Y-83347909D01*
X89338109Y-83348136D01*
X89338111Y-83348136D01*
X89399452Y-83350546D01*
X89545091Y-83356269D01*
X89550800Y-83355441D01*
X89550804Y-83355441D01*
X89750090Y-83326545D01*
X89750094Y-83326544D01*
X89755805Y-83325716D01*
X89957423Y-83257276D01*
X90143193Y-83153240D01*
X90306893Y-83017093D01*
X90313114Y-83009613D01*
X91120509Y-83009613D01*
X91124984Y-83024852D01*
X91126374Y-83026057D01*
X91134057Y-83027728D01*
X91956394Y-83027728D01*
X91971633Y-83023253D01*
X91972838Y-83021863D01*
X91974509Y-83014180D01*
X91974509Y-81721326D01*
X91970536Y-81707795D01*
X91961110Y-81706440D01*
X91871972Y-81727922D01*
X91860677Y-81731811D01*
X91679127Y-81814357D01*
X91668785Y-81820304D01*
X91506112Y-81935696D01*
X91497084Y-81943489D01*
X91359167Y-82087559D01*
X91351771Y-82096924D01*
X91243588Y-82264469D01*
X91238092Y-82275073D01*
X91163548Y-82460040D01*
X91160154Y-82471498D01*
X91121652Y-82668656D01*
X91120575Y-82677519D01*
X91120509Y-82680228D01*
X91120509Y-83009613D01*
X90313114Y-83009613D01*
X90443040Y-82853393D01*
X90547076Y-82667623D01*
X90615516Y-82466005D01*
X90627696Y-82382007D01*
X90645537Y-82258961D01*
X90645537Y-82258959D01*
X90646069Y-82255291D01*
X90647663Y-82194400D01*
X90628181Y-81982376D01*
X90597982Y-81875298D01*
X90571954Y-81783011D01*
X90571953Y-81783009D01*
X90570386Y-81777452D01*
X90561666Y-81759768D01*
X90478770Y-81591673D01*
X90476215Y-81586492D01*
X90450133Y-81551563D01*
X90361394Y-81432727D01*
X90348822Y-81415891D01*
X90192471Y-81271363D01*
X90012401Y-81157747D01*
X89814641Y-81078849D01*
X89808981Y-81077723D01*
X89808977Y-81077722D01*
X89611482Y-81038438D01*
X89611480Y-81038438D01*
X89605815Y-81037311D01*
X89600040Y-81037235D01*
X89600036Y-81037235D01*
X89493361Y-81035839D01*
X89392916Y-81034524D01*
X89387219Y-81035503D01*
X89387218Y-81035503D01*
X89188764Y-81069603D01*
X89188761Y-81069604D01*
X89183074Y-81070581D01*
X88983316Y-81144275D01*
X88800334Y-81253139D01*
X88640254Y-81393525D01*
X88508438Y-81560733D01*
X88505749Y-81565844D01*
X88505747Y-81565847D01*
X88458382Y-81655873D01*
X88409300Y-81749162D01*
X88407586Y-81754683D01*
X88407584Y-81754687D01*
X88364968Y-81891935D01*
X88346161Y-81952502D01*
X88321136Y-82163944D01*
X86731371Y-82163944D01*
X86741768Y-82128536D01*
X86795424Y-82082043D01*
X86842606Y-82071779D01*
X86842600Y-82071735D01*
X86843133Y-82071665D01*
X86843135Y-82071665D01*
X86850788Y-82070657D01*
X86880844Y-82066700D01*
X86994924Y-82051681D01*
X87136867Y-81992886D01*
X87258757Y-81899357D01*
X87277219Y-81875297D01*
X87288086Y-81862907D01*
X89450226Y-79700767D01*
X89512538Y-79666741D01*
X89539321Y-79663862D01*
X89766921Y-79663862D01*
X89771007Y-79663324D01*
X89771008Y-79663324D01*
X89809830Y-79658213D01*
X89881001Y-79648843D01*
X89952921Y-79619053D01*
X90001138Y-79609462D01*
X90041790Y-79609462D01*
X90109911Y-79629464D01*
G37*
%TD.AperFunction*%
%TA.AperFunction,Conductor*%
G36*
X100315239Y-79887858D02*
G01*
X100319812Y-79889894D01*
X100344436Y-79895128D01*
X100500156Y-79928228D01*
X100500161Y-79928228D01*
X100506613Y-79929600D01*
X100534200Y-79929600D01*
X100602321Y-79949602D01*
X100648814Y-80003258D01*
X100660200Y-80055600D01*
X100660200Y-80937485D01*
X100664675Y-80952724D01*
X100666065Y-80953929D01*
X100673748Y-80955600D01*
X100701638Y-80955600D01*
X100708153Y-80955263D01*
X100800257Y-80945706D01*
X100813656Y-80942812D01*
X100962307Y-80893219D01*
X100975486Y-80887045D01*
X101108373Y-80804812D01*
X101119774Y-80795776D01*
X101230186Y-80685171D01*
X101239198Y-80673760D01*
X101271825Y-80620829D01*
X101324597Y-80573336D01*
X101394669Y-80561912D01*
X101459793Y-80590186D01*
X101499292Y-80649180D01*
X101505085Y-80686945D01*
X101505085Y-80961483D01*
X101511840Y-81023665D01*
X101562970Y-81160054D01*
X101650324Y-81276610D01*
X101766880Y-81363964D01*
X101775289Y-81367116D01*
X101775292Y-81367118D01*
X101813171Y-81381318D01*
X101869936Y-81423959D01*
X101894637Y-81490520D01*
X101879430Y-81559869D01*
X101868907Y-81576002D01*
X101851187Y-81599096D01*
X101840318Y-81611489D01*
X101622188Y-81829619D01*
X101559876Y-81863645D01*
X101489061Y-81858580D01*
X101469997Y-81849588D01*
X101337119Y-81772716D01*
X101326260Y-81767744D01*
X101137864Y-81702321D01*
X101136875Y-81702080D01*
X101126583Y-81703548D01*
X101122591Y-81717113D01*
X101122591Y-83409728D01*
X101102589Y-83477849D01*
X101048933Y-83524342D01*
X100996591Y-83535728D01*
X100354754Y-83535728D01*
X100286633Y-83515726D01*
X100243278Y-83463014D01*
X100241499Y-83463952D01*
X100192434Y-83370893D01*
X100154503Y-83298951D01*
X100100507Y-83235054D01*
X100071816Y-83170114D01*
X100082789Y-83099971D01*
X100129943Y-83046895D01*
X100196746Y-83027728D01*
X100596476Y-83027728D01*
X100611715Y-83023253D01*
X100612920Y-83021863D01*
X100614591Y-83014180D01*
X100614591Y-81721325D01*
X100610618Y-81707794D01*
X100588429Y-81704604D01*
X100523848Y-81675111D01*
X100495842Y-81640397D01*
X100493238Y-81635640D01*
X100416733Y-81533560D01*
X100404172Y-81520999D01*
X100302097Y-81444498D01*
X100286502Y-81435960D01*
X100166054Y-81390806D01*
X100150799Y-81387179D01*
X100099934Y-81381653D01*
X100093120Y-81381284D01*
X99883101Y-81381284D01*
X99814980Y-81361282D01*
X99768487Y-81307626D01*
X99757101Y-81255284D01*
X99757101Y-81037062D01*
X99777103Y-80968941D01*
X99830759Y-80922448D01*
X99901033Y-80912344D01*
X99922769Y-80917469D01*
X100000014Y-80943091D01*
X100013390Y-80945958D01*
X100104297Y-80955272D01*
X100110713Y-80955600D01*
X100134085Y-80955600D01*
X100149324Y-80951125D01*
X100150529Y-80949735D01*
X100152200Y-80942052D01*
X100152200Y-80008132D01*
X100172202Y-79940011D01*
X100225858Y-79893518D01*
X100296132Y-79883414D01*
X100315239Y-79887858D01*
G37*
%TD.AperFunction*%
%TA.AperFunction,Conductor*%
G36*
X92052016Y-74162000D02*
G01*
X92505067Y-74162000D01*
X92573188Y-74182002D01*
X92619681Y-74235658D01*
X92629785Y-74305932D01*
X92623049Y-74332229D01*
X92584859Y-74434100D01*
X92584857Y-74434106D01*
X92582085Y-74441502D01*
X92575330Y-74503684D01*
X92575330Y-76219966D01*
X92582085Y-76282148D01*
X92633215Y-76418537D01*
X92720569Y-76535093D01*
X92837125Y-76622447D01*
X92973514Y-76673577D01*
X92981370Y-76674430D01*
X92989052Y-76676257D01*
X92988278Y-76679513D01*
X93039747Y-76700946D01*
X93080127Y-76759341D01*
X93086500Y-76798905D01*
X93086500Y-77049500D01*
X93066498Y-77117621D01*
X93012842Y-77164114D01*
X92960501Y-77175500D01*
X92725448Y-77175501D01*
X92718362Y-77175501D01*
X92681884Y-77178371D01*
X92585080Y-77206495D01*
X92533367Y-77221519D01*
X92533365Y-77221520D01*
X92525754Y-77223731D01*
X92518929Y-77227767D01*
X92518925Y-77227769D01*
X92472489Y-77255231D01*
X92403673Y-77272691D01*
X92344211Y-77255231D01*
X92297775Y-77227769D01*
X92297771Y-77227767D01*
X92290946Y-77223731D01*
X92283335Y-77221520D01*
X92283333Y-77221519D01*
X92140994Y-77180166D01*
X92140995Y-77180166D01*
X92134816Y-77178371D01*
X92128409Y-77177867D01*
X92128405Y-77177866D01*
X92100794Y-77175693D01*
X92100788Y-77175693D01*
X92098339Y-77175500D01*
X91898472Y-77175500D01*
X91698362Y-77175501D01*
X91661884Y-77178371D01*
X91565080Y-77206495D01*
X91513367Y-77221519D01*
X91513365Y-77221520D01*
X91505754Y-77223731D01*
X91498932Y-77227766D01*
X91498931Y-77227766D01*
X91387510Y-77293660D01*
X91365809Y-77306494D01*
X91250844Y-77421459D01*
X91246810Y-77428280D01*
X91196766Y-77512901D01*
X91168081Y-77561404D01*
X91165870Y-77569015D01*
X91165869Y-77569017D01*
X91157692Y-77597163D01*
X91122721Y-77717534D01*
X91119850Y-77754011D01*
X91119850Y-77905115D01*
X91099848Y-77973236D01*
X91082946Y-77994210D01*
X90863584Y-78213573D01*
X90801272Y-78247598D01*
X90730456Y-78242534D01*
X90673662Y-78200043D01*
X90632321Y-78144882D01*
X90632320Y-78144881D01*
X90626939Y-78137701D01*
X90510383Y-78050347D01*
X90373994Y-77999217D01*
X90311812Y-77992462D01*
X89434441Y-77992462D01*
X89366320Y-77972460D01*
X89319827Y-77918804D01*
X89309723Y-77848530D01*
X89312734Y-77833852D01*
X89312922Y-77833151D01*
X89316081Y-77825524D01*
X89317159Y-77817338D01*
X89319296Y-77809361D01*
X89320888Y-77809788D01*
X89345719Y-77753661D01*
X89404986Y-77714572D01*
X89441916Y-77709038D01*
X89456562Y-77709038D01*
X89471801Y-77704563D01*
X89473006Y-77703173D01*
X89474677Y-77695490D01*
X89474677Y-77690922D01*
X89982677Y-77690922D01*
X89987152Y-77706161D01*
X89988542Y-77707366D01*
X89996225Y-77709037D01*
X90308347Y-77709037D01*
X90315168Y-77708667D01*
X90366030Y-77703143D01*
X90381282Y-77699517D01*
X90501732Y-77654362D01*
X90517327Y-77645824D01*
X90619402Y-77569323D01*
X90631963Y-77556762D01*
X90708464Y-77454687D01*
X90717002Y-77439092D01*
X90762156Y-77318644D01*
X90765783Y-77303389D01*
X90771309Y-77252524D01*
X90771678Y-77245710D01*
X90771678Y-77173153D01*
X90767203Y-77157914D01*
X90765813Y-77156709D01*
X90758130Y-77155038D01*
X90000792Y-77155038D01*
X89985553Y-77159513D01*
X89984348Y-77160903D01*
X89982677Y-77168586D01*
X89982677Y-77690922D01*
X89474677Y-77690922D01*
X89474677Y-76773038D01*
X89494679Y-76704917D01*
X89548335Y-76658424D01*
X89600677Y-76647038D01*
X90753562Y-76647038D01*
X90768801Y-76642563D01*
X90770006Y-76641173D01*
X90771677Y-76633490D01*
X90771677Y-76556369D01*
X90771308Y-76549550D01*
X90766559Y-76505832D01*
X90779088Y-76435950D01*
X90827409Y-76383935D01*
X90843604Y-76375817D01*
X90844436Y-76375472D01*
X90896067Y-76354086D01*
X90929643Y-76328322D01*
X91017957Y-76260557D01*
X91036415Y-76236502D01*
X91047283Y-76224110D01*
X91659869Y-75611525D01*
X91672260Y-75600659D01*
X91689754Y-75587236D01*
X91689757Y-75587233D01*
X91696307Y-75582207D01*
X91719787Y-75551607D01*
X91719790Y-75551604D01*
X91789836Y-75460317D01*
X91848631Y-75318374D01*
X91868685Y-75166050D01*
X91864728Y-75135994D01*
X91863650Y-75119547D01*
X91863650Y-74281966D01*
X91883652Y-74213845D01*
X91937308Y-74167352D01*
X92003257Y-74156703D01*
X92052016Y-74162000D01*
G37*
%TD.AperFunction*%
%TA.AperFunction,Conductor*%
G36*
X106417414Y-64935545D02*
G01*
X106449344Y-64998956D01*
X106451400Y-65021623D01*
X106451400Y-71524367D01*
X106431398Y-71592488D01*
X106377742Y-71638981D01*
X106307468Y-71649085D01*
X106242888Y-71619591D01*
X106202817Y-71553511D01*
X106198629Y-71535897D01*
X106153474Y-71415446D01*
X106144936Y-71399851D01*
X106068435Y-71297776D01*
X106055874Y-71285215D01*
X105953799Y-71208714D01*
X105938204Y-71200176D01*
X105817756Y-71155022D01*
X105802501Y-71151395D01*
X105751636Y-71145869D01*
X105744822Y-71145500D01*
X105522265Y-71145500D01*
X105507026Y-71149975D01*
X105505821Y-71151365D01*
X105504150Y-71159048D01*
X105504150Y-74143384D01*
X105508625Y-74158623D01*
X105510015Y-74159828D01*
X105517698Y-74161499D01*
X105744819Y-74161499D01*
X105751640Y-74161129D01*
X105802502Y-74155605D01*
X105817754Y-74151979D01*
X105938204Y-74106824D01*
X105953799Y-74098286D01*
X106055874Y-74021785D01*
X106068435Y-74009224D01*
X106144936Y-73907149D01*
X106153474Y-73891554D01*
X106198628Y-73771106D01*
X106202817Y-73753489D01*
X106238035Y-73691842D01*
X106300990Y-73659022D01*
X106371695Y-73665448D01*
X106427702Y-73709080D01*
X106451400Y-73782635D01*
X106451400Y-77209349D01*
X106431398Y-77277470D01*
X106377742Y-77323963D01*
X106307468Y-77334067D01*
X106242888Y-77304573D01*
X106231770Y-77293666D01*
X106190953Y-77248334D01*
X106036452Y-77136082D01*
X106030424Y-77133398D01*
X106030422Y-77133397D01*
X105868019Y-77061091D01*
X105868018Y-77061091D01*
X105861988Y-77058406D01*
X105768588Y-77038553D01*
X105681644Y-77020072D01*
X105681639Y-77020072D01*
X105675187Y-77018700D01*
X105536352Y-77018700D01*
X105468231Y-76998698D01*
X105421738Y-76945042D01*
X105410352Y-76892700D01*
X105410352Y-76502653D01*
X105403597Y-76440471D01*
X105352467Y-76304082D01*
X105265113Y-76187526D01*
X105200414Y-76139036D01*
X105157900Y-76082177D01*
X105152875Y-76011359D01*
X105168720Y-75972095D01*
X105198910Y-75923118D01*
X105198911Y-75923116D01*
X105202750Y-75916888D01*
X105256597Y-75754544D01*
X105266948Y-75653519D01*
X105266948Y-75056055D01*
X105256335Y-74953768D01*
X105223526Y-74855427D01*
X105204521Y-74798463D01*
X105204520Y-74798461D01*
X105202204Y-74791519D01*
X105112200Y-74646074D01*
X104991150Y-74525235D01*
X104984919Y-74521394D01*
X104851779Y-74439325D01*
X104851777Y-74439324D01*
X104845549Y-74435485D01*
X104759950Y-74407093D01*
X104701590Y-74366662D01*
X104674353Y-74301098D01*
X104686886Y-74231217D01*
X104735211Y-74179205D01*
X104799617Y-74161500D01*
X104978035Y-74161500D01*
X104993274Y-74157025D01*
X104994479Y-74155635D01*
X104996150Y-74147952D01*
X104996150Y-71163616D01*
X104991675Y-71148377D01*
X104990285Y-71147172D01*
X104982602Y-71145501D01*
X104755481Y-71145501D01*
X104748660Y-71145871D01*
X104697798Y-71151395D01*
X104682550Y-71155020D01*
X104660093Y-71163439D01*
X104589286Y-71168622D01*
X104571640Y-71163442D01*
X104540466Y-71151755D01*
X104480850Y-71145279D01*
X104480848Y-71145278D01*
X104478284Y-71145000D01*
X104478350Y-71144396D01*
X104414059Y-71121677D01*
X104387848Y-71096222D01*
X104297857Y-70978943D01*
X104273797Y-70960481D01*
X104261407Y-70949614D01*
X104209644Y-70897851D01*
X104175618Y-70835539D01*
X104180683Y-70764724D01*
X104223230Y-70707888D01*
X104282292Y-70683834D01*
X104338519Y-70676431D01*
X104368524Y-70672481D01*
X104510467Y-70613686D01*
X104632357Y-70520157D01*
X104650819Y-70496097D01*
X104661686Y-70483707D01*
X104697507Y-70447886D01*
X104709898Y-70437018D01*
X104727411Y-70423580D01*
X104733957Y-70418557D01*
X104738979Y-70412012D01*
X104738983Y-70412008D01*
X104796046Y-70337641D01*
X104796047Y-70337639D01*
X104822460Y-70303218D01*
X104822460Y-70303217D01*
X104827486Y-70296668D01*
X104854687Y-70231000D01*
X104883121Y-70162354D01*
X104883122Y-70162351D01*
X104886281Y-70154724D01*
X104906335Y-70002400D01*
X104902378Y-69972344D01*
X104901300Y-69955897D01*
X104901300Y-68626503D01*
X104902378Y-68610056D01*
X104905257Y-68588188D01*
X104906335Y-68580000D01*
X104886281Y-68427676D01*
X104827486Y-68285733D01*
X104757440Y-68194446D01*
X104757437Y-68194443D01*
X104733957Y-68163843D01*
X104709902Y-68145385D01*
X104697518Y-68134524D01*
X104446665Y-67883671D01*
X104180827Y-67617834D01*
X104146802Y-67555521D01*
X104151866Y-67484706D01*
X104194413Y-67427870D01*
X104206922Y-67419619D01*
X104209720Y-67418004D01*
X104215752Y-67415318D01*
X104370253Y-67303066D01*
X104436973Y-67228966D01*
X104493621Y-67166052D01*
X104493622Y-67166051D01*
X104498040Y-67161144D01*
X104593527Y-66995756D01*
X104652542Y-66814128D01*
X104655092Y-66789872D01*
X104671814Y-66630765D01*
X104672504Y-66624200D01*
X104665319Y-66555837D01*
X104653232Y-66440835D01*
X104653232Y-66440833D01*
X104652542Y-66434272D01*
X104593527Y-66252644D01*
X104584697Y-66237349D01*
X104564807Y-66202900D01*
X104521476Y-66127848D01*
X104504738Y-66058854D01*
X104527958Y-65991762D01*
X104536950Y-65980549D01*
X104548840Y-65967344D01*
X104644327Y-65801956D01*
X104658762Y-65757530D01*
X104698836Y-65698924D01*
X104764233Y-65671288D01*
X104834190Y-65683395D01*
X104837423Y-65685121D01*
X104841548Y-65688118D01*
X104847576Y-65690802D01*
X104847578Y-65690803D01*
X105009981Y-65763109D01*
X105016012Y-65765794D01*
X105109412Y-65785647D01*
X105196356Y-65804128D01*
X105196361Y-65804128D01*
X105202813Y-65805500D01*
X105393787Y-65805500D01*
X105400239Y-65804128D01*
X105400244Y-65804128D01*
X105487188Y-65785647D01*
X105580588Y-65765794D01*
X105586619Y-65763109D01*
X105749022Y-65690803D01*
X105749024Y-65690802D01*
X105755052Y-65688118D01*
X105778217Y-65671288D01*
X105830241Y-65633490D01*
X105909553Y-65575866D01*
X105979498Y-65498184D01*
X106032921Y-65438852D01*
X106032922Y-65438851D01*
X106037340Y-65433944D01*
X106132827Y-65268556D01*
X106191842Y-65086928D01*
X106200090Y-65008453D01*
X106227103Y-64942796D01*
X106285325Y-64902166D01*
X106356270Y-64899463D01*
X106417414Y-64935545D01*
G37*
%TD.AperFunction*%
%TA.AperFunction,Conductor*%
G36*
X102954569Y-75120789D02*
G01*
X103001062Y-75174445D01*
X103012448Y-75226787D01*
X103012448Y-75482787D01*
X102992446Y-75550908D01*
X102938790Y-75597401D01*
X102886448Y-75608787D01*
X102422156Y-75608787D01*
X102354035Y-75588785D01*
X102307542Y-75535129D01*
X102301159Y-75517940D01*
X102285953Y-75465600D01*
X102285953Y-75465599D01*
X102283742Y-75457990D01*
X102205685Y-75326003D01*
X102204370Y-75323779D01*
X102200336Y-75316958D01*
X102194730Y-75311352D01*
X102189874Y-75305092D01*
X102192328Y-75303188D01*
X102165234Y-75253570D01*
X102170299Y-75182755D01*
X102212846Y-75125919D01*
X102279366Y-75101108D01*
X102288355Y-75100787D01*
X102886448Y-75100787D01*
X102954569Y-75120789D01*
G37*
%TD.AperFunction*%
%TA.AperFunction,Conductor*%
G36*
X103389374Y-74143826D02*
G01*
X103419834Y-74155245D01*
X103482016Y-74162000D01*
X103815751Y-74162000D01*
X103883872Y-74182002D01*
X103930365Y-74235658D01*
X103940469Y-74305932D01*
X103910975Y-74370512D01*
X103855628Y-74407523D01*
X103777124Y-74433714D01*
X103777122Y-74433715D01*
X103770180Y-74436031D01*
X103763956Y-74439883D01*
X103763955Y-74439883D01*
X103705848Y-74475841D01*
X103624735Y-74526035D01*
X103619562Y-74531217D01*
X103613825Y-74535764D01*
X103612393Y-74533957D01*
X103559873Y-74562689D01*
X103489053Y-74557679D01*
X103452595Y-74534288D01*
X103451765Y-74535339D01*
X103434608Y-74521789D01*
X103301568Y-74439783D01*
X103288387Y-74433636D01*
X103201376Y-74404775D01*
X103143016Y-74364344D01*
X103115780Y-74298779D01*
X103128314Y-74228898D01*
X103176639Y-74176886D01*
X103227437Y-74159919D01*
X103239567Y-74158602D01*
X103262609Y-74156099D01*
X103262613Y-74156098D01*
X103270466Y-74155245D01*
X103300921Y-74143828D01*
X103371727Y-74138645D01*
X103389374Y-74143826D01*
G37*
%TD.AperFunction*%
%TA.AperFunction,Conductor*%
G36*
X87706272Y-71419895D02*
G01*
X87763105Y-71462444D01*
X87787912Y-71528966D01*
X87787496Y-71551551D01*
X87781650Y-71605366D01*
X87781650Y-73213700D01*
X87761648Y-73281821D01*
X87707992Y-73328314D01*
X87655650Y-73339700D01*
X86819843Y-73339700D01*
X86751722Y-73319698D01*
X86705229Y-73266042D01*
X86693843Y-73213700D01*
X86693843Y-73194594D01*
X86689368Y-73179355D01*
X86687978Y-73178150D01*
X86680295Y-73176479D01*
X85407843Y-73176479D01*
X85339722Y-73156477D01*
X85293229Y-73102821D01*
X85281843Y-73050479D01*
X85281843Y-72794479D01*
X85301845Y-72726358D01*
X85355501Y-72679865D01*
X85407843Y-72668479D01*
X86675727Y-72668479D01*
X86690966Y-72664004D01*
X86692171Y-72662614D01*
X86693842Y-72654931D01*
X86693842Y-72355531D01*
X86713844Y-72287410D01*
X86743138Y-72255568D01*
X86843212Y-72178779D01*
X86849757Y-72173757D01*
X86868219Y-72149697D01*
X86879086Y-72137307D01*
X87539811Y-71476582D01*
X87552203Y-71465714D01*
X87569706Y-71452284D01*
X87569707Y-71452283D01*
X87576257Y-71447257D01*
X87576402Y-71447068D01*
X87635456Y-71414826D01*
X87706272Y-71419895D01*
G37*
%TD.AperFunction*%
%TA.AperFunction,Conductor*%
G36*
X90658532Y-68741427D02*
G01*
X90703595Y-68770388D01*
X90817811Y-68884604D01*
X90851837Y-68946916D01*
X90846772Y-69017731D01*
X90817811Y-69062794D01*
X90409795Y-69470810D01*
X90347483Y-69504836D01*
X90276668Y-69499771D01*
X90219832Y-69457224D01*
X90195021Y-69390704D01*
X90194700Y-69381715D01*
X90194700Y-69153283D01*
X90214702Y-69085162D01*
X90231605Y-69064188D01*
X90525405Y-68770388D01*
X90587717Y-68736362D01*
X90658532Y-68741427D01*
G37*
%TD.AperFunction*%
%TA.AperFunction,Conductor*%
G36*
X86173771Y-63754069D02*
G01*
X86220264Y-63807725D01*
X86231650Y-63860067D01*
X86231650Y-64016634D01*
X86238405Y-64078816D01*
X86249822Y-64109271D01*
X86255005Y-64180077D01*
X86249824Y-64197724D01*
X86238405Y-64228184D01*
X86231650Y-64290366D01*
X86231650Y-64741579D01*
X86211648Y-64809700D01*
X86157992Y-64856193D01*
X86105650Y-64867579D01*
X85807958Y-64867579D01*
X85792719Y-64872054D01*
X85791514Y-64873444D01*
X85789843Y-64881127D01*
X85789843Y-66997579D01*
X85769841Y-67065700D01*
X85716185Y-67112193D01*
X85663843Y-67123579D01*
X85407843Y-67123579D01*
X85339722Y-67103577D01*
X85293229Y-67049921D01*
X85281843Y-66997579D01*
X85281843Y-64885695D01*
X85277368Y-64870456D01*
X85275978Y-64869251D01*
X85268295Y-64867580D01*
X84883270Y-64867580D01*
X84815149Y-64847578D01*
X84771813Y-64800345D01*
X84734004Y-64728635D01*
X84701867Y-64667682D01*
X84581470Y-64525210D01*
X84560355Y-64509066D01*
X84438707Y-64416060D01*
X84438708Y-64416060D01*
X84433287Y-64411916D01*
X84427104Y-64409033D01*
X84421781Y-64405809D01*
X84373875Y-64353412D01*
X84361902Y-64283432D01*
X84389664Y-64218088D01*
X84422158Y-64190031D01*
X84468043Y-64162460D01*
X84508048Y-64138423D01*
X84513010Y-64133731D01*
X84638619Y-64014948D01*
X84638621Y-64014946D01*
X84643577Y-64010259D01*
X84748423Y-63855983D01*
X84758736Y-63830200D01*
X84765505Y-63813275D01*
X84809374Y-63757454D01*
X84882494Y-63734067D01*
X86105650Y-63734067D01*
X86173771Y-63754069D01*
G37*
%TD.AperFunction*%
%TA.AperFunction,Conductor*%
G36*
X99781271Y-61084502D02*
G01*
X99827764Y-61138158D01*
X99839150Y-61190500D01*
X99839150Y-65116500D01*
X99819148Y-65184621D01*
X99765492Y-65231114D01*
X99713150Y-65242500D01*
X98022265Y-65242500D01*
X98007026Y-65246975D01*
X98005821Y-65248365D01*
X98004150Y-65256048D01*
X98004150Y-66143384D01*
X98008625Y-66158623D01*
X98010015Y-66159828D01*
X98017698Y-66161499D01*
X98459819Y-66161499D01*
X98466640Y-66161129D01*
X98517502Y-66155605D01*
X98532756Y-66151978D01*
X98623421Y-66117990D01*
X98694228Y-66112807D01*
X98711879Y-66117990D01*
X98802541Y-66151978D01*
X98817799Y-66155605D01*
X98868664Y-66161131D01*
X98875478Y-66161500D01*
X99276835Y-66161500D01*
X99344956Y-66181502D01*
X99391449Y-66235158D01*
X99401553Y-66305432D01*
X99370473Y-66371808D01*
X99260760Y-66493656D01*
X99238416Y-66532357D01*
X99170917Y-66649269D01*
X99165273Y-66659044D01*
X99106258Y-66840672D01*
X99105568Y-66847233D01*
X99105568Y-66847235D01*
X99098081Y-66918471D01*
X99071068Y-66984127D01*
X99012846Y-67024757D01*
X98972771Y-67031300D01*
X97704768Y-67031300D01*
X97636647Y-67011298D01*
X97590154Y-66957642D01*
X97579458Y-66918470D01*
X97566632Y-66796435D01*
X97566632Y-66796433D01*
X97565942Y-66789872D01*
X97506927Y-66608244D01*
X97411440Y-66442856D01*
X97377146Y-66404768D01*
X97347470Y-66371810D01*
X97316752Y-66307803D01*
X97325517Y-66237349D01*
X97370980Y-66182818D01*
X97441106Y-66161500D01*
X97478035Y-66161500D01*
X97493274Y-66157025D01*
X97494479Y-66155635D01*
X97496150Y-66147952D01*
X97496150Y-65260615D01*
X97491675Y-65245376D01*
X97490285Y-65244171D01*
X97482602Y-65242500D01*
X94760266Y-65242500D01*
X94745027Y-65246975D01*
X94743822Y-65248365D01*
X94742151Y-65256048D01*
X94742151Y-65406700D01*
X94722149Y-65474821D01*
X94668493Y-65521314D01*
X94616151Y-65532700D01*
X90286085Y-65532700D01*
X90217964Y-65512698D01*
X90196992Y-65495798D01*
X90180807Y-65479614D01*
X90146780Y-65417303D01*
X90143900Y-65390516D01*
X90143900Y-64716385D01*
X94742150Y-64716385D01*
X94746625Y-64731624D01*
X94748015Y-64732829D01*
X94755698Y-64734500D01*
X95643035Y-64734500D01*
X95658274Y-64730025D01*
X95659479Y-64728635D01*
X95661150Y-64720952D01*
X95661150Y-64716385D01*
X96169150Y-64716385D01*
X96173625Y-64731624D01*
X96175015Y-64732829D01*
X96182698Y-64734500D01*
X97478035Y-64734500D01*
X97493274Y-64730025D01*
X97494479Y-64728635D01*
X97496150Y-64720952D01*
X97496150Y-64716385D01*
X98004150Y-64716385D01*
X98008625Y-64731624D01*
X98010015Y-64732829D01*
X98017698Y-64734500D01*
X99313035Y-64734500D01*
X99328274Y-64730025D01*
X99329479Y-64728635D01*
X99331150Y-64720952D01*
X99331150Y-63425615D01*
X99326675Y-63410376D01*
X99325285Y-63409171D01*
X99317602Y-63407500D01*
X98022265Y-63407500D01*
X98007026Y-63411975D01*
X98005821Y-63413365D01*
X98004150Y-63421048D01*
X98004150Y-64716385D01*
X97496150Y-64716385D01*
X97496150Y-63425615D01*
X97491675Y-63410376D01*
X97490285Y-63409171D01*
X97482602Y-63407500D01*
X96187265Y-63407500D01*
X96172026Y-63411975D01*
X96170821Y-63413365D01*
X96169150Y-63421048D01*
X96169150Y-64716385D01*
X95661150Y-64716385D01*
X95661150Y-63425615D01*
X95656675Y-63410376D01*
X95655285Y-63409171D01*
X95647602Y-63407500D01*
X94760266Y-63407500D01*
X94745027Y-63411975D01*
X94743822Y-63413365D01*
X94742151Y-63421048D01*
X94742151Y-63863169D01*
X94742521Y-63869990D01*
X94748045Y-63920852D01*
X94751672Y-63936106D01*
X94785660Y-64026771D01*
X94790843Y-64097578D01*
X94785660Y-64115229D01*
X94751672Y-64205891D01*
X94748045Y-64221149D01*
X94742519Y-64272014D01*
X94742150Y-64278828D01*
X94742150Y-64716385D01*
X90143900Y-64716385D01*
X90143900Y-62837900D01*
X90163902Y-62769779D01*
X90217558Y-62723286D01*
X90269900Y-62711900D01*
X91100770Y-62711900D01*
X91168891Y-62731902D01*
X91194403Y-62753587D01*
X91311347Y-62883466D01*
X91390797Y-62941190D01*
X91425127Y-62966132D01*
X91465848Y-62995718D01*
X91471876Y-62998402D01*
X91471878Y-62998403D01*
X91613072Y-63061266D01*
X91640312Y-63073394D01*
X91733712Y-63093247D01*
X91820656Y-63111728D01*
X91820661Y-63111728D01*
X91827113Y-63113100D01*
X92018087Y-63113100D01*
X92024539Y-63111728D01*
X92024544Y-63111728D01*
X92111488Y-63093247D01*
X92204888Y-63073394D01*
X92232128Y-63061266D01*
X92373322Y-62998403D01*
X92373324Y-62998402D01*
X92379352Y-62995718D01*
X92420074Y-62966132D01*
X92454403Y-62941190D01*
X92533853Y-62883466D01*
X92661640Y-62741544D01*
X92757127Y-62576156D01*
X92816142Y-62394528D01*
X92836104Y-62204600D01*
X92823623Y-62085851D01*
X92816832Y-62021235D01*
X92816832Y-62021233D01*
X92816142Y-62014672D01*
X92807712Y-61988727D01*
X92805683Y-61917761D01*
X92842344Y-61856962D01*
X92911096Y-61824868D01*
X92913597Y-61824539D01*
X92926044Y-61822900D01*
X92926045Y-61822900D01*
X93031936Y-61808959D01*
X93040124Y-61807881D01*
X93042831Y-61806760D01*
X93111339Y-61808389D01*
X93170136Y-61848182D01*
X93198085Y-61913446D01*
X93186312Y-61983460D01*
X93182095Y-61991407D01*
X93170873Y-62010844D01*
X93111858Y-62192472D01*
X93111168Y-62199033D01*
X93111168Y-62199035D01*
X93109893Y-62211165D01*
X93091896Y-62382400D01*
X93111858Y-62572328D01*
X93170873Y-62753956D01*
X93266360Y-62919344D01*
X93270778Y-62924251D01*
X93270779Y-62924252D01*
X93374172Y-63039082D01*
X93394147Y-63061266D01*
X93548648Y-63173518D01*
X93554676Y-63176202D01*
X93554678Y-63176203D01*
X93706563Y-63243826D01*
X93723112Y-63251194D01*
X93816512Y-63271047D01*
X93903456Y-63289528D01*
X93903461Y-63289528D01*
X93909913Y-63290900D01*
X94100887Y-63290900D01*
X94107339Y-63289528D01*
X94107344Y-63289528D01*
X94194288Y-63271047D01*
X94287688Y-63251194D01*
X94304237Y-63243826D01*
X94456122Y-63176203D01*
X94456124Y-63176202D01*
X94462152Y-63173518D01*
X94616653Y-63061266D01*
X94636628Y-63039082D01*
X94724770Y-62941190D01*
X94785216Y-62903950D01*
X94818406Y-62899500D01*
X95643035Y-62899500D01*
X95658274Y-62895025D01*
X95659479Y-62893635D01*
X95661150Y-62885952D01*
X95661150Y-62881385D01*
X96169150Y-62881385D01*
X96173625Y-62896624D01*
X96175015Y-62897829D01*
X96182698Y-62899500D01*
X97478035Y-62899500D01*
X97493274Y-62895025D01*
X97494479Y-62893635D01*
X97496150Y-62885952D01*
X97496150Y-62881385D01*
X98004150Y-62881385D01*
X98008625Y-62896624D01*
X98010015Y-62897829D01*
X98017698Y-62899500D01*
X99313035Y-62899500D01*
X99328274Y-62895025D01*
X99329479Y-62893635D01*
X99331150Y-62885952D01*
X99331150Y-61590615D01*
X99326675Y-61575376D01*
X99325285Y-61574171D01*
X99317602Y-61572500D01*
X98022265Y-61572500D01*
X98007026Y-61576975D01*
X98005821Y-61578365D01*
X98004150Y-61586048D01*
X98004150Y-62881385D01*
X97496150Y-62881385D01*
X97496150Y-61590615D01*
X97491675Y-61575376D01*
X97490285Y-61574171D01*
X97482602Y-61572500D01*
X96187265Y-61572500D01*
X96172026Y-61576975D01*
X96170821Y-61578365D01*
X96169150Y-61586048D01*
X96169150Y-62881385D01*
X95661150Y-62881385D01*
X95661150Y-61190500D01*
X95681152Y-61122379D01*
X95734808Y-61075886D01*
X95787150Y-61064500D01*
X99713150Y-61064500D01*
X99781271Y-61084502D01*
G37*
%TD.AperFunction*%
%TA.AperFunction,Conductor*%
G36*
X104028861Y-61665102D02*
G01*
X104054374Y-61686788D01*
X104148447Y-61791266D01*
X104234259Y-61853612D01*
X104279122Y-61886207D01*
X104302948Y-61903518D01*
X104308976Y-61906202D01*
X104308978Y-61906203D01*
X104407798Y-61950200D01*
X104477412Y-61981194D01*
X104570813Y-62001047D01*
X104657756Y-62019528D01*
X104657761Y-62019528D01*
X104664213Y-62020900D01*
X104855187Y-62020900D01*
X104861639Y-62019528D01*
X104861644Y-62019528D01*
X104948587Y-62001047D01*
X105041988Y-61981194D01*
X105111602Y-61950200D01*
X105210422Y-61906203D01*
X105210424Y-61906202D01*
X105216452Y-61903518D01*
X105227467Y-61895515D01*
X105286839Y-61852379D01*
X105353707Y-61828520D01*
X105422859Y-61844601D01*
X105472339Y-61895515D01*
X105486900Y-61954315D01*
X105486900Y-63831017D01*
X105466898Y-63899138D01*
X105449995Y-63920112D01*
X105418512Y-63951595D01*
X105356200Y-63985621D01*
X105329417Y-63988500D01*
X105202813Y-63988500D01*
X105196361Y-63989872D01*
X105196356Y-63989872D01*
X105109412Y-64008353D01*
X105016012Y-64028206D01*
X105009982Y-64030891D01*
X105009981Y-64030891D01*
X104847578Y-64103197D01*
X104847576Y-64103198D01*
X104841548Y-64105882D01*
X104836207Y-64109763D01*
X104830489Y-64113064D01*
X104829506Y-64111361D01*
X104771482Y-64132065D01*
X104702330Y-64115986D01*
X104652849Y-64065073D01*
X104644454Y-64045208D01*
X104638464Y-64026771D01*
X104618927Y-63966644D01*
X104610239Y-63951595D01*
X104579952Y-63899138D01*
X104523440Y-63801256D01*
X104395653Y-63659334D01*
X104241152Y-63547082D01*
X104235124Y-63544398D01*
X104235122Y-63544397D01*
X104072719Y-63472091D01*
X104072718Y-63472091D01*
X104066688Y-63469406D01*
X103973288Y-63449553D01*
X103886344Y-63431072D01*
X103886339Y-63431072D01*
X103879887Y-63429700D01*
X103688913Y-63429700D01*
X103682461Y-63431072D01*
X103682456Y-63431072D01*
X103595512Y-63449553D01*
X103502112Y-63469406D01*
X103411818Y-63509607D01*
X103341453Y-63519041D01*
X103277156Y-63488935D01*
X103239343Y-63428846D01*
X103240018Y-63357853D01*
X103266934Y-63310190D01*
X103321540Y-63249544D01*
X103417027Y-63084156D01*
X103476042Y-62902528D01*
X103477638Y-62887349D01*
X103495314Y-62719165D01*
X103496004Y-62712600D01*
X103476042Y-62522672D01*
X103417027Y-62341044D01*
X103321540Y-62175656D01*
X103193753Y-62033734D01*
X103039252Y-61921482D01*
X103033224Y-61918798D01*
X103033222Y-61918797D01*
X102960023Y-61886207D01*
X102905927Y-61840227D01*
X102885278Y-61772300D01*
X102904630Y-61703991D01*
X102957841Y-61656990D01*
X103011272Y-61645100D01*
X103960740Y-61645100D01*
X104028861Y-61665102D01*
G37*
%TD.AperFunction*%
%TA.AperFunction,Conductor*%
G36*
X89457162Y-59193209D02*
G01*
X89463745Y-59199338D01*
X90705212Y-60440805D01*
X90739238Y-60503117D01*
X90734173Y-60573932D01*
X90691626Y-60630768D01*
X90625106Y-60655579D01*
X90616117Y-60655900D01*
X90362284Y-60655900D01*
X90294163Y-60635898D01*
X90273189Y-60618995D01*
X89285555Y-59631362D01*
X89251530Y-59569050D01*
X89248650Y-59542267D01*
X89248650Y-59288433D01*
X89268652Y-59220312D01*
X89322308Y-59173819D01*
X89392582Y-59163715D01*
X89457162Y-59193209D01*
G37*
%TD.AperFunction*%
%TA.AperFunction,Conductor*%
G36*
X105429021Y-55419502D02*
G01*
X105475514Y-55473158D01*
X105486900Y-55525500D01*
X105486900Y-60270485D01*
X105466898Y-60338606D01*
X105413242Y-60385099D01*
X105342968Y-60395203D01*
X105286839Y-60372421D01*
X105221794Y-60325163D01*
X105221793Y-60325162D01*
X105216452Y-60321282D01*
X105210424Y-60318598D01*
X105210422Y-60318597D01*
X105048019Y-60246291D01*
X105048018Y-60246291D01*
X105041988Y-60243606D01*
X104948587Y-60223753D01*
X104861644Y-60205272D01*
X104861639Y-60205272D01*
X104855187Y-60203900D01*
X104664213Y-60203900D01*
X104657761Y-60205272D01*
X104657756Y-60205272D01*
X104570813Y-60223753D01*
X104477412Y-60243606D01*
X104471382Y-60246291D01*
X104471381Y-60246291D01*
X104308978Y-60318597D01*
X104308976Y-60318598D01*
X104302948Y-60321282D01*
X104297607Y-60325162D01*
X104297606Y-60325163D01*
X104201205Y-60395203D01*
X104148447Y-60433534D01*
X104144028Y-60438441D01*
X104139120Y-60442861D01*
X104137789Y-60441383D01*
X104085400Y-60473653D01*
X104052220Y-60478100D01*
X101552741Y-60478100D01*
X101484620Y-60458098D01*
X101459105Y-60436410D01*
X101456516Y-60433534D01*
X101387905Y-60357334D01*
X101313382Y-60303190D01*
X101270029Y-60246969D01*
X101263954Y-60176233D01*
X101297085Y-60113441D01*
X101313383Y-60099319D01*
X101317601Y-60096255D01*
X101373053Y-60055966D01*
X101500840Y-59914044D01*
X101596327Y-59748656D01*
X101655342Y-59567028D01*
X101657945Y-59542267D01*
X101665337Y-59471930D01*
X101692350Y-59406273D01*
X101750572Y-59365643D01*
X101790647Y-59359100D01*
X103915697Y-59359100D01*
X103932144Y-59360178D01*
X103962200Y-59364135D01*
X103970388Y-59363057D01*
X104000444Y-59359100D01*
X104114524Y-59344081D01*
X104256467Y-59285286D01*
X104378357Y-59191757D01*
X104396819Y-59167697D01*
X104407686Y-59155307D01*
X104722907Y-58840086D01*
X104735298Y-58829218D01*
X104752806Y-58815784D01*
X104752807Y-58815783D01*
X104759357Y-58810757D01*
X104817938Y-58734412D01*
X104824227Y-58726216D01*
X104847860Y-58695418D01*
X104847860Y-58695417D01*
X104852886Y-58688868D01*
X104880118Y-58623124D01*
X104911681Y-58546924D01*
X104926700Y-58432844D01*
X104926700Y-58432842D01*
X104931735Y-58394600D01*
X104927778Y-58364544D01*
X104926700Y-58348097D01*
X104926700Y-57270896D01*
X104946702Y-57202775D01*
X104974513Y-57178677D01*
X104994479Y-57155635D01*
X104996150Y-57147952D01*
X104996150Y-55525500D01*
X105016152Y-55457379D01*
X105069808Y-55410886D01*
X105122150Y-55399500D01*
X105360900Y-55399500D01*
X105429021Y-55419502D01*
G37*
%TD.AperFunction*%
%TA.AperFunction,Conductor*%
G36*
X85089011Y-56807169D02*
G01*
X85120852Y-56836463D01*
X85143206Y-56865596D01*
X85143210Y-56865600D01*
X85148236Y-56872150D01*
X85154786Y-56877176D01*
X85154787Y-56877177D01*
X85172295Y-56890611D01*
X85184686Y-56901479D01*
X85863714Y-57580507D01*
X85874581Y-57592897D01*
X85893043Y-57616957D01*
X85899589Y-57621980D01*
X85938471Y-57651815D01*
X85993729Y-57694216D01*
X86035596Y-57751554D01*
X86039818Y-57822425D01*
X86005054Y-57884328D01*
X85942341Y-57917609D01*
X85917025Y-57920179D01*
X84883006Y-57920179D01*
X84814885Y-57900177D01*
X84771549Y-57852944D01*
X84738011Y-57789335D01*
X84701867Y-57720782D01*
X84581470Y-57578310D01*
X84433287Y-57465016D01*
X84427104Y-57462133D01*
X84421781Y-57458909D01*
X84373875Y-57406512D01*
X84361902Y-57336532D01*
X84389664Y-57271188D01*
X84422158Y-57243131D01*
X84489321Y-57202775D01*
X84508048Y-57191523D01*
X84513010Y-57186831D01*
X84638619Y-57068048D01*
X84638621Y-57068046D01*
X84643577Y-57063359D01*
X84748423Y-56909083D01*
X84751465Y-56901479D01*
X84765505Y-56866375D01*
X84809374Y-56810554D01*
X84882494Y-56787167D01*
X85020890Y-56787167D01*
X85089011Y-56807169D01*
G37*
%TD.AperFunction*%
%TA.AperFunction,Conductor*%
G36*
X98785921Y-53435002D02*
G01*
X98832414Y-53488658D01*
X98843800Y-53541000D01*
X98843800Y-53671900D01*
X98823798Y-53740021D01*
X98770142Y-53786514D01*
X98717800Y-53797900D01*
X97053000Y-53797900D01*
X96984879Y-53777898D01*
X96938386Y-53724242D01*
X96927000Y-53671900D01*
X96927000Y-53541000D01*
X96947002Y-53472879D01*
X97000658Y-53426386D01*
X97053000Y-53415000D01*
X98717800Y-53415000D01*
X98785921Y-53435002D01*
G37*
%TD.AperFunction*%
%TA.AperFunction,Conductor*%
G36*
X100613253Y-49345716D02*
G01*
X100659746Y-49399372D01*
X100670442Y-49464884D01*
X100663598Y-49530000D01*
X100677828Y-49665384D01*
X100678807Y-49674703D01*
X100666035Y-49744542D01*
X100617533Y-49796389D01*
X100593374Y-49807397D01*
X100579021Y-49812186D01*
X100565838Y-49818361D01*
X100427993Y-49903663D01*
X100416592Y-49912699D01*
X100302061Y-50027429D01*
X100293049Y-50038840D01*
X100207984Y-50176843D01*
X100201837Y-50190024D01*
X100150662Y-50344310D01*
X100147795Y-50357686D01*
X100138128Y-50452038D01*
X100137800Y-50458455D01*
X100137800Y-50883485D01*
X100142275Y-50898724D01*
X100143665Y-50899929D01*
X100151348Y-50901600D01*
X102324412Y-50901600D01*
X102363559Y-50890105D01*
X102383051Y-50877577D01*
X102418913Y-50874343D01*
X102418913Y-50872510D01*
X102457811Y-50872510D01*
X102525932Y-50892512D01*
X102572425Y-50946168D01*
X102583811Y-50998510D01*
X102583811Y-51088709D01*
X102590566Y-51150891D01*
X102593340Y-51158290D01*
X102594071Y-51161366D01*
X102594071Y-51219658D01*
X102593340Y-51222734D01*
X102590566Y-51230133D01*
X102583811Y-51292315D01*
X102583811Y-51379022D01*
X102563809Y-51447143D01*
X102510153Y-51493636D01*
X102439879Y-51503740D01*
X102375299Y-51474246D01*
X102341103Y-51421037D01*
X102336662Y-51417189D01*
X102328979Y-51415518D01*
X101821732Y-51415518D01*
X101794949Y-51412639D01*
X101780979Y-51409600D01*
X100155916Y-51409600D01*
X100140677Y-51414075D01*
X100139472Y-51415465D01*
X100137801Y-51423148D01*
X100137801Y-51852695D01*
X100138138Y-51859214D01*
X100148057Y-51954806D01*
X100150949Y-51968200D01*
X100202388Y-52122384D01*
X100208561Y-52135562D01*
X100293863Y-52273407D01*
X100302899Y-52284808D01*
X100417629Y-52399339D01*
X100429040Y-52408351D01*
X100503063Y-52453979D01*
X100550556Y-52506751D01*
X100561980Y-52576822D01*
X100533706Y-52641946D01*
X100474712Y-52681446D01*
X100424107Y-52686583D01*
X100416737Y-52685828D01*
X100416730Y-52685828D01*
X100413532Y-52685500D01*
X99866068Y-52685500D01*
X99862822Y-52685837D01*
X99862818Y-52685837D01*
X99828717Y-52689375D01*
X99763781Y-52696113D01*
X99757240Y-52698295D01*
X99757241Y-52698295D01*
X99608476Y-52747927D01*
X99608474Y-52747928D01*
X99601532Y-52750244D01*
X99595308Y-52754096D01*
X99595307Y-52754096D01*
X99555680Y-52778618D01*
X99456087Y-52840248D01*
X99450914Y-52845430D01*
X99445177Y-52849977D01*
X99443745Y-52848170D01*
X99391225Y-52876902D01*
X99320405Y-52871892D01*
X99283947Y-52848501D01*
X99283117Y-52849552D01*
X99265960Y-52836002D01*
X99132920Y-52753996D01*
X99119739Y-52747849D01*
X98981666Y-52702052D01*
X98923307Y-52661621D01*
X98896070Y-52596057D01*
X98908604Y-52526175D01*
X98955031Y-52475315D01*
X99063920Y-52407932D01*
X99070148Y-52404078D01*
X99195105Y-52278903D01*
X99209731Y-52255176D01*
X99284075Y-52134568D01*
X99284076Y-52134566D01*
X99287915Y-52128338D01*
X99343597Y-51960461D01*
X99354300Y-51856000D01*
X99354300Y-50455200D01*
X99353893Y-50451278D01*
X99344038Y-50356292D01*
X99344037Y-50356288D01*
X99343326Y-50349434D01*
X99335371Y-50325588D01*
X99289668Y-50188602D01*
X99287350Y-50181654D01*
X99194278Y-50031252D01*
X99069103Y-49906295D01*
X99060907Y-49901243D01*
X98924768Y-49817325D01*
X98924766Y-49817324D01*
X98918538Y-49813485D01*
X98758054Y-49760255D01*
X98757189Y-49759968D01*
X98757187Y-49759968D01*
X98750661Y-49757803D01*
X98743825Y-49757103D01*
X98743822Y-49757102D01*
X98700769Y-49752691D01*
X98646200Y-49747100D01*
X97720400Y-49747100D01*
X97717154Y-49747437D01*
X97717150Y-49747437D01*
X97621492Y-49757362D01*
X97621488Y-49757363D01*
X97614634Y-49758074D01*
X97608098Y-49760255D01*
X97608096Y-49760255D01*
X97499790Y-49796389D01*
X97446854Y-49814050D01*
X97440623Y-49817906D01*
X97434003Y-49821007D01*
X97433366Y-49819647D01*
X97372914Y-49836280D01*
X97305145Y-49815115D01*
X97286051Y-49799471D01*
X97245971Y-49759461D01*
X97234560Y-49750449D01*
X97096557Y-49665384D01*
X97083376Y-49659237D01*
X96929090Y-49608062D01*
X96915714Y-49605195D01*
X96821362Y-49595528D01*
X96814945Y-49595200D01*
X96711812Y-49595200D01*
X96643691Y-49575198D01*
X96597198Y-49521542D01*
X96586502Y-49482372D01*
X96584664Y-49464886D01*
X96597436Y-49395047D01*
X96645937Y-49343200D01*
X96709974Y-49325714D01*
X100545132Y-49325714D01*
X100613253Y-49345716D01*
G37*
%TD.AperFunction*%
%TD*%
M02*
