%TF.GenerationSoftware,KiCad,Pcbnew,(6.0.0-0)*%
%TF.CreationDate,2022-01-27T17:40:45+01:00*%
%TF.ProjectId,GlowCoreMini,476c6f77-436f-4726-954d-696e692e6b69,rev?*%
%TF.SameCoordinates,Original*%
%TF.FileFunction,Paste,Top*%
%TF.FilePolarity,Positive*%
%FSLAX46Y46*%
G04 Gerber Fmt 4.6, Leading zero omitted, Abs format (unit mm)*
G04 Created by KiCad (PCBNEW (6.0.0-0)) date 2022-01-27 17:40:45*
%MOMM*%
%LPD*%
G01*
G04 APERTURE LIST*
G04 Aperture macros list*
%AMRoundRect*
0 Rectangle with rounded corners*
0 $1 Rounding radius*
0 $2 $3 $4 $5 $6 $7 $8 $9 X,Y pos of 4 corners*
0 Add a 4 corners polygon primitive as box body*
4,1,4,$2,$3,$4,$5,$6,$7,$8,$9,$2,$3,0*
0 Add four circle primitives for the rounded corners*
1,1,$1+$1,$2,$3*
1,1,$1+$1,$4,$5*
1,1,$1+$1,$6,$7*
1,1,$1+$1,$8,$9*
0 Add four rect primitives between the rounded corners*
20,1,$1+$1,$2,$3,$4,$5,0*
20,1,$1+$1,$4,$5,$6,$7,0*
20,1,$1+$1,$6,$7,$8,$9,0*
20,1,$1+$1,$8,$9,$2,$3,0*%
G04 Aperture macros list end*
%ADD10C,0.240000*%
%ADD11C,0.010000*%
%ADD12R,1.500000X0.900000*%
%ADD13RoundRect,0.237500X0.250000X0.237500X-0.250000X0.237500X-0.250000X-0.237500X0.250000X-0.237500X0*%
%ADD14RoundRect,0.237500X-0.237500X0.300000X-0.237500X-0.300000X0.237500X-0.300000X0.237500X0.300000X0*%
%ADD15RoundRect,0.237500X-0.300000X-0.237500X0.300000X-0.237500X0.300000X0.237500X-0.300000X0.237500X0*%
%ADD16RoundRect,0.250000X0.275000X0.275000X-0.275000X0.275000X-0.275000X-0.275000X0.275000X-0.275000X0*%
%ADD17RoundRect,0.062500X0.350000X0.062500X-0.350000X0.062500X-0.350000X-0.062500X0.350000X-0.062500X0*%
%ADD18RoundRect,0.062500X0.062500X0.350000X-0.062500X0.350000X-0.062500X-0.350000X0.062500X-0.350000X0*%
%ADD19RoundRect,0.237500X-0.237500X0.250000X-0.237500X-0.250000X0.237500X-0.250000X0.237500X0.250000X0*%
%ADD20R,1.676400X0.355600*%
%ADD21RoundRect,0.150000X0.587500X0.150000X-0.587500X0.150000X-0.587500X-0.150000X0.587500X-0.150000X0*%
%ADD22R,2.000000X1.500000*%
%ADD23R,2.000000X3.800000*%
%ADD24R,1.300000X0.600000*%
%ADD25R,1.300000X0.300000*%
%ADD26O,2.200000X1.200000*%
%ADD27O,1.800000X1.200000*%
%ADD28RoundRect,0.237500X0.237500X-0.250000X0.237500X0.250000X-0.237500X0.250000X-0.237500X-0.250000X0*%
%ADD29O,3.000000X1.600000*%
%ADD30O,1.600000X3.200000*%
%ADD31C,2.300000*%
%ADD32RoundRect,0.237500X-0.287500X-0.237500X0.287500X-0.237500X0.287500X0.237500X-0.287500X0.237500X0*%
%ADD33RoundRect,0.150000X0.150000X-0.587500X0.150000X0.587500X-0.150000X0.587500X-0.150000X-0.587500X0*%
%ADD34RoundRect,0.237500X-0.250000X-0.237500X0.250000X-0.237500X0.250000X0.237500X-0.250000X0.237500X0*%
%ADD35RoundRect,0.237500X0.300000X0.237500X-0.300000X0.237500X-0.300000X-0.237500X0.300000X-0.237500X0*%
%ADD36RoundRect,0.250000X-1.500000X-0.550000X1.500000X-0.550000X1.500000X0.550000X-1.500000X0.550000X0*%
%ADD37R,1.800000X2.500000*%
%ADD38R,2.000000X0.900000*%
%ADD39R,0.900000X2.000000*%
%ADD40R,1.330000X1.330000*%
%ADD41RoundRect,0.150000X-0.587500X-0.150000X0.587500X-0.150000X0.587500X0.150000X-0.587500X0.150000X0*%
G04 APERTURE END LIST*
D10*
%TO.C,MK1*%
X156049000Y-91991000D02*
G75*
G03*
X156559000Y-92501000I696673J186673D01*
G01*
X156559000Y-91141000D02*
G75*
G03*
X156049000Y-91651000I186673J-696673D01*
G01*
X156899000Y-92501000D02*
G75*
G03*
X157409000Y-91991000I-186673J696673D01*
G01*
X157409000Y-91651000D02*
G75*
G03*
X156899000Y-91141000I-696673J-186673D01*
G01*
D11*
X155304000Y-93146000D02*
X155304000Y-92646000D01*
X155304000Y-92646000D02*
X155604000Y-92646000D01*
X155604000Y-92646000D02*
X155604000Y-93146000D01*
X155604000Y-93146000D02*
X155304000Y-93146000D01*
G36*
X155604000Y-93146000D02*
G01*
X155304000Y-93146000D01*
X155304000Y-92646000D01*
X155604000Y-92646000D01*
X155604000Y-93146000D01*
G37*
X155604000Y-93146000D02*
X155304000Y-93146000D01*
X155304000Y-92646000D01*
X155604000Y-92646000D01*
X155604000Y-93146000D01*
X154654000Y-90996000D02*
X154654000Y-90496000D01*
X154654000Y-90496000D02*
X154954000Y-90496000D01*
X154954000Y-90496000D02*
X154954000Y-90996000D01*
X154954000Y-90996000D02*
X154654000Y-90996000D01*
G36*
X154954000Y-90996000D02*
G01*
X154654000Y-90996000D01*
X154654000Y-90496000D01*
X154954000Y-90496000D01*
X154954000Y-90996000D01*
G37*
X154954000Y-90996000D02*
X154654000Y-90996000D01*
X154654000Y-90496000D01*
X154954000Y-90496000D01*
X154954000Y-90996000D01*
X155304000Y-90996000D02*
X155304000Y-90496000D01*
X155304000Y-90496000D02*
X155604000Y-90496000D01*
X155604000Y-90496000D02*
X155604000Y-90996000D01*
X155604000Y-90996000D02*
X155304000Y-90996000D01*
G36*
X155604000Y-90996000D02*
G01*
X155304000Y-90996000D01*
X155304000Y-90496000D01*
X155604000Y-90496000D01*
X155604000Y-90996000D01*
G37*
X155604000Y-90996000D02*
X155304000Y-90996000D01*
X155304000Y-90496000D01*
X155604000Y-90496000D01*
X155604000Y-90996000D01*
X154654000Y-93146000D02*
X154654000Y-92646000D01*
X154654000Y-92646000D02*
X154954000Y-92646000D01*
X154954000Y-92646000D02*
X154954000Y-93146000D01*
X154954000Y-93146000D02*
X154654000Y-93146000D01*
G36*
X154954000Y-93146000D02*
G01*
X154654000Y-93146000D01*
X154654000Y-92646000D01*
X154954000Y-92646000D01*
X154954000Y-93146000D01*
G37*
X154954000Y-93146000D02*
X154654000Y-93146000D01*
X154654000Y-92646000D01*
X154954000Y-92646000D01*
X154954000Y-93146000D01*
X154004000Y-90996000D02*
X154004000Y-90496000D01*
X154004000Y-90496000D02*
X154304000Y-90496000D01*
X154304000Y-90496000D02*
X154304000Y-90996000D01*
X154304000Y-90996000D02*
X154004000Y-90996000D01*
G36*
X154304000Y-90996000D02*
G01*
X154004000Y-90996000D01*
X154004000Y-90496000D01*
X154304000Y-90496000D01*
X154304000Y-90996000D01*
G37*
X154304000Y-90996000D02*
X154004000Y-90996000D01*
X154004000Y-90496000D01*
X154304000Y-90496000D01*
X154304000Y-90996000D01*
X154004000Y-93146000D02*
X154004000Y-92646000D01*
X154004000Y-92646000D02*
X154304000Y-92646000D01*
X154304000Y-92646000D02*
X154304000Y-93146000D01*
X154304000Y-93146000D02*
X154004000Y-93146000D01*
G36*
X154304000Y-93146000D02*
G01*
X154004000Y-93146000D01*
X154004000Y-92646000D01*
X154304000Y-92646000D01*
X154304000Y-93146000D01*
G37*
X154304000Y-93146000D02*
X154004000Y-93146000D01*
X154004000Y-92646000D01*
X154304000Y-92646000D01*
X154304000Y-93146000D01*
%TD*%
D12*
%TO.C,SW1*%
X154427000Y-107327000D03*
X150627000Y-107327000D03*
X150627000Y-108827000D03*
X154427000Y-108827000D03*
%TD*%
D13*
%TO.C,R9*%
X170584500Y-84328000D03*
X168759500Y-84328000D03*
%TD*%
D14*
%TO.C,C9*%
X159385000Y-98959500D03*
X159385000Y-100684500D03*
%TD*%
D15*
%TO.C,C5*%
X150648500Y-101981000D03*
X152373500Y-101981000D03*
%TD*%
%TO.C,C1*%
X126264500Y-96012000D03*
X127989500Y-96012000D03*
%TD*%
D16*
%TO.C,U4*%
X157495000Y-87417500D03*
X156195000Y-86117500D03*
X157495000Y-86117500D03*
X156195000Y-87417500D03*
D17*
X158782500Y-88017500D03*
X158782500Y-87517500D03*
X158782500Y-87017500D03*
X158782500Y-86517500D03*
X158782500Y-86017500D03*
X158782500Y-85517500D03*
D18*
X158095000Y-84830000D03*
X157595000Y-84830000D03*
X157095000Y-84830000D03*
X156595000Y-84830000D03*
X156095000Y-84830000D03*
X155595000Y-84830000D03*
D17*
X154907500Y-85517500D03*
X154907500Y-86017500D03*
X154907500Y-86517500D03*
X154907500Y-87017500D03*
X154907500Y-87517500D03*
X154907500Y-88017500D03*
D18*
X155595000Y-88705000D03*
X156095000Y-88705000D03*
X156595000Y-88705000D03*
X157095000Y-88705000D03*
X157595000Y-88705000D03*
X158095000Y-88705000D03*
%TD*%
D19*
%TO.C,R1*%
X120015000Y-99798500D03*
X120015000Y-101623500D03*
%TD*%
D14*
%TO.C,C3*%
X159512000Y-94488000D03*
X159512000Y-96213000D03*
%TD*%
D20*
%TO.C,U1*%
X122021600Y-97644499D03*
X122021600Y-98294500D03*
X122021600Y-98944501D03*
X122021600Y-99594500D03*
X122021600Y-100244499D03*
X122021600Y-100894500D03*
X122021600Y-101544499D03*
X127660400Y-101544501D03*
X127660400Y-100894500D03*
X127660400Y-100244501D03*
X127660400Y-99594500D03*
X127660400Y-98944501D03*
X127660400Y-98294500D03*
X127660400Y-97644501D03*
%TD*%
D21*
%TO.C,Q2*%
X159814500Y-108900000D03*
X159814500Y-107000000D03*
X157939500Y-107950000D03*
%TD*%
D22*
%TO.C,U3*%
X157328000Y-99836000D03*
X157328000Y-97536000D03*
X157328000Y-95236000D03*
D23*
X151028000Y-97536000D03*
%TD*%
D24*
%TO.C,USB1*%
X166577000Y-94005000D03*
X166577000Y-93205000D03*
D25*
X166577000Y-92055000D03*
X166577000Y-91055000D03*
X166577000Y-90555000D03*
X166577000Y-89555000D03*
D24*
X166577000Y-87605000D03*
X166577000Y-88405000D03*
D25*
X166577000Y-89055000D03*
X166577000Y-90055000D03*
X166577000Y-91555000D03*
X166577000Y-92555000D03*
D26*
X167317000Y-86485000D03*
X167317000Y-95125000D03*
D27*
X171497000Y-86485000D03*
X171497000Y-95125000D03*
%TD*%
D28*
%TO.C,R6*%
X157861000Y-105433500D03*
X157861000Y-103608500D03*
%TD*%
D29*
%TO.C,J2*%
X163865000Y-108512000D03*
X163865000Y-98812000D03*
X168565000Y-108512000D03*
X168565000Y-98812000D03*
D30*
X168065000Y-103662000D03*
D31*
X160365000Y-103662000D03*
%TD*%
D28*
%TO.C,R8*%
X156210000Y-108862500D03*
X156210000Y-107037500D03*
%TD*%
D15*
%TO.C,C6*%
X160300500Y-84328000D03*
X162025500Y-84328000D03*
%TD*%
D32*
%TO.C,D2*%
X109361000Y-90805000D03*
X111111000Y-90805000D03*
%TD*%
D33*
%TO.C,Q1*%
X161102000Y-95044500D03*
X163002000Y-95044500D03*
X162052000Y-93169500D03*
%TD*%
D34*
%TO.C,R4*%
X150471500Y-91567000D03*
X152296500Y-91567000D03*
%TD*%
D15*
%TO.C,C8*%
X150521500Y-93091000D03*
X152246500Y-93091000D03*
%TD*%
D35*
%TO.C,C4*%
X152400000Y-103505000D03*
X150675000Y-103505000D03*
%TD*%
D34*
%TO.C,R3*%
X164822500Y-84328000D03*
X166647500Y-84328000D03*
%TD*%
D13*
%TO.C,R5*%
X152423500Y-105664000D03*
X150598500Y-105664000D03*
%TD*%
D36*
%TO.C,C2*%
X121533000Y-106299000D03*
X127133000Y-106299000D03*
%TD*%
D37*
%TO.C,D1*%
X162052000Y-90614000D03*
X162052000Y-86614000D03*
%TD*%
D38*
%TO.C,U2*%
X130819000Y-91260000D03*
X130819000Y-92530000D03*
X130819000Y-93800000D03*
X130819000Y-95070000D03*
X130819000Y-96340000D03*
X130819000Y-97610000D03*
X130819000Y-98880000D03*
X130819000Y-100150000D03*
X130819000Y-101420000D03*
X130819000Y-102690000D03*
X130819000Y-103960000D03*
X130819000Y-105230000D03*
X130819000Y-106500000D03*
X130819000Y-107770000D03*
D39*
X133604000Y-108770000D03*
X134874000Y-108770000D03*
X136144000Y-108770000D03*
X137414000Y-108770000D03*
X138684000Y-108770000D03*
X139954000Y-108770000D03*
X141224000Y-108770000D03*
X142494000Y-108770000D03*
X143764000Y-108770000D03*
X145034000Y-108770000D03*
D38*
X147819000Y-107770000D03*
X147819000Y-106500000D03*
X147819000Y-105230000D03*
X147819000Y-103960000D03*
X147819000Y-102690000D03*
X147819000Y-101420000D03*
X147819000Y-100150000D03*
X147819000Y-98880000D03*
X147819000Y-97610000D03*
X147819000Y-96340000D03*
X147819000Y-95070000D03*
X147819000Y-93800000D03*
X147819000Y-92530000D03*
X147819000Y-91260000D03*
D40*
X136484000Y-96925000D03*
X138319000Y-96925000D03*
X140154000Y-96925000D03*
X136484000Y-98760000D03*
X138319000Y-98760000D03*
X140154000Y-98760000D03*
X136484000Y-100595000D03*
X138319000Y-100595000D03*
X140154000Y-100595000D03*
%TD*%
D14*
%TO.C,C7*%
X159385000Y-91186000D03*
X159385000Y-92911000D03*
%TD*%
D34*
%TO.C,R7*%
X109323500Y-92456000D03*
X111148500Y-92456000D03*
%TD*%
D13*
%TO.C,R2*%
X155852500Y-101981000D03*
X154027500Y-101981000D03*
%TD*%
D41*
%TO.C,Q3*%
X154256500Y-103571000D03*
X154256500Y-105471000D03*
X156131500Y-104521000D03*
%TD*%
M02*
