%TF.GenerationSoftware,KiCad,Pcbnew,(6.0.0-0)*%
%TF.CreationDate,2022-01-27T22:48:40+01:00*%
%TF.ProjectId,GlowCoreMini,476c6f77-436f-4726-954d-696e692e6b69,rev?*%
%TF.SameCoordinates,Original*%
%TF.FileFunction,Soldermask,Top*%
%TF.FilePolarity,Negative*%
%FSLAX46Y46*%
G04 Gerber Fmt 4.6, Leading zero omitted, Abs format (unit mm)*
G04 Created by KiCad (PCBNEW (6.0.0-0)) date 2022-01-27 22:48:40*
%MOMM*%
%LPD*%
G01*
G04 APERTURE LIST*
G04 Aperture macros list*
%AMRoundRect*
0 Rectangle with rounded corners*
0 $1 Rounding radius*
0 $2 $3 $4 $5 $6 $7 $8 $9 X,Y pos of 4 corners*
0 Add a 4 corners polygon primitive as box body*
4,1,4,$2,$3,$4,$5,$6,$7,$8,$9,$2,$3,0*
0 Add four circle primitives for the rounded corners*
1,1,$1+$1,$2,$3*
1,1,$1+$1,$4,$5*
1,1,$1+$1,$6,$7*
1,1,$1+$1,$8,$9*
0 Add four rect primitives between the rounded corners*
20,1,$1+$1,$2,$3,$4,$5,0*
20,1,$1+$1,$4,$5,$6,$7,0*
20,1,$1+$1,$6,$7,$8,$9,0*
20,1,$1+$1,$8,$9,$2,$3,0*%
G04 Aperture macros list end*
%ADD10C,0.500000*%
%ADD11R,1.500000X0.900000*%
%ADD12R,0.900000X0.250000*%
%ADD13R,0.250000X0.900000*%
%ADD14R,3.250000X3.250000*%
%ADD15RoundRect,0.237500X0.250000X0.237500X-0.250000X0.237500X-0.250000X-0.237500X0.250000X-0.237500X0*%
%ADD16RoundRect,0.237500X-0.237500X0.300000X-0.237500X-0.300000X0.237500X-0.300000X0.237500X0.300000X0*%
%ADD17RoundRect,0.237500X-0.300000X-0.237500X0.300000X-0.237500X0.300000X0.237500X-0.300000X0.237500X0*%
%ADD18RoundRect,0.237500X-0.237500X0.250000X-0.237500X-0.250000X0.237500X-0.250000X0.237500X0.250000X0*%
%ADD19R,1.676400X0.355600*%
%ADD20RoundRect,0.150000X0.587500X0.150000X-0.587500X0.150000X-0.587500X-0.150000X0.587500X-0.150000X0*%
%ADD21R,2.000000X3.800000*%
%ADD22R,2.000000X1.500000*%
%ADD23C,0.700000*%
%ADD24R,1.300000X0.600000*%
%ADD25R,1.300000X0.300000*%
%ADD26O,2.200000X1.200000*%
%ADD27O,1.800000X1.200000*%
%ADD28RoundRect,0.237500X0.237500X-0.250000X0.237500X0.250000X-0.237500X0.250000X-0.237500X-0.250000X0*%
%ADD29C,1.800000*%
%ADD30O,3.000000X1.600000*%
%ADD31O,1.600000X3.200000*%
%ADD32C,2.300000*%
%ADD33C,0.500000*%
%ADD34R,0.400000X0.600000*%
%ADD35RoundRect,0.237500X-0.287500X-0.237500X0.287500X-0.237500X0.287500X0.237500X-0.287500X0.237500X0*%
%ADD36RoundRect,0.237500X0.300000X0.237500X-0.300000X0.237500X-0.300000X-0.237500X0.300000X-0.237500X0*%
%ADD37R,1.700000X1.700000*%
%ADD38O,1.700000X1.700000*%
%ADD39RoundRect,0.150000X0.150000X-0.587500X0.150000X0.587500X-0.150000X0.587500X-0.150000X-0.587500X0*%
%ADD40RoundRect,0.237500X-0.250000X-0.237500X0.250000X-0.237500X0.250000X0.237500X-0.250000X0.237500X0*%
%ADD41RoundRect,0.250000X-1.500000X-0.550000X1.500000X-0.550000X1.500000X0.550000X-1.500000X0.550000X0*%
%ADD42R,2.600000X2.600000*%
%ADD43C,2.600000*%
%ADD44R,1.800000X2.500000*%
%ADD45R,2.000000X0.900000*%
%ADD46R,0.900000X2.000000*%
%ADD47R,1.330000X1.330000*%
%ADD48C,0.300000*%
%ADD49RoundRect,0.237500X0.237500X-0.300000X0.237500X0.300000X-0.237500X0.300000X-0.237500X-0.300000X0*%
%ADD50RoundRect,0.150000X-0.587500X-0.150000X0.587500X-0.150000X0.587500X0.150000X-0.587500X0.150000X0*%
G04 APERTURE END LIST*
D10*
%TO.C,MK1*%
X157653000Y-92075000D02*
G75*
G03*
X157653000Y-92075000I-670000J0D01*
G01*
%TD*%
D11*
%TO.C,SW1*%
X154427000Y-107581000D03*
X150627000Y-107581000D03*
X150627000Y-109081000D03*
X154427000Y-109081000D03*
%TD*%
D12*
%TO.C,U4*%
X159499013Y-87986999D03*
X159499013Y-87486999D03*
X159499013Y-86986999D03*
X159499013Y-86486999D03*
X159499013Y-85987000D03*
X159499013Y-85487000D03*
X159499013Y-84987000D03*
D13*
X158598999Y-84086986D03*
X158098999Y-84086986D03*
X157598999Y-84086986D03*
X157098999Y-84086986D03*
X156599000Y-84086986D03*
X156099000Y-84086986D03*
X155599000Y-84086986D03*
D12*
X154698986Y-84987000D03*
X154698986Y-85487000D03*
X154698986Y-85987000D03*
X154698986Y-86486999D03*
X154698986Y-86986999D03*
X154698986Y-87486999D03*
X154698986Y-87986999D03*
D13*
X155599000Y-88887013D03*
X156099000Y-88887013D03*
X156599000Y-88887013D03*
X157098999Y-88887013D03*
X157598999Y-88887013D03*
X158098999Y-88887013D03*
X158598999Y-88887013D03*
D14*
X157099000Y-86487000D03*
%TD*%
D15*
%TO.C,R9*%
X170838500Y-84328000D03*
X169013500Y-84328000D03*
%TD*%
D16*
%TO.C,C9*%
X159385000Y-98578500D03*
X159385000Y-100303500D03*
%TD*%
D17*
%TO.C,C5*%
X150648500Y-101981000D03*
X152373500Y-101981000D03*
%TD*%
%TO.C,C1*%
X126264500Y-95350500D03*
X127989500Y-95350500D03*
%TD*%
D18*
%TO.C,R1*%
X120015000Y-99137000D03*
X120015000Y-100962000D03*
%TD*%
D16*
%TO.C,C3*%
X159893000Y-94488000D03*
X159893000Y-96213000D03*
%TD*%
D17*
%TO.C,C10*%
X162459500Y-84328000D03*
X164184500Y-84328000D03*
%TD*%
D19*
%TO.C,U1*%
X122021600Y-96982999D03*
X122021600Y-97633000D03*
X122021600Y-98283001D03*
X122021600Y-98933000D03*
X122021600Y-99582999D03*
X122021600Y-100233000D03*
X122021600Y-100882999D03*
X127660400Y-100883001D03*
X127660400Y-100233000D03*
X127660400Y-99583001D03*
X127660400Y-98933000D03*
X127660400Y-98283001D03*
X127660400Y-97633000D03*
X127660400Y-96983001D03*
%TD*%
D20*
%TO.C,Q2*%
X159814500Y-109154000D03*
X159814500Y-107254000D03*
X157939500Y-108204000D03*
%TD*%
D21*
%TO.C,U3*%
X151028000Y-97536000D03*
D22*
X157328000Y-97536000D03*
X157328000Y-95236000D03*
X157328000Y-99836000D03*
%TD*%
D23*
%TO.C,USB1*%
X168071000Y-94330000D03*
X168071000Y-88550000D03*
D24*
X166831000Y-94640000D03*
X166831000Y-93840000D03*
D25*
X166831000Y-92690000D03*
X166831000Y-91690000D03*
X166831000Y-91190000D03*
X166831000Y-90190000D03*
D24*
X166831000Y-88240000D03*
X166831000Y-89040000D03*
D25*
X166831000Y-89690000D03*
X166831000Y-90690000D03*
X166831000Y-92190000D03*
X166831000Y-93190000D03*
D26*
X167571000Y-95760000D03*
X167571000Y-87120000D03*
D27*
X171751000Y-87120000D03*
X171751000Y-95760000D03*
%TD*%
D28*
%TO.C,R6*%
X157861000Y-105433500D03*
X157861000Y-103608500D03*
%TD*%
D29*
%TO.C,J2*%
X171491000Y-103662000D03*
D30*
X164041000Y-98812000D03*
X168741000Y-98812000D03*
X168741000Y-108512000D03*
X164041000Y-108512000D03*
D31*
X168241000Y-103662000D03*
D32*
X160541000Y-103662000D03*
%TD*%
D33*
%TO.C,MK1*%
X156983000Y-92075000D03*
D34*
X154408000Y-93150000D03*
X155058000Y-93150000D03*
X155708000Y-93150000D03*
X155708000Y-91000000D03*
X155058000Y-91000000D03*
X154408000Y-91000000D03*
%TD*%
D28*
%TO.C,R8*%
X156210000Y-109116500D03*
X156210000Y-107291500D03*
%TD*%
D35*
%TO.C,D2*%
X126125000Y-91821000D03*
X127875000Y-91821000D03*
%TD*%
D36*
%TO.C,C6*%
X164184500Y-85852000D03*
X162459500Y-85852000D03*
%TD*%
D37*
%TO.C,J3*%
X110490000Y-84836000D03*
D38*
X110490000Y-87376000D03*
X113030000Y-84836000D03*
X113030000Y-87376000D03*
X115570000Y-84836000D03*
X115570000Y-87376000D03*
X118110000Y-84836000D03*
X118110000Y-87376000D03*
X120650000Y-84836000D03*
X120650000Y-87376000D03*
X123190000Y-84836000D03*
X123190000Y-87376000D03*
%TD*%
D39*
%TO.C,Q1*%
X161483000Y-96568500D03*
X163383000Y-96568500D03*
X162433000Y-94693500D03*
%TD*%
D40*
%TO.C,R4*%
X150471500Y-91567000D03*
X152296500Y-91567000D03*
%TD*%
D17*
%TO.C,C8*%
X150521500Y-93091000D03*
X152246500Y-93091000D03*
%TD*%
D36*
%TO.C,C4*%
X152400000Y-103505000D03*
X150675000Y-103505000D03*
%TD*%
D40*
%TO.C,R3*%
X165711500Y-84328000D03*
X167536500Y-84328000D03*
%TD*%
D15*
%TO.C,R5*%
X152423500Y-105537000D03*
X150598500Y-105537000D03*
%TD*%
D41*
%TO.C,C2*%
X121533000Y-106299000D03*
X127133000Y-106299000D03*
%TD*%
D42*
%TO.C,J4*%
X113538000Y-97028000D03*
D43*
X113538000Y-102108000D03*
X113538000Y-107188000D03*
%TD*%
D44*
%TO.C,D1*%
X162433000Y-92138000D03*
X162433000Y-88138000D03*
%TD*%
D45*
%TO.C,U2*%
X130819000Y-91260000D03*
X130819000Y-92530000D03*
X130819000Y-93800000D03*
X130819000Y-95070000D03*
X130819000Y-96340000D03*
X130819000Y-97610000D03*
X130819000Y-98880000D03*
X130819000Y-100150000D03*
X130819000Y-101420000D03*
X130819000Y-102690000D03*
X130819000Y-103960000D03*
X130819000Y-105230000D03*
X130819000Y-106500000D03*
X130819000Y-107770000D03*
D46*
X133604000Y-108770000D03*
X134874000Y-108770000D03*
X136144000Y-108770000D03*
X137414000Y-108770000D03*
X138684000Y-108770000D03*
X139954000Y-108770000D03*
X141224000Y-108770000D03*
X142494000Y-108770000D03*
X143764000Y-108770000D03*
X145034000Y-108770000D03*
D45*
X147819000Y-107770000D03*
X147819000Y-106500000D03*
X147819000Y-105230000D03*
X147819000Y-103960000D03*
X147819000Y-102690000D03*
X147819000Y-101420000D03*
X147819000Y-100150000D03*
X147819000Y-98880000D03*
X147819000Y-97610000D03*
X147819000Y-96340000D03*
X147819000Y-95070000D03*
X147819000Y-93800000D03*
X147819000Y-92530000D03*
X147819000Y-91260000D03*
D47*
X136484000Y-96925000D03*
X138319000Y-96925000D03*
X140154000Y-96925000D03*
X136484000Y-98760000D03*
X138319000Y-98760000D03*
X140154000Y-98760000D03*
X136484000Y-100595000D03*
X138319000Y-100595000D03*
X140154000Y-100595000D03*
D48*
X137401500Y-96925000D03*
X139236500Y-96925000D03*
X136484000Y-97842500D03*
X138319000Y-97842500D03*
X140154000Y-97842500D03*
X137401500Y-98760000D03*
X139236500Y-98760000D03*
X136484000Y-99677500D03*
X138319000Y-99677500D03*
X140154000Y-99677500D03*
X137401500Y-100595000D03*
X139236500Y-100595000D03*
%TD*%
D49*
%TO.C,C7*%
X159893000Y-92837000D03*
X159893000Y-91112000D03*
%TD*%
D40*
%TO.C,R7*%
X126087500Y-93472000D03*
X127912500Y-93472000D03*
%TD*%
D15*
%TO.C,R2*%
X155852500Y-101981000D03*
X154027500Y-101981000D03*
%TD*%
D50*
%TO.C,Q3*%
X154256500Y-103571000D03*
X154256500Y-105471000D03*
X156131500Y-104521000D03*
%TD*%
M02*
