%TF.GenerationSoftware,KiCad,Pcbnew,(6.0.0-0)*%
%TF.CreationDate,2022-02-03T17:22:11+01:00*%
%TF.ProjectId,GlowCoreMini,476c6f77-436f-4726-954d-696e692e6b69,rev?*%
%TF.SameCoordinates,Original*%
%TF.FileFunction,Copper,L1,Top*%
%TF.FilePolarity,Positive*%
%FSLAX46Y46*%
G04 Gerber Fmt 4.6, Leading zero omitted, Abs format (unit mm)*
G04 Created by KiCad (PCBNEW (6.0.0-0)) date 2022-02-03 17:22:11*
%MOMM*%
%LPD*%
G01*
G04 APERTURE LIST*
G04 Aperture macros list*
%AMRoundRect*
0 Rectangle with rounded corners*
0 $1 Rounding radius*
0 $2 $3 $4 $5 $6 $7 $8 $9 X,Y pos of 4 corners*
0 Add a 4 corners polygon primitive as box body*
4,1,4,$2,$3,$4,$5,$6,$7,$8,$9,$2,$3,0*
0 Add four circle primitives for the rounded corners*
1,1,$1+$1,$2,$3*
1,1,$1+$1,$4,$5*
1,1,$1+$1,$6,$7*
1,1,$1+$1,$8,$9*
0 Add four rect primitives between the rounded corners*
20,1,$1+$1,$2,$3,$4,$5,0*
20,1,$1+$1,$4,$5,$6,$7,0*
20,1,$1+$1,$6,$7,$8,$9,0*
20,1,$1+$1,$8,$9,$2,$3,0*%
G04 Aperture macros list end*
%TA.AperFunction,EtchedComponent*%
%ADD10C,0.300000*%
%TD*%
%TA.AperFunction,ComponentPad*%
%ADD11R,1.700000X1.700000*%
%TD*%
%TA.AperFunction,ComponentPad*%
%ADD12O,1.700000X1.700000*%
%TD*%
%TA.AperFunction,SMDPad,CuDef*%
%ADD13R,0.900000X1.500000*%
%TD*%
%TA.AperFunction,SMDPad,CuDef*%
%ADD14R,0.250000X0.900000*%
%TD*%
%TA.AperFunction,SMDPad,CuDef*%
%ADD15R,0.900000X0.250000*%
%TD*%
%TA.AperFunction,SMDPad,CuDef*%
%ADD16R,3.250000X3.250000*%
%TD*%
%TA.AperFunction,SMDPad,CuDef*%
%ADD17RoundRect,0.237500X0.237500X-0.250000X0.237500X0.250000X-0.237500X0.250000X-0.237500X-0.250000X0*%
%TD*%
%TA.AperFunction,SMDPad,CuDef*%
%ADD18RoundRect,0.237500X-0.300000X-0.237500X0.300000X-0.237500X0.300000X0.237500X-0.300000X0.237500X0*%
%TD*%
%TA.AperFunction,SMDPad,CuDef*%
%ADD19RoundRect,0.237500X-0.237500X0.250000X-0.237500X-0.250000X0.237500X-0.250000X0.237500X0.250000X0*%
%TD*%
%TA.AperFunction,SMDPad,CuDef*%
%ADD20RoundRect,0.237500X0.300000X0.237500X-0.300000X0.237500X-0.300000X-0.237500X0.300000X-0.237500X0*%
%TD*%
%TA.AperFunction,SMDPad,CuDef*%
%ADD21RoundRect,0.237500X-0.237500X0.300000X-0.237500X-0.300000X0.237500X-0.300000X0.237500X0.300000X0*%
%TD*%
%TA.AperFunction,SMDPad,CuDef*%
%ADD22R,1.676400X0.355600*%
%TD*%
%TA.AperFunction,SMDPad,CuDef*%
%ADD23RoundRect,0.150000X0.587500X0.150000X-0.587500X0.150000X-0.587500X-0.150000X0.587500X-0.150000X0*%
%TD*%
%TA.AperFunction,SMDPad,CuDef*%
%ADD24R,1.500000X2.000000*%
%TD*%
%TA.AperFunction,SMDPad,CuDef*%
%ADD25R,3.800000X2.000000*%
%TD*%
%TA.AperFunction,ComponentPad*%
%ADD26C,0.700000*%
%TD*%
%TA.AperFunction,SMDPad,CuDef*%
%ADD27R,0.600000X1.300000*%
%TD*%
%TA.AperFunction,SMDPad,CuDef*%
%ADD28R,0.300000X1.300000*%
%TD*%
%TA.AperFunction,ComponentPad*%
%ADD29O,1.200000X2.200000*%
%TD*%
%TA.AperFunction,ComponentPad*%
%ADD30O,1.200000X1.800000*%
%TD*%
%TA.AperFunction,ComponentPad*%
%ADD31C,1.800000*%
%TD*%
%TA.AperFunction,ComponentPad*%
%ADD32O,1.600000X3.000000*%
%TD*%
%TA.AperFunction,ComponentPad*%
%ADD33O,3.200000X1.600000*%
%TD*%
%TA.AperFunction,ComponentPad*%
%ADD34C,2.300000*%
%TD*%
%TA.AperFunction,SMDPad,CuDef*%
%ADD35R,0.400000X0.600000*%
%TD*%
%TA.AperFunction,SMDPad,CuDef*%
%ADD36R,0.100000X0.100000*%
%TD*%
%TA.AperFunction,SMDPad,CuDef*%
%ADD37RoundRect,0.237500X0.250000X0.237500X-0.250000X0.237500X-0.250000X-0.237500X0.250000X-0.237500X0*%
%TD*%
%TA.AperFunction,SMDPad,CuDef*%
%ADD38RoundRect,0.237500X0.287500X0.237500X-0.287500X0.237500X-0.287500X-0.237500X0.287500X-0.237500X0*%
%TD*%
%TA.AperFunction,SMDPad,CuDef*%
%ADD39RoundRect,0.237500X0.237500X-0.300000X0.237500X0.300000X-0.237500X0.300000X-0.237500X-0.300000X0*%
%TD*%
%TA.AperFunction,SMDPad,CuDef*%
%ADD40RoundRect,0.250000X1.500000X0.550000X-1.500000X0.550000X-1.500000X-0.550000X1.500000X-0.550000X0*%
%TD*%
%TA.AperFunction,SMDPad,CuDef*%
%ADD41R,2.500000X1.800000*%
%TD*%
%TA.AperFunction,SMDPad,CuDef*%
%ADD42R,0.900000X2.000000*%
%TD*%
%TA.AperFunction,SMDPad,CuDef*%
%ADD43R,2.000000X0.900000*%
%TD*%
%TA.AperFunction,SMDPad,CuDef*%
%ADD44R,1.330000X1.330000*%
%TD*%
%TA.AperFunction,ComponentPad*%
%ADD45C,0.300000*%
%TD*%
%TA.AperFunction,ComponentPad*%
%ADD46R,2.200000X2.200000*%
%TD*%
%TA.AperFunction,ComponentPad*%
%ADD47C,2.200000*%
%TD*%
%TA.AperFunction,ViaPad*%
%ADD48C,0.800000*%
%TD*%
%TA.AperFunction,Conductor*%
%ADD49C,1.400000*%
%TD*%
%TA.AperFunction,Conductor*%
%ADD50C,0.160000*%
%TD*%
%TA.AperFunction,Conductor*%
%ADD51C,4.000000*%
%TD*%
%TA.AperFunction,Conductor*%
%ADD52C,2.000000*%
%TD*%
%TA.AperFunction,Conductor*%
%ADD53C,5.000000*%
%TD*%
%TA.AperFunction,Conductor*%
%ADD54C,0.600000*%
%TD*%
G04 APERTURE END LIST*
D10*
%TO.C,MK1*%
X137911800Y-85410100D02*
G75*
G03*
X137911800Y-85410100I-675000J0D01*
G01*
%TD*%
D11*
%TO.P,J1,1,Pin_1*%
%TO.N,+5V*%
X155056600Y-69443600D03*
D12*
%TO.P,J1,2,Pin_2*%
%TO.N,GND*%
X155056600Y-71983600D03*
%TO.P,J1,3,Pin_3*%
%TO.N,+3V3*%
X155056600Y-74523600D03*
%TO.P,J1,4,Pin_4*%
%TO.N,IO26{slash}A0{slash}DAC2*%
X155056600Y-77063600D03*
%TO.P,J1,5,Pin_5*%
%TO.N,IO25{slash}A1{slash}DAC1*%
X155056600Y-79603600D03*
%TO.P,J1,6,Pin_6*%
%TO.N,IO13*%
X155056600Y-82143600D03*
%TD*%
D13*
%TO.P,SW1,1,1*%
%TO.N,GND*%
X132310200Y-115112800D03*
X132310200Y-111312800D03*
%TO.P,SW1,2,2*%
%TO.N,RESET*%
X133810200Y-111312800D03*
X133810200Y-115112800D03*
%TD*%
D14*
%TO.P,U4,1,DCD*%
%TO.N,unconnected-(U4-Pad1)*%
X152464401Y-119417813D03*
%TO.P,U4,2,RI*%
%TO.N,unconnected-(U4-Pad2)*%
X152964401Y-119417813D03*
%TO.P,U4,3,GND*%
%TO.N,GND*%
X153464401Y-119417813D03*
%TO.P,U4,4,D+*%
%TO.N,USB-C DATA+*%
X153964401Y-119417813D03*
%TO.P,U4,5,D-*%
%TO.N,USB-C DATA-*%
X154464400Y-119417813D03*
%TO.P,U4,6,VDD*%
%TO.N,+3V3*%
X154964400Y-119417813D03*
%TO.P,U4,7,REGIN*%
X155464400Y-119417813D03*
D15*
%TO.P,U4,8,VBUS*%
%TO.N,+5V*%
X156364414Y-118517799D03*
%TO.P,U4,9,~{RST}*%
%TO.N,unconnected-(U4-Pad9)*%
X156364414Y-118017799D03*
%TO.P,U4,10,NC*%
%TO.N,unconnected-(U4-Pad10)*%
X156364414Y-117517799D03*
%TO.P,U4,11,~{SUSPEND}*%
%TO.N,unconnected-(U4-Pad11)*%
X156364414Y-117017799D03*
%TO.P,U4,12,SUSPEND*%
%TO.N,unconnected-(U4-Pad12)*%
X156364414Y-116517800D03*
%TO.P,U4,13,NC*%
%TO.N,unconnected-(U4-Pad13)*%
X156364414Y-116017800D03*
%TO.P,U4,14,NC*%
%TO.N,unconnected-(U4-Pad14)*%
X156364414Y-115517800D03*
D14*
%TO.P,U4,15,NC*%
%TO.N,unconnected-(U4-Pad15)*%
X155464400Y-114617786D03*
%TO.P,U4,16,NC*%
%TO.N,unconnected-(U4-Pad16)*%
X154964400Y-114617786D03*
%TO.P,U4,17,NC*%
%TO.N,unconnected-(U4-Pad17)*%
X154464400Y-114617786D03*
%TO.P,U4,18,NC*%
%TO.N,unconnected-(U4-Pad18)*%
X153964401Y-114617786D03*
%TO.P,U4,19,NC*%
%TO.N,unconnected-(U4-Pad19)*%
X153464401Y-114617786D03*
%TO.P,U4,20,NC*%
%TO.N,unconnected-(U4-Pad20)*%
X152964401Y-114617786D03*
%TO.P,U4,21,NC*%
%TO.N,unconnected-(U4-Pad21)*%
X152464401Y-114617786D03*
D15*
%TO.P,U4,22,NC*%
%TO.N,unconnected-(U4-Pad22)*%
X151564387Y-115517800D03*
%TO.P,U4,23,CTS*%
%TO.N,unconnected-(U4-Pad23)*%
X151564387Y-116017800D03*
%TO.P,U4,24,RTS*%
%TO.N,RTS*%
X151564387Y-116517800D03*
%TO.P,U4,25,RXD*%
%TO.N,TXD0*%
X151564387Y-117017799D03*
%TO.P,U4,26,TXD*%
%TO.N,RXD0*%
X151564387Y-117517799D03*
%TO.P,U4,27,DSR*%
%TO.N,unconnected-(U4-Pad27)*%
X151564387Y-118017799D03*
%TO.P,U4,28,DTR*%
%TO.N,DTR*%
X151564387Y-118517799D03*
D16*
%TO.P,U4,29,GND_PAD*%
%TO.N,GND*%
X153964400Y-117017800D03*
%TD*%
D17*
%TO.P,R9,1*%
%TO.N,GND*%
X156352000Y-130554100D03*
%TO.P,R9,2*%
%TO.N,USB-C CC2*%
X156352000Y-128729100D03*
%TD*%
D18*
%TO.P,C9,1*%
%TO.N,GND*%
X132197700Y-116840000D03*
%TO.P,C9,2*%
%TO.N,RESET*%
X133922700Y-116840000D03*
%TD*%
%TO.P,C1,1*%
%TO.N,GND*%
X145558100Y-82397600D03*
%TO.P,C1,2*%
%TO.N,+5V*%
X147283100Y-82397600D03*
%TD*%
D19*
%TO.P,R1,1*%
%TO.N,Net-(R1-Pad1)*%
X141137400Y-85396700D03*
%TO.P,R1,2*%
%TO.N,Net-(R1-Pad2)*%
X141137400Y-87221700D03*
%TD*%
D20*
%TO.P,C3,1*%
%TO.N,GND*%
X146192000Y-119608600D03*
%TO.P,C3,2*%
%TO.N,+5V*%
X144467000Y-119608600D03*
%TD*%
D21*
%TO.P,C10,1*%
%TO.N,+3V3*%
X156352000Y-122175100D03*
%TO.P,C10,2*%
%TO.N,GND*%
X156352000Y-123900100D03*
%TD*%
D22*
%TO.P,U1,1,1A*%
%TO.N,IO16{slash}LED1*%
X143017000Y-84054399D03*
%TO.P,U1,2,1B*%
%TO.N,GND*%
X143017000Y-84704400D03*
%TO.P,U1,3,1Y*%
%TO.N,Net-(R1-Pad1)*%
X143017000Y-85354401D03*
%TO.P,U1,4,2A*%
%TO.N,GND*%
X143017000Y-86004400D03*
%TO.P,U1,5,2B*%
X143017000Y-86654399D03*
%TO.P,U1,6,2Y*%
X143017000Y-87304400D03*
%TO.P,U1,7,GND*%
X143017000Y-87954399D03*
%TO.P,U1,8,3Y*%
X148655800Y-87954401D03*
%TO.P,U1,9,3A*%
X148655800Y-87304400D03*
%TO.P,U1,10,3B*%
X148655800Y-86654401D03*
%TO.P,U1,11,4Y*%
X148655800Y-86004400D03*
%TO.P,U1,12,4A*%
X148655800Y-85354401D03*
%TO.P,U1,13,4B*%
X148655800Y-84704400D03*
%TO.P,U1,14,VCC*%
%TO.N,+5V*%
X148655800Y-84054401D03*
%TD*%
D23*
%TO.P,Q2,1*%
%TO.N,Net-(Q2-Pad1)*%
X137602200Y-115544600D03*
%TO.P,Q2,2*%
%TO.N,DTR*%
X137602200Y-113644600D03*
%TO.P,Q2,3*%
%TO.N,IO0*%
X135727200Y-114594600D03*
%TD*%
D24*
%TO.P,U3,1,GND*%
%TO.N,GND*%
X141758400Y-116992800D03*
%TO.P,U3,2,Vout*%
%TO.N,+3V3*%
X144058400Y-116992800D03*
%TO.P,U3,3,Vin*%
%TO.N,+5V*%
X146358400Y-116992800D03*
D25*
%TO.P,U3,4,Vout*%
%TO.N,+3V3*%
X144058400Y-110692800D03*
%TD*%
D26*
%TO.P,USB1,*%
%TO.N,*%
X152130000Y-127786600D03*
X146350000Y-127786600D03*
D27*
%TO.P,USB1,A1B12,GND*%
%TO.N,GND*%
X146040000Y-126546600D03*
%TO.P,USB1,A4B9,VBUS*%
%TO.N,Net-(D1-Pad2)*%
X146840000Y-126546600D03*
D28*
%TO.P,USB1,A5,CC1*%
%TO.N,USB-C CC1*%
X147990000Y-126546600D03*
%TO.P,USB1,A6,DP1*%
%TO.N,USB-C DATA+*%
X148990000Y-126546600D03*
%TO.P,USB1,A7,DN1*%
%TO.N,USB-C DATA-*%
X149490000Y-126546600D03*
%TO.P,USB1,A8,SBU1*%
%TO.N,unconnected-(USB1-PadA8)*%
X150490000Y-126546600D03*
D27*
%TO.P,USB1,B1A12,GND*%
%TO.N,GND*%
X152440000Y-126546600D03*
%TO.P,USB1,B4A9,VBUS*%
%TO.N,Net-(D1-Pad2)*%
X151640000Y-126546600D03*
D28*
%TO.P,USB1,B5,CC2*%
%TO.N,USB-C CC2*%
X150990000Y-126546600D03*
%TO.P,USB1,B6,DP2*%
%TO.N,USB-C DATA+*%
X149990000Y-126546600D03*
%TO.P,USB1,B7,DN2*%
%TO.N,USB-C DATA-*%
X148490000Y-126546600D03*
%TO.P,USB1,B8,SBU2*%
%TO.N,unconnected-(USB1-PadB8)*%
X147490000Y-126546600D03*
D29*
%TO.P,USB1,SHELL,SHELL*%
%TO.N,GND*%
X144920000Y-127286600D03*
D30*
X144920000Y-131466600D03*
D29*
X153560000Y-127286600D03*
D30*
X153560000Y-131466600D03*
%TD*%
D17*
%TO.P,R6,1*%
%TO.N,DTR*%
X139689600Y-112012100D03*
%TO.P,R6,2*%
%TO.N,Net-(Q3-Pad1)*%
X139689600Y-110187100D03*
%TD*%
D31*
%TO.P,J2,*%
%TO.N,*%
X137018000Y-131206600D03*
D32*
%TO.P,J2,1*%
%TO.N,GND*%
X132168000Y-128456600D03*
X141868000Y-128456600D03*
X132168000Y-123756600D03*
X141868000Y-123756600D03*
D33*
%TO.P,J2,2*%
%TO.N,N/C*%
X137018000Y-127956600D03*
D34*
%TO.P,J2,3*%
%TO.N,+5V*%
X137018000Y-120256600D03*
%TD*%
D35*
%TO.P,MK1,1,LR*%
%TO.N,GND*%
X134661800Y-86485100D03*
%TO.P,MK1,2,CONFIG*%
X135311800Y-86485100D03*
%TO.P,MK1,3,VDD*%
%TO.N,+3V3*%
X135961800Y-86485100D03*
D36*
%TO.P,MK1,4,GND*%
%TO.N,GND*%
X137886800Y-85410100D03*
D35*
%TO.P,MK1,5,WS*%
%TO.N,IO15{slash}WS*%
X135961800Y-84335100D03*
%TO.P,MK1,6,SCK*%
%TO.N,IO14{slash}SCK*%
X135311800Y-84335100D03*
%TO.P,MK1,7,SD*%
%TO.N,Net-(MK1-Pad7)*%
X134661800Y-84335100D03*
%TD*%
D37*
%TO.P,R8,1*%
%TO.N,RESET*%
X133972700Y-109575600D03*
%TO.P,R8,2*%
%TO.N,+3V3*%
X132147700Y-109575600D03*
%TD*%
D38*
%TO.P,D2,1,K*%
%TO.N,GND*%
X150673800Y-76377800D03*
%TO.P,D2,2,A*%
%TO.N,Net-(D2-Pad2)*%
X148923800Y-76377800D03*
%TD*%
D39*
%TO.P,C6,1*%
%TO.N,GND*%
X154828000Y-123900100D03*
%TO.P,C6,2*%
%TO.N,+3V3*%
X154828000Y-122175100D03*
%TD*%
D17*
%TO.P,R4,1*%
%TO.N,IO32{slash}SD*%
X133263400Y-86398800D03*
%TO.P,R4,2*%
%TO.N,Net-(MK1-Pad7)*%
X133263400Y-84573800D03*
%TD*%
D21*
%TO.P,C8,1*%
%TO.N,+3V3*%
X149900400Y-110262500D03*
%TO.P,C8,2*%
%TO.N,GND*%
X149900400Y-111987500D03*
%TD*%
D39*
%TO.P,C4,1*%
%TO.N,GND*%
X148401800Y-111962100D03*
%TO.P,C4,2*%
%TO.N,+3V3*%
X148401800Y-110237100D03*
%TD*%
D19*
%TO.P,R3,1*%
%TO.N,GND*%
X156352000Y-125427100D03*
%TO.P,R3,2*%
%TO.N,USB-C CC1*%
X156352000Y-127252100D03*
%TD*%
%TO.P,R5,1*%
%TO.N,RTS*%
X139689600Y-113590700D03*
%TO.P,R5,2*%
%TO.N,Net-(Q2-Pad1)*%
X139689600Y-115415700D03*
%TD*%
D40*
%TO.P,C2,1*%
%TO.N,+5V*%
X139822600Y-80162400D03*
%TO.P,C2,2*%
%TO.N,GND*%
X134222600Y-80162400D03*
%TD*%
D41*
%TO.P,D1,1,K*%
%TO.N,+5V*%
X145182600Y-122174000D03*
%TO.P,D1,2,A*%
%TO.N,Net-(D1-Pad2)*%
X149182600Y-122174000D03*
%TD*%
D42*
%TO.P,U2,1,GND*%
%TO.N,GND*%
X149420000Y-90534600D03*
%TO.P,U2,2,3V3*%
%TO.N,+3V3*%
X148150000Y-90534600D03*
%TO.P,U2,3,EN*%
%TO.N,RESET*%
X146880000Y-90534600D03*
%TO.P,U2,4,SENSOR_VP*%
%TO.N,IO36{slash}A4{slash}SENSOR_VP*%
X145610000Y-90534600D03*
%TO.P,U2,5,SENSOR_VN*%
%TO.N,I39{slash}A3{slash}SENSOR_VN*%
X144340000Y-90534600D03*
%TO.P,U2,6,IO34*%
%TO.N,I34{slash}A2*%
X143070000Y-90534600D03*
%TO.P,U2,7,IO35*%
%TO.N,IO35*%
X141800000Y-90534600D03*
%TO.P,U2,8,IO32*%
%TO.N,IO32{slash}SD*%
X140530000Y-90534600D03*
%TO.P,U2,9,IO33*%
%TO.N,IO33*%
X139260000Y-90534600D03*
%TO.P,U2,10,IO25*%
%TO.N,IO25{slash}A1{slash}DAC1*%
X137990000Y-90534600D03*
%TO.P,U2,11,IO26*%
%TO.N,IO26{slash}A0{slash}DAC2*%
X136720000Y-90534600D03*
%TO.P,U2,12,IO27*%
%TO.N,IO27*%
X135450000Y-90534600D03*
%TO.P,U2,13,IO14*%
%TO.N,IO14{slash}SCK*%
X134180000Y-90534600D03*
%TO.P,U2,14,IO12*%
%TO.N,IO12*%
X132910000Y-90534600D03*
D43*
%TO.P,U2,15,GND*%
%TO.N,GND*%
X131910000Y-93319600D03*
%TO.P,U2,16,IO13*%
%TO.N,IO13*%
X131910000Y-94589600D03*
%TO.P,U2,17,NC*%
%TO.N,unconnected-(U2-Pad17)*%
X131910000Y-95859600D03*
%TO.P,U2,18,NC*%
%TO.N,unconnected-(U2-Pad18)*%
X131910000Y-97129600D03*
%TO.P,U2,19,NC*%
%TO.N,unconnected-(U2-Pad19)*%
X131910000Y-98399600D03*
%TO.P,U2,20,NC*%
%TO.N,unconnected-(U2-Pad20)*%
X131910000Y-99669600D03*
%TO.P,U2,21,NC*%
%TO.N,unconnected-(U2-Pad21)*%
X131910000Y-100939600D03*
%TO.P,U2,22,NC*%
%TO.N,unconnected-(U2-Pad22)*%
X131910000Y-102209600D03*
%TO.P,U2,23,IO15*%
%TO.N,IO15{slash}WS*%
X131910000Y-103479600D03*
%TO.P,U2,24,IO2*%
%TO.N,IO2*%
X131910000Y-104749600D03*
D42*
%TO.P,U2,25,IO0*%
%TO.N,IO0*%
X132910000Y-107534600D03*
%TO.P,U2,26,IO4*%
%TO.N,IO4{slash}A5*%
X134180000Y-107534600D03*
%TO.P,U2,27,IO16*%
%TO.N,IO16{slash}LED1*%
X135450000Y-107534600D03*
%TO.P,U2,28,IO17*%
%TO.N,IO17*%
X136720000Y-107534600D03*
%TO.P,U2,29,IO5*%
%TO.N,IO5*%
X137990000Y-107534600D03*
%TO.P,U2,30,IO18*%
%TO.N,IO18{slash}MOSI*%
X139260000Y-107534600D03*
%TO.P,U2,31,IO19*%
%TO.N,IO19{slash}MISO*%
X140530000Y-107534600D03*
%TO.P,U2,32,NC1*%
%TO.N,unconnected-(U2-Pad32)*%
X141800000Y-107534600D03*
%TO.P,U2,33,IO21*%
%TO.N,IO21*%
X143070000Y-107534600D03*
%TO.P,U2,34,RXD0*%
%TO.N,RXD0*%
X144340000Y-107534600D03*
%TO.P,U2,35,TXD0*%
%TO.N,TXD0*%
X145610000Y-107534600D03*
%TO.P,U2,36,IO22*%
%TO.N,IO22*%
X146880000Y-107534600D03*
%TO.P,U2,37,IO23*%
%TO.N,IO23*%
X148150000Y-107534600D03*
%TO.P,U2,38,GND*%
%TO.N,GND*%
X149420000Y-107534600D03*
D44*
%TO.P,U2,39_1,GND*%
X143755000Y-96199600D03*
%TO.P,U2,39_2,GND*%
X143755000Y-98034600D03*
%TO.P,U2,39_3,GND*%
X143755000Y-99869600D03*
%TO.P,U2,39_4,GND*%
X141920000Y-96199600D03*
%TO.P,U2,39_5,GND*%
X141920000Y-98034600D03*
%TO.P,U2,39_6,GND*%
X141920000Y-99869600D03*
%TO.P,U2,39_7,GND*%
X140085000Y-96199600D03*
%TO.P,U2,39_8,GND*%
X140085000Y-98034600D03*
%TO.P,U2,39_9,GND*%
X140085000Y-99869600D03*
D45*
%TO.P,U2,39_10,GND*%
X143755000Y-97117100D03*
%TO.P,U2,39_11,GND*%
X143755000Y-98952100D03*
%TO.P,U2,39_12,GND*%
X142837500Y-96199600D03*
%TO.P,U2,39_13,GND*%
X142837500Y-98034600D03*
%TO.P,U2,39_14,GND*%
X142837500Y-99869600D03*
%TO.P,U2,39_15,GND*%
X141920000Y-97117100D03*
%TO.P,U2,39_16,GND*%
X141920000Y-98952100D03*
%TO.P,U2,39_17,GND*%
X141002500Y-96199600D03*
%TO.P,U2,39_18,GND*%
X141002500Y-98034600D03*
%TO.P,U2,39_19,GND*%
X141002500Y-99869600D03*
%TO.P,U2,39_20,GND*%
X140085000Y-97117100D03*
%TO.P,U2,39_21,GND*%
X140085000Y-98952100D03*
%TD*%
D46*
%TO.P,P1,1,1*%
%TO.N,+5V*%
X142229608Y-71235450D03*
D47*
%TO.P,P1,2,2*%
%TO.N,Net-(R1-Pad2)*%
X138419600Y-71235450D03*
%TO.P,P1,3,3*%
%TO.N,GND*%
X134609592Y-71235450D03*
%TD*%
D21*
%TO.P,C7,1*%
%TO.N,GND*%
X139384800Y-84649200D03*
%TO.P,C7,2*%
%TO.N,+3V3*%
X139384800Y-86374200D03*
%TD*%
D37*
%TO.P,R7,1*%
%TO.N,Net-(R7-Pad1)*%
X150711300Y-77927200D03*
%TO.P,R7,2*%
%TO.N,Net-(D2-Pad2)*%
X148886300Y-77927200D03*
%TD*%
D23*
%TO.P,Q3,1*%
%TO.N,Net-(Q3-Pad1)*%
X137604500Y-112075000D03*
%TO.P,Q3,2*%
%TO.N,RESET*%
X137604500Y-110175000D03*
%TO.P,Q3,3*%
%TO.N,RTS*%
X135729500Y-111125000D03*
%TD*%
D48*
%TO.N,GND*%
X142928700Y-119224800D03*
X153095300Y-121004300D03*
X132227300Y-82316300D03*
%TO.N,+5V*%
X142102600Y-80136600D03*
X156417700Y-119520400D03*
%TO.N,+3V3*%
X136599700Y-103630500D03*
X136708700Y-87127400D03*
X148055100Y-116778000D03*
X137685600Y-93532800D03*
X141792900Y-109172400D03*
%TO.N,RESET*%
X139145600Y-105922500D03*
X137342600Y-111081100D03*
%TO.N,USB-C DATA+*%
X150045600Y-125290300D03*
X153717200Y-121974500D03*
%TO.N,USB-C DATA-*%
X149320900Y-123816700D03*
X154546000Y-120592300D03*
%TO.N,IO15{slash}WS*%
X136600400Y-96369600D03*
X136715200Y-83718000D03*
%TO.N,DTR*%
X150483200Y-118517800D03*
X147392700Y-114306700D03*
%TO.N,RTS*%
X150425800Y-115624600D03*
X149067000Y-116792500D03*
%TO.N,IO13*%
X148374500Y-114743200D03*
X141090100Y-111659300D03*
X138438600Y-105214700D03*
X138753500Y-103854000D03*
X136997300Y-100502500D03*
%TO.N,IO25{slash}A1{slash}DAC1*%
X153906600Y-81046300D03*
X146187900Y-87694000D03*
%TO.N,IO26{slash}A0{slash}DAC2*%
X145421600Y-86954600D03*
X152979900Y-79538000D03*
%TO.N,IO16{slash}LED1*%
X138568200Y-92855200D03*
X138517500Y-83381000D03*
%TO.N,RXD0*%
X141212900Y-110269800D03*
X143373100Y-105927500D03*
%TO.N,USB-C CC1*%
X148433500Y-128100200D03*
X155242100Y-127252100D03*
%TO.N,USB-C CC2*%
X155488500Y-129574300D03*
X151265300Y-128878200D03*
%TO.N,Net-(R7-Pad1)*%
X149737100Y-78768200D03*
%TO.N,Net-(R1-Pad2)*%
X155803900Y-67922800D03*
X145207800Y-84301300D03*
%TD*%
D49*
%TO.N,GND*%
X144920000Y-127286600D02*
X144978300Y-127286600D01*
D50*
X148725800Y-86654400D02*
X148795700Y-86654400D01*
X143017000Y-86004400D02*
X141898500Y-86004400D01*
X134610000Y-71231600D02*
X134609600Y-71231200D01*
X148096600Y-84704400D02*
X147537300Y-84704400D01*
X136086000Y-87839600D02*
X135311800Y-87065400D01*
X145809200Y-82976300D02*
X145558100Y-82976300D01*
X148935500Y-85354400D02*
X148935500Y-86004400D01*
X140085000Y-98952100D02*
X140085000Y-98034600D01*
X142837500Y-98034600D02*
X141920000Y-98034600D01*
D51*
X150982400Y-71932600D02*
X152415000Y-71932600D01*
D49*
X153560000Y-131466600D02*
X153560000Y-130770500D01*
D51*
X134610000Y-72928600D02*
X137018000Y-75336600D01*
D50*
X141758400Y-116992800D02*
X142788700Y-116992800D01*
X149420000Y-106254300D02*
X149194400Y-106254300D01*
X145394400Y-118811000D02*
X146192000Y-119608600D01*
D49*
X152839500Y-126586600D02*
X152839500Y-126546600D01*
D50*
X148795700Y-86004400D02*
X148935500Y-86004400D01*
X134661800Y-86485100D02*
X135311800Y-86485100D01*
X150982400Y-71932600D02*
X150982400Y-76069200D01*
D52*
X152465800Y-71983600D02*
X152415000Y-71932600D01*
D50*
X143829100Y-86654400D02*
X144135500Y-86960800D01*
X147537300Y-85010800D02*
X147537300Y-85354400D01*
X140085000Y-99869600D02*
X140085000Y-98952100D01*
X148880400Y-87954400D02*
X148984900Y-87954400D01*
D51*
X134610000Y-71231600D02*
X134610000Y-72928600D01*
D50*
X150982400Y-76069200D02*
X150673800Y-76377800D01*
X138217100Y-85264100D02*
X138217100Y-85410100D01*
X143576300Y-87395100D02*
X143017000Y-87954400D01*
X144135500Y-86654400D02*
X144135500Y-86004400D01*
X145563300Y-126701600D02*
X145718300Y-126546600D01*
X138435200Y-84649200D02*
X139384800Y-84649200D01*
X148655800Y-87954400D02*
X148880400Y-87954400D01*
X149420000Y-107534600D02*
X149420000Y-108814900D01*
X145718300Y-126546600D02*
X146040000Y-126546600D01*
X147537300Y-84704400D02*
X145809200Y-82976300D01*
X139384800Y-84649200D02*
X139384800Y-84946400D01*
X142837500Y-99869600D02*
X143755000Y-99869600D01*
D53*
X133365000Y-81019600D02*
X134222900Y-80162700D01*
D50*
X142928700Y-117132800D02*
X142788700Y-116992800D01*
D49*
X153539800Y-127286600D02*
X152839500Y-126586600D01*
D50*
X148655800Y-85354400D02*
X147537300Y-85354400D01*
X147843700Y-84704400D02*
X147537300Y-85010800D01*
X141920000Y-98034600D02*
X141002500Y-98034600D01*
X154828000Y-124523900D02*
X154828000Y-123900100D01*
X142928700Y-118811000D02*
X145394400Y-118811000D01*
X145558100Y-82397600D02*
X145558100Y-82976300D01*
D49*
X153560000Y-130770500D02*
X153560000Y-127286600D01*
D50*
X132310200Y-115112800D02*
X132310200Y-116143100D01*
X143755000Y-99869600D02*
X143755000Y-98952100D01*
X142928700Y-118811000D02*
X142928700Y-117132800D01*
X148655800Y-84704400D02*
X148096600Y-84704400D01*
X140085000Y-98034600D02*
X140085000Y-97117100D01*
X138435200Y-84375000D02*
X138435200Y-84649200D01*
X135311800Y-86485100D02*
X135311800Y-87065400D01*
X144135500Y-84398900D02*
X144135500Y-84704400D01*
X153964400Y-117017800D02*
X153464400Y-117517800D01*
X143755000Y-98952100D02*
X143755000Y-98034600D01*
X148655800Y-86004400D02*
X148795700Y-86004400D01*
X143017000Y-86004400D02*
X144135500Y-86004400D01*
X154828000Y-124523900D02*
X156352000Y-124523900D01*
X153560000Y-127286600D02*
X153560000Y-125906300D01*
X149420000Y-89254300D02*
X148984900Y-88819200D01*
X139254300Y-87839600D02*
X136086000Y-87839600D01*
X148427200Y-111987500D02*
X148401800Y-111962100D01*
X132197700Y-116840000D02*
X132197700Y-116255600D01*
X143576300Y-86654400D02*
X143829100Y-86654400D01*
X143017000Y-86654400D02*
X143576300Y-86654400D01*
X149420000Y-107534600D02*
X149420000Y-106254300D01*
D51*
X147187500Y-71932600D02*
X150982400Y-71932600D01*
D50*
X153560000Y-125906300D02*
X154828000Y-124638300D01*
X140583200Y-86510700D02*
X139254300Y-87839600D01*
D52*
X155056600Y-71983600D02*
X152465800Y-71983600D01*
D50*
X148725800Y-86654400D02*
X148725800Y-87304400D01*
X149900400Y-111987500D02*
X148427200Y-111987500D01*
X153464400Y-120193500D02*
X153464400Y-119417800D01*
X143017000Y-87304400D02*
X143576300Y-87304400D01*
X134222900Y-80162700D02*
X138435200Y-84375000D01*
X148401800Y-111962100D02*
X147610600Y-111170900D01*
X153464400Y-117517800D02*
X153464400Y-119417800D01*
X141920000Y-99869600D02*
X141920000Y-98952100D01*
X143755000Y-99869600D02*
X143755000Y-100814900D01*
X153560000Y-130770500D02*
X156135600Y-130770500D01*
X141920000Y-98034600D02*
X141920000Y-97117100D01*
X137886800Y-85410100D02*
X138217100Y-85410100D01*
X152440000Y-126546600D02*
X152839500Y-126546600D01*
X141920000Y-98952100D02*
X141920000Y-98034600D01*
X140583200Y-86224600D02*
X140583200Y-86510700D01*
X153095300Y-121004300D02*
X153095300Y-120562600D01*
X138435200Y-84649200D02*
X138435200Y-85046000D01*
X140583200Y-86224600D02*
X141678300Y-86224600D01*
X143017000Y-84704400D02*
X144135500Y-84704400D01*
D51*
X133365000Y-81178600D02*
X133365000Y-81019600D01*
D50*
X133365000Y-81178600D02*
X132227300Y-82316300D01*
X149420000Y-90534600D02*
X149420000Y-89254300D01*
X141678300Y-86224600D02*
X141898500Y-86004400D01*
D53*
X134222900Y-80162700D02*
X134223000Y-80162600D01*
D51*
X137018000Y-75336600D02*
X143783900Y-75336600D01*
D50*
X132310200Y-115112800D02*
X132310200Y-111312800D01*
X145558100Y-82976300D02*
X144135500Y-84398900D01*
X140583200Y-86144800D02*
X140583200Y-86224600D01*
X140085000Y-99869600D02*
X141002500Y-99869600D01*
X142928700Y-119224800D02*
X142928700Y-118811000D01*
X143576300Y-87304400D02*
X143576300Y-87395100D01*
X143755000Y-98034600D02*
X143755000Y-97117100D01*
X143576300Y-87304400D02*
X144135500Y-87304400D01*
X138435200Y-85046000D02*
X138217100Y-85264100D01*
D51*
X143783900Y-75336600D02*
X147187500Y-71932600D01*
D50*
X143576300Y-86654400D02*
X144135500Y-86654400D01*
X156352000Y-125427100D02*
X156352000Y-124523900D01*
X141920000Y-97117100D02*
X141920000Y-96199600D01*
X148880400Y-87355900D02*
X148880400Y-87954400D01*
X132168000Y-123756600D02*
X132168000Y-121976300D01*
X140085000Y-97117100D02*
X140085000Y-96199600D01*
X141002500Y-99869600D02*
X141920000Y-99869600D01*
X148096600Y-84704400D02*
X147843700Y-84704400D01*
X143755000Y-97117100D02*
X143755000Y-96199600D01*
X148984900Y-88819200D02*
X148984900Y-87954400D01*
X148655800Y-85354400D02*
X148935500Y-85354400D01*
X132227300Y-82316300D02*
X131816600Y-82727000D01*
D49*
X153560000Y-127286600D02*
X153539800Y-127286600D01*
D50*
X153095300Y-120562600D02*
X153464400Y-120193500D01*
X148725800Y-87304400D02*
X148828900Y-87304400D01*
X156135600Y-130770500D02*
X156352000Y-130554100D01*
X148828900Y-87304400D02*
X148880400Y-87355900D01*
X139384800Y-84946400D02*
X140583200Y-86144800D01*
X148655800Y-87304400D02*
X148725800Y-87304400D01*
X148491000Y-108814900D02*
X149420000Y-108814900D01*
X147610600Y-109695300D02*
X148491000Y-108814900D01*
D49*
X153560000Y-131466600D02*
X144920000Y-131466600D01*
D50*
X132197700Y-116255600D02*
X132310200Y-116143100D01*
D49*
X144978300Y-127286600D02*
X145563300Y-126701600D01*
D50*
X144135500Y-86004400D02*
X144135500Y-84704400D01*
X144135500Y-86960800D02*
X144135500Y-87304400D01*
D49*
X144920000Y-127286600D02*
X144920000Y-131466600D01*
D50*
X148795700Y-86004400D02*
X148795700Y-86654400D01*
X154828000Y-124638300D02*
X154828000Y-124523900D01*
X156352000Y-124523900D02*
X156352000Y-123900100D01*
X132197700Y-121946600D02*
X132197700Y-116840000D01*
X147610600Y-111170900D02*
X147610600Y-109695300D01*
X132168000Y-121976300D02*
X132197700Y-121946600D01*
X134222600Y-80162400D02*
X134222900Y-80162700D01*
X131816600Y-82727000D02*
X131816600Y-93226200D01*
X149194400Y-106254300D02*
X143755000Y-100814900D01*
X131816600Y-93226200D02*
X131910000Y-93319600D01*
X148655800Y-86654400D02*
X148725800Y-86654400D01*
D53*
%TO.N,+5V*%
X142102600Y-80136600D02*
X139848000Y-80136600D01*
D50*
X147057100Y-118971800D02*
X146358400Y-118273100D01*
D53*
X139848000Y-80136600D02*
X139823000Y-80162600D01*
D50*
X145182600Y-122174000D02*
X145182600Y-122173600D01*
X144467000Y-119608600D02*
X144467000Y-121255300D01*
X139822600Y-80162400D02*
X139822800Y-80162600D01*
D49*
X138118000Y-121356600D02*
X137018000Y-120256600D01*
D50*
X148655800Y-84054400D02*
X147537300Y-84054400D01*
X156417700Y-119520400D02*
X156417700Y-118571100D01*
X142102600Y-80136600D02*
X145022100Y-80136600D01*
X146358400Y-116992800D02*
X146358400Y-118273100D01*
X139822800Y-80162600D02*
X139823000Y-80162600D01*
X147283100Y-82397600D02*
X147283100Y-83800200D01*
D49*
X144365700Y-121356600D02*
X138118000Y-121356600D01*
D50*
X145022100Y-80136600D02*
X147283100Y-82397600D01*
X145182600Y-122173600D02*
X147057100Y-120299100D01*
X156417700Y-118571100D02*
X156364400Y-118517800D01*
X147283100Y-83800200D02*
X147537300Y-84054400D01*
D49*
X145182600Y-122173600D02*
X144365700Y-121356600D01*
D50*
X147057100Y-120299100D02*
X147057100Y-118971800D01*
X144467000Y-121255300D02*
X144365700Y-121356600D01*
%TO.N,+3V3*%
X144058400Y-116992800D02*
X144573600Y-116992800D01*
X154293800Y-122709300D02*
X154828000Y-122175100D01*
X132147700Y-109575600D02*
X132147700Y-106450500D01*
X144573600Y-116992800D02*
X143293200Y-115712400D01*
X148427200Y-110262500D02*
X148401800Y-110237100D01*
X150150400Y-91814900D02*
X150150400Y-83840500D01*
X133571400Y-121603100D02*
X133571400Y-124585500D01*
X137187600Y-117986900D02*
X133571400Y-121603100D01*
X141893200Y-109988100D02*
X141792900Y-109887800D01*
X135961800Y-87065400D02*
X136708700Y-87065400D01*
X149900400Y-110262500D02*
X148427200Y-110262500D01*
X137685600Y-93532800D02*
X137685600Y-102544600D01*
X147224500Y-115712400D02*
X148055100Y-116543000D01*
X152299600Y-81691300D02*
X152299600Y-78176700D01*
X150150400Y-83840500D02*
X152299600Y-81691300D01*
X154828000Y-122175100D02*
X155464400Y-121538700D01*
X155715600Y-121538700D02*
X155464400Y-121538700D01*
X155464400Y-119417800D02*
X155464400Y-120148100D01*
X143293200Y-115712400D02*
X140873900Y-115712400D01*
X133571400Y-124585500D02*
X132591800Y-125565100D01*
X153463100Y-122709300D02*
X154293800Y-122709300D01*
X148150000Y-90534600D02*
X148150000Y-91814900D01*
X155464400Y-121538700D02*
X155464400Y-120148100D01*
X138693600Y-87065400D02*
X139384800Y-86374200D01*
X149900400Y-110262500D02*
X150150400Y-110012500D01*
X154822400Y-75653900D02*
X155056600Y-75653900D01*
X131644200Y-125565100D02*
X131067600Y-124988500D01*
X134967700Y-103630500D02*
X136599700Y-103630500D01*
X141878100Y-110566700D02*
X141893200Y-110551600D01*
X132147700Y-106450500D02*
X134967700Y-103630500D01*
X148055100Y-117301300D02*
X153463100Y-122709300D01*
X138599400Y-117986900D02*
X137187600Y-117986900D01*
X140873900Y-115712400D02*
X138599400Y-117986900D01*
X131067600Y-110655700D02*
X132147700Y-109575600D01*
X144058400Y-110692800D02*
X141878100Y-110692800D01*
X150150400Y-110012500D02*
X150150400Y-91814900D01*
X152299600Y-78176700D02*
X154822400Y-75653900D01*
X155464400Y-119417800D02*
X154964400Y-119417800D01*
X144573600Y-116992800D02*
X145088700Y-116992800D01*
X156352000Y-122175100D02*
X155715600Y-121538700D01*
X145088700Y-116992800D02*
X145088700Y-116091300D01*
X131067600Y-124988500D02*
X131067600Y-110655700D01*
X141878100Y-110692800D02*
X141878100Y-110566700D01*
X135961800Y-86485100D02*
X135961800Y-87065400D01*
X141792900Y-109887800D02*
X141792900Y-109172400D01*
X136708700Y-87065400D02*
X136708700Y-87127400D01*
X137685600Y-102544600D02*
X136599700Y-103630500D01*
X136708700Y-87065400D02*
X138693600Y-87065400D01*
X155056600Y-74523600D02*
X155056600Y-75653900D01*
X148055100Y-116778000D02*
X148055100Y-117301300D01*
X141893200Y-110551600D02*
X141893200Y-109988100D01*
X150150400Y-91814900D02*
X148150000Y-91814900D01*
X145467600Y-115712400D02*
X147224500Y-115712400D01*
X132591800Y-125565100D02*
X131644200Y-125565100D01*
X148055100Y-116543000D02*
X148055100Y-116778000D01*
X145088700Y-116091300D02*
X145467600Y-115712400D01*
%TO.N,RESET*%
X139139600Y-103278100D02*
X139433800Y-103572300D01*
X133810200Y-115628000D02*
X133810200Y-116143100D01*
X137342600Y-110436900D02*
X137056600Y-110150900D01*
X139433800Y-103572300D02*
X139433800Y-105634300D01*
X146880000Y-90534600D02*
X146880000Y-91814900D01*
X133922700Y-116255600D02*
X133810200Y-116143100D01*
X146880000Y-91814900D02*
X142709400Y-91814900D01*
X133810200Y-115112800D02*
X133810200Y-111312800D01*
X133810200Y-111312800D02*
X133810200Y-110313400D01*
X133922700Y-116840000D02*
X133922700Y-116255600D01*
X137342600Y-110436900D02*
X137604500Y-110175000D01*
X137056600Y-110150900D02*
X133972700Y-110150900D01*
X139139600Y-95384700D02*
X139139600Y-103278100D01*
X139433800Y-105634300D02*
X139145600Y-105922500D01*
X133972700Y-110150900D02*
X133810200Y-110313400D01*
X142709400Y-91814900D02*
X139139600Y-95384700D01*
X137342600Y-111081100D02*
X137342600Y-110436900D01*
X133972700Y-109575600D02*
X133972700Y-110150900D01*
X133810200Y-115628000D02*
X133810200Y-115112800D01*
%TO.N,Net-(D2-Pad2)*%
X148886300Y-77927200D02*
X148886300Y-76415300D01*
X148886300Y-76415300D02*
X148923800Y-76377800D01*
%TO.N,USB-C DATA+*%
X153775600Y-120392000D02*
X153964400Y-120203200D01*
X149990000Y-127476900D02*
X148990000Y-127476900D01*
X153775600Y-121916100D02*
X153775600Y-120392000D01*
X149990000Y-125345900D02*
X150045600Y-125290300D01*
X149990000Y-126546600D02*
X149990000Y-125345900D01*
X153717200Y-121974500D02*
X153775600Y-121916100D01*
X149990000Y-126546600D02*
X149990000Y-127476900D01*
X148990000Y-126546600D02*
X148990000Y-127476900D01*
X153964400Y-120203200D02*
X153964400Y-119417800D01*
%TO.N,USB-C DATA-*%
X148490000Y-125616300D02*
X149320900Y-125616300D01*
X149320900Y-125616300D02*
X149490000Y-125785400D01*
X154464400Y-120148100D02*
X154546000Y-120229700D01*
X154464400Y-119417800D02*
X154464400Y-120148100D01*
X149490000Y-125785400D02*
X149490000Y-126546600D01*
X154546000Y-120229700D02*
X154546000Y-120592300D01*
X148490000Y-126546600D02*
X148490000Y-125616300D01*
X149320900Y-125616300D02*
X149320900Y-123816700D01*
%TO.N,IO15{slash}WS*%
X131910000Y-103479600D02*
X133190300Y-103479600D01*
X133190300Y-99779700D02*
X136600400Y-96369600D01*
X135961800Y-84335100D02*
X135961800Y-83754800D01*
X136715200Y-83718000D02*
X136678400Y-83754800D01*
X133190300Y-103479600D02*
X133190300Y-99779700D01*
X136678400Y-83754800D02*
X135961800Y-83754800D01*
%TO.N,IO14{slash}SCK*%
X134180000Y-90534600D02*
X134180000Y-86047200D01*
X134180000Y-86047200D02*
X135311800Y-84915400D01*
X135311800Y-84335100D02*
X135311800Y-84915400D01*
%TO.N,DTR*%
X151564400Y-118517800D02*
X150483200Y-118517800D01*
X137602200Y-113644600D02*
X138057100Y-113644600D01*
X138057100Y-113644600D02*
X139689600Y-112012100D01*
X139689600Y-112012100D02*
X141863400Y-114185900D01*
X141863400Y-114185900D02*
X147271900Y-114185900D01*
X147271900Y-114185900D02*
X147392700Y-114306700D01*
%TO.N,IO0*%
X132910000Y-108814900D02*
X133060200Y-108965100D01*
X134949500Y-115372300D02*
X135727200Y-114594600D01*
X133431500Y-117626500D02*
X134428300Y-117626500D01*
X134949400Y-117105400D02*
X134949400Y-115372300D01*
X133060200Y-117255200D02*
X133431500Y-117626500D01*
X133060200Y-108965100D02*
X133060200Y-117255200D01*
X134949400Y-115372300D02*
X134949500Y-115372300D01*
X134428300Y-117626500D02*
X134949400Y-117105400D01*
X132910000Y-107534600D02*
X132910000Y-108814900D01*
%TO.N,RTS*%
X136844200Y-114250800D02*
X139152700Y-114250800D01*
X135729500Y-113136100D02*
X136844200Y-114250800D01*
X140521900Y-114546200D02*
X146625300Y-114546200D01*
X139689600Y-113713900D02*
X139689600Y-113590700D01*
X151081400Y-116517800D02*
X151564400Y-116517800D01*
X148135200Y-116056100D02*
X148330600Y-116056100D01*
X139689600Y-113713900D02*
X140521900Y-114546200D01*
X139152700Y-114250800D02*
X139689600Y-113713900D01*
X150425800Y-115862200D02*
X151081400Y-116517800D01*
X150425800Y-115624600D02*
X150425800Y-115862200D01*
X135729500Y-111125000D02*
X135729500Y-113136100D01*
X146625300Y-114546200D02*
X148135200Y-116056100D01*
X148330600Y-116056100D02*
X149067000Y-116792500D01*
%TO.N,IO32{slash}SD*%
X132330200Y-91814900D02*
X132179600Y-91664300D01*
X140530000Y-90534600D02*
X140530000Y-91814900D01*
X140530000Y-91814900D02*
X132330200Y-91814900D01*
X132179600Y-91664300D02*
X132179600Y-87482600D01*
X132179600Y-87482600D02*
X133263400Y-86398800D01*
%TO.N,IO13*%
X137325300Y-100174500D02*
X136997300Y-100502500D01*
X138438600Y-104168900D02*
X138438600Y-105214700D01*
X141090100Y-111659300D02*
X142210600Y-112779800D01*
X131910000Y-94589600D02*
X135786500Y-94589600D01*
X138753500Y-103854000D02*
X138438600Y-104168900D01*
X142210600Y-112779800D02*
X146874100Y-112779800D01*
X148374500Y-114280200D02*
X148374500Y-114743200D01*
X137325300Y-96128400D02*
X137325300Y-100174500D01*
X146874100Y-112779800D02*
X148374500Y-114280200D01*
X135786500Y-94589600D02*
X137325300Y-96128400D01*
%TO.N,IO25{slash}A1{slash}DAC1*%
X137990000Y-90534600D02*
X137990000Y-89254300D01*
X155056600Y-79603600D02*
X155056600Y-80733900D01*
X154219000Y-80733900D02*
X155056600Y-80733900D01*
X144627600Y-89254300D02*
X146187900Y-87694000D01*
X153906600Y-81046300D02*
X154219000Y-80733900D01*
X137990000Y-89254300D02*
X144627600Y-89254300D01*
%TO.N,IO26{slash}A0{slash}DAC2*%
X145421600Y-87482100D02*
X145421600Y-86954600D01*
X152979900Y-79538000D02*
X154324000Y-78193900D01*
X144130800Y-88772900D02*
X145421600Y-87482100D01*
X155056600Y-77063600D02*
X155056600Y-78193900D01*
X136720000Y-89254300D02*
X137201400Y-88772900D01*
X136720000Y-90534600D02*
X136720000Y-89254300D01*
X137201400Y-88772900D02*
X144130800Y-88772900D01*
X154324000Y-78193900D02*
X155056600Y-78193900D01*
%TO.N,IO16{slash}LED1*%
X143017000Y-84054400D02*
X141898500Y-84054400D01*
X138517500Y-83381000D02*
X141225100Y-83381000D01*
X141225100Y-83381000D02*
X141898500Y-84054400D01*
X135450000Y-105793300D02*
X138568200Y-102675100D01*
X135450000Y-107534600D02*
X135450000Y-105793300D01*
X138568200Y-102675100D02*
X138568200Y-92855200D01*
%TO.N,RXD0*%
X146953700Y-112349900D02*
X142366500Y-112349900D01*
X143699900Y-106254300D02*
X143373100Y-105927500D01*
X141770400Y-111753800D02*
X141770400Y-111377600D01*
X141212900Y-110820200D02*
X141212900Y-110269800D01*
X141213000Y-110820200D02*
X141212900Y-110820200D01*
X141770400Y-111377600D02*
X141213000Y-110820200D01*
X144340000Y-106254300D02*
X143699900Y-106254300D01*
X151564400Y-117517800D02*
X150824400Y-117517800D01*
X150824400Y-117517800D02*
X149108000Y-115801400D01*
X149108000Y-115801400D02*
X149108000Y-114504200D01*
X149108000Y-114504200D02*
X146953700Y-112349900D01*
X142366500Y-112349900D02*
X141770400Y-111753800D01*
X144340000Y-107534600D02*
X144340000Y-106254300D01*
%TO.N,TXD0*%
X150834100Y-117017800D02*
X149648400Y-115832100D01*
X145610000Y-107534600D02*
X145610000Y-108814900D01*
X149648400Y-114535100D02*
X146994000Y-111880700D01*
X146994000Y-111880700D02*
X146994000Y-110198900D01*
X149648400Y-115832100D02*
X149648400Y-114535100D01*
X146994000Y-110198900D02*
X145610000Y-108814900D01*
X151564400Y-117017800D02*
X150834100Y-117017800D01*
D54*
%TO.N,Net-(D1-Pad2)*%
X146840000Y-125035600D02*
X146801600Y-124996600D01*
X146840000Y-126546600D02*
X146840000Y-125035600D01*
D49*
X151653000Y-123977600D02*
X151653000Y-124996600D01*
X146801600Y-124996600D02*
X146801600Y-124231600D01*
D54*
X151640000Y-126546600D02*
X151640000Y-125034600D01*
D49*
X148859000Y-122173600D02*
X149354300Y-122173600D01*
X149849600Y-122173600D02*
X151653000Y-123977600D01*
D50*
X149354300Y-122173600D02*
X149353900Y-122174000D01*
D49*
X146801600Y-124231600D02*
X148859000Y-122173600D01*
D50*
X149353900Y-122174000D02*
X149182600Y-122174000D01*
D49*
X151653000Y-124996600D02*
X151602200Y-124996600D01*
X149354300Y-122173600D02*
X149849600Y-122173600D01*
D54*
X151640000Y-125034600D02*
X151602200Y-124996600D01*
D50*
%TO.N,USB-C CC1*%
X148433500Y-128100200D02*
X147990000Y-127656700D01*
X156352000Y-127252100D02*
X155242100Y-127252100D01*
X147990000Y-127656700D02*
X147990000Y-126546600D01*
%TO.N,USB-C CC2*%
X150990000Y-128602900D02*
X151265300Y-128878200D01*
X156333700Y-128729100D02*
X156352000Y-128729100D01*
X150990000Y-126546600D02*
X150990000Y-128602900D01*
X155488500Y-129574300D02*
X156333700Y-128729100D01*
%TO.N,Net-(MK1-Pad7)*%
X133605000Y-84915400D02*
X133263400Y-84573800D01*
X134661800Y-84335100D02*
X134661800Y-84915400D01*
X134661800Y-84915400D02*
X133605000Y-84915400D01*
%TO.N,Net-(Q2-Pad1)*%
X139689600Y-115415700D02*
X139560700Y-115544600D01*
X139560700Y-115544600D02*
X137602200Y-115544600D01*
%TO.N,Net-(Q3-Pad1)*%
X139492400Y-110187100D02*
X139689600Y-110187100D01*
X137604500Y-112075000D02*
X139492400Y-110187100D01*
%TO.N,Net-(R7-Pad1)*%
X150711300Y-77927200D02*
X150578100Y-77927200D01*
X150578100Y-77927200D02*
X149737100Y-78768200D01*
%TO.N,Net-(R1-Pad1)*%
X141179700Y-85354400D02*
X141137400Y-85396700D01*
X143017000Y-85354400D02*
X141179700Y-85354400D01*
%TO.N,Net-(R1-Pad2)*%
X144689400Y-87702700D02*
X144689400Y-84819700D01*
X141728000Y-67922800D02*
X138419600Y-71231200D01*
X144689400Y-84819700D02*
X145207800Y-84301300D01*
X141137400Y-87519500D02*
X142030400Y-88412500D01*
X142030400Y-88412500D02*
X143979600Y-88412500D01*
X141137400Y-87221700D02*
X141137400Y-87519500D01*
X155803900Y-67922800D02*
X141728000Y-67922800D01*
X143979600Y-88412500D02*
X144689400Y-87702700D01*
%TD*%
%TA.AperFunction,Conductor*%
%TO.N,GND*%
G36*
X135483367Y-120500357D02*
G01*
X135608024Y-120568425D01*
X135708454Y-120668855D01*
X135761231Y-120757007D01*
X135843965Y-120934429D01*
X135856457Y-120952269D01*
X135856459Y-120952273D01*
X135898604Y-121012462D01*
X135979505Y-121128001D01*
X136146599Y-121295095D01*
X136184892Y-121321908D01*
X136307256Y-121407588D01*
X136340170Y-121430635D01*
X136359907Y-121439839D01*
X136359913Y-121439842D01*
X136534587Y-121521294D01*
X136534593Y-121521296D01*
X136554337Y-121530503D01*
X136668465Y-121561083D01*
X136761542Y-121586023D01*
X136761545Y-121586024D01*
X136782592Y-121591663D01*
X136876187Y-121599852D01*
X136927109Y-121604307D01*
X137065397Y-121636696D01*
X137188958Y-121706734D01*
X137236463Y-121748562D01*
X137425245Y-121937344D01*
X137432119Y-121944588D01*
X137445112Y-121962471D01*
X137464542Y-121979966D01*
X137464543Y-121979967D01*
X137488228Y-122001293D01*
X137503488Y-122015775D01*
X137505376Y-122017475D01*
X137514620Y-122026719D01*
X137524770Y-122034938D01*
X137526661Y-122036641D01*
X137542678Y-122050321D01*
X137566346Y-122071632D01*
X137566353Y-122071637D01*
X137585784Y-122089133D01*
X137605333Y-122100420D01*
X137607307Y-122101776D01*
X137624851Y-122115983D01*
X137648143Y-122127851D01*
X137648146Y-122127853D01*
X137676524Y-122142312D01*
X137699478Y-122154775D01*
X137749716Y-122183779D01*
X137771187Y-122190756D01*
X137773396Y-122191671D01*
X137793512Y-122201920D01*
X137818766Y-122208687D01*
X137818767Y-122208687D01*
X137849531Y-122216930D01*
X137874589Y-122224353D01*
X137904864Y-122234190D01*
X137904866Y-122234190D01*
X137929744Y-122242274D01*
X137952197Y-122244634D01*
X137954545Y-122245069D01*
X137976355Y-122250913D01*
X138002469Y-122252281D01*
X138002473Y-122252282D01*
X138034273Y-122253948D01*
X138055290Y-122255602D01*
X138057816Y-122255734D01*
X138070808Y-122257100D01*
X138083872Y-122257100D01*
X138086391Y-122257232D01*
X138107472Y-122257784D01*
X138139275Y-122259451D01*
X138139279Y-122259451D01*
X138165388Y-122260819D01*
X138187220Y-122257361D01*
X138197191Y-122257100D01*
X140602217Y-122257100D01*
X140742802Y-122277313D01*
X140871997Y-122336314D01*
X140979336Y-122429324D01*
X141056123Y-122548808D01*
X141096138Y-122685085D01*
X141096138Y-122827115D01*
X141087225Y-122873439D01*
X141082014Y-122894979D01*
X141069965Y-122990352D01*
X141068000Y-123021587D01*
X141068000Y-123220910D01*
X141072563Y-123252646D01*
X141086030Y-123256600D01*
X142632310Y-123256600D01*
X142664046Y-123252037D01*
X142668000Y-123238570D01*
X142668000Y-123025414D01*
X142666446Y-122997613D01*
X142656166Y-122905963D01*
X142647234Y-122866649D01*
X142635799Y-122725080D01*
X142664712Y-122586024D01*
X142731631Y-122460746D01*
X142831134Y-122359397D01*
X142955160Y-122290185D01*
X143093661Y-122258720D01*
X143133834Y-122257100D01*
X143233100Y-122257100D01*
X143373685Y-122277313D01*
X143502880Y-122336314D01*
X143610219Y-122429324D01*
X143687006Y-122548808D01*
X143727021Y-122685085D01*
X143732100Y-122756100D01*
X143732100Y-123093748D01*
X143743733Y-123152231D01*
X143788048Y-123218552D01*
X143854369Y-123262867D01*
X143874513Y-123266874D01*
X143880607Y-123268086D01*
X143912852Y-123274500D01*
X145476003Y-123274500D01*
X145616588Y-123294713D01*
X145745783Y-123353714D01*
X145853122Y-123446724D01*
X145929909Y-123566208D01*
X145969924Y-123702485D01*
X145969924Y-123844515D01*
X145953775Y-123906578D01*
X145956233Y-123907236D01*
X145943683Y-123954100D01*
X145941262Y-123963140D01*
X145933825Y-123988255D01*
X145915926Y-124043344D01*
X145913569Y-124065769D01*
X145913099Y-124068310D01*
X145907267Y-124090085D01*
X145905902Y-124116204D01*
X145905902Y-124116205D01*
X145904246Y-124147894D01*
X145902604Y-124168778D01*
X145902466Y-124171415D01*
X145901100Y-124184408D01*
X145901100Y-124197467D01*
X145900974Y-124199870D01*
X145900420Y-124221103D01*
X145897388Y-124279120D01*
X145900841Y-124300900D01*
X145901100Y-124310768D01*
X145901100Y-125043792D01*
X145902464Y-125056766D01*
X145902464Y-125056774D01*
X145912693Y-125154096D01*
X145915926Y-125184856D01*
X145924007Y-125209726D01*
X145924007Y-125209727D01*
X145958633Y-125316296D01*
X145982853Y-125456246D01*
X145966662Y-125597350D01*
X145911374Y-125728178D01*
X145821467Y-125838129D01*
X145794925Y-125855728D01*
X145744454Y-125899461D01*
X145740000Y-125914630D01*
X145740000Y-125992260D01*
X145719787Y-126132845D01*
X145660786Y-126262040D01*
X145567776Y-126369379D01*
X145448292Y-126446166D01*
X145424039Y-126456381D01*
X145421449Y-126463587D01*
X145420000Y-126477862D01*
X145420000Y-128084905D01*
X145424193Y-128114070D01*
X145426147Y-128113496D01*
X145566732Y-128093283D01*
X145707316Y-128113496D01*
X145836512Y-128172497D01*
X145908323Y-128228529D01*
X145957121Y-128274354D01*
X145957128Y-128274359D01*
X145980010Y-128295847D01*
X146023486Y-128319748D01*
X146090766Y-128356736D01*
X146090769Y-128356737D01*
X146118279Y-128371861D01*
X146271107Y-128411100D01*
X146389294Y-128411100D01*
X146404847Y-128409135D01*
X146404850Y-128409135D01*
X146475393Y-128400223D01*
X146506541Y-128396288D01*
X146535726Y-128384733D01*
X146535730Y-128384732D01*
X146624054Y-128349762D01*
X146624053Y-128349762D01*
X146653247Y-128338204D01*
X146678648Y-128319749D01*
X146678650Y-128319748D01*
X146717072Y-128291832D01*
X146780898Y-128245460D01*
X146881474Y-128123884D01*
X146898530Y-128087639D01*
X146899149Y-128086324D01*
X146977296Y-127967726D01*
X147085691Y-127875949D01*
X147215552Y-127818427D01*
X147356358Y-127799822D01*
X147496703Y-127821639D01*
X147625215Y-127882113D01*
X147731485Y-127976344D01*
X147806902Y-128096696D01*
X147834071Y-128193386D01*
X147835722Y-128192944D01*
X147844187Y-128224537D01*
X147848456Y-128256962D01*
X147860970Y-128287174D01*
X147860971Y-128287177D01*
X147896049Y-128371861D01*
X147908964Y-128403041D01*
X148005218Y-128528482D01*
X148031164Y-128548391D01*
X148083515Y-128588561D01*
X148130659Y-128624736D01*
X148160875Y-128637252D01*
X148160877Y-128637253D01*
X148246523Y-128672729D01*
X148246526Y-128672730D01*
X148276738Y-128685244D01*
X148309162Y-128689513D01*
X148309163Y-128689513D01*
X148401074Y-128701613D01*
X148433500Y-128705882D01*
X148465926Y-128701613D01*
X148557837Y-128689513D01*
X148557838Y-128689513D01*
X148590262Y-128685244D01*
X148620474Y-128672730D01*
X148620477Y-128672729D01*
X148706123Y-128637253D01*
X148706125Y-128637252D01*
X148736341Y-128624736D01*
X148783486Y-128588561D01*
X148835836Y-128548391D01*
X148861782Y-128528482D01*
X148958036Y-128403041D01*
X148970951Y-128371861D01*
X149006029Y-128287177D01*
X149006030Y-128287174D01*
X149018544Y-128256962D01*
X149025162Y-128206697D01*
X149027193Y-128191266D01*
X149065584Y-128054522D01*
X149140944Y-127934134D01*
X149247169Y-127839854D01*
X149375654Y-127779319D01*
X149521924Y-127757400D01*
X149939053Y-127757400D01*
X149953570Y-127758411D01*
X149962154Y-127760897D01*
X149974234Y-127759851D01*
X149974237Y-127759851D01*
X149983907Y-127759013D01*
X150002533Y-127757400D01*
X150016090Y-127757400D01*
X150027874Y-127755205D01*
X150066259Y-127751881D01*
X150078898Y-127745703D01*
X150092728Y-127743127D01*
X150098929Y-127739305D01*
X150238659Y-127727210D01*
X150377879Y-127755324D01*
X150503539Y-127821522D01*
X150605458Y-127920442D01*
X150675381Y-128044068D01*
X150707641Y-128182386D01*
X150709500Y-128225415D01*
X150709500Y-128531924D01*
X150708186Y-128545869D01*
X150708132Y-128559961D01*
X150707702Y-128561214D01*
X150708052Y-128570541D01*
X150691530Y-128694221D01*
X150680256Y-128721438D01*
X150675988Y-128753858D01*
X150675987Y-128753861D01*
X150667285Y-128819966D01*
X150659618Y-128878200D01*
X150663887Y-128910626D01*
X150674286Y-128989612D01*
X150680256Y-129034962D01*
X150692770Y-129065174D01*
X150692771Y-129065177D01*
X150718010Y-129126109D01*
X150740764Y-129181041D01*
X150760674Y-129206988D01*
X150760675Y-129206990D01*
X150790233Y-129245510D01*
X150837018Y-129306482D01*
X150862964Y-129326391D01*
X150920528Y-129370561D01*
X150962459Y-129402736D01*
X150992675Y-129415252D01*
X150992677Y-129415253D01*
X151078323Y-129450729D01*
X151078326Y-129450730D01*
X151108538Y-129463244D01*
X151140962Y-129467513D01*
X151140963Y-129467513D01*
X151232874Y-129479613D01*
X151265300Y-129483882D01*
X151297726Y-129479613D01*
X151389637Y-129467513D01*
X151389638Y-129467513D01*
X151422062Y-129463244D01*
X151452274Y-129450730D01*
X151452277Y-129450729D01*
X151537923Y-129415253D01*
X151537925Y-129415252D01*
X151568141Y-129402736D01*
X151610073Y-129370561D01*
X151667636Y-129326391D01*
X151693582Y-129306482D01*
X151740367Y-129245510D01*
X151769925Y-129206990D01*
X151769926Y-129206988D01*
X151789836Y-129181041D01*
X151812590Y-129126109D01*
X151837829Y-129065177D01*
X151837830Y-129065174D01*
X151850344Y-129034962D01*
X151856315Y-128989612D01*
X151866713Y-128910626D01*
X151870982Y-128878200D01*
X151869552Y-128867338D01*
X151886926Y-128746498D01*
X151945927Y-128617303D01*
X152038937Y-128509964D01*
X152158421Y-128433177D01*
X152241621Y-128403759D01*
X152255393Y-128400223D01*
X152286541Y-128396288D01*
X152433247Y-128338204D01*
X152458648Y-128319749D01*
X152458650Y-128319748D01*
X152497072Y-128291832D01*
X152560898Y-128245460D01*
X152576167Y-128227003D01*
X152687118Y-128149263D01*
X152821687Y-128103833D01*
X152963604Y-128098156D01*
X153012654Y-128105698D01*
X153056710Y-128114735D01*
X153058551Y-128109613D01*
X153060000Y-128095338D01*
X153060000Y-126488295D01*
X153055303Y-126455624D01*
X153022318Y-126434427D01*
X152969224Y-126410180D01*
X152861884Y-126317171D01*
X152785096Y-126197688D01*
X152745080Y-126061412D01*
X152740000Y-125990392D01*
X152740000Y-125932290D01*
X152735303Y-125899619D01*
X152706159Y-125880890D01*
X152598820Y-125787881D01*
X152522032Y-125668397D01*
X152482016Y-125532121D01*
X152482016Y-125390091D01*
X152501360Y-125306903D01*
X152503508Y-125300292D01*
X152514144Y-125276403D01*
X152519581Y-125250825D01*
X152521079Y-125246214D01*
X152529582Y-125214480D01*
X152530591Y-125209732D01*
X152538674Y-125184856D01*
X152541408Y-125158844D01*
X152542417Y-125154096D01*
X152547555Y-125121659D01*
X152548063Y-125116824D01*
X152553500Y-125091246D01*
X152553500Y-124056766D01*
X152553759Y-124046912D01*
X152557211Y-124025139D01*
X152554512Y-123973462D01*
X152554179Y-123967098D01*
X152553625Y-123945860D01*
X152553500Y-123943474D01*
X152553500Y-123930408D01*
X152552135Y-123917421D01*
X152551996Y-123914771D01*
X152550355Y-123893902D01*
X152548700Y-123862221D01*
X152547336Y-123836103D01*
X152541511Y-123814349D01*
X152541029Y-123811747D01*
X152538674Y-123789344D01*
X152520782Y-123734277D01*
X152513350Y-123709181D01*
X152498374Y-123653253D01*
X152488148Y-123633176D01*
X152487140Y-123630741D01*
X152480179Y-123609316D01*
X152451237Y-123559187D01*
X152438737Y-123536161D01*
X152424334Y-123507881D01*
X152412465Y-123484577D01*
X152398292Y-123467069D01*
X152396795Y-123464891D01*
X152385533Y-123445384D01*
X152368033Y-123425948D01*
X152368030Y-123425944D01*
X152346789Y-123402353D01*
X152329791Y-123382448D01*
X152323221Y-123374334D01*
X152324520Y-123373282D01*
X152254688Y-123269005D01*
X152212107Y-123133508D01*
X152209425Y-122991503D01*
X152246859Y-122854495D01*
X152321376Y-122733583D01*
X152426940Y-122638562D01*
X152554998Y-122577131D01*
X152695175Y-122554267D01*
X152836117Y-122571821D01*
X152966403Y-122628373D01*
X153057445Y-122700332D01*
X153214569Y-122857456D01*
X153223495Y-122868239D01*
X153233426Y-122878246D01*
X153234009Y-122879438D01*
X153241568Y-122886450D01*
X153241571Y-122886453D01*
X153262267Y-122905651D01*
X153264495Y-122907797D01*
X153265314Y-122908477D01*
X153268815Y-122911725D01*
X153270431Y-122913514D01*
X153275753Y-122918640D01*
X153283205Y-122926092D01*
X153287419Y-122928983D01*
X153310618Y-122950503D01*
X153330147Y-122958294D01*
X153347489Y-122970191D01*
X153369589Y-122975436D01*
X153369590Y-122975436D01*
X153369974Y-122975527D01*
X153378284Y-122977499D01*
X153407673Y-122989224D01*
X153413547Y-122989800D01*
X153430119Y-122989800D01*
X153449161Y-122994319D01*
X153468055Y-122991747D01*
X153475071Y-122991563D01*
X153476252Y-122991670D01*
X153516042Y-122989800D01*
X153862658Y-122989800D01*
X154003243Y-123010013D01*
X154132438Y-123069014D01*
X154239777Y-123162024D01*
X154316564Y-123281508D01*
X154356579Y-123417785D01*
X154359255Y-123537710D01*
X154353000Y-123601219D01*
X154353000Y-124198982D01*
X154357781Y-124247530D01*
X154359818Y-124257767D01*
X154378190Y-124309844D01*
X154399445Y-124341655D01*
X154436348Y-124382738D01*
X154468160Y-124403994D01*
X154517973Y-124427826D01*
X154543070Y-124432819D01*
X154591618Y-124437600D01*
X155064382Y-124437600D01*
X155112930Y-124432819D01*
X155123167Y-124430782D01*
X155175244Y-124412410D01*
X155195501Y-124398875D01*
X155323623Y-124337577D01*
X155463824Y-124314858D01*
X155604747Y-124332559D01*
X155734975Y-124389246D01*
X155843957Y-124480325D01*
X155922865Y-124598419D01*
X155965305Y-124733960D01*
X155967840Y-124875968D01*
X155930264Y-125012937D01*
X155922864Y-125029141D01*
X155886773Y-125104575D01*
X155881781Y-125129670D01*
X155877000Y-125178218D01*
X155877000Y-125675982D01*
X155881781Y-125724530D01*
X155883818Y-125734767D01*
X155902190Y-125786844D01*
X155923445Y-125818654D01*
X155977654Y-125879004D01*
X156056562Y-125997098D01*
X156099003Y-126132639D01*
X156101538Y-126274646D01*
X156063962Y-126411616D01*
X155989320Y-126532451D01*
X155903086Y-126613701D01*
X155902687Y-126613996D01*
X155777627Y-126681321D01*
X155638665Y-126710686D01*
X155497060Y-126699711D01*
X155457360Y-126687150D01*
X155429077Y-126679572D01*
X155398862Y-126667056D01*
X155366438Y-126662787D01*
X155366437Y-126662787D01*
X155274526Y-126650687D01*
X155242100Y-126646418D01*
X155209674Y-126650687D01*
X155117763Y-126662787D01*
X155117762Y-126662787D01*
X155085338Y-126667056D01*
X155055126Y-126679570D01*
X155055123Y-126679571D01*
X154969477Y-126715047D01*
X154969475Y-126715048D01*
X154939259Y-126727564D01*
X154882821Y-126770870D01*
X154758987Y-126840414D01*
X154620571Y-126872255D01*
X154478792Y-126863809D01*
X154345136Y-126815762D01*
X154230430Y-126732006D01*
X154143967Y-126619326D01*
X154118036Y-126565944D01*
X154096613Y-126514225D01*
X154071773Y-126471200D01*
X154062106Y-126461760D01*
X154061449Y-126463587D01*
X154060000Y-126477862D01*
X154060000Y-128084905D01*
X154063903Y-128112049D01*
X154065537Y-128110999D01*
X154068225Y-128108146D01*
X154096612Y-128058977D01*
X154139722Y-127954899D01*
X154212195Y-127832751D01*
X154316146Y-127735968D01*
X154443153Y-127672393D01*
X154582926Y-127647174D01*
X154724143Y-127662356D01*
X154855362Y-127716708D01*
X154904512Y-127749974D01*
X154913309Y-127756724D01*
X154939259Y-127776636D01*
X154969475Y-127789152D01*
X154969477Y-127789153D01*
X155055123Y-127824629D01*
X155055126Y-127824630D01*
X155085338Y-127837144D01*
X155117762Y-127841413D01*
X155117763Y-127841413D01*
X155242100Y-127857782D01*
X155241541Y-127862031D01*
X155322880Y-127873726D01*
X155452075Y-127932727D01*
X155559414Y-128025737D01*
X155636201Y-128145221D01*
X155676216Y-128281498D01*
X155679080Y-128399475D01*
X155676500Y-128426767D01*
X155676500Y-128518401D01*
X155656287Y-128658986D01*
X155597286Y-128788181D01*
X155504276Y-128895520D01*
X155384792Y-128972307D01*
X155341056Y-128988029D01*
X155331738Y-128989256D01*
X155301521Y-129001772D01*
X155301522Y-129001772D01*
X155215877Y-129037247D01*
X155215875Y-129037248D01*
X155185659Y-129049764D01*
X155060218Y-129146018D01*
X154963964Y-129271459D01*
X154951448Y-129301675D01*
X154951447Y-129301677D01*
X154917835Y-129382825D01*
X154903456Y-129417538D01*
X154882818Y-129574300D01*
X154887087Y-129606726D01*
X154891728Y-129641975D01*
X154903456Y-129731062D01*
X154915970Y-129761274D01*
X154915971Y-129761277D01*
X154951447Y-129846923D01*
X154963964Y-129877141D01*
X155060218Y-130002582D01*
X155086164Y-130022491D01*
X155134561Y-130059627D01*
X155185659Y-130098836D01*
X155215875Y-130111352D01*
X155215877Y-130111353D01*
X155301523Y-130146829D01*
X155301526Y-130146830D01*
X155331738Y-130159344D01*
X155443132Y-130174009D01*
X155579875Y-130212399D01*
X155700264Y-130287758D01*
X155794545Y-130393983D01*
X155855080Y-130522467D01*
X155877000Y-130668740D01*
X155877000Y-130802982D01*
X155881781Y-130851530D01*
X155883818Y-130861767D01*
X155902190Y-130913844D01*
X155923445Y-130945655D01*
X155960348Y-130986738D01*
X155992160Y-131007994D01*
X156041973Y-131031826D01*
X156067070Y-131036819D01*
X156115618Y-131041600D01*
X156318940Y-131041600D01*
X156459525Y-131061813D01*
X156588720Y-131120814D01*
X156696059Y-131213824D01*
X156772846Y-131333308D01*
X156812861Y-131469585D01*
X156812861Y-131611615D01*
X156772846Y-131747892D01*
X156733844Y-131817828D01*
X156702206Y-131865178D01*
X156662477Y-131916954D01*
X156550350Y-132044810D01*
X156504210Y-132090950D01*
X156376354Y-132203077D01*
X156324588Y-132242799D01*
X156183189Y-132337279D01*
X156126675Y-132369908D01*
X155974155Y-132445121D01*
X155913862Y-132470095D01*
X155752842Y-132524754D01*
X155689794Y-132541648D01*
X155523027Y-132574820D01*
X155458312Y-132583340D01*
X155293593Y-132594136D01*
X155266979Y-132593899D01*
X155256358Y-132591457D01*
X155246374Y-132593716D01*
X155238477Y-132593646D01*
X155196662Y-132596600D01*
X154602911Y-132596600D01*
X154462326Y-132576387D01*
X154333131Y-132517386D01*
X154225792Y-132424376D01*
X154149005Y-132304892D01*
X154108990Y-132168615D01*
X154108990Y-132026585D01*
X154119412Y-131974193D01*
X154120543Y-131969761D01*
X154095376Y-131966600D01*
X153029098Y-131966600D01*
X152998487Y-131971001D01*
X152998487Y-131976125D01*
X153014863Y-132106507D01*
X152992144Y-132246709D01*
X152930846Y-132374830D01*
X152835935Y-132480492D01*
X152715100Y-132555134D01*
X152578130Y-132592710D01*
X152515943Y-132596600D01*
X145962911Y-132596600D01*
X145822326Y-132576387D01*
X145693131Y-132517386D01*
X145585792Y-132424376D01*
X145509005Y-132304892D01*
X145468990Y-132168615D01*
X145468990Y-132026585D01*
X145479412Y-131974193D01*
X145480543Y-131969761D01*
X145455376Y-131966600D01*
X144389098Y-131966600D01*
X144358487Y-131971001D01*
X144358487Y-131976125D01*
X144374863Y-132106507D01*
X144352144Y-132246709D01*
X144290846Y-132374830D01*
X144195935Y-132480492D01*
X144075100Y-132555134D01*
X143938130Y-132592710D01*
X143875943Y-132596600D01*
X138434690Y-132596600D01*
X138294105Y-132576387D01*
X138164910Y-132517386D01*
X138057571Y-132424376D01*
X137980784Y-132304892D01*
X137940769Y-132168615D01*
X137940769Y-132026585D01*
X137980784Y-131890308D01*
X138012671Y-131831328D01*
X138056765Y-131761443D01*
X138056769Y-131761435D01*
X138068971Y-131742096D01*
X138148959Y-131541605D01*
X138191070Y-131329895D01*
X138193896Y-131114055D01*
X138174111Y-130998912D01*
X138168015Y-130963439D01*
X144359457Y-130963439D01*
X144384457Y-130966579D01*
X144416046Y-130962037D01*
X144420000Y-130948570D01*
X144420000Y-130930910D01*
X145420000Y-130930910D01*
X145424563Y-130962646D01*
X145438030Y-130966600D01*
X145450902Y-130966600D01*
X145472886Y-130963439D01*
X152999457Y-130963439D01*
X153024457Y-130966579D01*
X153056046Y-130962037D01*
X153060000Y-130948570D01*
X153060000Y-130930910D01*
X154060000Y-130930910D01*
X154064563Y-130962646D01*
X154078030Y-130966600D01*
X154090902Y-130966600D01*
X154121357Y-130962221D01*
X154114645Y-130937758D01*
X154096614Y-130894227D01*
X154071773Y-130851200D01*
X154062106Y-130841760D01*
X154061449Y-130843587D01*
X154060000Y-130857862D01*
X154060000Y-130930910D01*
X153060000Y-130930910D01*
X153060000Y-130868295D01*
X153056097Y-130841151D01*
X153054463Y-130842201D01*
X153051775Y-130845054D01*
X153023386Y-130894227D01*
X153007066Y-130933625D01*
X152999457Y-130963439D01*
X145472886Y-130963439D01*
X145481357Y-130962221D01*
X145474645Y-130937758D01*
X145456614Y-130894227D01*
X145431773Y-130851200D01*
X145422106Y-130841760D01*
X145421449Y-130843587D01*
X145420000Y-130857862D01*
X145420000Y-130930910D01*
X144420000Y-130930910D01*
X144420000Y-130868295D01*
X144416097Y-130841151D01*
X144414463Y-130842201D01*
X144411775Y-130845054D01*
X144383386Y-130894227D01*
X144367066Y-130933625D01*
X144359457Y-130963439D01*
X138168015Y-130963439D01*
X138161214Y-130923861D01*
X138157340Y-130901315D01*
X138146376Y-130871595D01*
X138090548Y-130720265D01*
X138090546Y-130720261D01*
X138082628Y-130698798D01*
X137972261Y-130513288D01*
X137829936Y-130350998D01*
X137749717Y-130287758D01*
X137678383Y-130231522D01*
X137678378Y-130231519D01*
X137660419Y-130217361D01*
X137469387Y-130116855D01*
X137447541Y-130110072D01*
X137447537Y-130110070D01*
X137349067Y-130079495D01*
X137263238Y-130052844D01*
X137087978Y-130032100D01*
X136963236Y-130032100D01*
X136803047Y-130046819D01*
X136781033Y-130053028D01*
X136781031Y-130053028D01*
X136689209Y-130078925D01*
X136595294Y-130105412D01*
X136574775Y-130115531D01*
X136574772Y-130115532D01*
X136477274Y-130163613D01*
X136401696Y-130200884D01*
X136383365Y-130214572D01*
X136383364Y-130214573D01*
X136360667Y-130231522D01*
X136228739Y-130330037D01*
X136082214Y-130488546D01*
X135967029Y-130671104D01*
X135887041Y-130871595D01*
X135876645Y-130923861D01*
X135855170Y-131031826D01*
X135844930Y-131083305D01*
X135842104Y-131299145D01*
X135845979Y-131321694D01*
X135845979Y-131321698D01*
X135847388Y-131329895D01*
X135878660Y-131511885D01*
X135886576Y-131533343D01*
X135886577Y-131533346D01*
X135897463Y-131562852D01*
X135953372Y-131714402D01*
X136014904Y-131817828D01*
X136029561Y-131842464D01*
X136084069Y-131973618D01*
X136099420Y-132114817D01*
X136074368Y-132254620D01*
X136010945Y-132381703D01*
X135914286Y-132485769D01*
X135792225Y-132558388D01*
X135654648Y-132593677D01*
X135600717Y-132596600D01*
X132578723Y-132596600D01*
X132578723Y-132593723D01*
X132567647Y-132594053D01*
X132556358Y-132591457D01*
X132541434Y-132594834D01*
X132537240Y-132594959D01*
X132498592Y-132591735D01*
X132487929Y-132592138D01*
X132353689Y-132583340D01*
X132288973Y-132574820D01*
X132122206Y-132541648D01*
X132059158Y-132524754D01*
X131898138Y-132470095D01*
X131837845Y-132445121D01*
X131685325Y-132369908D01*
X131628811Y-132337279D01*
X131487412Y-132242799D01*
X131435646Y-132203077D01*
X131307790Y-132090950D01*
X131261650Y-132044810D01*
X131149523Y-131916954D01*
X131109801Y-131865188D01*
X131015321Y-131723789D01*
X130982692Y-131667275D01*
X130907479Y-131514755D01*
X130882505Y-131454462D01*
X130827846Y-131293442D01*
X130810952Y-131230394D01*
X130777780Y-131063627D01*
X130769260Y-130998912D01*
X130758464Y-130834193D01*
X130758701Y-130807579D01*
X130761143Y-130796958D01*
X130758884Y-130786974D01*
X130758954Y-130779077D01*
X130756000Y-130737262D01*
X130756000Y-130080776D01*
X130776213Y-129940191D01*
X130835214Y-129810996D01*
X130928224Y-129703657D01*
X131047708Y-129626870D01*
X131183985Y-129586855D01*
X131326015Y-129586855D01*
X131462292Y-129626870D01*
X131581776Y-129703657D01*
X131609077Y-129729165D01*
X131643880Y-129764212D01*
X131661418Y-129778312D01*
X131664738Y-129779806D01*
X131668000Y-129768456D01*
X131668000Y-129751044D01*
X132668000Y-129751044D01*
X132671903Y-129778188D01*
X132685937Y-129769169D01*
X132771947Y-129684941D01*
X132806990Y-129641975D01*
X132873990Y-129538011D01*
X132898647Y-129488340D01*
X132940947Y-129372122D01*
X132953986Y-129318223D01*
X132966035Y-129222848D01*
X132968000Y-129191613D01*
X132968000Y-129187786D01*
X141068000Y-129187786D01*
X141069554Y-129215587D01*
X141079834Y-129307235D01*
X141092118Y-129361304D01*
X141132795Y-129478111D01*
X141156753Y-129528115D01*
X141222295Y-129633004D01*
X141256736Y-129676458D01*
X141343879Y-129764212D01*
X141361418Y-129778312D01*
X141364738Y-129779806D01*
X141368000Y-129768456D01*
X141368000Y-129751044D01*
X142368000Y-129751044D01*
X142371903Y-129778188D01*
X142385937Y-129769169D01*
X142471947Y-129684941D01*
X142506990Y-129641975D01*
X142573990Y-129538011D01*
X142598647Y-129488340D01*
X142640947Y-129372122D01*
X142653986Y-129318223D01*
X142666035Y-129222848D01*
X142668000Y-129191613D01*
X142668000Y-128992290D01*
X142663437Y-128960554D01*
X142649970Y-128956600D01*
X142403690Y-128956600D01*
X142371954Y-128961163D01*
X142368000Y-128974630D01*
X142368000Y-129751044D01*
X141368000Y-129751044D01*
X141368000Y-128992290D01*
X141363437Y-128960554D01*
X141349970Y-128956600D01*
X141103690Y-128956600D01*
X141071954Y-128961163D01*
X141068000Y-128974630D01*
X141068000Y-129187786D01*
X132968000Y-129187786D01*
X132968000Y-128992290D01*
X132963437Y-128960554D01*
X132949970Y-128956600D01*
X132703690Y-128956600D01*
X132671954Y-128961163D01*
X132668000Y-128974630D01*
X132668000Y-129751044D01*
X131668000Y-129751044D01*
X131668000Y-128005726D01*
X135213541Y-128005726D01*
X135217321Y-128030719D01*
X135217321Y-128030722D01*
X135229252Y-128109613D01*
X135243935Y-128206697D01*
X135314119Y-128397452D01*
X135421226Y-128570199D01*
X135438590Y-128588561D01*
X135543514Y-128699515D01*
X135560881Y-128717880D01*
X135581588Y-128732379D01*
X135581589Y-128732380D01*
X135653021Y-128782397D01*
X135727379Y-128834463D01*
X135913919Y-128915186D01*
X135938663Y-128920355D01*
X135938662Y-128920355D01*
X136094115Y-128952831D01*
X136094118Y-128952831D01*
X136112880Y-128956751D01*
X136119539Y-128957100D01*
X137868800Y-128957100D01*
X137881349Y-128955825D01*
X137881356Y-128955825D01*
X137936297Y-128950244D01*
X138020216Y-128941720D01*
X138214172Y-128880938D01*
X138298015Y-128834463D01*
X138369842Y-128794649D01*
X138369846Y-128794646D01*
X138391944Y-128782397D01*
X138450300Y-128732380D01*
X138527079Y-128666573D01*
X138527082Y-128666570D01*
X138546271Y-128650123D01*
X138670848Y-128489519D01*
X138760587Y-128307145D01*
X138811822Y-128110452D01*
X138815305Y-128043999D01*
X138819001Y-127973451D01*
X138821755Y-127920910D01*
X141068000Y-127920910D01*
X141072563Y-127952646D01*
X141086030Y-127956600D01*
X141332310Y-127956600D01*
X141364046Y-127952037D01*
X141368000Y-127938570D01*
X141368000Y-127920910D01*
X142368000Y-127920910D01*
X142372563Y-127952646D01*
X142386030Y-127956600D01*
X142632310Y-127956600D01*
X142664046Y-127952037D01*
X142668000Y-127938570D01*
X142668000Y-127809582D01*
X144320000Y-127809582D01*
X144322133Y-127842124D01*
X144331175Y-127910802D01*
X144347962Y-127973451D01*
X144383386Y-128058973D01*
X144408227Y-128102000D01*
X144417894Y-128111440D01*
X144418551Y-128109613D01*
X144420000Y-128095338D01*
X144420000Y-127822290D01*
X144415437Y-127790554D01*
X144401970Y-127786600D01*
X144355690Y-127786600D01*
X144323954Y-127791163D01*
X144320000Y-127804630D01*
X144320000Y-127809582D01*
X142668000Y-127809582D01*
X142668000Y-127725414D01*
X142666446Y-127697613D01*
X142656166Y-127605965D01*
X142643882Y-127551896D01*
X142603205Y-127435089D01*
X142579247Y-127385085D01*
X142513705Y-127280196D01*
X142479264Y-127236742D01*
X142392121Y-127148988D01*
X142374582Y-127134888D01*
X142371262Y-127133394D01*
X142368000Y-127144744D01*
X142368000Y-127920910D01*
X141368000Y-127920910D01*
X141368000Y-127162156D01*
X141364097Y-127135012D01*
X141350063Y-127144031D01*
X141264053Y-127228259D01*
X141229010Y-127271225D01*
X141162010Y-127375189D01*
X141137353Y-127424860D01*
X141095053Y-127541078D01*
X141082014Y-127594977D01*
X141069965Y-127690352D01*
X141068000Y-127721587D01*
X141068000Y-127920910D01*
X138821755Y-127920910D01*
X138822459Y-127907474D01*
X138817692Y-127875949D01*
X138795845Y-127731498D01*
X138792065Y-127706503D01*
X138782455Y-127680382D01*
X138754762Y-127605117D01*
X138721881Y-127515748D01*
X138614774Y-127343001D01*
X138475119Y-127195320D01*
X138406467Y-127147249D01*
X138329325Y-127093234D01*
X138329324Y-127093234D01*
X138308621Y-127078737D01*
X138122081Y-126998014D01*
X138058436Y-126984718D01*
X137941885Y-126960369D01*
X137941882Y-126960369D01*
X137923120Y-126956449D01*
X137916461Y-126956100D01*
X136167200Y-126956100D01*
X136154651Y-126957375D01*
X136154644Y-126957375D01*
X136099703Y-126962956D01*
X136015784Y-126971480D01*
X135821828Y-127032262D01*
X135756998Y-127068198D01*
X135666158Y-127118551D01*
X135666154Y-127118554D01*
X135644056Y-127130803D01*
X135624868Y-127147249D01*
X135508921Y-127246627D01*
X135508918Y-127246630D01*
X135489729Y-127263077D01*
X135365152Y-127423681D01*
X135275413Y-127606055D01*
X135224178Y-127802748D01*
X135222855Y-127827987D01*
X135222855Y-127827989D01*
X135221294Y-127857782D01*
X135213541Y-128005726D01*
X131668000Y-128005726D01*
X131668000Y-127920910D01*
X132668000Y-127920910D01*
X132672563Y-127952646D01*
X132686030Y-127956600D01*
X132932310Y-127956600D01*
X132964046Y-127952037D01*
X132968000Y-127938570D01*
X132968000Y-127725414D01*
X132966446Y-127697613D01*
X132956166Y-127605965D01*
X132943882Y-127551896D01*
X132903205Y-127435089D01*
X132879247Y-127385085D01*
X132813705Y-127280196D01*
X132779264Y-127236742D01*
X132692121Y-127148988D01*
X132674582Y-127134888D01*
X132671262Y-127133394D01*
X132668000Y-127144744D01*
X132668000Y-127920910D01*
X131668000Y-127920910D01*
X131668000Y-127162156D01*
X131664097Y-127135012D01*
X131650063Y-127144031D01*
X131604134Y-127189009D01*
X131489549Y-127272930D01*
X131355961Y-127321169D01*
X131214195Y-127329818D01*
X131075734Y-127298176D01*
X130951796Y-127228808D01*
X130852422Y-127127332D01*
X130785663Y-127001969D01*
X130756926Y-126862876D01*
X130756000Y-126832489D01*
X130756000Y-126754889D01*
X144320572Y-126754889D01*
X144324563Y-126782646D01*
X144338030Y-126786600D01*
X144384310Y-126786600D01*
X144416046Y-126782037D01*
X144420000Y-126768570D01*
X144420000Y-126488295D01*
X144416097Y-126461151D01*
X144414463Y-126462201D01*
X144411775Y-126465054D01*
X144383386Y-126514227D01*
X144347962Y-126599749D01*
X144331175Y-126662398D01*
X144322133Y-126731076D01*
X144320572Y-126754889D01*
X130756000Y-126754889D01*
X130756000Y-126243127D01*
X130776213Y-126102542D01*
X130835214Y-125973347D01*
X130928224Y-125866008D01*
X131047708Y-125789221D01*
X131183985Y-125749206D01*
X131326015Y-125749206D01*
X131462292Y-125789221D01*
X131490714Y-125805372D01*
X131491718Y-125806303D01*
X131501296Y-125810124D01*
X131501298Y-125810125D01*
X131511247Y-125814094D01*
X131510401Y-125816214D01*
X131518737Y-125819233D01*
X131528589Y-125825991D01*
X131550689Y-125831236D01*
X131550690Y-125831236D01*
X131551074Y-125831327D01*
X131559384Y-125833299D01*
X131588773Y-125845024D01*
X131594647Y-125845600D01*
X131611219Y-125845600D01*
X131630261Y-125850119D01*
X131649157Y-125847547D01*
X131656171Y-125847363D01*
X131657355Y-125847470D01*
X131697138Y-125845600D01*
X132520824Y-125845600D01*
X132534769Y-125846914D01*
X132548861Y-125846968D01*
X132550114Y-125847398D01*
X132560395Y-125847012D01*
X132560403Y-125847012D01*
X132588649Y-125845951D01*
X132591708Y-125845894D01*
X132592762Y-125845797D01*
X132597524Y-125845618D01*
X132599928Y-125845740D01*
X132607373Y-125845600D01*
X132617890Y-125845600D01*
X132622914Y-125844664D01*
X132654535Y-125843477D01*
X132673853Y-125835178D01*
X132694528Y-125831327D01*
X132715088Y-125818654D01*
X132717882Y-125816932D01*
X132717886Y-125816929D01*
X132721470Y-125814720D01*
X132750543Y-125802229D01*
X132755104Y-125798483D01*
X132766824Y-125786763D01*
X132773603Y-125782585D01*
X132775160Y-125781625D01*
X132783482Y-125776495D01*
X132795026Y-125761314D01*
X132799856Y-125756223D01*
X132800770Y-125755460D01*
X132827578Y-125726009D01*
X133719556Y-124834031D01*
X133730339Y-124825105D01*
X133740346Y-124815174D01*
X133741538Y-124814591D01*
X133767752Y-124786332D01*
X133769897Y-124784105D01*
X133770577Y-124783286D01*
X133773825Y-124779785D01*
X133775614Y-124778169D01*
X133780740Y-124772847D01*
X133788192Y-124765395D01*
X133791083Y-124761181D01*
X133812603Y-124737982D01*
X133820394Y-124718453D01*
X133832291Y-124701111D01*
X133839599Y-124670316D01*
X133851324Y-124640927D01*
X133851900Y-124635053D01*
X133851900Y-124618481D01*
X133853738Y-124610735D01*
X133856419Y-124599439D01*
X133853847Y-124580543D01*
X133853663Y-124573529D01*
X133853770Y-124572345D01*
X133851900Y-124532562D01*
X133851900Y-124487786D01*
X141068000Y-124487786D01*
X141069554Y-124515587D01*
X141079834Y-124607235D01*
X141092118Y-124661304D01*
X141132795Y-124778111D01*
X141156753Y-124828115D01*
X141222295Y-124933004D01*
X141256736Y-124976458D01*
X141343879Y-125064212D01*
X141361418Y-125078312D01*
X141364738Y-125079806D01*
X141368000Y-125068456D01*
X141368000Y-125051044D01*
X142368000Y-125051044D01*
X142371903Y-125078188D01*
X142385937Y-125069169D01*
X142471947Y-124984941D01*
X142506990Y-124941975D01*
X142573990Y-124838011D01*
X142598647Y-124788340D01*
X142640947Y-124672122D01*
X142653986Y-124618223D01*
X142666035Y-124522848D01*
X142668000Y-124491613D01*
X142668000Y-124292290D01*
X142663437Y-124260554D01*
X142649970Y-124256600D01*
X142403690Y-124256600D01*
X142371954Y-124261163D01*
X142368000Y-124274630D01*
X142368000Y-125051044D01*
X141368000Y-125051044D01*
X141368000Y-124292290D01*
X141363437Y-124260554D01*
X141349970Y-124256600D01*
X141103690Y-124256600D01*
X141071954Y-124261163D01*
X141068000Y-124274630D01*
X141068000Y-124487786D01*
X133851900Y-124487786D01*
X133851900Y-121925979D01*
X133872113Y-121785394D01*
X133931114Y-121656199D01*
X133998054Y-121573133D01*
X134956138Y-120615049D01*
X135069839Y-120529933D01*
X135202914Y-120480299D01*
X135344582Y-120470166D01*
X135483367Y-120500357D01*
G37*
%TD.AperFunction*%
%TA.AperFunction,Conductor*%
G36*
X136305785Y-115115313D02*
G01*
X136434980Y-115174314D01*
X136542319Y-115267324D01*
X136619106Y-115386808D01*
X136659121Y-115523085D01*
X136664200Y-115594100D01*
X136664200Y-115727818D01*
X136674342Y-115796712D01*
X136725768Y-115901455D01*
X136808350Y-115983893D01*
X136913182Y-116035136D01*
X136951500Y-116040726D01*
X136963597Y-116042491D01*
X136963599Y-116042491D01*
X136981482Y-116045100D01*
X138222918Y-116045100D01*
X138291812Y-116034958D01*
X138326619Y-116017868D01*
X138326621Y-116017868D01*
X138360834Y-116001070D01*
X138396555Y-115983532D01*
X138415849Y-115964204D01*
X138443454Y-115945351D01*
X138522128Y-115886348D01*
X138655160Y-115836597D01*
X138761658Y-115825100D01*
X138786228Y-115825100D01*
X138926813Y-115845313D01*
X139056008Y-115904314D01*
X139124645Y-115959626D01*
X139138889Y-115978911D01*
X139244832Y-116057161D01*
X139254792Y-116060659D01*
X139346994Y-116127847D01*
X139433566Y-116240444D01*
X139484908Y-116372869D01*
X139496862Y-116514395D01*
X139468460Y-116653557D01*
X139402002Y-116779079D01*
X139351563Y-116838050D01*
X138629367Y-117560246D01*
X138515666Y-117645362D01*
X138382591Y-117694996D01*
X138276521Y-117706400D01*
X137258573Y-117706400D01*
X137244641Y-117705087D01*
X137230539Y-117705033D01*
X137229286Y-117704603D01*
X137219003Y-117704989D01*
X137218995Y-117704989D01*
X137190767Y-117706049D01*
X137187664Y-117706107D01*
X137186597Y-117706206D01*
X137181853Y-117706384D01*
X137179442Y-117706261D01*
X137172048Y-117706400D01*
X137161510Y-117706400D01*
X137156484Y-117707336D01*
X137124865Y-117708523D01*
X137105547Y-117716822D01*
X137101194Y-117717633D01*
X137101190Y-117717633D01*
X137097943Y-117718238D01*
X137084872Y-117720673D01*
X137065528Y-117732597D01*
X137065527Y-117732597D01*
X137061518Y-117735068D01*
X137061514Y-117735071D01*
X137057930Y-117737280D01*
X137028857Y-117749771D01*
X137024296Y-117753517D01*
X137012576Y-117765237D01*
X137005797Y-117769415D01*
X137004302Y-117770337D01*
X136995918Y-117775505D01*
X136984374Y-117790686D01*
X136979544Y-117795777D01*
X136978630Y-117796540D01*
X136951822Y-117825991D01*
X133423244Y-121354569D01*
X133412461Y-121363495D01*
X133402454Y-121373426D01*
X133401262Y-121374009D01*
X133394250Y-121381568D01*
X133394247Y-121381571D01*
X133375049Y-121402267D01*
X133372903Y-121404495D01*
X133372223Y-121405314D01*
X133368975Y-121408815D01*
X133367186Y-121410431D01*
X133362060Y-121415753D01*
X133354608Y-121423205D01*
X133351717Y-121427419D01*
X133330197Y-121450618D01*
X133322406Y-121470147D01*
X133310509Y-121487489D01*
X133303202Y-121518282D01*
X133291476Y-121547673D01*
X133290900Y-121553547D01*
X133290900Y-121570122D01*
X133286382Y-121589161D01*
X133288955Y-121608065D01*
X133289139Y-121615069D01*
X133289031Y-121616268D01*
X133290900Y-121656026D01*
X133290900Y-121944850D01*
X133270687Y-122085435D01*
X133211686Y-122214630D01*
X133118676Y-122321969D01*
X132999192Y-122398756D01*
X132862915Y-122438771D01*
X132723723Y-122439171D01*
X132671665Y-122431991D01*
X132668000Y-122444744D01*
X132668000Y-123757600D01*
X132647787Y-123898185D01*
X132588786Y-124027380D01*
X132495776Y-124134719D01*
X132376292Y-124211506D01*
X132240015Y-124251521D01*
X132169000Y-124256600D01*
X132167000Y-124256600D01*
X132026415Y-124236387D01*
X131897220Y-124177386D01*
X131789881Y-124084376D01*
X131713094Y-123964892D01*
X131673079Y-123828615D01*
X131668000Y-123757600D01*
X131668000Y-122462156D01*
X131663303Y-122429485D01*
X131630230Y-122408231D01*
X131577319Y-122384067D01*
X131469980Y-122291056D01*
X131393193Y-122171573D01*
X131353179Y-122035296D01*
X131348100Y-121964282D01*
X131348100Y-117811320D01*
X131368313Y-117670735D01*
X131427314Y-117541540D01*
X131520324Y-117434201D01*
X131639808Y-117357414D01*
X131776085Y-117317399D01*
X131874308Y-117315207D01*
X131874308Y-117315000D01*
X131883601Y-117315000D01*
X131896015Y-117314723D01*
X131898827Y-117315000D01*
X132511835Y-117315000D01*
X132652420Y-117335213D01*
X132781615Y-117394214D01*
X132830153Y-117437081D01*
X132833195Y-117433407D01*
X132848109Y-117445753D01*
X132848805Y-117446882D01*
X132857004Y-117453117D01*
X132864645Y-117459442D01*
X132899291Y-117490978D01*
X133182969Y-117774656D01*
X133191895Y-117785439D01*
X133201826Y-117795446D01*
X133202409Y-117796638D01*
X133209968Y-117803650D01*
X133209971Y-117803653D01*
X133230667Y-117822851D01*
X133232895Y-117824997D01*
X133233714Y-117825677D01*
X133237215Y-117828925D01*
X133238831Y-117830714D01*
X133244153Y-117835840D01*
X133251605Y-117843292D01*
X133255819Y-117846183D01*
X133279018Y-117867703D01*
X133298548Y-117875495D01*
X133315888Y-117887390D01*
X133337991Y-117892635D01*
X133337993Y-117892636D01*
X133340255Y-117893172D01*
X133346680Y-117894697D01*
X133376073Y-117906424D01*
X133381947Y-117907000D01*
X133398522Y-117907000D01*
X133406265Y-117908838D01*
X133409691Y-117909651D01*
X133409693Y-117909651D01*
X133417560Y-117911518D01*
X133436453Y-117908947D01*
X133443476Y-117908762D01*
X133444660Y-117908869D01*
X133484425Y-117907000D01*
X134357324Y-117907000D01*
X134371269Y-117908314D01*
X134385361Y-117908368D01*
X134386614Y-117908798D01*
X134396895Y-117908412D01*
X134396903Y-117908412D01*
X134425149Y-117907351D01*
X134428208Y-117907294D01*
X134429262Y-117907197D01*
X134434024Y-117907018D01*
X134436428Y-117907140D01*
X134443873Y-117907000D01*
X134454390Y-117907000D01*
X134459414Y-117906064D01*
X134491035Y-117904877D01*
X134510353Y-117896578D01*
X134531028Y-117892727D01*
X134550644Y-117880636D01*
X134554382Y-117878332D01*
X134554386Y-117878329D01*
X134557970Y-117876120D01*
X134587043Y-117863629D01*
X134591604Y-117859883D01*
X134603324Y-117848163D01*
X134610103Y-117843985D01*
X134611660Y-117843025D01*
X134619982Y-117837895D01*
X134631526Y-117822714D01*
X134636356Y-117817623D01*
X134637270Y-117816860D01*
X134664078Y-117787409D01*
X135097556Y-117353931D01*
X135108339Y-117345005D01*
X135118346Y-117335074D01*
X135119538Y-117334491D01*
X135137427Y-117315207D01*
X135145751Y-117306233D01*
X135147897Y-117304005D01*
X135148577Y-117303186D01*
X135151825Y-117299685D01*
X135153614Y-117298069D01*
X135158740Y-117292747D01*
X135166192Y-117285295D01*
X135169083Y-117281081D01*
X135190603Y-117257882D01*
X135198394Y-117238353D01*
X135210291Y-117221011D01*
X135217599Y-117190216D01*
X135229324Y-117160827D01*
X135229900Y-117154953D01*
X135229900Y-117138381D01*
X135231738Y-117130635D01*
X135234419Y-117119339D01*
X135231847Y-117100445D01*
X135231663Y-117093429D01*
X135231770Y-117092248D01*
X135229900Y-117052458D01*
X135229900Y-115695279D01*
X135250113Y-115554694D01*
X135309114Y-115425499D01*
X135376054Y-115342433D01*
X135477233Y-115241254D01*
X135590934Y-115156138D01*
X135724009Y-115106504D01*
X135830079Y-115095100D01*
X136165200Y-115095100D01*
X136305785Y-115115313D01*
G37*
%TD.AperFunction*%
%TA.AperFunction,Conductor*%
G36*
X152775958Y-120061595D02*
G01*
X152795611Y-120063531D01*
X152819653Y-120068313D01*
X152996100Y-120068313D01*
X153136685Y-120088526D01*
X153265880Y-120147527D01*
X153373219Y-120240537D01*
X153450006Y-120360021D01*
X153490021Y-120496298D01*
X153495100Y-120567313D01*
X153495100Y-121139921D01*
X153474887Y-121280506D01*
X153415886Y-121409701D01*
X153322876Y-121517040D01*
X153203392Y-121593827D01*
X153067115Y-121633842D01*
X152925085Y-121633842D01*
X152788808Y-121593827D01*
X152669324Y-121517040D01*
X152643254Y-121492767D01*
X152070646Y-120920159D01*
X151985530Y-120806458D01*
X151935896Y-120673383D01*
X151925763Y-120531715D01*
X151955954Y-120392930D01*
X152024022Y-120268273D01*
X152124452Y-120167843D01*
X152249109Y-120099775D01*
X152387894Y-120069584D01*
X152423492Y-120068313D01*
X152609149Y-120068313D01*
X152633189Y-120063531D01*
X152657589Y-120061128D01*
X152657926Y-120064551D01*
X152758866Y-120059138D01*
X152775958Y-120061595D01*
G37*
%TD.AperFunction*%
%TA.AperFunction,Conductor*%
G36*
X140939491Y-116456033D02*
G01*
X140993806Y-116483221D01*
X141026430Y-116492800D01*
X141759400Y-116492800D01*
X141899985Y-116513013D01*
X142029180Y-116572014D01*
X142136519Y-116665024D01*
X142213306Y-116784508D01*
X142253321Y-116920785D01*
X142258400Y-116991800D01*
X142258400Y-117957110D01*
X142262963Y-117988846D01*
X142276430Y-117992800D01*
X142472710Y-117992800D01*
X142506956Y-117987876D01*
X142548885Y-117968728D01*
X142685162Y-117928713D01*
X142827192Y-117928713D01*
X142963469Y-117968728D01*
X143082952Y-118045515D01*
X143127400Y-118089175D01*
X143144019Y-118107676D01*
X143163848Y-118137352D01*
X143230169Y-118181667D01*
X143250313Y-118185674D01*
X143256407Y-118186886D01*
X143288652Y-118193300D01*
X143521528Y-118193300D01*
X143662113Y-118213513D01*
X143791308Y-118272514D01*
X143898647Y-118365524D01*
X143975434Y-118485008D01*
X144015449Y-118621285D01*
X144015449Y-118763315D01*
X143975434Y-118899592D01*
X143898647Y-119019076D01*
X143881711Y-119037265D01*
X143853789Y-119057889D01*
X143775539Y-119163832D01*
X143731899Y-119288100D01*
X143729000Y-119318767D01*
X143729001Y-119898432D01*
X143730105Y-119910120D01*
X143730106Y-119910131D01*
X143730108Y-119910150D01*
X143730108Y-119910159D01*
X143730660Y-119921878D01*
X143729535Y-119921931D01*
X143723212Y-120052013D01*
X143676628Y-120186186D01*
X143594130Y-120301801D01*
X143482402Y-120389489D01*
X143350494Y-120442148D01*
X143233322Y-120456100D01*
X138846532Y-120456100D01*
X138705947Y-120435887D01*
X138576752Y-120376886D01*
X138469413Y-120283876D01*
X138392626Y-120164392D01*
X138355114Y-120043756D01*
X138354961Y-120042891D01*
X138353063Y-120021192D01*
X138327103Y-119924307D01*
X138297544Y-119813988D01*
X138297542Y-119813983D01*
X138291903Y-119792937D01*
X138192035Y-119578771D01*
X138151164Y-119520400D01*
X138068992Y-119403047D01*
X138056495Y-119385199D01*
X137889401Y-119218105D01*
X137828065Y-119175157D01*
X137724499Y-119077963D01*
X137652510Y-118955528D01*
X137617931Y-118817772D01*
X137623564Y-118675853D01*
X137668951Y-118541270D01*
X137750417Y-118424926D01*
X137861360Y-118336246D01*
X137992793Y-118282414D01*
X138114280Y-118267400D01*
X138528424Y-118267400D01*
X138542369Y-118268714D01*
X138556461Y-118268768D01*
X138557714Y-118269198D01*
X138567995Y-118268812D01*
X138568003Y-118268812D01*
X138596249Y-118267751D01*
X138599308Y-118267694D01*
X138600362Y-118267597D01*
X138605124Y-118267418D01*
X138607528Y-118267540D01*
X138614973Y-118267400D01*
X138625490Y-118267400D01*
X138630514Y-118266464D01*
X138662135Y-118265277D01*
X138681453Y-118256978D01*
X138702128Y-118253127D01*
X138721473Y-118241203D01*
X138725482Y-118238732D01*
X138725486Y-118238729D01*
X138729070Y-118236520D01*
X138758143Y-118224029D01*
X138762704Y-118220283D01*
X138774424Y-118208563D01*
X138781203Y-118204385D01*
X138782760Y-118203425D01*
X138791082Y-118198295D01*
X138802626Y-118183114D01*
X138807456Y-118178023D01*
X138808370Y-118177260D01*
X138835178Y-118147809D01*
X139025877Y-117957110D01*
X141008400Y-117957110D01*
X141012963Y-117988846D01*
X141026430Y-117992800D01*
X141222710Y-117992800D01*
X141254446Y-117988237D01*
X141258400Y-117974770D01*
X141258400Y-117528490D01*
X141253837Y-117496754D01*
X141240370Y-117492800D01*
X141044090Y-117492800D01*
X141012354Y-117497363D01*
X141008400Y-117510830D01*
X141008400Y-117957110D01*
X139025877Y-117957110D01*
X140412262Y-116570725D01*
X140525963Y-116485609D01*
X140659038Y-116435975D01*
X140800706Y-116425842D01*
X140939491Y-116456033D01*
G37*
%TD.AperFunction*%
%TA.AperFunction,Conductor*%
G36*
X145503788Y-118177034D02*
G01*
X145504468Y-118174368D01*
X145528379Y-118180471D01*
X145530169Y-118181667D01*
X145588652Y-118193300D01*
X145613164Y-118193300D01*
X145637562Y-118195703D01*
X145637336Y-118197998D01*
X145745249Y-118213513D01*
X145874444Y-118272514D01*
X145981783Y-118365524D01*
X146058570Y-118485008D01*
X146098585Y-118621285D01*
X146098585Y-118763315D01*
X146058570Y-118899592D01*
X145981783Y-119019076D01*
X145874444Y-119112086D01*
X145793193Y-119151853D01*
X145788227Y-119154800D01*
X145757700Y-119175198D01*
X145629579Y-119236496D01*
X145489378Y-119259216D01*
X145348455Y-119241517D01*
X145218227Y-119184832D01*
X145127622Y-119113142D01*
X145102370Y-119087890D01*
X145080211Y-119057889D01*
X145050210Y-119035730D01*
X145023830Y-119009350D01*
X145027061Y-119006119D01*
X144976346Y-118956061D01*
X144907467Y-118831850D01*
X144876372Y-118693265D01*
X144885581Y-118551534D01*
X144934346Y-118418138D01*
X145018719Y-118303885D01*
X145131863Y-118218030D01*
X145264611Y-118167529D01*
X145406211Y-118156473D01*
X145503788Y-118177034D01*
G37*
%TD.AperFunction*%
%TA.AperFunction,Conductor*%
G36*
X147621456Y-108725070D02*
G01*
X147621775Y-108723468D01*
X147629828Y-108725070D01*
X147655838Y-108730244D01*
X147789778Y-108777497D01*
X147904979Y-108860571D01*
X147992109Y-108972736D01*
X148044109Y-109104905D01*
X148056766Y-109246370D01*
X148029056Y-109385671D01*
X147963222Y-109511522D01*
X147903770Y-109571650D01*
X147907470Y-109575350D01*
X147881090Y-109601730D01*
X147851089Y-109623889D01*
X147828930Y-109653890D01*
X147806132Y-109684756D01*
X147772839Y-109729832D01*
X147772201Y-109729360D01*
X147714743Y-109808205D01*
X147602144Y-109894773D01*
X147469717Y-109946111D01*
X147328190Y-109958062D01*
X147189030Y-109929655D01*
X147063509Y-109863193D01*
X147004550Y-109812763D01*
X146778733Y-109586946D01*
X146693617Y-109473245D01*
X146643983Y-109340170D01*
X146633850Y-109198502D01*
X146664041Y-109059717D01*
X146732109Y-108935060D01*
X146832539Y-108834630D01*
X146957196Y-108766562D01*
X147095981Y-108736371D01*
X147131579Y-108735100D01*
X147349748Y-108735100D01*
X147408231Y-108723467D01*
X147408989Y-108727278D01*
X147486768Y-108711805D01*
X147621456Y-108725070D01*
G37*
%TD.AperFunction*%
%TA.AperFunction,Conductor*%
G36*
X149511485Y-108554813D02*
G01*
X149640680Y-108613814D01*
X149748019Y-108706824D01*
X149824806Y-108826308D01*
X149864821Y-108962585D01*
X149869900Y-109033600D01*
X149869900Y-109071920D01*
X149849687Y-109212505D01*
X149790686Y-109341700D01*
X149697676Y-109449039D01*
X149578192Y-109525826D01*
X149536244Y-109542730D01*
X149455632Y-109571039D01*
X149425631Y-109593198D01*
X149403293Y-109605025D01*
X149269591Y-109652944D01*
X149127804Y-109661254D01*
X148989419Y-109629281D01*
X148905985Y-109583373D01*
X148876571Y-109567800D01*
X148846568Y-109545639D01*
X148811371Y-109533279D01*
X148798094Y-109526249D01*
X148683308Y-109442602D01*
X148596738Y-109330005D01*
X148545396Y-109197579D01*
X148533443Y-109056053D01*
X148561846Y-108916892D01*
X148628306Y-108791370D01*
X148698126Y-108714028D01*
X148714878Y-108698980D01*
X148744552Y-108679152D01*
X148755869Y-108662215D01*
X148873714Y-108583470D01*
X149009254Y-108541027D01*
X149089084Y-108534600D01*
X149370900Y-108534600D01*
X149511485Y-108554813D01*
G37*
%TD.AperFunction*%
%TA.AperFunction,Conductor*%
G36*
X147601387Y-91776974D02*
G01*
X147736231Y-91821580D01*
X147853046Y-91902368D01*
X147893569Y-91951676D01*
X147897019Y-91948798D01*
X147910551Y-91965021D01*
X147912179Y-91967179D01*
X147920909Y-91985038D01*
X147931222Y-91994605D01*
X147938605Y-92006582D01*
X147950447Y-92015587D01*
X147950668Y-92015820D01*
X147962114Y-92025442D01*
X147971353Y-92031831D01*
X147997518Y-92056103D01*
X148010583Y-92061315D01*
X148021783Y-92069832D01*
X148036055Y-92073965D01*
X148036344Y-92074102D01*
X148050965Y-92079122D01*
X148061862Y-92081774D01*
X148094573Y-92094824D01*
X148100447Y-92095400D01*
X148110078Y-92095400D01*
X148122154Y-92098897D01*
X148139049Y-92097434D01*
X148139050Y-92097434D01*
X148140154Y-92097338D01*
X148141047Y-92097261D01*
X148184098Y-92095400D01*
X149370900Y-92095400D01*
X149511485Y-92115613D01*
X149640680Y-92174614D01*
X149748019Y-92267624D01*
X149824806Y-92387108D01*
X149864821Y-92523385D01*
X149869900Y-92594400D01*
X149869900Y-106035600D01*
X149849687Y-106176185D01*
X149790686Y-106305380D01*
X149697676Y-106412719D01*
X149578192Y-106489506D01*
X149441915Y-106529521D01*
X149370900Y-106534600D01*
X149090093Y-106534600D01*
X148949508Y-106514387D01*
X148820313Y-106455386D01*
X148745892Y-106392053D01*
X148744552Y-106390048D01*
X148678231Y-106345733D01*
X148658087Y-106341726D01*
X148651993Y-106340514D01*
X148619748Y-106334100D01*
X147680252Y-106334100D01*
X147621769Y-106345733D01*
X147621011Y-106341922D01*
X147543232Y-106357395D01*
X147408550Y-106344130D01*
X147408231Y-106345733D01*
X147349748Y-106334100D01*
X146410252Y-106334100D01*
X146351769Y-106345733D01*
X146351011Y-106341922D01*
X146273232Y-106357395D01*
X146138550Y-106344130D01*
X146138231Y-106345733D01*
X146079748Y-106334100D01*
X145140252Y-106334100D01*
X145110297Y-106340058D01*
X145105598Y-106340993D01*
X144963771Y-106348594D01*
X144825548Y-106315929D01*
X144702127Y-106245646D01*
X144595697Y-106132293D01*
X144584764Y-106116225D01*
X144569091Y-106084162D01*
X144558778Y-106074595D01*
X144551395Y-106062618D01*
X144539553Y-106053613D01*
X144539332Y-106053380D01*
X144527886Y-106043758D01*
X144518647Y-106037369D01*
X144492482Y-106013097D01*
X144479417Y-106007885D01*
X144468217Y-105999368D01*
X144453945Y-105995235D01*
X144453656Y-105995098D01*
X144439035Y-105990078D01*
X144428138Y-105987426D01*
X144395427Y-105974376D01*
X144389553Y-105973800D01*
X144379922Y-105973800D01*
X144367846Y-105970303D01*
X144350950Y-105971766D01*
X144322522Y-105969087D01*
X144305562Y-105966713D01*
X144169137Y-105927207D01*
X144049368Y-105850865D01*
X143955959Y-105743873D01*
X143913719Y-105663487D01*
X143910153Y-105654877D01*
X143910152Y-105654875D01*
X143897636Y-105624659D01*
X143877018Y-105597788D01*
X143821291Y-105525164D01*
X143801382Y-105499218D01*
X143772880Y-105477347D01*
X143701890Y-105422875D01*
X143701888Y-105422874D01*
X143675941Y-105402964D01*
X143645725Y-105390448D01*
X143645723Y-105390447D01*
X143560077Y-105354971D01*
X143560074Y-105354970D01*
X143529862Y-105342456D01*
X143497438Y-105338187D01*
X143497437Y-105338187D01*
X143405526Y-105326087D01*
X143373100Y-105321818D01*
X143340674Y-105326087D01*
X143248763Y-105338187D01*
X143248762Y-105338187D01*
X143216338Y-105342456D01*
X143186126Y-105354970D01*
X143186123Y-105354971D01*
X143100477Y-105390447D01*
X143100475Y-105390448D01*
X143070259Y-105402964D01*
X143044312Y-105422874D01*
X143044310Y-105422875D01*
X142973320Y-105477347D01*
X142944818Y-105499218D01*
X142924909Y-105525164D01*
X142869183Y-105597788D01*
X142848564Y-105624659D01*
X142836048Y-105654875D01*
X142836047Y-105654877D01*
X142801105Y-105739236D01*
X142788056Y-105770738D01*
X142783787Y-105803162D01*
X142783787Y-105803163D01*
X142770924Y-105900868D01*
X142732534Y-106037612D01*
X142657173Y-106158000D01*
X142550948Y-106252281D01*
X142422464Y-106312815D01*
X142282130Y-106334700D01*
X142270168Y-106334183D01*
X142269748Y-106334100D01*
X141330252Y-106334100D01*
X141271769Y-106345733D01*
X141271011Y-106341922D01*
X141193232Y-106357395D01*
X141058550Y-106344130D01*
X141058231Y-106345733D01*
X140999748Y-106334100D01*
X140243081Y-106334100D01*
X140102496Y-106313887D01*
X139973301Y-106254886D01*
X139865962Y-106161876D01*
X139789175Y-106042392D01*
X139748350Y-105900231D01*
X139734914Y-105798169D01*
X139734913Y-105798166D01*
X139730644Y-105765738D01*
X139728847Y-105761400D01*
X139716489Y-105658052D01*
X139718818Y-105648239D01*
X139716058Y-105627961D01*
X139716295Y-105623814D01*
X139714300Y-105581374D01*
X139714300Y-103643276D01*
X139715614Y-103629331D01*
X139715668Y-103615239D01*
X139716098Y-103613986D01*
X139714651Y-103575441D01*
X139714594Y-103572385D01*
X139714497Y-103571334D01*
X139714318Y-103566582D01*
X139714440Y-103564187D01*
X139714300Y-103556721D01*
X139714300Y-103546210D01*
X139713365Y-103541191D01*
X139712178Y-103509565D01*
X139703877Y-103490244D01*
X139700027Y-103469572D01*
X139683421Y-103442631D01*
X139670929Y-103413557D01*
X139667183Y-103408996D01*
X139655463Y-103397276D01*
X139651285Y-103390497D01*
X139650325Y-103388940D01*
X139645195Y-103380618D01*
X139630014Y-103369074D01*
X139624923Y-103364244D01*
X139624160Y-103363330D01*
X139594709Y-103336522D01*
X139566254Y-103308067D01*
X139481138Y-103194366D01*
X139431504Y-103061291D01*
X139420100Y-102955221D01*
X139420100Y-100898652D01*
X139440313Y-100758067D01*
X139499314Y-100628872D01*
X139573107Y-100543711D01*
X139580332Y-100532469D01*
X139585000Y-100516570D01*
X139585000Y-99868600D01*
X139605213Y-99728015D01*
X139664214Y-99598820D01*
X139757224Y-99491481D01*
X139876708Y-99414694D01*
X140012985Y-99374679D01*
X140084000Y-99369600D01*
X140086000Y-99369600D01*
X140226585Y-99389813D01*
X140355780Y-99448814D01*
X140463119Y-99541824D01*
X140539906Y-99661308D01*
X140579921Y-99797585D01*
X140585000Y-99868600D01*
X140585000Y-100498910D01*
X140589563Y-100530646D01*
X140603030Y-100534600D01*
X140714310Y-100534600D01*
X140748553Y-100529677D01*
X140797777Y-100507197D01*
X140934054Y-100467183D01*
X141076084Y-100467183D01*
X141212361Y-100507198D01*
X141250347Y-100527940D01*
X141273030Y-100534600D01*
X141384310Y-100534600D01*
X141416046Y-100530037D01*
X141420000Y-100516570D01*
X141420000Y-99868600D01*
X141440213Y-99728015D01*
X141499214Y-99598820D01*
X141592224Y-99491481D01*
X141711708Y-99414694D01*
X141847985Y-99374679D01*
X141919000Y-99369600D01*
X141921000Y-99369600D01*
X142061585Y-99389813D01*
X142190780Y-99448814D01*
X142298119Y-99541824D01*
X142374906Y-99661308D01*
X142414921Y-99797585D01*
X142420000Y-99868600D01*
X142420000Y-100498910D01*
X142424563Y-100530646D01*
X142438030Y-100534600D01*
X142549310Y-100534600D01*
X142583553Y-100529677D01*
X142632777Y-100507197D01*
X142769054Y-100467183D01*
X142911084Y-100467183D01*
X143047361Y-100507198D01*
X143085347Y-100527940D01*
X143108030Y-100534600D01*
X143219310Y-100534600D01*
X143251046Y-100530037D01*
X143255000Y-100516570D01*
X143255000Y-100498910D01*
X144255000Y-100498910D01*
X144259563Y-100530646D01*
X144273030Y-100534600D01*
X144384310Y-100534600D01*
X144416046Y-100530037D01*
X144420000Y-100516570D01*
X144420000Y-100405290D01*
X144415437Y-100373554D01*
X144401970Y-100369600D01*
X144290690Y-100369600D01*
X144258954Y-100374163D01*
X144255000Y-100387630D01*
X144255000Y-100498910D01*
X143255000Y-100498910D01*
X143255000Y-99868600D01*
X143275213Y-99728015D01*
X143334214Y-99598820D01*
X143427224Y-99491481D01*
X143546708Y-99414694D01*
X143682985Y-99374679D01*
X143754000Y-99369600D01*
X144384310Y-99369600D01*
X144416046Y-99365037D01*
X144420000Y-99351570D01*
X144420000Y-99240290D01*
X144415077Y-99206047D01*
X144392597Y-99156823D01*
X144352583Y-99020546D01*
X144352583Y-98878516D01*
X144392598Y-98742239D01*
X144413340Y-98704253D01*
X144420000Y-98681570D01*
X144420000Y-98570290D01*
X144415437Y-98538554D01*
X144401970Y-98534600D01*
X143754000Y-98534600D01*
X143613415Y-98514387D01*
X143484220Y-98455386D01*
X143376881Y-98362376D01*
X143300094Y-98242892D01*
X143260079Y-98106615D01*
X143255000Y-98035600D01*
X143255000Y-98033600D01*
X143275213Y-97893015D01*
X143334214Y-97763820D01*
X143427224Y-97656481D01*
X143546708Y-97579694D01*
X143682985Y-97539679D01*
X143754000Y-97534600D01*
X144384310Y-97534600D01*
X144416046Y-97530037D01*
X144420000Y-97516570D01*
X144420000Y-97405290D01*
X144415077Y-97371047D01*
X144392597Y-97321823D01*
X144352583Y-97185546D01*
X144352583Y-97043516D01*
X144392598Y-96907239D01*
X144413340Y-96869253D01*
X144420000Y-96846570D01*
X144420000Y-96735290D01*
X144415437Y-96703554D01*
X144401970Y-96699600D01*
X143754000Y-96699600D01*
X143613415Y-96679387D01*
X143484220Y-96620386D01*
X143376881Y-96527376D01*
X143300094Y-96407892D01*
X143260079Y-96271615D01*
X143255000Y-96200600D01*
X143255000Y-95663910D01*
X144255000Y-95663910D01*
X144259563Y-95695646D01*
X144273030Y-95699600D01*
X144384310Y-95699600D01*
X144416046Y-95695037D01*
X144420000Y-95681570D01*
X144420000Y-95570290D01*
X144415437Y-95538554D01*
X144401970Y-95534600D01*
X144290690Y-95534600D01*
X144258954Y-95539163D01*
X144255000Y-95552630D01*
X144255000Y-95663910D01*
X143255000Y-95663910D01*
X143255000Y-95570290D01*
X143250437Y-95538554D01*
X143236970Y-95534600D01*
X143125690Y-95534600D01*
X143091447Y-95539523D01*
X143042223Y-95562003D01*
X142905946Y-95602017D01*
X142763916Y-95602017D01*
X142627639Y-95562002D01*
X142589653Y-95541260D01*
X142566970Y-95534600D01*
X142455690Y-95534600D01*
X142423954Y-95539163D01*
X142420000Y-95552630D01*
X142420000Y-96200600D01*
X142399787Y-96341185D01*
X142340786Y-96470380D01*
X142247776Y-96577719D01*
X142128292Y-96654506D01*
X141992015Y-96694521D01*
X141921000Y-96699600D01*
X141919000Y-96699600D01*
X141778415Y-96679387D01*
X141649220Y-96620386D01*
X141541881Y-96527376D01*
X141465094Y-96407892D01*
X141425079Y-96271615D01*
X141420000Y-96200600D01*
X141420000Y-95570290D01*
X141415437Y-95538554D01*
X141401970Y-95534600D01*
X141290690Y-95534600D01*
X141256447Y-95539523D01*
X141207223Y-95562003D01*
X141070946Y-95602017D01*
X140928916Y-95602017D01*
X140792639Y-95562002D01*
X140754653Y-95541260D01*
X140731970Y-95534600D01*
X140591079Y-95534600D01*
X140450494Y-95514387D01*
X140321299Y-95455386D01*
X140213960Y-95362376D01*
X140137173Y-95242892D01*
X140097158Y-95106615D01*
X140097158Y-94964585D01*
X140137173Y-94828308D01*
X140213960Y-94708824D01*
X140238233Y-94682754D01*
X142679433Y-92241554D01*
X142793134Y-92156438D01*
X142926209Y-92106804D01*
X143032279Y-92095400D01*
X146829053Y-92095400D01*
X146843570Y-92096411D01*
X146852154Y-92098897D01*
X146864234Y-92097851D01*
X146864237Y-92097851D01*
X146873907Y-92097013D01*
X146892533Y-92095400D01*
X146906090Y-92095400D01*
X146917874Y-92093205D01*
X146956259Y-92089881D01*
X146968898Y-92083703D01*
X146982728Y-92081127D01*
X146995386Y-92073325D01*
X146995686Y-92073201D01*
X147008787Y-92065983D01*
X147018072Y-92059665D01*
X147050138Y-92043991D01*
X147059705Y-92033678D01*
X147071682Y-92026295D01*
X147080687Y-92014453D01*
X147080920Y-92014232D01*
X147090541Y-92002787D01*
X147096929Y-91993549D01*
X147121203Y-91967382D01*
X147122838Y-91963282D01*
X147199870Y-91880240D01*
X147321885Y-91807542D01*
X147459438Y-91772165D01*
X147601387Y-91776974D01*
G37*
%TD.AperFunction*%
%TA.AperFunction,Conductor*%
G36*
X137250715Y-92115613D02*
G01*
X137379910Y-92174614D01*
X137487249Y-92267624D01*
X137564036Y-92387108D01*
X137604051Y-92523385D01*
X137604051Y-92665415D01*
X137564036Y-92801692D01*
X137487249Y-92921176D01*
X137390394Y-93005101D01*
X137382759Y-93008264D01*
X137356812Y-93028174D01*
X137356810Y-93028175D01*
X137285820Y-93082647D01*
X137257318Y-93104518D01*
X137161064Y-93229959D01*
X137100556Y-93376038D01*
X137079918Y-93532800D01*
X137084187Y-93565226D01*
X137095416Y-93650516D01*
X137100556Y-93689562D01*
X137113070Y-93719774D01*
X137113071Y-93719777D01*
X137148547Y-93805423D01*
X137161064Y-93835641D01*
X137257318Y-93961082D01*
X137268899Y-93969968D01*
X137344062Y-94070374D01*
X137393696Y-94203449D01*
X137405100Y-94309519D01*
X137405100Y-94606821D01*
X137384887Y-94747406D01*
X137325886Y-94876601D01*
X137232876Y-94983940D01*
X137113392Y-95060727D01*
X136977115Y-95100742D01*
X136835085Y-95100742D01*
X136698808Y-95060727D01*
X136579324Y-94983940D01*
X136553254Y-94959667D01*
X136035031Y-94441444D01*
X136026105Y-94430661D01*
X136016174Y-94420654D01*
X136015591Y-94419462D01*
X135987332Y-94393248D01*
X135985105Y-94391103D01*
X135984286Y-94390423D01*
X135980785Y-94387175D01*
X135979169Y-94385386D01*
X135973847Y-94380260D01*
X135966395Y-94372808D01*
X135962181Y-94369917D01*
X135938982Y-94348397D01*
X135919453Y-94340606D01*
X135902111Y-94328709D01*
X135878515Y-94323110D01*
X135875437Y-94322379D01*
X135875431Y-94322378D01*
X135871318Y-94321402D01*
X135841927Y-94309676D01*
X135836053Y-94309100D01*
X135819478Y-94309100D01*
X135809662Y-94306771D01*
X135808312Y-94306450D01*
X135808311Y-94306450D01*
X135800439Y-94304582D01*
X135781535Y-94307155D01*
X135774531Y-94307339D01*
X135773332Y-94307231D01*
X135733574Y-94309100D01*
X133529174Y-94309100D01*
X133388589Y-94288887D01*
X133259394Y-94229886D01*
X133152055Y-94136876D01*
X133100033Y-94064735D01*
X133099286Y-94063476D01*
X133098867Y-94061369D01*
X133054552Y-93995048D01*
X133037615Y-93983731D01*
X132958869Y-93865883D01*
X132916426Y-93730342D01*
X132910000Y-93650516D01*
X132910000Y-92905290D01*
X132905076Y-92871045D01*
X132878848Y-92813613D01*
X132871174Y-92801670D01*
X132831166Y-92665391D01*
X132831173Y-92523361D01*
X132871194Y-92387086D01*
X132947987Y-92267606D01*
X133055330Y-92174602D01*
X133184528Y-92115606D01*
X133325090Y-92095400D01*
X137110130Y-92095400D01*
X137250715Y-92115613D01*
G37*
%TD.AperFunction*%
%TA.AperFunction,Conductor*%
G36*
X141193406Y-67016813D02*
G01*
X141322601Y-67075814D01*
X141429940Y-67168824D01*
X141506727Y-67288308D01*
X141546742Y-67424585D01*
X141546742Y-67566615D01*
X141506727Y-67702892D01*
X141429940Y-67822376D01*
X141405667Y-67848446D01*
X139367492Y-69886621D01*
X139253791Y-69971737D01*
X139120716Y-70021371D01*
X138979048Y-70031504D01*
X138866428Y-70007472D01*
X138866096Y-70008711D01*
X138646292Y-69949815D01*
X138624592Y-69947916D01*
X138624589Y-69947916D01*
X138441306Y-69931881D01*
X138419600Y-69929982D01*
X138397894Y-69931881D01*
X138214611Y-69947916D01*
X138214608Y-69947916D01*
X138192908Y-69949815D01*
X137973104Y-70008711D01*
X137766866Y-70104882D01*
X137580461Y-70235403D01*
X137419553Y-70396311D01*
X137289032Y-70582716D01*
X137192861Y-70788954D01*
X137133965Y-71008758D01*
X137132066Y-71030458D01*
X137132066Y-71030461D01*
X137125298Y-71107818D01*
X137114132Y-71235450D01*
X137116031Y-71257156D01*
X137127255Y-71385442D01*
X137133965Y-71462142D01*
X137192861Y-71681946D01*
X137289032Y-71888184D01*
X137419553Y-72074589D01*
X137580461Y-72235497D01*
X137598305Y-72247992D01*
X137598307Y-72247993D01*
X137644153Y-72280094D01*
X137766866Y-72366018D01*
X137973104Y-72462189D01*
X138192908Y-72521085D01*
X138214608Y-72522984D01*
X138214611Y-72522984D01*
X138397894Y-72539019D01*
X138419600Y-72540918D01*
X138441306Y-72539019D01*
X138624589Y-72522984D01*
X138624592Y-72522984D01*
X138646292Y-72521085D01*
X138866096Y-72462189D01*
X139072334Y-72366018D01*
X139195047Y-72280094D01*
X139240893Y-72247993D01*
X139240895Y-72247992D01*
X139258739Y-72235497D01*
X139419647Y-72074589D01*
X139550168Y-71888184D01*
X139646339Y-71681946D01*
X139705235Y-71462142D01*
X139711946Y-71385442D01*
X139723169Y-71257156D01*
X139725068Y-71235450D01*
X139713902Y-71107818D01*
X139707134Y-71030461D01*
X139707134Y-71030458D01*
X139705235Y-71008758D01*
X139656514Y-70826928D01*
X139651977Y-70809994D01*
X139651976Y-70809990D01*
X139646339Y-70788954D01*
X139646753Y-70788843D01*
X139621011Y-70665816D01*
X139632269Y-70524232D01*
X139682959Y-70391556D01*
X139766161Y-70281326D01*
X140077262Y-69970225D01*
X140190963Y-69885109D01*
X140324038Y-69835475D01*
X140465706Y-69825342D01*
X140604491Y-69855533D01*
X140729148Y-69923601D01*
X140829578Y-70024031D01*
X140897646Y-70148688D01*
X140927837Y-70287473D01*
X140929108Y-70323071D01*
X140929108Y-72355198D01*
X140940741Y-72413681D01*
X140985056Y-72480002D01*
X141051377Y-72524317D01*
X141071521Y-72528324D01*
X141077615Y-72529536D01*
X141109860Y-72535950D01*
X143349356Y-72535950D01*
X143407839Y-72524317D01*
X143474160Y-72480002D01*
X143486063Y-72462189D01*
X143498645Y-72443358D01*
X143518475Y-72413681D01*
X143530108Y-72355198D01*
X143530108Y-70115702D01*
X143518475Y-70057219D01*
X143474160Y-69990898D01*
X143407839Y-69946583D01*
X143387695Y-69942576D01*
X143381601Y-69941364D01*
X143349356Y-69934950D01*
X141317229Y-69934950D01*
X141176644Y-69914737D01*
X141047449Y-69855736D01*
X140940110Y-69762726D01*
X140863323Y-69643242D01*
X140823308Y-69506965D01*
X140823308Y-69364935D01*
X140863323Y-69228658D01*
X140940110Y-69109174D01*
X140964383Y-69083104D01*
X141698033Y-68349454D01*
X141811734Y-68264338D01*
X141944809Y-68214704D01*
X142050879Y-68203300D01*
X153507100Y-68203300D01*
X153647685Y-68223513D01*
X153776880Y-68282514D01*
X153884219Y-68375524D01*
X153961006Y-68495008D01*
X154001021Y-68631285D01*
X154006100Y-68702300D01*
X154006100Y-70313348D01*
X154017733Y-70371831D01*
X154062048Y-70438152D01*
X154128369Y-70482467D01*
X154148513Y-70486474D01*
X154162804Y-70489317D01*
X154162808Y-70489317D01*
X154186852Y-70494100D01*
X154199437Y-70494100D01*
X154329380Y-70526033D01*
X154452170Y-70597412D01*
X154549877Y-70700495D01*
X154614584Y-70826928D01*
X154641050Y-70966471D01*
X154627130Y-71107818D01*
X154573952Y-71239517D01*
X154476448Y-71359561D01*
X154467207Y-71367882D01*
X154382640Y-71461804D01*
X154372259Y-71476091D01*
X154370675Y-71480046D01*
X154385318Y-71483600D01*
X155713730Y-71483600D01*
X155742895Y-71479407D01*
X155742586Y-71478355D01*
X155730560Y-71461804D01*
X155645993Y-71367882D01*
X155636752Y-71359561D01*
X155545804Y-71250470D01*
X155489275Y-71120174D01*
X155471744Y-70979230D01*
X155494631Y-70839056D01*
X155556083Y-70711008D01*
X155651121Y-70605460D01*
X155772046Y-70530963D01*
X155914182Y-70494100D01*
X155926348Y-70494100D01*
X155984831Y-70482467D01*
X156051152Y-70438152D01*
X156062563Y-70421075D01*
X156075639Y-70401506D01*
X156075640Y-70401503D01*
X156095467Y-70371831D01*
X156099474Y-70351688D01*
X156106867Y-70336235D01*
X156185775Y-70218141D01*
X156294758Y-70127063D01*
X156424986Y-70070377D01*
X156565909Y-70052678D01*
X156706111Y-70075397D01*
X156834232Y-70136696D01*
X156939893Y-70231608D01*
X157014535Y-70352443D01*
X157052110Y-70489413D01*
X157056000Y-70551598D01*
X157056000Y-74132006D01*
X157035787Y-74272591D01*
X156976786Y-74401786D01*
X156883776Y-74509125D01*
X156854784Y-74527757D01*
X156896970Y-74557038D01*
X156986107Y-74667614D01*
X157040480Y-74798825D01*
X157056000Y-74922307D01*
X157056000Y-76672006D01*
X157035787Y-76812591D01*
X156976786Y-76941786D01*
X156883776Y-77049125D01*
X156854784Y-77067757D01*
X156896970Y-77097038D01*
X156986107Y-77207614D01*
X157040480Y-77338825D01*
X157056000Y-77462307D01*
X157056000Y-79212006D01*
X157035787Y-79352591D01*
X156976786Y-79481786D01*
X156883776Y-79589125D01*
X156854784Y-79607757D01*
X156896970Y-79637038D01*
X156986107Y-79747614D01*
X157040480Y-79878825D01*
X157056000Y-80002307D01*
X157056000Y-81752006D01*
X157035787Y-81892591D01*
X156976786Y-82021786D01*
X156883776Y-82129125D01*
X156854784Y-82147757D01*
X156896970Y-82177038D01*
X156986107Y-82287614D01*
X157040480Y-82418825D01*
X157056000Y-82542307D01*
X157056000Y-83343697D01*
X157055888Y-83345973D01*
X157050857Y-83367852D01*
X157054108Y-83382217D01*
X157053597Y-83392610D01*
X157045445Y-83475374D01*
X157026361Y-83571313D01*
X157009369Y-83627328D01*
X156971936Y-83717701D01*
X156944590Y-83768863D01*
X156944347Y-83769317D01*
X156890002Y-83850651D01*
X156852867Y-83895901D01*
X156783691Y-83965077D01*
X156738441Y-84002212D01*
X156657110Y-84056555D01*
X156624164Y-84074165D01*
X156605491Y-84084146D01*
X156515116Y-84121580D01*
X156459100Y-84138572D01*
X156363163Y-84157655D01*
X156317680Y-84162135D01*
X156301586Y-84163720D01*
X156260533Y-84164027D01*
X156256358Y-84163067D01*
X156250410Y-84164413D01*
X156196661Y-84168210D01*
X155343204Y-84168210D01*
X155202619Y-84147997D01*
X155073424Y-84088996D01*
X155056308Y-84074165D01*
X154940377Y-84137134D01*
X154801526Y-84167016D01*
X154767032Y-84168210D01*
X151802090Y-84168210D01*
X151771276Y-84166443D01*
X151756716Y-84163068D01*
X151756000Y-84163067D01*
X151747242Y-84165064D01*
X151746396Y-84165016D01*
X151746415Y-84165253D01*
X151587234Y-84177781D01*
X151587229Y-84177782D01*
X151567698Y-84179319D01*
X151548643Y-84183894D01*
X151548635Y-84183895D01*
X151499221Y-84195758D01*
X151357802Y-84208922D01*
X151218403Y-84181710D01*
X151092317Y-84116327D01*
X150989759Y-84018070D01*
X150919037Y-83894899D01*
X150885882Y-83756793D01*
X150892978Y-83614940D01*
X150939752Y-83480833D01*
X151029888Y-83357699D01*
X152447756Y-81939831D01*
X152458539Y-81930905D01*
X152468546Y-81920974D01*
X152469738Y-81920391D01*
X152495952Y-81892132D01*
X152498097Y-81889905D01*
X152498777Y-81889086D01*
X152502025Y-81885585D01*
X152503814Y-81883969D01*
X152508940Y-81878647D01*
X152516392Y-81871195D01*
X152519283Y-81866981D01*
X152540803Y-81843782D01*
X152548594Y-81824253D01*
X152560491Y-81806911D01*
X152567799Y-81776116D01*
X152579524Y-81746727D01*
X152580100Y-81740853D01*
X152580100Y-81724281D01*
X152584619Y-81705239D01*
X152584777Y-81705277D01*
X152585331Y-81701933D01*
X152591290Y-81677444D01*
X152592725Y-81677793D01*
X152606224Y-81608225D01*
X152671463Y-81482065D01*
X152769604Y-81379396D01*
X152892694Y-81308534D01*
X153030762Y-81275222D01*
X153172623Y-81282157D01*
X153306784Y-81328778D01*
X153422375Y-81411308D01*
X153435192Y-81425595D01*
X153435280Y-81425507D01*
X153458409Y-81448636D01*
X153478318Y-81474582D01*
X153504264Y-81494491D01*
X153564269Y-81540534D01*
X153603759Y-81570836D01*
X153633975Y-81583352D01*
X153633977Y-81583353D01*
X153696524Y-81609261D01*
X153818672Y-81681736D01*
X153915453Y-81785688D01*
X153979027Y-81912695D01*
X154004244Y-82052469D01*
X154003192Y-82080193D01*
X154004181Y-82080207D01*
X154003840Y-82104611D01*
X154001120Y-82128862D01*
X154018359Y-82334153D01*
X154075144Y-82532186D01*
X154169312Y-82715418D01*
X154297277Y-82876870D01*
X154454164Y-83010391D01*
X154475463Y-83022295D01*
X154475465Y-83022296D01*
X154607311Y-83095982D01*
X154633998Y-83110897D01*
X154657209Y-83118439D01*
X154657212Y-83118440D01*
X154806714Y-83167016D01*
X154829929Y-83174559D01*
X154854168Y-83177449D01*
X154874184Y-83181850D01*
X155007148Y-83231780D01*
X155053530Y-83266662D01*
X155073424Y-83249424D01*
X155202619Y-83190423D01*
X155230651Y-83183858D01*
X155239900Y-83183146D01*
X155349630Y-83152509D01*
X155414813Y-83134310D01*
X155414816Y-83134309D01*
X155438325Y-83127745D01*
X155481203Y-83106086D01*
X155600425Y-83045863D01*
X155600430Y-83045860D01*
X155622210Y-83034858D01*
X155694136Y-82978664D01*
X155732986Y-82948311D01*
X155784551Y-82908024D01*
X155808192Y-82880636D01*
X155903216Y-82770548D01*
X155919164Y-82752072D01*
X156020923Y-82572944D01*
X156083511Y-82384798D01*
X156147066Y-82257781D01*
X156243832Y-82153814D01*
X156256729Y-82146159D01*
X156230224Y-82129125D01*
X156137214Y-82021786D01*
X156079298Y-81896234D01*
X156039590Y-81764717D01*
X156032535Y-81741349D01*
X155962303Y-81609261D01*
X155947276Y-81580998D01*
X155947274Y-81580996D01*
X155935818Y-81559449D01*
X155920395Y-81540539D01*
X155920392Y-81540534D01*
X155826577Y-81425507D01*
X155805611Y-81399800D01*
X155646875Y-81268482D01*
X155648011Y-81267108D01*
X155564397Y-81191337D01*
X155490284Y-81070176D01*
X155453309Y-80933043D01*
X155456467Y-80791048D01*
X155499501Y-80655694D01*
X155578926Y-80537947D01*
X155641473Y-80479808D01*
X155646756Y-80475681D01*
X155784551Y-80368024D01*
X155919164Y-80212072D01*
X156020923Y-80032944D01*
X156083511Y-79844798D01*
X156147066Y-79717781D01*
X156243832Y-79613814D01*
X156256729Y-79606159D01*
X156230224Y-79589125D01*
X156137214Y-79481786D01*
X156079298Y-79356234D01*
X156063906Y-79305253D01*
X156032535Y-79201349D01*
X155935818Y-79019449D01*
X155920395Y-79000539D01*
X155920392Y-79000534D01*
X155846145Y-78909500D01*
X155805611Y-78859800D01*
X155646875Y-78728482D01*
X155648011Y-78727108D01*
X155564397Y-78651337D01*
X155490284Y-78530176D01*
X155453309Y-78393043D01*
X155456467Y-78251048D01*
X155499501Y-78115694D01*
X155578926Y-77997947D01*
X155641473Y-77939808D01*
X155683493Y-77906979D01*
X155784551Y-77828024D01*
X155813075Y-77794979D01*
X155903216Y-77690548D01*
X155919164Y-77672072D01*
X156020923Y-77492944D01*
X156083511Y-77304798D01*
X156147066Y-77177781D01*
X156243832Y-77073814D01*
X156256729Y-77066159D01*
X156230224Y-77049125D01*
X156137214Y-76941786D01*
X156079298Y-76816234D01*
X156039590Y-76684717D01*
X156032535Y-76661349D01*
X155935818Y-76479449D01*
X155920395Y-76460539D01*
X155920392Y-76460534D01*
X155821034Y-76338711D01*
X155805611Y-76319800D01*
X155646875Y-76188482D01*
X155648011Y-76187108D01*
X155564397Y-76111337D01*
X155490284Y-75990176D01*
X155453309Y-75853043D01*
X155456467Y-75711048D01*
X155499501Y-75575694D01*
X155578926Y-75457947D01*
X155641473Y-75399808D01*
X155653527Y-75390391D01*
X155784551Y-75288024D01*
X155919164Y-75132072D01*
X156020923Y-74952944D01*
X156083511Y-74764798D01*
X156147066Y-74637781D01*
X156243832Y-74533814D01*
X156256729Y-74526159D01*
X156230224Y-74509125D01*
X156137214Y-74401786D01*
X156079298Y-74276234D01*
X156039590Y-74144717D01*
X156032535Y-74121349D01*
X155935818Y-73939449D01*
X155920395Y-73920539D01*
X155920392Y-73920534D01*
X155821034Y-73798711D01*
X155805611Y-73779800D01*
X155646875Y-73648482D01*
X155625409Y-73636876D01*
X155625404Y-73636872D01*
X155518243Y-73578931D01*
X155404192Y-73494286D01*
X155318607Y-73380938D01*
X155268424Y-73248068D01*
X155257707Y-73106443D01*
X155287324Y-72967535D01*
X155354877Y-72842598D01*
X155454892Y-72741754D01*
X155503795Y-72709352D01*
X155607339Y-72634123D01*
X155645992Y-72599320D01*
X155730560Y-72505396D01*
X155740941Y-72491109D01*
X155742525Y-72487154D01*
X155727882Y-72483600D01*
X154399470Y-72483600D01*
X154370305Y-72487793D01*
X154370614Y-72488845D01*
X154382640Y-72505396D01*
X154467208Y-72599320D01*
X154505861Y-72634123D01*
X154629259Y-72723776D01*
X154628623Y-72724651D01*
X154719232Y-72795907D01*
X154801617Y-72911603D01*
X154848069Y-73045822D01*
X154854826Y-73187691D01*
X154821340Y-73325717D01*
X154750324Y-73448719D01*
X154647531Y-73546730D01*
X154589271Y-73582469D01*
X154500229Y-73629019D01*
X154500224Y-73629022D01*
X154478602Y-73640326D01*
X154318047Y-73769415D01*
X154302365Y-73788104D01*
X154302361Y-73788108D01*
X154222164Y-73883683D01*
X154185624Y-73927230D01*
X154086376Y-74107762D01*
X154053626Y-74211003D01*
X154032934Y-74276234D01*
X154024084Y-74304132D01*
X154001120Y-74508862D01*
X154018359Y-74714153D01*
X154075144Y-74912186D01*
X154169312Y-75095418D01*
X154253457Y-75201583D01*
X154324936Y-75324306D01*
X154358947Y-75462204D01*
X154352730Y-75604098D01*
X154306788Y-75738493D01*
X154215237Y-75864376D01*
X152231816Y-77847797D01*
X152118115Y-77932913D01*
X151985040Y-77982547D01*
X151843372Y-77992680D01*
X151704587Y-77962489D01*
X151579930Y-77894421D01*
X151479500Y-77793991D01*
X151411432Y-77669334D01*
X151398016Y-77623793D01*
X151396401Y-77606700D01*
X151352761Y-77482432D01*
X151329367Y-77450759D01*
X151296670Y-77406490D01*
X151274511Y-77376489D01*
X151244510Y-77354330D01*
X151239526Y-77349346D01*
X151154410Y-77235645D01*
X151104776Y-77102570D01*
X151094643Y-76960902D01*
X151124834Y-76822117D01*
X151151235Y-76770527D01*
X151149790Y-76769836D01*
X151189026Y-76687827D01*
X151194019Y-76662730D01*
X151198800Y-76614182D01*
X151198800Y-76141418D01*
X151194019Y-76092870D01*
X151191982Y-76082633D01*
X151173610Y-76030556D01*
X151152355Y-75998745D01*
X151115452Y-75957662D01*
X151083640Y-75936406D01*
X151033827Y-75912574D01*
X151008730Y-75907581D01*
X150960182Y-75902800D01*
X150387418Y-75902800D01*
X150338870Y-75907581D01*
X150328633Y-75909618D01*
X150276556Y-75927990D01*
X150218716Y-75966637D01*
X150090594Y-76027935D01*
X149950392Y-76050654D01*
X149809470Y-76032953D01*
X149679242Y-75976266D01*
X149570260Y-75885187D01*
X149550364Y-75860784D01*
X149546670Y-75857090D01*
X149524511Y-75827089D01*
X149418568Y-75748839D01*
X149294300Y-75705199D01*
X149263633Y-75702300D01*
X149251869Y-75702300D01*
X148923540Y-75702301D01*
X148583968Y-75702301D01*
X148553300Y-75705199D01*
X148429032Y-75748839D01*
X148323089Y-75827089D01*
X148300930Y-75857090D01*
X148269303Y-75899910D01*
X148244839Y-75933032D01*
X148201199Y-76057300D01*
X148198300Y-76087967D01*
X148198301Y-76667632D01*
X148201199Y-76698300D01*
X148244839Y-76822568D01*
X148267001Y-76852573D01*
X148269557Y-76856034D01*
X148336822Y-76981126D01*
X148366120Y-77120102D01*
X148355077Y-77261702D01*
X148304589Y-77394456D01*
X148269557Y-77448966D01*
X148268360Y-77450587D01*
X148244839Y-77482432D01*
X148201199Y-77606700D01*
X148198300Y-77637367D01*
X148198301Y-78217032D01*
X148201199Y-78247700D01*
X148244839Y-78371968D01*
X148267000Y-78401972D01*
X148274908Y-78412678D01*
X148323089Y-78477911D01*
X148429032Y-78556161D01*
X148553300Y-78599801D01*
X148583967Y-78602700D01*
X148687229Y-78602700D01*
X148827814Y-78622913D01*
X148957009Y-78681914D01*
X149064348Y-78774924D01*
X149141135Y-78894408D01*
X149152020Y-78924686D01*
X149152056Y-78924962D01*
X149152533Y-78926113D01*
X149152536Y-78926122D01*
X149191194Y-79019449D01*
X149212564Y-79071041D01*
X149232474Y-79096988D01*
X149232475Y-79096990D01*
X149286947Y-79167980D01*
X149308818Y-79196482D01*
X149434259Y-79292736D01*
X149464475Y-79305252D01*
X149464477Y-79305253D01*
X149550123Y-79340729D01*
X149550126Y-79340730D01*
X149580338Y-79353244D01*
X149612762Y-79357513D01*
X149612763Y-79357513D01*
X149704674Y-79369613D01*
X149737100Y-79373882D01*
X149769526Y-79369613D01*
X149861437Y-79357513D01*
X149861438Y-79357513D01*
X149893862Y-79353244D01*
X149924074Y-79340730D01*
X149924077Y-79340729D01*
X150009723Y-79305253D01*
X150009725Y-79305252D01*
X150039941Y-79292736D01*
X150165382Y-79196482D01*
X150187253Y-79167980D01*
X150241725Y-79096990D01*
X150241726Y-79096988D01*
X150261636Y-79071041D01*
X150288068Y-79007230D01*
X150322144Y-78924962D01*
X150324868Y-78926090D01*
X150360888Y-78841979D01*
X150451319Y-78732458D01*
X150568942Y-78652851D01*
X150704229Y-78609607D01*
X150786967Y-78602699D01*
X151013632Y-78602699D01*
X151044300Y-78599801D01*
X151168568Y-78556161D01*
X151223634Y-78515489D01*
X151348726Y-78448224D01*
X151487702Y-78418926D01*
X151629302Y-78429969D01*
X151762055Y-78480457D01*
X151875207Y-78566302D01*
X151959590Y-78680548D01*
X152008368Y-78813939D01*
X152019100Y-78916873D01*
X152019100Y-81368421D01*
X151998887Y-81509006D01*
X151939886Y-81638201D01*
X151872946Y-81721267D01*
X150038852Y-83555361D01*
X149925151Y-83640477D01*
X149792076Y-83690111D01*
X149650408Y-83700244D01*
X149572262Y-83687578D01*
X149572231Y-83687734D01*
X149559126Y-83685127D01*
X149559121Y-83685126D01*
X149541961Y-83681713D01*
X149513748Y-83676101D01*
X148347681Y-83676101D01*
X148207096Y-83655888D01*
X148077901Y-83596887D01*
X147970562Y-83503877D01*
X147893775Y-83384393D01*
X147853760Y-83248116D01*
X147853760Y-83106086D01*
X147893775Y-82969809D01*
X147946297Y-82880636D01*
X147952397Y-82872377D01*
X147952399Y-82872373D01*
X147974561Y-82842368D01*
X148018201Y-82718100D01*
X148021100Y-82687433D01*
X148021099Y-82107768D01*
X148018201Y-82077100D01*
X147974561Y-81952832D01*
X147952400Y-81922828D01*
X147918470Y-81876890D01*
X147896311Y-81846889D01*
X147790368Y-81768639D01*
X147666100Y-81724999D01*
X147635433Y-81722100D01*
X147601448Y-81722100D01*
X147210979Y-81722101D01*
X147070397Y-81701888D01*
X146941201Y-81642887D01*
X146858134Y-81575947D01*
X145270631Y-79988444D01*
X145261705Y-79977661D01*
X145251774Y-79967654D01*
X145251191Y-79966462D01*
X145222932Y-79940248D01*
X145220705Y-79938103D01*
X145219886Y-79937423D01*
X145216385Y-79934175D01*
X145214769Y-79932386D01*
X145209447Y-79927260D01*
X145201995Y-79919808D01*
X145197781Y-79916917D01*
X145174582Y-79895397D01*
X145155053Y-79887606D01*
X145137711Y-79875709D01*
X145106918Y-79868402D01*
X145077527Y-79856676D01*
X145071653Y-79856100D01*
X145071457Y-79856100D01*
X144966203Y-79813886D01*
X144854614Y-79726020D01*
X144772301Y-79610274D01*
X144733338Y-79505326D01*
X144733285Y-79505029D01*
X144728906Y-79490661D01*
X144728904Y-79490653D01*
X144642738Y-79207939D01*
X144638356Y-79193561D01*
X144632278Y-79179812D01*
X144512775Y-78909500D01*
X144512771Y-78909493D01*
X144506697Y-78895753D01*
X144340214Y-78615919D01*
X144141318Y-78358113D01*
X143912890Y-78126069D01*
X143658240Y-77923148D01*
X143639511Y-77911603D01*
X143515826Y-77835363D01*
X143381056Y-77752290D01*
X143367409Y-77745998D01*
X143367404Y-77745996D01*
X143099013Y-77622266D01*
X143099008Y-77622264D01*
X143085353Y-77615969D01*
X143039985Y-77601359D01*
X142789727Y-77520769D01*
X142789729Y-77520769D01*
X142775415Y-77516160D01*
X142760656Y-77513304D01*
X142760654Y-77513304D01*
X142470484Y-77457163D01*
X142470475Y-77457162D01*
X142455730Y-77454309D01*
X142198554Y-77436100D01*
X140008777Y-77436100D01*
X139991312Y-77435677D01*
X139979061Y-77434340D01*
X139832218Y-77436066D01*
X139826353Y-77436100D01*
X139766126Y-77436100D01*
X139758610Y-77436553D01*
X139751117Y-77436779D01*
X139751115Y-77436719D01*
X139738736Y-77437165D01*
X139668491Y-77437990D01*
X139668483Y-77437991D01*
X139653470Y-77438167D01*
X139606249Y-77444445D01*
X139570521Y-77447893D01*
X139522977Y-77450759D01*
X139508193Y-77453459D01*
X139439096Y-77466078D01*
X139415214Y-77469844D01*
X139345603Y-77479099D01*
X139345599Y-77479100D01*
X139330698Y-77481081D01*
X139316146Y-77484837D01*
X139316142Y-77484838D01*
X139302293Y-77488413D01*
X139284581Y-77492985D01*
X139249518Y-77500701D01*
X139202663Y-77509258D01*
X139188310Y-77513715D01*
X139188305Y-77513716D01*
X139121230Y-77534544D01*
X139097966Y-77541154D01*
X139015419Y-77562461D01*
X138971060Y-77579822D01*
X138937174Y-77591695D01*
X138906049Y-77601359D01*
X138906044Y-77601361D01*
X138891696Y-77605816D01*
X138877992Y-77611961D01*
X138877983Y-77611964D01*
X138813892Y-77640701D01*
X138791589Y-77650059D01*
X138775574Y-77656326D01*
X138712200Y-77681128D01*
X138698965Y-77688246D01*
X138698957Y-77688250D01*
X138670249Y-77703690D01*
X138638046Y-77719545D01*
X138594582Y-77739033D01*
X138581707Y-77746784D01*
X138581702Y-77746787D01*
X138521529Y-77783014D01*
X138500519Y-77794979D01*
X138473433Y-77809547D01*
X138425434Y-77835363D01*
X138413149Y-77844021D01*
X138413145Y-77844023D01*
X138386500Y-77862800D01*
X138356432Y-77882410D01*
X138328864Y-77899008D01*
X138315624Y-77906979D01*
X138303772Y-77916223D01*
X138303768Y-77916225D01*
X138248404Y-77959403D01*
X138228980Y-77973809D01*
X138171561Y-78014273D01*
X138171557Y-78014276D01*
X138159273Y-78022933D01*
X138123899Y-78054867D01*
X138096409Y-78077942D01*
X138058863Y-78107223D01*
X138048208Y-78117823D01*
X138048204Y-78117826D01*
X137998432Y-78167339D01*
X137980871Y-78183981D01*
X137974445Y-78189781D01*
X137974428Y-78189797D01*
X137967897Y-78195693D01*
X137927023Y-78238203D01*
X137919345Y-78246013D01*
X137828018Y-78336862D01*
X137818719Y-78348657D01*
X137818716Y-78348661D01*
X137800218Y-78372126D01*
X137788232Y-78386750D01*
X137661681Y-78535308D01*
X137584805Y-78651337D01*
X137502921Y-78774924D01*
X137481836Y-78806747D01*
X137475102Y-78820179D01*
X137342643Y-79084386D01*
X137342640Y-79084394D01*
X137335905Y-79097827D01*
X137225999Y-79404331D01*
X137204586Y-79498378D01*
X137167241Y-79662400D01*
X137153712Y-79721818D01*
X137120092Y-80045690D01*
X137125622Y-80371256D01*
X137170225Y-80693799D01*
X137174056Y-80708326D01*
X137174057Y-80708331D01*
X137193868Y-80783453D01*
X137253256Y-81008647D01*
X137258801Y-81022600D01*
X137258802Y-81022603D01*
X137367958Y-81297276D01*
X137367962Y-81297285D01*
X137373508Y-81311240D01*
X137380694Y-81324434D01*
X137380695Y-81324437D01*
X137413268Y-81384246D01*
X137529243Y-81597196D01*
X137537969Y-81609442D01*
X137537970Y-81609443D01*
X137689784Y-81822487D01*
X137718204Y-81862370D01*
X137728330Y-81873470D01*
X137728331Y-81873471D01*
X137795357Y-81946942D01*
X137937653Y-82102922D01*
X138021626Y-82175218D01*
X138071521Y-82218175D01*
X138164872Y-82325218D01*
X138224285Y-82454225D01*
X138244945Y-82594744D01*
X138225180Y-82735392D01*
X138166590Y-82864775D01*
X138106768Y-82939251D01*
X138089218Y-82952718D01*
X138069309Y-82978664D01*
X138017746Y-83045863D01*
X137992964Y-83078159D01*
X137980448Y-83108375D01*
X137980447Y-83108377D01*
X137966213Y-83142741D01*
X137893738Y-83264889D01*
X137789786Y-83361670D01*
X137662779Y-83425244D01*
X137523005Y-83450461D01*
X137381789Y-83435278D01*
X137250570Y-83380924D01*
X137158711Y-83309565D01*
X137143482Y-83289718D01*
X137089265Y-83248116D01*
X137043990Y-83213375D01*
X137043988Y-83213374D01*
X137018041Y-83193464D01*
X136987825Y-83180948D01*
X136987823Y-83180947D01*
X136902177Y-83145471D01*
X136902174Y-83145470D01*
X136871962Y-83132956D01*
X136839538Y-83128687D01*
X136839537Y-83128687D01*
X136747626Y-83116587D01*
X136715200Y-83112318D01*
X136682774Y-83116587D01*
X136590863Y-83128687D01*
X136590862Y-83128687D01*
X136558438Y-83132956D01*
X136528226Y-83145470D01*
X136528223Y-83145471D01*
X136442577Y-83180947D01*
X136442575Y-83180948D01*
X136412359Y-83193464D01*
X136386412Y-83213374D01*
X136386410Y-83213375D01*
X136341135Y-83248116D01*
X136286918Y-83289718D01*
X136267009Y-83315664D01*
X136251065Y-83331608D01*
X136137364Y-83416724D01*
X136004289Y-83466358D01*
X135957414Y-83473594D01*
X135949267Y-83474300D01*
X135935710Y-83474300D01*
X135923926Y-83476495D01*
X135885541Y-83479819D01*
X135872902Y-83485997D01*
X135859072Y-83488573D01*
X135846414Y-83496375D01*
X135846114Y-83496499D01*
X135833013Y-83503717D01*
X135823728Y-83510035D01*
X135791662Y-83525709D01*
X135782095Y-83536022D01*
X135770118Y-83543405D01*
X135761113Y-83555247D01*
X135760880Y-83555468D01*
X135751258Y-83566914D01*
X135744869Y-83576153D01*
X135720597Y-83602318D01*
X135716699Y-83612090D01*
X135714364Y-83614607D01*
X135715385Y-83615383D01*
X135706868Y-83626583D01*
X135704749Y-83624972D01*
X135700464Y-83629592D01*
X135653675Y-83691115D01*
X135539331Y-83775365D01*
X135405883Y-83823987D01*
X135303517Y-83834600D01*
X135092052Y-83834600D01*
X135068012Y-83839382D01*
X135043612Y-83841785D01*
X135043275Y-83838362D01*
X134942335Y-83843775D01*
X134925243Y-83841318D01*
X134905590Y-83839382D01*
X134881548Y-83834600D01*
X134442052Y-83834600D01*
X134383569Y-83846233D01*
X134317248Y-83890548D01*
X134310219Y-83901067D01*
X134203520Y-83972363D01*
X134067979Y-84014804D01*
X133925971Y-84017340D01*
X133789001Y-83979765D01*
X133754662Y-83963231D01*
X133738172Y-83954500D01*
X133708168Y-83932339D01*
X133583900Y-83888699D01*
X133553233Y-83885800D01*
X133541469Y-83885800D01*
X133263179Y-83885801D01*
X132973568Y-83885801D01*
X132942900Y-83888699D01*
X132818632Y-83932339D01*
X132788628Y-83954500D01*
X132752524Y-83981167D01*
X132712689Y-84010589D01*
X132690530Y-84040590D01*
X132658359Y-84084146D01*
X132634439Y-84116532D01*
X132590799Y-84240800D01*
X132587900Y-84271467D01*
X132587901Y-84876132D01*
X132590799Y-84906800D01*
X132634439Y-85031068D01*
X132656600Y-85061072D01*
X132684149Y-85098370D01*
X132712689Y-85137011D01*
X132728229Y-85148489D01*
X132802090Y-85247155D01*
X132851724Y-85380230D01*
X132861857Y-85521898D01*
X132831666Y-85660683D01*
X132763598Y-85785340D01*
X132733154Y-85820473D01*
X132712689Y-85835589D01*
X132634439Y-85941532D01*
X132590799Y-86065800D01*
X132587900Y-86096467D01*
X132587901Y-86382071D01*
X132587901Y-86470919D01*
X132567688Y-86611503D01*
X132508687Y-86740699D01*
X132441747Y-86823766D01*
X132031444Y-87234069D01*
X132020661Y-87242995D01*
X132010654Y-87252926D01*
X132009462Y-87253509D01*
X132002450Y-87261068D01*
X132002447Y-87261071D01*
X131983249Y-87281767D01*
X131981103Y-87283995D01*
X131980423Y-87284814D01*
X131977175Y-87288315D01*
X131975386Y-87289931D01*
X131970260Y-87295253D01*
X131962808Y-87302705D01*
X131959917Y-87306919D01*
X131938397Y-87330118D01*
X131930606Y-87349647D01*
X131918709Y-87366989D01*
X131911402Y-87397782D01*
X131899676Y-87427173D01*
X131899100Y-87433047D01*
X131899100Y-87449622D01*
X131894582Y-87468661D01*
X131897155Y-87487565D01*
X131897339Y-87494569D01*
X131897231Y-87495768D01*
X131899100Y-87535526D01*
X131899100Y-91593324D01*
X131897786Y-91607269D01*
X131897732Y-91621361D01*
X131897302Y-91622614D01*
X131897688Y-91632895D01*
X131897688Y-91632903D01*
X131898749Y-91661149D01*
X131898806Y-91664208D01*
X131898903Y-91665262D01*
X131899082Y-91670024D01*
X131898960Y-91672428D01*
X131899100Y-91679873D01*
X131899100Y-91690390D01*
X131900036Y-91695414D01*
X131901223Y-91727035D01*
X131909522Y-91746353D01*
X131913373Y-91767028D01*
X131929980Y-91793970D01*
X131942471Y-91823043D01*
X131946217Y-91827604D01*
X131957937Y-91839324D01*
X131962115Y-91846103D01*
X131963075Y-91847660D01*
X131968205Y-91855982D01*
X131983386Y-91867526D01*
X131988477Y-91872356D01*
X131989240Y-91873270D01*
X132018691Y-91900078D01*
X132081669Y-91963056D01*
X132090595Y-91973839D01*
X132100526Y-91983846D01*
X132101109Y-91985038D01*
X132108668Y-91992050D01*
X132108671Y-91992053D01*
X132122375Y-92004765D01*
X132211697Y-92115192D01*
X132266289Y-92246312D01*
X132281729Y-92387500D01*
X132256766Y-92527319D01*
X132193423Y-92654442D01*
X132096831Y-92758570D01*
X131974815Y-92831267D01*
X131837261Y-92866643D01*
X131783015Y-92869600D01*
X131255000Y-92869600D01*
X131114415Y-92849387D01*
X130985220Y-92790386D01*
X130877881Y-92697376D01*
X130801094Y-92577892D01*
X130761079Y-92441615D01*
X130756000Y-92370600D01*
X130756000Y-80712514D01*
X132472600Y-80712514D01*
X132477381Y-80761062D01*
X132480143Y-80774945D01*
X132498515Y-80827021D01*
X132522530Y-80862962D01*
X132559438Y-80904051D01*
X132595378Y-80928065D01*
X132645200Y-80951902D01*
X132673938Y-80957619D01*
X132722486Y-80962400D01*
X133686910Y-80962400D01*
X133718646Y-80957837D01*
X133722600Y-80944370D01*
X133722600Y-80926710D01*
X134722600Y-80926710D01*
X134727163Y-80958446D01*
X134740630Y-80962400D01*
X135722714Y-80962400D01*
X135771262Y-80957619D01*
X135785145Y-80954857D01*
X135837221Y-80936485D01*
X135873162Y-80912470D01*
X135914251Y-80875562D01*
X135938265Y-80839622D01*
X135962102Y-80789800D01*
X135967819Y-80761062D01*
X135972600Y-80712514D01*
X135972600Y-80698090D01*
X135968037Y-80666354D01*
X135954570Y-80662400D01*
X134758290Y-80662400D01*
X134726554Y-80666963D01*
X134722600Y-80680430D01*
X134722600Y-80926710D01*
X133722600Y-80926710D01*
X133722600Y-80698090D01*
X133718037Y-80666354D01*
X133704570Y-80662400D01*
X132508290Y-80662400D01*
X132476554Y-80666963D01*
X132472600Y-80680430D01*
X132472600Y-80712514D01*
X130756000Y-80712514D01*
X130756000Y-79626710D01*
X132472600Y-79626710D01*
X132477163Y-79658446D01*
X132490630Y-79662400D01*
X133686910Y-79662400D01*
X133718646Y-79657837D01*
X133722600Y-79644370D01*
X133722600Y-79626710D01*
X134722600Y-79626710D01*
X134727163Y-79658446D01*
X134740630Y-79662400D01*
X135936910Y-79662400D01*
X135968646Y-79657837D01*
X135972600Y-79644370D01*
X135972600Y-79612286D01*
X135967819Y-79563738D01*
X135965057Y-79549855D01*
X135946685Y-79497779D01*
X135922670Y-79461838D01*
X135885762Y-79420749D01*
X135849822Y-79396735D01*
X135800000Y-79372898D01*
X135771262Y-79367181D01*
X135722714Y-79362400D01*
X134758290Y-79362400D01*
X134726554Y-79366963D01*
X134722600Y-79380430D01*
X134722600Y-79626710D01*
X133722600Y-79626710D01*
X133722600Y-79398090D01*
X133718037Y-79366354D01*
X133704570Y-79362400D01*
X132722486Y-79362400D01*
X132673938Y-79367181D01*
X132660055Y-79369943D01*
X132607979Y-79388315D01*
X132572038Y-79412330D01*
X132530949Y-79449238D01*
X132506935Y-79485178D01*
X132483098Y-79535000D01*
X132477381Y-79563738D01*
X132472600Y-79612286D01*
X132472600Y-79626710D01*
X130756000Y-79626710D01*
X130756000Y-72284965D01*
X134273408Y-72284965D01*
X134274183Y-72285740D01*
X134274527Y-72285939D01*
X134290551Y-72291148D01*
X134443090Y-72325664D01*
X134488256Y-72331610D01*
X134644548Y-72337751D01*
X134690048Y-72335366D01*
X134844839Y-72312923D01*
X134889148Y-72302285D01*
X134915206Y-72293440D01*
X134941477Y-72280094D01*
X134928087Y-72261052D01*
X134634830Y-71967795D01*
X134609161Y-71948579D01*
X134596843Y-71955306D01*
X134291943Y-72260206D01*
X134273408Y-72284965D01*
X130756000Y-72284965D01*
X130756000Y-71229359D01*
X133506754Y-71229359D01*
X133516984Y-71385442D01*
X133524110Y-71430434D01*
X133552468Y-71542090D01*
X133563712Y-71569326D01*
X133575706Y-71562229D01*
X133877247Y-71260688D01*
X133895818Y-71235881D01*
X135322721Y-71235881D01*
X135329448Y-71248199D01*
X135630872Y-71549623D01*
X135654461Y-71567282D01*
X135665619Y-71546848D01*
X135676427Y-71515006D01*
X135687065Y-71470697D01*
X135710681Y-71307822D01*
X135713176Y-71278565D01*
X135713920Y-71250145D01*
X135712960Y-71220815D01*
X135697899Y-71056907D01*
X135689597Y-71012116D01*
X135666383Y-70929804D01*
X135654430Y-70902872D01*
X135640592Y-70911557D01*
X135341937Y-71210212D01*
X135322721Y-71235881D01*
X133895818Y-71235881D01*
X133896463Y-71235019D01*
X133889736Y-71222701D01*
X133588325Y-70921290D01*
X133564736Y-70903631D01*
X133555458Y-70920623D01*
X133535806Y-70983912D01*
X133526330Y-71028492D01*
X133507947Y-71183812D01*
X133506754Y-71229359D01*
X130756000Y-71229359D01*
X130756000Y-70189942D01*
X134277278Y-70189942D01*
X134295138Y-70213889D01*
X134584354Y-70503105D01*
X134610023Y-70522321D01*
X134622341Y-70515594D01*
X134925529Y-70212406D01*
X134943694Y-70188141D01*
X134929703Y-70180295D01*
X134900908Y-70171766D01*
X134747510Y-70141253D01*
X134702183Y-70136489D01*
X134545798Y-70134442D01*
X134500363Y-70138017D01*
X134346217Y-70164505D01*
X134302748Y-70176152D01*
X134277278Y-70189942D01*
X130756000Y-70189942D01*
X130756000Y-68819323D01*
X130758877Y-68819323D01*
X130758547Y-68808247D01*
X130761143Y-68796958D01*
X130757766Y-68782034D01*
X130757641Y-68777840D01*
X130760865Y-68739192D01*
X130760462Y-68728529D01*
X130769260Y-68594289D01*
X130777780Y-68529573D01*
X130810952Y-68362806D01*
X130827846Y-68299758D01*
X130882505Y-68138738D01*
X130907479Y-68078445D01*
X130982692Y-67925925D01*
X131015324Y-67869406D01*
X131029329Y-67848446D01*
X131109801Y-67728012D01*
X131149523Y-67676246D01*
X131261650Y-67548390D01*
X131307790Y-67502250D01*
X131435646Y-67390123D01*
X131487412Y-67350401D01*
X131628811Y-67255921D01*
X131685325Y-67223292D01*
X131837845Y-67148079D01*
X131898138Y-67123105D01*
X132059158Y-67068446D01*
X132122206Y-67051552D01*
X132288973Y-67018380D01*
X132353688Y-67009860D01*
X132518407Y-66999064D01*
X132545021Y-66999301D01*
X132555642Y-67001743D01*
X132565626Y-66999484D01*
X132573523Y-66999554D01*
X132615338Y-66996600D01*
X141052821Y-66996600D01*
X141193406Y-67016813D01*
G37*
%TD.AperFunction*%
%TA.AperFunction,Conductor*%
G36*
X145196954Y-80816568D02*
G01*
X145329551Y-80867465D01*
X145439102Y-80950289D01*
X145562076Y-81073263D01*
X145647192Y-81186964D01*
X145696826Y-81320039D01*
X145706959Y-81461707D01*
X145676768Y-81600492D01*
X145608700Y-81725149D01*
X145508270Y-81825579D01*
X145383613Y-81893647D01*
X145258141Y-81922706D01*
X145210669Y-81927382D01*
X145200432Y-81929418D01*
X145178654Y-81937101D01*
X145039352Y-81964811D01*
X144927564Y-81954808D01*
X144965405Y-82008085D01*
X145011696Y-82142360D01*
X145020600Y-82236203D01*
X145020600Y-82633982D01*
X145025381Y-82682530D01*
X145027418Y-82692767D01*
X145045790Y-82744844D01*
X145067045Y-82776655D01*
X145103948Y-82817738D01*
X145137637Y-82840248D01*
X145243299Y-82935159D01*
X145317942Y-83055994D01*
X145347667Y-83164345D01*
X145406102Y-83063134D01*
X145508895Y-82965123D01*
X145635138Y-82900043D01*
X145774601Y-82873165D01*
X145798339Y-82872600D01*
X145856982Y-82872600D01*
X145905530Y-82867819D01*
X145915767Y-82865782D01*
X145967843Y-82847411D01*
X145992400Y-82831002D01*
X146120521Y-82769704D01*
X146260722Y-82746984D01*
X146401645Y-82764683D01*
X146531873Y-82821368D01*
X146622478Y-82893058D01*
X146647730Y-82918310D01*
X146669889Y-82948311D01*
X146699890Y-82970470D01*
X146775832Y-83026561D01*
X146775139Y-83027500D01*
X146851874Y-83083416D01*
X146938447Y-83196012D01*
X146989790Y-83328437D01*
X147002600Y-83440776D01*
X147002600Y-83729224D01*
X147001286Y-83743169D01*
X147001232Y-83757261D01*
X147000802Y-83758514D01*
X147001188Y-83768795D01*
X147001188Y-83768803D01*
X147002249Y-83797049D01*
X147002306Y-83800108D01*
X147002403Y-83801162D01*
X147002582Y-83805924D01*
X147002460Y-83808328D01*
X147002600Y-83815773D01*
X147002600Y-83826290D01*
X147003536Y-83831314D01*
X147004723Y-83862935D01*
X147013022Y-83882253D01*
X147016873Y-83902928D01*
X147033480Y-83929870D01*
X147045971Y-83958943D01*
X147049717Y-83963504D01*
X147061437Y-83975224D01*
X147065615Y-83982003D01*
X147066575Y-83983560D01*
X147071705Y-83991882D01*
X147086886Y-84003426D01*
X147091977Y-84008256D01*
X147092740Y-84009170D01*
X147122191Y-84035978D01*
X147288769Y-84202556D01*
X147297695Y-84213339D01*
X147307626Y-84223346D01*
X147308209Y-84224538D01*
X147315768Y-84231550D01*
X147315771Y-84231553D01*
X147336467Y-84250751D01*
X147338695Y-84252897D01*
X147339514Y-84253577D01*
X147343015Y-84256825D01*
X147344631Y-84258614D01*
X147349953Y-84263740D01*
X147357405Y-84271192D01*
X147361619Y-84274083D01*
X147384818Y-84295603D01*
X147404347Y-84303394D01*
X147421689Y-84315291D01*
X147443789Y-84320535D01*
X147459649Y-84328363D01*
X147565914Y-84370283D01*
X147677999Y-84457515D01*
X147760968Y-84572792D01*
X147808099Y-84706774D01*
X147817600Y-84803685D01*
X147817600Y-84846510D01*
X147830819Y-84938449D01*
X147838319Y-84963990D01*
X147838323Y-85106021D01*
X147823186Y-85175605D01*
X147817600Y-85194629D01*
X147817600Y-85496511D01*
X147830823Y-85588477D01*
X147838323Y-85614025D01*
X147838317Y-85756055D01*
X147823186Y-85825603D01*
X147817600Y-85844627D01*
X147817600Y-86146510D01*
X147830819Y-86238449D01*
X147838319Y-86263990D01*
X147838323Y-86406021D01*
X147823186Y-86475605D01*
X147817600Y-86494629D01*
X147817600Y-86796511D01*
X147830823Y-86888477D01*
X147838323Y-86914025D01*
X147838317Y-87056055D01*
X147823186Y-87125603D01*
X147817600Y-87144627D01*
X147817600Y-87446510D01*
X147830819Y-87538449D01*
X147838319Y-87563990D01*
X147838323Y-87706021D01*
X147823186Y-87775605D01*
X147817600Y-87794629D01*
X147817600Y-88096511D01*
X147822163Y-88128247D01*
X147835630Y-88132201D01*
X149370900Y-88132201D01*
X149511485Y-88152414D01*
X149640680Y-88211415D01*
X149748019Y-88304425D01*
X149824806Y-88423909D01*
X149864821Y-88560186D01*
X149869900Y-88631201D01*
X149869900Y-89035600D01*
X149849687Y-89176185D01*
X149790686Y-89305380D01*
X149697676Y-89412719D01*
X149578192Y-89489506D01*
X149441915Y-89529521D01*
X149370900Y-89534600D01*
X149090093Y-89534600D01*
X148949508Y-89514387D01*
X148820313Y-89455386D01*
X148745892Y-89392053D01*
X148744552Y-89390048D01*
X148678231Y-89345733D01*
X148658087Y-89341726D01*
X148651993Y-89340514D01*
X148619748Y-89334100D01*
X147680252Y-89334100D01*
X147621769Y-89345733D01*
X147621011Y-89341922D01*
X147543232Y-89357395D01*
X147408550Y-89344130D01*
X147408231Y-89345733D01*
X147349748Y-89334100D01*
X146410252Y-89334100D01*
X146351769Y-89345733D01*
X146351011Y-89341922D01*
X146273232Y-89357395D01*
X146138550Y-89344130D01*
X146138231Y-89345733D01*
X146103789Y-89338882D01*
X146103788Y-89338882D01*
X146079748Y-89334100D01*
X146078490Y-89334100D01*
X145956116Y-89304026D01*
X145833326Y-89232645D01*
X145735620Y-89129562D01*
X145670915Y-89003127D01*
X145644451Y-88863584D01*
X145658373Y-88722238D01*
X145711552Y-88590539D01*
X145790108Y-88488479D01*
X145837020Y-88441567D01*
X145950721Y-88356451D01*
X146083796Y-88306817D01*
X146170934Y-88297448D01*
X146187900Y-88299682D01*
X146220326Y-88295413D01*
X146312237Y-88283313D01*
X146312238Y-88283313D01*
X146344662Y-88279044D01*
X146374874Y-88266530D01*
X146374877Y-88266529D01*
X146460523Y-88231053D01*
X146460525Y-88231052D01*
X146490741Y-88218536D01*
X146616182Y-88122282D01*
X146712436Y-87996841D01*
X146724953Y-87966623D01*
X146760429Y-87880977D01*
X146760430Y-87880974D01*
X146772944Y-87850762D01*
X146781614Y-87784911D01*
X146789313Y-87726426D01*
X146793582Y-87694000D01*
X146779021Y-87583397D01*
X146777213Y-87569663D01*
X146777213Y-87569662D01*
X146772944Y-87537238D01*
X146760257Y-87506607D01*
X146724953Y-87421377D01*
X146724952Y-87421375D01*
X146712436Y-87391159D01*
X146679088Y-87347698D01*
X146636091Y-87291664D01*
X146616182Y-87265718D01*
X146532293Y-87201348D01*
X146516690Y-87189375D01*
X146516688Y-87189374D01*
X146490741Y-87169464D01*
X146460525Y-87156948D01*
X146460523Y-87156947D01*
X146374879Y-87121472D01*
X146374877Y-87121471D01*
X146344662Y-87108956D01*
X146330000Y-87107026D01*
X146214547Y-87057588D01*
X146105024Y-86967159D01*
X146025414Y-86849538D01*
X146006924Y-86799963D01*
X146006644Y-86797838D01*
X146000960Y-86784116D01*
X145958653Y-86681977D01*
X145958652Y-86681975D01*
X145946136Y-86651759D01*
X145849882Y-86526318D01*
X145808584Y-86494629D01*
X145750390Y-86449975D01*
X145750388Y-86449974D01*
X145724441Y-86430064D01*
X145694225Y-86417548D01*
X145694223Y-86417547D01*
X145608577Y-86382071D01*
X145608574Y-86382070D01*
X145578362Y-86369556D01*
X145545938Y-86365287D01*
X145545937Y-86365287D01*
X145421600Y-86348918D01*
X145421927Y-86346433D01*
X145328315Y-86332974D01*
X145199120Y-86273973D01*
X145091781Y-86180963D01*
X145014994Y-86061479D01*
X144974979Y-85925202D01*
X144969900Y-85854187D01*
X144969900Y-85370570D01*
X144990113Y-85229985D01*
X145049114Y-85100790D01*
X145142124Y-84993451D01*
X145261608Y-84916664D01*
X145335195Y-84890210D01*
X145364562Y-84886344D01*
X145476135Y-84840129D01*
X145480423Y-84838353D01*
X145480425Y-84838352D01*
X145510641Y-84825836D01*
X145536804Y-84805761D01*
X145610136Y-84749491D01*
X145636082Y-84729582D01*
X145678561Y-84674222D01*
X145712425Y-84630090D01*
X145712426Y-84630088D01*
X145732336Y-84604141D01*
X145745089Y-84573353D01*
X145780329Y-84488277D01*
X145780330Y-84488274D01*
X145792844Y-84458062D01*
X145797715Y-84421068D01*
X145809213Y-84333726D01*
X145813482Y-84301300D01*
X145803228Y-84223413D01*
X145797113Y-84176963D01*
X145797113Y-84176962D01*
X145792844Y-84144538D01*
X145777426Y-84107314D01*
X145744853Y-84028677D01*
X145744852Y-84028675D01*
X145732336Y-83998459D01*
X145710926Y-83970556D01*
X145655991Y-83898964D01*
X145636082Y-83873018D01*
X145510641Y-83776764D01*
X145512104Y-83774858D01*
X145437192Y-83715945D01*
X145354807Y-83600250D01*
X145310123Y-83471139D01*
X145231635Y-83588606D01*
X145122653Y-83679686D01*
X145049046Y-83711446D01*
X145051038Y-83716256D01*
X144935177Y-83764247D01*
X144935175Y-83764248D01*
X144904959Y-83776764D01*
X144879012Y-83796674D01*
X144879010Y-83796675D01*
X144840415Y-83826290D01*
X144779518Y-83873018D01*
X144778330Y-83874566D01*
X144687209Y-83942779D01*
X144554134Y-83992413D01*
X144412466Y-84002546D01*
X144273681Y-83972355D01*
X144149024Y-83904287D01*
X144048594Y-83803857D01*
X144033161Y-83782047D01*
X144029631Y-83776764D01*
X143999752Y-83732047D01*
X143976120Y-83716256D01*
X143963108Y-83707562D01*
X143963109Y-83707562D01*
X143933431Y-83687732D01*
X143913287Y-83683725D01*
X143903171Y-83681713D01*
X143874948Y-83676099D01*
X143100086Y-83676099D01*
X142959501Y-83655886D01*
X142830306Y-83596885D01*
X142722967Y-83503875D01*
X142646180Y-83384391D01*
X142606165Y-83248114D01*
X142606165Y-83106084D01*
X142646180Y-82969807D01*
X142722967Y-82850323D01*
X142830306Y-82757313D01*
X142952110Y-82700545D01*
X143058904Y-82667384D01*
X143133401Y-82633982D01*
X143342305Y-82540316D01*
X143342312Y-82540312D01*
X143356018Y-82534167D01*
X143368888Y-82526419D01*
X143368895Y-82526415D01*
X143547601Y-82418825D01*
X143634976Y-82366221D01*
X143891737Y-82165977D01*
X144070620Y-81988029D01*
X144111923Y-81946942D01*
X144111928Y-81946936D01*
X144122582Y-81936338D01*
X144131888Y-81924533D01*
X144141883Y-81913315D01*
X144143183Y-81914473D01*
X144232644Y-81829379D01*
X144358964Y-81764450D01*
X144498460Y-81737740D01*
X144606828Y-81748220D01*
X144570482Y-81697818D01*
X144523231Y-81563878D01*
X144515628Y-81422051D01*
X144548290Y-81283828D01*
X144558382Y-81260011D01*
X144628342Y-81106142D01*
X144628342Y-81106141D01*
X144630101Y-81106941D01*
X144689645Y-81000314D01*
X144791025Y-80900842D01*
X144916323Y-80833962D01*
X145055388Y-80805091D01*
X145196954Y-80816568D01*
G37*
%TD.AperFunction*%
%TA.AperFunction,Conductor*%
G36*
X135127676Y-86784960D02*
G01*
X135129627Y-86785100D01*
X135212866Y-86785100D01*
X135353451Y-86805313D01*
X135482646Y-86864314D01*
X135589985Y-86957324D01*
X135666772Y-87076808D01*
X135686112Y-87133498D01*
X135686819Y-87141659D01*
X135692997Y-87154298D01*
X135695573Y-87168128D01*
X135703375Y-87180786D01*
X135703499Y-87181086D01*
X135710717Y-87194187D01*
X135717035Y-87203472D01*
X135732709Y-87235538D01*
X135743022Y-87245105D01*
X135750405Y-87257082D01*
X135762247Y-87266087D01*
X135762468Y-87266320D01*
X135773914Y-87275942D01*
X135783153Y-87282331D01*
X135809318Y-87306603D01*
X135822383Y-87311815D01*
X135833583Y-87320332D01*
X135847855Y-87324465D01*
X135848144Y-87324602D01*
X135862765Y-87329622D01*
X135873662Y-87332274D01*
X135906373Y-87345324D01*
X135912247Y-87345900D01*
X135921878Y-87345900D01*
X135933954Y-87349397D01*
X135941391Y-87348753D01*
X135975654Y-87357090D01*
X135974994Y-87359804D01*
X136035654Y-87371575D01*
X136161813Y-87436817D01*
X136235743Y-87508244D01*
X136237380Y-87506607D01*
X136260509Y-87529736D01*
X136280418Y-87555682D01*
X136306364Y-87575591D01*
X136334939Y-87597517D01*
X136405859Y-87651936D01*
X136436075Y-87664452D01*
X136436077Y-87664453D01*
X136521723Y-87699929D01*
X136521726Y-87699930D01*
X136551938Y-87712444D01*
X136704471Y-87732525D01*
X136841214Y-87770915D01*
X136921950Y-87821453D01*
X136932328Y-87786108D01*
X137009115Y-87666624D01*
X137082462Y-87597517D01*
X137111035Y-87575592D01*
X137111036Y-87575591D01*
X137136982Y-87555682D01*
X137156891Y-87529736D01*
X137180020Y-87506607D01*
X137181741Y-87508328D01*
X137249770Y-87441899D01*
X137375228Y-87375319D01*
X137514362Y-87346783D01*
X137544033Y-87345900D01*
X138622624Y-87345900D01*
X138636569Y-87347214D01*
X138650661Y-87347268D01*
X138651914Y-87347698D01*
X138662195Y-87347312D01*
X138662203Y-87347312D01*
X138690449Y-87346251D01*
X138693508Y-87346194D01*
X138694562Y-87346097D01*
X138699324Y-87345918D01*
X138701728Y-87346040D01*
X138709173Y-87345900D01*
X138719690Y-87345900D01*
X138724714Y-87344964D01*
X138756335Y-87343777D01*
X138775653Y-87335478D01*
X138796328Y-87331627D01*
X138815673Y-87319703D01*
X138819682Y-87317232D01*
X138819686Y-87317229D01*
X138823270Y-87315020D01*
X138852343Y-87302529D01*
X138856904Y-87298783D01*
X138868624Y-87287063D01*
X138875403Y-87282885D01*
X138878398Y-87281038D01*
X138885282Y-87276795D01*
X138896822Y-87261619D01*
X138901658Y-87256522D01*
X138935852Y-87228001D01*
X139056759Y-87153475D01*
X139193764Y-87116031D01*
X139255475Y-87112200D01*
X139635105Y-87112199D01*
X139674632Y-87112199D01*
X139705300Y-87109301D01*
X139798665Y-87076513D01*
X139938002Y-87049005D01*
X140079449Y-87061866D01*
X140211542Y-87114057D01*
X140323582Y-87201348D01*
X140406489Y-87316669D01*
X140453549Y-87450676D01*
X140461901Y-87519353D01*
X140461901Y-87524032D01*
X140464799Y-87554700D01*
X140508439Y-87678968D01*
X140530601Y-87708973D01*
X140548055Y-87741939D01*
X140546385Y-87742823D01*
X140588972Y-87822019D01*
X140618272Y-87960994D01*
X140607231Y-88102595D01*
X140556744Y-88235349D01*
X140470901Y-88348502D01*
X140356657Y-88432886D01*
X140223266Y-88481666D01*
X140120325Y-88492400D01*
X137386234Y-88492400D01*
X137245649Y-88472187D01*
X137116454Y-88413186D01*
X137102521Y-88401113D01*
X137062306Y-88492020D01*
X137019390Y-88542756D01*
X137023189Y-88545901D01*
X137010848Y-88560808D01*
X137009718Y-88561505D01*
X137003476Y-88569713D01*
X136997161Y-88577342D01*
X136965627Y-88611985D01*
X136571841Y-89005771D01*
X136561063Y-89014693D01*
X136551053Y-89024627D01*
X136549862Y-89025209D01*
X136542862Y-89032755D01*
X136542855Y-89032762D01*
X136523635Y-89053482D01*
X136521502Y-89055697D01*
X136520828Y-89056508D01*
X136517574Y-89060015D01*
X136515785Y-89061632D01*
X136510646Y-89066967D01*
X136503208Y-89074405D01*
X136500317Y-89078619D01*
X136478797Y-89101818D01*
X136471006Y-89121347D01*
X136468515Y-89124977D01*
X136468514Y-89124979D01*
X136462519Y-89133718D01*
X136366323Y-89238212D01*
X136244585Y-89311372D01*
X136107167Y-89347271D01*
X135953692Y-89340851D01*
X135943795Y-89338883D01*
X135943793Y-89338883D01*
X135919748Y-89334100D01*
X134980252Y-89334100D01*
X134980252Y-89332484D01*
X134866524Y-89327406D01*
X134732168Y-89281352D01*
X134616228Y-89199312D01*
X134528099Y-89087931D01*
X134474919Y-88956232D01*
X134460500Y-88837144D01*
X134460500Y-87270053D01*
X134480713Y-87129468D01*
X134539714Y-87000273D01*
X134632724Y-86892934D01*
X134752208Y-86816147D01*
X134888478Y-86776133D01*
X134922541Y-86771235D01*
X135064571Y-86771233D01*
X135127676Y-86784960D01*
G37*
%TD.AperFunction*%
%TD*%
M02*
