%TF.GenerationSoftware,KiCad,Pcbnew,(6.0.0-0)*%
%TF.CreationDate,2022-02-03T17:32:02+01:00*%
%TF.ProjectId,GlowCoreMini,476c6f77-436f-4726-954d-696e692e6b69,rev?*%
%TF.SameCoordinates,Original*%
%TF.FileFunction,Legend,Bot*%
%TF.FilePolarity,Positive*%
%FSLAX46Y46*%
G04 Gerber Fmt 4.6, Leading zero omitted, Abs format (unit mm)*
G04 Created by KiCad (PCBNEW (6.0.0-0)) date 2022-02-03 17:32:02*
%MOMM*%
%LPD*%
G01*
G04 APERTURE LIST*
%ADD10C,0.150000*%
%ADD11C,0.120000*%
G04 APERTURE END LIST*
D10*
X138681504Y-73934580D02*
X138681504Y-72934580D01*
X138443409Y-72934580D01*
X138300552Y-72982200D01*
X138205314Y-73077438D01*
X138157695Y-73172676D01*
X138110076Y-73363152D01*
X138110076Y-73506009D01*
X138157695Y-73696485D01*
X138205314Y-73791723D01*
X138300552Y-73886961D01*
X138443409Y-73934580D01*
X138681504Y-73934580D01*
X147528930Y-105413762D02*
X147528930Y-104413762D01*
X147195597Y-105128048D01*
X146862264Y-104413762D01*
X146862264Y-105413762D01*
X146386073Y-105413762D02*
X146386073Y-104747096D01*
X146386073Y-104413762D02*
X146433692Y-104461382D01*
X146386073Y-104509001D01*
X146338454Y-104461382D01*
X146386073Y-104413762D01*
X146386073Y-104509001D01*
X145909883Y-104747096D02*
X145909883Y-105413762D01*
X145909883Y-104842334D02*
X145862264Y-104794715D01*
X145767026Y-104747096D01*
X145624168Y-104747096D01*
X145528930Y-104794715D01*
X145481311Y-104889953D01*
X145481311Y-105413762D01*
X145005121Y-105413762D02*
X145005121Y-104747096D01*
X145005121Y-104413762D02*
X145052740Y-104461382D01*
X145005121Y-104509001D01*
X144957502Y-104461382D01*
X145005121Y-104413762D01*
X145005121Y-104509001D01*
X143862264Y-104747096D02*
X143624168Y-105413762D01*
X143386073Y-104747096D01*
X142481311Y-105413762D02*
X143052740Y-105413762D01*
X142767026Y-105413762D02*
X142767026Y-104413762D01*
X142862264Y-104556620D01*
X142957502Y-104651858D01*
X143052740Y-104699477D01*
X142052740Y-105318524D02*
X142005121Y-105366143D01*
X142052740Y-105413762D01*
X142100359Y-105366143D01*
X142052740Y-105318524D01*
X142052740Y-105413762D01*
X141386073Y-104413762D02*
X141290835Y-104413762D01*
X141195597Y-104461382D01*
X141147978Y-104509001D01*
X141100359Y-104604239D01*
X141052740Y-104794715D01*
X141052740Y-105032810D01*
X141100359Y-105223286D01*
X141147978Y-105318524D01*
X141195597Y-105366143D01*
X141290835Y-105413762D01*
X141386073Y-105413762D01*
X141481311Y-105366143D01*
X141528930Y-105318524D01*
X141576549Y-105223286D01*
X141624168Y-105032810D01*
X141624168Y-104794715D01*
X141576549Y-104604239D01*
X141528930Y-104509001D01*
X141481311Y-104461382D01*
X141386073Y-104413762D01*
X140123223Y-124558904D02*
X140123223Y-123758904D01*
X139932747Y-123758904D01*
X139818461Y-123797000D01*
X139742271Y-123873190D01*
X139704176Y-123949380D01*
X139666080Y-124101761D01*
X139666080Y-124216047D01*
X139704176Y-124368428D01*
X139742271Y-124444619D01*
X139818461Y-124520809D01*
X139932747Y-124558904D01*
X140123223Y-124558904D01*
X138866080Y-124482714D02*
X138904176Y-124520809D01*
X139018461Y-124558904D01*
X139094652Y-124558904D01*
X139208938Y-124520809D01*
X139285128Y-124444619D01*
X139323223Y-124368428D01*
X139361319Y-124216047D01*
X139361319Y-124101761D01*
X139323223Y-123949380D01*
X139285128Y-123873190D01*
X139208938Y-123797000D01*
X139094652Y-123758904D01*
X139018461Y-123758904D01*
X138904176Y-123797000D01*
X138866080Y-123835095D01*
X138523223Y-124482714D02*
X138485128Y-124520809D01*
X138523223Y-124558904D01*
X138561319Y-124520809D01*
X138523223Y-124482714D01*
X138523223Y-124558904D01*
X138523223Y-124063666D02*
X138485128Y-124101761D01*
X138523223Y-124139857D01*
X138561319Y-124101761D01*
X138523223Y-124063666D01*
X138523223Y-124139857D01*
X139742271Y-125046904D02*
X140123223Y-125046904D01*
X140161319Y-125427857D01*
X140123223Y-125389761D01*
X140047033Y-125351666D01*
X139856557Y-125351666D01*
X139780366Y-125389761D01*
X139742271Y-125427857D01*
X139704176Y-125504047D01*
X139704176Y-125694523D01*
X139742271Y-125770714D01*
X139780366Y-125808809D01*
X139856557Y-125846904D01*
X140047033Y-125846904D01*
X140123223Y-125808809D01*
X140161319Y-125770714D01*
X139475604Y-125046904D02*
X139208938Y-125846904D01*
X138942271Y-125046904D01*
X138637509Y-125808809D02*
X138637509Y-125846904D01*
X138675604Y-125923095D01*
X138713700Y-125961190D01*
X137685128Y-125846904D02*
X137685128Y-125313571D01*
X137685128Y-125389761D02*
X137647033Y-125351666D01*
X137570842Y-125313571D01*
X137456557Y-125313571D01*
X137380366Y-125351666D01*
X137342271Y-125427857D01*
X137342271Y-125846904D01*
X137342271Y-125427857D02*
X137304176Y-125351666D01*
X137227985Y-125313571D01*
X137113700Y-125313571D01*
X137037509Y-125351666D01*
X136999414Y-125427857D01*
X136999414Y-125846904D01*
X136275604Y-125846904D02*
X136275604Y-125427857D01*
X136313700Y-125351666D01*
X136389890Y-125313571D01*
X136542271Y-125313571D01*
X136618461Y-125351666D01*
X136275604Y-125808809D02*
X136351795Y-125846904D01*
X136542271Y-125846904D01*
X136618461Y-125808809D01*
X136656557Y-125732619D01*
X136656557Y-125656428D01*
X136618461Y-125580238D01*
X136542271Y-125542142D01*
X136351795Y-125542142D01*
X136275604Y-125504047D01*
X135970842Y-125846904D02*
X135551795Y-125313571D01*
X135970842Y-125313571D02*
X135551795Y-125846904D01*
X134523223Y-125389761D02*
X134599414Y-125351666D01*
X134637509Y-125313571D01*
X134675604Y-125237380D01*
X134675604Y-125199285D01*
X134637509Y-125123095D01*
X134599414Y-125085000D01*
X134523223Y-125046904D01*
X134370842Y-125046904D01*
X134294652Y-125085000D01*
X134256557Y-125123095D01*
X134218461Y-125199285D01*
X134218461Y-125237380D01*
X134256557Y-125313571D01*
X134294652Y-125351666D01*
X134370842Y-125389761D01*
X134523223Y-125389761D01*
X134599414Y-125427857D01*
X134637509Y-125465952D01*
X134675604Y-125542142D01*
X134675604Y-125694523D01*
X134637509Y-125770714D01*
X134599414Y-125808809D01*
X134523223Y-125846904D01*
X134370842Y-125846904D01*
X134294652Y-125808809D01*
X134256557Y-125770714D01*
X134218461Y-125694523D01*
X134218461Y-125542142D01*
X134256557Y-125465952D01*
X134294652Y-125427857D01*
X134370842Y-125389761D01*
X133913700Y-125618333D02*
X133532747Y-125618333D01*
X133989890Y-125846904D02*
X133723223Y-125046904D01*
X133456557Y-125846904D01*
X153407471Y-69017104D02*
X153788423Y-69017104D01*
X153826519Y-69398057D01*
X153788423Y-69359961D01*
X153712233Y-69321866D01*
X153521757Y-69321866D01*
X153445566Y-69359961D01*
X153407471Y-69398057D01*
X153369376Y-69474247D01*
X153369376Y-69664723D01*
X153407471Y-69740914D01*
X153445566Y-69779009D01*
X153521757Y-69817104D01*
X153712233Y-69817104D01*
X153788423Y-69779009D01*
X153826519Y-69740914D01*
X153140804Y-69017104D02*
X152874138Y-69817104D01*
X152607471Y-69017104D01*
X151502709Y-70121866D02*
X151540804Y-70083771D01*
X151616995Y-69969485D01*
X151655090Y-69893295D01*
X151693185Y-69779009D01*
X151731280Y-69588533D01*
X151731280Y-69436152D01*
X151693185Y-69245676D01*
X151655090Y-69131390D01*
X151616995Y-69055200D01*
X151540804Y-68940914D01*
X151502709Y-68902819D01*
X151083661Y-69359961D02*
X151159852Y-69321866D01*
X151197947Y-69283771D01*
X151236042Y-69207580D01*
X151236042Y-69169485D01*
X151197947Y-69093295D01*
X151159852Y-69055200D01*
X151083661Y-69017104D01*
X150931280Y-69017104D01*
X150855090Y-69055200D01*
X150816995Y-69093295D01*
X150778900Y-69169485D01*
X150778900Y-69207580D01*
X150816995Y-69283771D01*
X150855090Y-69321866D01*
X150931280Y-69359961D01*
X151083661Y-69359961D01*
X151159852Y-69398057D01*
X151197947Y-69436152D01*
X151236042Y-69512342D01*
X151236042Y-69664723D01*
X151197947Y-69740914D01*
X151159852Y-69779009D01*
X151083661Y-69817104D01*
X150931280Y-69817104D01*
X150855090Y-69779009D01*
X150816995Y-69740914D01*
X150778900Y-69664723D01*
X150778900Y-69512342D01*
X150816995Y-69436152D01*
X150855090Y-69398057D01*
X150931280Y-69359961D01*
X150474138Y-69588533D02*
X150093185Y-69588533D01*
X150550328Y-69817104D02*
X150283661Y-69017104D01*
X150016995Y-69817104D01*
X149140804Y-69817104D02*
X149140804Y-69283771D01*
X149140804Y-69359961D02*
X149102709Y-69321866D01*
X149026519Y-69283771D01*
X148912233Y-69283771D01*
X148836042Y-69321866D01*
X148797947Y-69398057D01*
X148797947Y-69817104D01*
X148797947Y-69398057D02*
X148759852Y-69321866D01*
X148683661Y-69283771D01*
X148569376Y-69283771D01*
X148493185Y-69321866D01*
X148455090Y-69398057D01*
X148455090Y-69817104D01*
X147731280Y-69817104D02*
X147731280Y-69398057D01*
X147769376Y-69321866D01*
X147845566Y-69283771D01*
X147997947Y-69283771D01*
X148074138Y-69321866D01*
X147731280Y-69779009D02*
X147807471Y-69817104D01*
X147997947Y-69817104D01*
X148074138Y-69779009D01*
X148112233Y-69702819D01*
X148112233Y-69626628D01*
X148074138Y-69550438D01*
X147997947Y-69512342D01*
X147807471Y-69512342D01*
X147731280Y-69474247D01*
X147426519Y-69817104D02*
X147007471Y-69283771D01*
X147426519Y-69283771D02*
X147007471Y-69817104D01*
X146702709Y-69740914D02*
X146664614Y-69779009D01*
X146702709Y-69817104D01*
X146740804Y-69779009D01*
X146702709Y-69740914D01*
X146702709Y-69817104D01*
X146702709Y-69512342D02*
X146740804Y-69055200D01*
X146702709Y-69017104D01*
X146664614Y-69055200D01*
X146702709Y-69512342D01*
X146702709Y-69017104D01*
X146397947Y-70121866D02*
X146359852Y-70083771D01*
X146283661Y-69969485D01*
X146245566Y-69893295D01*
X146207471Y-69779009D01*
X146169376Y-69588533D01*
X146169376Y-69436152D01*
X146207471Y-69245676D01*
X146245566Y-69131390D01*
X146283661Y-69055200D01*
X146359852Y-68940914D01*
X146397947Y-68902819D01*
X153369376Y-71631200D02*
X153445566Y-71593104D01*
X153559852Y-71593104D01*
X153674138Y-71631200D01*
X153750328Y-71707390D01*
X153788423Y-71783580D01*
X153826519Y-71935961D01*
X153826519Y-72050247D01*
X153788423Y-72202628D01*
X153750328Y-72278819D01*
X153674138Y-72355009D01*
X153559852Y-72393104D01*
X153483661Y-72393104D01*
X153369376Y-72355009D01*
X153331280Y-72316914D01*
X153331280Y-72050247D01*
X153483661Y-72050247D01*
X152988423Y-72393104D02*
X152988423Y-71593104D01*
X152531280Y-72393104D01*
X152531280Y-71593104D01*
X152150328Y-72393104D02*
X152150328Y-71593104D01*
X151959852Y-71593104D01*
X151845566Y-71631200D01*
X151769376Y-71707390D01*
X151731280Y-71783580D01*
X151693185Y-71935961D01*
X151693185Y-72050247D01*
X151731280Y-72202628D01*
X151769376Y-72278819D01*
X151845566Y-72355009D01*
X151959852Y-72393104D01*
X152150328Y-72393104D01*
X153864614Y-74169104D02*
X153369376Y-74169104D01*
X153636042Y-74473866D01*
X153521757Y-74473866D01*
X153445566Y-74511961D01*
X153407471Y-74550057D01*
X153369376Y-74626247D01*
X153369376Y-74816723D01*
X153407471Y-74892914D01*
X153445566Y-74931009D01*
X153521757Y-74969104D01*
X153750328Y-74969104D01*
X153826519Y-74931009D01*
X153864614Y-74892914D01*
X153026519Y-74892914D02*
X152988423Y-74931009D01*
X153026519Y-74969104D01*
X153064614Y-74931009D01*
X153026519Y-74892914D01*
X153026519Y-74969104D01*
X152721757Y-74169104D02*
X152226519Y-74169104D01*
X152493185Y-74473866D01*
X152378900Y-74473866D01*
X152302709Y-74511961D01*
X152264614Y-74550057D01*
X152226519Y-74626247D01*
X152226519Y-74816723D01*
X152264614Y-74892914D01*
X152302709Y-74931009D01*
X152378900Y-74969104D01*
X152607471Y-74969104D01*
X152683661Y-74931009D01*
X152721757Y-74892914D01*
X151997947Y-74169104D02*
X151731280Y-74969104D01*
X151464614Y-74169104D01*
X153788423Y-77545104D02*
X153788423Y-76745104D01*
X153255090Y-76745104D02*
X153102709Y-76745104D01*
X153026519Y-76783200D01*
X152950328Y-76859390D01*
X152912233Y-77011771D01*
X152912233Y-77278438D01*
X152950328Y-77430819D01*
X153026519Y-77507009D01*
X153102709Y-77545104D01*
X153255090Y-77545104D01*
X153331280Y-77507009D01*
X153407471Y-77430819D01*
X153445566Y-77278438D01*
X153445566Y-77011771D01*
X153407471Y-76859390D01*
X153331280Y-76783200D01*
X153255090Y-76745104D01*
X152607471Y-76821295D02*
X152569376Y-76783200D01*
X152493185Y-76745104D01*
X152302709Y-76745104D01*
X152226519Y-76783200D01*
X152188423Y-76821295D01*
X152150328Y-76897485D01*
X152150328Y-76973676D01*
X152188423Y-77087961D01*
X152645566Y-77545104D01*
X152150328Y-77545104D01*
X151464614Y-76745104D02*
X151616995Y-76745104D01*
X151693185Y-76783200D01*
X151731280Y-76821295D01*
X151807471Y-76935580D01*
X151845566Y-77087961D01*
X151845566Y-77392723D01*
X151807471Y-77468914D01*
X151769376Y-77507009D01*
X151693185Y-77545104D01*
X151540804Y-77545104D01*
X151464614Y-77507009D01*
X151426519Y-77468914D01*
X151388423Y-77392723D01*
X151388423Y-77202247D01*
X151426519Y-77126057D01*
X151464614Y-77087961D01*
X151540804Y-77049866D01*
X151693185Y-77049866D01*
X151769376Y-77087961D01*
X151807471Y-77126057D01*
X151845566Y-77202247D01*
X153788423Y-80121104D02*
X153788423Y-79321104D01*
X153255090Y-79321104D02*
X153102709Y-79321104D01*
X153026519Y-79359200D01*
X152950328Y-79435390D01*
X152912233Y-79587771D01*
X152912233Y-79854438D01*
X152950328Y-80006819D01*
X153026519Y-80083009D01*
X153102709Y-80121104D01*
X153255090Y-80121104D01*
X153331280Y-80083009D01*
X153407471Y-80006819D01*
X153445566Y-79854438D01*
X153445566Y-79587771D01*
X153407471Y-79435390D01*
X153331280Y-79359200D01*
X153255090Y-79321104D01*
X152607471Y-79397295D02*
X152569376Y-79359200D01*
X152493185Y-79321104D01*
X152302709Y-79321104D01*
X152226519Y-79359200D01*
X152188423Y-79397295D01*
X152150328Y-79473485D01*
X152150328Y-79549676D01*
X152188423Y-79663961D01*
X152645566Y-80121104D01*
X152150328Y-80121104D01*
X151426519Y-79321104D02*
X151807471Y-79321104D01*
X151845566Y-79702057D01*
X151807471Y-79663961D01*
X151731280Y-79625866D01*
X151540804Y-79625866D01*
X151464614Y-79663961D01*
X151426519Y-79702057D01*
X151388423Y-79778247D01*
X151388423Y-79968723D01*
X151426519Y-80044914D01*
X151464614Y-80083009D01*
X151540804Y-80121104D01*
X151731280Y-80121104D01*
X151807471Y-80083009D01*
X151845566Y-80044914D01*
X153788423Y-82697104D02*
X153788423Y-81897104D01*
X153255090Y-81897104D02*
X153102709Y-81897104D01*
X153026519Y-81935200D01*
X152950328Y-82011390D01*
X152912233Y-82163771D01*
X152912233Y-82430438D01*
X152950328Y-82582819D01*
X153026519Y-82659009D01*
X153102709Y-82697104D01*
X153255090Y-82697104D01*
X153331280Y-82659009D01*
X153407471Y-82582819D01*
X153445566Y-82430438D01*
X153445566Y-82163771D01*
X153407471Y-82011390D01*
X153331280Y-81935200D01*
X153255090Y-81897104D01*
X152150328Y-82697104D02*
X152607471Y-82697104D01*
X152378900Y-82697104D02*
X152378900Y-81897104D01*
X152455090Y-82011390D01*
X152531280Y-82087580D01*
X152607471Y-82125676D01*
X151883661Y-81897104D02*
X151388423Y-81897104D01*
X151655090Y-82201866D01*
X151540804Y-82201866D01*
X151464614Y-82239961D01*
X151426519Y-82278057D01*
X151388423Y-82354247D01*
X151388423Y-82544723D01*
X151426519Y-82620914D01*
X151464614Y-82659009D01*
X151540804Y-82697104D01*
X151769376Y-82697104D01*
X151845566Y-82659009D01*
X151883661Y-82620914D01*
X147975500Y-77768409D02*
X147861214Y-77806504D01*
X147670738Y-77806504D01*
X147594547Y-77768409D01*
X147556452Y-77730314D01*
X147518357Y-77654123D01*
X147518357Y-77577933D01*
X147556452Y-77501742D01*
X147594547Y-77463647D01*
X147670738Y-77425552D01*
X147823119Y-77387457D01*
X147899309Y-77349361D01*
X147937404Y-77311266D01*
X147975500Y-77235076D01*
X147975500Y-77158885D01*
X147937404Y-77082695D01*
X147899309Y-77044600D01*
X147823119Y-77006504D01*
X147632642Y-77006504D01*
X147518357Y-77044600D01*
X147289785Y-77273171D02*
X146985023Y-77273171D01*
X147175500Y-77006504D02*
X147175500Y-77692219D01*
X147137404Y-77768409D01*
X147061214Y-77806504D01*
X146985023Y-77806504D01*
X146375500Y-77806504D02*
X146375500Y-77387457D01*
X146413595Y-77311266D01*
X146489785Y-77273171D01*
X146642166Y-77273171D01*
X146718357Y-77311266D01*
X146375500Y-77768409D02*
X146451690Y-77806504D01*
X146642166Y-77806504D01*
X146718357Y-77768409D01*
X146756452Y-77692219D01*
X146756452Y-77616028D01*
X146718357Y-77539838D01*
X146642166Y-77501742D01*
X146451690Y-77501742D01*
X146375500Y-77463647D01*
X146108833Y-77273171D02*
X145804071Y-77273171D01*
X145994547Y-77006504D02*
X145994547Y-77692219D01*
X145956452Y-77768409D01*
X145880261Y-77806504D01*
X145804071Y-77806504D01*
X145194547Y-77273171D02*
X145194547Y-77806504D01*
X145537404Y-77273171D02*
X145537404Y-77692219D01*
X145499309Y-77768409D01*
X145423119Y-77806504D01*
X145308833Y-77806504D01*
X145232642Y-77768409D01*
X145194547Y-77730314D01*
X144851690Y-77768409D02*
X144775500Y-77806504D01*
X144623119Y-77806504D01*
X144546928Y-77768409D01*
X144508833Y-77692219D01*
X144508833Y-77654123D01*
X144546928Y-77577933D01*
X144623119Y-77539838D01*
X144737404Y-77539838D01*
X144813595Y-77501742D01*
X144851690Y-77425552D01*
X144851690Y-77387457D01*
X144813595Y-77311266D01*
X144737404Y-77273171D01*
X144623119Y-77273171D01*
X144546928Y-77311266D01*
X143175500Y-77806504D02*
X143556452Y-77806504D01*
X143556452Y-77006504D01*
X142908833Y-77387457D02*
X142642166Y-77387457D01*
X142527880Y-77806504D02*
X142908833Y-77806504D01*
X142908833Y-77006504D01*
X142527880Y-77006504D01*
X142185023Y-77806504D02*
X142185023Y-77006504D01*
X141994547Y-77006504D01*
X141880261Y-77044600D01*
X141804071Y-77120790D01*
X141765976Y-77196980D01*
X141727880Y-77349361D01*
X141727880Y-77463647D01*
X141765976Y-77616028D01*
X141804071Y-77692219D01*
X141880261Y-77768409D01*
X141994547Y-77806504D01*
X142185023Y-77806504D01*
X142445476Y-72934580D02*
X142921666Y-72934580D01*
X142969285Y-73410771D01*
X142921666Y-73363152D01*
X142826428Y-73315533D01*
X142588333Y-73315533D01*
X142493095Y-73363152D01*
X142445476Y-73410771D01*
X142397857Y-73506009D01*
X142397857Y-73744104D01*
X142445476Y-73839342D01*
X142493095Y-73886961D01*
X142588333Y-73934580D01*
X142826428Y-73934580D01*
X142921666Y-73886961D01*
X142969285Y-73839342D01*
X142112142Y-72934580D02*
X141778809Y-73934580D01*
X141445476Y-72934580D01*
X135371504Y-72982200D02*
X135466742Y-72934580D01*
X135609600Y-72934580D01*
X135752457Y-72982200D01*
X135847695Y-73077438D01*
X135895314Y-73172676D01*
X135942933Y-73363152D01*
X135942933Y-73506009D01*
X135895314Y-73696485D01*
X135847695Y-73791723D01*
X135752457Y-73886961D01*
X135609600Y-73934580D01*
X135514361Y-73934580D01*
X135371504Y-73886961D01*
X135323885Y-73839342D01*
X135323885Y-73506009D01*
X135514361Y-73506009D01*
X134895314Y-73934580D02*
X134895314Y-72934580D01*
X134323885Y-73934580D01*
X134323885Y-72934580D01*
X133847695Y-73934580D02*
X133847695Y-72934580D01*
X133609600Y-72934580D01*
X133466742Y-72982200D01*
X133371504Y-73077438D01*
X133323885Y-73172676D01*
X133276266Y-73363152D01*
X133276266Y-73506009D01*
X133323885Y-73696485D01*
X133371504Y-73791723D01*
X133466742Y-73886961D01*
X133609600Y-73934580D01*
X133847695Y-73934580D01*
X152518423Y-128610304D02*
X152518423Y-129257923D01*
X152480328Y-129334114D01*
X152442233Y-129372209D01*
X152366042Y-129410304D01*
X152213661Y-129410304D01*
X152137471Y-129372209D01*
X152099376Y-129334114D01*
X152061280Y-129257923D01*
X152061280Y-128610304D01*
X151718423Y-129372209D02*
X151604138Y-129410304D01*
X151413661Y-129410304D01*
X151337471Y-129372209D01*
X151299376Y-129334114D01*
X151261280Y-129257923D01*
X151261280Y-129181733D01*
X151299376Y-129105542D01*
X151337471Y-129067447D01*
X151413661Y-129029352D01*
X151566042Y-128991257D01*
X151642233Y-128953161D01*
X151680328Y-128915066D01*
X151718423Y-128838876D01*
X151718423Y-128762685D01*
X151680328Y-128686495D01*
X151642233Y-128648400D01*
X151566042Y-128610304D01*
X151375566Y-128610304D01*
X151261280Y-128648400D01*
X150651757Y-128991257D02*
X150537471Y-129029352D01*
X150499376Y-129067447D01*
X150461280Y-129143638D01*
X150461280Y-129257923D01*
X150499376Y-129334114D01*
X150537471Y-129372209D01*
X150613661Y-129410304D01*
X150918423Y-129410304D01*
X150918423Y-128610304D01*
X150651757Y-128610304D01*
X150575566Y-128648400D01*
X150537471Y-128686495D01*
X150499376Y-128762685D01*
X150499376Y-128838876D01*
X150537471Y-128915066D01*
X150575566Y-128953161D01*
X150651757Y-128991257D01*
X150918423Y-128991257D01*
X150118423Y-129105542D02*
X149508900Y-129105542D01*
X148670804Y-129334114D02*
X148708900Y-129372209D01*
X148823185Y-129410304D01*
X148899376Y-129410304D01*
X149013661Y-129372209D01*
X149089852Y-129296019D01*
X149127947Y-129219828D01*
X149166042Y-129067447D01*
X149166042Y-128953161D01*
X149127947Y-128800780D01*
X149089852Y-128724590D01*
X149013661Y-128648400D01*
X148899376Y-128610304D01*
X148823185Y-128610304D01*
X148708900Y-128648400D01*
X148670804Y-128686495D01*
X148327947Y-129334114D02*
X148289852Y-129372209D01*
X148327947Y-129410304D01*
X148366042Y-129372209D01*
X148327947Y-129334114D01*
X148327947Y-129410304D01*
X148327947Y-128915066D02*
X148289852Y-128953161D01*
X148327947Y-128991257D01*
X148366042Y-128953161D01*
X148327947Y-128915066D01*
X148327947Y-128991257D01*
X152137471Y-129898304D02*
X152518423Y-129898304D01*
X152556519Y-130279257D01*
X152518423Y-130241161D01*
X152442233Y-130203066D01*
X152251757Y-130203066D01*
X152175566Y-130241161D01*
X152137471Y-130279257D01*
X152099376Y-130355447D01*
X152099376Y-130545923D01*
X152137471Y-130622114D01*
X152175566Y-130660209D01*
X152251757Y-130698304D01*
X152442233Y-130698304D01*
X152518423Y-130660209D01*
X152556519Y-130622114D01*
X151870804Y-129898304D02*
X151604138Y-130698304D01*
X151337471Y-129898304D01*
X151032709Y-130660209D02*
X151032709Y-130698304D01*
X151070804Y-130774495D01*
X151108900Y-130812590D01*
X150080328Y-130698304D02*
X150080328Y-130164971D01*
X150080328Y-130241161D02*
X150042233Y-130203066D01*
X149966042Y-130164971D01*
X149851757Y-130164971D01*
X149775566Y-130203066D01*
X149737471Y-130279257D01*
X149737471Y-130698304D01*
X149737471Y-130279257D02*
X149699376Y-130203066D01*
X149623185Y-130164971D01*
X149508900Y-130164971D01*
X149432709Y-130203066D01*
X149394614Y-130279257D01*
X149394614Y-130698304D01*
X148670804Y-130698304D02*
X148670804Y-130279257D01*
X148708900Y-130203066D01*
X148785090Y-130164971D01*
X148937471Y-130164971D01*
X149013661Y-130203066D01*
X148670804Y-130660209D02*
X148746995Y-130698304D01*
X148937471Y-130698304D01*
X149013661Y-130660209D01*
X149051757Y-130584019D01*
X149051757Y-130507828D01*
X149013661Y-130431638D01*
X148937471Y-130393542D01*
X148746995Y-130393542D01*
X148670804Y-130355447D01*
X148366042Y-130698304D02*
X147946995Y-130164971D01*
X148366042Y-130164971D02*
X147946995Y-130698304D01*
X147108900Y-129898304D02*
X146613661Y-129898304D01*
X146880328Y-130203066D01*
X146766042Y-130203066D01*
X146689852Y-130241161D01*
X146651757Y-130279257D01*
X146613661Y-130355447D01*
X146613661Y-130545923D01*
X146651757Y-130622114D01*
X146689852Y-130660209D01*
X146766042Y-130698304D01*
X146994614Y-130698304D01*
X147070804Y-130660209D01*
X147108900Y-130622114D01*
X146308900Y-130469733D02*
X145927947Y-130469733D01*
X146385090Y-130698304D02*
X146118423Y-129898304D01*
X145851757Y-130698304D01*
D11*
%TO.C,Status_LED1*%
X151325800Y-76317600D02*
X148525800Y-76317600D01*
X148525800Y-76317600D02*
X148525800Y-78317600D01*
X148525800Y-78317600D02*
X151325800Y-78317600D01*
X151325800Y-78317600D02*
X151325800Y-76317600D01*
%TO.C,logo*%
G36*
X143120700Y-111330538D02*
G01*
X143155219Y-111387711D01*
X143147706Y-111417877D01*
X143090533Y-111452397D01*
X143060367Y-111444883D01*
X143025847Y-111387711D01*
X143033361Y-111357544D01*
X143090533Y-111323025D01*
X143120700Y-111330538D01*
G37*
G36*
X141870126Y-106182651D02*
G01*
X141888890Y-106212826D01*
X141890142Y-106296187D01*
X141862082Y-106337227D01*
X141790504Y-106364997D01*
X141720524Y-106343422D01*
X141689005Y-106276170D01*
X141689128Y-106270418D01*
X141723295Y-106189418D01*
X141794887Y-106154348D01*
X141870126Y-106182651D01*
G37*
G36*
X140646423Y-110450295D02*
G01*
X140688945Y-110514451D01*
X140681684Y-110568092D01*
X140610907Y-110589918D01*
X140547869Y-110575577D01*
X140532868Y-110514451D01*
X140550016Y-110474834D01*
X140610907Y-110438984D01*
X140646423Y-110450295D01*
G37*
G36*
X138377066Y-109433085D02*
G01*
X138411586Y-109490257D01*
X138404072Y-109520424D01*
X138346900Y-109554943D01*
X138316733Y-109547430D01*
X138282214Y-109490257D01*
X138289727Y-109460091D01*
X138346900Y-109425571D01*
X138377066Y-109433085D01*
G37*
G36*
X143767559Y-109433085D02*
G01*
X143802078Y-109490257D01*
X143794565Y-109520424D01*
X143737392Y-109554943D01*
X143707226Y-109547430D01*
X143672706Y-109490257D01*
X143680220Y-109460091D01*
X143737392Y-109425571D01*
X143767559Y-109433085D01*
G37*
G36*
X140233596Y-106579616D02*
G01*
X140268501Y-106589143D01*
X140290593Y-106623916D01*
X140302777Y-106699183D01*
X140307958Y-106830192D01*
X140309039Y-107032193D01*
X140308996Y-107088917D01*
X140307182Y-107272168D01*
X140300558Y-107388152D01*
X140286222Y-107452119D01*
X140261268Y-107479317D01*
X140222791Y-107484994D01*
X140215926Y-107484910D01*
X140173292Y-107474217D01*
X140149364Y-107432650D01*
X140138870Y-107341767D01*
X140136543Y-107183127D01*
X140129676Y-107035261D01*
X140087848Y-106852527D01*
X140007119Y-106744368D01*
X139886424Y-106708763D01*
X139863878Y-106709623D01*
X139786583Y-106736302D01*
X139737909Y-106809815D01*
X139712575Y-106942984D01*
X139705304Y-107148627D01*
X139705067Y-107226648D01*
X139700971Y-107366005D01*
X139688272Y-107443812D01*
X139662467Y-107477624D01*
X139619056Y-107484994D01*
X139588366Y-107482192D01*
X139558279Y-107460278D01*
X139541560Y-107402254D01*
X139534354Y-107291416D01*
X139532808Y-107111055D01*
X139534169Y-106986410D01*
X139544265Y-106825881D01*
X139566643Y-106722575D01*
X139604178Y-106658254D01*
X139634298Y-106631866D01*
X139758389Y-106586099D01*
X139905760Y-106590664D01*
X140040700Y-106646523D01*
X140090097Y-106679420D01*
X140128748Y-106689547D01*
X140136543Y-106646523D01*
X140151666Y-106607453D01*
X140222791Y-106579391D01*
X140233596Y-106579616D01*
G37*
G36*
X136102731Y-109864109D02*
G01*
X136126017Y-109921497D01*
X136121152Y-109951254D01*
X136082893Y-109986183D01*
X136063055Y-109978885D01*
X136039769Y-109921497D01*
X136044634Y-109891739D01*
X136082893Y-109856811D01*
X136102731Y-109864109D01*
G37*
G36*
X146617390Y-101409921D02*
G01*
X146944261Y-101472905D01*
X147221655Y-101606205D01*
X147448769Y-101809346D01*
X147624797Y-102081854D01*
X147656287Y-102151563D01*
X147737381Y-102449536D01*
X147740934Y-102748319D01*
X147672764Y-103035635D01*
X147538689Y-103299204D01*
X147344523Y-103526747D01*
X147096085Y-103705986D01*
X146799192Y-103824641D01*
X146791932Y-103826490D01*
X146611420Y-103846128D01*
X146394441Y-103834901D01*
X146181136Y-103797245D01*
X146011649Y-103737596D01*
X145786785Y-103585753D01*
X145598162Y-103366812D01*
X145481031Y-103104441D01*
X145440788Y-102807432D01*
X145440788Y-102568865D01*
X146518886Y-102568865D01*
X146518886Y-102956981D01*
X146173895Y-102956981D01*
X146106065Y-102957168D01*
X145959101Y-102961066D01*
X145875344Y-102973076D01*
X145837657Y-102997193D01*
X145828903Y-103037413D01*
X145828936Y-103039627D01*
X145856166Y-103129591D01*
X145918959Y-103232332D01*
X145991061Y-103309119D01*
X146176609Y-103423999D01*
X146393118Y-103475880D01*
X146623671Y-103466597D01*
X146851352Y-103397984D01*
X147059244Y-103271876D01*
X147230431Y-103090108D01*
X147280423Y-103014890D01*
X147331123Y-102908768D01*
X147354283Y-102788839D01*
X147359803Y-102619055D01*
X147351923Y-102460013D01*
X147298869Y-102241064D01*
X147186751Y-102063407D01*
X147004994Y-101905783D01*
X146921149Y-101854317D01*
X146680807Y-101770124D01*
X146426675Y-101757832D01*
X146180413Y-101816613D01*
X145963680Y-101945638D01*
X145841904Y-102048105D01*
X145720238Y-101921113D01*
X145683974Y-101882831D01*
X145631119Y-101815077D01*
X145630652Y-101766790D01*
X145676429Y-101708089D01*
X145765216Y-101627928D01*
X145971284Y-101510740D01*
X146217524Y-101432806D01*
X146476547Y-101404519D01*
X146617390Y-101409921D01*
G37*
G36*
X141549581Y-109232891D02*
G01*
X141539845Y-109293331D01*
X141534759Y-109300954D01*
X141470554Y-109337524D01*
X141408511Y-109295895D01*
X141404959Y-109268559D01*
X141450950Y-109225882D01*
X141496353Y-109214503D01*
X141549581Y-109232891D01*
G37*
G36*
X143318053Y-109895270D02*
G01*
X143362573Y-109939824D01*
X143359824Y-109964302D01*
X143306153Y-109986183D01*
X143270549Y-109979146D01*
X143249732Y-109939824D01*
X143255589Y-109927039D01*
X143306153Y-109893466D01*
X143318053Y-109895270D01*
G37*
G36*
X137781740Y-109001498D02*
G01*
X137831082Y-109043361D01*
X137821053Y-109096127D01*
X137778636Y-109120784D01*
X137710637Y-109113262D01*
X137678479Y-109059018D01*
X137685668Y-109028907D01*
X137740620Y-108994332D01*
X137781740Y-109001498D01*
G37*
G36*
X136937753Y-108841120D02*
G01*
X136935257Y-108877138D01*
X136880686Y-108908084D01*
X136841029Y-108896750D01*
X136824210Y-108832617D01*
X136851176Y-108777982D01*
X136900435Y-108774881D01*
X136937753Y-108841120D01*
G37*
G36*
X141308061Y-110903791D02*
G01*
X141344014Y-110956471D01*
X141328006Y-110994193D01*
X141257766Y-111021157D01*
X141207470Y-111009151D01*
X141171518Y-110956471D01*
X141187526Y-110918750D01*
X141257766Y-110891785D01*
X141308061Y-110903791D01*
G37*
G36*
X137563333Y-108526451D02*
G01*
X137619413Y-108577009D01*
X137613793Y-108649341D01*
X137558908Y-108690745D01*
X137493548Y-108675592D01*
X137462859Y-108606217D01*
X137474622Y-108555874D01*
X137525000Y-108519969D01*
X137563333Y-108526451D01*
G37*
G36*
X139050826Y-110738574D02*
G01*
X139048330Y-110774591D01*
X138993759Y-110805537D01*
X138954102Y-110794203D01*
X138937283Y-110730071D01*
X138964249Y-110675435D01*
X139013508Y-110672334D01*
X139050826Y-110738574D01*
G37*
G36*
X140258307Y-108552842D02*
G01*
X140300830Y-108616998D01*
X140293569Y-108670639D01*
X140222791Y-108692464D01*
X140159754Y-108678124D01*
X140144753Y-108616998D01*
X140161901Y-108577380D01*
X140222791Y-108541531D01*
X140258307Y-108552842D01*
G37*
G36*
X142328256Y-110450295D02*
G01*
X142370779Y-110514451D01*
X142363518Y-110568092D01*
X142292740Y-110589918D01*
X142229703Y-110575577D01*
X142214702Y-110514451D01*
X142231850Y-110474834D01*
X142292740Y-110438984D01*
X142328256Y-110450295D01*
G37*
G36*
X138145234Y-110450295D02*
G01*
X138187757Y-110514451D01*
X138180496Y-110568092D01*
X138109718Y-110589918D01*
X138046681Y-110575577D01*
X138031680Y-110514451D01*
X138048828Y-110474834D01*
X138109718Y-110438984D01*
X138145234Y-110450295D01*
G37*
G36*
X142085725Y-109433085D02*
G01*
X142120245Y-109490257D01*
X142112731Y-109520424D01*
X142055559Y-109554943D01*
X142025392Y-109547430D01*
X141990873Y-109490257D01*
X141998386Y-109460091D01*
X142055559Y-109425571D01*
X142085725Y-109433085D01*
G37*
G36*
X136334029Y-108552842D02*
G01*
X136376551Y-108616998D01*
X136369291Y-108670639D01*
X136298513Y-108692464D01*
X136235475Y-108678124D01*
X136220474Y-108616998D01*
X136237622Y-108577380D01*
X136298513Y-108541531D01*
X136334029Y-108552842D01*
G37*
G36*
X140265410Y-102610358D02*
G01*
X140296207Y-102708304D01*
X140361197Y-102905149D01*
X140417002Y-103061135D01*
X140458493Y-103162324D01*
X140480538Y-103194778D01*
X140501671Y-103162819D01*
X140551601Y-103065488D01*
X140620510Y-102919823D01*
X140700182Y-102742732D01*
X140740325Y-102651855D01*
X140813859Y-102491777D01*
X140867950Y-102391955D01*
X140912501Y-102338989D01*
X140957417Y-102319479D01*
X141012602Y-102320027D01*
X141022618Y-102321121D01*
X141077174Y-102336026D01*
X141125685Y-102374923D01*
X141177949Y-102451720D01*
X141243767Y-102580323D01*
X141332938Y-102774641D01*
X141407684Y-102933883D01*
X141479989Y-103072805D01*
X141534622Y-103161063D01*
X141563515Y-103184318D01*
X141568201Y-103176969D01*
X141598407Y-103104226D01*
X141646561Y-102969752D01*
X141707080Y-102789555D01*
X141774382Y-102579646D01*
X141953619Y-102008254D01*
X142123180Y-102008254D01*
X142159226Y-102009179D01*
X142254519Y-102023183D01*
X142292740Y-102048676D01*
X142283189Y-102084086D01*
X142249933Y-102189117D01*
X142197570Y-102348699D01*
X142131048Y-102548219D01*
X142055314Y-102773059D01*
X141975314Y-103008607D01*
X141895996Y-103240245D01*
X141822306Y-103453359D01*
X141759193Y-103633334D01*
X141711602Y-103765554D01*
X141665960Y-103801972D01*
X141571768Y-103818695D01*
X141528248Y-103815255D01*
X141484534Y-103795693D01*
X141442196Y-103747157D01*
X141393072Y-103656794D01*
X141329001Y-103511754D01*
X141241819Y-103299186D01*
X141225915Y-103260069D01*
X141148251Y-103074103D01*
X141082835Y-102925521D01*
X141036134Y-102828606D01*
X141014618Y-102797638D01*
X141014009Y-102798372D01*
X140989084Y-102847623D01*
X140937961Y-102959238D01*
X140867751Y-103117418D01*
X140785568Y-103306366D01*
X140725978Y-103443572D01*
X140651781Y-103606354D01*
X140595685Y-103711107D01*
X140548679Y-103771218D01*
X140501751Y-103800077D01*
X140445890Y-103811074D01*
X140318066Y-103824251D01*
X140015034Y-102916252D01*
X139712003Y-102008254D01*
X140078896Y-102008254D01*
X140265410Y-102610358D01*
G37*
G36*
X138592686Y-109433085D02*
G01*
X138627205Y-109490257D01*
X138619692Y-109520424D01*
X138562520Y-109554943D01*
X138532353Y-109547430D01*
X138497834Y-109490257D01*
X138505347Y-109460091D01*
X138562520Y-109425571D01*
X138592686Y-109433085D01*
G37*
G36*
X137776908Y-108761537D02*
G01*
X137828467Y-108804439D01*
X137832392Y-108860139D01*
X137774361Y-108903251D01*
X137709227Y-108897722D01*
X137678479Y-108845943D01*
X137681350Y-108819385D01*
X137712881Y-108762541D01*
X137714578Y-108761535D01*
X137776908Y-108761537D01*
G37*
G36*
X139436508Y-111130345D02*
G01*
X139426772Y-111190784D01*
X139421686Y-111198408D01*
X139357481Y-111234977D01*
X139295438Y-111193348D01*
X139291886Y-111166013D01*
X139337877Y-111123335D01*
X139383280Y-111111956D01*
X139436508Y-111130345D01*
G37*
G36*
X135885323Y-109436369D02*
G01*
X135910397Y-109486664D01*
X135901523Y-109520222D01*
X135842118Y-109554943D01*
X135794999Y-109530051D01*
X135802240Y-109478377D01*
X135859188Y-109435454D01*
X135885323Y-109436369D01*
G37*
G36*
X139395828Y-108552842D02*
G01*
X139438351Y-108616998D01*
X139431090Y-108670639D01*
X139360312Y-108692464D01*
X139297275Y-108678124D01*
X139282274Y-108616998D01*
X139299422Y-108577380D01*
X139360312Y-108541531D01*
X139395828Y-108552842D01*
G37*
G36*
X138636901Y-108124299D02*
G01*
X138660444Y-108164555D01*
X138630850Y-108235272D01*
X138630636Y-108235529D01*
X138557624Y-108276666D01*
X138486619Y-108258543D01*
X138454710Y-108190572D01*
X138488055Y-108124599D01*
X138562764Y-108096983D01*
X138636901Y-108124299D01*
G37*
G36*
X143983179Y-109217465D02*
G01*
X144017698Y-109274638D01*
X144010184Y-109304804D01*
X143953012Y-109339324D01*
X143922845Y-109331810D01*
X143888326Y-109274638D01*
X143895840Y-109244471D01*
X143953012Y-109209952D01*
X143983179Y-109217465D01*
G37*
G36*
X138161447Y-110899299D02*
G01*
X138195966Y-110956471D01*
X138188453Y-110986638D01*
X138131280Y-111021157D01*
X138101114Y-111013644D01*
X138066594Y-110956471D01*
X138074108Y-110926305D01*
X138131280Y-110891785D01*
X138161447Y-110899299D01*
G37*
G36*
X140062418Y-110902096D02*
G01*
X140093419Y-110956471D01*
X140083993Y-110992703D01*
X140026456Y-111013538D01*
X139967690Y-110985344D01*
X139957200Y-110935937D01*
X140017952Y-110899995D01*
X140062418Y-110902096D01*
G37*
G36*
X142551484Y-109486664D02*
G01*
X142542609Y-109520222D01*
X142483204Y-109554943D01*
X142450763Y-109547723D01*
X142431995Y-109503734D01*
X142474623Y-109446969D01*
X142526346Y-109439439D01*
X142551484Y-109486664D01*
G37*
G36*
X139846799Y-109220263D02*
G01*
X139877800Y-109274638D01*
X139868374Y-109310869D01*
X139810836Y-109331705D01*
X139752070Y-109303511D01*
X139741580Y-109254104D01*
X139802333Y-109218161D01*
X139846799Y-109220263D01*
G37*
G36*
X142309753Y-109001498D02*
G01*
X142359095Y-109043361D01*
X142349066Y-109096127D01*
X142306649Y-109120784D01*
X142238651Y-109113262D01*
X142206492Y-109059018D01*
X142213682Y-109028907D01*
X142268633Y-108994332D01*
X142309753Y-109001498D01*
G37*
G36*
X143120700Y-109433085D02*
G01*
X143155219Y-109490257D01*
X143147706Y-109520424D01*
X143090533Y-109554943D01*
X143060367Y-109547430D01*
X143025847Y-109490257D01*
X143033361Y-109460091D01*
X143090533Y-109425571D01*
X143120700Y-109433085D01*
G37*
G36*
X143141132Y-110440884D02*
G01*
X143177734Y-110504449D01*
X143166622Y-110564140D01*
X143158564Y-110570592D01*
X143090533Y-110589918D01*
X143077118Y-110589095D01*
X143014444Y-110564140D01*
X143001305Y-110515371D01*
X143031876Y-110449411D01*
X143090533Y-110417422D01*
X143141132Y-110440884D01*
G37*
G36*
X141072055Y-112091084D02*
G01*
X141081612Y-112190665D01*
X141085270Y-112332219D01*
X141085308Y-112365425D01*
X141088917Y-112502684D01*
X141104683Y-112580781D01*
X141141414Y-112622608D01*
X141207916Y-112651060D01*
X141239519Y-112663291D01*
X141425294Y-112780674D01*
X141606797Y-112968121D01*
X141770821Y-113212458D01*
X141826023Y-113304353D01*
X141929234Y-113438547D01*
X142015910Y-113497802D01*
X142081363Y-113531399D01*
X142143483Y-113613876D01*
X142140181Y-113713505D01*
X142073022Y-113836735D01*
X141955076Y-113960973D01*
X141802539Y-114072338D01*
X141631608Y-114156948D01*
X141458483Y-114200922D01*
X141405160Y-114209225D01*
X141276735Y-114247414D01*
X141193693Y-114297899D01*
X141161545Y-114343437D01*
X141159968Y-114395124D01*
X141196792Y-114472930D01*
X141278150Y-114598694D01*
X141348006Y-114708050D01*
X141401465Y-114822507D01*
X141425003Y-114944278D01*
X141430261Y-115112700D01*
X141421695Y-115255221D01*
X141368298Y-115495414D01*
X141261556Y-115753403D01*
X141096342Y-116040627D01*
X140867530Y-116368526D01*
X140791919Y-116471409D01*
X140668652Y-116644752D01*
X140564202Y-116798250D01*
X140495365Y-116907575D01*
X140441579Y-117019274D01*
X140400388Y-117182840D01*
X140409711Y-117318987D01*
X140467355Y-117412115D01*
X140571127Y-117446624D01*
X140572554Y-117446629D01*
X140673760Y-117481793D01*
X140722230Y-117569355D01*
X140704419Y-117685083D01*
X140655880Y-117791616D01*
X139294833Y-117791616D01*
X138958145Y-117791368D01*
X138642914Y-117790160D01*
X138395341Y-117787451D01*
X138205480Y-117782705D01*
X138063387Y-117775387D01*
X137959116Y-117764962D01*
X137882723Y-117750892D01*
X137824263Y-117732644D01*
X137773790Y-117709680D01*
X137772478Y-117709006D01*
X137584361Y-117566939D01*
X137421347Y-117353531D01*
X137291365Y-117081885D01*
X137202340Y-116765104D01*
X137189052Y-116691493D01*
X137170081Y-116514480D01*
X137174392Y-116336395D01*
X137204506Y-116137623D01*
X137262947Y-115898549D01*
X137352236Y-115599559D01*
X137375968Y-115522143D01*
X137466904Y-115155355D01*
X137502436Y-114841965D01*
X137481949Y-114570809D01*
X137404833Y-114330723D01*
X137270472Y-114110542D01*
X137231724Y-114055034D01*
X137167746Y-113895001D01*
X137187850Y-113745858D01*
X137292364Y-113599958D01*
X137381176Y-113521629D01*
X137467312Y-113487070D01*
X137578714Y-113493736D01*
X137600152Y-113497604D01*
X137819513Y-113581038D01*
X138010839Y-113728888D01*
X138147618Y-113921231D01*
X138158021Y-113943370D01*
X138218379Y-114123083D01*
X138236979Y-114316076D01*
X138211667Y-114533374D01*
X138140290Y-114786004D01*
X138020694Y-115084991D01*
X137850725Y-115441361D01*
X137765077Y-115615265D01*
X137637020Y-115900824D01*
X137554872Y-116130707D01*
X137516145Y-116314662D01*
X137518352Y-116462432D01*
X137559002Y-116583763D01*
X137638099Y-116675651D01*
X137734051Y-116709938D01*
X137819428Y-116676065D01*
X137840375Y-116637645D01*
X137871946Y-116530398D01*
X137897687Y-116389426D01*
X137959667Y-116123602D01*
X138101369Y-115789966D01*
X138305138Y-115459998D01*
X138559643Y-115149154D01*
X138853552Y-114872886D01*
X139175534Y-114646649D01*
X139239839Y-114607850D01*
X139479887Y-114447201D01*
X139686227Y-114284354D01*
X139843919Y-114131931D01*
X139938022Y-114002552D01*
X139968795Y-113912825D01*
X140001039Y-113763147D01*
X140024421Y-113593944D01*
X140085513Y-113273805D01*
X140208700Y-112994871D01*
X140392197Y-112777279D01*
X140441932Y-112729640D01*
X140564905Y-112586343D01*
X140667366Y-112436284D01*
X140676548Y-112420761D01*
X140769354Y-112291548D01*
X140878028Y-112174234D01*
X140981721Y-112089025D01*
X141059584Y-112056132D01*
X141072055Y-112091084D01*
G37*
G36*
X136118409Y-108552842D02*
G01*
X136160931Y-108616998D01*
X136153671Y-108670639D01*
X136082893Y-108692464D01*
X136019856Y-108678124D01*
X136004855Y-108616998D01*
X136022003Y-108577380D01*
X136082893Y-108541531D01*
X136118409Y-108552842D01*
G37*
G36*
X135902789Y-108552842D02*
G01*
X135945312Y-108616998D01*
X135938051Y-108670639D01*
X135867273Y-108692464D01*
X135804236Y-108678124D01*
X135789235Y-108616998D01*
X135806383Y-108577380D01*
X135867273Y-108541531D01*
X135902789Y-108552842D01*
G37*
G36*
X142301345Y-109217465D02*
G01*
X142335864Y-109274638D01*
X142328351Y-109304804D01*
X142271178Y-109339324D01*
X142241012Y-109331810D01*
X142206492Y-109274638D01*
X142214006Y-109244471D01*
X142271178Y-109209952D01*
X142301345Y-109217465D01*
G37*
G36*
X138592686Y-111330538D02*
G01*
X138627205Y-111387711D01*
X138619692Y-111417877D01*
X138562520Y-111452397D01*
X138532353Y-111444883D01*
X138497834Y-111387711D01*
X138505347Y-111357544D01*
X138562520Y-111323025D01*
X138592686Y-111330538D01*
G37*
G36*
X141305934Y-110000300D02*
G01*
X141329032Y-110057981D01*
X141333287Y-110180240D01*
X141327481Y-110283421D01*
X141304676Y-110354748D01*
X141257766Y-110374298D01*
X141218999Y-110362947D01*
X141191441Y-110304861D01*
X141182245Y-110180240D01*
X141186143Y-110060567D01*
X141208566Y-110001278D01*
X141257766Y-109986183D01*
X141305934Y-110000300D01*
G37*
G36*
X143551939Y-110899299D02*
G01*
X143586458Y-110956471D01*
X143578945Y-110986638D01*
X143521773Y-111021157D01*
X143491606Y-111013644D01*
X143457087Y-110956471D01*
X143464600Y-110926305D01*
X143521773Y-110891785D01*
X143551939Y-110899299D01*
G37*
G36*
X139436508Y-109232891D02*
G01*
X139426772Y-109293331D01*
X139421686Y-109300954D01*
X139357481Y-109337524D01*
X139295438Y-109295895D01*
X139291886Y-109268559D01*
X139337877Y-109225882D01*
X139383280Y-109214503D01*
X139436508Y-109232891D01*
G37*
G36*
X143533673Y-109895270D02*
G01*
X143578193Y-109939824D01*
X143575443Y-109964302D01*
X143521773Y-109986183D01*
X143486169Y-109979146D01*
X143465352Y-109939824D01*
X143471208Y-109927039D01*
X143521773Y-109893466D01*
X143533673Y-109895270D01*
G37*
G36*
X141293282Y-108552842D02*
G01*
X141335804Y-108616998D01*
X141328544Y-108670639D01*
X141257766Y-108692464D01*
X141194728Y-108678124D01*
X141179727Y-108616998D01*
X141196875Y-108577380D01*
X141257766Y-108541531D01*
X141293282Y-108552842D01*
G37*
G36*
X138161447Y-111330538D02*
G01*
X138195966Y-111387711D01*
X138188453Y-111417877D01*
X138131280Y-111452397D01*
X138101114Y-111444883D01*
X138066594Y-111387711D01*
X138074108Y-111357544D01*
X138131280Y-111323025D01*
X138161447Y-111330538D01*
G37*
G36*
X136126017Y-109486664D02*
G01*
X136117143Y-109520222D01*
X136057737Y-109554943D01*
X136025296Y-109547723D01*
X136006528Y-109503734D01*
X136049156Y-109446969D01*
X136100879Y-109439439D01*
X136126017Y-109486664D01*
G37*
G36*
X135888516Y-109867826D02*
G01*
X135910397Y-109921497D01*
X135903361Y-109957100D01*
X135864039Y-109977917D01*
X135851254Y-109972061D01*
X135817681Y-109921497D01*
X135819485Y-109909597D01*
X135864039Y-109865076D01*
X135888516Y-109867826D01*
G37*
G36*
X143993237Y-110000665D02*
G01*
X144012515Y-110010762D01*
X144054243Y-110067633D01*
X144054363Y-110129591D01*
X144009073Y-110158678D01*
X143979071Y-110167696D01*
X144009073Y-110210427D01*
X144032719Y-110240308D01*
X144060822Y-110318237D01*
X144056511Y-110335032D01*
X144004529Y-110368289D01*
X143928345Y-110371602D01*
X143872155Y-110339896D01*
X143866620Y-110315751D01*
X143888705Y-110244314D01*
X143901914Y-110210421D01*
X143879062Y-110125954D01*
X143871418Y-110115586D01*
X143862125Y-110046199D01*
X143910831Y-109999003D01*
X143993237Y-110000665D01*
G37*
G36*
X136550609Y-108997689D02*
G01*
X136599259Y-109033413D01*
X136571631Y-109094955D01*
X136528029Y-109120454D01*
X136459919Y-109113318D01*
X136427885Y-109059018D01*
X136443893Y-109021296D01*
X136514132Y-108994332D01*
X136550609Y-108997689D01*
G37*
G36*
X139023926Y-111114919D02*
G01*
X139058445Y-111172091D01*
X139050931Y-111202258D01*
X138993759Y-111236777D01*
X138963592Y-111229263D01*
X138929073Y-111172091D01*
X138936587Y-111141924D01*
X138993759Y-111107405D01*
X139023926Y-111114919D01*
G37*
G36*
X139611448Y-110450295D02*
G01*
X139653970Y-110514451D01*
X139646710Y-110568092D01*
X139575932Y-110589918D01*
X139512895Y-110575577D01*
X139497894Y-110514451D01*
X139515042Y-110474834D01*
X139575932Y-110438984D01*
X139611448Y-110450295D01*
G37*
G36*
X140063356Y-110004996D02*
G01*
X140109422Y-110062381D01*
X140102685Y-110135057D01*
X140088484Y-110180611D01*
X140087055Y-110277269D01*
X140079234Y-110351016D01*
X140016138Y-110374298D01*
X139968362Y-110364144D01*
X139939859Y-110312904D01*
X139932685Y-110198192D01*
X139948731Y-110061146D01*
X139995842Y-109997851D01*
X140063356Y-110004996D01*
G37*
G36*
X142543876Y-110450295D02*
G01*
X142586398Y-110514451D01*
X142579138Y-110568092D01*
X142508360Y-110589918D01*
X142445323Y-110575577D01*
X142430322Y-110514451D01*
X142447470Y-110474834D01*
X142508360Y-110438984D01*
X142543876Y-110450295D01*
G37*
G36*
X141508901Y-110450295D02*
G01*
X141551424Y-110514451D01*
X141544163Y-110568092D01*
X141473385Y-110589918D01*
X141410348Y-110575577D01*
X141395347Y-110514451D01*
X141412495Y-110474834D01*
X141473385Y-110438984D01*
X141508901Y-110450295D01*
G37*
G36*
X136531145Y-109217118D02*
G01*
X136580488Y-109258981D01*
X136570459Y-109311747D01*
X136528042Y-109336404D01*
X136460043Y-109328882D01*
X136427885Y-109274638D01*
X136435074Y-109244527D01*
X136490025Y-109209952D01*
X136531145Y-109217118D01*
G37*
G36*
X137132094Y-108526451D02*
G01*
X137188174Y-108577009D01*
X137182553Y-108649341D01*
X137127668Y-108690745D01*
X137062308Y-108675592D01*
X137031620Y-108606217D01*
X137043383Y-108555874D01*
X137093761Y-108519969D01*
X137132094Y-108526451D01*
G37*
G36*
X142301345Y-109433085D02*
G01*
X142335864Y-109490257D01*
X142328351Y-109520424D01*
X142271178Y-109554943D01*
X142241012Y-109547430D01*
X142206492Y-109490257D01*
X142214006Y-109460091D01*
X142271178Y-109425571D01*
X142301345Y-109433085D01*
G37*
G36*
X141293282Y-110665915D02*
G01*
X141335804Y-110730071D01*
X141328544Y-110783712D01*
X141257766Y-110805537D01*
X141194728Y-110791197D01*
X141179727Y-110730071D01*
X141196875Y-110690453D01*
X141257766Y-110654604D01*
X141293282Y-110665915D01*
G37*
G36*
X144250498Y-103255391D02*
G01*
X144179794Y-103395248D01*
X144099854Y-103509915D01*
X143893993Y-103697889D01*
X143639758Y-103822048D01*
X143540804Y-103842252D01*
X143336267Y-103841435D01*
X143119534Y-103800349D01*
X142927965Y-103724134D01*
X142788601Y-103628154D01*
X142619908Y-103436177D01*
X142512952Y-103207276D01*
X142470753Y-102963383D01*
X142831130Y-102963383D01*
X142871630Y-103162082D01*
X142964306Y-103331492D01*
X143106174Y-103449844D01*
X143141332Y-103466052D01*
X143319239Y-103509018D01*
X143507475Y-103506984D01*
X143664523Y-103459251D01*
X143672002Y-103454979D01*
X143802298Y-103332846D01*
X143891571Y-103158145D01*
X143934396Y-102955749D01*
X143925351Y-102750527D01*
X143859011Y-102567353D01*
X143824570Y-102516751D01*
X143679202Y-102390352D01*
X143498958Y-102321980D01*
X143306342Y-102313711D01*
X143123855Y-102367618D01*
X142974000Y-102485776D01*
X142918598Y-102565188D01*
X142845791Y-102757162D01*
X142831130Y-102963383D01*
X142470753Y-102963383D01*
X142469757Y-102957628D01*
X142492348Y-102703412D01*
X142582749Y-102460806D01*
X142742986Y-102245987D01*
X142786855Y-102204406D01*
X143017817Y-102048679D01*
X143268380Y-101976061D01*
X143532695Y-101987443D01*
X143804916Y-102083721D01*
X143983093Y-102196216D01*
X144159176Y-102386358D01*
X144263580Y-102623495D01*
X144298003Y-102910475D01*
X144297813Y-102946081D01*
X144297182Y-102955749D01*
X144286497Y-103119371D01*
X144250498Y-103255391D01*
G37*
G36*
X143120700Y-109217465D02*
G01*
X143155219Y-109274638D01*
X143147706Y-109304804D01*
X143090533Y-109339324D01*
X143060367Y-109331810D01*
X143025847Y-109274638D01*
X143033361Y-109244471D01*
X143090533Y-109209952D01*
X143120700Y-109217465D01*
G37*
G36*
X143392401Y-108563093D02*
G01*
X143398863Y-108576674D01*
X143394768Y-108645509D01*
X143390847Y-108649947D01*
X143331633Y-108669158D01*
X143233200Y-108677053D01*
X143126795Y-108674204D01*
X143043668Y-108661182D01*
X143015066Y-108638560D01*
X143016090Y-108635292D01*
X143025847Y-108563093D01*
X143026121Y-108558040D01*
X143060574Y-108523281D01*
X143123534Y-108529579D01*
X143173187Y-108573874D01*
X143195178Y-108605587D01*
X143223499Y-108573874D01*
X143251033Y-108540682D01*
X143326755Y-108522391D01*
X143392401Y-108563093D01*
G37*
G36*
X143981664Y-110667131D02*
G01*
X144030039Y-110715109D01*
X144036240Y-110767300D01*
X143985569Y-110802138D01*
X143920161Y-110795648D01*
X143888326Y-110748039D01*
X143889969Y-110727162D01*
X143916701Y-110662165D01*
X143927404Y-110655282D01*
X143981664Y-110667131D01*
G37*
G36*
X133703475Y-103057980D02*
G01*
X133634069Y-103298840D01*
X133504086Y-103513884D01*
X133316911Y-103688393D01*
X133075927Y-103807648D01*
X132834762Y-103847170D01*
X132565713Y-103820841D01*
X132305252Y-103729198D01*
X132301417Y-103727276D01*
X132162136Y-103649500D01*
X132095690Y-103584896D01*
X132093866Y-103517960D01*
X132148451Y-103433187D01*
X132227370Y-103335726D01*
X132376269Y-103426498D01*
X132478348Y-103474506D01*
X132690153Y-103516303D01*
X132909085Y-103501609D01*
X133099155Y-103430238D01*
X133166442Y-103375908D01*
X133262515Y-103260111D01*
X133336482Y-103131174D01*
X133366085Y-103023052D01*
X133348651Y-103017931D01*
X133259778Y-103010852D01*
X133108440Y-103005201D01*
X132909070Y-103001459D01*
X132676102Y-103000105D01*
X131986119Y-103000105D01*
X131986119Y-102808854D01*
X131986229Y-102790225D01*
X131999596Y-102674533D01*
X132331110Y-102674533D01*
X132366877Y-102683349D01*
X132472726Y-102691078D01*
X132631786Y-102696311D01*
X132827036Y-102698237D01*
X133009558Y-102697259D01*
X133172843Y-102690871D01*
X133270092Y-102674660D01*
X133312599Y-102644253D01*
X133311657Y-102595275D01*
X133278559Y-102523353D01*
X133197258Y-102434213D01*
X133050555Y-102357776D01*
X132873788Y-102314635D01*
X132695527Y-102311361D01*
X132544341Y-102354524D01*
X132495190Y-102395280D01*
X132420173Y-102489116D01*
X132357411Y-102594311D01*
X132331110Y-102674533D01*
X131999596Y-102674533D01*
X132011283Y-102573380D01*
X132089690Y-102391752D01*
X132235141Y-102212559D01*
X132285801Y-102164447D01*
X132499788Y-102029160D01*
X132736367Y-101969377D01*
X132981016Y-101984768D01*
X133219216Y-102075006D01*
X133436445Y-102239761D01*
X133514388Y-102327684D01*
X133647019Y-102557683D01*
X133668598Y-102644253D01*
X133708920Y-102806021D01*
X133703475Y-103057980D01*
G37*
G36*
X143983179Y-111330538D02*
G01*
X144017698Y-111387711D01*
X144010184Y-111417877D01*
X143953012Y-111452397D01*
X143922845Y-111444883D01*
X143888326Y-111387711D01*
X143895840Y-111357544D01*
X143953012Y-111323025D01*
X143983179Y-111330538D01*
G37*
G36*
X135672897Y-109652206D02*
G01*
X135694778Y-109705877D01*
X135687741Y-109741481D01*
X135648419Y-109762297D01*
X135635634Y-109756441D01*
X135602061Y-109705877D01*
X135603865Y-109693977D01*
X135648419Y-109649457D01*
X135672897Y-109652206D01*
G37*
G36*
X142306814Y-109991574D02*
G01*
X142364511Y-110047625D01*
X142362601Y-110139181D01*
X142352005Y-110162008D01*
X142295962Y-110199208D01*
X142218487Y-110153424D01*
X142189371Y-110091834D01*
X142208564Y-110019400D01*
X142273247Y-109986183D01*
X142306814Y-109991574D01*
G37*
G36*
X138592686Y-109001846D02*
G01*
X138627205Y-109059018D01*
X138619692Y-109089185D01*
X138562520Y-109123704D01*
X138532353Y-109116190D01*
X138497834Y-109059018D01*
X138505347Y-109028851D01*
X138562520Y-108994332D01*
X138592686Y-109001846D01*
G37*
G36*
X143336319Y-111114919D02*
G01*
X143370839Y-111172091D01*
X143363325Y-111202258D01*
X143306153Y-111236777D01*
X143275986Y-111229263D01*
X143241467Y-111172091D01*
X143248980Y-111141924D01*
X143306153Y-111107405D01*
X143336319Y-111114919D01*
G37*
G36*
X139023926Y-110899299D02*
G01*
X139058445Y-110956471D01*
X139050931Y-110986638D01*
X138993759Y-111021157D01*
X138963592Y-111013644D01*
X138929073Y-110956471D01*
X138936587Y-110926305D01*
X138993759Y-110891785D01*
X139023926Y-110899299D01*
G37*
G36*
X141077662Y-108552842D02*
G01*
X141120184Y-108616998D01*
X141112924Y-108670639D01*
X141042146Y-108692464D01*
X140979109Y-108678124D01*
X140964108Y-108616998D01*
X140981256Y-108577380D01*
X141042146Y-108541531D01*
X141077662Y-108552842D01*
G37*
G36*
X138472689Y-101414415D02*
G01*
X138746643Y-101496470D01*
X138996157Y-101645368D01*
X139208639Y-101858011D01*
X139371494Y-102131298D01*
X139423773Y-102320259D01*
X139444568Y-102557711D01*
X139434828Y-102811020D01*
X139395790Y-103048205D01*
X139328692Y-103237286D01*
X139193374Y-103439115D01*
X138970731Y-103644478D01*
X138705578Y-103783193D01*
X138651989Y-103800484D01*
X138368344Y-103843485D01*
X138069135Y-103820757D01*
X137782021Y-103736724D01*
X137534660Y-103595813D01*
X137507681Y-103574053D01*
X137480146Y-103533306D01*
X137493830Y-103475906D01*
X137550788Y-103373493D01*
X137571363Y-103339081D01*
X137626677Y-103260774D01*
X137668652Y-103243999D01*
X137717748Y-103276921D01*
X137720587Y-103279476D01*
X137917517Y-103403613D01*
X138143979Y-103463618D01*
X138380166Y-103462102D01*
X138606273Y-103401678D01*
X138802492Y-103284958D01*
X138949017Y-103114553D01*
X138995275Y-103026096D01*
X139073988Y-102771076D01*
X139081871Y-102516263D01*
X139023803Y-102276154D01*
X138904667Y-102065243D01*
X138729342Y-101898026D01*
X138502708Y-101789000D01*
X138292890Y-101758881D01*
X138075892Y-101800550D01*
X137841479Y-101918758D01*
X137644260Y-102043831D01*
X137521217Y-101914696D01*
X137398173Y-101785562D01*
X137527545Y-101677527D01*
X137630133Y-101600301D01*
X137901840Y-101463231D01*
X138186891Y-101402302D01*
X138472689Y-101414415D01*
G37*
G36*
X143120700Y-109001846D02*
G01*
X143155219Y-109059018D01*
X143147706Y-109089185D01*
X143090533Y-109123704D01*
X143060367Y-109116190D01*
X143025847Y-109059018D01*
X143033361Y-109028851D01*
X143090533Y-108994332D01*
X143120700Y-109001846D01*
G37*
G36*
X140862042Y-110450295D02*
G01*
X140904565Y-110514451D01*
X140897304Y-110568092D01*
X140826526Y-110589918D01*
X140763489Y-110575577D01*
X140748488Y-110514451D01*
X140765636Y-110474834D01*
X140826526Y-110438984D01*
X140862042Y-110450295D01*
G37*
G36*
X140647383Y-108997689D02*
G01*
X140696034Y-109033413D01*
X140668405Y-109094955D01*
X140624804Y-109120454D01*
X140556693Y-109113318D01*
X140524659Y-109059018D01*
X140540667Y-109021296D01*
X140610907Y-108994332D01*
X140647383Y-108997689D01*
G37*
G36*
X143551939Y-109433085D02*
G01*
X143586458Y-109490257D01*
X143578945Y-109520424D01*
X143521773Y-109554943D01*
X143491606Y-109547430D01*
X143457087Y-109490257D01*
X143464600Y-109460091D01*
X143521773Y-109425571D01*
X143551939Y-109433085D01*
G37*
G36*
X139846799Y-109004643D02*
G01*
X139877800Y-109059018D01*
X139868374Y-109095249D01*
X139810836Y-109116085D01*
X139752070Y-109087891D01*
X139741580Y-109038484D01*
X139802333Y-109002542D01*
X139846799Y-109004643D01*
G37*
G36*
X138161447Y-111114919D02*
G01*
X138195966Y-111172091D01*
X138188453Y-111202258D01*
X138131280Y-111236777D01*
X138101114Y-111229263D01*
X138066594Y-111172091D01*
X138074108Y-111141924D01*
X138131280Y-111107405D01*
X138161447Y-111114919D01*
G37*
G36*
X141102189Y-111361131D02*
G01*
X141104990Y-111412252D01*
X141098377Y-111421349D01*
X141042146Y-111452397D01*
X141007818Y-111442965D01*
X140975369Y-111394684D01*
X140998319Y-111345021D01*
X141050346Y-111333820D01*
X141102189Y-111361131D01*
G37*
G36*
X143988800Y-110423904D02*
G01*
X144044880Y-110474462D01*
X144039260Y-110546794D01*
X143984375Y-110588199D01*
X143919014Y-110573046D01*
X143888326Y-110503670D01*
X143900089Y-110453327D01*
X143950467Y-110417422D01*
X143988800Y-110423904D01*
G37*
G36*
X142361695Y-110694072D02*
G01*
X142359748Y-110758656D01*
X142302541Y-110800887D01*
X142237355Y-110795104D01*
X142206492Y-110743397D01*
X142210169Y-110717067D01*
X142253374Y-110652281D01*
X142313184Y-110648242D01*
X142361695Y-110694072D01*
G37*
G36*
X142564475Y-106601401D02*
G01*
X142680856Y-106665639D01*
X142707049Y-106694292D01*
X142763236Y-106811800D01*
X142736049Y-106923374D01*
X142627804Y-107024712D01*
X142440814Y-107111514D01*
X142397407Y-107127995D01*
X142296070Y-107191064D01*
X142278346Y-107258878D01*
X142345548Y-107328448D01*
X142434537Y-107352829D01*
X142559368Y-107322723D01*
X142668943Y-107296839D01*
X142741302Y-107309462D01*
X142756374Y-107353306D01*
X142700100Y-107418775D01*
X142585201Y-107468855D01*
X142435181Y-107483617D01*
X142290685Y-107461131D01*
X142188382Y-107402560D01*
X142155896Y-107358164D01*
X142123876Y-107230328D01*
X142164160Y-107106496D01*
X142271178Y-107012881D01*
X142304500Y-106996022D01*
X142452269Y-106917274D01*
X142536553Y-106860981D01*
X142570448Y-106816545D01*
X142567046Y-106773363D01*
X142514690Y-106722630D01*
X142411279Y-106713382D01*
X142285275Y-106755882D01*
X142211744Y-106779045D01*
X142146181Y-106761253D01*
X142130339Y-106708542D01*
X142182392Y-106641174D01*
X142259980Y-106602383D01*
X142411136Y-106579675D01*
X142564475Y-106601401D01*
G37*
G36*
X138562297Y-111758716D02*
G01*
X138606005Y-111802303D01*
X138597284Y-111856059D01*
X138583857Y-111867767D01*
X138524317Y-111878424D01*
X138497834Y-111818950D01*
X138502399Y-111789231D01*
X138538413Y-111754264D01*
X138562297Y-111758716D01*
G37*
G36*
X141432474Y-107213477D02*
G01*
X141355407Y-107351383D01*
X141260154Y-107440592D01*
X141123885Y-107478653D01*
X140959925Y-107478168D01*
X140820517Y-107438654D01*
X140773395Y-107417014D01*
X140744609Y-107431237D01*
X140747885Y-107513802D01*
X140761107Y-107569812D01*
X140838637Y-107670093D01*
X140967351Y-107716227D01*
X141130435Y-107700029D01*
X141245080Y-107682012D01*
X141321191Y-107699852D01*
X141337835Y-107746178D01*
X141281866Y-107811327D01*
X141259105Y-107824774D01*
X141146673Y-107859281D01*
X141009025Y-107873110D01*
X140923779Y-107869286D01*
X140803277Y-107834256D01*
X140693837Y-107747055D01*
X140641525Y-107692243D01*
X140605713Y-107639351D01*
X140583907Y-107571530D01*
X140572633Y-107470950D01*
X140568416Y-107319782D01*
X140567783Y-107100196D01*
X140567924Y-107032193D01*
X140740278Y-107032193D01*
X140755112Y-107144004D01*
X140794183Y-107237210D01*
X140857127Y-107289720D01*
X140964509Y-107335830D01*
X141063908Y-107331598D01*
X141178976Y-107267454D01*
X141266264Y-107160166D01*
X141300890Y-107032193D01*
X141276246Y-106924456D01*
X141195913Y-106812220D01*
X141083706Y-106739432D01*
X140964509Y-106728555D01*
X140868422Y-106766226D01*
X140772125Y-106870696D01*
X140740278Y-107032193D01*
X140567924Y-107032193D01*
X140568108Y-106943122D01*
X140570885Y-106774184D01*
X140578507Y-106667590D01*
X140593332Y-106609092D01*
X140617720Y-106584442D01*
X140654031Y-106579391D01*
X140704174Y-106587768D01*
X140740278Y-106624033D01*
X140755038Y-106646647D01*
X140823691Y-106624033D01*
X140823806Y-106623972D01*
X140960771Y-106585834D01*
X141123390Y-106585765D01*
X141260154Y-106623794D01*
X141282869Y-106638199D01*
X141375645Y-106742065D01*
X141445684Y-106885909D01*
X141473385Y-107032193D01*
X141471756Y-107064414D01*
X141432474Y-107213477D01*
G37*
G36*
X139827068Y-108768462D02*
G01*
X139869590Y-108832617D01*
X139862330Y-108886258D01*
X139791552Y-108908084D01*
X139728515Y-108893744D01*
X139713513Y-108832617D01*
X139730661Y-108793000D01*
X139791552Y-108757150D01*
X139827068Y-108768462D01*
G37*
G36*
X139044358Y-110440884D02*
G01*
X139080960Y-110504449D01*
X139069848Y-110564140D01*
X139061790Y-110570592D01*
X138993759Y-110589918D01*
X138980344Y-110589095D01*
X138917670Y-110564140D01*
X138904530Y-110515371D01*
X138935101Y-110449411D01*
X138993759Y-110417422D01*
X139044358Y-110440884D01*
G37*
G36*
X143773181Y-108526451D02*
G01*
X143829260Y-108577009D01*
X143823640Y-108649341D01*
X143768755Y-108690745D01*
X143703395Y-108675592D01*
X143672706Y-108606217D01*
X143684469Y-108555874D01*
X143734847Y-108519969D01*
X143773181Y-108526451D01*
G37*
G36*
X140274520Y-109217465D02*
G01*
X140309039Y-109274638D01*
X140301526Y-109304804D01*
X140244353Y-109339324D01*
X140214187Y-109331810D01*
X140179667Y-109274638D01*
X140187181Y-109244471D01*
X140244353Y-109209952D01*
X140274520Y-109217465D01*
G37*
G36*
X143780516Y-107038562D02*
G01*
X143772387Y-107162396D01*
X143731955Y-107261645D01*
X143639683Y-107359160D01*
X143594762Y-107396868D01*
X143467907Y-107466205D01*
X143313715Y-107484994D01*
X143293034Y-107484685D01*
X143154042Y-107465840D01*
X143048334Y-107424755D01*
X142993469Y-107371173D01*
X143007007Y-107314836D01*
X143072786Y-107289928D01*
X143188031Y-107315365D01*
X143276579Y-107333855D01*
X143415839Y-107317410D01*
X143525253Y-107252571D01*
X143578677Y-107150380D01*
X143581906Y-107119377D01*
X143571963Y-107082676D01*
X143527495Y-107063057D01*
X143431263Y-107055192D01*
X143266028Y-107053755D01*
X142939599Y-107053755D01*
X142939599Y-106922423D01*
X142951087Y-106870478D01*
X143122740Y-106870478D01*
X143130775Y-106897967D01*
X143200428Y-106918176D01*
X143345683Y-106924383D01*
X143349229Y-106924380D01*
X143502906Y-106915331D01*
X143573728Y-106887372D01*
X143563413Y-106838379D01*
X143473679Y-106766228D01*
X143413090Y-106730267D01*
X143339065Y-106716429D01*
X143250736Y-106754453D01*
X143170726Y-106811441D01*
X143122740Y-106870478D01*
X142951087Y-106870478D01*
X142970917Y-106780808D01*
X143063250Y-106665475D01*
X143197267Y-106595114D01*
X143353413Y-106575499D01*
X143512128Y-106612401D01*
X143653857Y-106711595D01*
X143711833Y-106778898D01*
X143764824Y-106887372D01*
X143766379Y-106890555D01*
X143780516Y-107038562D01*
G37*
G36*
X141333961Y-111130345D02*
G01*
X141324225Y-111190784D01*
X141319139Y-111198408D01*
X141254934Y-111234977D01*
X141192892Y-111193348D01*
X141189339Y-111166013D01*
X141235330Y-111123335D01*
X141280733Y-111111956D01*
X141333961Y-111130345D01*
G37*
G36*
X143983179Y-109001846D02*
G01*
X144017698Y-109059018D01*
X144010184Y-109089185D01*
X143953012Y-109123704D01*
X143922845Y-109116190D01*
X143888326Y-109059018D01*
X143895840Y-109028851D01*
X143953012Y-108994332D01*
X143983179Y-109001846D01*
G37*
G36*
X136910853Y-109217465D02*
G01*
X136945372Y-109274638D01*
X136937858Y-109304804D01*
X136880686Y-109339324D01*
X136850519Y-109331810D01*
X136816000Y-109274638D01*
X136823514Y-109244471D01*
X136880686Y-109209952D01*
X136910853Y-109217465D01*
G37*
G36*
X138808306Y-111330538D02*
G01*
X138842825Y-111387711D01*
X138835312Y-111417877D01*
X138778139Y-111452397D01*
X138747973Y-111444883D01*
X138713453Y-111387711D01*
X138720967Y-111357544D01*
X138778139Y-111323025D01*
X138808306Y-111330538D01*
G37*
G36*
X142533017Y-108104984D02*
G01*
X142580125Y-108156314D01*
X142584406Y-108169300D01*
X142577493Y-108248891D01*
X142524491Y-108289791D01*
X142452315Y-108268396D01*
X142389901Y-108238757D01*
X142354859Y-108275438D01*
X142362886Y-108375437D01*
X142368639Y-108401162D01*
X142361488Y-108462018D01*
X142294329Y-108476845D01*
X142290348Y-108476822D01*
X142222112Y-108455534D01*
X142212857Y-108379816D01*
X142214786Y-108313717D01*
X142197226Y-108237604D01*
X142188470Y-108207568D01*
X142208022Y-108129794D01*
X142215475Y-108118507D01*
X142260798Y-108089473D01*
X142334548Y-108121438D01*
X142392488Y-108147617D01*
X142422112Y-108132219D01*
X142425334Y-108114930D01*
X142468700Y-108089250D01*
X142533017Y-108104984D01*
G37*
G36*
X138592686Y-109217465D02*
G01*
X138627205Y-109274638D01*
X138619692Y-109304804D01*
X138562520Y-109339324D01*
X138532353Y-109331810D01*
X138497834Y-109274638D01*
X138505347Y-109244471D01*
X138562520Y-109209952D01*
X138592686Y-109217465D01*
G37*
G36*
X141508901Y-108768462D02*
G01*
X141551424Y-108832617D01*
X141544163Y-108886258D01*
X141473385Y-108908084D01*
X141410348Y-108893744D01*
X141395347Y-108832617D01*
X141412495Y-108793000D01*
X141473385Y-108757150D01*
X141508901Y-108768462D01*
G37*
G36*
X138211405Y-107347798D02*
G01*
X138120500Y-107438416D01*
X138094268Y-107451108D01*
X137958454Y-107479667D01*
X137802929Y-107476152D01*
X137675644Y-107440353D01*
X137618629Y-107417738D01*
X137592231Y-107440353D01*
X137576048Y-107466307D01*
X137505983Y-107484994D01*
X137491331Y-107484512D01*
X137462336Y-107474953D01*
X137442445Y-107443208D01*
X137429947Y-107376466D01*
X137423135Y-107261915D01*
X137420300Y-107086742D01*
X137420116Y-107005680D01*
X137592809Y-107005680D01*
X137605468Y-107146572D01*
X137678479Y-107269374D01*
X137756192Y-107326514D01*
X137846197Y-107355622D01*
X137854317Y-107355427D01*
X137974204Y-107311936D01*
X138076286Y-107209880D01*
X138134521Y-107074636D01*
X138134237Y-106974988D01*
X138081781Y-106845104D01*
X137986976Y-106747353D01*
X137869407Y-106708763D01*
X137836378Y-106711039D01*
X137716321Y-106764257D01*
X137632446Y-106870356D01*
X137592809Y-107005680D01*
X137420116Y-107005680D01*
X137419735Y-106838135D01*
X137419799Y-106728243D01*
X137421074Y-106510786D01*
X137425307Y-106361596D01*
X137434206Y-106267863D01*
X137449479Y-106216773D01*
X137472835Y-106195515D01*
X137505983Y-106191276D01*
X137536868Y-106193943D01*
X137572536Y-106220494D01*
X137588535Y-106292375D01*
X137592231Y-106429975D01*
X137593662Y-106545815D01*
X137603245Y-106622197D01*
X137628182Y-106642708D01*
X137675644Y-106624033D01*
X137675758Y-106623972D01*
X137812723Y-106585834D01*
X137975342Y-106585765D01*
X138112107Y-106623794D01*
X138134822Y-106638199D01*
X138227597Y-106742065D01*
X138297636Y-106885909D01*
X138325338Y-107032193D01*
X138323759Y-107063251D01*
X138320801Y-107074636D01*
X138285683Y-107209803D01*
X138211405Y-107347798D01*
G37*
G36*
X142328256Y-108552842D02*
G01*
X142370779Y-108616998D01*
X142363518Y-108670639D01*
X142292740Y-108692464D01*
X142229703Y-108678124D01*
X142214702Y-108616998D01*
X142231850Y-108577380D01*
X142292740Y-108541531D01*
X142328256Y-108552842D01*
G37*
G36*
X144854303Y-107172683D02*
G01*
X144811385Y-107294064D01*
X144732376Y-107385428D01*
X144632710Y-107444757D01*
X144485489Y-107482337D01*
X144342056Y-107478830D01*
X144236552Y-107431089D01*
X144188443Y-107398810D01*
X144159647Y-107431089D01*
X144135429Y-107460468D01*
X144057228Y-107484994D01*
X144046587Y-107484676D01*
X144017782Y-107475437D01*
X143997874Y-107443823D01*
X143985232Y-107377060D01*
X143978223Y-107262373D01*
X143975214Y-107086990D01*
X143975074Y-107032610D01*
X144147070Y-107032610D01*
X144173452Y-107133796D01*
X144236447Y-107241997D01*
X144238524Y-107244604D01*
X144329516Y-107323170D01*
X144422988Y-107355622D01*
X144476300Y-107346623D01*
X144587025Y-107278894D01*
X144673062Y-107169000D01*
X144707681Y-107046010D01*
X144694657Y-106965704D01*
X144630599Y-106841651D01*
X144533737Y-106746658D01*
X144427375Y-106708763D01*
X144362448Y-106724188D01*
X144259581Y-106799566D01*
X144179394Y-106911919D01*
X144147070Y-107032193D01*
X144147070Y-107032610D01*
X143975074Y-107032610D01*
X143974574Y-106838135D01*
X143974638Y-106728243D01*
X143975913Y-106510786D01*
X143980145Y-106361596D01*
X143989044Y-106267863D01*
X144004318Y-106216773D01*
X144027674Y-106195515D01*
X144060822Y-106191276D01*
X144091080Y-106193806D01*
X144127140Y-106219987D01*
X144143326Y-106291391D01*
X144147070Y-106428458D01*
X144150340Y-106523047D01*
X144170458Y-106632853D01*
X144206310Y-106667819D01*
X144254879Y-106622515D01*
X144263956Y-106613725D01*
X144338865Y-106589230D01*
X144454799Y-106579391D01*
X144517249Y-106581977D01*
X144642284Y-106617597D01*
X144759418Y-106710742D01*
X144804494Y-106757599D01*
X144859428Y-106836317D01*
X144877237Y-106926107D01*
X144870464Y-107046010D01*
X144869449Y-107063977D01*
X144854303Y-107172683D01*
G37*
G36*
X141317809Y-109463678D02*
G01*
X141320610Y-109514799D01*
X141313997Y-109523896D01*
X141257766Y-109554943D01*
X141223437Y-109545512D01*
X141190989Y-109497231D01*
X141213938Y-109447568D01*
X141265965Y-109436367D01*
X141317809Y-109463678D01*
G37*
G36*
X141523681Y-109006338D02*
G01*
X141559633Y-109059018D01*
X141543625Y-109096740D01*
X141473385Y-109123704D01*
X141423090Y-109111698D01*
X141387138Y-109059018D01*
X141403146Y-109021296D01*
X141473385Y-108994332D01*
X141523681Y-109006338D01*
G37*
G36*
X141786058Y-106579616D02*
G01*
X141820963Y-106589143D01*
X141843055Y-106623916D01*
X141855239Y-106699183D01*
X141860419Y-106830192D01*
X141861501Y-107032193D01*
X141861458Y-107088917D01*
X141859643Y-107272168D01*
X141853020Y-107388152D01*
X141838684Y-107452119D01*
X141813729Y-107479317D01*
X141775253Y-107484994D01*
X141764448Y-107484770D01*
X141729543Y-107475243D01*
X141707451Y-107440470D01*
X141695267Y-107365203D01*
X141690087Y-107234193D01*
X141689005Y-107032193D01*
X141689048Y-106975468D01*
X141690863Y-106792218D01*
X141697486Y-106676234D01*
X141711822Y-106612267D01*
X141736777Y-106585069D01*
X141775253Y-106579391D01*
X141786058Y-106579616D01*
G37*
G36*
X138131057Y-111543097D02*
G01*
X138174766Y-111586683D01*
X138166044Y-111640439D01*
X138152617Y-111652148D01*
X138093078Y-111662804D01*
X138066594Y-111603330D01*
X138071160Y-111573611D01*
X138107173Y-111538644D01*
X138131057Y-111543097D01*
G37*
G36*
X140886570Y-109463678D02*
G01*
X140889371Y-109514799D01*
X140882757Y-109523896D01*
X140826526Y-109554943D01*
X140792198Y-109545512D01*
X140759749Y-109497231D01*
X140782699Y-109447568D01*
X140834726Y-109436367D01*
X140886570Y-109463678D01*
G37*
G36*
X143981664Y-108769678D02*
G01*
X144030039Y-108817656D01*
X144036240Y-108869846D01*
X143985569Y-108904684D01*
X143920161Y-108898194D01*
X143888326Y-108850586D01*
X143889969Y-108829709D01*
X143916701Y-108764712D01*
X143927404Y-108757828D01*
X143981664Y-108769678D01*
G37*
G36*
X143983179Y-111114919D02*
G01*
X144017698Y-111172091D01*
X144010184Y-111202258D01*
X143953012Y-111236777D01*
X143922845Y-111229263D01*
X143888326Y-111172091D01*
X143895840Y-111141924D01*
X143953012Y-111107405D01*
X143983179Y-111114919D01*
G37*
G36*
X134091649Y-101983563D02*
G01*
X134233464Y-102039339D01*
X134373601Y-102126361D01*
X134492483Y-102238041D01*
X134570686Y-102331683D01*
X134572120Y-102169969D01*
X134572988Y-102117969D01*
X134586267Y-102041458D01*
X134635588Y-102012666D01*
X134746051Y-102008254D01*
X134918547Y-102008254D01*
X134918547Y-103819459D01*
X134573555Y-103819459D01*
X134573394Y-103269629D01*
X134573362Y-103235525D01*
X134571056Y-103008071D01*
X134563522Y-102846609D01*
X134548517Y-102733178D01*
X134523799Y-102649819D01*
X134487126Y-102578571D01*
X134402025Y-102473954D01*
X134238546Y-102379700D01*
X134039170Y-102361710D01*
X133961083Y-102362885D01*
X133907902Y-102327330D01*
X133872979Y-102229396D01*
X133870493Y-102219482D01*
X133852724Y-102104697D01*
X133858061Y-102024557D01*
X133881299Y-101992102D01*
X133967735Y-101965621D01*
X134091649Y-101983563D01*
G37*
G36*
X140627920Y-111114571D02*
G01*
X140677262Y-111156434D01*
X140667233Y-111209200D01*
X140624816Y-111233857D01*
X140556817Y-111226335D01*
X140524659Y-111172091D01*
X140531848Y-111141980D01*
X140586800Y-111107405D01*
X140627920Y-111114571D01*
G37*
G36*
X139616016Y-109427018D02*
G01*
X139660900Y-109463075D01*
X139633431Y-109526194D01*
X139618717Y-109538945D01*
X139559076Y-109549651D01*
X139532808Y-109490257D01*
X139540322Y-109460091D01*
X139597494Y-109425571D01*
X139616016Y-109427018D01*
G37*
G36*
X139827068Y-110450295D02*
G01*
X139869590Y-110514451D01*
X139862330Y-110568092D01*
X139791552Y-110589918D01*
X139728515Y-110575577D01*
X139713513Y-110514451D01*
X139730661Y-110474834D01*
X139791552Y-110438984D01*
X139827068Y-110450295D01*
G37*
G36*
X137773331Y-109217465D02*
G01*
X137807851Y-109274638D01*
X137800337Y-109304804D01*
X137743165Y-109339324D01*
X137712998Y-109331810D01*
X137678479Y-109274638D01*
X137685992Y-109244471D01*
X137743165Y-109209952D01*
X137773331Y-109217465D01*
G37*
G36*
X143336319Y-109433085D02*
G01*
X143370839Y-109490257D01*
X143363325Y-109520424D01*
X143306153Y-109554943D01*
X143275986Y-109547430D01*
X143241467Y-109490257D01*
X143248980Y-109460091D01*
X143306153Y-109425571D01*
X143336319Y-109433085D01*
G37*
G36*
X143363220Y-110738574D02*
G01*
X143360724Y-110774591D01*
X143306153Y-110805537D01*
X143266496Y-110794203D01*
X143249676Y-110730071D01*
X143276642Y-110675435D01*
X143325902Y-110672334D01*
X143363220Y-110738574D01*
G37*
G36*
X138377066Y-111330538D02*
G01*
X138411586Y-111387711D01*
X138404072Y-111417877D01*
X138346900Y-111452397D01*
X138316733Y-111444883D01*
X138282214Y-111387711D01*
X138289727Y-111357544D01*
X138346900Y-111323025D01*
X138377066Y-111330538D01*
G37*
G36*
X142309753Y-110898952D02*
G01*
X142359095Y-110940814D01*
X142349066Y-110993580D01*
X142306649Y-111018237D01*
X142238651Y-111010716D01*
X142206492Y-110956471D01*
X142213682Y-110926361D01*
X142268633Y-110891785D01*
X142309753Y-110898952D01*
G37*
G36*
X136681367Y-107302642D02*
G01*
X136672837Y-107401582D01*
X136658182Y-107456438D01*
X136635772Y-107479984D01*
X136603974Y-107484994D01*
X136555711Y-107476225D01*
X136501555Y-107431089D01*
X136475827Y-107398810D01*
X136424650Y-107431089D01*
X136414775Y-107438798D01*
X136324684Y-107471658D01*
X136201581Y-107484994D01*
X136067303Y-107461577D01*
X135927333Y-107371704D01*
X135833337Y-107230225D01*
X135795512Y-107054023D01*
X135798723Y-107032193D01*
X135953521Y-107032193D01*
X135953584Y-107036100D01*
X135985829Y-107144672D01*
X136059371Y-107249773D01*
X136079923Y-107269753D01*
X136183612Y-107341687D01*
X136281281Y-107340073D01*
X136400507Y-107266245D01*
X136425893Y-107243073D01*
X136497135Y-107121504D01*
X136518055Y-106979485D01*
X136481129Y-106855372D01*
X136480069Y-106853822D01*
X136407674Y-106790734D01*
X136302704Y-106733631D01*
X136213140Y-106708763D01*
X136136911Y-106741854D01*
X136051039Y-106826711D01*
X135981904Y-106933464D01*
X135953521Y-107032193D01*
X135798723Y-107032193D01*
X135824056Y-106859980D01*
X135827830Y-106849087D01*
X135889803Y-106729269D01*
X135966417Y-106644211D01*
X135991450Y-106629498D01*
X136101568Y-106594502D01*
X136229695Y-106580575D01*
X136342418Y-106589363D01*
X136406323Y-106622515D01*
X136435544Y-106658619D01*
X136477193Y-106657245D01*
X136504395Y-106578715D01*
X136514132Y-106428458D01*
X136515052Y-106345248D01*
X136524573Y-106246081D01*
X136550538Y-106201571D01*
X136600380Y-106191276D01*
X136615033Y-106191758D01*
X136644027Y-106201317D01*
X136663919Y-106233062D01*
X136676417Y-106299804D01*
X136683229Y-106414355D01*
X136686063Y-106589528D01*
X136686628Y-106838135D01*
X136686588Y-106921415D01*
X136686284Y-106979485D01*
X136685407Y-107146844D01*
X136681367Y-107302642D01*
G37*
G36*
X143147600Y-108841120D02*
G01*
X143145104Y-108877138D01*
X143090533Y-108908084D01*
X143050876Y-108896750D01*
X143034057Y-108832617D01*
X143061023Y-108777982D01*
X143110283Y-108774881D01*
X143147600Y-108841120D01*
G37*
G36*
X139395828Y-108768462D02*
G01*
X139438351Y-108832617D01*
X139431090Y-108886258D01*
X139360312Y-108908084D01*
X139297275Y-108893744D01*
X139282274Y-108832617D01*
X139299422Y-108793000D01*
X139360312Y-108757150D01*
X139395828Y-108768462D01*
G37*
G36*
X140042687Y-110450295D02*
G01*
X140085210Y-110514451D01*
X140077949Y-110568092D01*
X140007171Y-110589918D01*
X139944134Y-110575577D01*
X139929133Y-110514451D01*
X139946281Y-110474834D01*
X140007171Y-110438984D01*
X140042687Y-110450295D01*
G37*
G36*
X136549648Y-108768462D02*
G01*
X136592171Y-108832617D01*
X136584910Y-108886258D01*
X136514132Y-108908084D01*
X136451095Y-108893744D01*
X136436094Y-108832617D01*
X136453242Y-108793000D01*
X136514132Y-108757150D01*
X136549648Y-108768462D01*
G37*
G36*
X137090856Y-103252349D02*
G01*
X136974777Y-103485594D01*
X136789087Y-103668093D01*
X136533201Y-103800704D01*
X136376480Y-103841644D01*
X136121226Y-103843567D01*
X135875064Y-103774254D01*
X135654456Y-103641822D01*
X135475861Y-103454388D01*
X135355742Y-103220070D01*
X135318861Y-103066378D01*
X135318072Y-102913857D01*
X135679612Y-102913857D01*
X135679981Y-102938383D01*
X135718092Y-103155943D01*
X135812027Y-103333580D01*
X135952110Y-103452176D01*
X135973545Y-103462394D01*
X136147024Y-103506579D01*
X136339252Y-103507666D01*
X136504119Y-103464617D01*
X136549742Y-103437558D01*
X136668194Y-103309276D01*
X136748778Y-103129268D01*
X136779427Y-102921350D01*
X136776688Y-102839537D01*
X136725712Y-102617000D01*
X136614640Y-102450549D01*
X136448877Y-102346237D01*
X136233827Y-102310121D01*
X136166081Y-102313469D01*
X135964625Y-102372000D01*
X135811340Y-102497082D01*
X135713808Y-102680455D01*
X135679612Y-102913857D01*
X135318072Y-102913857D01*
X135317483Y-102800112D01*
X135387798Y-102545563D01*
X135521832Y-102318930D01*
X135711616Y-102136413D01*
X135949175Y-102014209D01*
X136110952Y-101977620D01*
X136370538Y-101984319D01*
X136619045Y-102063964D01*
X136838230Y-102209670D01*
X137009848Y-102414550D01*
X137043613Y-102471751D01*
X137103992Y-102601150D01*
X137132236Y-102733642D01*
X137139093Y-102910475D01*
X137138867Y-102921350D01*
X137137909Y-102967498D01*
X137090856Y-103252349D01*
G37*
G36*
X135660258Y-109217465D02*
G01*
X135694778Y-109274638D01*
X135687264Y-109304804D01*
X135630092Y-109339324D01*
X135599925Y-109331810D01*
X135565406Y-109274638D01*
X135572919Y-109244471D01*
X135630092Y-109209952D01*
X135660258Y-109217465D01*
G37*
G36*
X140646423Y-108768462D02*
G01*
X140688945Y-108832617D01*
X140681684Y-108886258D01*
X140610907Y-108908084D01*
X140547869Y-108893744D01*
X140532868Y-108832617D01*
X140550016Y-108793000D01*
X140610907Y-108757150D01*
X140646423Y-108768462D01*
G37*
G36*
X140047682Y-110672113D02*
G01*
X140085964Y-110733987D01*
X140081985Y-110789180D01*
X140021869Y-110798082D01*
X139978515Y-110779259D01*
X139942486Y-110718699D01*
X139946859Y-110691629D01*
X139989249Y-110656709D01*
X140047682Y-110672113D01*
G37*
G36*
X139616016Y-111324471D02*
G01*
X139660900Y-111360528D01*
X139633431Y-111423647D01*
X139618717Y-111436398D01*
X139559076Y-111447104D01*
X139532808Y-111387711D01*
X139540322Y-111357544D01*
X139597494Y-111323025D01*
X139616016Y-111324471D01*
G37*
G36*
X139311117Y-107144827D02*
G01*
X139274916Y-107256099D01*
X139191134Y-107358940D01*
X139155276Y-107392795D01*
X139037368Y-107465336D01*
X138891295Y-107484994D01*
X138746329Y-107471874D01*
X138618761Y-107437190D01*
X138533258Y-107389511D01*
X138511862Y-107337411D01*
X138543095Y-107307991D01*
X138637288Y-107303093D01*
X138800662Y-107334836D01*
X138900390Y-107336427D01*
X139027063Y-107269395D01*
X139114828Y-107190856D01*
X139149447Y-107125606D01*
X139110094Y-107083347D01*
X138992979Y-107060567D01*
X138794311Y-107053755D01*
X138443929Y-107053755D01*
X138471545Y-106915675D01*
X138477955Y-106887090D01*
X138650579Y-106887090D01*
X138670044Y-106911857D01*
X138743055Y-106922264D01*
X138885949Y-106924383D01*
X139026614Y-106922378D01*
X139100928Y-106912218D01*
X139121352Y-106887818D01*
X139104224Y-106843096D01*
X139098008Y-106832276D01*
X139003968Y-106749504D01*
X138879820Y-106723742D01*
X138757167Y-106754979D01*
X138667614Y-106843209D01*
X138650579Y-106887090D01*
X138477955Y-106887090D01*
X138478201Y-106885993D01*
X138556567Y-106716746D01*
X138689560Y-106614002D01*
X138875221Y-106579391D01*
X138962294Y-106583356D01*
X139082153Y-106618477D01*
X139191134Y-106705446D01*
X139258066Y-106782044D01*
X139305218Y-106886832D01*
X139305299Y-106887818D01*
X139317188Y-107032193D01*
X139311117Y-107144827D01*
G37*
G36*
X138604077Y-108774594D02*
G01*
X138627205Y-108845943D01*
X138612496Y-108884658D01*
X138552147Y-108908292D01*
X138483833Y-108879709D01*
X138476950Y-108869006D01*
X138488799Y-108814746D01*
X138536777Y-108766371D01*
X138588968Y-108760170D01*
X138604077Y-108774594D01*
G37*
G36*
X135660258Y-109433085D02*
G01*
X135694778Y-109490257D01*
X135687264Y-109520424D01*
X135630092Y-109554943D01*
X135599925Y-109547430D01*
X135565406Y-109490257D01*
X135572919Y-109460091D01*
X135630092Y-109425571D01*
X135660258Y-109433085D01*
G37*
G36*
X138169769Y-110670621D02*
G01*
X138195966Y-110743397D01*
X138171049Y-110789616D01*
X138107290Y-110804968D01*
X138050423Y-110771136D01*
X138044675Y-110749537D01*
X138064618Y-110679363D01*
X138113486Y-110646230D01*
X138169769Y-110670621D01*
G37*
G36*
X137778953Y-108526451D02*
G01*
X137835033Y-108577009D01*
X137829413Y-108649341D01*
X137774528Y-108690745D01*
X137709167Y-108675592D01*
X137678479Y-108606217D01*
X137690242Y-108555874D01*
X137740620Y-108519969D01*
X137778953Y-108526451D01*
G37*
G36*
X134885947Y-106579391D02*
G01*
X134921421Y-106582295D01*
X134973752Y-106611204D01*
X135017571Y-106686616D01*
X135066591Y-106827354D01*
X135102607Y-106936744D01*
X135155029Y-107080103D01*
X135197027Y-107177622D01*
X135221673Y-107218754D01*
X135247211Y-107228987D01*
X135279149Y-107191459D01*
X135326150Y-107095445D01*
X135396880Y-106930222D01*
X135417090Y-106882503D01*
X135487237Y-106727886D01*
X135541587Y-106635925D01*
X135590787Y-106591615D01*
X135645486Y-106579954D01*
X135709229Y-106590481D01*
X135724916Y-106633296D01*
X135710072Y-106667720D01*
X135664501Y-106771054D01*
X135598117Y-106920377D01*
X135519494Y-107096361D01*
X135469312Y-107208807D01*
X135406025Y-107357313D01*
X135371728Y-107459161D01*
X135362381Y-107534808D01*
X135373944Y-107604707D01*
X135402377Y-107689315D01*
X135429236Y-107765635D01*
X135447727Y-107839887D01*
X135431257Y-107868322D01*
X135376785Y-107872763D01*
X135356126Y-107870156D01*
X135315695Y-107845583D01*
X135270992Y-107785681D01*
X135215684Y-107679032D01*
X135143437Y-107514214D01*
X135047919Y-107279809D01*
X134983656Y-107119364D01*
X134900268Y-106909746D01*
X134844286Y-106762721D01*
X134813152Y-106667229D01*
X134804309Y-106612210D01*
X134815199Y-106586604D01*
X134843264Y-106579351D01*
X134885947Y-106579391D01*
G37*
G36*
X138817361Y-111792303D02*
G01*
X138819422Y-111843492D01*
X138812852Y-111852459D01*
X138754032Y-111883636D01*
X138741946Y-111882137D01*
X138714332Y-111843568D01*
X138741030Y-111784186D01*
X138771771Y-111770021D01*
X138817361Y-111792303D01*
G37*
G36*
X135703402Y-108770088D02*
G01*
X135719438Y-108793360D01*
X135718662Y-108861203D01*
X135661455Y-108903434D01*
X135596268Y-108897650D01*
X135565406Y-108845943D01*
X135580191Y-108789361D01*
X135636581Y-108747802D01*
X135703402Y-108770088D01*
G37*
G36*
X140886570Y-111361131D02*
G01*
X140889371Y-111412252D01*
X140882757Y-111421349D01*
X140826526Y-111452397D01*
X140792198Y-111442965D01*
X140759749Y-111394684D01*
X140782699Y-111345021D01*
X140834726Y-111333820D01*
X140886570Y-111361131D01*
G37*
G36*
X140278038Y-109004643D02*
G01*
X140309039Y-109059018D01*
X140299613Y-109095249D01*
X140242075Y-109116085D01*
X140183309Y-109087891D01*
X140172819Y-109038484D01*
X140233572Y-109002542D01*
X140278038Y-109004643D01*
G37*
G36*
X140258307Y-110450295D02*
G01*
X140300830Y-110514451D01*
X140293569Y-110568092D01*
X140222791Y-110589918D01*
X140159754Y-110575577D01*
X140144753Y-110514451D01*
X140161901Y-110474834D01*
X140222791Y-110438984D01*
X140258307Y-110450295D01*
G37*
G36*
X139827068Y-108552842D02*
G01*
X139869590Y-108616998D01*
X139862330Y-108670639D01*
X139791552Y-108692464D01*
X139728515Y-108678124D01*
X139713513Y-108616998D01*
X139730661Y-108577380D01*
X139791552Y-108541531D01*
X139827068Y-108552842D01*
G37*
G36*
X138346677Y-111758716D02*
G01*
X138390385Y-111802303D01*
X138381664Y-111856059D01*
X138368237Y-111867767D01*
X138308698Y-111878424D01*
X138282214Y-111818950D01*
X138286780Y-111789231D01*
X138322793Y-111754264D01*
X138346677Y-111758716D01*
G37*
G36*
X139395828Y-110450295D02*
G01*
X139438351Y-110514451D01*
X139431090Y-110568092D01*
X139360312Y-110589918D01*
X139297275Y-110575577D01*
X139282274Y-110514451D01*
X139299422Y-110474834D01*
X139360312Y-110438984D01*
X139395828Y-110450295D01*
G37*
G36*
X140058900Y-111114919D02*
G01*
X140093419Y-111172091D01*
X140085906Y-111202258D01*
X140028733Y-111236777D01*
X139998567Y-111229263D01*
X139964048Y-111172091D01*
X139971561Y-111141924D01*
X140028733Y-111107405D01*
X140058900Y-111114919D01*
G37*
G36*
X141102189Y-109463678D02*
G01*
X141104990Y-109514799D01*
X141098377Y-109523896D01*
X141042146Y-109554943D01*
X141007818Y-109545512D01*
X140975369Y-109497231D01*
X140998319Y-109447568D01*
X141050346Y-109436367D01*
X141102189Y-109463678D01*
G37*
G36*
X142085725Y-111330538D02*
G01*
X142120245Y-111387711D01*
X142112731Y-111417877D01*
X142055559Y-111452397D01*
X142025392Y-111444883D01*
X141990873Y-111387711D01*
X141998386Y-111357544D01*
X142055559Y-111323025D01*
X142085725Y-111330538D01*
G37*
G36*
X142301345Y-111330538D02*
G01*
X142335864Y-111387711D01*
X142328351Y-111417877D01*
X142271178Y-111452397D01*
X142241012Y-111444883D01*
X142206492Y-111387711D01*
X142214006Y-111357544D01*
X142271178Y-111323025D01*
X142301345Y-111330538D01*
G37*
G36*
X138808306Y-109433085D02*
G01*
X138842825Y-109490257D01*
X138835312Y-109520424D01*
X138778139Y-109554943D01*
X138747973Y-109547430D01*
X138713453Y-109490257D01*
X138720967Y-109460091D01*
X138778139Y-109425571D01*
X138808306Y-109433085D01*
G37*
G36*
X136910853Y-109433085D02*
G01*
X136945372Y-109490257D01*
X136937858Y-109520424D01*
X136880686Y-109554943D01*
X136850519Y-109547430D01*
X136816000Y-109490257D01*
X136823514Y-109460091D01*
X136880686Y-109425571D01*
X136910853Y-109433085D01*
G37*
G36*
X140058900Y-109433085D02*
G01*
X140093419Y-109490257D01*
X140085906Y-109520424D01*
X140028733Y-109554943D01*
X139998567Y-109547430D01*
X139964048Y-109490257D01*
X139971561Y-109460091D01*
X140028733Y-109425571D01*
X140058900Y-109433085D01*
G37*
G36*
X136319756Y-109436587D02*
G01*
X136341637Y-109490257D01*
X136334601Y-109525861D01*
X136295278Y-109546678D01*
X136282493Y-109540822D01*
X136248920Y-109490257D01*
X136250724Y-109478357D01*
X136295278Y-109433837D01*
X136319756Y-109436587D01*
G37*
G36*
X139831636Y-111324471D02*
G01*
X139876520Y-111360528D01*
X139849050Y-111423647D01*
X139834337Y-111436398D01*
X139774696Y-111447104D01*
X139748428Y-111387711D01*
X139755941Y-111357544D01*
X139813114Y-111323025D01*
X139831636Y-111324471D01*
G37*
G36*
X135668667Y-109001498D02*
G01*
X135718009Y-109043361D01*
X135707980Y-109096127D01*
X135665563Y-109120784D01*
X135597564Y-109113262D01*
X135565406Y-109059018D01*
X135572595Y-109028907D01*
X135627547Y-108994332D01*
X135668667Y-109001498D01*
G37*
G36*
X138577870Y-108554503D02*
G01*
X138619750Y-108620914D01*
X138615771Y-108676107D01*
X138555655Y-108685009D01*
X138527076Y-108675222D01*
X138482296Y-108625078D01*
X138485441Y-108568450D01*
X138540367Y-108541531D01*
X138577870Y-108554503D01*
G37*
G36*
X136318351Y-109864109D02*
G01*
X136341637Y-109921497D01*
X136336771Y-109951254D01*
X136298513Y-109986183D01*
X136278675Y-109978885D01*
X136255389Y-109921497D01*
X136260254Y-109891739D01*
X136298513Y-109856811D01*
X136318351Y-109864109D01*
G37*
G36*
X143983179Y-110899299D02*
G01*
X144017698Y-110956471D01*
X144010184Y-110986638D01*
X143953012Y-111021157D01*
X143922845Y-111013644D01*
X143888326Y-110956471D01*
X143895840Y-110926305D01*
X143953012Y-110891785D01*
X143983179Y-110899299D01*
G37*
G36*
X143767559Y-110899299D02*
G01*
X143802078Y-110956471D01*
X143794565Y-110986638D01*
X143737392Y-111021157D01*
X143707226Y-111013644D01*
X143672706Y-110956471D01*
X143680220Y-110926305D01*
X143737392Y-110891785D01*
X143767559Y-110899299D01*
G37*
G36*
X136910853Y-109001846D02*
G01*
X136945372Y-109059018D01*
X136937858Y-109089185D01*
X136880686Y-109123704D01*
X136850519Y-109116190D01*
X136816000Y-109059018D01*
X136823514Y-109028851D01*
X136880686Y-108994332D01*
X136910853Y-109001846D01*
G37*
G36*
X137773331Y-109433085D02*
G01*
X137807851Y-109490257D01*
X137800337Y-109520424D01*
X137743165Y-109554943D01*
X137712998Y-109547430D01*
X137678479Y-109490257D01*
X137685992Y-109460091D01*
X137743165Y-109425571D01*
X137773331Y-109433085D01*
G37*
G36*
X140259704Y-108770122D02*
G01*
X140301584Y-108836533D01*
X140297604Y-108891727D01*
X140237488Y-108900629D01*
X140208910Y-108890841D01*
X140164129Y-108840697D01*
X140167274Y-108784069D01*
X140222201Y-108757150D01*
X140259704Y-108770122D01*
G37*
G36*
X143557561Y-108526451D02*
G01*
X143613641Y-108577009D01*
X143608020Y-108649341D01*
X143553135Y-108690745D01*
X143487775Y-108675592D01*
X143457087Y-108606217D01*
X143468850Y-108555874D01*
X143519227Y-108519969D01*
X143557561Y-108526451D01*
G37*
G36*
X142301345Y-111114919D02*
G01*
X142335864Y-111172091D01*
X142328351Y-111202258D01*
X142271178Y-111236777D01*
X142241012Y-111229263D01*
X142206492Y-111172091D01*
X142214006Y-111141924D01*
X142271178Y-111107405D01*
X142301345Y-111114919D01*
G37*
G36*
X137347714Y-108526451D02*
G01*
X137403793Y-108577009D01*
X137398173Y-108649341D01*
X137343288Y-108690745D01*
X137277928Y-108675592D01*
X137247239Y-108606217D01*
X137259002Y-108555874D01*
X137309380Y-108519969D01*
X137347714Y-108526451D01*
G37*
G36*
X143795610Y-109945215D02*
G01*
X143797900Y-109966150D01*
X143761110Y-109979714D01*
X143742946Y-109971541D01*
X143712596Y-109931200D01*
X143718986Y-109910977D01*
X143757837Y-109900514D01*
X143795610Y-109945215D01*
G37*
G36*
X142551484Y-111384117D02*
G01*
X142542609Y-111417675D01*
X142483204Y-111452397D01*
X142450763Y-111445177D01*
X142431995Y-111401187D01*
X142474623Y-111344422D01*
X142526346Y-111336892D01*
X142551484Y-111384117D01*
G37*
G36*
X139410285Y-109006195D02*
G01*
X139446560Y-109062180D01*
X139436214Y-109097508D01*
X139374667Y-109116085D01*
X139347399Y-109108484D01*
X139291867Y-109065140D01*
X139293494Y-109017053D01*
X139356719Y-108994332D01*
X139410285Y-109006195D01*
G37*
G36*
X143120700Y-109648705D02*
G01*
X143155219Y-109705877D01*
X143147706Y-109736044D01*
X143090533Y-109770563D01*
X143060367Y-109763049D01*
X143025847Y-109705877D01*
X143033361Y-109675710D01*
X143090533Y-109641191D01*
X143120700Y-109648705D01*
G37*
G36*
X140627920Y-109217118D02*
G01*
X140677262Y-109258981D01*
X140667233Y-109311747D01*
X140624816Y-109336404D01*
X140556817Y-109328882D01*
X140524659Y-109274638D01*
X140531848Y-109244527D01*
X140586800Y-109209952D01*
X140627920Y-109217118D01*
G37*
G36*
X135703402Y-108554468D02*
G01*
X135719438Y-108577740D01*
X135718662Y-108645583D01*
X135661455Y-108687814D01*
X135596268Y-108682031D01*
X135565406Y-108630324D01*
X135580191Y-108573741D01*
X135636581Y-108532182D01*
X135703402Y-108554468D01*
G37*
G36*
X141293282Y-110450295D02*
G01*
X141335804Y-110514451D01*
X141328544Y-110568092D01*
X141257766Y-110589918D01*
X141194728Y-110575577D01*
X141179727Y-110514451D01*
X141196875Y-110474834D01*
X141257766Y-110438984D01*
X141293282Y-110450295D01*
G37*
G36*
X140862042Y-108552842D02*
G01*
X140904565Y-108616998D01*
X140897304Y-108670639D01*
X140826526Y-108692464D01*
X140763489Y-108678124D01*
X140748488Y-108616998D01*
X140765636Y-108577380D01*
X140826526Y-108541531D01*
X140862042Y-108552842D01*
G37*
G36*
X138820999Y-108535439D02*
G01*
X138842825Y-108606217D01*
X138828485Y-108669254D01*
X138767358Y-108684255D01*
X138727741Y-108667107D01*
X138691891Y-108606217D01*
X138703203Y-108570701D01*
X138767358Y-108528178D01*
X138820999Y-108535439D01*
G37*
G36*
X141077662Y-110450295D02*
G01*
X141120184Y-110514451D01*
X141112924Y-110568092D01*
X141042146Y-110589918D01*
X140979109Y-110575577D01*
X140964108Y-110514451D01*
X140981256Y-110474834D01*
X141042146Y-110438984D01*
X141077662Y-110450295D01*
G37*
G36*
X145009548Y-103819459D02*
G01*
X144664557Y-103819459D01*
X144664557Y-101275147D01*
X145009548Y-101275147D01*
X145009548Y-103819459D01*
G37*
G36*
X142361695Y-108796619D02*
G01*
X142359748Y-108861203D01*
X142302541Y-108903434D01*
X142237355Y-108897650D01*
X142206492Y-108845943D01*
X142210169Y-108819614D01*
X142253374Y-108754828D01*
X142313184Y-108750788D01*
X142361695Y-108796619D01*
G37*
%TD*%
M02*
