%TF.GenerationSoftware,KiCad,Pcbnew,(6.0.0-0)*%
%TF.CreationDate,2022-02-21T15:37:49+01:00*%
%TF.ProjectId,GlowCoreMini,476c6f77-436f-4726-954d-696e692e6b69,rev?*%
%TF.SameCoordinates,Original*%
%TF.FileFunction,Soldermask,Top*%
%TF.FilePolarity,Negative*%
%FSLAX46Y46*%
G04 Gerber Fmt 4.6, Leading zero omitted, Abs format (unit mm)*
G04 Created by KiCad (PCBNEW (6.0.0-0)) date 2022-02-21 15:37:49*
%MOMM*%
%LPD*%
G01*
G04 APERTURE LIST*
G04 Aperture macros list*
%AMRoundRect*
0 Rectangle with rounded corners*
0 $1 Rounding radius*
0 $2 $3 $4 $5 $6 $7 $8 $9 X,Y pos of 4 corners*
0 Add a 4 corners polygon primitive as box body*
4,1,4,$2,$3,$4,$5,$6,$7,$8,$9,$2,$3,0*
0 Add four circle primitives for the rounded corners*
1,1,$1+$1,$2,$3*
1,1,$1+$1,$4,$5*
1,1,$1+$1,$6,$7*
1,1,$1+$1,$8,$9*
0 Add four rect primitives between the rounded corners*
20,1,$1+$1,$2,$3,$4,$5,0*
20,1,$1+$1,$4,$5,$6,$7,0*
20,1,$1+$1,$6,$7,$8,$9,0*
20,1,$1+$1,$8,$9,$2,$3,0*%
G04 Aperture macros list end*
%ADD10C,0.500000*%
%ADD11R,1.700000X1.700000*%
%ADD12O,1.700000X1.700000*%
%ADD13R,0.900000X1.500000*%
%ADD14C,2.000000*%
%ADD15R,0.250000X0.900000*%
%ADD16R,0.900000X0.250000*%
%ADD17R,3.250000X3.250000*%
%ADD18RoundRect,0.237500X0.237500X-0.250000X0.237500X0.250000X-0.237500X0.250000X-0.237500X-0.250000X0*%
%ADD19RoundRect,0.237500X-0.300000X-0.237500X0.300000X-0.237500X0.300000X0.237500X-0.300000X0.237500X0*%
%ADD20RoundRect,0.237500X-0.237500X0.250000X-0.237500X-0.250000X0.237500X-0.250000X0.237500X0.250000X0*%
%ADD21RoundRect,0.237500X0.300000X0.237500X-0.300000X0.237500X-0.300000X-0.237500X0.300000X-0.237500X0*%
%ADD22RoundRect,0.237500X-0.237500X0.300000X-0.237500X-0.300000X0.237500X-0.300000X0.237500X0.300000X0*%
%ADD23R,1.676400X0.355600*%
%ADD24RoundRect,0.150000X-0.150000X0.587500X-0.150000X-0.587500X0.150000X-0.587500X0.150000X0.587500X0*%
%ADD25R,2.000000X1.500000*%
%ADD26R,2.000000X3.800000*%
%ADD27C,0.700000*%
%ADD28R,0.600000X1.300000*%
%ADD29R,0.300000X1.300000*%
%ADD30O,1.200000X2.200000*%
%ADD31O,1.200000X1.800000*%
%ADD32RoundRect,0.250000X1.500000X0.550000X-1.500000X0.550000X-1.500000X-0.550000X1.500000X-0.550000X0*%
%ADD33RoundRect,0.237500X0.250000X0.237500X-0.250000X0.237500X-0.250000X-0.237500X0.250000X-0.237500X0*%
%ADD34C,1.800000*%
%ADD35O,1.600000X3.000000*%
%ADD36O,3.200000X1.600000*%
%ADD37C,2.300000*%
%ADD38C,0.500000*%
%ADD39R,0.600000X0.400000*%
%ADD40RoundRect,0.040000X-0.040000X-0.210000X0.040000X-0.210000X0.040000X0.210000X-0.040000X0.210000X0*%
%ADD41RoundRect,0.237500X0.287500X0.237500X-0.287500X0.237500X-0.287500X-0.237500X0.287500X-0.237500X0*%
%ADD42RoundRect,0.237500X0.237500X-0.300000X0.237500X0.300000X-0.237500X0.300000X-0.237500X-0.300000X0*%
%ADD43RoundRect,0.250000X-0.400000X-1.450000X0.400000X-1.450000X0.400000X1.450000X-0.400000X1.450000X0*%
%ADD44RoundRect,0.250000X-1.500000X-0.550000X1.500000X-0.550000X1.500000X0.550000X-1.500000X0.550000X0*%
%ADD45RoundRect,0.237500X-0.250000X-0.237500X0.250000X-0.237500X0.250000X0.237500X-0.250000X0.237500X0*%
%ADD46R,2.500000X1.800000*%
%ADD47R,0.900000X2.000000*%
%ADD48R,2.000000X0.900000*%
%ADD49R,1.330000X1.330000*%
%ADD50C,0.300000*%
%ADD51R,2.200000X2.200000*%
%ADD52C,2.200000*%
G04 APERTURE END LIST*
D10*
%TO.C,MK1*%
X147217500Y-80903800D02*
G75*
G03*
X147217500Y-80903800I-670000J0D01*
G01*
%TD*%
D11*
%TO.C,J1*%
X158220900Y-64537100D03*
D12*
X158220900Y-67077100D03*
X158220900Y-69617100D03*
X158220900Y-72157100D03*
X158220900Y-74697100D03*
X158220900Y-77237100D03*
%TD*%
D13*
%TO.C,SW1*%
X132147500Y-109119500D03*
X132147500Y-112919500D03*
X133647500Y-112919500D03*
X133647500Y-109119500D03*
%TD*%
D14*
%TO.C,F2*%
X142414832Y-134566127D03*
X137334822Y-134566127D03*
%TD*%
D15*
%TO.C,U4*%
X155504501Y-129952613D03*
X156004501Y-129952613D03*
X156504501Y-129952613D03*
X157004501Y-129952613D03*
X157504500Y-129952613D03*
X158004500Y-129952613D03*
X158504500Y-129952613D03*
D16*
X159404514Y-129052599D03*
X159404514Y-128552599D03*
X159404514Y-128052599D03*
X159404514Y-127552599D03*
X159404514Y-127052600D03*
X159404514Y-126552600D03*
X159404514Y-126052600D03*
D15*
X158504500Y-125152586D03*
X158004500Y-125152586D03*
X157504500Y-125152586D03*
X157004501Y-125152586D03*
X156504501Y-125152586D03*
X156004501Y-125152586D03*
X155504501Y-125152586D03*
D16*
X154604487Y-126052600D03*
X154604487Y-126552600D03*
X154604487Y-127052600D03*
X154604487Y-127552599D03*
X154604487Y-128052599D03*
X154604487Y-128552599D03*
X154604487Y-129052599D03*
D17*
X157004500Y-127552600D03*
%TD*%
D18*
%TO.C,R9*%
X157959500Y-149272600D03*
X157959500Y-147447600D03*
%TD*%
D19*
%TO.C,C9*%
X132035000Y-114646700D03*
X133760000Y-114646700D03*
%TD*%
%TO.C,C1*%
X138766000Y-76907300D03*
X140491000Y-76907300D03*
%TD*%
D20*
%TO.C,R1*%
X134345300Y-79906400D03*
X134345300Y-81731400D03*
%TD*%
D21*
%TO.C,C3*%
X144580400Y-106498300D03*
X142855400Y-106498300D03*
%TD*%
D22*
%TO.C,C10*%
X159493700Y-132099200D03*
X159493700Y-133824200D03*
%TD*%
D23*
%TO.C,U1*%
X136224900Y-78564099D03*
X136224900Y-79214100D03*
X136224900Y-79864101D03*
X136224900Y-80514100D03*
X136224900Y-81164099D03*
X136224900Y-81814100D03*
X136224900Y-82464099D03*
X141863700Y-82464101D03*
X141863700Y-81814100D03*
X141863700Y-81164101D03*
X141863700Y-80514100D03*
X141863700Y-79864101D03*
X141863700Y-79214100D03*
X141863700Y-78564101D03*
%TD*%
D24*
%TO.C,Q2*%
X150621700Y-114473900D03*
X148721700Y-114473900D03*
X149671700Y-116348900D03*
%TD*%
D25*
%TO.C,U3*%
X142753500Y-113294100D03*
X142753500Y-110994100D03*
X142753500Y-108694100D03*
D26*
X136453500Y-110994100D03*
%TD*%
D27*
%TO.C,USB1*%
X148617900Y-144673000D03*
X154397900Y-144673000D03*
D28*
X148307900Y-143433000D03*
X149107900Y-143433000D03*
D29*
X150257900Y-143433000D03*
X151257900Y-143433000D03*
X151757900Y-143433000D03*
X152757900Y-143433000D03*
D28*
X154707900Y-143433000D03*
X153907900Y-143433000D03*
D29*
X153257900Y-143433000D03*
X152257900Y-143433000D03*
X150757900Y-143433000D03*
X149757900Y-143433000D03*
D30*
X147187900Y-144173000D03*
X155827900Y-144173000D03*
D31*
X155827900Y-148353000D03*
X147187900Y-148353000D03*
%TD*%
D32*
%TO.C,C12*%
X140406700Y-121075600D03*
X134806700Y-121075600D03*
%TD*%
D33*
%TO.C,R6*%
X146967200Y-109089100D03*
X145142200Y-109089100D03*
%TD*%
D34*
%TO.C,J2*%
X139265100Y-148667700D03*
D35*
X144115100Y-141217700D03*
X144115100Y-145917700D03*
X134415100Y-145917700D03*
X134415100Y-141217700D03*
D36*
X139265100Y-145417700D03*
D37*
X139265100Y-137717700D03*
%TD*%
D38*
%TO.C,MK1*%
X146547500Y-80903800D03*
D39*
X145472500Y-78328800D03*
X145472500Y-78978800D03*
X145472500Y-79628800D03*
D40*
X146547500Y-81705600D03*
D39*
X147622500Y-79628800D03*
X147622500Y-78978800D03*
X147622500Y-78328800D03*
%TD*%
D33*
%TO.C,R8*%
X133810000Y-107382300D03*
X131985000Y-107382300D03*
%TD*%
D41*
%TO.C,D2*%
X159233500Y-111195000D03*
X157483500Y-111195000D03*
%TD*%
D42*
%TO.C,C6*%
X157969700Y-133824200D03*
X157969700Y-132099200D03*
%TD*%
D43*
%TO.C,F1*%
X147860500Y-137537800D03*
X152310500Y-137537800D03*
%TD*%
D44*
%TO.C,C5*%
X144534900Y-121075600D03*
X150134900Y-121075600D03*
%TD*%
D45*
%TO.C,R4*%
X145558800Y-76930400D03*
X147383800Y-76930400D03*
%TD*%
D19*
%TO.C,C8*%
X139452200Y-106599900D03*
X141177200Y-106599900D03*
%TD*%
D21*
%TO.C,C4*%
X137722800Y-106650700D03*
X135997800Y-106650700D03*
%TD*%
D18*
%TO.C,R3*%
X159483500Y-149272600D03*
X159483500Y-147447600D03*
%TD*%
D45*
%TO.C,R5*%
X148667800Y-112386500D03*
X150492800Y-112386500D03*
%TD*%
D32*
%TO.C,C2*%
X140439500Y-128241400D03*
X134839500Y-128241400D03*
%TD*%
D46*
%TO.C,D1*%
X148364900Y-133753200D03*
X152364900Y-133753200D03*
%TD*%
D47*
%TO.C,U2*%
X152477300Y-86276300D03*
X151207300Y-86276300D03*
X149937300Y-86276300D03*
X148667300Y-86276300D03*
X147397300Y-86276300D03*
X146127300Y-86276300D03*
X144857300Y-86276300D03*
X143587300Y-86276300D03*
X142317300Y-86276300D03*
X141047300Y-86276300D03*
X139777300Y-86276300D03*
X138507300Y-86276300D03*
X137237300Y-86276300D03*
X135967300Y-86276300D03*
D48*
X134967300Y-89061300D03*
X134967300Y-90331300D03*
X134967300Y-91601300D03*
X134967300Y-92871300D03*
X134967300Y-94141300D03*
X134967300Y-95411300D03*
X134967300Y-96681300D03*
X134967300Y-97951300D03*
X134967300Y-99221300D03*
X134967300Y-100491300D03*
D47*
X135967300Y-103276300D03*
X137237300Y-103276300D03*
X138507300Y-103276300D03*
X139777300Y-103276300D03*
X141047300Y-103276300D03*
X142317300Y-103276300D03*
X143587300Y-103276300D03*
X144857300Y-103276300D03*
X146127300Y-103276300D03*
X147397300Y-103276300D03*
X148667300Y-103276300D03*
X149937300Y-103276300D03*
X151207300Y-103276300D03*
X152477300Y-103276300D03*
D49*
X146812300Y-91941300D03*
X146812300Y-93776300D03*
X146812300Y-95611300D03*
X144977300Y-91941300D03*
X144977300Y-93776300D03*
X144977300Y-95611300D03*
X143142300Y-91941300D03*
X143142300Y-93776300D03*
X143142300Y-95611300D03*
D50*
X146812300Y-92858800D03*
X146812300Y-94693800D03*
X145894800Y-91941300D03*
X145894800Y-93776300D03*
X145894800Y-95611300D03*
X144977300Y-92858800D03*
X144977300Y-94693800D03*
X144059800Y-91941300D03*
X144059800Y-93776300D03*
X144059800Y-95611300D03*
X143142300Y-92858800D03*
X143142300Y-94693800D03*
%TD*%
D51*
%TO.C,P1*%
X149606108Y-67146750D03*
D52*
X145796100Y-67146750D03*
X141986092Y-67146750D03*
%TD*%
D21*
%TO.C,C7*%
X147308400Y-83051800D03*
X145583400Y-83051800D03*
%TD*%
D44*
%TO.C,C11*%
X144560300Y-128289200D03*
X150160300Y-128289200D03*
%TD*%
D33*
%TO.C,R7*%
X159271000Y-112744400D03*
X157446000Y-112744400D03*
%TD*%
D24*
%TO.C,Q3*%
X147030100Y-111174200D03*
X145130100Y-111174200D03*
X146080100Y-113049200D03*
%TD*%
M02*
