%TF.GenerationSoftware,KiCad,Pcbnew,(6.0.0-0)*%
%TF.CreationDate,2022-01-27T22:48:40+01:00*%
%TF.ProjectId,GlowCoreMini,476c6f77-436f-4726-954d-696e692e6b69,rev?*%
%TF.SameCoordinates,Original*%
%TF.FileFunction,Soldermask,Bot*%
%TF.FilePolarity,Negative*%
%FSLAX46Y46*%
G04 Gerber Fmt 4.6, Leading zero omitted, Abs format (unit mm)*
G04 Created by KiCad (PCBNEW (6.0.0-0)) date 2022-01-27 22:48:40*
%MOMM*%
%LPD*%
G01*
G04 APERTURE LIST*
%ADD10C,0.700000*%
%ADD11O,2.200000X1.200000*%
%ADD12O,1.800000X1.200000*%
%ADD13C,1.800000*%
%ADD14O,3.000000X1.600000*%
%ADD15O,1.600000X3.200000*%
%ADD16C,2.300000*%
%ADD17C,0.500000*%
%ADD18R,1.700000X1.700000*%
%ADD19O,1.700000X1.700000*%
%ADD20R,2.600000X2.600000*%
%ADD21C,2.600000*%
%ADD22C,0.300000*%
%ADD23R,1.500000X1.000000*%
G04 APERTURE END LIST*
D10*
%TO.C,USB1*%
X168071000Y-94330000D03*
X168071000Y-88550000D03*
D11*
X167571000Y-95760000D03*
X167571000Y-87120000D03*
D12*
X171751000Y-87120000D03*
X171751000Y-95760000D03*
%TD*%
D13*
%TO.C,J2*%
X171491000Y-103662000D03*
D14*
X164041000Y-98812000D03*
X168741000Y-98812000D03*
X168741000Y-108512000D03*
X164041000Y-108512000D03*
D15*
X168241000Y-103662000D03*
D16*
X160541000Y-103662000D03*
%TD*%
D17*
%TO.C,MK1*%
X156983000Y-92075000D03*
%TD*%
D18*
%TO.C,J3*%
X110490000Y-84836000D03*
D19*
X110490000Y-87376000D03*
X113030000Y-84836000D03*
X113030000Y-87376000D03*
X115570000Y-84836000D03*
X115570000Y-87376000D03*
X118110000Y-84836000D03*
X118110000Y-87376000D03*
X120650000Y-84836000D03*
X120650000Y-87376000D03*
X123190000Y-84836000D03*
X123190000Y-87376000D03*
%TD*%
D20*
%TO.C,J4*%
X113538000Y-97028000D03*
D21*
X113538000Y-102108000D03*
X113538000Y-107188000D03*
%TD*%
D22*
%TO.C,U2*%
X137401500Y-96925000D03*
X139236500Y-96925000D03*
X136484000Y-97842500D03*
X138319000Y-97842500D03*
X140154000Y-97842500D03*
X137401500Y-98760000D03*
X139236500Y-98760000D03*
X136484000Y-99677500D03*
X138319000Y-99677500D03*
X140154000Y-99677500D03*
X137401500Y-100595000D03*
X139236500Y-100595000D03*
%TD*%
D23*
%TO.C,Status_LED1*%
X127000000Y-93233000D03*
X127000000Y-91933000D03*
%TD*%
M02*
