%TF.GenerationSoftware,KiCad,Pcbnew,(6.0.0-0)*%
%TF.CreationDate,2022-02-21T15:37:49+01:00*%
%TF.ProjectId,GlowCoreMini,476c6f77-436f-4726-954d-696e692e6b69,rev?*%
%TF.SameCoordinates,Original*%
%TF.FileFunction,Paste,Top*%
%TF.FilePolarity,Positive*%
%FSLAX46Y46*%
G04 Gerber Fmt 4.6, Leading zero omitted, Abs format (unit mm)*
G04 Created by KiCad (PCBNEW (6.0.0-0)) date 2022-02-21 15:37:49*
%MOMM*%
%LPD*%
G01*
G04 APERTURE LIST*
G04 Aperture macros list*
%AMRoundRect*
0 Rectangle with rounded corners*
0 $1 Rounding radius*
0 $2 $3 $4 $5 $6 $7 $8 $9 X,Y pos of 4 corners*
0 Add a 4 corners polygon primitive as box body*
4,1,4,$2,$3,$4,$5,$6,$7,$8,$9,$2,$3,0*
0 Add four circle primitives for the rounded corners*
1,1,$1+$1,$2,$3*
1,1,$1+$1,$4,$5*
1,1,$1+$1,$6,$7*
1,1,$1+$1,$8,$9*
0 Add four rect primitives between the rounded corners*
20,1,$1+$1,$2,$3,$4,$5,0*
20,1,$1+$1,$4,$5,$6,$7,0*
20,1,$1+$1,$6,$7,$8,$9,0*
20,1,$1+$1,$8,$9,$2,$3,0*%
G04 Aperture macros list end*
%ADD10C,0.240000*%
%ADD11C,0.010000*%
%ADD12R,0.900000X1.500000*%
%ADD13R,0.900000X0.900000*%
%ADD14R,0.250000X0.900000*%
%ADD15R,0.900000X0.250000*%
%ADD16RoundRect,0.237500X0.237500X-0.250000X0.237500X0.250000X-0.237500X0.250000X-0.237500X-0.250000X0*%
%ADD17RoundRect,0.237500X-0.300000X-0.237500X0.300000X-0.237500X0.300000X0.237500X-0.300000X0.237500X0*%
%ADD18RoundRect,0.237500X-0.237500X0.250000X-0.237500X-0.250000X0.237500X-0.250000X0.237500X0.250000X0*%
%ADD19RoundRect,0.237500X0.300000X0.237500X-0.300000X0.237500X-0.300000X-0.237500X0.300000X-0.237500X0*%
%ADD20RoundRect,0.237500X-0.237500X0.300000X-0.237500X-0.300000X0.237500X-0.300000X0.237500X0.300000X0*%
%ADD21R,1.676400X0.355600*%
%ADD22RoundRect,0.150000X-0.150000X0.587500X-0.150000X-0.587500X0.150000X-0.587500X0.150000X0.587500X0*%
%ADD23R,2.000000X1.500000*%
%ADD24R,2.000000X3.800000*%
%ADD25R,0.600000X1.300000*%
%ADD26R,0.300000X1.300000*%
%ADD27RoundRect,0.250000X1.500000X0.550000X-1.500000X0.550000X-1.500000X-0.550000X1.500000X-0.550000X0*%
%ADD28RoundRect,0.237500X0.250000X0.237500X-0.250000X0.237500X-0.250000X-0.237500X0.250000X-0.237500X0*%
%ADD29RoundRect,0.237500X0.287500X0.237500X-0.287500X0.237500X-0.287500X-0.237500X0.287500X-0.237500X0*%
%ADD30RoundRect,0.237500X0.237500X-0.300000X0.237500X0.300000X-0.237500X0.300000X-0.237500X-0.300000X0*%
%ADD31RoundRect,0.250000X-0.400000X-1.450000X0.400000X-1.450000X0.400000X1.450000X-0.400000X1.450000X0*%
%ADD32RoundRect,0.250000X-1.500000X-0.550000X1.500000X-0.550000X1.500000X0.550000X-1.500000X0.550000X0*%
%ADD33RoundRect,0.237500X-0.250000X-0.237500X0.250000X-0.237500X0.250000X0.237500X-0.250000X0.237500X0*%
%ADD34R,2.500000X1.800000*%
%ADD35R,0.900000X2.000000*%
%ADD36R,2.000000X0.900000*%
%ADD37R,1.330000X1.330000*%
G04 APERTURE END LIST*
D10*
%TO.C,MK1*%
X147227500Y-80733800D02*
G75*
G03*
X146717500Y-80223800I-696673J-186673D01*
G01*
X146377500Y-80223800D02*
G75*
G03*
X145867500Y-80733800I186673J-696673D01*
G01*
X146717500Y-81583800D02*
G75*
G03*
X147227500Y-81073800I-186673J696673D01*
G01*
X145867500Y-81073800D02*
G75*
G03*
X146377500Y-81583800I696673J186673D01*
G01*
D11*
X145222500Y-79478800D02*
X145722500Y-79478800D01*
X145722500Y-79478800D02*
X145722500Y-79778800D01*
X145722500Y-79778800D02*
X145222500Y-79778800D01*
X145222500Y-79778800D02*
X145222500Y-79478800D01*
G36*
X145722500Y-79778800D02*
G01*
X145222500Y-79778800D01*
X145222500Y-79478800D01*
X145722500Y-79478800D01*
X145722500Y-79778800D01*
G37*
X145722500Y-79778800D02*
X145222500Y-79778800D01*
X145222500Y-79478800D01*
X145722500Y-79478800D01*
X145722500Y-79778800D01*
X147372500Y-78828800D02*
X147872500Y-78828800D01*
X147872500Y-78828800D02*
X147872500Y-79128800D01*
X147872500Y-79128800D02*
X147372500Y-79128800D01*
X147372500Y-79128800D02*
X147372500Y-78828800D01*
G36*
X147872500Y-79128800D02*
G01*
X147372500Y-79128800D01*
X147372500Y-78828800D01*
X147872500Y-78828800D01*
X147872500Y-79128800D01*
G37*
X147872500Y-79128800D02*
X147372500Y-79128800D01*
X147372500Y-78828800D01*
X147872500Y-78828800D01*
X147872500Y-79128800D01*
X145222500Y-78178800D02*
X145722500Y-78178800D01*
X145722500Y-78178800D02*
X145722500Y-78478800D01*
X145722500Y-78478800D02*
X145222500Y-78478800D01*
X145222500Y-78478800D02*
X145222500Y-78178800D01*
G36*
X145722500Y-78478800D02*
G01*
X145222500Y-78478800D01*
X145222500Y-78178800D01*
X145722500Y-78178800D01*
X145722500Y-78478800D01*
G37*
X145722500Y-78478800D02*
X145222500Y-78478800D01*
X145222500Y-78178800D01*
X145722500Y-78178800D01*
X145722500Y-78478800D01*
X147372500Y-78178800D02*
X147872500Y-78178800D01*
X147872500Y-78178800D02*
X147872500Y-78478800D01*
X147872500Y-78478800D02*
X147372500Y-78478800D01*
X147372500Y-78478800D02*
X147372500Y-78178800D01*
G36*
X147872500Y-78478800D02*
G01*
X147372500Y-78478800D01*
X147372500Y-78178800D01*
X147872500Y-78178800D01*
X147872500Y-78478800D01*
G37*
X147872500Y-78478800D02*
X147372500Y-78478800D01*
X147372500Y-78178800D01*
X147872500Y-78178800D01*
X147872500Y-78478800D01*
X147372500Y-79478800D02*
X147872500Y-79478800D01*
X147872500Y-79478800D02*
X147872500Y-79778800D01*
X147872500Y-79778800D02*
X147372500Y-79778800D01*
X147372500Y-79778800D02*
X147372500Y-79478800D01*
G36*
X147872500Y-79778800D02*
G01*
X147372500Y-79778800D01*
X147372500Y-79478800D01*
X147872500Y-79478800D01*
X147872500Y-79778800D01*
G37*
X147872500Y-79778800D02*
X147372500Y-79778800D01*
X147372500Y-79478800D01*
X147872500Y-79478800D01*
X147872500Y-79778800D01*
X145222500Y-78828800D02*
X145722500Y-78828800D01*
X145722500Y-78828800D02*
X145722500Y-79128800D01*
X145722500Y-79128800D02*
X145222500Y-79128800D01*
X145222500Y-79128800D02*
X145222500Y-78828800D01*
G36*
X145722500Y-79128800D02*
G01*
X145222500Y-79128800D01*
X145222500Y-78828800D01*
X145722500Y-78828800D01*
X145722500Y-79128800D01*
G37*
X145722500Y-79128800D02*
X145222500Y-79128800D01*
X145222500Y-78828800D01*
X145722500Y-78828800D01*
X145722500Y-79128800D01*
%TD*%
D12*
%TO.C,SW1*%
X132147500Y-109119500D03*
X132147500Y-112919500D03*
X133647500Y-112919500D03*
X133647500Y-109119500D03*
%TD*%
D13*
%TO.C,U4*%
X158104500Y-126452600D03*
X155904500Y-127552600D03*
X158104500Y-127552600D03*
X157004500Y-126452600D03*
X158104500Y-128652600D03*
X155904500Y-126452600D03*
X157004500Y-127552600D03*
X155904500Y-128652600D03*
X157004500Y-128652600D03*
D14*
X155504501Y-129952613D03*
X156004501Y-129952613D03*
X156504501Y-129952613D03*
X157004501Y-129952613D03*
X157504500Y-129952613D03*
X158004500Y-129952613D03*
X158504500Y-129952613D03*
D15*
X159404514Y-129052599D03*
X159404514Y-128552599D03*
X159404514Y-128052599D03*
X159404514Y-127552599D03*
X159404514Y-127052600D03*
X159404514Y-126552600D03*
X159404514Y-126052600D03*
D14*
X158504500Y-125152586D03*
X158004500Y-125152586D03*
X157504500Y-125152586D03*
X157004501Y-125152586D03*
X156504501Y-125152586D03*
X156004501Y-125152586D03*
X155504501Y-125152586D03*
D15*
X154604487Y-126052600D03*
X154604487Y-126552600D03*
X154604487Y-127052600D03*
X154604487Y-127552599D03*
X154604487Y-128052599D03*
X154604487Y-128552599D03*
X154604487Y-129052599D03*
%TD*%
D16*
%TO.C,R9*%
X157959500Y-149272600D03*
X157959500Y-147447600D03*
%TD*%
D17*
%TO.C,C9*%
X132035000Y-114646700D03*
X133760000Y-114646700D03*
%TD*%
%TO.C,C1*%
X138766000Y-76907300D03*
X140491000Y-76907300D03*
%TD*%
D18*
%TO.C,R1*%
X134345300Y-79906400D03*
X134345300Y-81731400D03*
%TD*%
D19*
%TO.C,C3*%
X144580400Y-106498300D03*
X142855400Y-106498300D03*
%TD*%
D20*
%TO.C,C10*%
X159493700Y-132099200D03*
X159493700Y-133824200D03*
%TD*%
D21*
%TO.C,U1*%
X136224900Y-78564099D03*
X136224900Y-79214100D03*
X136224900Y-79864101D03*
X136224900Y-80514100D03*
X136224900Y-81164099D03*
X136224900Y-81814100D03*
X136224900Y-82464099D03*
X141863700Y-82464101D03*
X141863700Y-81814100D03*
X141863700Y-81164101D03*
X141863700Y-80514100D03*
X141863700Y-79864101D03*
X141863700Y-79214100D03*
X141863700Y-78564101D03*
%TD*%
D22*
%TO.C,Q2*%
X150621700Y-114473900D03*
X148721700Y-114473900D03*
X149671700Y-116348900D03*
%TD*%
D23*
%TO.C,U3*%
X142753500Y-113294100D03*
X142753500Y-110994100D03*
X142753500Y-108694100D03*
D24*
X136453500Y-110994100D03*
%TD*%
D25*
%TO.C,USB1*%
X148307900Y-143433000D03*
X149107900Y-143433000D03*
D26*
X150257900Y-143433000D03*
X151257900Y-143433000D03*
X151757900Y-143433000D03*
X152757900Y-143433000D03*
D25*
X154707900Y-143433000D03*
X153907900Y-143433000D03*
D26*
X153257900Y-143433000D03*
X152257900Y-143433000D03*
X150757900Y-143433000D03*
X149757900Y-143433000D03*
%TD*%
D27*
%TO.C,C12*%
X140406700Y-121075600D03*
X134806700Y-121075600D03*
%TD*%
D28*
%TO.C,R6*%
X146967200Y-109089100D03*
X145142200Y-109089100D03*
%TD*%
%TO.C,R8*%
X133810000Y-107382300D03*
X131985000Y-107382300D03*
%TD*%
D29*
%TO.C,D2*%
X159233500Y-111195000D03*
X157483500Y-111195000D03*
%TD*%
D30*
%TO.C,C6*%
X157969700Y-133824200D03*
X157969700Y-132099200D03*
%TD*%
D31*
%TO.C,F1*%
X147860500Y-137537800D03*
X152310500Y-137537800D03*
%TD*%
D32*
%TO.C,C5*%
X144534900Y-121075600D03*
X150134900Y-121075600D03*
%TD*%
D33*
%TO.C,R4*%
X145558800Y-76930400D03*
X147383800Y-76930400D03*
%TD*%
D17*
%TO.C,C8*%
X139452200Y-106599900D03*
X141177200Y-106599900D03*
%TD*%
D19*
%TO.C,C4*%
X137722800Y-106650700D03*
X135997800Y-106650700D03*
%TD*%
D16*
%TO.C,R3*%
X159483500Y-149272600D03*
X159483500Y-147447600D03*
%TD*%
D33*
%TO.C,R5*%
X148667800Y-112386500D03*
X150492800Y-112386500D03*
%TD*%
D27*
%TO.C,C2*%
X140439500Y-128241400D03*
X134839500Y-128241400D03*
%TD*%
D34*
%TO.C,D1*%
X148364900Y-133753200D03*
X152364900Y-133753200D03*
%TD*%
D35*
%TO.C,U2*%
X152477300Y-86276300D03*
X151207300Y-86276300D03*
X149937300Y-86276300D03*
X148667300Y-86276300D03*
X147397300Y-86276300D03*
X146127300Y-86276300D03*
X144857300Y-86276300D03*
X143587300Y-86276300D03*
X142317300Y-86276300D03*
X141047300Y-86276300D03*
X139777300Y-86276300D03*
X138507300Y-86276300D03*
X137237300Y-86276300D03*
X135967300Y-86276300D03*
D36*
X134967300Y-89061300D03*
X134967300Y-90331300D03*
X134967300Y-91601300D03*
X134967300Y-92871300D03*
X134967300Y-94141300D03*
X134967300Y-95411300D03*
X134967300Y-96681300D03*
X134967300Y-97951300D03*
X134967300Y-99221300D03*
X134967300Y-100491300D03*
D35*
X135967300Y-103276300D03*
X137237300Y-103276300D03*
X138507300Y-103276300D03*
X139777300Y-103276300D03*
X141047300Y-103276300D03*
X142317300Y-103276300D03*
X143587300Y-103276300D03*
X144857300Y-103276300D03*
X146127300Y-103276300D03*
X147397300Y-103276300D03*
X148667300Y-103276300D03*
X149937300Y-103276300D03*
X151207300Y-103276300D03*
X152477300Y-103276300D03*
D37*
X146812300Y-91941300D03*
X146812300Y-93776300D03*
X146812300Y-95611300D03*
X144977300Y-91941300D03*
X144977300Y-93776300D03*
X144977300Y-95611300D03*
X143142300Y-91941300D03*
X143142300Y-93776300D03*
X143142300Y-95611300D03*
%TD*%
D19*
%TO.C,C7*%
X147308400Y-83051800D03*
X145583400Y-83051800D03*
%TD*%
D32*
%TO.C,C11*%
X144560300Y-128289200D03*
X150160300Y-128289200D03*
%TD*%
D28*
%TO.C,R7*%
X159271000Y-112744400D03*
X157446000Y-112744400D03*
%TD*%
D22*
%TO.C,Q3*%
X147030100Y-111174200D03*
X145130100Y-111174200D03*
X146080100Y-113049200D03*
%TD*%
M02*
