%TF.GenerationSoftware,KiCad,Pcbnew,(6.0.0-0)*%
%TF.CreationDate,2022-02-21T15:37:49+01:00*%
%TF.ProjectId,GlowCoreMini,476c6f77-436f-4726-954d-696e692e6b69,rev?*%
%TF.SameCoordinates,Original*%
%TF.FileFunction,Soldermask,Bot*%
%TF.FilePolarity,Negative*%
%FSLAX46Y46*%
G04 Gerber Fmt 4.6, Leading zero omitted, Abs format (unit mm)*
G04 Created by KiCad (PCBNEW (6.0.0-0)) date 2022-02-21 15:37:49*
%MOMM*%
%LPD*%
G01*
G04 APERTURE LIST*
%ADD10R,1.700000X1.700000*%
%ADD11O,1.700000X1.700000*%
%ADD12C,2.000000*%
%ADD13C,0.700000*%
%ADD14O,1.200000X2.200000*%
%ADD15O,1.200000X1.800000*%
%ADD16C,1.800000*%
%ADD17O,1.600000X3.000000*%
%ADD18O,3.200000X1.600000*%
%ADD19C,2.300000*%
%ADD20C,0.500000*%
%ADD21C,0.300000*%
%ADD22R,2.200000X2.200000*%
%ADD23C,2.200000*%
%ADD24R,1.000000X1.500000*%
G04 APERTURE END LIST*
D10*
%TO.C,J1*%
X158220900Y-64537100D03*
D11*
X158220900Y-67077100D03*
X158220900Y-69617100D03*
X158220900Y-72157100D03*
X158220900Y-74697100D03*
X158220900Y-77237100D03*
%TD*%
D12*
%TO.C,F2*%
X142414832Y-134566127D03*
X137334822Y-134566127D03*
%TD*%
D13*
%TO.C,USB1*%
X148617900Y-144673000D03*
X154397900Y-144673000D03*
D14*
X147187900Y-144173000D03*
X155827900Y-144173000D03*
D15*
X155827900Y-148353000D03*
X147187900Y-148353000D03*
%TD*%
D16*
%TO.C,J2*%
X139265100Y-148667700D03*
D17*
X144115100Y-141217700D03*
X144115100Y-145917700D03*
X134415100Y-145917700D03*
X134415100Y-141217700D03*
D18*
X139265100Y-145417700D03*
D19*
X139265100Y-137717700D03*
%TD*%
D20*
%TO.C,MK1*%
X146547500Y-80903800D03*
%TD*%
D21*
%TO.C,U2*%
X146812300Y-92858800D03*
X146812300Y-94693800D03*
X145894800Y-91941300D03*
X145894800Y-93776300D03*
X145894800Y-95611300D03*
X144977300Y-92858800D03*
X144977300Y-94693800D03*
X144059800Y-91941300D03*
X144059800Y-93776300D03*
X144059800Y-95611300D03*
X143142300Y-92858800D03*
X143142300Y-94693800D03*
%TD*%
D22*
%TO.C,P1*%
X149606108Y-67146750D03*
D23*
X145796100Y-67146750D03*
X141986092Y-67146750D03*
%TD*%
D24*
%TO.C,Status_LED1*%
X157657700Y-111880800D03*
X158957700Y-111880800D03*
%TD*%
M02*
