%TF.GenerationSoftware,KiCad,Pcbnew,(6.0.0-0)*%
%TF.CreationDate,2022-02-21T15:37:49+01:00*%
%TF.ProjectId,GlowCoreMini,476c6f77-436f-4726-954d-696e692e6b69,rev?*%
%TF.SameCoordinates,Original*%
%TF.FileFunction,Legend,Top*%
%TF.FilePolarity,Positive*%
%FSLAX46Y46*%
G04 Gerber Fmt 4.6, Leading zero omitted, Abs format (unit mm)*
G04 Created by KiCad (PCBNEW (6.0.0-0)) date 2022-02-21 15:37:49*
%MOMM*%
%LPD*%
G01*
G04 APERTURE LIST*
%ADD10C,0.150000*%
%ADD11C,0.120000*%
%ADD12C,0.254001*%
%ADD13C,0.059995*%
%ADD14C,0.250000*%
%ADD15C,0.200000*%
%ADD16C,0.127000*%
G04 APERTURE END LIST*
D10*
%TO.C,J1*%
X155089266Y-70445380D02*
X155089266Y-71159666D01*
X155041647Y-71302523D01*
X154946409Y-71397761D01*
X154803552Y-71445380D01*
X154708314Y-71445380D01*
X156089266Y-71445380D02*
X155517838Y-71445380D01*
X155803552Y-71445380D02*
X155803552Y-70445380D01*
X155708314Y-70588238D01*
X155613076Y-70683476D01*
X155517838Y-70731095D01*
%TO.C,SW1*%
X131290961Y-112255133D02*
X131338580Y-112112276D01*
X131338580Y-111874180D01*
X131290961Y-111778942D01*
X131243342Y-111731323D01*
X131148104Y-111683704D01*
X131052866Y-111683704D01*
X130957628Y-111731323D01*
X130910009Y-111778942D01*
X130862390Y-111874180D01*
X130814771Y-112064657D01*
X130767152Y-112159895D01*
X130719533Y-112207514D01*
X130624295Y-112255133D01*
X130529057Y-112255133D01*
X130433819Y-112207514D01*
X130386200Y-112159895D01*
X130338580Y-112064657D01*
X130338580Y-111826561D01*
X130386200Y-111683704D01*
X130338580Y-111350371D02*
X131338580Y-111112276D01*
X130624295Y-110921800D01*
X131338580Y-110731323D01*
X130338580Y-110493228D01*
X131338580Y-109588466D02*
X131338580Y-110159895D01*
X131338580Y-109874180D02*
X130338580Y-109874180D01*
X130481438Y-109969419D01*
X130576676Y-110064657D01*
X130624295Y-110159895D01*
%TO.C,F2*%
X131492666Y-134523171D02*
X131159333Y-134523171D01*
X131159333Y-135046980D02*
X131159333Y-134046980D01*
X131635523Y-134046980D01*
X131968857Y-134142219D02*
X132016476Y-134094600D01*
X132111714Y-134046980D01*
X132349809Y-134046980D01*
X132445047Y-134094600D01*
X132492666Y-134142219D01*
X132540285Y-134237457D01*
X132540285Y-134332695D01*
X132492666Y-134475552D01*
X131921238Y-135046980D01*
X132540285Y-135046980D01*
%TO.C,U4*%
X156189995Y-123226580D02*
X156189995Y-124036104D01*
X156237614Y-124131342D01*
X156285233Y-124178961D01*
X156380471Y-124226580D01*
X156570947Y-124226580D01*
X156666185Y-124178961D01*
X156713804Y-124131342D01*
X156761423Y-124036104D01*
X156761423Y-123226580D01*
X157666185Y-123559914D02*
X157666185Y-124226580D01*
X157428090Y-123178961D02*
X157189995Y-123893247D01*
X157809042Y-123893247D01*
%TO.C,R9*%
X158160980Y-145708666D02*
X157684790Y-146042000D01*
X158160980Y-146280095D02*
X157160980Y-146280095D01*
X157160980Y-145899142D01*
X157208600Y-145803904D01*
X157256219Y-145756285D01*
X157351457Y-145708666D01*
X157494314Y-145708666D01*
X157589552Y-145756285D01*
X157637171Y-145803904D01*
X157684790Y-145899142D01*
X157684790Y-146280095D01*
X158160980Y-145232476D02*
X158160980Y-145042000D01*
X158113361Y-144946761D01*
X158065742Y-144899142D01*
X157922885Y-144803904D01*
X157732409Y-144756285D01*
X157351457Y-144756285D01*
X157256219Y-144803904D01*
X157208600Y-144851523D01*
X157160980Y-144946761D01*
X157160980Y-145137238D01*
X157208600Y-145232476D01*
X157256219Y-145280095D01*
X157351457Y-145327714D01*
X157589552Y-145327714D01*
X157684790Y-145280095D01*
X157732409Y-145232476D01*
X157780028Y-145137238D01*
X157780028Y-144946761D01*
X157732409Y-144851523D01*
X157684790Y-144803904D01*
X157589552Y-144756285D01*
%TO.C,C1*%
X139461833Y-75834442D02*
X139414214Y-75882061D01*
X139271357Y-75929680D01*
X139176119Y-75929680D01*
X139033261Y-75882061D01*
X138938023Y-75786823D01*
X138890404Y-75691585D01*
X138842785Y-75501109D01*
X138842785Y-75358252D01*
X138890404Y-75167776D01*
X138938023Y-75072538D01*
X139033261Y-74977300D01*
X139176119Y-74929680D01*
X139271357Y-74929680D01*
X139414214Y-74977300D01*
X139461833Y-75024919D01*
X140414214Y-75929680D02*
X139842785Y-75929680D01*
X140128500Y-75929680D02*
X140128500Y-74929680D01*
X140033261Y-75072538D01*
X139938023Y-75167776D01*
X139842785Y-75215395D01*
%TO.C,C3*%
X143470333Y-105563942D02*
X143422714Y-105611561D01*
X143279857Y-105659180D01*
X143184619Y-105659180D01*
X143041761Y-105611561D01*
X142946523Y-105516323D01*
X142898904Y-105421085D01*
X142851285Y-105230609D01*
X142851285Y-105087752D01*
X142898904Y-104897276D01*
X142946523Y-104802038D01*
X143041761Y-104706800D01*
X143184619Y-104659180D01*
X143279857Y-104659180D01*
X143422714Y-104706800D01*
X143470333Y-104754419D01*
X143803666Y-104659180D02*
X144422714Y-104659180D01*
X144089380Y-105040133D01*
X144232238Y-105040133D01*
X144327476Y-105087752D01*
X144375095Y-105135371D01*
X144422714Y-105230609D01*
X144422714Y-105468704D01*
X144375095Y-105563942D01*
X144327476Y-105611561D01*
X144232238Y-105659180D01*
X143946523Y-105659180D01*
X143851285Y-105611561D01*
X143803666Y-105563942D01*
%TO.C,C10*%
X159843742Y-136736057D02*
X159891361Y-136783676D01*
X159938980Y-136926533D01*
X159938980Y-137021771D01*
X159891361Y-137164628D01*
X159796123Y-137259866D01*
X159700885Y-137307485D01*
X159510409Y-137355104D01*
X159367552Y-137355104D01*
X159177076Y-137307485D01*
X159081838Y-137259866D01*
X158986600Y-137164628D01*
X158938980Y-137021771D01*
X158938980Y-136926533D01*
X158986600Y-136783676D01*
X159034219Y-136736057D01*
X159938980Y-135783676D02*
X159938980Y-136355104D01*
X159938980Y-136069390D02*
X158938980Y-136069390D01*
X159081838Y-136164628D01*
X159177076Y-136259866D01*
X159224695Y-136355104D01*
X158938980Y-135164628D02*
X158938980Y-135069390D01*
X158986600Y-134974152D01*
X159034219Y-134926533D01*
X159129457Y-134878914D01*
X159319933Y-134831295D01*
X159558028Y-134831295D01*
X159748504Y-134878914D01*
X159843742Y-134926533D01*
X159891361Y-134974152D01*
X159938980Y-135069390D01*
X159938980Y-135164628D01*
X159891361Y-135259866D01*
X159843742Y-135307485D01*
X159748504Y-135355104D01*
X159558028Y-135402723D01*
X159319933Y-135402723D01*
X159129457Y-135355104D01*
X159034219Y-135307485D01*
X158986600Y-135259866D01*
X158938980Y-135164628D01*
%TO.C,U1*%
X138480895Y-83323180D02*
X138480895Y-84132704D01*
X138528514Y-84227942D01*
X138576133Y-84275561D01*
X138671371Y-84323180D01*
X138861847Y-84323180D01*
X138957085Y-84275561D01*
X139004704Y-84227942D01*
X139052323Y-84132704D01*
X139052323Y-83323180D01*
X140052323Y-84323180D02*
X139480895Y-84323180D01*
X139766609Y-84323180D02*
X139766609Y-83323180D01*
X139671371Y-83466038D01*
X139576133Y-83561276D01*
X139480895Y-83608895D01*
X136423400Y-77252580D02*
X136423400Y-77490676D01*
X136185304Y-77395438D02*
X136423400Y-77490676D01*
X136661495Y-77395438D01*
X136280542Y-77681152D02*
X136423400Y-77490676D01*
X136566257Y-77681152D01*
%TO.C,Q2*%
X152355561Y-115812819D02*
X152260323Y-115765200D01*
X152165085Y-115669961D01*
X152022228Y-115527104D01*
X151926990Y-115479485D01*
X151831752Y-115479485D01*
X151879371Y-115717580D02*
X151784133Y-115669961D01*
X151688895Y-115574723D01*
X151641276Y-115384247D01*
X151641276Y-115050914D01*
X151688895Y-114860438D01*
X151784133Y-114765200D01*
X151879371Y-114717580D01*
X152069847Y-114717580D01*
X152165085Y-114765200D01*
X152260323Y-114860438D01*
X152307942Y-115050914D01*
X152307942Y-115384247D01*
X152260323Y-115574723D01*
X152165085Y-115669961D01*
X152069847Y-115717580D01*
X151879371Y-115717580D01*
X152688895Y-114812819D02*
X152736514Y-114765200D01*
X152831752Y-114717580D01*
X153069847Y-114717580D01*
X153165085Y-114765200D01*
X153212704Y-114812819D01*
X153260323Y-114908057D01*
X153260323Y-115003295D01*
X153212704Y-115146152D01*
X152641276Y-115717580D01*
X153260323Y-115717580D01*
%TO.C,U3*%
X138841595Y-114946480D02*
X138841595Y-115756004D01*
X138889214Y-115851242D01*
X138936833Y-115898861D01*
X139032071Y-115946480D01*
X139222547Y-115946480D01*
X139317785Y-115898861D01*
X139365404Y-115851242D01*
X139413023Y-115756004D01*
X139413023Y-114946480D01*
X139793976Y-114946480D02*
X140413023Y-114946480D01*
X140079690Y-115327433D01*
X140222547Y-115327433D01*
X140317785Y-115375052D01*
X140365404Y-115422671D01*
X140413023Y-115517909D01*
X140413023Y-115756004D01*
X140365404Y-115851242D01*
X140317785Y-115898861D01*
X140222547Y-115946480D01*
X139936833Y-115946480D01*
X139841595Y-115898861D01*
X139793976Y-115851242D01*
%TO.C,USB1*%
X149468104Y-141082780D02*
X149468104Y-141892304D01*
X149515723Y-141987542D01*
X149563342Y-142035161D01*
X149658580Y-142082780D01*
X149849057Y-142082780D01*
X149944295Y-142035161D01*
X149991914Y-141987542D01*
X150039533Y-141892304D01*
X150039533Y-141082780D01*
X150468104Y-142035161D02*
X150610961Y-142082780D01*
X150849057Y-142082780D01*
X150944295Y-142035161D01*
X150991914Y-141987542D01*
X151039533Y-141892304D01*
X151039533Y-141797066D01*
X150991914Y-141701828D01*
X150944295Y-141654209D01*
X150849057Y-141606590D01*
X150658580Y-141558971D01*
X150563342Y-141511352D01*
X150515723Y-141463733D01*
X150468104Y-141368495D01*
X150468104Y-141273257D01*
X150515723Y-141178019D01*
X150563342Y-141130400D01*
X150658580Y-141082780D01*
X150896676Y-141082780D01*
X151039533Y-141130400D01*
X151801438Y-141558971D02*
X151944295Y-141606590D01*
X151991914Y-141654209D01*
X152039533Y-141749447D01*
X152039533Y-141892304D01*
X151991914Y-141987542D01*
X151944295Y-142035161D01*
X151849057Y-142082780D01*
X151468104Y-142082780D01*
X151468104Y-141082780D01*
X151801438Y-141082780D01*
X151896676Y-141130400D01*
X151944295Y-141178019D01*
X151991914Y-141273257D01*
X151991914Y-141368495D01*
X151944295Y-141463733D01*
X151896676Y-141511352D01*
X151801438Y-141558971D01*
X151468104Y-141558971D01*
X152991914Y-142082780D02*
X152420485Y-142082780D01*
X152706200Y-142082780D02*
X152706200Y-141082780D01*
X152610961Y-141225638D01*
X152515723Y-141320876D01*
X152420485Y-141368495D01*
%TO.C,C12*%
X131741942Y-118822742D02*
X131694323Y-118870361D01*
X131551466Y-118917980D01*
X131456228Y-118917980D01*
X131313371Y-118870361D01*
X131218133Y-118775123D01*
X131170514Y-118679885D01*
X131122895Y-118489409D01*
X131122895Y-118346552D01*
X131170514Y-118156076D01*
X131218133Y-118060838D01*
X131313371Y-117965600D01*
X131456228Y-117917980D01*
X131551466Y-117917980D01*
X131694323Y-117965600D01*
X131741942Y-118013219D01*
X132694323Y-118917980D02*
X132122895Y-118917980D01*
X132408609Y-118917980D02*
X132408609Y-117917980D01*
X132313371Y-118060838D01*
X132218133Y-118156076D01*
X132122895Y-118203695D01*
X133075276Y-118013219D02*
X133122895Y-117965600D01*
X133218133Y-117917980D01*
X133456228Y-117917980D01*
X133551466Y-117965600D01*
X133599085Y-118013219D01*
X133646704Y-118108457D01*
X133646704Y-118203695D01*
X133599085Y-118346552D01*
X133027657Y-118917980D01*
X133646704Y-118917980D01*
%TO.C,R6*%
X146162733Y-108097580D02*
X145829400Y-107621390D01*
X145591304Y-108097580D02*
X145591304Y-107097580D01*
X145972257Y-107097580D01*
X146067495Y-107145200D01*
X146115114Y-107192819D01*
X146162733Y-107288057D01*
X146162733Y-107430914D01*
X146115114Y-107526152D01*
X146067495Y-107573771D01*
X145972257Y-107621390D01*
X145591304Y-107621390D01*
X147019876Y-107097580D02*
X146829400Y-107097580D01*
X146734161Y-107145200D01*
X146686542Y-107192819D01*
X146591304Y-107335676D01*
X146543685Y-107526152D01*
X146543685Y-107907104D01*
X146591304Y-108002342D01*
X146638923Y-108049961D01*
X146734161Y-108097580D01*
X146924638Y-108097580D01*
X147019876Y-108049961D01*
X147067495Y-108002342D01*
X147115114Y-107907104D01*
X147115114Y-107669009D01*
X147067495Y-107573771D01*
X147019876Y-107526152D01*
X146924638Y-107478533D01*
X146734161Y-107478533D01*
X146638923Y-107526152D01*
X146591304Y-107573771D01*
X146543685Y-107669009D01*
%TO.C,J2*%
X131670466Y-143444980D02*
X131670466Y-144159266D01*
X131622847Y-144302123D01*
X131527609Y-144397361D01*
X131384752Y-144444980D01*
X131289514Y-144444980D01*
X132099038Y-143540219D02*
X132146657Y-143492600D01*
X132241895Y-143444980D01*
X132479990Y-143444980D01*
X132575228Y-143492600D01*
X132622847Y-143540219D01*
X132670466Y-143635457D01*
X132670466Y-143730695D01*
X132622847Y-143873552D01*
X132051419Y-144444980D01*
X132670466Y-144444980D01*
%TO.C,MK1*%
X148702876Y-80386180D02*
X148702876Y-79386180D01*
X149036209Y-80100466D01*
X149369542Y-79386180D01*
X149369542Y-80386180D01*
X149845733Y-80386180D02*
X149845733Y-79386180D01*
X150417161Y-80386180D02*
X149988590Y-79814752D01*
X150417161Y-79386180D02*
X149845733Y-79957609D01*
X151369542Y-80386180D02*
X150798114Y-80386180D01*
X151083828Y-80386180D02*
X151083828Y-79386180D01*
X150988590Y-79529038D01*
X150893352Y-79624276D01*
X150798114Y-79671895D01*
%TO.C,R8*%
X132726133Y-106294180D02*
X132392800Y-105817990D01*
X132154704Y-106294180D02*
X132154704Y-105294180D01*
X132535657Y-105294180D01*
X132630895Y-105341800D01*
X132678514Y-105389419D01*
X132726133Y-105484657D01*
X132726133Y-105627514D01*
X132678514Y-105722752D01*
X132630895Y-105770371D01*
X132535657Y-105817990D01*
X132154704Y-105817990D01*
X133297561Y-105722752D02*
X133202323Y-105675133D01*
X133154704Y-105627514D01*
X133107085Y-105532276D01*
X133107085Y-105484657D01*
X133154704Y-105389419D01*
X133202323Y-105341800D01*
X133297561Y-105294180D01*
X133488038Y-105294180D01*
X133583276Y-105341800D01*
X133630895Y-105389419D01*
X133678514Y-105484657D01*
X133678514Y-105532276D01*
X133630895Y-105627514D01*
X133583276Y-105675133D01*
X133488038Y-105722752D01*
X133297561Y-105722752D01*
X133202323Y-105770371D01*
X133154704Y-105817990D01*
X133107085Y-105913228D01*
X133107085Y-106103704D01*
X133154704Y-106198942D01*
X133202323Y-106246561D01*
X133297561Y-106294180D01*
X133488038Y-106294180D01*
X133583276Y-106246561D01*
X133630895Y-106198942D01*
X133678514Y-106103704D01*
X133678514Y-105913228D01*
X133630895Y-105817990D01*
X133583276Y-105770371D01*
X133488038Y-105722752D01*
%TO.C,D2*%
X154811504Y-111704380D02*
X154811504Y-110704380D01*
X155049600Y-110704380D01*
X155192457Y-110752000D01*
X155287695Y-110847238D01*
X155335314Y-110942476D01*
X155382933Y-111132952D01*
X155382933Y-111275809D01*
X155335314Y-111466285D01*
X155287695Y-111561523D01*
X155192457Y-111656761D01*
X155049600Y-111704380D01*
X154811504Y-111704380D01*
X155763885Y-110799619D02*
X155811504Y-110752000D01*
X155906742Y-110704380D01*
X156144838Y-110704380D01*
X156240076Y-110752000D01*
X156287695Y-110799619D01*
X156335314Y-110894857D01*
X156335314Y-110990095D01*
X156287695Y-111132952D01*
X155716266Y-111704380D01*
X156335314Y-111704380D01*
%TO.C,C6*%
X158319742Y-135751866D02*
X158367361Y-135799485D01*
X158414980Y-135942342D01*
X158414980Y-136037580D01*
X158367361Y-136180438D01*
X158272123Y-136275676D01*
X158176885Y-136323295D01*
X157986409Y-136370914D01*
X157843552Y-136370914D01*
X157653076Y-136323295D01*
X157557838Y-136275676D01*
X157462600Y-136180438D01*
X157414980Y-136037580D01*
X157414980Y-135942342D01*
X157462600Y-135799485D01*
X157510219Y-135751866D01*
X157414980Y-134894723D02*
X157414980Y-135085200D01*
X157462600Y-135180438D01*
X157510219Y-135228057D01*
X157653076Y-135323295D01*
X157843552Y-135370914D01*
X158224504Y-135370914D01*
X158319742Y-135323295D01*
X158367361Y-135275676D01*
X158414980Y-135180438D01*
X158414980Y-134989961D01*
X158367361Y-134894723D01*
X158319742Y-134847104D01*
X158224504Y-134799485D01*
X157986409Y-134799485D01*
X157891171Y-134847104D01*
X157843552Y-134894723D01*
X157795933Y-134989961D01*
X157795933Y-135180438D01*
X157843552Y-135275676D01*
X157891171Y-135323295D01*
X157986409Y-135370914D01*
%TO.C,F1*%
X153895466Y-137494971D02*
X153562133Y-137494971D01*
X153562133Y-138018780D02*
X153562133Y-137018780D01*
X154038323Y-137018780D01*
X154943085Y-138018780D02*
X154371657Y-138018780D01*
X154657371Y-138018780D02*
X154657371Y-137018780D01*
X154562133Y-137161638D01*
X154466895Y-137256876D01*
X154371657Y-137304495D01*
%TO.C,C5*%
X151928533Y-118771942D02*
X151880914Y-118819561D01*
X151738057Y-118867180D01*
X151642819Y-118867180D01*
X151499961Y-118819561D01*
X151404723Y-118724323D01*
X151357104Y-118629085D01*
X151309485Y-118438609D01*
X151309485Y-118295752D01*
X151357104Y-118105276D01*
X151404723Y-118010038D01*
X151499961Y-117914800D01*
X151642819Y-117867180D01*
X151738057Y-117867180D01*
X151880914Y-117914800D01*
X151928533Y-117962419D01*
X152833295Y-117867180D02*
X152357104Y-117867180D01*
X152309485Y-118343371D01*
X152357104Y-118295752D01*
X152452342Y-118248133D01*
X152690438Y-118248133D01*
X152785676Y-118295752D01*
X152833295Y-118343371D01*
X152880914Y-118438609D01*
X152880914Y-118676704D01*
X152833295Y-118771942D01*
X152785676Y-118819561D01*
X152690438Y-118867180D01*
X152452342Y-118867180D01*
X152357104Y-118819561D01*
X152309485Y-118771942D01*
%TO.C,R4*%
X146304633Y-75952780D02*
X145971300Y-75476590D01*
X145733204Y-75952780D02*
X145733204Y-74952780D01*
X146114157Y-74952780D01*
X146209395Y-75000400D01*
X146257014Y-75048019D01*
X146304633Y-75143257D01*
X146304633Y-75286114D01*
X146257014Y-75381352D01*
X146209395Y-75428971D01*
X146114157Y-75476590D01*
X145733204Y-75476590D01*
X147161776Y-75286114D02*
X147161776Y-75952780D01*
X146923680Y-74905161D02*
X146685585Y-75619447D01*
X147304633Y-75619447D01*
%TO.C,C8*%
X140148033Y-105589342D02*
X140100414Y-105636961D01*
X139957557Y-105684580D01*
X139862319Y-105684580D01*
X139719461Y-105636961D01*
X139624223Y-105541723D01*
X139576604Y-105446485D01*
X139528985Y-105256009D01*
X139528985Y-105113152D01*
X139576604Y-104922676D01*
X139624223Y-104827438D01*
X139719461Y-104732200D01*
X139862319Y-104684580D01*
X139957557Y-104684580D01*
X140100414Y-104732200D01*
X140148033Y-104779819D01*
X140719461Y-105113152D02*
X140624223Y-105065533D01*
X140576604Y-105017914D01*
X140528985Y-104922676D01*
X140528985Y-104875057D01*
X140576604Y-104779819D01*
X140624223Y-104732200D01*
X140719461Y-104684580D01*
X140909938Y-104684580D01*
X141005176Y-104732200D01*
X141052795Y-104779819D01*
X141100414Y-104875057D01*
X141100414Y-104922676D01*
X141052795Y-105017914D01*
X141005176Y-105065533D01*
X140909938Y-105113152D01*
X140719461Y-105113152D01*
X140624223Y-105160771D01*
X140576604Y-105208390D01*
X140528985Y-105303628D01*
X140528985Y-105494104D01*
X140576604Y-105589342D01*
X140624223Y-105636961D01*
X140719461Y-105684580D01*
X140909938Y-105684580D01*
X141005176Y-105636961D01*
X141052795Y-105589342D01*
X141100414Y-105494104D01*
X141100414Y-105303628D01*
X141052795Y-105208390D01*
X141005176Y-105160771D01*
X140909938Y-105113152D01*
%TO.C,C4*%
X136561533Y-105640142D02*
X136513914Y-105687761D01*
X136371057Y-105735380D01*
X136275819Y-105735380D01*
X136132961Y-105687761D01*
X136037723Y-105592523D01*
X135990104Y-105497285D01*
X135942485Y-105306809D01*
X135942485Y-105163952D01*
X135990104Y-104973476D01*
X136037723Y-104878238D01*
X136132961Y-104783000D01*
X136275819Y-104735380D01*
X136371057Y-104735380D01*
X136513914Y-104783000D01*
X136561533Y-104830619D01*
X137418676Y-105068714D02*
X137418676Y-105735380D01*
X137180580Y-104687761D02*
X136942485Y-105402047D01*
X137561533Y-105402047D01*
%TO.C,R3*%
X159862780Y-145683266D02*
X159386590Y-146016600D01*
X159862780Y-146254695D02*
X158862780Y-146254695D01*
X158862780Y-145873742D01*
X158910400Y-145778504D01*
X158958019Y-145730885D01*
X159053257Y-145683266D01*
X159196114Y-145683266D01*
X159291352Y-145730885D01*
X159338971Y-145778504D01*
X159386590Y-145873742D01*
X159386590Y-146254695D01*
X158862780Y-145349933D02*
X158862780Y-144730885D01*
X159243733Y-145064219D01*
X159243733Y-144921361D01*
X159291352Y-144826123D01*
X159338971Y-144778504D01*
X159434209Y-144730885D01*
X159672304Y-144730885D01*
X159767542Y-144778504D01*
X159815161Y-144826123D01*
X159862780Y-144921361D01*
X159862780Y-145207076D01*
X159815161Y-145302314D01*
X159767542Y-145349933D01*
%TO.C,R5*%
X149413633Y-111408880D02*
X149080300Y-110932690D01*
X148842204Y-111408880D02*
X148842204Y-110408880D01*
X149223157Y-110408880D01*
X149318395Y-110456500D01*
X149366014Y-110504119D01*
X149413633Y-110599357D01*
X149413633Y-110742214D01*
X149366014Y-110837452D01*
X149318395Y-110885071D01*
X149223157Y-110932690D01*
X148842204Y-110932690D01*
X150318395Y-110408880D02*
X149842204Y-110408880D01*
X149794585Y-110885071D01*
X149842204Y-110837452D01*
X149937442Y-110789833D01*
X150175538Y-110789833D01*
X150270776Y-110837452D01*
X150318395Y-110885071D01*
X150366014Y-110980309D01*
X150366014Y-111218404D01*
X150318395Y-111313642D01*
X150270776Y-111361261D01*
X150175538Y-111408880D01*
X149937442Y-111408880D01*
X149842204Y-111361261D01*
X149794585Y-111313642D01*
%TO.C,C2*%
X132726133Y-125858542D02*
X132678514Y-125906161D01*
X132535657Y-125953780D01*
X132440419Y-125953780D01*
X132297561Y-125906161D01*
X132202323Y-125810923D01*
X132154704Y-125715685D01*
X132107085Y-125525209D01*
X132107085Y-125382352D01*
X132154704Y-125191876D01*
X132202323Y-125096638D01*
X132297561Y-125001400D01*
X132440419Y-124953780D01*
X132535657Y-124953780D01*
X132678514Y-125001400D01*
X132726133Y-125049019D01*
X133107085Y-125049019D02*
X133154704Y-125001400D01*
X133249942Y-124953780D01*
X133488038Y-124953780D01*
X133583276Y-125001400D01*
X133630895Y-125049019D01*
X133678514Y-125144257D01*
X133678514Y-125239495D01*
X133630895Y-125382352D01*
X133059466Y-125953780D01*
X133678514Y-125953780D01*
%TO.C,D1*%
X154405104Y-134107180D02*
X154405104Y-133107180D01*
X154643200Y-133107180D01*
X154786057Y-133154800D01*
X154881295Y-133250038D01*
X154928914Y-133345276D01*
X154976533Y-133535752D01*
X154976533Y-133678609D01*
X154928914Y-133869085D01*
X154881295Y-133964323D01*
X154786057Y-134059561D01*
X154643200Y-134107180D01*
X154405104Y-134107180D01*
X155928914Y-134107180D02*
X155357485Y-134107180D01*
X155643200Y-134107180D02*
X155643200Y-133107180D01*
X155547961Y-133250038D01*
X155452723Y-133345276D01*
X155357485Y-133392895D01*
%TO.C,U2*%
X131140295Y-95565980D02*
X131140295Y-96375504D01*
X131187914Y-96470742D01*
X131235533Y-96518361D01*
X131330771Y-96565980D01*
X131521247Y-96565980D01*
X131616485Y-96518361D01*
X131664104Y-96470742D01*
X131711723Y-96375504D01*
X131711723Y-95565980D01*
X132140295Y-95661219D02*
X132187914Y-95613600D01*
X132283152Y-95565980D01*
X132521247Y-95565980D01*
X132616485Y-95613600D01*
X132664104Y-95661219D01*
X132711723Y-95756457D01*
X132711723Y-95851695D01*
X132664104Y-95994552D01*
X132092676Y-96565980D01*
X132711723Y-96565980D01*
%TO.C,P1*%
X145235704Y-69972180D02*
X145235704Y-68972180D01*
X145616657Y-68972180D01*
X145711895Y-69019800D01*
X145759514Y-69067419D01*
X145807133Y-69162657D01*
X145807133Y-69305514D01*
X145759514Y-69400752D01*
X145711895Y-69448371D01*
X145616657Y-69495990D01*
X145235704Y-69495990D01*
X146759514Y-69972180D02*
X146188085Y-69972180D01*
X146473800Y-69972180D02*
X146473800Y-68972180D01*
X146378561Y-69115038D01*
X146283323Y-69210276D01*
X146188085Y-69257895D01*
%TO.C,C7*%
X149032933Y-83389742D02*
X148985314Y-83437361D01*
X148842457Y-83484980D01*
X148747219Y-83484980D01*
X148604361Y-83437361D01*
X148509123Y-83342123D01*
X148461504Y-83246885D01*
X148413885Y-83056409D01*
X148413885Y-82913552D01*
X148461504Y-82723076D01*
X148509123Y-82627838D01*
X148604361Y-82532600D01*
X148747219Y-82484980D01*
X148842457Y-82484980D01*
X148985314Y-82532600D01*
X149032933Y-82580219D01*
X149366266Y-82484980D02*
X150032933Y-82484980D01*
X149604361Y-83484980D01*
%TO.C,C11*%
X151757142Y-125960142D02*
X151709523Y-126007761D01*
X151566666Y-126055380D01*
X151471428Y-126055380D01*
X151328571Y-126007761D01*
X151233333Y-125912523D01*
X151185714Y-125817285D01*
X151138095Y-125626809D01*
X151138095Y-125483952D01*
X151185714Y-125293476D01*
X151233333Y-125198238D01*
X151328571Y-125103000D01*
X151471428Y-125055380D01*
X151566666Y-125055380D01*
X151709523Y-125103000D01*
X151757142Y-125150619D01*
X152709523Y-126055380D02*
X152138095Y-126055380D01*
X152423809Y-126055380D02*
X152423809Y-125055380D01*
X152328571Y-125198238D01*
X152233333Y-125293476D01*
X152138095Y-125341095D01*
X153661904Y-126055380D02*
X153090476Y-126055380D01*
X153376190Y-126055380D02*
X153376190Y-125055380D01*
X153280952Y-125198238D01*
X153185714Y-125293476D01*
X153090476Y-125341095D01*
%TO.C,R7*%
X155408333Y-113253780D02*
X155075000Y-112777590D01*
X154836904Y-113253780D02*
X154836904Y-112253780D01*
X155217857Y-112253780D01*
X155313095Y-112301400D01*
X155360714Y-112349019D01*
X155408333Y-112444257D01*
X155408333Y-112587114D01*
X155360714Y-112682352D01*
X155313095Y-112729971D01*
X155217857Y-112777590D01*
X154836904Y-112777590D01*
X155741666Y-112253780D02*
X156408333Y-112253780D01*
X155979761Y-113253780D01*
%TO.C,Q3*%
X145751561Y-115406419D02*
X145656323Y-115358800D01*
X145561085Y-115263561D01*
X145418228Y-115120704D01*
X145322990Y-115073085D01*
X145227752Y-115073085D01*
X145275371Y-115311180D02*
X145180133Y-115263561D01*
X145084895Y-115168323D01*
X145037276Y-114977847D01*
X145037276Y-114644514D01*
X145084895Y-114454038D01*
X145180133Y-114358800D01*
X145275371Y-114311180D01*
X145465847Y-114311180D01*
X145561085Y-114358800D01*
X145656323Y-114454038D01*
X145703942Y-114644514D01*
X145703942Y-114977847D01*
X145656323Y-115168323D01*
X145561085Y-115263561D01*
X145465847Y-115311180D01*
X145275371Y-115311180D01*
X146037276Y-114311180D02*
X146656323Y-114311180D01*
X146322990Y-114692133D01*
X146465847Y-114692133D01*
X146561085Y-114739752D01*
X146608704Y-114787371D01*
X146656323Y-114882609D01*
X146656323Y-115120704D01*
X146608704Y-115215942D01*
X146561085Y-115263561D01*
X146465847Y-115311180D01*
X146180133Y-115311180D01*
X146084895Y-115263561D01*
X146037276Y-115215942D01*
D11*
%TO.C,J1*%
X156890900Y-65807100D02*
X159550900Y-65807100D01*
X156890900Y-78567100D02*
X159550900Y-78567100D01*
X156890900Y-65807100D02*
X156890900Y-78567100D01*
X159550900Y-63207100D02*
X159550900Y-64537100D01*
X159550900Y-65807100D02*
X159550900Y-78567100D01*
X158220900Y-63207100D02*
X159550900Y-63207100D01*
D12*
%TO.C,F2*%
X146374700Y-136116038D02*
X133374700Y-136116038D01*
X146374700Y-133015962D02*
X146374700Y-136116038D01*
X133374700Y-136116038D02*
X133374700Y-133015962D01*
X133374700Y-133016216D02*
X146374700Y-133016216D01*
D13*
X146531697Y-132888962D02*
G75*
G03*
X146531697Y-132888962I-29997J0D01*
G01*
D10*
%TO.C,U4*%
X159504500Y-125052600D02*
X159004500Y-125052600D01*
X159504500Y-129552600D02*
X159504500Y-130052600D01*
X154504500Y-125552600D02*
X154504500Y-125052600D01*
X154504500Y-125052600D02*
X155004500Y-125052600D01*
X154504500Y-130052600D02*
X155004500Y-130052600D01*
X154504500Y-129552600D02*
X154504500Y-130052600D01*
X159504500Y-125552600D02*
X159504500Y-125052600D01*
X159504500Y-130052600D02*
X159004500Y-130052600D01*
D14*
X154310100Y-130346600D02*
G75*
G03*
X154310100Y-130346600I-125000J0D01*
G01*
D11*
%TO.C,R9*%
X158482000Y-148614824D02*
X158482000Y-148105376D01*
X157437000Y-148614824D02*
X157437000Y-148105376D01*
%TO.C,C9*%
X132751233Y-115156700D02*
X133043767Y-115156700D01*
X132751233Y-114136700D02*
X133043767Y-114136700D01*
%TO.C,C1*%
X139482233Y-77417300D02*
X139774767Y-77417300D01*
X139482233Y-76397300D02*
X139774767Y-76397300D01*
%TO.C,R1*%
X133822800Y-80564176D02*
X133822800Y-81073624D01*
X134867800Y-80564176D02*
X134867800Y-81073624D01*
%TO.C,C3*%
X143864167Y-105988300D02*
X143571633Y-105988300D01*
X143864167Y-107008300D02*
X143571633Y-107008300D01*
%TO.C,C10*%
X158983700Y-132815433D02*
X158983700Y-133107967D01*
X160003700Y-132815433D02*
X160003700Y-133107967D01*
%TO.C,U1*%
X141292200Y-77961400D02*
X136796400Y-77961400D01*
X136796400Y-83066800D02*
X141292200Y-83066800D01*
X138739500Y-77961400D02*
G75*
G03*
X139349100Y-77961400I304800J0D01*
G01*
%TO.C,Q2*%
X151231700Y-115411400D02*
X151231700Y-116061400D01*
X148111700Y-115411400D02*
X148111700Y-116061400D01*
X151231700Y-115411400D02*
X151231700Y-113736400D01*
X148111700Y-115411400D02*
X148111700Y-114761400D01*
%TO.C,U3*%
X137693500Y-114404100D02*
X137693500Y-113144100D01*
X141453500Y-107584100D02*
X137693500Y-107584100D01*
X137693500Y-107584100D02*
X137693500Y-108844100D01*
X143703500Y-114404100D02*
X137693500Y-114404100D01*
%TO.C,C12*%
X141016700Y-123421163D02*
X139952263Y-124485600D01*
X141650450Y-123316850D02*
X141650450Y-122529350D01*
X134196700Y-124485600D02*
X134196700Y-122135600D01*
X139952263Y-124485600D02*
X134196700Y-124485600D01*
X142044200Y-122923100D02*
X141256700Y-122923100D01*
X141016700Y-118730037D02*
X139952263Y-117665600D01*
X134196700Y-117665600D02*
X134196700Y-120015600D01*
X141016700Y-118730037D02*
X141016700Y-120015600D01*
X141016700Y-123421163D02*
X141016700Y-122135600D01*
X139952263Y-117665600D02*
X134196700Y-117665600D01*
%TO.C,R6*%
X146309424Y-108566600D02*
X145799976Y-108566600D01*
X146309424Y-109611600D02*
X145799976Y-109611600D01*
D15*
%TO.C,MK1*%
X144747500Y-78378800D02*
G75*
G03*
X144747500Y-78378800I-100000J0D01*
G01*
D11*
%TO.C,R8*%
X133152224Y-106859800D02*
X132642776Y-106859800D01*
X133152224Y-107904800D02*
X132642776Y-107904800D01*
%TO.C,D2*%
X160018500Y-110460000D02*
X157558500Y-110460000D01*
X157558500Y-111930000D02*
X160018500Y-111930000D01*
X160018500Y-111930000D02*
X160018500Y-110460000D01*
%TO.C,C6*%
X158479700Y-133107967D02*
X158479700Y-132815433D01*
X157459700Y-133107967D02*
X157459700Y-132815433D01*
%TO.C,F1*%
X148699248Y-135827800D02*
X151471752Y-135827800D01*
X148699248Y-139247800D02*
X151471752Y-139247800D01*
%TO.C,C5*%
X143924900Y-118730037D02*
X144989337Y-117665600D01*
X143291150Y-118834350D02*
X143291150Y-119621850D01*
X150744900Y-117665600D02*
X150744900Y-120015600D01*
X144989337Y-117665600D02*
X150744900Y-117665600D01*
X142897400Y-119228100D02*
X143684900Y-119228100D01*
X143924900Y-123421163D02*
X144989337Y-124485600D01*
X150744900Y-124485600D02*
X150744900Y-122135600D01*
X143924900Y-123421163D02*
X143924900Y-122135600D01*
X143924900Y-118730037D02*
X143924900Y-120015600D01*
X144989337Y-124485600D02*
X150744900Y-124485600D01*
%TO.C,R4*%
X146216576Y-77452900D02*
X146726024Y-77452900D01*
X146216576Y-76407900D02*
X146726024Y-76407900D01*
%TO.C,C8*%
X140168433Y-107109900D02*
X140460967Y-107109900D01*
X140168433Y-106089900D02*
X140460967Y-106089900D01*
%TO.C,C4*%
X137006567Y-106140700D02*
X136714033Y-106140700D01*
X137006567Y-107160700D02*
X136714033Y-107160700D01*
%TO.C,R3*%
X160006000Y-148614824D02*
X160006000Y-148105376D01*
X158961000Y-148614824D02*
X158961000Y-148105376D01*
%TO.C,R5*%
X149325576Y-112909000D02*
X149835024Y-112909000D01*
X149325576Y-111864000D02*
X149835024Y-111864000D01*
%TO.C,C2*%
X141049500Y-130586963D02*
X139985063Y-131651400D01*
X141683250Y-130482650D02*
X141683250Y-129695150D01*
X134229500Y-131651400D02*
X134229500Y-129301400D01*
X139985063Y-131651400D02*
X134229500Y-131651400D01*
X142077000Y-130088900D02*
X141289500Y-130088900D01*
X141049500Y-125895837D02*
X139985063Y-124831400D01*
X134229500Y-124831400D02*
X134229500Y-127181400D01*
X141049500Y-125895837D02*
X141049500Y-127181400D01*
X141049500Y-130586963D02*
X141049500Y-129301400D01*
X139985063Y-124831400D02*
X134229500Y-124831400D01*
%TO.C,D1*%
X146758100Y-132129600D02*
X146758100Y-135429600D01*
X146758100Y-135429600D02*
X152158100Y-135429600D01*
X146758100Y-132129600D02*
X152158100Y-132129600D01*
D16*
%TO.C,U2*%
X134467300Y-101326300D02*
X134467300Y-103776300D01*
X135117300Y-85776300D02*
X134467300Y-85776300D01*
X134467300Y-85776300D02*
X134467300Y-88226300D01*
X134467300Y-103776300D02*
X135117300Y-103776300D01*
D15*
X152567300Y-84776300D02*
G75*
G03*
X152567300Y-84776300I-100000J0D01*
G01*
D13*
%TO.C,P1*%
X152049109Y-59139638D02*
G75*
G03*
X152049109Y-59139638I-29997J0D01*
G01*
D11*
%TO.C,C7*%
X146592167Y-82541800D02*
X146299633Y-82541800D01*
X146592167Y-83561800D02*
X146299633Y-83561800D01*
%TO.C,C11*%
X143950300Y-125943637D02*
X145014737Y-124879200D01*
X143316550Y-126047950D02*
X143316550Y-126835450D01*
X150770300Y-124879200D02*
X150770300Y-127229200D01*
X145014737Y-124879200D02*
X150770300Y-124879200D01*
X142922800Y-126441700D02*
X143710300Y-126441700D01*
X143950300Y-130634763D02*
X145014737Y-131699200D01*
X150770300Y-131699200D02*
X150770300Y-129349200D01*
X143950300Y-130634763D02*
X143950300Y-129349200D01*
X143950300Y-125943637D02*
X143950300Y-127229200D01*
X145014737Y-131699200D02*
X150770300Y-131699200D01*
%TO.C,R7*%
X158613224Y-112221900D02*
X158103776Y-112221900D01*
X158613224Y-113266900D02*
X158103776Y-113266900D01*
%TO.C,Q3*%
X147640100Y-112111700D02*
X147640100Y-112761700D01*
X144520100Y-112111700D02*
X144520100Y-112761700D01*
X147640100Y-112111700D02*
X147640100Y-110436700D01*
X144520100Y-112111700D02*
X144520100Y-111461700D01*
%TD*%
M02*
