M48
; DRILL file {KiCad (6.0.0-0)} date 2022 February 03, Thursday 17:32:02
; FORMAT={-:-/ absolute / inch / decimal}
; #@! TF.CreationDate,2022-02-03T17:32:02+01:00
; #@! TF.GenerationSoftware,Kicad,Pcbnew,(6.0.0-0)
; #@! TF.FileFunction,Plated,1,2,PTH
FMAT,2
INCH
; #@! TA.AperFunction,Plated,PTH,ComponentDrill
T1C0.0079
; #@! TA.AperFunction,Plated,PTH,ViaDrill
T2C0.0157
; #@! TA.AperFunction,Plated,PTH,ComponentDrill
T3C0.0276
; #@! TA.AperFunction,Plated,PTH,ComponentDrill
T4C0.0276
; #@! TA.AperFunction,Plated,PTH,ComponentDrill
T5C0.0354
; #@! TA.AperFunction,Plated,PTH,ComponentDrill
T6C0.0394
; #@! TA.AperFunction,Plated,PTH,ComponentDrill
T7C0.0591
; #@! TA.AperFunction,Plated,PTH,ComponentDrill
T8C0.0591
; #@! TA.AperFunction,Plated,PTH,ComponentDrill
T9C0.0709
%
G90
G05
T1
X5.5152Y-3.8235
X5.5152Y-3.8958
X5.5513Y-3.7874
X5.5513Y-3.8596
X5.5513Y-3.9319
X5.5874Y-3.8235
X5.5874Y-3.8958
X5.6235Y-3.7874
X5.6235Y-3.8596
X5.6235Y-3.9319
X5.6596Y-3.8235
X5.6596Y-3.8958
T2
X5.2058Y-3.2408
X5.3779Y-4.0799
X5.378Y-3.7941
X5.3822Y-3.4302
X5.3825Y-3.296
X5.3936Y-3.9568
X5.4072Y-4.3733
X5.4207Y-3.6824
X5.4503Y-4.1423
X5.4534Y-3.2827
X5.4554Y-3.6557
X5.4627Y-4.0887
X5.4782Y-4.1702
X5.5547Y-4.396
X5.5596Y-4.3413
X5.5824Y-4.2981
X5.5946Y-3.155
X5.6271Y-4.6939
X5.6446Y-4.1704
X5.7168Y-3.3189
X5.7253Y-3.4234
X5.7554Y-3.4525
X5.8029Y-4.5003
X5.8289Y-4.5976
X5.8415Y-4.5174
X5.8438Y-5.0433
X5.8688Y-4.5981
X5.8788Y-4.8747
X5.8952Y-3.1011
X5.9073Y-4.9327
X5.9223Y-4.5521
X5.9245Y-4.6661
X5.9553Y-5.0739
X6.0228Y-3.1314
X6.0274Y-4.7639
X6.0519Y-4.8021
X6.0593Y-3.1908
X6.0845Y-4.7477
X6.1119Y-5.0099
X6.1216Y-5.1014
X6.134Y-2.6741
X6.1582Y-4.7055
T3
X5.7618Y-5.031
X5.9894Y-5.031
T6
X6.1046Y-2.734
X6.1046Y-2.834
X6.1046Y-2.934
X6.1046Y-3.034
X6.1046Y-3.134
X6.1046Y-3.234
T7
X5.3944Y-4.7345
T8
X5.2996Y-2.8045
X5.4496Y-2.8045
X5.5996Y-2.8045
T9
X5.3944Y-5.1656
T4
G00X5.7055Y-4.9896
M15
G01X5.7055Y-5.0329
M16
G05
G00X5.7055Y-5.164
M15
G01X5.7055Y-5.1877
M16
G05
G00X6.0457Y-4.9896
M15
G01X6.0457Y-5.0329
M16
G05
G00X6.0457Y-5.164
M15
G01X6.0457Y-5.1877
M16
G05
T5
G00X5.2035Y-4.8959
M15
G01X5.2035Y-4.8487
M16
G05
G00X5.2035Y-5.081
M15
G01X5.2035Y-5.0337
M16
G05
G00X5.4259Y-5.0377
M15
G01X5.3629Y-5.0377
M16
G05
G00X5.5854Y-4.8959
M15
G01X5.5854Y-4.8487
M16
G05
G00X5.5854Y-5.081
M15
G01X5.5854Y-5.0337
M16
G05
T0
M30
