M48
; DRILL file {KiCad (6.0.0-0)} date 2022 January 27, Thursday 17:40:45
; FORMAT={-:-/ absolute / inch / decimal}
; #@! TF.CreationDate,2022-01-27T17:40:46+01:00
; #@! TF.GenerationSoftware,Kicad,Pcbnew,(6.0.0-0)
; #@! TF.FileFunction,Plated,1,2,PTH
FMAT,2
INCH
; #@! TA.AperFunction,Plated,PTH,ComponentDrill
T1C0.0079
; #@! TA.AperFunction,Plated,PTH,ViaDrill
T2C0.0157
; #@! TA.AperFunction,Plated,PTH,ComponentDrill
T3C0.0276
; #@! TA.AperFunction,Plated,PTH,ComponentDrill
T4C0.0276
; #@! TA.AperFunction,Plated,PTH,ComponentDrill
T5C0.0354
; #@! TA.AperFunction,Plated,PTH,ComponentDrill
T6C0.0394
; #@! TA.AperFunction,Plated,PTH,ComponentDrill
T7C0.0512
; #@! TA.AperFunction,Plated,PTH,ComponentDrill
T8C0.0591
; #@! TA.AperFunction,Plated,PTH,ComponentDrill
T9C0.0709
%
G90
G05
T1
X5.3734Y-3.8521
X5.3734Y-3.9243
X5.4095Y-3.8159
X5.4095Y-3.8882
X5.4095Y-3.9604
X5.4456Y-3.8521
X5.4456Y-3.9243
X5.4818Y-3.8159
X5.4818Y-3.8882
X5.4818Y-3.9604
X5.5179Y-3.8521
X5.5179Y-3.9243
T2
X4.3289Y-3.6824
X4.3586Y-3.522
X4.6232Y-4.1457
X4.7022Y-3.537
X4.8611Y-3.8443
X4.9172Y-3.6566
X4.9823Y-3.6052
X5.0093Y-3.634
X5.031Y-3.6941
X5.2189Y-3.9629
X5.2461Y-3.9333
X5.3002Y-3.6175
X5.4179Y-3.6056
X5.4439Y-3.5757
X5.6252Y-3.7738
X5.6292Y-3.9106
X5.6335Y-3.6988
X5.6571Y-3.9385
X5.6649Y-3.9779
X5.6825Y-3.7931
X5.7025Y-3.8754
X5.7093Y-3.9407
X5.7379Y-3.6988
X5.7562Y-3.7966
X5.8837Y-3.9416
X5.9101Y-3.9719
X5.9503Y-3.5653
X5.9842Y-4.2255
X6.0589Y-3.9726
X6.0948Y-3.494
X6.1151Y-3.5368
X6.1893Y-3.5327
X6.2597Y-3.5214
X6.2649Y-3.3108
X6.2994Y-3.5108
X6.3026Y-3.3766
X6.3066Y-3.4259
X6.3175Y-3.951
X6.3175Y-3.6883
X6.3985Y-3.4945
X6.5042Y-3.7876
X6.609Y-3.562
X6.6172Y-3.5061
X6.6296Y-3.6021
X6.6859Y-3.4573
T3
X6.607Y-3.4612
X6.607Y-3.6888
T6
X4.314Y-3.3458
X4.314Y-3.4458
X4.414Y-3.3458
X4.414Y-3.4458
X4.514Y-3.3458
X4.514Y-3.4458
X4.614Y-3.3458
X4.614Y-3.4458
X4.714Y-3.3458
X4.714Y-3.4458
X4.814Y-3.3458
X4.814Y-3.4458
T7
X4.47Y-3.82
X4.47Y-4.02
X4.47Y-4.22
T8
X6.3136Y-4.0812
T9
X6.7447Y-4.0812
T4
G00X6.5656Y-3.4049
M15
G01X6.6089Y-3.4049
M16
G05
G00X6.5656Y-3.7451
M15
G01X6.6089Y-3.7451
M16
G05
G00X6.74Y-3.4049
M15
G01X6.7637Y-3.4049
M16
G05
G00X6.74Y-3.7451
M15
G01X6.7637Y-3.7451
M16
G05
T5
G00X6.475Y-3.8902
M15
G01X6.4278Y-3.8902
M16
G05
G00X6.475Y-4.2721
M15
G01X6.4278Y-4.2721
M16
G05
G00X6.6167Y-4.0497
M15
G01X6.6167Y-4.1127
M16
G05
G00X6.66Y-3.8902
M15
G01X6.6128Y-3.8902
M16
G05
G00X6.66Y-4.2721
M15
G01X6.6128Y-4.2721
M16
G05
T0
M30
