%TF.GenerationSoftware,KiCad,Pcbnew,(6.0.0-0)*%
%TF.CreationDate,2022-01-27T22:48:40+01:00*%
%TF.ProjectId,GlowCoreMini,476c6f77-436f-4726-954d-696e692e6b69,rev?*%
%TF.SameCoordinates,Original*%
%TF.FileFunction,Copper,L2,Bot*%
%TF.FilePolarity,Positive*%
%FSLAX46Y46*%
G04 Gerber Fmt 4.6, Leading zero omitted, Abs format (unit mm)*
G04 Created by KiCad (PCBNEW (6.0.0-0)) date 2022-01-27 22:48:40*
%MOMM*%
%LPD*%
G01*
G04 APERTURE LIST*
%TA.AperFunction,ComponentPad*%
%ADD10C,0.700000*%
%TD*%
%TA.AperFunction,ComponentPad*%
%ADD11O,2.200000X1.200000*%
%TD*%
%TA.AperFunction,ComponentPad*%
%ADD12O,1.800000X1.200000*%
%TD*%
%TA.AperFunction,ComponentPad*%
%ADD13C,1.800000*%
%TD*%
%TA.AperFunction,ComponentPad*%
%ADD14O,3.000000X1.600000*%
%TD*%
%TA.AperFunction,ComponentPad*%
%ADD15O,1.600000X3.200000*%
%TD*%
%TA.AperFunction,ComponentPad*%
%ADD16C,2.300000*%
%TD*%
%TA.AperFunction,ComponentPad*%
%ADD17R,1.700000X1.700000*%
%TD*%
%TA.AperFunction,ComponentPad*%
%ADD18O,1.700000X1.700000*%
%TD*%
%TA.AperFunction,ComponentPad*%
%ADD19R,2.600000X2.600000*%
%TD*%
%TA.AperFunction,ComponentPad*%
%ADD20C,2.600000*%
%TD*%
%TA.AperFunction,ComponentPad*%
%ADD21C,0.300000*%
%TD*%
%TA.AperFunction,SMDPad,CuDef*%
%ADD22R,1.500000X1.000000*%
%TD*%
%TA.AperFunction,ViaPad*%
%ADD23C,0.800000*%
%TD*%
%TA.AperFunction,Conductor*%
%ADD24C,0.160000*%
%TD*%
%TA.AperFunction,Conductor*%
%ADD25C,4.000000*%
%TD*%
%TA.AperFunction,Conductor*%
%ADD26C,1.400000*%
%TD*%
G04 APERTURE END LIST*
D10*
%TO.P,USB1,*%
%TO.N,*%
X168071000Y-94330000D03*
X168071000Y-88550000D03*
D11*
%TO.P,USB1,SHELL,SHELL*%
%TO.N,GND*%
X167571000Y-95760000D03*
X167571000Y-87120000D03*
D12*
X171751000Y-87120000D03*
X171751000Y-95760000D03*
%TD*%
D13*
%TO.P,J2,*%
%TO.N,*%
X171491000Y-103662000D03*
D14*
%TO.P,J2,1*%
%TO.N,GND*%
X164041000Y-98812000D03*
X168741000Y-98812000D03*
X168741000Y-108512000D03*
X164041000Y-108512000D03*
D15*
%TO.P,J2,2*%
%TO.N,N/C*%
X168241000Y-103662000D03*
D16*
%TO.P,J2,3*%
%TO.N,+5V*%
X160541000Y-103662000D03*
%TD*%
D17*
%TO.P,J3,1,Pin_1*%
%TO.N,+5V*%
X110490000Y-84836000D03*
D18*
%TO.P,J3,2,Pin_2*%
%TO.N,GND*%
X110490000Y-87376000D03*
%TO.P,J3,3,Pin_3*%
%TO.N,+3V3*%
X113030000Y-84836000D03*
%TO.P,J3,4,Pin_4*%
%TO.N,IO26{slash}A0{slash}DAC2*%
X113030000Y-87376000D03*
%TO.P,J3,5,Pin_5*%
%TO.N,IO25{slash}A1{slash}DAC1*%
X115570000Y-84836000D03*
%TO.P,J3,6,Pin_6*%
%TO.N,IO13*%
X115570000Y-87376000D03*
%TO.P,J3,7,Pin_7*%
%TO.N,IO19{slash}MISO*%
X118110000Y-84836000D03*
%TO.P,J3,8,Pin_8*%
%TO.N,IO18{slash}MOSI*%
X118110000Y-87376000D03*
%TO.P,J3,9,Pin_9*%
%TO.N,IO4{slash}A5*%
X120650000Y-84836000D03*
%TO.P,J3,10,Pin_10*%
%TO.N,IO36{slash}A4{slash}SENSOR_VP*%
X120650000Y-87376000D03*
%TO.P,J3,11,Pin_11*%
%TO.N,I39{slash}A3{slash}SENSOR_VN*%
X123190000Y-84836000D03*
%TO.P,J3,12,Pin_12*%
%TO.N,I34{slash}A2*%
X123190000Y-87376000D03*
%TD*%
D19*
%TO.P,J4,1,Pin_1*%
%TO.N,+5V*%
X113538000Y-97028000D03*
D20*
%TO.P,J4,2,Pin_2*%
%TO.N,Net-(J4-Pad2)*%
X113538000Y-102108000D03*
%TO.P,J4,3,Pin_3*%
%TO.N,GND*%
X113538000Y-107188000D03*
%TD*%
D21*
%TO.P,U2,39_10,GND*%
%TO.N,GND*%
X137401500Y-96925000D03*
%TO.P,U2,39_11,GND*%
X139236500Y-96925000D03*
%TO.P,U2,39_12,GND*%
X136484000Y-97842500D03*
%TO.P,U2,39_13,GND*%
X138319000Y-97842500D03*
%TO.P,U2,39_14,GND*%
X140154000Y-97842500D03*
%TO.P,U2,39_15,GND*%
X137401500Y-98760000D03*
%TO.P,U2,39_16,GND*%
X139236500Y-98760000D03*
%TO.P,U2,39_17,GND*%
X136484000Y-99677500D03*
%TO.P,U2,39_18,GND*%
X138319000Y-99677500D03*
%TO.P,U2,39_19,GND*%
X140154000Y-99677500D03*
%TO.P,U2,39_20,GND*%
X137401500Y-100595000D03*
%TO.P,U2,39_21,GND*%
X139236500Y-100595000D03*
%TD*%
D22*
%TO.P,Status_LED1,2,B*%
%TO.N,Net-(R7-Pad1)*%
X127000000Y-93233000D03*
%TO.P,Status_LED1,1,A*%
%TO.N,IO13*%
X127000000Y-91933000D03*
%TD*%
D23*
%TO.N,GND*%
X127215000Y-107862000D03*
X152527000Y-107581000D03*
X160229300Y-88686600D03*
X155724700Y-95062200D03*
X124295200Y-91565000D03*
%TO.N,+5V*%
X123033000Y-103662000D03*
%TO.N,+3V3*%
X117399000Y-89514800D03*
X129006900Y-93032500D03*
X164522100Y-87164600D03*
X161102400Y-93822600D03*
X149763800Y-94059500D03*
%TO.N,RESET*%
X144001400Y-98841200D03*
X151548500Y-100899000D03*
%TO.N,USB-C VBUS*%
X163337900Y-95088100D03*
X159684000Y-84148000D03*
%TO.N,USB-C DATA+*%
X162812100Y-90003600D03*
X168270700Y-91841500D03*
%TO.N,USB-C DATA-*%
X168737300Y-90465500D03*
X161302900Y-85987000D03*
%TO.N,IO15{slash}WS*%
X154046800Y-91927500D03*
X142839400Y-99032900D03*
%TO.N,IO14{slash}SCK*%
X135088800Y-96139400D03*
X154188800Y-90084800D03*
%TO.N,DTR*%
X159901100Y-89833700D03*
X169140500Y-94457800D03*
%TO.N,RTS*%
X156078600Y-89957400D03*
X165230900Y-95848900D03*
%TO.N,IO32{slash}SD*%
X138942300Y-91791300D03*
X133663600Y-96116400D03*
%TO.N,IO13*%
X133140200Y-101049900D03*
%TO.N,I39{slash}A3{slash}SENSOR_VN*%
X132809300Y-93926600D03*
%TO.N,I34{slash}A2*%
X135378700Y-94123200D03*
%TO.N,IO26{slash}A0{slash}DAC2*%
X126132300Y-101038400D03*
%TO.N,IO4{slash}A5*%
X135794900Y-92235200D03*
%TO.N,IO16{slash}LED1*%
X125334900Y-97027400D03*
X144265100Y-101059100D03*
%TO.N,RXD0*%
X157798600Y-90040000D03*
X150382600Y-100127500D03*
%TO.N,TXD0*%
X153665300Y-95070000D03*
X157295200Y-90988200D03*
%TO.N,IO18{slash}MOSI*%
X118298900Y-90199200D03*
X145265500Y-101041900D03*
%TO.N,USB-C CC2*%
X169444400Y-85428000D03*
X168089400Y-89690000D03*
%TO.N,Net-(R7-Pad1)*%
X124986200Y-93378300D03*
%TD*%
D24*
%TO.N,GND*%
X118328200Y-86198100D02*
X119240400Y-87110300D01*
D25*
X164041000Y-98812000D02*
X168565000Y-98812000D01*
X127215000Y-107862000D02*
X152808000Y-107862000D01*
D24*
X110237500Y-87376000D02*
X109728000Y-87885500D01*
X168565000Y-98812000D02*
X168741000Y-98812000D01*
X110490000Y-87376000D02*
X110237500Y-87376000D01*
X112656900Y-86198100D02*
X118328200Y-86198100D01*
X158808800Y-89964000D02*
X158808800Y-93667800D01*
D26*
X167571000Y-97818000D02*
X168068000Y-98315000D01*
X171751000Y-87120000D02*
X167571000Y-87120000D01*
D24*
X158808800Y-93667800D02*
X157414400Y-95062200D01*
D25*
X114212000Y-107862000D02*
X127215000Y-107862000D01*
D24*
X110490000Y-87376000D02*
X111620300Y-87376000D01*
X157414400Y-95062200D02*
X155724700Y-95062200D01*
D25*
X109599000Y-87885500D02*
X109728000Y-87885500D01*
D26*
X167317000Y-97564000D02*
X167571000Y-97818000D01*
D24*
X160229300Y-88686600D02*
X160086200Y-88686600D01*
D25*
X152808000Y-107862000D02*
X164691000Y-107862000D01*
D24*
X164041000Y-108512000D02*
X164041000Y-107924000D01*
X160086200Y-88686600D02*
X158808800Y-89964000D01*
D25*
X164041000Y-98812000D02*
X165241000Y-100012000D01*
D24*
X111620300Y-87376000D02*
X111620300Y-87234700D01*
D25*
X164691000Y-107862000D02*
X164629000Y-107924000D01*
X113538000Y-107188000D02*
X109338000Y-102988000D01*
D24*
X152808000Y-107862000D02*
X152527000Y-107581000D01*
X136484000Y-97842500D02*
X137401500Y-98760000D01*
X111620300Y-87234700D02*
X112656900Y-86198100D01*
D25*
X168741000Y-107862000D02*
X169633000Y-107862000D01*
D26*
X167571000Y-97818000D02*
X168068000Y-98315000D01*
D25*
X113538000Y-107188000D02*
X114212000Y-107862000D01*
D24*
X119240400Y-87110300D02*
X119240400Y-87620700D01*
D25*
X164691000Y-107862000D02*
X168741000Y-107862000D01*
D24*
X119240400Y-87620700D02*
X123184700Y-91565000D01*
D25*
X163953000Y-98812000D02*
X164041000Y-98812000D01*
X165241000Y-100012000D02*
X165241000Y-107312000D01*
D26*
X167571000Y-95760000D02*
X167571000Y-97818000D01*
D25*
X164629000Y-107924000D02*
X164041000Y-107924000D01*
D24*
X123184700Y-91565000D02*
X124295200Y-91565000D01*
X168741000Y-108512000D02*
X168741000Y-107862000D01*
D26*
X168068000Y-98315000D02*
X168565000Y-98812000D01*
D25*
X163865000Y-98812000D02*
X163953000Y-98812000D01*
X165241000Y-107312000D02*
X164691000Y-107862000D01*
D26*
X171751000Y-95760000D02*
X171751000Y-87120000D01*
X167571000Y-95760000D02*
X171751000Y-95760000D01*
X168068000Y-98315000D02*
X168565000Y-98812000D01*
D24*
X163953000Y-98812000D02*
X158808800Y-93667800D01*
D25*
%TO.N,+5V*%
X115951000Y-97028000D02*
X115570000Y-97028000D01*
X113538000Y-97028000D02*
X115570000Y-97028000D01*
D24*
X160365000Y-103662000D02*
X160541000Y-103662000D01*
D25*
X123033000Y-103662000D02*
X122585000Y-103662000D01*
X160365000Y-103662000D02*
X123033000Y-103662000D01*
X122585000Y-103662000D02*
X115951000Y-97028000D01*
X115570000Y-97028000D02*
X113538000Y-97028000D01*
D24*
%TO.N,+3V3*%
X153281100Y-91247200D02*
X150468800Y-94059500D01*
X161102400Y-93822600D02*
X163054300Y-95774500D01*
X161102400Y-93822600D02*
X161302200Y-93622800D01*
X160635100Y-87613400D02*
X157533000Y-87613400D01*
X164258000Y-95774500D02*
X167510700Y-92521800D01*
X118912100Y-89514800D02*
X123484400Y-94087100D01*
X129006900Y-93032500D02*
X128056000Y-93983400D01*
X154977800Y-90296000D02*
X154026600Y-91247200D01*
X154026600Y-91247200D02*
X153281100Y-91247200D01*
X135365600Y-96830900D02*
X138137000Y-94059500D01*
X128056000Y-94087100D02*
X130799800Y-96830900D01*
X161302200Y-93622800D02*
X161302200Y-88280500D01*
X168579700Y-91146500D02*
X168070300Y-91146500D01*
X161302200Y-88280500D02*
X160635100Y-87613400D01*
X128056000Y-93983400D02*
X128056000Y-94087100D01*
X130799800Y-96830900D02*
X135365600Y-96830900D01*
X163054300Y-95774500D02*
X164258000Y-95774500D01*
X168070300Y-91146500D02*
X164522100Y-87598300D01*
X168951000Y-91517800D02*
X168579700Y-91146500D01*
X167510700Y-92521800D02*
X168552500Y-92521800D01*
X117399000Y-89514800D02*
X118912100Y-89514800D01*
X123484400Y-94087100D02*
X128056000Y-94087100D01*
X150468800Y-94059500D02*
X149763800Y-94059500D01*
X138137000Y-94059500D02*
X149763800Y-94059500D01*
X154977800Y-90168600D02*
X154977800Y-90296000D01*
X157533000Y-87613400D02*
X154977800Y-90168600D01*
X164522100Y-87598300D02*
X164522100Y-87164600D01*
X168951000Y-92123300D02*
X168951000Y-91517800D01*
X168552500Y-92521800D02*
X168951000Y-92123300D01*
%TO.N,RESET*%
X146084700Y-100899000D02*
X144026900Y-98841200D01*
X151548500Y-100899000D02*
X146084700Y-100899000D01*
X144026900Y-98841200D02*
X144001400Y-98841200D01*
%TO.N,USB-C VBUS*%
X163337900Y-95088100D02*
X161689600Y-93439800D01*
X161689600Y-93439800D02*
X161689600Y-88089500D01*
X159684000Y-86083900D02*
X159684000Y-84148000D01*
X161689600Y-88089500D02*
X159684000Y-86083900D01*
%TO.N,USB-C DATA+*%
X164650000Y-91841500D02*
X162812100Y-90003600D01*
X168270700Y-91841500D02*
X164650000Y-91841500D01*
%TO.N,USB-C DATA-*%
X165338700Y-87905400D02*
X165338700Y-87403800D01*
X168737300Y-90465500D02*
X167898800Y-90465500D01*
X163921900Y-85987000D02*
X161302900Y-85987000D01*
X165338700Y-87403800D02*
X163921900Y-85987000D01*
X167898800Y-90465500D02*
X165338700Y-87905400D01*
%TO.N,IO15{slash}WS*%
X146579200Y-95293100D02*
X150681200Y-95293100D01*
X142839400Y-99032900D02*
X146579200Y-95293100D01*
X150681200Y-95293100D02*
X154046800Y-91927500D01*
%TO.N,IO14{slash}SCK*%
X154188800Y-90084800D02*
X153679300Y-90084800D01*
X138756600Y-92471600D02*
X135088800Y-96139400D01*
X151292500Y-92471600D02*
X138756600Y-92471600D01*
X153679300Y-90084800D02*
X151292500Y-92471600D01*
%TO.N,DTR*%
X168343100Y-93660400D02*
X169140500Y-94457800D01*
X166087100Y-95422400D02*
X167849100Y-93660400D01*
X159901100Y-94150100D02*
X162281200Y-96530200D01*
X162281200Y-96530200D02*
X165573400Y-96530200D01*
X167849100Y-93660400D02*
X168343100Y-93660400D01*
X165573400Y-96530200D02*
X166087100Y-96016500D01*
X159901100Y-89833700D02*
X159901100Y-94150100D01*
X166087100Y-96016500D02*
X166087100Y-95422400D01*
%TO.N,RTS*%
X160941800Y-92473300D02*
X160728500Y-92686600D01*
X160484700Y-87979600D02*
X160941800Y-88436700D01*
X156078600Y-89957400D02*
X158056400Y-87979600D01*
X160941800Y-88436700D02*
X160941800Y-92473300D01*
X158056400Y-87979600D02*
X160484700Y-87979600D01*
X160728500Y-92686600D02*
X160728500Y-94468000D01*
X164909900Y-96169900D02*
X165230900Y-95848900D01*
X160728500Y-94468000D02*
X162430400Y-96169900D01*
X162430400Y-96169900D02*
X164909900Y-96169900D01*
%TO.N,IO32{slash}SD*%
X135660500Y-94803500D02*
X138672700Y-91791300D01*
X133663600Y-96116400D02*
X134976500Y-94803500D01*
X138672700Y-91791300D02*
X138942300Y-91791300D01*
X134976500Y-94803500D02*
X135660500Y-94803500D01*
%TO.N,IO13*%
X127891200Y-101049900D02*
X116693800Y-89852500D01*
X119935100Y-88825000D02*
X116693800Y-88825000D01*
X125648100Y-92254600D02*
X123364700Y-92254600D01*
X115786300Y-87917500D02*
X115786300Y-87376000D01*
X115570000Y-87376000D02*
X115786300Y-87376000D01*
X123364700Y-92254600D02*
X119935100Y-88825000D01*
X125969700Y-91933000D02*
X125648100Y-92254600D01*
X116693800Y-88825000D02*
X115786300Y-87917500D01*
X127000000Y-91933000D02*
X125969700Y-91933000D01*
X133140200Y-101049900D02*
X127891200Y-101049900D01*
X116693800Y-89852500D02*
X116693800Y-88825000D01*
%TO.N,I39{slash}A3{slash}SENSOR_VN*%
X123472700Y-85966300D02*
X123190000Y-85966300D01*
X129199200Y-90316500D02*
X125200200Y-90316500D01*
X124320300Y-89436600D02*
X124320300Y-86813900D01*
X123190000Y-84836000D02*
X123190000Y-85966300D01*
X124320300Y-86813900D02*
X123472700Y-85966300D01*
X132809300Y-93926600D02*
X129199200Y-90316500D01*
X125200200Y-90316500D02*
X124320300Y-89436600D01*
%TO.N,I34{slash}A2*%
X135114500Y-92600900D02*
X133155300Y-94560100D01*
X128231100Y-90785000D02*
X125114300Y-90785000D01*
X132006200Y-94560100D02*
X128231100Y-90785000D01*
X136220200Y-91953300D02*
X135161200Y-91953300D01*
X125114300Y-90785000D02*
X123190000Y-88860700D01*
X135378700Y-94123200D02*
X136511100Y-92990800D01*
X133155300Y-94560100D02*
X132006200Y-94560100D01*
X135161200Y-91953300D02*
X135114500Y-92000000D01*
X123190000Y-88860700D02*
X123190000Y-87376000D01*
X136511100Y-92244200D02*
X136220200Y-91953300D01*
X135114500Y-92000000D02*
X135114500Y-92600900D01*
X136511100Y-92990800D02*
X136511100Y-92244200D01*
%TO.N,IO26{slash}A0{slash}DAC2*%
X113030000Y-88506300D02*
X113600200Y-88506300D01*
X113030000Y-87376000D02*
X113030000Y-88506300D01*
X113600200Y-88506300D02*
X126132300Y-101038400D01*
%TO.N,IO4{slash}A5*%
X124965100Y-91145300D02*
X128081900Y-91145300D01*
X133301200Y-94983600D02*
X135655000Y-92629800D01*
X120884200Y-85966300D02*
X121920000Y-87002100D01*
X135655000Y-92375100D02*
X135794900Y-92235200D01*
X121920000Y-88100200D02*
X124965100Y-91145300D01*
X131920200Y-94983600D02*
X133301200Y-94983600D01*
X120650000Y-85966300D02*
X120884200Y-85966300D01*
X120650000Y-84836000D02*
X120650000Y-85966300D01*
X121920000Y-87002100D02*
X121920000Y-88100200D01*
X128081900Y-91145300D02*
X131920200Y-94983600D01*
X135655000Y-92629800D02*
X135655000Y-92375100D01*
%TO.N,IO16{slash}LED1*%
X125334900Y-97027400D02*
X127497000Y-99189500D01*
X134062200Y-99189500D02*
X135931800Y-101059100D01*
X127497000Y-99189500D02*
X134062200Y-99189500D01*
X135931800Y-101059100D02*
X144265100Y-101059100D01*
%TO.N,RXD0*%
X157798600Y-90040000D02*
X157281400Y-90040000D01*
X157281400Y-90040000D02*
X150382600Y-96938800D01*
X150382600Y-96938800D02*
X150382600Y-100127500D01*
%TO.N,TXD0*%
X157295200Y-90988200D02*
X153665300Y-94618100D01*
X153665300Y-94618100D02*
X153665300Y-95070000D01*
%TO.N,IO18{slash}MOSI*%
X135747900Y-97212800D02*
X136509700Y-96451000D01*
X143223300Y-100378800D02*
X144546900Y-100378800D01*
X139407800Y-96451000D02*
X142159100Y-99202300D01*
X142159100Y-99202300D02*
X142159100Y-99314600D01*
X118298900Y-90199200D02*
X123815600Y-95715900D01*
X145209900Y-101041900D02*
X145265500Y-101041900D01*
X144546900Y-100378800D02*
X145209900Y-101041800D01*
X130266400Y-97212800D02*
X135747900Y-97212800D01*
X142159100Y-99314600D02*
X143223300Y-100378800D01*
X123815600Y-95715900D02*
X128769500Y-95715900D01*
X145209900Y-101041800D02*
X145209900Y-101041900D01*
X128769500Y-95715900D02*
X130266400Y-97212800D01*
X136509700Y-96451000D02*
X139407800Y-96451000D01*
%TO.N,USB-C CC2*%
X166190700Y-87791300D02*
X168089400Y-89690000D01*
X169444400Y-85428100D02*
X167454100Y-85428100D01*
X166190700Y-86691500D02*
X166190700Y-87791300D01*
X167454100Y-85428100D02*
X166190700Y-86691500D01*
X169444400Y-85428000D02*
X169444400Y-85428100D01*
%TO.N,Net-(R7-Pad1)*%
X127000000Y-93233000D02*
X125131500Y-93233000D01*
X125131500Y-93233000D02*
X124986200Y-93378300D01*
%TD*%
%TA.AperFunction,Conductor*%
%TO.N,GND*%
G36*
X171051056Y-83933500D02*
G01*
X171053284Y-83933847D01*
X171065859Y-83935805D01*
X171065861Y-83935805D01*
X171074730Y-83937186D01*
X171083632Y-83936022D01*
X171083634Y-83936022D01*
X171089959Y-83935195D01*
X171115282Y-83934452D01*
X171279126Y-83946170D01*
X171284343Y-83946543D01*
X171302137Y-83949101D01*
X171492540Y-83990521D01*
X171509788Y-83995586D01*
X171692358Y-84063682D01*
X171708710Y-84071149D01*
X171717470Y-84075932D01*
X171879734Y-84164534D01*
X171894848Y-84174248D01*
X171961215Y-84223929D01*
X172050842Y-84291023D01*
X172064428Y-84302796D01*
X172202204Y-84440572D01*
X172213977Y-84454158D01*
X172330752Y-84610152D01*
X172340466Y-84625266D01*
X172346809Y-84636882D01*
X172433851Y-84796290D01*
X172441318Y-84812642D01*
X172509414Y-84995212D01*
X172514479Y-85012460D01*
X172520305Y-85039241D01*
X172555899Y-85202863D01*
X172558457Y-85220657D01*
X172569746Y-85378498D01*
X172570041Y-85382629D01*
X172569297Y-85400533D01*
X172569195Y-85408858D01*
X172567814Y-85417730D01*
X172568978Y-85426632D01*
X172568978Y-85426635D01*
X172571936Y-85449251D01*
X172573000Y-85465589D01*
X172573000Y-85949141D01*
X172552998Y-86017262D01*
X172499342Y-86063755D01*
X172429068Y-86073859D01*
X172399900Y-86066007D01*
X172372680Y-86055037D01*
X172361230Y-86051645D01*
X172164072Y-86013143D01*
X172155209Y-86012066D01*
X172152500Y-86012000D01*
X172023115Y-86012000D01*
X172007876Y-86016475D01*
X172006671Y-86017865D01*
X172005000Y-86025548D01*
X172005000Y-88209885D01*
X172009475Y-88225124D01*
X172010865Y-88226329D01*
X172018548Y-88228000D01*
X172100832Y-88228000D01*
X172106808Y-88227715D01*
X172255494Y-88213529D01*
X172267225Y-88211271D01*
X172411530Y-88168936D01*
X172482527Y-88168953D01*
X172542244Y-88207351D01*
X172571722Y-88271939D01*
X172573000Y-88289841D01*
X172573000Y-94589141D01*
X172552998Y-94657262D01*
X172499342Y-94703755D01*
X172429068Y-94713859D01*
X172399900Y-94706007D01*
X172372680Y-94695037D01*
X172361230Y-94691645D01*
X172164072Y-94653143D01*
X172155209Y-94652066D01*
X172152500Y-94652000D01*
X172023115Y-94652000D01*
X172007876Y-94656475D01*
X172006671Y-94657865D01*
X172005000Y-94665548D01*
X172005000Y-96849885D01*
X172009475Y-96865124D01*
X172010865Y-96866329D01*
X172018548Y-96868000D01*
X172100832Y-96868000D01*
X172106808Y-96867715D01*
X172255494Y-96853529D01*
X172267225Y-96851271D01*
X172411530Y-96808936D01*
X172482527Y-96808953D01*
X172542244Y-96847351D01*
X172571722Y-96911939D01*
X172573000Y-96929841D01*
X172573000Y-102461574D01*
X172552998Y-102529695D01*
X172499342Y-102576188D01*
X172429068Y-102586292D01*
X172368908Y-102560456D01*
X172277177Y-102488011D01*
X172277172Y-102488008D01*
X172273123Y-102484810D01*
X172268607Y-102482317D01*
X172268604Y-102482315D01*
X172074879Y-102375373D01*
X172074875Y-102375371D01*
X172070355Y-102372876D01*
X172065486Y-102371152D01*
X172065482Y-102371150D01*
X171856903Y-102297288D01*
X171856899Y-102297287D01*
X171852028Y-102295562D01*
X171846935Y-102294655D01*
X171846932Y-102294654D01*
X171629095Y-102255851D01*
X171629089Y-102255850D01*
X171624006Y-102254945D01*
X171551096Y-102254054D01*
X171397581Y-102252179D01*
X171397579Y-102252179D01*
X171392411Y-102252116D01*
X171163464Y-102287150D01*
X170943314Y-102359106D01*
X170938726Y-102361494D01*
X170938722Y-102361496D01*
X170746474Y-102461574D01*
X170737872Y-102466052D01*
X170733739Y-102469155D01*
X170733736Y-102469157D01*
X170556790Y-102602012D01*
X170552655Y-102605117D01*
X170392639Y-102772564D01*
X170262119Y-102963899D01*
X170164602Y-103173981D01*
X170102707Y-103397169D01*
X170078095Y-103627469D01*
X170078392Y-103632622D01*
X170078392Y-103632625D01*
X170089249Y-103820919D01*
X170091427Y-103858697D01*
X170092564Y-103863743D01*
X170092565Y-103863749D01*
X170105306Y-103920283D01*
X170142346Y-104084642D01*
X170144288Y-104089424D01*
X170144289Y-104089428D01*
X170161972Y-104132975D01*
X170229484Y-104299237D01*
X170350501Y-104496719D01*
X170502147Y-104671784D01*
X170680349Y-104819730D01*
X170880322Y-104936584D01*
X171096694Y-105019209D01*
X171101760Y-105020240D01*
X171101761Y-105020240D01*
X171154846Y-105031040D01*
X171323656Y-105065385D01*
X171454324Y-105070176D01*
X171549949Y-105073683D01*
X171549953Y-105073683D01*
X171555113Y-105073872D01*
X171560233Y-105073216D01*
X171560235Y-105073216D01*
X171633270Y-105063860D01*
X171784847Y-105044442D01*
X171789795Y-105042957D01*
X171789802Y-105042956D01*
X172001747Y-104979369D01*
X172006690Y-104977886D01*
X172087236Y-104938427D01*
X172210049Y-104878262D01*
X172210052Y-104878260D01*
X172214684Y-104875991D01*
X172218882Y-104872996D01*
X172218888Y-104872993D01*
X172373832Y-104762473D01*
X172440905Y-104739199D01*
X172509914Y-104755883D01*
X172558948Y-104807227D01*
X172573000Y-104865052D01*
X172573000Y-108074672D01*
X172571500Y-108094056D01*
X172567814Y-108117730D01*
X172568978Y-108126632D01*
X172568978Y-108126634D01*
X172569805Y-108132959D01*
X172570548Y-108158282D01*
X172558830Y-108322126D01*
X172558457Y-108327343D01*
X172555899Y-108345137D01*
X172514480Y-108535538D01*
X172509414Y-108552788D01*
X172441318Y-108735358D01*
X172433851Y-108751710D01*
X172352637Y-108900445D01*
X172340469Y-108922729D01*
X172330752Y-108937848D01*
X172273016Y-109014975D01*
X172213977Y-109093842D01*
X172202204Y-109107428D01*
X172064428Y-109245204D01*
X172050841Y-109256977D01*
X171894848Y-109373752D01*
X171879734Y-109383466D01*
X171774020Y-109441190D01*
X171708710Y-109476851D01*
X171692358Y-109484318D01*
X171509788Y-109552414D01*
X171492540Y-109557479D01*
X171339055Y-109590868D01*
X171302137Y-109598899D01*
X171284342Y-109601457D01*
X171235443Y-109604954D01*
X171122369Y-109613041D01*
X171104467Y-109612297D01*
X171096142Y-109612195D01*
X171087270Y-109610814D01*
X171078368Y-109611978D01*
X171078365Y-109611978D01*
X171055749Y-109614936D01*
X171039411Y-109616000D01*
X170490981Y-109616000D01*
X170422860Y-109595998D01*
X170376367Y-109542342D01*
X170366263Y-109472068D01*
X170395757Y-109407488D01*
X170401886Y-109400905D01*
X170442916Y-109359875D01*
X170449972Y-109351467D01*
X170574931Y-109173007D01*
X170580414Y-109163511D01*
X170672490Y-108966053D01*
X170676236Y-108955761D01*
X170722394Y-108783497D01*
X170722058Y-108769401D01*
X170714116Y-108766000D01*
X166773033Y-108766000D01*
X166759502Y-108769973D01*
X166758273Y-108778522D01*
X166805764Y-108955761D01*
X166809510Y-108966053D01*
X166901586Y-109163511D01*
X166907069Y-109173007D01*
X167032028Y-109351467D01*
X167039084Y-109359875D01*
X167080114Y-109400905D01*
X167114140Y-109463217D01*
X167109075Y-109534032D01*
X167066528Y-109590868D01*
X167000008Y-109615679D01*
X166991019Y-109616000D01*
X165790981Y-109616000D01*
X165722860Y-109595998D01*
X165676367Y-109542342D01*
X165666263Y-109472068D01*
X165695757Y-109407488D01*
X165701886Y-109400905D01*
X165742916Y-109359875D01*
X165749972Y-109351467D01*
X165874931Y-109173007D01*
X165880414Y-109163511D01*
X165972490Y-108966053D01*
X165976236Y-108955761D01*
X166022394Y-108783497D01*
X166022058Y-108769401D01*
X166014116Y-108766000D01*
X162073033Y-108766000D01*
X162059502Y-108769973D01*
X162058273Y-108778522D01*
X162105764Y-108955761D01*
X162109510Y-108966053D01*
X162201586Y-109163511D01*
X162207069Y-109173007D01*
X162332028Y-109351467D01*
X162339084Y-109359875D01*
X162380114Y-109400905D01*
X162414140Y-109463217D01*
X162409075Y-109534032D01*
X162366528Y-109590868D01*
X162300008Y-109615679D01*
X162291019Y-109616000D01*
X109130328Y-109616000D01*
X109110943Y-109614500D01*
X109110661Y-109614456D01*
X109108117Y-109614060D01*
X109096141Y-109612195D01*
X109096139Y-109612195D01*
X109087270Y-109610814D01*
X109078368Y-109611978D01*
X109078366Y-109611978D01*
X109072041Y-109612805D01*
X109046718Y-109613548D01*
X108877657Y-109601457D01*
X108859863Y-109598899D01*
X108822945Y-109590868D01*
X108669460Y-109557479D01*
X108652212Y-109552414D01*
X108469642Y-109484318D01*
X108453290Y-109476851D01*
X108387980Y-109441190D01*
X108282266Y-109383466D01*
X108267152Y-109373752D01*
X108111159Y-109256977D01*
X108097572Y-109245204D01*
X107959796Y-109107428D01*
X107948023Y-109093842D01*
X107888984Y-109014975D01*
X107831248Y-108937848D01*
X107821531Y-108922729D01*
X107809364Y-108900445D01*
X107728149Y-108751710D01*
X107720682Y-108735358D01*
X107682469Y-108632906D01*
X112457839Y-108632906D01*
X112466553Y-108644427D01*
X112573452Y-108722809D01*
X112581351Y-108727745D01*
X112810905Y-108848519D01*
X112819454Y-108852236D01*
X113064327Y-108937749D01*
X113073336Y-108940163D01*
X113328166Y-108988544D01*
X113337423Y-108989598D01*
X113596607Y-108999783D01*
X113605921Y-108999457D01*
X113863753Y-108971220D01*
X113872930Y-108969519D01*
X114123758Y-108903481D01*
X114132574Y-108900445D01*
X114370880Y-108798062D01*
X114379167Y-108793748D01*
X114599718Y-108657266D01*
X114607268Y-108651780D01*
X114612559Y-108647301D01*
X114620997Y-108634497D01*
X114614935Y-108624145D01*
X113550812Y-107560022D01*
X113536868Y-107552408D01*
X113535035Y-107552539D01*
X113528420Y-107556790D01*
X112464497Y-108620713D01*
X112457839Y-108632906D01*
X107682469Y-108632906D01*
X107652586Y-108552788D01*
X107647520Y-108535538D01*
X107606101Y-108345137D01*
X107603543Y-108327342D01*
X107598378Y-108255124D01*
X107591959Y-108165369D01*
X107592703Y-108147467D01*
X107592805Y-108139142D01*
X107594186Y-108130270D01*
X107592547Y-108117730D01*
X107590064Y-108098749D01*
X107589000Y-108082411D01*
X107589000Y-107145211D01*
X111725775Y-107145211D01*
X111738220Y-107404288D01*
X111739356Y-107413543D01*
X111789961Y-107667945D01*
X111792449Y-107676917D01*
X111880095Y-107921033D01*
X111883895Y-107929568D01*
X112006658Y-108158042D01*
X112011666Y-108165904D01*
X112081720Y-108259716D01*
X112092979Y-108268165D01*
X112105397Y-108261393D01*
X113165978Y-107200812D01*
X113172356Y-107189132D01*
X113902408Y-107189132D01*
X113902539Y-107190965D01*
X113906790Y-107197580D01*
X114974094Y-108264884D01*
X114986474Y-108271644D01*
X114994815Y-108265400D01*
X115010829Y-108240503D01*
X162059606Y-108240503D01*
X162059942Y-108254599D01*
X162067884Y-108258000D01*
X163768885Y-108258000D01*
X163784124Y-108253525D01*
X163785329Y-108252135D01*
X163787000Y-108244452D01*
X163787000Y-108239885D01*
X164295000Y-108239885D01*
X164299475Y-108255124D01*
X164300865Y-108256329D01*
X164308548Y-108258000D01*
X166008967Y-108258000D01*
X166022498Y-108254027D01*
X166023727Y-108245478D01*
X166022394Y-108240503D01*
X166759606Y-108240503D01*
X166759942Y-108254599D01*
X166767884Y-108258000D01*
X168468885Y-108258000D01*
X168484124Y-108253525D01*
X168485329Y-108252135D01*
X168487000Y-108244452D01*
X168487000Y-108239885D01*
X168995000Y-108239885D01*
X168999475Y-108255124D01*
X169000865Y-108256329D01*
X169008548Y-108258000D01*
X170708967Y-108258000D01*
X170722498Y-108254027D01*
X170723727Y-108245478D01*
X170676236Y-108068239D01*
X170672490Y-108057947D01*
X170580414Y-107860489D01*
X170574931Y-107850993D01*
X170449972Y-107672533D01*
X170442916Y-107664125D01*
X170288875Y-107510084D01*
X170280467Y-107503028D01*
X170102007Y-107378069D01*
X170092511Y-107372586D01*
X169895053Y-107280510D01*
X169884761Y-107276764D01*
X169674312Y-107220375D01*
X169663519Y-107218472D01*
X169500830Y-107204238D01*
X169495365Y-107204000D01*
X169013115Y-107204000D01*
X168997876Y-107208475D01*
X168996671Y-107209865D01*
X168995000Y-107217548D01*
X168995000Y-108239885D01*
X168487000Y-108239885D01*
X168487000Y-107222115D01*
X168482525Y-107206876D01*
X168481135Y-107205671D01*
X168473452Y-107204000D01*
X167986635Y-107204000D01*
X167981170Y-107204238D01*
X167818481Y-107218472D01*
X167807688Y-107220375D01*
X167597239Y-107276764D01*
X167586947Y-107280510D01*
X167389489Y-107372586D01*
X167379993Y-107378069D01*
X167201533Y-107503028D01*
X167193125Y-107510084D01*
X167039084Y-107664125D01*
X167032028Y-107672533D01*
X166907069Y-107850993D01*
X166901586Y-107860489D01*
X166809510Y-108057947D01*
X166805764Y-108068239D01*
X166759606Y-108240503D01*
X166022394Y-108240503D01*
X165976236Y-108068239D01*
X165972490Y-108057947D01*
X165880414Y-107860489D01*
X165874931Y-107850993D01*
X165749972Y-107672533D01*
X165742916Y-107664125D01*
X165588875Y-107510084D01*
X165580467Y-107503028D01*
X165402007Y-107378069D01*
X165392511Y-107372586D01*
X165195053Y-107280510D01*
X165184761Y-107276764D01*
X164974312Y-107220375D01*
X164963519Y-107218472D01*
X164800830Y-107204238D01*
X164795365Y-107204000D01*
X164313115Y-107204000D01*
X164297876Y-107208475D01*
X164296671Y-107209865D01*
X164295000Y-107217548D01*
X164295000Y-108239885D01*
X163787000Y-108239885D01*
X163787000Y-107222115D01*
X163782525Y-107206876D01*
X163781135Y-107205671D01*
X163773452Y-107204000D01*
X163286635Y-107204000D01*
X163281170Y-107204238D01*
X163118481Y-107218472D01*
X163107688Y-107220375D01*
X162897239Y-107276764D01*
X162886947Y-107280510D01*
X162689489Y-107372586D01*
X162679993Y-107378069D01*
X162501533Y-107503028D01*
X162493125Y-107510084D01*
X162339084Y-107664125D01*
X162332028Y-107672533D01*
X162207069Y-107850993D01*
X162201586Y-107860489D01*
X162109510Y-108057947D01*
X162105764Y-108068239D01*
X162059606Y-108240503D01*
X115010829Y-108240503D01*
X115128832Y-108057048D01*
X115133275Y-108048864D01*
X115239807Y-107812370D01*
X115242997Y-107803605D01*
X115313402Y-107553972D01*
X115315262Y-107544830D01*
X115348187Y-107286019D01*
X115348668Y-107279733D01*
X115350987Y-107191160D01*
X115350836Y-107184851D01*
X115331501Y-106924663D01*
X115330125Y-106915457D01*
X115272878Y-106662467D01*
X115270154Y-106653556D01*
X115176143Y-106411806D01*
X115172132Y-106403397D01*
X115043422Y-106178202D01*
X115038211Y-106170476D01*
X114994996Y-106115658D01*
X114983071Y-106107187D01*
X114971537Y-106113673D01*
X113910022Y-107175188D01*
X113902408Y-107189132D01*
X113172356Y-107189132D01*
X113173592Y-107186868D01*
X113173461Y-107185035D01*
X113169210Y-107178420D01*
X112103816Y-106113026D01*
X112090507Y-106105758D01*
X112080472Y-106112878D01*
X112064937Y-106131556D01*
X112059531Y-106139135D01*
X111924965Y-106360891D01*
X111920736Y-106369192D01*
X111820432Y-106608389D01*
X111817471Y-106617239D01*
X111753628Y-106868625D01*
X111752006Y-106877822D01*
X111726020Y-107135879D01*
X111725775Y-107145211D01*
X107589000Y-107145211D01*
X107589000Y-105740689D01*
X112455102Y-105740689D01*
X112459675Y-105750465D01*
X113525188Y-106815978D01*
X113539132Y-106823592D01*
X113540965Y-106823461D01*
X113547580Y-106819210D01*
X114612349Y-105754441D01*
X114618733Y-105742751D01*
X114609321Y-105730641D01*
X114462045Y-105628471D01*
X114454010Y-105623738D01*
X114221376Y-105509016D01*
X114212743Y-105505528D01*
X113965703Y-105426450D01*
X113956643Y-105424274D01*
X113700630Y-105382580D01*
X113691343Y-105381768D01*
X113431992Y-105378373D01*
X113422681Y-105378943D01*
X113165682Y-105413919D01*
X113156546Y-105415860D01*
X112907543Y-105488439D01*
X112898800Y-105491707D01*
X112663252Y-105600296D01*
X112655097Y-105604816D01*
X112464240Y-105729947D01*
X112455102Y-105740689D01*
X107589000Y-105740689D01*
X107589000Y-102060526D01*
X111725050Y-102060526D01*
X111737947Y-102329019D01*
X111790388Y-102592656D01*
X111881220Y-102845646D01*
X112008450Y-103082431D01*
X112011241Y-103086168D01*
X112011245Y-103086175D01*
X112080527Y-103178954D01*
X112169281Y-103297810D01*
X112172590Y-103301090D01*
X112172595Y-103301096D01*
X112356863Y-103483762D01*
X112360180Y-103487050D01*
X112363942Y-103489808D01*
X112363945Y-103489811D01*
X112378178Y-103500247D01*
X112576954Y-103645995D01*
X112581089Y-103648171D01*
X112581093Y-103648173D01*
X112810698Y-103768975D01*
X112814840Y-103771154D01*
X113068613Y-103859775D01*
X113073206Y-103860647D01*
X113328109Y-103909042D01*
X113328112Y-103909042D01*
X113332698Y-103909913D01*
X113460370Y-103914929D01*
X113596625Y-103920283D01*
X113596630Y-103920283D01*
X113601293Y-103920466D01*
X113705607Y-103909042D01*
X113863844Y-103891713D01*
X113863850Y-103891712D01*
X113868497Y-103891203D01*
X113972774Y-103863749D01*
X114123918Y-103823956D01*
X114123920Y-103823955D01*
X114128441Y-103822765D01*
X114132738Y-103820919D01*
X114371120Y-103718502D01*
X114371122Y-103718501D01*
X114375414Y-103716657D01*
X114494071Y-103643230D01*
X114600017Y-103577669D01*
X114600021Y-103577666D01*
X114603990Y-103575210D01*
X114809149Y-103401530D01*
X114986382Y-103199434D01*
X114989260Y-103194961D01*
X115129269Y-102977291D01*
X115131797Y-102973361D01*
X115242199Y-102728278D01*
X115270312Y-102628598D01*
X115313893Y-102474072D01*
X115313894Y-102474069D01*
X115315163Y-102469568D01*
X115333043Y-102329019D01*
X115348688Y-102206045D01*
X115348688Y-102206041D01*
X115349086Y-102202915D01*
X115351571Y-102108000D01*
X115348043Y-102060526D01*
X115331996Y-101844592D01*
X115331996Y-101844591D01*
X115331650Y-101839937D01*
X115329349Y-101829767D01*
X115273361Y-101582331D01*
X115273360Y-101582326D01*
X115272327Y-101577763D01*
X115174902Y-101327238D01*
X115041518Y-101093864D01*
X114875105Y-100882769D01*
X114679317Y-100698591D01*
X114458457Y-100545374D01*
X114454264Y-100543306D01*
X114221564Y-100428551D01*
X114221561Y-100428550D01*
X114217376Y-100426486D01*
X114211157Y-100424495D01*
X114099120Y-100388632D01*
X113961370Y-100344538D01*
X113956763Y-100343788D01*
X113956760Y-100343787D01*
X113700674Y-100302081D01*
X113700675Y-100302081D01*
X113696063Y-100301330D01*
X113565719Y-100299624D01*
X113431961Y-100297873D01*
X113431958Y-100297873D01*
X113427284Y-100297812D01*
X113160937Y-100334060D01*
X112902874Y-100409278D01*
X112658763Y-100521815D01*
X112640591Y-100533729D01*
X112437881Y-100666631D01*
X112437876Y-100666635D01*
X112433968Y-100669197D01*
X112233426Y-100848188D01*
X112061544Y-101054854D01*
X111922096Y-101284656D01*
X111920287Y-101288970D01*
X111920285Y-101288974D01*
X111819957Y-101528231D01*
X111818148Y-101532545D01*
X111751981Y-101793077D01*
X111725050Y-102060526D01*
X107589000Y-102060526D01*
X107589000Y-87643966D01*
X109158257Y-87643966D01*
X109188565Y-87778446D01*
X109191645Y-87788275D01*
X109271770Y-87985603D01*
X109276413Y-87994794D01*
X109387694Y-88176388D01*
X109393777Y-88184699D01*
X109533213Y-88345667D01*
X109540580Y-88352883D01*
X109704434Y-88488916D01*
X109712881Y-88494831D01*
X109896756Y-88602279D01*
X109906042Y-88606729D01*
X110105001Y-88682703D01*
X110114899Y-88685579D01*
X110218250Y-88706606D01*
X110232299Y-88705410D01*
X110236000Y-88695065D01*
X110236000Y-87648115D01*
X110231525Y-87632876D01*
X110230135Y-87631671D01*
X110222452Y-87630000D01*
X109173225Y-87630000D01*
X109159694Y-87633973D01*
X109158257Y-87643966D01*
X107589000Y-87643966D01*
X107589000Y-85473328D01*
X107590500Y-85453943D01*
X107592805Y-85439141D01*
X107592805Y-85439139D01*
X107594186Y-85430270D01*
X107593022Y-85421366D01*
X107592195Y-85415041D01*
X107591452Y-85389713D01*
X107592255Y-85378498D01*
X107603543Y-85220657D01*
X107606101Y-85202863D01*
X107641695Y-85039241D01*
X107647521Y-85012460D01*
X107652586Y-84995212D01*
X107720682Y-84812642D01*
X107728149Y-84796290D01*
X107815191Y-84636882D01*
X107821534Y-84625266D01*
X107831248Y-84610152D01*
X107948023Y-84454158D01*
X107959796Y-84440572D01*
X108097572Y-84302796D01*
X108111158Y-84291023D01*
X108200785Y-84223929D01*
X108267152Y-84174248D01*
X108282266Y-84164534D01*
X108444530Y-84075932D01*
X108453290Y-84071149D01*
X108469642Y-84063682D01*
X108652212Y-83995586D01*
X108669460Y-83990521D01*
X108859863Y-83949101D01*
X108877658Y-83946543D01*
X108996512Y-83938043D01*
X109065886Y-83953135D01*
X109116088Y-84003337D01*
X109131500Y-84063722D01*
X109131500Y-85734134D01*
X109138255Y-85796316D01*
X109189385Y-85932705D01*
X109276739Y-86049261D01*
X109393295Y-86136615D01*
X109401704Y-86139767D01*
X109401705Y-86139768D01*
X109510960Y-86180726D01*
X109567725Y-86223367D01*
X109592425Y-86289929D01*
X109577218Y-86359278D01*
X109557825Y-86385759D01*
X109434590Y-86514717D01*
X109428104Y-86522727D01*
X109308098Y-86698649D01*
X109303000Y-86707623D01*
X109213338Y-86900783D01*
X109209775Y-86910470D01*
X109154389Y-87110183D01*
X109155912Y-87118607D01*
X109168292Y-87122000D01*
X110618000Y-87122000D01*
X110686121Y-87142002D01*
X110732614Y-87195658D01*
X110744000Y-87248000D01*
X110744000Y-88694517D01*
X110748064Y-88708359D01*
X110761478Y-88710393D01*
X110768184Y-88709534D01*
X110778262Y-88707392D01*
X110982255Y-88646191D01*
X110991842Y-88642433D01*
X111183095Y-88548739D01*
X111191945Y-88543464D01*
X111365328Y-88419792D01*
X111373200Y-88413139D01*
X111524052Y-88262812D01*
X111530730Y-88254965D01*
X111658022Y-88077819D01*
X111659279Y-88078722D01*
X111706373Y-88035362D01*
X111776311Y-88023145D01*
X111841751Y-88050678D01*
X111869579Y-88082511D01*
X111929987Y-88181088D01*
X112076250Y-88349938D01*
X112248126Y-88492632D01*
X112275240Y-88508476D01*
X112398804Y-88580681D01*
X112447528Y-88632320D01*
X112455879Y-88654091D01*
X112456648Y-88659929D01*
X112515946Y-88803089D01*
X112610277Y-88926023D01*
X112733211Y-89020354D01*
X112876371Y-89079652D01*
X113030000Y-89099878D01*
X113038188Y-89098800D01*
X113060383Y-89095878D01*
X113076829Y-89094800D01*
X113304245Y-89094800D01*
X113372366Y-89114802D01*
X113393340Y-89131705D01*
X125184026Y-100922391D01*
X125218052Y-100984703D01*
X125220240Y-101024661D01*
X125218795Y-101038405D01*
X125216359Y-101038149D01*
X125199484Y-101095621D01*
X125145828Y-101142114D01*
X125093486Y-101153500D01*
X123676244Y-101153500D01*
X123608123Y-101133498D01*
X123587149Y-101116595D01*
X117754071Y-95283517D01*
X117751316Y-95280675D01*
X117674293Y-95198654D01*
X117671582Y-95195767D01*
X117581847Y-95121532D01*
X117578850Y-95118972D01*
X117578709Y-95118847D01*
X117530750Y-95076565D01*
X117494495Y-95044601D01*
X117494489Y-95044596D01*
X117491518Y-95041977D01*
X117463746Y-95023103D01*
X117454259Y-95015980D01*
X117431435Y-94997099D01*
X117431427Y-94997093D01*
X117428375Y-94994568D01*
X117330053Y-94932171D01*
X117326753Y-94930003D01*
X117233737Y-94866789D01*
X117233732Y-94866786D01*
X117230455Y-94864559D01*
X117226929Y-94862763D01*
X117226925Y-94862760D01*
X117214662Y-94856512D01*
X117200531Y-94849312D01*
X117190226Y-94843434D01*
X117184989Y-94840110D01*
X117161869Y-94825438D01*
X117056515Y-94775863D01*
X117052969Y-94774126D01*
X116952734Y-94723053D01*
X116952727Y-94723050D01*
X116949216Y-94721261D01*
X116945501Y-94719924D01*
X116945493Y-94719920D01*
X116917621Y-94709885D01*
X116906657Y-94705344D01*
X116879848Y-94692729D01*
X116879841Y-94692726D01*
X116876266Y-94691044D01*
X116765507Y-94655056D01*
X116761845Y-94653803D01*
X116652233Y-94614340D01*
X116619456Y-94607014D01*
X116608007Y-94603881D01*
X116579843Y-94594730D01*
X116579839Y-94594729D01*
X116576072Y-94593505D01*
X116478279Y-94574850D01*
X116461688Y-94571685D01*
X116457864Y-94570894D01*
X116344192Y-94545485D01*
X116310762Y-94542325D01*
X116299010Y-94540652D01*
X116269918Y-94535102D01*
X116269909Y-94535101D01*
X116266020Y-94534359D01*
X116149807Y-94527048D01*
X116145915Y-94526743D01*
X116029949Y-94515780D01*
X116025998Y-94515904D01*
X116025992Y-94515904D01*
X115913555Y-94519438D01*
X115909597Y-94519500D01*
X113459162Y-94519500D01*
X113222980Y-94534359D01*
X112912928Y-94593505D01*
X112774257Y-94638562D01*
X112691203Y-94665548D01*
X112612734Y-94691044D01*
X112609148Y-94692731D01*
X112609144Y-94692733D01*
X112330717Y-94823750D01*
X112330710Y-94823754D01*
X112327131Y-94825438D01*
X112060625Y-94994568D01*
X111817418Y-95195767D01*
X111601346Y-95425860D01*
X111599019Y-95429062D01*
X111599018Y-95429064D01*
X111590964Y-95440150D01*
X111415816Y-95681221D01*
X111413909Y-95684690D01*
X111413907Y-95684693D01*
X111327153Y-95842498D01*
X111263753Y-95957821D01*
X111262300Y-95961490D01*
X111262298Y-95961495D01*
X111220137Y-96067982D01*
X111147557Y-96251298D01*
X111069060Y-96557025D01*
X111029500Y-96870179D01*
X111029500Y-97185821D01*
X111069060Y-97498975D01*
X111147557Y-97804702D01*
X111149010Y-97808371D01*
X111149010Y-97808372D01*
X111258963Y-98086080D01*
X111263753Y-98098179D01*
X111265659Y-98101647D01*
X111265660Y-98101648D01*
X111412221Y-98368239D01*
X111415816Y-98374779D01*
X111507944Y-98501583D01*
X111591180Y-98616147D01*
X111601346Y-98630140D01*
X111761457Y-98800641D01*
X111802230Y-98844059D01*
X111817418Y-98860233D01*
X112060625Y-99061432D01*
X112327131Y-99230562D01*
X112330710Y-99232246D01*
X112330717Y-99232250D01*
X112609144Y-99363267D01*
X112609148Y-99363269D01*
X112612734Y-99364956D01*
X112616506Y-99366182D01*
X112616507Y-99366182D01*
X112706126Y-99395301D01*
X112912928Y-99462495D01*
X113222980Y-99521641D01*
X113459162Y-99536500D01*
X114859756Y-99536500D01*
X114927877Y-99556502D01*
X114948851Y-99573405D01*
X120781929Y-105406483D01*
X120784683Y-105409324D01*
X120864418Y-105494233D01*
X120867469Y-105496757D01*
X120954139Y-105568456D01*
X120957136Y-105571016D01*
X120989470Y-105599523D01*
X121041505Y-105645399D01*
X121041511Y-105645404D01*
X121044482Y-105648023D01*
X121072254Y-105666897D01*
X121081741Y-105674020D01*
X121104565Y-105692901D01*
X121104570Y-105692904D01*
X121107625Y-105695432D01*
X121205939Y-105757824D01*
X121209247Y-105759997D01*
X121302263Y-105823211D01*
X121302268Y-105823214D01*
X121305545Y-105825441D01*
X121309071Y-105827237D01*
X121309075Y-105827240D01*
X121319968Y-105832790D01*
X121335469Y-105840688D01*
X121345770Y-105846564D01*
X121374131Y-105864562D01*
X121479512Y-105914150D01*
X121483013Y-105915865D01*
X121586785Y-105968739D01*
X121590508Y-105970079D01*
X121590514Y-105970082D01*
X121618385Y-105980117D01*
X121629348Y-105984658D01*
X121656144Y-105997267D01*
X121656148Y-105997269D01*
X121659734Y-105998956D01*
X121663500Y-106000180D01*
X121663511Y-106000184D01*
X121746264Y-106027071D01*
X121770477Y-106034939D01*
X121774159Y-106036198D01*
X121883767Y-106075660D01*
X121912873Y-106082166D01*
X121916545Y-106082987D01*
X121927992Y-106086119D01*
X121953219Y-106094315D01*
X121959928Y-106096495D01*
X121963815Y-106097237D01*
X121963817Y-106097237D01*
X121994898Y-106103166D01*
X122074287Y-106118311D01*
X122078145Y-106119110D01*
X122187935Y-106143651D01*
X122187946Y-106143653D01*
X122191808Y-106144516D01*
X122225252Y-106147677D01*
X122236998Y-106149349D01*
X122269980Y-106155641D01*
X122343913Y-106160293D01*
X122386164Y-106162951D01*
X122390109Y-106163261D01*
X122436307Y-106167628D01*
X122506051Y-106174220D01*
X122510003Y-106174096D01*
X122510009Y-106174096D01*
X122622445Y-106170562D01*
X122626403Y-106170500D01*
X160443838Y-106170500D01*
X160680020Y-106155641D01*
X160990072Y-106096495D01*
X161175592Y-106036216D01*
X161286493Y-106000182D01*
X161286494Y-106000182D01*
X161290266Y-105998956D01*
X161293852Y-105997269D01*
X161293856Y-105997267D01*
X161572283Y-105866250D01*
X161572290Y-105866246D01*
X161575869Y-105864562D01*
X161842375Y-105695432D01*
X161995862Y-105568456D01*
X162082530Y-105496758D01*
X162082531Y-105496757D01*
X162085582Y-105494233D01*
X162301654Y-105264140D01*
X162487184Y-105008779D01*
X162503353Y-104979369D01*
X162637340Y-104735648D01*
X162637341Y-104735647D01*
X162639247Y-104732179D01*
X162655913Y-104690087D01*
X162723601Y-104519127D01*
X166932500Y-104519127D01*
X166932738Y-104521844D01*
X166932738Y-104521851D01*
X166937651Y-104578005D01*
X166947457Y-104690087D01*
X166948881Y-104695400D01*
X166948881Y-104695402D01*
X166961232Y-104741494D01*
X167006716Y-104911243D01*
X167009039Y-104916224D01*
X167009039Y-104916225D01*
X167101151Y-105113762D01*
X167101154Y-105113767D01*
X167103477Y-105118749D01*
X167234802Y-105306300D01*
X167396700Y-105468198D01*
X167401208Y-105471355D01*
X167401211Y-105471357D01*
X167454994Y-105509016D01*
X167584251Y-105599523D01*
X167589233Y-105601846D01*
X167589238Y-105601849D01*
X167744011Y-105674020D01*
X167791757Y-105696284D01*
X167797065Y-105697706D01*
X167797067Y-105697707D01*
X168007598Y-105754119D01*
X168007600Y-105754119D01*
X168012913Y-105755543D01*
X168241000Y-105775498D01*
X168469087Y-105755543D01*
X168474400Y-105754119D01*
X168474402Y-105754119D01*
X168684933Y-105697707D01*
X168684935Y-105697706D01*
X168690243Y-105696284D01*
X168737989Y-105674020D01*
X168892762Y-105601849D01*
X168892767Y-105601846D01*
X168897749Y-105599523D01*
X169027006Y-105509016D01*
X169080789Y-105471357D01*
X169080792Y-105471355D01*
X169085300Y-105468198D01*
X169247198Y-105306300D01*
X169378523Y-105118749D01*
X169380846Y-105113767D01*
X169380849Y-105113762D01*
X169472961Y-104916225D01*
X169472961Y-104916224D01*
X169475284Y-104911243D01*
X169520769Y-104741494D01*
X169533119Y-104695402D01*
X169533119Y-104695400D01*
X169534543Y-104690087D01*
X169544349Y-104578005D01*
X169549262Y-104521851D01*
X169549262Y-104521844D01*
X169549500Y-104519127D01*
X169549500Y-102804873D01*
X169546674Y-102772564D01*
X169535022Y-102639393D01*
X169534543Y-102633913D01*
X169523488Y-102592656D01*
X169476707Y-102418067D01*
X169476706Y-102418065D01*
X169475284Y-102412757D01*
X169457852Y-102375373D01*
X169380849Y-102210238D01*
X169380846Y-102210233D01*
X169378523Y-102205251D01*
X169274698Y-102056974D01*
X169250357Y-102022211D01*
X169250355Y-102022208D01*
X169247198Y-102017700D01*
X169085300Y-101855802D01*
X169080792Y-101852645D01*
X169080789Y-101852643D01*
X168989237Y-101788538D01*
X168897749Y-101724477D01*
X168892767Y-101722154D01*
X168892762Y-101722151D01*
X168695225Y-101630039D01*
X168695224Y-101630039D01*
X168690243Y-101627716D01*
X168684935Y-101626294D01*
X168684933Y-101626293D01*
X168474402Y-101569881D01*
X168474400Y-101569881D01*
X168469087Y-101568457D01*
X168241000Y-101548502D01*
X168012913Y-101568457D01*
X168007600Y-101569881D01*
X168007598Y-101569881D01*
X167797067Y-101626293D01*
X167797065Y-101626294D01*
X167791757Y-101627716D01*
X167786776Y-101630039D01*
X167786775Y-101630039D01*
X167589238Y-101722151D01*
X167589233Y-101722154D01*
X167584251Y-101724477D01*
X167492763Y-101788538D01*
X167401211Y-101852643D01*
X167401208Y-101852645D01*
X167396700Y-101855802D01*
X167234802Y-102017700D01*
X167231645Y-102022208D01*
X167231643Y-102022211D01*
X167207302Y-102056974D01*
X167103477Y-102205251D01*
X167101154Y-102210233D01*
X167101151Y-102210238D01*
X167024148Y-102375373D01*
X167006716Y-102412757D01*
X167005294Y-102418065D01*
X167005293Y-102418067D01*
X166958512Y-102592656D01*
X166947457Y-102633913D01*
X166946978Y-102639393D01*
X166935327Y-102772564D01*
X166932500Y-102804873D01*
X166932500Y-104519127D01*
X162723601Y-104519127D01*
X162753990Y-104442372D01*
X162753990Y-104442371D01*
X162755443Y-104438702D01*
X162833940Y-104132975D01*
X162873500Y-103819821D01*
X162873500Y-103504179D01*
X162833940Y-103191025D01*
X162755443Y-102885298D01*
X162753990Y-102881628D01*
X162640702Y-102595495D01*
X162640700Y-102595490D01*
X162639247Y-102591821D01*
X162574514Y-102474072D01*
X162489093Y-102318693D01*
X162489091Y-102318690D01*
X162487184Y-102315221D01*
X162301654Y-102059860D01*
X162085582Y-101829767D01*
X161842375Y-101628568D01*
X161575869Y-101459438D01*
X161572290Y-101457754D01*
X161572283Y-101457750D01*
X161293856Y-101326733D01*
X161293852Y-101326731D01*
X161290266Y-101325044D01*
X160990072Y-101227505D01*
X160680020Y-101168359D01*
X160443838Y-101153500D01*
X152575192Y-101153500D01*
X152507071Y-101133498D01*
X152460578Y-101079842D01*
X152449882Y-101014331D01*
X152462004Y-100899000D01*
X152442042Y-100709072D01*
X152383027Y-100527444D01*
X152287540Y-100362056D01*
X152229750Y-100297873D01*
X152164175Y-100225045D01*
X152164174Y-100225044D01*
X152159753Y-100220134D01*
X152021931Y-100120000D01*
X152010594Y-100111763D01*
X152010593Y-100111762D01*
X152005252Y-100107882D01*
X151999224Y-100105198D01*
X151999222Y-100105197D01*
X151836819Y-100032891D01*
X151836818Y-100032891D01*
X151830788Y-100030206D01*
X151702748Y-100002990D01*
X151650444Y-99991872D01*
X151650439Y-99991872D01*
X151643987Y-99990500D01*
X151453013Y-99990500D01*
X151446553Y-99991873D01*
X151446554Y-99991873D01*
X151414625Y-99998659D01*
X151343834Y-99993256D01*
X151287202Y-99950439D01*
X151268596Y-99914348D01*
X151232459Y-99803132D01*
X151217127Y-99755944D01*
X151200863Y-99727773D01*
X151177368Y-99687080D01*
X151121640Y-99590556D01*
X151072855Y-99536374D01*
X151003464Y-99459308D01*
X150972746Y-99395301D01*
X150971100Y-99374998D01*
X150971100Y-99078522D01*
X162058273Y-99078522D01*
X162105764Y-99255761D01*
X162109510Y-99266053D01*
X162201586Y-99463511D01*
X162207069Y-99473007D01*
X162332028Y-99651467D01*
X162339084Y-99659875D01*
X162493125Y-99813916D01*
X162501533Y-99820972D01*
X162679993Y-99945931D01*
X162689489Y-99951414D01*
X162886947Y-100043490D01*
X162897239Y-100047236D01*
X163107688Y-100103625D01*
X163118481Y-100105528D01*
X163281170Y-100119762D01*
X163286635Y-100120000D01*
X163768885Y-100120000D01*
X163784124Y-100115525D01*
X163785329Y-100114135D01*
X163787000Y-100106452D01*
X163787000Y-100101885D01*
X164295000Y-100101885D01*
X164299475Y-100117124D01*
X164300865Y-100118329D01*
X164308548Y-100120000D01*
X164795365Y-100120000D01*
X164800830Y-100119762D01*
X164963519Y-100105528D01*
X164974312Y-100103625D01*
X165184761Y-100047236D01*
X165195053Y-100043490D01*
X165392511Y-99951414D01*
X165402007Y-99945931D01*
X165580467Y-99820972D01*
X165588875Y-99813916D01*
X165742916Y-99659875D01*
X165749972Y-99651467D01*
X165874931Y-99473007D01*
X165880414Y-99463511D01*
X165972490Y-99266053D01*
X165976236Y-99255761D01*
X166022394Y-99083497D01*
X166022275Y-99078522D01*
X166758273Y-99078522D01*
X166805764Y-99255761D01*
X166809510Y-99266053D01*
X166901586Y-99463511D01*
X166907069Y-99473007D01*
X167032028Y-99651467D01*
X167039084Y-99659875D01*
X167193125Y-99813916D01*
X167201533Y-99820972D01*
X167379993Y-99945931D01*
X167389489Y-99951414D01*
X167586947Y-100043490D01*
X167597239Y-100047236D01*
X167807688Y-100103625D01*
X167818481Y-100105528D01*
X167981170Y-100119762D01*
X167986635Y-100120000D01*
X168468885Y-100120000D01*
X168484124Y-100115525D01*
X168485329Y-100114135D01*
X168487000Y-100106452D01*
X168487000Y-100101885D01*
X168995000Y-100101885D01*
X168999475Y-100117124D01*
X169000865Y-100118329D01*
X169008548Y-100120000D01*
X169495365Y-100120000D01*
X169500830Y-100119762D01*
X169663519Y-100105528D01*
X169674312Y-100103625D01*
X169884761Y-100047236D01*
X169895053Y-100043490D01*
X170092511Y-99951414D01*
X170102007Y-99945931D01*
X170280467Y-99820972D01*
X170288875Y-99813916D01*
X170442916Y-99659875D01*
X170449972Y-99651467D01*
X170574931Y-99473007D01*
X170580414Y-99463511D01*
X170672490Y-99266053D01*
X170676236Y-99255761D01*
X170722394Y-99083497D01*
X170722058Y-99069401D01*
X170714116Y-99066000D01*
X169013115Y-99066000D01*
X168997876Y-99070475D01*
X168996671Y-99071865D01*
X168995000Y-99079548D01*
X168995000Y-100101885D01*
X168487000Y-100101885D01*
X168487000Y-99084115D01*
X168482525Y-99068876D01*
X168481135Y-99067671D01*
X168473452Y-99066000D01*
X166773033Y-99066000D01*
X166759502Y-99069973D01*
X166758273Y-99078522D01*
X166022275Y-99078522D01*
X166022058Y-99069401D01*
X166014116Y-99066000D01*
X164313115Y-99066000D01*
X164297876Y-99070475D01*
X164296671Y-99071865D01*
X164295000Y-99079548D01*
X164295000Y-100101885D01*
X163787000Y-100101885D01*
X163787000Y-99084115D01*
X163782525Y-99068876D01*
X163781135Y-99067671D01*
X163773452Y-99066000D01*
X162073033Y-99066000D01*
X162059502Y-99069973D01*
X162058273Y-99078522D01*
X150971100Y-99078522D01*
X150971100Y-98540503D01*
X162059606Y-98540503D01*
X162059942Y-98554599D01*
X162067884Y-98558000D01*
X163768885Y-98558000D01*
X163784124Y-98553525D01*
X163785329Y-98552135D01*
X163787000Y-98544452D01*
X163787000Y-98539885D01*
X164295000Y-98539885D01*
X164299475Y-98555124D01*
X164300865Y-98556329D01*
X164308548Y-98558000D01*
X166008967Y-98558000D01*
X166022498Y-98554027D01*
X166023727Y-98545478D01*
X166022394Y-98540503D01*
X166759606Y-98540503D01*
X166759942Y-98554599D01*
X166767884Y-98558000D01*
X168468885Y-98558000D01*
X168484124Y-98553525D01*
X168485329Y-98552135D01*
X168487000Y-98544452D01*
X168487000Y-98539885D01*
X168995000Y-98539885D01*
X168999475Y-98555124D01*
X169000865Y-98556329D01*
X169008548Y-98558000D01*
X170708967Y-98558000D01*
X170722498Y-98554027D01*
X170723727Y-98545478D01*
X170676236Y-98368239D01*
X170672490Y-98357947D01*
X170580414Y-98160489D01*
X170574931Y-98150993D01*
X170449972Y-97972533D01*
X170442916Y-97964125D01*
X170288875Y-97810084D01*
X170280467Y-97803028D01*
X170102007Y-97678069D01*
X170092511Y-97672586D01*
X169895053Y-97580510D01*
X169884761Y-97576764D01*
X169674312Y-97520375D01*
X169663519Y-97518472D01*
X169500830Y-97504238D01*
X169495365Y-97504000D01*
X169013115Y-97504000D01*
X168997876Y-97508475D01*
X168996671Y-97509865D01*
X168995000Y-97517548D01*
X168995000Y-98539885D01*
X168487000Y-98539885D01*
X168487000Y-97522115D01*
X168482525Y-97506876D01*
X168481135Y-97505671D01*
X168473452Y-97504000D01*
X167986635Y-97504000D01*
X167981170Y-97504238D01*
X167818481Y-97518472D01*
X167807688Y-97520375D01*
X167597239Y-97576764D01*
X167586947Y-97580510D01*
X167389489Y-97672586D01*
X167379993Y-97678069D01*
X167201533Y-97803028D01*
X167193125Y-97810084D01*
X167039084Y-97964125D01*
X167032028Y-97972533D01*
X166907069Y-98150993D01*
X166901586Y-98160489D01*
X166809510Y-98357947D01*
X166805764Y-98368239D01*
X166759606Y-98540503D01*
X166022394Y-98540503D01*
X165976236Y-98368239D01*
X165972490Y-98357947D01*
X165880414Y-98160489D01*
X165874931Y-98150993D01*
X165749972Y-97972533D01*
X165742916Y-97964125D01*
X165588875Y-97810084D01*
X165580467Y-97803028D01*
X165402007Y-97678069D01*
X165392511Y-97672586D01*
X165195053Y-97580510D01*
X165184761Y-97576764D01*
X164974312Y-97520375D01*
X164963519Y-97518472D01*
X164800830Y-97504238D01*
X164795365Y-97504000D01*
X164313115Y-97504000D01*
X164297876Y-97508475D01*
X164296671Y-97509865D01*
X164295000Y-97517548D01*
X164295000Y-98539885D01*
X163787000Y-98539885D01*
X163787000Y-97522115D01*
X163782525Y-97506876D01*
X163781135Y-97505671D01*
X163773452Y-97504000D01*
X163286635Y-97504000D01*
X163281170Y-97504238D01*
X163118481Y-97518472D01*
X163107688Y-97520375D01*
X162897239Y-97576764D01*
X162886947Y-97580510D01*
X162689489Y-97672586D01*
X162679993Y-97678069D01*
X162501533Y-97803028D01*
X162493125Y-97810084D01*
X162339084Y-97964125D01*
X162332028Y-97972533D01*
X162207069Y-98150993D01*
X162201586Y-98160489D01*
X162109510Y-98357947D01*
X162105764Y-98368239D01*
X162059606Y-98540503D01*
X150971100Y-98540503D01*
X150971100Y-97234755D01*
X150991102Y-97166634D01*
X151008005Y-97145660D01*
X152671228Y-95482437D01*
X152733540Y-95448411D01*
X152804355Y-95453476D01*
X152861191Y-95496023D01*
X152869440Y-95508528D01*
X152926260Y-95606944D01*
X152930678Y-95611851D01*
X152930679Y-95611852D01*
X153049625Y-95743955D01*
X153054047Y-95748866D01*
X153208548Y-95861118D01*
X153214576Y-95863802D01*
X153214578Y-95863803D01*
X153376981Y-95936109D01*
X153383012Y-95938794D01*
X153476413Y-95958647D01*
X153563356Y-95977128D01*
X153563361Y-95977128D01*
X153569813Y-95978500D01*
X153760787Y-95978500D01*
X153767239Y-95977128D01*
X153767244Y-95977128D01*
X153854187Y-95958647D01*
X153947588Y-95938794D01*
X153953619Y-95936109D01*
X154116022Y-95863803D01*
X154116024Y-95863802D01*
X154122052Y-95861118D01*
X154276553Y-95748866D01*
X154280975Y-95743955D01*
X154399921Y-95611852D01*
X154399922Y-95611851D01*
X154404340Y-95606944D01*
X154499827Y-95441556D01*
X154558842Y-95259928D01*
X154578804Y-95070000D01*
X154576222Y-95045432D01*
X154559532Y-94886635D01*
X154559532Y-94886633D01*
X154558842Y-94880072D01*
X154526016Y-94779046D01*
X154503429Y-94709529D01*
X154501401Y-94638562D01*
X154534167Y-94581498D01*
X156394484Y-92721180D01*
X156456796Y-92687155D01*
X156527611Y-92692219D01*
X156553491Y-92705450D01*
X156553707Y-92705594D01*
X156559285Y-92710333D01*
X156640820Y-92751967D01*
X156710292Y-92787442D01*
X156710294Y-92787443D01*
X156716808Y-92790769D01*
X156723913Y-92792508D01*
X156723917Y-92792509D01*
X156806238Y-92812652D01*
X156888610Y-92832808D01*
X156894212Y-92833156D01*
X156894215Y-92833156D01*
X156897825Y-92833380D01*
X156897835Y-92833380D01*
X156899764Y-92833500D01*
X157027293Y-92833500D01*
X157097036Y-92825369D01*
X157151411Y-92819030D01*
X157151415Y-92819029D01*
X157158681Y-92818182D01*
X157165556Y-92815687D01*
X157165558Y-92815686D01*
X157318061Y-92760329D01*
X157318062Y-92760329D01*
X157324937Y-92757833D01*
X157331054Y-92753822D01*
X157331057Y-92753821D01*
X157466733Y-92664868D01*
X157466734Y-92664867D01*
X157472852Y-92660856D01*
X157594490Y-92532453D01*
X157683326Y-92379510D01*
X157689625Y-92358715D01*
X157732473Y-92217239D01*
X157734595Y-92210233D01*
X157745547Y-92033702D01*
X157730720Y-91947411D01*
X157720667Y-91888908D01*
X157728844Y-91818384D01*
X157770786Y-91765634D01*
X157901109Y-91670949D01*
X157901111Y-91670947D01*
X157906453Y-91667066D01*
X157971261Y-91595089D01*
X158029821Y-91530052D01*
X158029822Y-91530051D01*
X158034240Y-91525144D01*
X158129727Y-91359756D01*
X158188742Y-91178128D01*
X158195131Y-91117345D01*
X158208014Y-90994765D01*
X158208704Y-90988200D01*
X158204279Y-90946096D01*
X158217052Y-90876257D01*
X158255528Y-90830990D01*
X158255830Y-90830771D01*
X158305452Y-90794718D01*
X158404509Y-90722749D01*
X158404511Y-90722747D01*
X158409853Y-90718866D01*
X158537640Y-90576944D01*
X158606814Y-90457132D01*
X158629823Y-90417279D01*
X158629824Y-90417278D01*
X158633127Y-90411556D01*
X158692142Y-90229928D01*
X158700618Y-90149289D01*
X158711414Y-90046565D01*
X158712104Y-90040000D01*
X158692142Y-89850072D01*
X158633127Y-89668444D01*
X158537640Y-89503056D01*
X158529301Y-89493794D01*
X158414275Y-89366045D01*
X158414274Y-89366044D01*
X158409853Y-89361134D01*
X158255352Y-89248882D01*
X158249324Y-89246198D01*
X158249322Y-89246197D01*
X158086919Y-89173891D01*
X158086918Y-89173891D01*
X158080888Y-89171206D01*
X158074433Y-89169834D01*
X158074424Y-89169831D01*
X157991333Y-89152169D01*
X157928860Y-89118441D01*
X157894539Y-89056291D01*
X157899267Y-88985452D01*
X157928436Y-88939828D01*
X158263259Y-88605005D01*
X158325571Y-88570979D01*
X158352354Y-88568100D01*
X160188745Y-88568100D01*
X160256866Y-88588102D01*
X160277840Y-88605005D01*
X160316395Y-88643560D01*
X160350421Y-88705872D01*
X160353300Y-88732655D01*
X160353300Y-88847415D01*
X160333298Y-88915536D01*
X160279642Y-88962029D01*
X160209368Y-88972133D01*
X160188959Y-88967386D01*
X160183388Y-88964906D01*
X160176935Y-88963534D01*
X160176934Y-88963534D01*
X160003044Y-88926572D01*
X160003039Y-88926572D01*
X159996587Y-88925200D01*
X159805613Y-88925200D01*
X159799161Y-88926572D01*
X159799156Y-88926572D01*
X159712213Y-88945053D01*
X159618812Y-88964906D01*
X159612782Y-88967591D01*
X159612781Y-88967591D01*
X159450378Y-89039897D01*
X159450376Y-89039898D01*
X159444348Y-89042582D01*
X159439007Y-89046462D01*
X159439006Y-89046463D01*
X159425479Y-89056291D01*
X159289847Y-89154834D01*
X159285426Y-89159744D01*
X159285425Y-89159745D01*
X159237941Y-89212482D01*
X159162060Y-89296756D01*
X159066573Y-89462144D01*
X159007558Y-89643772D01*
X158987596Y-89833700D01*
X158988286Y-89840265D01*
X159000907Y-89960343D01*
X159007558Y-90023628D01*
X159066573Y-90205256D01*
X159162060Y-90370644D01*
X159166478Y-90375551D01*
X159166479Y-90375552D01*
X159280236Y-90501892D01*
X159310954Y-90565899D01*
X159312600Y-90586202D01*
X159312600Y-94103270D01*
X159311522Y-94119715D01*
X159307522Y-94150100D01*
X159327747Y-94303730D01*
X159360951Y-94383889D01*
X159387046Y-94446889D01*
X159400456Y-94464365D01*
X159439907Y-94515779D01*
X159448556Y-94527050D01*
X159453838Y-94533933D01*
X159481377Y-94569823D01*
X159487927Y-94574849D01*
X159487928Y-94574850D01*
X159505694Y-94588482D01*
X159518085Y-94599350D01*
X161831950Y-96913214D01*
X161842817Y-96925605D01*
X161861477Y-96949923D01*
X161984411Y-97044254D01*
X162055991Y-97073903D01*
X162127571Y-97103553D01*
X162281200Y-97123778D01*
X162311585Y-97119778D01*
X162328030Y-97118700D01*
X165526570Y-97118700D01*
X165543015Y-97119778D01*
X165573400Y-97123778D01*
X165581589Y-97122700D01*
X165718842Y-97104631D01*
X165718843Y-97104631D01*
X165727030Y-97103553D01*
X165792569Y-97076405D01*
X165810888Y-97068817D01*
X165810890Y-97068816D01*
X165862558Y-97047415D01*
X165862559Y-97047414D01*
X165870189Y-97044254D01*
X165993123Y-96949923D01*
X166011780Y-96925609D01*
X166022647Y-96913218D01*
X166261333Y-96674532D01*
X166323645Y-96640506D01*
X166394460Y-96645571D01*
X166418776Y-96657775D01*
X166553741Y-96744921D01*
X166564345Y-96750417D01*
X166749312Y-96824961D01*
X166760770Y-96828355D01*
X166957928Y-96866857D01*
X166966791Y-96867934D01*
X166969500Y-96868000D01*
X167298885Y-96868000D01*
X167314124Y-96863525D01*
X167315329Y-96862135D01*
X167317000Y-96854452D01*
X167317000Y-96849885D01*
X167825000Y-96849885D01*
X167829475Y-96865124D01*
X167830865Y-96866329D01*
X167838548Y-96868000D01*
X168120832Y-96868000D01*
X168126808Y-96867715D01*
X168275494Y-96853529D01*
X168287228Y-96851270D01*
X168478599Y-96795128D01*
X168489675Y-96790698D01*
X168666978Y-96699381D01*
X168677024Y-96692931D01*
X168833857Y-96569738D01*
X168842506Y-96561501D01*
X168973212Y-96410877D01*
X168980147Y-96401153D01*
X169080010Y-96228533D01*
X169084984Y-96217669D01*
X169150407Y-96029273D01*
X169150648Y-96028284D01*
X169150522Y-96027399D01*
X170375712Y-96027399D01*
X170397194Y-96116537D01*
X170401083Y-96127832D01*
X170483629Y-96309382D01*
X170489576Y-96319724D01*
X170604968Y-96482397D01*
X170612761Y-96491425D01*
X170756831Y-96629342D01*
X170766196Y-96636738D01*
X170933741Y-96744921D01*
X170944345Y-96750417D01*
X171129312Y-96824961D01*
X171140770Y-96828355D01*
X171337928Y-96866857D01*
X171346791Y-96867934D01*
X171349500Y-96868000D01*
X171478885Y-96868000D01*
X171494124Y-96863525D01*
X171495329Y-96862135D01*
X171497000Y-96854452D01*
X171497000Y-96032115D01*
X171492525Y-96016876D01*
X171491135Y-96015671D01*
X171483452Y-96014000D01*
X170390598Y-96014000D01*
X170377067Y-96017973D01*
X170375712Y-96027399D01*
X169150522Y-96027399D01*
X169149180Y-96017992D01*
X169135615Y-96014000D01*
X167843115Y-96014000D01*
X167827876Y-96018475D01*
X167826671Y-96019865D01*
X167825000Y-96027548D01*
X167825000Y-96849885D01*
X167317000Y-96849885D01*
X167317000Y-95632000D01*
X167337002Y-95563879D01*
X167390658Y-95517386D01*
X167443000Y-95506000D01*
X169131402Y-95506000D01*
X169144933Y-95502027D01*
X169146415Y-95491716D01*
X170371352Y-95491716D01*
X170372820Y-95502008D01*
X170386385Y-95506000D01*
X171478885Y-95506000D01*
X171494124Y-95501525D01*
X171495329Y-95500135D01*
X171497000Y-95492452D01*
X171497000Y-94670115D01*
X171492525Y-94654876D01*
X171491135Y-94653671D01*
X171483452Y-94652000D01*
X171401168Y-94652000D01*
X171395192Y-94652285D01*
X171246506Y-94666471D01*
X171234772Y-94668730D01*
X171043401Y-94724872D01*
X171032325Y-94729302D01*
X170855022Y-94820619D01*
X170844976Y-94827069D01*
X170688143Y-94950262D01*
X170679494Y-94958499D01*
X170548788Y-95109123D01*
X170541853Y-95118847D01*
X170441990Y-95291467D01*
X170437016Y-95302331D01*
X170371593Y-95490727D01*
X170371352Y-95491716D01*
X169146415Y-95491716D01*
X169149518Y-95470136D01*
X169154140Y-95470801D01*
X169157080Y-95440150D01*
X169200990Y-95384361D01*
X169247838Y-95363781D01*
X169255105Y-95362236D01*
X169422788Y-95326594D01*
X169501685Y-95291467D01*
X169591222Y-95251603D01*
X169591224Y-95251602D01*
X169597252Y-95248918D01*
X169751753Y-95136666D01*
X169811779Y-95070000D01*
X169875121Y-94999652D01*
X169875122Y-94999651D01*
X169879540Y-94994744D01*
X169953415Y-94866789D01*
X169971723Y-94835079D01*
X169971724Y-94835078D01*
X169975027Y-94829356D01*
X170034042Y-94647728D01*
X170035006Y-94638562D01*
X170053314Y-94464365D01*
X170054004Y-94457800D01*
X170048900Y-94409234D01*
X170034732Y-94274435D01*
X170034732Y-94274433D01*
X170034042Y-94267872D01*
X169975027Y-94086244D01*
X169879540Y-93920856D01*
X169751753Y-93778934D01*
X169652657Y-93706936D01*
X169602594Y-93670563D01*
X169602593Y-93670562D01*
X169597252Y-93666682D01*
X169591224Y-93663998D01*
X169591222Y-93663997D01*
X169428819Y-93591691D01*
X169428818Y-93591691D01*
X169422788Y-93589006D01*
X169329388Y-93569153D01*
X169242444Y-93550672D01*
X169242439Y-93550672D01*
X169235987Y-93549300D01*
X169116455Y-93549300D01*
X169048334Y-93529298D01*
X169027360Y-93512395D01*
X168792347Y-93277382D01*
X168781479Y-93264990D01*
X168764378Y-93242703D01*
X168738778Y-93176482D01*
X168753043Y-93106934D01*
X168802645Y-93056138D01*
X168816124Y-93049591D01*
X168841658Y-93039015D01*
X168841659Y-93039014D01*
X168849289Y-93035854D01*
X168936834Y-92968678D01*
X168941359Y-92965206D01*
X168972223Y-92941523D01*
X168990880Y-92917209D01*
X169001747Y-92904818D01*
X169334018Y-92572547D01*
X169346409Y-92561680D01*
X169364173Y-92548049D01*
X169370723Y-92543023D01*
X169465054Y-92420089D01*
X169492958Y-92352723D01*
X169524353Y-92276930D01*
X169533134Y-92210233D01*
X169543500Y-92131489D01*
X169544578Y-92123300D01*
X169540578Y-92092916D01*
X169539500Y-92076470D01*
X169539500Y-91564629D01*
X169540578Y-91548183D01*
X169543500Y-91525988D01*
X169544578Y-91517800D01*
X169524352Y-91364170D01*
X169499659Y-91304556D01*
X169465054Y-91221011D01*
X169443494Y-91192913D01*
X169417892Y-91126694D01*
X169432156Y-91057145D01*
X169449816Y-91031902D01*
X169476340Y-91002444D01*
X169549194Y-90876257D01*
X169568523Y-90842779D01*
X169568524Y-90842778D01*
X169571827Y-90837056D01*
X169630842Y-90655428D01*
X169650804Y-90465500D01*
X169650114Y-90458935D01*
X169631532Y-90282135D01*
X169631532Y-90282133D01*
X169630842Y-90275572D01*
X169571827Y-90093944D01*
X169563587Y-90079671D01*
X169479641Y-89934274D01*
X169476340Y-89928556D01*
X169400487Y-89844312D01*
X169352975Y-89791545D01*
X169352974Y-89791544D01*
X169348553Y-89786634D01*
X169194052Y-89674382D01*
X169188026Y-89671699D01*
X169188019Y-89671695D01*
X169058256Y-89613922D01*
X169004160Y-89567942D01*
X168984194Y-89511984D01*
X168983632Y-89506636D01*
X168983632Y-89506635D01*
X168982942Y-89500072D01*
X168923927Y-89318444D01*
X168911406Y-89296756D01*
X168838125Y-89169831D01*
X168828440Y-89153056D01*
X168820048Y-89143736D01*
X168789332Y-89079731D01*
X168798095Y-89009277D01*
X168804566Y-88996427D01*
X168856295Y-88906830D01*
X168856296Y-88906829D01*
X168859599Y-88901107D01*
X168903718Y-88765321D01*
X168913325Y-88735754D01*
X168913325Y-88735753D01*
X168915365Y-88729475D01*
X168917585Y-88708359D01*
X168933539Y-88556565D01*
X168934229Y-88550000D01*
X168925521Y-88467155D01*
X168916055Y-88377089D01*
X168916055Y-88377088D01*
X168915365Y-88370525D01*
X168889150Y-88289841D01*
X168861641Y-88205178D01*
X168859599Y-88198893D01*
X168855091Y-88191084D01*
X168808517Y-88110417D01*
X168799276Y-88094411D01*
X168782538Y-88025416D01*
X168805758Y-87958324D01*
X168830566Y-87932322D01*
X168833858Y-87929737D01*
X168842506Y-87921501D01*
X168973212Y-87770877D01*
X168980147Y-87761153D01*
X169080010Y-87588533D01*
X169084984Y-87577669D01*
X169150407Y-87389273D01*
X169150648Y-87388284D01*
X169150522Y-87387399D01*
X170375712Y-87387399D01*
X170397194Y-87476537D01*
X170401083Y-87487832D01*
X170483629Y-87669382D01*
X170489576Y-87679724D01*
X170604968Y-87842397D01*
X170612761Y-87851425D01*
X170756831Y-87989342D01*
X170766196Y-87996738D01*
X170933741Y-88104921D01*
X170944345Y-88110417D01*
X171129312Y-88184961D01*
X171140770Y-88188355D01*
X171337928Y-88226857D01*
X171346791Y-88227934D01*
X171349500Y-88228000D01*
X171478885Y-88228000D01*
X171494124Y-88223525D01*
X171495329Y-88222135D01*
X171497000Y-88214452D01*
X171497000Y-87392115D01*
X171492525Y-87376876D01*
X171491135Y-87375671D01*
X171483452Y-87374000D01*
X170390598Y-87374000D01*
X170377067Y-87377973D01*
X170375712Y-87387399D01*
X169150522Y-87387399D01*
X169149180Y-87377992D01*
X169135615Y-87374000D01*
X167443000Y-87374000D01*
X167374879Y-87353998D01*
X167328386Y-87300342D01*
X167317000Y-87248000D01*
X167317000Y-86992000D01*
X167337002Y-86923879D01*
X167390658Y-86877386D01*
X167443000Y-86866000D01*
X169131402Y-86866000D01*
X169144933Y-86862027D01*
X169146288Y-86852601D01*
X169146075Y-86851716D01*
X170371352Y-86851716D01*
X170372820Y-86862008D01*
X170386385Y-86866000D01*
X171478885Y-86866000D01*
X171494124Y-86861525D01*
X171495329Y-86860135D01*
X171497000Y-86852452D01*
X171497000Y-86030115D01*
X171492525Y-86014876D01*
X171491135Y-86013671D01*
X171483452Y-86012000D01*
X171401168Y-86012000D01*
X171395192Y-86012285D01*
X171246506Y-86026471D01*
X171234772Y-86028730D01*
X171043401Y-86084872D01*
X171032325Y-86089302D01*
X170855022Y-86180619D01*
X170844976Y-86187069D01*
X170688143Y-86310262D01*
X170679494Y-86318499D01*
X170548788Y-86469123D01*
X170541853Y-86478847D01*
X170441990Y-86651467D01*
X170437016Y-86662331D01*
X170371593Y-86850727D01*
X170371352Y-86851716D01*
X169146075Y-86851716D01*
X169124806Y-86763463D01*
X169120917Y-86752168D01*
X169038371Y-86570618D01*
X169032424Y-86560276D01*
X168965404Y-86465795D01*
X168942306Y-86398661D01*
X168959170Y-86329696D01*
X169010642Y-86280797D01*
X169080380Y-86267488D01*
X169119422Y-86277788D01*
X169156077Y-86294108D01*
X169156085Y-86294111D01*
X169162112Y-86296794D01*
X169225474Y-86310262D01*
X169342456Y-86335128D01*
X169342461Y-86335128D01*
X169348913Y-86336500D01*
X169539887Y-86336500D01*
X169546339Y-86335128D01*
X169546344Y-86335128D01*
X169663326Y-86310262D01*
X169726688Y-86296794D01*
X169768166Y-86278327D01*
X169895122Y-86221803D01*
X169895124Y-86221802D01*
X169901152Y-86219118D01*
X169945264Y-86187069D01*
X170037673Y-86119929D01*
X170055653Y-86106866D01*
X170071468Y-86089302D01*
X170179021Y-85969852D01*
X170179022Y-85969851D01*
X170183440Y-85964944D01*
X170278927Y-85799556D01*
X170337942Y-85617928D01*
X170341560Y-85583511D01*
X170357214Y-85434565D01*
X170357904Y-85428000D01*
X170345822Y-85313045D01*
X170338632Y-85244635D01*
X170338632Y-85244633D01*
X170337942Y-85238072D01*
X170278927Y-85056444D01*
X170183440Y-84891056D01*
X170166387Y-84872116D01*
X170060075Y-84754045D01*
X170060074Y-84754044D01*
X170055653Y-84749134D01*
X169901152Y-84636882D01*
X169895124Y-84634198D01*
X169895122Y-84634197D01*
X169732719Y-84561891D01*
X169732718Y-84561891D01*
X169726688Y-84559206D01*
X169633287Y-84539353D01*
X169546344Y-84520872D01*
X169546339Y-84520872D01*
X169539887Y-84519500D01*
X169348913Y-84519500D01*
X169342461Y-84520872D01*
X169342456Y-84520872D01*
X169255512Y-84539353D01*
X169162112Y-84559206D01*
X169156082Y-84561891D01*
X169156081Y-84561891D01*
X168993678Y-84634197D01*
X168993676Y-84634198D01*
X168987648Y-84636882D01*
X168833147Y-84749134D01*
X168828726Y-84754044D01*
X168828725Y-84754045D01*
X168789229Y-84797910D01*
X168728783Y-84835150D01*
X168695593Y-84839600D01*
X167500929Y-84839600D01*
X167484483Y-84838522D01*
X167462288Y-84835600D01*
X167454100Y-84834522D01*
X167300470Y-84854748D01*
X167258540Y-84872116D01*
X167157311Y-84914046D01*
X167034377Y-85008377D01*
X167029351Y-85014927D01*
X167015720Y-85032691D01*
X167004853Y-85045082D01*
X165807682Y-86242253D01*
X165795291Y-86253120D01*
X165770977Y-86271777D01*
X165676646Y-86394711D01*
X165654328Y-86448592D01*
X165617347Y-86537870D01*
X165616269Y-86546056D01*
X165616269Y-86546057D01*
X165614363Y-86560535D01*
X165585639Y-86625462D01*
X165526374Y-86664553D01*
X165455382Y-86665396D01*
X165400346Y-86633182D01*
X164983192Y-86216027D01*
X164371147Y-85603982D01*
X164360280Y-85591591D01*
X164346649Y-85573827D01*
X164341623Y-85567277D01*
X164218689Y-85472946D01*
X164155593Y-85446811D01*
X164075530Y-85413647D01*
X164067343Y-85412569D01*
X164067342Y-85412569D01*
X163930089Y-85394500D01*
X163921900Y-85393422D01*
X163895633Y-85396880D01*
X163891516Y-85397422D01*
X163875070Y-85398500D01*
X162051618Y-85398500D01*
X161983497Y-85378498D01*
X161957982Y-85356810D01*
X161918573Y-85313041D01*
X161918564Y-85313033D01*
X161914153Y-85308134D01*
X161892571Y-85292454D01*
X161764994Y-85199763D01*
X161764993Y-85199762D01*
X161759652Y-85195882D01*
X161753624Y-85193198D01*
X161753622Y-85193197D01*
X161591219Y-85120891D01*
X161591218Y-85120891D01*
X161585188Y-85118206D01*
X161491787Y-85098353D01*
X161404844Y-85079872D01*
X161404839Y-85079872D01*
X161398387Y-85078500D01*
X161207413Y-85078500D01*
X161200961Y-85079872D01*
X161200956Y-85079872D01*
X161114013Y-85098353D01*
X161020612Y-85118206D01*
X161014582Y-85120891D01*
X161014581Y-85120891D01*
X160852178Y-85193197D01*
X160852176Y-85193198D01*
X160846148Y-85195882D01*
X160840807Y-85199762D01*
X160840806Y-85199763D01*
X160824423Y-85211666D01*
X160691647Y-85308134D01*
X160687229Y-85313041D01*
X160687225Y-85313045D01*
X160589693Y-85421366D01*
X160563860Y-85450056D01*
X160550424Y-85473328D01*
X160507619Y-85547468D01*
X160456236Y-85596461D01*
X160386523Y-85609897D01*
X160320612Y-85583511D01*
X160279430Y-85525678D01*
X160272500Y-85484468D01*
X160272500Y-84900502D01*
X160292502Y-84832381D01*
X160304864Y-84816192D01*
X160418621Y-84689852D01*
X160418622Y-84689851D01*
X160423040Y-84684944D01*
X160518527Y-84519556D01*
X160577542Y-84337928D01*
X160580003Y-84314519D01*
X160596814Y-84154565D01*
X160597504Y-84148000D01*
X160589429Y-84071170D01*
X160602201Y-84001332D01*
X160650703Y-83949485D01*
X160714739Y-83932000D01*
X171031672Y-83932000D01*
X171051056Y-83933500D01*
G37*
%TD.AperFunction*%
%TA.AperFunction,Conductor*%
G36*
X128541666Y-96324402D02*
G01*
X128562640Y-96341305D01*
X129817153Y-97595818D01*
X129828020Y-97608209D01*
X129846677Y-97632523D01*
X129969611Y-97726854D01*
X130070840Y-97768784D01*
X130112770Y-97786152D01*
X130266400Y-97806378D01*
X130274588Y-97805300D01*
X130296783Y-97802378D01*
X130313229Y-97801300D01*
X135701070Y-97801300D01*
X135717503Y-97802376D01*
X135721063Y-97802845D01*
X135785989Y-97831565D01*
X135825082Y-97890829D01*
X135829857Y-97913941D01*
X135837846Y-97986305D01*
X135841292Y-98000994D01*
X135890799Y-98136283D01*
X135897649Y-98149726D01*
X135914470Y-98174759D01*
X135924454Y-98183058D01*
X135938545Y-98175823D01*
X136832124Y-97282244D01*
X136834460Y-97284580D01*
X136844535Y-97274757D01*
X136842073Y-97272295D01*
X137037963Y-97076405D01*
X137100275Y-97042379D01*
X137127058Y-97039500D01*
X137194942Y-97039500D01*
X137263063Y-97059502D01*
X137309556Y-97113158D01*
X137319660Y-97183432D01*
X137290166Y-97248012D01*
X137284037Y-97254595D01*
X137053701Y-97484931D01*
X137051424Y-97482654D01*
X137041252Y-97492622D01*
X137043631Y-97495001D01*
X136708944Y-97829688D01*
X136701330Y-97843632D01*
X136701461Y-97845465D01*
X136705712Y-97852080D01*
X137044194Y-98190562D01*
X137043510Y-98191246D01*
X137053787Y-98199627D01*
X137056697Y-98203065D01*
X137388688Y-98535056D01*
X137402632Y-98542670D01*
X137404465Y-98542539D01*
X137411080Y-98538288D01*
X137749624Y-98199744D01*
X137751960Y-98202080D01*
X137762035Y-98192257D01*
X137759573Y-98189795D01*
X138094056Y-97855312D01*
X138101670Y-97841368D01*
X138101539Y-97839535D01*
X138097288Y-97832920D01*
X137759113Y-97494745D01*
X137759845Y-97494013D01*
X137749010Y-97485128D01*
X137746506Y-97482138D01*
X137518963Y-97254595D01*
X137484937Y-97192283D01*
X137490002Y-97121468D01*
X137532549Y-97064632D01*
X137599069Y-97039821D01*
X137608058Y-97039500D01*
X137675942Y-97039500D01*
X137744063Y-97059502D01*
X137765037Y-97076405D01*
X137961694Y-97273062D01*
X137961010Y-97273746D01*
X137971287Y-97282127D01*
X137974197Y-97285565D01*
X138306188Y-97617556D01*
X138320132Y-97625170D01*
X138321965Y-97625039D01*
X138328580Y-97620788D01*
X138667124Y-97282244D01*
X138669460Y-97284580D01*
X138679535Y-97274757D01*
X138677073Y-97272295D01*
X138872963Y-97076405D01*
X138935275Y-97042379D01*
X138962058Y-97039500D01*
X139029942Y-97039500D01*
X139098063Y-97059502D01*
X139144556Y-97113158D01*
X139154660Y-97183432D01*
X139125166Y-97248012D01*
X139119037Y-97254595D01*
X138888701Y-97484931D01*
X138886424Y-97482654D01*
X138876252Y-97492622D01*
X138878631Y-97495001D01*
X138543944Y-97829688D01*
X138536330Y-97843632D01*
X138536461Y-97845465D01*
X138540712Y-97852080D01*
X138879194Y-98190562D01*
X138878510Y-98191246D01*
X138888787Y-98199627D01*
X138891697Y-98203065D01*
X139223688Y-98535056D01*
X139237632Y-98542670D01*
X139239465Y-98542539D01*
X139246080Y-98538288D01*
X139584624Y-98199744D01*
X139586960Y-98202080D01*
X139597035Y-98192257D01*
X139594573Y-98189795D01*
X139865357Y-97919011D01*
X139927669Y-97884985D01*
X139998484Y-97890050D01*
X140043545Y-97919010D01*
X140077490Y-97952954D01*
X140111515Y-98015265D01*
X140106450Y-98086080D01*
X140077489Y-98131143D01*
X139806201Y-98402431D01*
X139803924Y-98400154D01*
X139793752Y-98410122D01*
X139796131Y-98412501D01*
X139461444Y-98747188D01*
X139453830Y-98761132D01*
X139453961Y-98762965D01*
X139458212Y-98769580D01*
X139796694Y-99108062D01*
X139796010Y-99108746D01*
X139806287Y-99117127D01*
X139809197Y-99120565D01*
X140141188Y-99452556D01*
X140155132Y-99460170D01*
X140156965Y-99460039D01*
X140163580Y-99455788D01*
X140489312Y-99130056D01*
X140496072Y-99117676D01*
X140491562Y-99111652D01*
X140398249Y-99062245D01*
X140384172Y-99056842D01*
X140244446Y-99021745D01*
X140229474Y-99019854D01*
X140085410Y-99019100D01*
X140070434Y-99020832D01*
X140037021Y-99028854D01*
X139966113Y-99025307D01*
X139908379Y-98983987D01*
X139882149Y-98918013D01*
X139882864Y-98888582D01*
X139898607Y-98777963D01*
X139899231Y-98769758D01*
X139899290Y-98764121D01*
X139898838Y-98755906D01*
X139883611Y-98630082D01*
X139895284Y-98560052D01*
X139942965Y-98507450D01*
X140011516Y-98488977D01*
X140040669Y-98493069D01*
X140056688Y-98497271D01*
X140071644Y-98499319D01*
X140215687Y-98501583D01*
X140230691Y-98500006D01*
X140371125Y-98467842D01*
X140385310Y-98462735D01*
X140438354Y-98436057D01*
X140508198Y-98423318D01*
X140573842Y-98450363D01*
X140584063Y-98459527D01*
X141563061Y-99438525D01*
X141590373Y-99479398D01*
X141614026Y-99536500D01*
X141645046Y-99611389D01*
X141739377Y-99734323D01*
X141745927Y-99739349D01*
X141763691Y-99752980D01*
X141776082Y-99763847D01*
X142267740Y-100255505D01*
X142301766Y-100317817D01*
X142296701Y-100388632D01*
X142254154Y-100445468D01*
X142187634Y-100470279D01*
X142178645Y-100470600D01*
X140566550Y-100470600D01*
X140498429Y-100450598D01*
X140451936Y-100396942D01*
X140441832Y-100326668D01*
X140471326Y-100262088D01*
X140480516Y-100252545D01*
X140497060Y-100237083D01*
X140494848Y-100230480D01*
X140166812Y-99902444D01*
X140152868Y-99894830D01*
X140151035Y-99894961D01*
X140144420Y-99899212D01*
X139806201Y-100237431D01*
X139803924Y-100235154D01*
X139793752Y-100245122D01*
X139796131Y-100247501D01*
X139609937Y-100433695D01*
X139547625Y-100467721D01*
X139520842Y-100470600D01*
X139452958Y-100470600D01*
X139384837Y-100450598D01*
X139338344Y-100396942D01*
X139328240Y-100326668D01*
X139357734Y-100262088D01*
X139363863Y-100255505D01*
X139584624Y-100034744D01*
X139586960Y-100037080D01*
X139597035Y-100027257D01*
X139594573Y-100024795D01*
X139929056Y-99690312D01*
X139935434Y-99678632D01*
X140371330Y-99678632D01*
X140371461Y-99680465D01*
X140375712Y-99687080D01*
X140701382Y-100012750D01*
X140713392Y-100019308D01*
X140725133Y-100010338D01*
X140730413Y-100002990D01*
X140737678Y-99989775D01*
X140791413Y-99856107D01*
X140795319Y-99841528D01*
X140816107Y-99695462D01*
X140816731Y-99687258D01*
X140816790Y-99681621D01*
X140816338Y-99673406D01*
X140798612Y-99526932D01*
X140795016Y-99512289D01*
X140744089Y-99377514D01*
X140737106Y-99364157D01*
X140723892Y-99344931D01*
X140713638Y-99336588D01*
X140699899Y-99343733D01*
X140378944Y-99664688D01*
X140371330Y-99678632D01*
X139935434Y-99678632D01*
X139936670Y-99676368D01*
X139936539Y-99674535D01*
X139932288Y-99667920D01*
X139594113Y-99329745D01*
X139594845Y-99329013D01*
X139584010Y-99320128D01*
X139581506Y-99317138D01*
X139249312Y-98984944D01*
X139235368Y-98977330D01*
X139233535Y-98977461D01*
X139226920Y-98981712D01*
X138888701Y-99319931D01*
X138886424Y-99317654D01*
X138876252Y-99327622D01*
X138878631Y-99330001D01*
X138543944Y-99664688D01*
X138536330Y-99678632D01*
X138536461Y-99680465D01*
X138540712Y-99687080D01*
X138879194Y-100025562D01*
X138878510Y-100026246D01*
X138888787Y-100034627D01*
X138891697Y-100038065D01*
X139109137Y-100255505D01*
X139143163Y-100317817D01*
X139138098Y-100388632D01*
X139095551Y-100445468D01*
X139029031Y-100470279D01*
X139020042Y-100470600D01*
X138952158Y-100470600D01*
X138884037Y-100450598D01*
X138863063Y-100433695D01*
X138676613Y-100247245D01*
X138677345Y-100246513D01*
X138666510Y-100237628D01*
X138664006Y-100234638D01*
X138331812Y-99902444D01*
X138317868Y-99894830D01*
X138316035Y-99894961D01*
X138309420Y-99899212D01*
X137971201Y-100237431D01*
X137968924Y-100235154D01*
X137958752Y-100245122D01*
X137961131Y-100247501D01*
X137774937Y-100433695D01*
X137712625Y-100467721D01*
X137685842Y-100470600D01*
X137617958Y-100470600D01*
X137549837Y-100450598D01*
X137503344Y-100396942D01*
X137493240Y-100326668D01*
X137522734Y-100262088D01*
X137528863Y-100255505D01*
X137749624Y-100034744D01*
X137751960Y-100037080D01*
X137762035Y-100027257D01*
X137759573Y-100024795D01*
X138094056Y-99690312D01*
X138101670Y-99676368D01*
X138101539Y-99674535D01*
X138097288Y-99667920D01*
X137759113Y-99329745D01*
X137759845Y-99329013D01*
X137749010Y-99320128D01*
X137746506Y-99317138D01*
X137414312Y-98984944D01*
X137400368Y-98977330D01*
X137398535Y-98977461D01*
X137391920Y-98981712D01*
X137053701Y-99319931D01*
X137051424Y-99317654D01*
X137041252Y-99327622D01*
X137043631Y-99330001D01*
X136708944Y-99664688D01*
X136701330Y-99678632D01*
X136701461Y-99680465D01*
X136705712Y-99687080D01*
X137044194Y-100025562D01*
X137043510Y-100026246D01*
X137053787Y-100034627D01*
X137056697Y-100038065D01*
X137274137Y-100255505D01*
X137308163Y-100317817D01*
X137303098Y-100388632D01*
X137260551Y-100445468D01*
X137194031Y-100470279D01*
X137185042Y-100470600D01*
X137117158Y-100470600D01*
X137049037Y-100450598D01*
X137028063Y-100433695D01*
X136841613Y-100247245D01*
X136842345Y-100246513D01*
X136831510Y-100237628D01*
X136829006Y-100234638D01*
X135936925Y-99342557D01*
X135925116Y-99336108D01*
X135913142Y-99345356D01*
X135904212Y-99358062D01*
X135897083Y-99371356D01*
X135844751Y-99505580D01*
X135840999Y-99520194D01*
X135822194Y-99663028D01*
X135822037Y-99678109D01*
X135837141Y-99814921D01*
X135824735Y-99884826D01*
X135776505Y-99936926D01*
X135707765Y-99954680D01*
X135640337Y-99932452D01*
X135622807Y-99917843D01*
X135337283Y-99632318D01*
X134823257Y-99118292D01*
X136141393Y-99118292D01*
X136143764Y-99125132D01*
X136471188Y-99452556D01*
X136485132Y-99460170D01*
X136486965Y-99460039D01*
X136493580Y-99455788D01*
X136832124Y-99117244D01*
X136834460Y-99119580D01*
X136844535Y-99109757D01*
X136842073Y-99107295D01*
X137176556Y-98772812D01*
X137182934Y-98761132D01*
X137618830Y-98761132D01*
X137618961Y-98762965D01*
X137623212Y-98769580D01*
X137961694Y-99108062D01*
X137961010Y-99108746D01*
X137971287Y-99117127D01*
X137974197Y-99120565D01*
X138306188Y-99452556D01*
X138320132Y-99460170D01*
X138321965Y-99460039D01*
X138328580Y-99455788D01*
X138667124Y-99117244D01*
X138669460Y-99119580D01*
X138679535Y-99109757D01*
X138677073Y-99107295D01*
X139011556Y-98772812D01*
X139019170Y-98758868D01*
X139019039Y-98757035D01*
X139014788Y-98750420D01*
X138676613Y-98412245D01*
X138677345Y-98411513D01*
X138666510Y-98402628D01*
X138664006Y-98399638D01*
X138331812Y-98067444D01*
X138317868Y-98059830D01*
X138316035Y-98059961D01*
X138309420Y-98064212D01*
X137971201Y-98402431D01*
X137968924Y-98400154D01*
X137958752Y-98410122D01*
X137961131Y-98412501D01*
X137626444Y-98747188D01*
X137618830Y-98761132D01*
X137182934Y-98761132D01*
X137184170Y-98758868D01*
X137184039Y-98757035D01*
X137179788Y-98750420D01*
X136841613Y-98412245D01*
X136842345Y-98411513D01*
X136831510Y-98402628D01*
X136829006Y-98399638D01*
X136496812Y-98067444D01*
X136482868Y-98059830D01*
X136481035Y-98059961D01*
X136474420Y-98064212D01*
X136149013Y-98389619D01*
X136142253Y-98401999D01*
X136146942Y-98408263D01*
X136233318Y-98455162D01*
X136247344Y-98460715D01*
X136386693Y-98497272D01*
X136401644Y-98499319D01*
X136545687Y-98501583D01*
X136560691Y-98500006D01*
X136601874Y-98490574D01*
X136672741Y-98494864D01*
X136730039Y-98536786D01*
X136755576Y-98603031D01*
X136754925Y-98629840D01*
X136739694Y-98745528D01*
X136739537Y-98760609D01*
X136754004Y-98891648D01*
X136741598Y-98961552D01*
X136693369Y-99013652D01*
X136624628Y-99031407D01*
X136598071Y-99027679D01*
X136574449Y-99021746D01*
X136559474Y-99019854D01*
X136415410Y-99019100D01*
X136400434Y-99020832D01*
X136260335Y-99054467D01*
X136246211Y-99059720D01*
X136151595Y-99108555D01*
X136141393Y-99118292D01*
X134823257Y-99118292D01*
X134511447Y-98806482D01*
X134500580Y-98794091D01*
X134486952Y-98776330D01*
X134486949Y-98776327D01*
X134481923Y-98769777D01*
X134450976Y-98746030D01*
X134438049Y-98736111D01*
X134358989Y-98675446D01*
X134283170Y-98644041D01*
X134215830Y-98616147D01*
X134207643Y-98615069D01*
X134207642Y-98615069D01*
X134070389Y-98597000D01*
X134062200Y-98595922D01*
X134031816Y-98599922D01*
X134015370Y-98601000D01*
X127792955Y-98601000D01*
X127724834Y-98580998D01*
X127703860Y-98564095D01*
X126283174Y-97143409D01*
X126249148Y-97081097D01*
X126246960Y-97041139D01*
X126247714Y-97033967D01*
X126247714Y-97033965D01*
X126248404Y-97027400D01*
X126240261Y-96949923D01*
X126229132Y-96844035D01*
X126229132Y-96844033D01*
X126228442Y-96837472D01*
X126169427Y-96655844D01*
X126163496Y-96645571D01*
X126075640Y-96493400D01*
X126058902Y-96424405D01*
X126082122Y-96357313D01*
X126137930Y-96313426D01*
X126184759Y-96304400D01*
X128473545Y-96304400D01*
X128541666Y-96324402D01*
G37*
%TD.AperFunction*%
%TA.AperFunction,Conductor*%
G36*
X121505310Y-88525160D02*
G01*
X121519095Y-88534363D01*
X121524586Y-88538576D01*
X121536982Y-88549447D01*
X123020971Y-90033435D01*
X124438541Y-91451005D01*
X124472567Y-91513317D01*
X124467502Y-91584132D01*
X124424955Y-91640968D01*
X124358435Y-91665779D01*
X124349446Y-91666100D01*
X123660654Y-91666100D01*
X123592533Y-91646098D01*
X123571559Y-91629195D01*
X120864847Y-88922482D01*
X120830821Y-88860170D01*
X120835886Y-88789354D01*
X120878433Y-88732519D01*
X120927747Y-88710140D01*
X120928289Y-88710025D01*
X120933416Y-88709368D01*
X121072782Y-88667556D01*
X121142429Y-88646661D01*
X121142434Y-88646659D01*
X121147384Y-88645174D01*
X121347994Y-88546896D01*
X121352199Y-88543896D01*
X121352205Y-88543893D01*
X121369228Y-88531750D01*
X121436301Y-88508476D01*
X121505310Y-88525160D01*
G37*
%TD.AperFunction*%
%TD*%
M02*
