%TF.GenerationSoftware,KiCad,Pcbnew,(6.0.0-0)*%
%TF.CreationDate,2022-01-27T17:40:45+01:00*%
%TF.ProjectId,GlowCoreMini,476c6f77-436f-4726-954d-696e692e6b69,rev?*%
%TF.SameCoordinates,Original*%
%TF.FileFunction,Copper,L1,Top*%
%TF.FilePolarity,Positive*%
%FSLAX46Y46*%
G04 Gerber Fmt 4.6, Leading zero omitted, Abs format (unit mm)*
G04 Created by KiCad (PCBNEW (6.0.0-0)) date 2022-01-27 17:40:45*
%MOMM*%
%LPD*%
G01*
G04 APERTURE LIST*
G04 Aperture macros list*
%AMRoundRect*
0 Rectangle with rounded corners*
0 $1 Rounding radius*
0 $2 $3 $4 $5 $6 $7 $8 $9 X,Y pos of 4 corners*
0 Add a 4 corners polygon primitive as box body*
4,1,4,$2,$3,$4,$5,$6,$7,$8,$9,$2,$3,0*
0 Add four circle primitives for the rounded corners*
1,1,$1+$1,$2,$3*
1,1,$1+$1,$4,$5*
1,1,$1+$1,$6,$7*
1,1,$1+$1,$8,$9*
0 Add four rect primitives between the rounded corners*
20,1,$1+$1,$2,$3,$4,$5,0*
20,1,$1+$1,$4,$5,$6,$7,0*
20,1,$1+$1,$6,$7,$8,$9,0*
20,1,$1+$1,$8,$9,$2,$3,0*%
G04 Aperture macros list end*
%TA.AperFunction,EtchedComponent*%
%ADD10C,0.300000*%
%TD*%
%TA.AperFunction,SMDPad,CuDef*%
%ADD11R,1.500000X0.900000*%
%TD*%
%TA.AperFunction,SMDPad,CuDef*%
%ADD12RoundRect,0.237500X0.250000X0.237500X-0.250000X0.237500X-0.250000X-0.237500X0.250000X-0.237500X0*%
%TD*%
%TA.AperFunction,SMDPad,CuDef*%
%ADD13RoundRect,0.237500X-0.237500X0.300000X-0.237500X-0.300000X0.237500X-0.300000X0.237500X0.300000X0*%
%TD*%
%TA.AperFunction,SMDPad,CuDef*%
%ADD14RoundRect,0.237500X-0.300000X-0.237500X0.300000X-0.237500X0.300000X0.237500X-0.300000X0.237500X0*%
%TD*%
%TA.AperFunction,SMDPad,CuDef*%
%ADD15RoundRect,0.062500X0.350000X0.062500X-0.350000X0.062500X-0.350000X-0.062500X0.350000X-0.062500X0*%
%TD*%
%TA.AperFunction,SMDPad,CuDef*%
%ADD16RoundRect,0.062500X0.062500X0.350000X-0.062500X0.350000X-0.062500X-0.350000X0.062500X-0.350000X0*%
%TD*%
%TA.AperFunction,SMDPad,CuDef*%
%ADD17R,2.600000X2.600000*%
%TD*%
%TA.AperFunction,SMDPad,CuDef*%
%ADD18RoundRect,0.237500X-0.237500X0.250000X-0.237500X-0.250000X0.237500X-0.250000X0.237500X0.250000X0*%
%TD*%
%TA.AperFunction,SMDPad,CuDef*%
%ADD19R,1.676400X0.355600*%
%TD*%
%TA.AperFunction,SMDPad,CuDef*%
%ADD20RoundRect,0.150000X0.587500X0.150000X-0.587500X0.150000X-0.587500X-0.150000X0.587500X-0.150000X0*%
%TD*%
%TA.AperFunction,SMDPad,CuDef*%
%ADD21R,2.000000X1.500000*%
%TD*%
%TA.AperFunction,SMDPad,CuDef*%
%ADD22R,2.000000X3.800000*%
%TD*%
%TA.AperFunction,ComponentPad*%
%ADD23C,0.700000*%
%TD*%
%TA.AperFunction,SMDPad,CuDef*%
%ADD24R,1.300000X0.600000*%
%TD*%
%TA.AperFunction,SMDPad,CuDef*%
%ADD25R,1.300000X0.300000*%
%TD*%
%TA.AperFunction,ComponentPad*%
%ADD26O,2.200000X1.200000*%
%TD*%
%TA.AperFunction,ComponentPad*%
%ADD27O,1.800000X1.200000*%
%TD*%
%TA.AperFunction,SMDPad,CuDef*%
%ADD28RoundRect,0.237500X0.237500X-0.250000X0.237500X0.250000X-0.237500X0.250000X-0.237500X-0.250000X0*%
%TD*%
%TA.AperFunction,ComponentPad*%
%ADD29C,1.800000*%
%TD*%
%TA.AperFunction,ComponentPad*%
%ADD30O,3.000000X1.600000*%
%TD*%
%TA.AperFunction,ComponentPad*%
%ADD31O,1.600000X3.200000*%
%TD*%
%TA.AperFunction,ComponentPad*%
%ADD32C,2.300000*%
%TD*%
%TA.AperFunction,SMDPad,CuDef*%
%ADD33R,0.400000X0.600000*%
%TD*%
%TA.AperFunction,SMDPad,CuDef*%
%ADD34R,0.100000X0.100000*%
%TD*%
%TA.AperFunction,SMDPad,CuDef*%
%ADD35RoundRect,0.237500X-0.287500X-0.237500X0.287500X-0.237500X0.287500X0.237500X-0.287500X0.237500X0*%
%TD*%
%TA.AperFunction,ComponentPad*%
%ADD36R,1.700000X1.700000*%
%TD*%
%TA.AperFunction,ComponentPad*%
%ADD37O,1.700000X1.700000*%
%TD*%
%TA.AperFunction,SMDPad,CuDef*%
%ADD38RoundRect,0.150000X0.150000X-0.587500X0.150000X0.587500X-0.150000X0.587500X-0.150000X-0.587500X0*%
%TD*%
%TA.AperFunction,SMDPad,CuDef*%
%ADD39RoundRect,0.237500X-0.250000X-0.237500X0.250000X-0.237500X0.250000X0.237500X-0.250000X0.237500X0*%
%TD*%
%TA.AperFunction,SMDPad,CuDef*%
%ADD40RoundRect,0.237500X0.300000X0.237500X-0.300000X0.237500X-0.300000X-0.237500X0.300000X-0.237500X0*%
%TD*%
%TA.AperFunction,SMDPad,CuDef*%
%ADD41RoundRect,0.250000X-1.500000X-0.550000X1.500000X-0.550000X1.500000X0.550000X-1.500000X0.550000X0*%
%TD*%
%TA.AperFunction,ComponentPad*%
%ADD42R,2.600000X2.600000*%
%TD*%
%TA.AperFunction,ComponentPad*%
%ADD43C,2.600000*%
%TD*%
%TA.AperFunction,SMDPad,CuDef*%
%ADD44R,1.800000X2.500000*%
%TD*%
%TA.AperFunction,SMDPad,CuDef*%
%ADD45R,2.000000X0.900000*%
%TD*%
%TA.AperFunction,SMDPad,CuDef*%
%ADD46R,0.900000X2.000000*%
%TD*%
%TA.AperFunction,SMDPad,CuDef*%
%ADD47R,1.330000X1.330000*%
%TD*%
%TA.AperFunction,ComponentPad*%
%ADD48C,0.300000*%
%TD*%
%TA.AperFunction,SMDPad,CuDef*%
%ADD49RoundRect,0.150000X-0.587500X-0.150000X0.587500X-0.150000X0.587500X0.150000X-0.587500X0.150000X0*%
%TD*%
%TA.AperFunction,ViaPad*%
%ADD50C,0.800000*%
%TD*%
%TA.AperFunction,Conductor*%
%ADD51C,0.160000*%
%TD*%
%TA.AperFunction,Conductor*%
%ADD52C,1.400000*%
%TD*%
%TA.AperFunction,Conductor*%
%ADD53C,0.120000*%
%TD*%
%TA.AperFunction,Conductor*%
%ADD54C,0.150000*%
%TD*%
%TA.AperFunction,Conductor*%
%ADD55C,0.500000*%
%TD*%
%TA.AperFunction,Conductor*%
%ADD56C,0.600000*%
%TD*%
G04 APERTURE END LIST*
D10*
%TO.C,MK1*%
X157404000Y-91821000D02*
G75*
G03*
X157404000Y-91821000I-675000J0D01*
G01*
%TD*%
D11*
%TO.P,SW1,1,1*%
%TO.N,GND*%
X154427000Y-107327000D03*
X150627000Y-107327000D03*
%TO.P,SW1,2,2*%
%TO.N,RESET*%
X150627000Y-108827000D03*
X154427000Y-108827000D03*
%TD*%
D12*
%TO.P,R9,1*%
%TO.N,GND*%
X170584500Y-84328000D03*
%TO.P,R9,2*%
%TO.N,USB-C CC2*%
X168759500Y-84328000D03*
%TD*%
D13*
%TO.P,C9,1*%
%TO.N,GND*%
X159385000Y-98959500D03*
%TO.P,C9,2*%
%TO.N,RESET*%
X159385000Y-100684500D03*
%TD*%
D14*
%TO.P,C5,1*%
%TO.N,+3V3*%
X150648500Y-101981000D03*
%TO.P,C5,2*%
%TO.N,GND*%
X152373500Y-101981000D03*
%TD*%
%TO.P,C1,1*%
%TO.N,GND*%
X126264500Y-96012000D03*
%TO.P,C1,2*%
%TO.N,+5V*%
X127989500Y-96012000D03*
%TD*%
D15*
%TO.P,U4,1,~{RI}*%
%TO.N,unconnected-(U4-Pad1)*%
X158782500Y-88017500D03*
%TO.P,U4,2,GND*%
%TO.N,GND*%
X158782500Y-87517500D03*
%TO.P,U4,3,D+*%
%TO.N,USB-C DATA+*%
X158782500Y-87017500D03*
%TO.P,U4,4,D-*%
%TO.N,USB-C DATA-*%
X158782500Y-86517500D03*
%TO.P,U4,5,VIO*%
%TO.N,+3V3*%
X158782500Y-86017500D03*
%TO.P,U4,6,VDD*%
X158782500Y-85517500D03*
D16*
%TO.P,U4,7,REGIN*%
X158095000Y-84830000D03*
%TO.P,U4,8,VBUS*%
%TO.N,USB-C VBUS*%
X157595000Y-84830000D03*
%TO.P,U4,9,~{RST}*%
%TO.N,unconnected-(U4-Pad9)*%
X157095000Y-84830000D03*
%TO.P,U4,10,NC*%
%TO.N,unconnected-(U4-Pad10)*%
X156595000Y-84830000D03*
%TO.P,U4,11,GPIO.3*%
%TO.N,unconnected-(U4-Pad11)*%
X156095000Y-84830000D03*
%TO.P,U4,12,RS485/GPIO.2*%
%TO.N,unconnected-(U4-Pad12)*%
X155595000Y-84830000D03*
D15*
%TO.P,U4,13,RXT/GPIO.1*%
%TO.N,unconnected-(U4-Pad13)*%
X154907500Y-85517500D03*
%TO.P,U4,14,TXT/GPIO.0*%
%TO.N,unconnected-(U4-Pad14)*%
X154907500Y-86017500D03*
%TO.P,U4,15,~{SUSPEND}*%
%TO.N,unconnected-(U4-Pad15)*%
X154907500Y-86517500D03*
%TO.P,U4,16,VPP*%
%TO.N,unconnected-(U4-Pad16)*%
X154907500Y-87017500D03*
%TO.P,U4,17,SUSPEND*%
%TO.N,unconnected-(U4-Pad17)*%
X154907500Y-87517500D03*
%TO.P,U4,18,~{CTS}*%
%TO.N,unconnected-(U4-Pad18)*%
X154907500Y-88017500D03*
D16*
%TO.P,U4,19,~{RTS}*%
%TO.N,RTS*%
X155595000Y-88705000D03*
%TO.P,U4,20,RXD*%
%TO.N,TXD0*%
X156095000Y-88705000D03*
%TO.P,U4,21,TXD*%
%TO.N,RXD0*%
X156595000Y-88705000D03*
%TO.P,U4,22,~{DSR}*%
%TO.N,unconnected-(U4-Pad22)*%
X157095000Y-88705000D03*
%TO.P,U4,23,~{DTR}*%
%TO.N,DTR*%
X157595000Y-88705000D03*
%TO.P,U4,24,~{DCD}*%
%TO.N,unconnected-(U4-Pad24)*%
X158095000Y-88705000D03*
D17*
%TO.P,U4,25,GND*%
%TO.N,GND*%
X156845000Y-86767500D03*
%TD*%
D18*
%TO.P,R1,1*%
%TO.N,Net-(R1-Pad1)*%
X120015000Y-99798500D03*
%TO.P,R1,2*%
%TO.N,Net-(J4-Pad2)*%
X120015000Y-101623500D03*
%TD*%
D13*
%TO.P,C3,1*%
%TO.N,GND*%
X159512000Y-94488000D03*
%TO.P,C3,2*%
%TO.N,+5V*%
X159512000Y-96213000D03*
%TD*%
D19*
%TO.P,U1,1,1A*%
%TO.N,IO16{slash}LED1*%
X122021600Y-97644499D03*
%TO.P,U1,2,1B*%
%TO.N,GND*%
X122021600Y-98294500D03*
%TO.P,U1,3,1Y*%
%TO.N,Net-(R1-Pad1)*%
X122021600Y-98944501D03*
%TO.P,U1,4,2A*%
%TO.N,unconnected-(U1-Pad4)*%
X122021600Y-99594500D03*
%TO.P,U1,5,2B*%
%TO.N,GND*%
X122021600Y-100244499D03*
%TO.P,U1,6,2Y*%
%TO.N,unconnected-(U1-Pad6)*%
X122021600Y-100894500D03*
%TO.P,U1,7,GND*%
%TO.N,GND*%
X122021600Y-101544499D03*
%TO.P,U1,8,3Y*%
%TO.N,unconnected-(U1-Pad8)*%
X127660400Y-101544501D03*
%TO.P,U1,9,3A*%
%TO.N,unconnected-(U1-Pad9)*%
X127660400Y-100894500D03*
%TO.P,U1,10,3B*%
%TO.N,GND*%
X127660400Y-100244501D03*
%TO.P,U1,11,4Y*%
%TO.N,unconnected-(U1-Pad11)*%
X127660400Y-99594500D03*
%TO.P,U1,12,4A*%
%TO.N,unconnected-(U1-Pad12)*%
X127660400Y-98944501D03*
%TO.P,U1,13,4B*%
%TO.N,GND*%
X127660400Y-98294500D03*
%TO.P,U1,14,VCC*%
%TO.N,+5V*%
X127660400Y-97644501D03*
%TD*%
D20*
%TO.P,Q2,1*%
%TO.N,Net-(Q2-Pad1)*%
X159814500Y-108900000D03*
%TO.P,Q2,2*%
%TO.N,DTR*%
X159814500Y-107000000D03*
%TO.P,Q2,3*%
%TO.N,IO0*%
X157939500Y-107950000D03*
%TD*%
D21*
%TO.P,U3,1,GND*%
%TO.N,GND*%
X157328000Y-99836000D03*
%TO.P,U3,2,Vout*%
%TO.N,+3V3*%
X157328000Y-97536000D03*
%TO.P,U3,3,Vin*%
%TO.N,+5V*%
X157328000Y-95236000D03*
D22*
%TO.P,U3,4,Vout*%
%TO.N,+3V3*%
X151028000Y-97536000D03*
%TD*%
D23*
%TO.P,USB1,*%
%TO.N,*%
X167817000Y-87915000D03*
X167817000Y-93695000D03*
D24*
%TO.P,USB1,A1B12,GND*%
%TO.N,GND*%
X166577000Y-94005000D03*
%TO.P,USB1,A4B9,VBUS*%
%TO.N,Net-(D1-Pad2)*%
X166577000Y-93205000D03*
D25*
%TO.P,USB1,A5,CC1*%
%TO.N,USB-C CC1*%
X166577000Y-92055000D03*
%TO.P,USB1,A6,DP1*%
%TO.N,USB-C DATA+*%
X166577000Y-91055000D03*
%TO.P,USB1,A7,DN1*%
%TO.N,USB-C DATA-*%
X166577000Y-90555000D03*
%TO.P,USB1,A8,SBU1*%
%TO.N,unconnected-(USB1-PadA8)*%
X166577000Y-89555000D03*
D24*
%TO.P,USB1,B1A12*%
%TO.N,N/C*%
X166577000Y-87605000D03*
%TO.P,USB1,B4A9,VBUS*%
%TO.N,Net-(D1-Pad2)*%
X166577000Y-88405000D03*
D25*
%TO.P,USB1,B5,CC2*%
%TO.N,USB-C CC2*%
X166577000Y-89055000D03*
%TO.P,USB1,B6,DP2*%
%TO.N,USB-C DATA+*%
X166577000Y-90055000D03*
%TO.P,USB1,B7,DN2*%
%TO.N,USB-C DATA-*%
X166577000Y-91555000D03*
%TO.P,USB1,B8,SBU2*%
%TO.N,unconnected-(USB1-PadB8)*%
X166577000Y-92555000D03*
D26*
%TO.P,USB1,SHELL,SHELL*%
%TO.N,GND*%
X167317000Y-86485000D03*
X167317000Y-95125000D03*
D27*
X171497000Y-86485000D03*
X171497000Y-95125000D03*
%TD*%
D28*
%TO.P,R6,1*%
%TO.N,DTR*%
X157861000Y-105433500D03*
%TO.P,R6,2*%
%TO.N,Net-(Q3-Pad1)*%
X157861000Y-103608500D03*
%TD*%
D29*
%TO.P,J2,*%
%TO.N,*%
X171315000Y-103662000D03*
D30*
%TO.P,J2,1*%
%TO.N,GND*%
X163865000Y-108512000D03*
X163865000Y-98812000D03*
X168565000Y-108512000D03*
X168565000Y-98812000D03*
D31*
%TO.P,J2,2*%
%TO.N,N/C*%
X168065000Y-103662000D03*
D32*
%TO.P,J2,3*%
%TO.N,+5V*%
X160365000Y-103662000D03*
%TD*%
D33*
%TO.P,MK1,1,LR*%
%TO.N,GND*%
X154154000Y-92896000D03*
%TO.P,MK1,2,CONFIG*%
X154804000Y-92896000D03*
%TO.P,MK1,3,VDD*%
%TO.N,+3V3*%
X155454000Y-92896000D03*
D34*
%TO.P,MK1,4,GND*%
%TO.N,GND*%
X157379000Y-91821000D03*
D33*
%TO.P,MK1,5,WS*%
%TO.N,IO15{slash}WS*%
X155454000Y-90746000D03*
%TO.P,MK1,6,SCK*%
%TO.N,IO14{slash}SCK*%
X154804000Y-90746000D03*
%TO.P,MK1,7,SD*%
%TO.N,Net-(MK1-Pad7)*%
X154154000Y-90746000D03*
%TD*%
D28*
%TO.P,R8,1*%
%TO.N,RESET*%
X156210000Y-108862500D03*
%TO.P,R8,2*%
%TO.N,+3V3*%
X156210000Y-107037500D03*
%TD*%
D14*
%TO.P,C6,1*%
%TO.N,+3V3*%
X160300500Y-84328000D03*
%TO.P,C6,2*%
%TO.N,GND*%
X162025500Y-84328000D03*
%TD*%
D35*
%TO.P,D2,1,K*%
%TO.N,GND*%
X109361000Y-90805000D03*
%TO.P,D2,2,A*%
%TO.N,Net-(D2-Pad2)*%
X111111000Y-90805000D03*
%TD*%
D36*
%TO.P,J3,1,Pin_1*%
%TO.N,+5V*%
X122276000Y-87523000D03*
D37*
%TO.P,J3,2,Pin_2*%
%TO.N,GND*%
X122276000Y-84983000D03*
%TO.P,J3,3,Pin_3*%
%TO.N,+3V3*%
X119736000Y-87523000D03*
%TO.P,J3,4,Pin_4*%
%TO.N,IO26{slash}A0{slash}DAC2*%
X119736000Y-84983000D03*
%TO.P,J3,5,Pin_5*%
%TO.N,IO25{slash}A1{slash}DAC1*%
X117196000Y-87523000D03*
%TO.P,J3,6,Pin_6*%
%TO.N,IO13*%
X117196000Y-84983000D03*
%TO.P,J3,7,Pin_7*%
%TO.N,IO19{slash}MISO*%
X114656000Y-87523000D03*
%TO.P,J3,8,Pin_8*%
%TO.N,IO18{slash}MOSI*%
X114656000Y-84983000D03*
%TO.P,J3,9,Pin_9*%
%TO.N,IO4{slash}A5*%
X112116000Y-87523000D03*
%TO.P,J3,10,Pin_10*%
%TO.N,IO36{slash}A4{slash}SENSOR_VP*%
X112116000Y-84983000D03*
%TO.P,J3,11,Pin_11*%
%TO.N,I39{slash}A3{slash}SENSOR_VN*%
X109576000Y-87523000D03*
%TO.P,J3,12,Pin_12*%
%TO.N,I34{slash}A2*%
X109576000Y-84983000D03*
%TD*%
D38*
%TO.P,Q1,1,G*%
%TO.N,+5V*%
X161102000Y-95044500D03*
%TO.P,Q1,2,S*%
X163002000Y-95044500D03*
%TO.P,Q1,3,D*%
%TO.N,USB-C VBUS*%
X162052000Y-93169500D03*
%TD*%
D39*
%TO.P,R4,1*%
%TO.N,IO32{slash}SD*%
X150471500Y-91567000D03*
%TO.P,R4,2*%
%TO.N,Net-(MK1-Pad7)*%
X152296500Y-91567000D03*
%TD*%
D14*
%TO.P,C8,1*%
%TO.N,+3V3*%
X150521500Y-93091000D03*
%TO.P,C8,2*%
%TO.N,GND*%
X152246500Y-93091000D03*
%TD*%
D40*
%TO.P,C4,1*%
%TO.N,GND*%
X152400000Y-103505000D03*
%TO.P,C4,2*%
%TO.N,+3V3*%
X150675000Y-103505000D03*
%TD*%
D39*
%TO.P,R3,1*%
%TO.N,GND*%
X164822500Y-84328000D03*
%TO.P,R3,2*%
%TO.N,USB-C CC1*%
X166647500Y-84328000D03*
%TD*%
D12*
%TO.P,R5,1*%
%TO.N,RTS*%
X152423500Y-105664000D03*
%TO.P,R5,2*%
%TO.N,Net-(Q2-Pad1)*%
X150598500Y-105664000D03*
%TD*%
D41*
%TO.P,C2,1*%
%TO.N,+5V*%
X121533000Y-106299000D03*
%TO.P,C2,2*%
%TO.N,GND*%
X127133000Y-106299000D03*
%TD*%
D42*
%TO.P,J4,1,Pin_1*%
%TO.N,+5V*%
X113538000Y-97028000D03*
D43*
%TO.P,J4,2,Pin_2*%
%TO.N,Net-(J4-Pad2)*%
X113538000Y-102108000D03*
%TO.P,J4,3,Pin_3*%
%TO.N,GND*%
X113538000Y-107188000D03*
%TD*%
D44*
%TO.P,D1,1,K*%
%TO.N,USB-C VBUS*%
X162052000Y-90614000D03*
%TO.P,D1,2,A*%
%TO.N,Net-(D1-Pad2)*%
X162052000Y-86614000D03*
%TD*%
D45*
%TO.P,U2,1,GND*%
%TO.N,GND*%
X130819000Y-91260000D03*
%TO.P,U2,2,3V3*%
%TO.N,+3V3*%
X130819000Y-92530000D03*
%TO.P,U2,3,EN*%
%TO.N,RESET*%
X130819000Y-93800000D03*
%TO.P,U2,4,SENSOR_VP*%
%TO.N,IO36{slash}A4{slash}SENSOR_VP*%
X130819000Y-95070000D03*
%TO.P,U2,5,SENSOR_VN*%
%TO.N,I39{slash}A3{slash}SENSOR_VN*%
X130819000Y-96340000D03*
%TO.P,U2,6,IO34*%
%TO.N,I34{slash}A2*%
X130819000Y-97610000D03*
%TO.P,U2,7,IO35*%
%TO.N,IO35*%
X130819000Y-98880000D03*
%TO.P,U2,8,IO32*%
%TO.N,IO32{slash}SD*%
X130819000Y-100150000D03*
%TO.P,U2,9,IO33*%
%TO.N,IO33*%
X130819000Y-101420000D03*
%TO.P,U2,10,IO25*%
%TO.N,IO25{slash}A1{slash}DAC1*%
X130819000Y-102690000D03*
%TO.P,U2,11,IO26*%
%TO.N,IO26{slash}A0{slash}DAC2*%
X130819000Y-103960000D03*
%TO.P,U2,12,IO27*%
%TO.N,IO27*%
X130819000Y-105230000D03*
%TO.P,U2,13,IO14*%
%TO.N,IO14{slash}SCK*%
X130819000Y-106500000D03*
%TO.P,U2,14,IO12*%
%TO.N,IO12*%
X130819000Y-107770000D03*
D46*
%TO.P,U2,15,GND*%
%TO.N,GND*%
X133604000Y-108770000D03*
%TO.P,U2,16,IO13*%
%TO.N,IO13*%
X134874000Y-108770000D03*
%TO.P,U2,17,NC*%
%TO.N,unconnected-(U2-Pad17)*%
X136144000Y-108770000D03*
%TO.P,U2,18,NC*%
%TO.N,unconnected-(U2-Pad18)*%
X137414000Y-108770000D03*
%TO.P,U2,19,NC*%
%TO.N,unconnected-(U2-Pad19)*%
X138684000Y-108770000D03*
%TO.P,U2,20,NC*%
%TO.N,unconnected-(U2-Pad20)*%
X139954000Y-108770000D03*
%TO.P,U2,21,NC*%
%TO.N,unconnected-(U2-Pad21)*%
X141224000Y-108770000D03*
%TO.P,U2,22,NC*%
%TO.N,unconnected-(U2-Pad22)*%
X142494000Y-108770000D03*
%TO.P,U2,23,IO15*%
%TO.N,IO15{slash}WS*%
X143764000Y-108770000D03*
%TO.P,U2,24,IO2*%
%TO.N,IO2*%
X145034000Y-108770000D03*
D45*
%TO.P,U2,25,IO0*%
%TO.N,IO0*%
X147819000Y-107770000D03*
%TO.P,U2,26,IO4*%
%TO.N,IO4{slash}A5*%
X147819000Y-106500000D03*
%TO.P,U2,27,IO16*%
%TO.N,IO16{slash}LED1*%
X147819000Y-105230000D03*
%TO.P,U2,28,IO17*%
%TO.N,IO17*%
X147819000Y-103960000D03*
%TO.P,U2,29,IO5*%
%TO.N,IO5*%
X147819000Y-102690000D03*
%TO.P,U2,30,IO18*%
%TO.N,IO18{slash}MOSI*%
X147819000Y-101420000D03*
%TO.P,U2,31,IO19*%
%TO.N,IO19{slash}MISO*%
X147819000Y-100150000D03*
%TO.P,U2,32,NC1*%
%TO.N,unconnected-(U2-Pad32)*%
X147819000Y-98880000D03*
%TO.P,U2,33,IO21*%
%TO.N,IO21*%
X147819000Y-97610000D03*
%TO.P,U2,34,RXD0*%
%TO.N,RXD0*%
X147819000Y-96340000D03*
%TO.P,U2,35,TXD0*%
%TO.N,TXD0*%
X147819000Y-95070000D03*
%TO.P,U2,36,IO22*%
%TO.N,IO22*%
X147819000Y-93800000D03*
%TO.P,U2,37,IO23*%
%TO.N,IO23*%
X147819000Y-92530000D03*
%TO.P,U2,38,GND*%
%TO.N,GND*%
X147819000Y-91260000D03*
D47*
%TO.P,U2,39_1,GND*%
X136484000Y-96925000D03*
%TO.P,U2,39_2,GND*%
X138319000Y-96925000D03*
%TO.P,U2,39_3,GND*%
X140154000Y-96925000D03*
%TO.P,U2,39_4,GND*%
X136484000Y-98760000D03*
%TO.P,U2,39_5,GND*%
X138319000Y-98760000D03*
%TO.P,U2,39_6,GND*%
X140154000Y-98760000D03*
%TO.P,U2,39_7,GND*%
X136484000Y-100595000D03*
%TO.P,U2,39_8,GND*%
X138319000Y-100595000D03*
%TO.P,U2,39_9,GND*%
X140154000Y-100595000D03*
D48*
%TO.P,U2,39_10,GND*%
X137401500Y-96925000D03*
%TO.P,U2,39_11,GND*%
X139236500Y-96925000D03*
%TO.P,U2,39_12,GND*%
X136484000Y-97842500D03*
%TO.P,U2,39_13,GND*%
X138319000Y-97842500D03*
%TO.P,U2,39_14,GND*%
X140154000Y-97842500D03*
%TO.P,U2,39_15,GND*%
X137401500Y-98760000D03*
%TO.P,U2,39_16,GND*%
X139236500Y-98760000D03*
%TO.P,U2,39_17,GND*%
X136484000Y-99677500D03*
%TO.P,U2,39_18,GND*%
X138319000Y-99677500D03*
%TO.P,U2,39_19,GND*%
X140154000Y-99677500D03*
%TO.P,U2,39_20,GND*%
X137401500Y-100595000D03*
%TO.P,U2,39_21,GND*%
X139236500Y-100595000D03*
%TD*%
D13*
%TO.P,C7,1*%
%TO.N,GND*%
X159385000Y-91186000D03*
%TO.P,C7,2*%
%TO.N,+3V3*%
X159385000Y-92911000D03*
%TD*%
D39*
%TO.P,R7,1*%
%TO.N,Net-(R7-Pad1)*%
X109323500Y-92456000D03*
%TO.P,R7,2*%
%TO.N,Net-(D2-Pad2)*%
X111148500Y-92456000D03*
%TD*%
D12*
%TO.P,R2,1*%
%TO.N,+5V*%
X155852500Y-101981000D03*
%TO.P,R2,2*%
%TO.N,GND*%
X154027500Y-101981000D03*
%TD*%
D49*
%TO.P,Q3,1*%
%TO.N,Net-(Q3-Pad1)*%
X154256500Y-103571000D03*
%TO.P,Q3,2*%
%TO.N,RESET*%
X154256500Y-105471000D03*
%TO.P,Q3,3*%
%TO.N,RTS*%
X156131500Y-104521000D03*
%TD*%
D50*
%TO.N,GND*%
X110707200Y-89458800D03*
X151999000Y-107327000D03*
X160465100Y-93683900D03*
X160005500Y-89173800D03*
X134624400Y-91885100D03*
%TO.N,+3V3*%
X138275900Y-90823400D03*
X149445500Y-100117900D03*
%TO.N,RESET*%
X160463800Y-100356300D03*
X137613700Y-91581500D03*
%TO.N,USB-C VBUS*%
X162520800Y-88759100D03*
X159129000Y-84094100D03*
%TO.N,USB-C DATA+*%
X160186900Y-87017500D03*
X167867600Y-90475000D03*
%TO.N,USB-C DATA-*%
X160087200Y-85764700D03*
X168391800Y-91492200D03*
%TO.N,IO15{slash}WS*%
X155324800Y-89834800D03*
X144335400Y-96343700D03*
%TO.N,IO14{slash}SCK*%
X142879800Y-95853500D03*
X151137600Y-90559500D03*
%TO.N,DTR*%
X158996700Y-89442900D03*
X165205600Y-96205700D03*
%TO.N,RTS*%
X143089800Y-93949600D03*
X153895000Y-100904300D03*
X154807800Y-88746800D03*
X145742800Y-93949600D03*
%TO.N,IO13*%
X117430200Y-105300300D03*
%TO.N,IO25{slash}A1{slash}DAC1*%
X126551500Y-91572200D03*
X132558900Y-100658700D03*
%TO.N,IO26{slash}A0{slash}DAC2*%
X119435200Y-89840900D03*
X133250000Y-99905500D03*
X127236900Y-92304700D03*
%TO.N,IO4{slash}A5*%
X142982800Y-99329500D03*
X127787300Y-93830700D03*
%TO.N,IO16{slash}LED1*%
X123471600Y-97644500D03*
X143888900Y-101039200D03*
%TO.N,RXD0*%
X157207200Y-89731100D03*
X146207200Y-96432900D03*
%TO.N,IO19{slash}MISO*%
X124898100Y-92877500D03*
X145016900Y-100093100D03*
%TO.N,IO18{slash}MOSI*%
X143690200Y-100036900D03*
%TO.N,USB-C CC2*%
X169823100Y-87816500D03*
X168076500Y-89055000D03*
%TO.N,Net-(Q2-Pad1)*%
X144843200Y-98436100D03*
X150117500Y-100887500D03*
%TO.N,Net-(R7-Pad1)*%
X109953600Y-93534100D03*
%TD*%
D51*
%TO.N,GND*%
X127133000Y-106299000D02*
X126026400Y-107405600D01*
X138319000Y-100595000D02*
X137401500Y-100595000D01*
X170584500Y-84328000D02*
X170316700Y-84595800D01*
X157008000Y-92357200D02*
X156035300Y-92357200D01*
X165936700Y-85442200D02*
X164822500Y-84328000D01*
X144782400Y-91260000D02*
X147819000Y-91260000D01*
X170316700Y-84595800D02*
X170316700Y-86485000D01*
X139236500Y-98760000D02*
X138319000Y-98760000D01*
X154154000Y-92896000D02*
X154154000Y-93476300D01*
X140154000Y-100595000D02*
X139236500Y-100595000D01*
X128342900Y-90388700D02*
X125226100Y-90388700D01*
X157544200Y-91821000D02*
X157008000Y-92357200D01*
X158782500Y-87517500D02*
X159229900Y-87517500D01*
X158750000Y-91821000D02*
X159385000Y-91186000D01*
X157709300Y-91821000D02*
X158750000Y-91821000D01*
X122021600Y-101544500D02*
X120903100Y-101544500D01*
X167317000Y-86485000D02*
X165936700Y-86485000D01*
X157328000Y-99836000D02*
X156047700Y-99836000D01*
X128219700Y-98294500D02*
X128644600Y-98294500D01*
X130819000Y-91260000D02*
X133999300Y-91260000D01*
X138319000Y-96925000D02*
X138319000Y-97842500D01*
X123043900Y-98294500D02*
X123140100Y-98390700D01*
X152400000Y-103505000D02*
X152400000Y-102007500D01*
X157379000Y-91821000D02*
X157544200Y-91821000D01*
X159532500Y-98812000D02*
X159385000Y-98959500D01*
X165646700Y-94835000D02*
X165646700Y-94005000D01*
X122021600Y-100244500D02*
X123140100Y-100244500D01*
X154444100Y-92315700D02*
X154804000Y-92315700D01*
X139236500Y-100595000D02*
X138319000Y-100595000D01*
X156035300Y-92357200D02*
X155993800Y-92315700D01*
X122276000Y-84983000D02*
X122276000Y-86113300D01*
X151999000Y-107327000D02*
X154427000Y-107327000D01*
X165936700Y-95125000D02*
X165646700Y-94835000D01*
X137401500Y-98760000D02*
X136484000Y-98760000D01*
X120903100Y-101544500D02*
X120903100Y-100244500D01*
X152400000Y-102007500D02*
X152373500Y-101981000D01*
X126026400Y-107405600D02*
X119770000Y-107405600D01*
X120245300Y-83848400D02*
X121145700Y-84748800D01*
X116112700Y-104613300D02*
X118246500Y-104613300D01*
X122276000Y-84983000D02*
X121145700Y-84983000D01*
X122021600Y-100244500D02*
X120903100Y-100244500D01*
X154027500Y-101981000D02*
X156047700Y-99960800D01*
X163865000Y-98812000D02*
X159532500Y-98812000D01*
X118246500Y-104613300D02*
X120903100Y-101956700D01*
X171497000Y-86485000D02*
X170316700Y-86485000D01*
X123140100Y-98390700D02*
X123140100Y-100244500D01*
X128778900Y-100244500D02*
X128778900Y-104653100D01*
X130178900Y-91260000D02*
X130819000Y-91260000D01*
X159677100Y-90893900D02*
X159385000Y-91186000D01*
X140154000Y-98760000D02*
X139236500Y-98760000D01*
X155993800Y-92315700D02*
X154804000Y-92315700D01*
X123885800Y-98390700D02*
X126264500Y-96012000D01*
X152373500Y-101981000D02*
X154027500Y-101981000D01*
X165936700Y-86485000D02*
X165936700Y-85442200D01*
X129214200Y-91260000D02*
X128342900Y-90388700D01*
X158608300Y-99836000D02*
X158608300Y-99736200D01*
X129858800Y-91260000D02*
X129214200Y-91260000D01*
X115590300Y-109240300D02*
X133133700Y-109240300D01*
X113538000Y-107188000D02*
X115590300Y-109240300D01*
X140154000Y-96925000D02*
X139236500Y-96925000D01*
X119770000Y-107405600D02*
X118246500Y-105882100D01*
X159677100Y-89173800D02*
X159677100Y-90893900D01*
X128644600Y-98294500D02*
X128778900Y-98294500D01*
X133999300Y-91260000D02*
X134624400Y-91885100D01*
X152246500Y-93091000D02*
X152631800Y-93476300D01*
X140154000Y-96925000D02*
X140154000Y-95888400D01*
X118246500Y-105882100D02*
X118246500Y-104613300D01*
X123685600Y-86806300D02*
X122992600Y-86113300D01*
X152631800Y-93476300D02*
X154154000Y-93476300D01*
X157544200Y-91821000D02*
X157709300Y-91821000D01*
X158608300Y-99736200D02*
X159385000Y-98959500D01*
X138319000Y-98760000D02*
X137401500Y-98760000D01*
X110707200Y-89458900D02*
X110707200Y-89458800D01*
X127660400Y-98294500D02*
X128219700Y-98294500D01*
X157328000Y-99836000D02*
X158608300Y-99836000D01*
X128778900Y-98294500D02*
X128778900Y-100244500D01*
X125226100Y-90388700D02*
X123685600Y-88848200D01*
X162025500Y-84328000D02*
X164822500Y-84328000D01*
X136484000Y-96925000D02*
X137401500Y-96925000D01*
X111649400Y-83848400D02*
X120245300Y-83848400D01*
X156047700Y-99960800D02*
X156047700Y-99836000D01*
X109361000Y-90805000D02*
X110707100Y-89458900D01*
X110707200Y-84790600D02*
X111649400Y-83848400D01*
X159229900Y-87517500D02*
X159677100Y-87964700D01*
X139236500Y-96925000D02*
X138319000Y-96925000D01*
X122992600Y-86113300D02*
X122276000Y-86113300D01*
X123140100Y-98390700D02*
X123885800Y-98390700D01*
X120903100Y-101956700D02*
X120903100Y-101544500D01*
X140154000Y-96925000D02*
X140154000Y-97842500D01*
X160316100Y-93683900D02*
X160465100Y-93683900D01*
X156845000Y-86767500D02*
X157595000Y-87517500D01*
X133133700Y-109240300D02*
X133604000Y-108770000D01*
X166577000Y-94005000D02*
X165646700Y-94005000D01*
X137401500Y-100595000D02*
X136484000Y-100595000D01*
X159677100Y-89173800D02*
X160005500Y-89173800D01*
X140154000Y-95888400D02*
X144782400Y-91260000D01*
X167317000Y-95125000D02*
X165936700Y-95125000D01*
X123005000Y-98294500D02*
X123043900Y-98294500D01*
X110707100Y-89458900D02*
X110707200Y-89458900D01*
X154154000Y-92605800D02*
X154444100Y-92315700D01*
X123685600Y-88848200D02*
X123685600Y-86806300D01*
X154804000Y-92896000D02*
X154804000Y-92315700D01*
X157595000Y-87517500D02*
X158782500Y-87517500D01*
X128778900Y-104653100D02*
X127133000Y-106299000D01*
X122021600Y-98294500D02*
X123005000Y-98294500D01*
X136484000Y-97842500D02*
X136484000Y-98760000D01*
X121145700Y-84748800D02*
X121145700Y-84983000D01*
X150627000Y-107327000D02*
X151999000Y-107327000D01*
X154154000Y-92896000D02*
X154154000Y-92605800D01*
X130178900Y-91260000D02*
X129858800Y-91260000D01*
X113538000Y-107188000D02*
X116112700Y-104613300D01*
X159677100Y-87964700D02*
X159677100Y-89173800D01*
X110707200Y-89458800D02*
X110707200Y-84790600D01*
X127660400Y-100244500D02*
X128778900Y-100244500D01*
X159512000Y-94488000D02*
X160316100Y-93683900D01*
%TO.N,+5V*%
X165695800Y-98388600D02*
X165695800Y-99242900D01*
D52*
X161102000Y-96200000D02*
X161036000Y-96266000D01*
D51*
X127101200Y-97644500D02*
X127989500Y-96756200D01*
X162052000Y-95044500D02*
X162052000Y-95443900D01*
X164154400Y-97546300D02*
X164853500Y-97546300D01*
D52*
X163002000Y-95044500D02*
X162052000Y-95044500D01*
X159565000Y-96266000D02*
X159512000Y-96213000D01*
D51*
X115118300Y-97028000D02*
X116894600Y-95251700D01*
X113538000Y-97028000D02*
X115118300Y-97028000D01*
D52*
X162052000Y-95044500D02*
X161102000Y-95044500D01*
X161036000Y-96266000D02*
X159565000Y-96266000D01*
X161102000Y-95044500D02*
X161102000Y-96200000D01*
D51*
X158684000Y-101981000D02*
X155852500Y-101981000D01*
X158608300Y-95309300D02*
X158608300Y-95236000D01*
X164853500Y-97546300D02*
X165695800Y-98388600D01*
X165695800Y-99242900D02*
X161276700Y-103662000D01*
X127229200Y-95251700D02*
X127989500Y-96012000D01*
X161276700Y-103662000D02*
X160365000Y-103662000D01*
X116894600Y-95251700D02*
X127229200Y-95251700D01*
X121533000Y-106299000D02*
X126541900Y-101290100D01*
X157328000Y-95236000D02*
X158608300Y-95236000D01*
X127101200Y-97644500D02*
X126541900Y-97644500D01*
X159512000Y-96213000D02*
X158608300Y-95309300D01*
X126541900Y-101290100D02*
X126541900Y-97644500D01*
X162052000Y-95443900D02*
X164154400Y-97546300D01*
X127660400Y-97644500D02*
X127101200Y-97644500D01*
X127989500Y-96756200D02*
X127989500Y-96012000D01*
X160365000Y-103662000D02*
X158684000Y-101981000D01*
%TO.N,+3V3*%
X159111000Y-85517500D02*
X158782500Y-85517500D01*
X150347700Y-100117900D02*
X149445500Y-100117900D01*
X160867300Y-84894800D02*
X160300500Y-84328000D01*
X159385000Y-92911000D02*
X160867300Y-91428700D01*
X151028000Y-97536000D02*
X151028000Y-99716300D01*
X151028000Y-93597500D02*
X151028000Y-96990900D01*
X157328000Y-97536000D02*
X156047700Y-97536000D01*
X160300500Y-84328000D02*
X159111000Y-85517500D01*
X155502600Y-96990900D02*
X156047700Y-97536000D01*
X150817000Y-100587200D02*
X150487100Y-100257200D01*
X123380700Y-90754000D02*
X120866300Y-88239600D01*
X119736000Y-87523000D02*
X120866300Y-87523000D01*
X155626600Y-106454100D02*
X156210000Y-107037500D01*
X132134700Y-92565400D02*
X134906200Y-92565400D01*
X158782500Y-85517500D02*
X158782500Y-86017500D01*
X130819000Y-92530000D02*
X128847600Y-92530000D01*
X128847600Y-92530000D02*
X127071600Y-90754000D01*
X132099300Y-92530000D02*
X132134700Y-92565400D01*
X150675000Y-103505000D02*
X150648500Y-103478500D01*
X136648200Y-90823400D02*
X138275900Y-90823400D01*
X155454000Y-96990900D02*
X155502600Y-96990900D01*
X150648500Y-103478500D02*
X150648500Y-101981000D01*
X158095000Y-84830000D02*
X158782500Y-85517500D01*
X150675000Y-103560600D02*
X151554700Y-104440300D01*
X151983000Y-106454100D02*
X155626600Y-106454100D01*
X155454000Y-93476300D02*
X158819700Y-93476300D01*
X151554700Y-104440300D02*
X151554700Y-106025800D01*
X127071600Y-90754000D02*
X123380700Y-90754000D01*
X120866300Y-88239600D02*
X120866300Y-87523000D01*
X150487100Y-100257200D02*
X150347700Y-100117900D01*
X150675000Y-103505000D02*
X150675000Y-103560600D01*
X130819000Y-92530000D02*
X132099300Y-92530000D01*
X151028000Y-97536000D02*
X151028000Y-96990900D01*
X151028000Y-96990900D02*
X155454000Y-96990900D01*
X150817000Y-101812500D02*
X150817000Y-100587200D01*
X155454000Y-92896000D02*
X155454000Y-93476300D01*
X150487100Y-100257200D02*
X151028000Y-99716300D01*
X160867300Y-91428700D02*
X160867300Y-84894800D01*
X151554700Y-106025800D02*
X151983000Y-106454100D01*
X150648500Y-101981000D02*
X150817000Y-101812500D01*
X155454000Y-96990900D02*
X155454000Y-93476300D01*
X134906200Y-92565400D02*
X136648200Y-90823400D01*
X158819700Y-93476300D02*
X159385000Y-92911000D01*
X150521500Y-93091000D02*
X151028000Y-93597500D01*
%TO.N,RESET*%
X157515400Y-104521000D02*
X157859700Y-104521000D01*
X156647500Y-105471000D02*
X156647500Y-105388900D01*
X157823500Y-103571000D02*
X157861000Y-103608500D01*
X160463800Y-100356300D02*
X159713200Y-100356300D01*
X158035100Y-106658100D02*
X158960600Y-107583600D01*
X155238200Y-101936000D02*
X156242900Y-100931300D01*
X154427000Y-108827000D02*
X150627000Y-108827000D01*
X157859700Y-104521000D02*
X158300900Y-104079800D01*
X156647500Y-105471000D02*
X157834600Y-106658100D01*
X130819000Y-93800000D02*
X135395200Y-93800000D01*
X154427000Y-108827000D02*
X155457300Y-108827000D01*
X156210000Y-108862500D02*
X155492800Y-108862500D01*
X155492800Y-108862500D02*
X155457300Y-108827000D01*
X158464500Y-108862500D02*
X156210000Y-108862500D01*
X159138200Y-100931300D02*
X159385000Y-100684500D01*
X158960600Y-108366400D02*
X158464500Y-108862500D01*
X158960600Y-107583600D02*
X158960600Y-108366400D01*
X157834600Y-106658100D02*
X158035100Y-106658100D01*
X155238200Y-102592100D02*
X155238200Y-101936000D01*
X158300900Y-103465300D02*
X157639700Y-102804100D01*
X154256500Y-103571000D02*
X157823500Y-103571000D01*
X158300900Y-104079800D02*
X158300900Y-103465300D01*
X156647500Y-105388900D02*
X157515400Y-104521000D01*
X154256500Y-105471000D02*
X156647500Y-105471000D01*
X156242900Y-100931300D02*
X159138200Y-100931300D01*
X159713200Y-100356300D02*
X159385000Y-100684500D01*
X135395200Y-93800000D02*
X137613700Y-91581500D01*
X155450200Y-102804100D02*
X155238200Y-102592100D01*
X157639700Y-102804100D02*
X155450200Y-102804100D01*
%TO.N,Net-(D2-Pad2)*%
X111111000Y-92418500D02*
X111111000Y-90805000D01*
X111148500Y-92456000D02*
X111111000Y-92418500D01*
%TO.N,USB-C VBUS*%
X157595000Y-84830000D02*
X157595000Y-84379400D01*
X162196200Y-89083700D02*
X162520800Y-88759100D01*
D52*
X162052000Y-90614000D02*
X162052000Y-93169500D01*
D51*
X162052000Y-89083700D02*
X162196200Y-89083700D01*
X162052000Y-90614000D02*
X162052000Y-89083700D01*
X157595000Y-84379400D02*
X157880300Y-84094100D01*
X157880300Y-84094100D02*
X159129000Y-84094100D01*
%TO.N,USB-C DATA+*%
X166577000Y-91055000D02*
X167507300Y-91055000D01*
X167867600Y-90475000D02*
X167507300Y-90114700D01*
X166577000Y-90055000D02*
X167507300Y-90055000D01*
X167507300Y-91055000D02*
X167867600Y-90694700D01*
X167507300Y-90114700D02*
X167507300Y-90055000D01*
X158782500Y-87017500D02*
X160186900Y-87017500D01*
X167867600Y-90694700D02*
X167867600Y-90475000D01*
%TO.N,USB-C DATA-*%
X166202000Y-91555000D02*
X165646700Y-91555000D01*
X159334400Y-86517500D02*
X160087200Y-85764700D01*
X166202000Y-90555000D02*
X165646700Y-90555000D01*
X166577000Y-91555000D02*
X168329000Y-91555000D01*
X165646700Y-90555000D02*
X165646700Y-91555000D01*
X166202000Y-91555000D02*
X166577000Y-91555000D01*
X166202000Y-90555000D02*
X166577000Y-90555000D01*
X168329000Y-91555000D02*
X168391800Y-91492200D01*
X158782500Y-86517500D02*
X159334400Y-86517500D01*
%TO.N,IO15{slash}WS*%
X141942200Y-98736900D02*
X144335400Y-96343700D01*
X155454000Y-89964000D02*
X155324800Y-89834800D01*
X155454000Y-90746000D02*
X155454000Y-89964000D01*
X141942200Y-105667900D02*
X141942200Y-98736900D01*
X143764000Y-108770000D02*
X143764000Y-107489700D01*
X143764000Y-107489700D02*
X141942200Y-105667900D01*
%TO.N,IO14{slash}SCK*%
X154804000Y-90746000D02*
X154804000Y-90446600D01*
X153635200Y-90165600D02*
X153241300Y-90559500D01*
X153241300Y-90559500D02*
X151137600Y-90559500D01*
X141213100Y-101294100D02*
X141213100Y-97520200D01*
X136007200Y-106500000D02*
X141213100Y-101294100D01*
X154523000Y-90165600D02*
X153635200Y-90165600D01*
X130819000Y-106500000D02*
X136007200Y-106500000D01*
X141213100Y-97520200D02*
X142879800Y-95853500D01*
X154804000Y-90446600D02*
X154523000Y-90165600D01*
%TO.N,DTR*%
X157861000Y-105433500D02*
X159814500Y-105433500D01*
X157595000Y-89156800D02*
X157595000Y-88705000D01*
X166056200Y-97056300D02*
X165205600Y-96205700D01*
X157881100Y-89442900D02*
X157595000Y-89156800D01*
X158996700Y-89442900D02*
X157881100Y-89442900D01*
X159814500Y-105433500D02*
X160679400Y-105433500D01*
X159814500Y-105433500D02*
X159814500Y-107000000D01*
X160679400Y-105433500D02*
X166056200Y-100056700D01*
X166056200Y-100056700D02*
X166056200Y-97056300D01*
%TO.N,IO0*%
X157795800Y-108093700D02*
X157939500Y-107950000D01*
X149423000Y-108093700D02*
X157795800Y-108093700D01*
X149099300Y-107770000D02*
X149423000Y-108093700D01*
X147819000Y-107770000D02*
X149099300Y-107770000D01*
%TO.N,RTS*%
X151554700Y-101511800D02*
X152162200Y-100904300D01*
X152423500Y-104732100D02*
X152356000Y-104732100D01*
X152634600Y-104521000D02*
X152423500Y-104732100D01*
X156131500Y-104521000D02*
X152634600Y-104521000D01*
X154849600Y-88705000D02*
X154807800Y-88746800D01*
X151554700Y-103930800D02*
X151554700Y-101511800D01*
X152162200Y-100904300D02*
X153895000Y-100904300D01*
X152356000Y-104732100D02*
X151554700Y-103930800D01*
X155595000Y-88705000D02*
X154849600Y-88705000D01*
X143089800Y-93949600D02*
X145742800Y-93949600D01*
X152423500Y-104732100D02*
X152423500Y-105664000D01*
%TO.N,IO32{slash}SD*%
X132099300Y-100150000D02*
X132099300Y-99536700D01*
X132099300Y-99536700D02*
X141133000Y-90503000D01*
X149407500Y-90503000D02*
X150471500Y-91567000D01*
X141133000Y-90503000D02*
X149407500Y-90503000D01*
X130819000Y-100150000D02*
X132099300Y-100150000D01*
%TO.N,IO13*%
X132791000Y-107715500D02*
X133016800Y-107489700D01*
X132136000Y-108880000D02*
X132791000Y-108225000D01*
X117430200Y-105615400D02*
X120694800Y-108880000D01*
X132791000Y-108225000D02*
X132791000Y-107715500D01*
X134874000Y-108770000D02*
X134874000Y-107489700D01*
X120694800Y-108880000D02*
X132136000Y-108880000D01*
X117430200Y-105300300D02*
X117430200Y-105615400D01*
X133016800Y-107489700D02*
X134874000Y-107489700D01*
%TO.N,IO36{slash}A4{slash}SENSOR_VP*%
X115786400Y-87741500D02*
X119952000Y-91907100D01*
X114282100Y-86253000D02*
X115064500Y-86253000D01*
X125991000Y-93008300D02*
X128007100Y-93008300D01*
X119952000Y-91907100D02*
X124889800Y-91907100D01*
X124889800Y-91907100D02*
X125991000Y-93008300D01*
X113246300Y-85217200D02*
X114282100Y-86253000D01*
X128007100Y-93008300D02*
X129538700Y-94539900D01*
X112116000Y-84983000D02*
X113246300Y-84983000D01*
X115064500Y-86253000D02*
X115786400Y-86974900D01*
X129538700Y-94539900D02*
X129538700Y-95070000D01*
X130819000Y-95070000D02*
X129538700Y-95070000D01*
X113246300Y-84983000D02*
X113246300Y-85217200D01*
X115786400Y-86974900D02*
X115786400Y-87741500D01*
%TO.N,I39{slash}A3{slash}SENSOR_VN*%
X109576000Y-88653300D02*
X108549100Y-89680200D01*
X109813900Y-91699700D02*
X110236000Y-92121800D01*
X130144800Y-96340000D02*
X130819000Y-96340000D01*
X111941700Y-94531100D02*
X128335900Y-94531100D01*
X128335900Y-94531100D02*
X130144800Y-96340000D01*
X108549100Y-89680200D02*
X108549100Y-91290400D01*
X110236000Y-92121800D02*
X110236000Y-92825400D01*
X109576000Y-87523000D02*
X109576000Y-88653300D01*
X110236000Y-92825400D02*
X111941700Y-94531100D01*
X108549100Y-91290400D02*
X108958400Y-91699700D01*
X108958400Y-91699700D02*
X109813900Y-91699700D01*
%TO.N,I34{slash}A2*%
X128186600Y-94891400D02*
X129538700Y-96243500D01*
X109576000Y-86113300D02*
X109293400Y-86113300D01*
X109576000Y-84983000D02*
X109576000Y-86113300D01*
X110347500Y-94891400D02*
X128186600Y-94891400D01*
X130819000Y-97610000D02*
X129538700Y-97610000D01*
X108127100Y-87279600D02*
X108127100Y-92671000D01*
X109293400Y-86113300D02*
X108127100Y-87279600D01*
X108127100Y-92671000D02*
X110347500Y-94891400D01*
X129538700Y-96243500D02*
X129538700Y-97610000D01*
%TO.N,IO25{slash}A1{slash}DAC1*%
X132099300Y-101118300D02*
X132558900Y-100658700D01*
X126093600Y-91114300D02*
X121683400Y-91114300D01*
X132099300Y-102690000D02*
X132099300Y-101118300D01*
X118326300Y-87757200D02*
X118326300Y-87523000D01*
X126551500Y-91572200D02*
X126093600Y-91114300D01*
X121683400Y-91114300D02*
X118326300Y-87757200D01*
X130819000Y-102690000D02*
X132099300Y-102690000D01*
X117196000Y-87523000D02*
X118326300Y-87523000D01*
%TO.N,IO26{slash}A0{slash}DAC2*%
X132099300Y-103960000D02*
X133250000Y-102809300D01*
X125111300Y-91546700D02*
X125869300Y-92304700D01*
X125869300Y-92304700D02*
X127236900Y-92304700D01*
X119435200Y-89840900D02*
X121141000Y-91546700D01*
X133250000Y-102809300D02*
X133250000Y-99905500D01*
X121141000Y-91546700D02*
X125111300Y-91546700D01*
X130819000Y-103960000D02*
X132099300Y-103960000D01*
%TO.N,IO4{slash}A5*%
X142982800Y-99329500D02*
X142982800Y-102944100D01*
X112116000Y-87523000D02*
X113246300Y-87523000D01*
X113246300Y-87741100D02*
X119335900Y-93830700D01*
X147819000Y-106500000D02*
X146538700Y-106500000D01*
X142982800Y-102944100D02*
X146538700Y-106500000D01*
X119335900Y-93830700D02*
X127787300Y-93830700D01*
X113246300Y-87523000D02*
X113246300Y-87741100D01*
%TO.N,IO16{slash}LED1*%
X147819000Y-105230000D02*
X146538700Y-105230000D01*
X122021600Y-97644500D02*
X123140100Y-97644500D01*
X146538700Y-103689000D02*
X143888900Y-101039200D01*
X146538700Y-105230000D02*
X146538700Y-103689000D01*
X123140100Y-97644500D02*
X123471600Y-97644500D01*
%TO.N,RXD0*%
X146300100Y-96340000D02*
X146207200Y-96432900D01*
X146538700Y-96340000D02*
X146300100Y-96340000D01*
X156595000Y-88705000D02*
X156595000Y-89118900D01*
X147819000Y-96340000D02*
X146538700Y-96340000D01*
X156595000Y-89118900D02*
X157207200Y-89731100D01*
%TO.N,TXD0*%
X154479200Y-91640800D02*
X155528400Y-91640800D01*
X148116600Y-95070000D02*
X149130300Y-94056300D01*
X153791000Y-92329000D02*
X154479200Y-91640800D01*
X149981600Y-92329000D02*
X153791000Y-92329000D01*
D53*
X156095000Y-91074200D02*
X156095000Y-88705000D01*
D54*
X155528400Y-91640800D02*
X156095000Y-91074200D01*
D51*
X147819000Y-95070000D02*
X148116600Y-95070000D01*
X149130300Y-93180300D02*
X149981600Y-92329000D01*
X149130300Y-94056300D02*
X149130300Y-93180300D01*
%TO.N,IO19{slash}MISO*%
X120010500Y-92877500D02*
X124898100Y-92877500D01*
X147819000Y-100150000D02*
X146538700Y-100150000D01*
X146538700Y-100150000D02*
X146481800Y-100093100D01*
X146481800Y-100093100D02*
X145016900Y-100093100D01*
X114656000Y-87523000D02*
X120010500Y-92877500D01*
%TO.N,IO18{slash}MOSI*%
X145381800Y-101420000D02*
X143998700Y-100036900D01*
X143998700Y-100036900D02*
X143690200Y-100036900D01*
X147819000Y-101420000D02*
X145381800Y-101420000D01*
%TO.N,Net-(J4-Pad2)*%
X119530500Y-102108000D02*
X120015000Y-101623500D01*
X113538000Y-102108000D02*
X119530500Y-102108000D01*
D55*
%TO.N,Net-(D1-Pad2)*%
X165040000Y-88405000D02*
X165027000Y-88392000D01*
D52*
X163830000Y-88265000D02*
X163852000Y-88287000D01*
X163830000Y-88265000D02*
X163852000Y-88286500D01*
X163957000Y-93091000D02*
X165027000Y-93091000D01*
X163852000Y-88287000D02*
X163852000Y-92985500D01*
X163852000Y-92985500D02*
X163957000Y-93091000D01*
X163703000Y-86614000D02*
X163830000Y-86741000D01*
D56*
X166577000Y-88405000D02*
X165040000Y-88405000D01*
D52*
X162052000Y-86614000D02*
X163703000Y-86614000D01*
D56*
X166577000Y-93205000D02*
X165141000Y-93205000D01*
D52*
X163957000Y-88392000D02*
X165027000Y-88392000D01*
X163830000Y-86741000D02*
X163830000Y-88265000D01*
X163852000Y-88286500D02*
X163852000Y-88287000D01*
D55*
X165141000Y-93205000D02*
X165027000Y-93091000D01*
D52*
X163852000Y-88287000D02*
X163957000Y-88392000D01*
D51*
%TO.N,USB-C CC1*%
X168178400Y-92240800D02*
X168658600Y-92240800D01*
X169078700Y-91820700D02*
X169078700Y-86445100D01*
X168658600Y-92240800D02*
X169078700Y-91820700D01*
X166577000Y-92055000D02*
X167992600Y-92055000D01*
X166961600Y-84328000D02*
X166647500Y-84328000D01*
X167992600Y-92055000D02*
X168178400Y-92240800D01*
X169078700Y-86445100D02*
X166961600Y-84328000D01*
%TO.N,USB-C CC2*%
X168759500Y-84328000D02*
X169823100Y-85391600D01*
X166577000Y-89055000D02*
X168076500Y-89055000D01*
X169823100Y-85391600D02*
X169823100Y-87816500D01*
%TO.N,Net-(MK1-Pad7)*%
X152296500Y-91567000D02*
X153913300Y-91567000D01*
X153913300Y-91567000D02*
X154154000Y-91326300D01*
X154154000Y-90746000D02*
X154154000Y-91326300D01*
%TO.N,Net-(Q2-Pad1)*%
X159058800Y-109655700D02*
X147809800Y-109655700D01*
X142302500Y-99047800D02*
X142914200Y-98436100D01*
X147809800Y-109655700D02*
X142302500Y-104148400D01*
X149828900Y-104894400D02*
X149828900Y-101176100D01*
X150598500Y-105664000D02*
X149828900Y-104894400D01*
X142302500Y-104148400D02*
X142302500Y-99047800D01*
X142914200Y-98436100D02*
X144843200Y-98436100D01*
X159814500Y-108900000D02*
X159058800Y-109655700D01*
X149828900Y-101176100D02*
X150117500Y-100887500D01*
%TO.N,Net-(R7-Pad1)*%
X109323500Y-92456000D02*
X109323500Y-92904000D01*
X109323500Y-92904000D02*
X109953600Y-93534100D01*
%TO.N,Net-(R1-Pad1)*%
X120869000Y-98944500D02*
X120015000Y-99798500D01*
X122021600Y-98944500D02*
X120869000Y-98944500D01*
%TD*%
%TA.AperFunction,Conductor*%
%TO.N,GND*%
G36*
X171689648Y-84062670D02*
G01*
X171692346Y-84063676D01*
X171708702Y-84071144D01*
X171879734Y-84164534D01*
X171894848Y-84174248D01*
X171996477Y-84250326D01*
X172050842Y-84291023D01*
X172064428Y-84302796D01*
X172202204Y-84440572D01*
X172213977Y-84454158D01*
X172330752Y-84610152D01*
X172340469Y-84625271D01*
X172433851Y-84796290D01*
X172441318Y-84812642D01*
X172509414Y-84995212D01*
X172514479Y-85012460D01*
X172537285Y-85117295D01*
X172555899Y-85202863D01*
X172558457Y-85220658D01*
X172560449Y-85248513D01*
X172569559Y-85375885D01*
X172570041Y-85382629D01*
X172569297Y-85400532D01*
X172569195Y-85408857D01*
X172567814Y-85417730D01*
X172568978Y-85426634D01*
X172568880Y-85434690D01*
X172548047Y-85502561D01*
X172493828Y-85548395D01*
X172423436Y-85557640D01*
X172374541Y-85539002D01*
X172314266Y-85500083D01*
X172303655Y-85494583D01*
X172118688Y-85420039D01*
X172107230Y-85416645D01*
X171910072Y-85378143D01*
X171901209Y-85377066D01*
X171898500Y-85377000D01*
X171769115Y-85377000D01*
X171753876Y-85381475D01*
X171752671Y-85382865D01*
X171751000Y-85390548D01*
X171751000Y-87574885D01*
X171755475Y-87590124D01*
X171756865Y-87591329D01*
X171764548Y-87593000D01*
X171846832Y-87593000D01*
X171852808Y-87592715D01*
X172001494Y-87578529D01*
X172013228Y-87576270D01*
X172204599Y-87520128D01*
X172215675Y-87515698D01*
X172389308Y-87426271D01*
X172459027Y-87412862D01*
X172524927Y-87439275D01*
X172566086Y-87497124D01*
X172573000Y-87538287D01*
X172573000Y-94075805D01*
X172552998Y-94143926D01*
X172499342Y-94190419D01*
X172429068Y-94200523D01*
X172378652Y-94181657D01*
X172314259Y-94140079D01*
X172303655Y-94134583D01*
X172118688Y-94060039D01*
X172107230Y-94056645D01*
X171910072Y-94018143D01*
X171901209Y-94017066D01*
X171898500Y-94017000D01*
X171769115Y-94017000D01*
X171753876Y-94021475D01*
X171752671Y-94022865D01*
X171751000Y-94030548D01*
X171751000Y-96214885D01*
X171755475Y-96230124D01*
X171756865Y-96231329D01*
X171764548Y-96233000D01*
X171846832Y-96233000D01*
X171852808Y-96232715D01*
X172001494Y-96218529D01*
X172013228Y-96216270D01*
X172204599Y-96160128D01*
X172215675Y-96155698D01*
X172389308Y-96066271D01*
X172459027Y-96052862D01*
X172524927Y-96079275D01*
X172566086Y-96137124D01*
X172573000Y-96178287D01*
X172573000Y-102625894D01*
X172552998Y-102694015D01*
X172499342Y-102740508D01*
X172429068Y-102750612D01*
X172364488Y-102721118D01*
X172353813Y-102710701D01*
X172278887Y-102628358D01*
X172274836Y-102625159D01*
X172274832Y-102625155D01*
X172101177Y-102488011D01*
X172101172Y-102488008D01*
X172097123Y-102484810D01*
X172092607Y-102482317D01*
X172092604Y-102482315D01*
X171898879Y-102375373D01*
X171898875Y-102375371D01*
X171894355Y-102372876D01*
X171889486Y-102371152D01*
X171889482Y-102371150D01*
X171680903Y-102297288D01*
X171680899Y-102297287D01*
X171676028Y-102295562D01*
X171670935Y-102294655D01*
X171670932Y-102294654D01*
X171453095Y-102255851D01*
X171453089Y-102255850D01*
X171448006Y-102254945D01*
X171375096Y-102254054D01*
X171221581Y-102252179D01*
X171221579Y-102252179D01*
X171216411Y-102252116D01*
X170987464Y-102287150D01*
X170767314Y-102359106D01*
X170762726Y-102361494D01*
X170762722Y-102361496D01*
X170569433Y-102462116D01*
X170561872Y-102466052D01*
X170557739Y-102469155D01*
X170557736Y-102469157D01*
X170380790Y-102602012D01*
X170376655Y-102605117D01*
X170216639Y-102772564D01*
X170086119Y-102963899D01*
X169988602Y-103173981D01*
X169926707Y-103397169D01*
X169902095Y-103627469D01*
X169902392Y-103632622D01*
X169902392Y-103632625D01*
X169910468Y-103772697D01*
X169915427Y-103858697D01*
X169916564Y-103863743D01*
X169916565Y-103863749D01*
X169948741Y-104006523D01*
X169966346Y-104084642D01*
X170053484Y-104299237D01*
X170087906Y-104355409D01*
X170170248Y-104489778D01*
X170174501Y-104496719D01*
X170326147Y-104671784D01*
X170504349Y-104819730D01*
X170704322Y-104936584D01*
X170920694Y-105019209D01*
X170925760Y-105020240D01*
X170925761Y-105020240D01*
X170978846Y-105031040D01*
X171147656Y-105065385D01*
X171278324Y-105070176D01*
X171373949Y-105073683D01*
X171373953Y-105073683D01*
X171379113Y-105073872D01*
X171384233Y-105073216D01*
X171384235Y-105073216D01*
X171473653Y-105061761D01*
X171608847Y-105044442D01*
X171613795Y-105042957D01*
X171613802Y-105042956D01*
X171825747Y-104979369D01*
X171830690Y-104977886D01*
X171835324Y-104975616D01*
X172034049Y-104878262D01*
X172034052Y-104878260D01*
X172038684Y-104875991D01*
X172227243Y-104741494D01*
X172358061Y-104611132D01*
X172420431Y-104577216D01*
X172491238Y-104582404D01*
X172548000Y-104625050D01*
X172572694Y-104691613D01*
X172573000Y-104700383D01*
X172573000Y-108074672D01*
X172571500Y-108094056D01*
X172567814Y-108117730D01*
X172568978Y-108126632D01*
X172568978Y-108126634D01*
X172569805Y-108132959D01*
X172570548Y-108158282D01*
X172558830Y-108322126D01*
X172558457Y-108327343D01*
X172555899Y-108345137D01*
X172514480Y-108535538D01*
X172509414Y-108552788D01*
X172441318Y-108735358D01*
X172433851Y-108751710D01*
X172349203Y-108906734D01*
X172340469Y-108922729D01*
X172330752Y-108937848D01*
X172273016Y-109014975D01*
X172213977Y-109093842D01*
X172202204Y-109107428D01*
X172064428Y-109245204D01*
X172050841Y-109256977D01*
X171894848Y-109373752D01*
X171879734Y-109383466D01*
X171802094Y-109425860D01*
X171708710Y-109476851D01*
X171692358Y-109484318D01*
X171509788Y-109552414D01*
X171492540Y-109557479D01*
X171489591Y-109558121D01*
X171302137Y-109598899D01*
X171284342Y-109601457D01*
X171240200Y-109604614D01*
X171122369Y-109613041D01*
X171104467Y-109612297D01*
X171096142Y-109612195D01*
X171087270Y-109610814D01*
X171078368Y-109611978D01*
X171078365Y-109611978D01*
X171055749Y-109614936D01*
X171039411Y-109616000D01*
X170314981Y-109616000D01*
X170246860Y-109595998D01*
X170200367Y-109542342D01*
X170190263Y-109472068D01*
X170219757Y-109407488D01*
X170225886Y-109400905D01*
X170266916Y-109359875D01*
X170273972Y-109351467D01*
X170398931Y-109173007D01*
X170404414Y-109163511D01*
X170496490Y-108966053D01*
X170500236Y-108955761D01*
X170546394Y-108783497D01*
X170546058Y-108769401D01*
X170538116Y-108766000D01*
X166597033Y-108766000D01*
X166583502Y-108769973D01*
X166582273Y-108778522D01*
X166629764Y-108955761D01*
X166633510Y-108966053D01*
X166725586Y-109163511D01*
X166731069Y-109173007D01*
X166856028Y-109351467D01*
X166863084Y-109359875D01*
X166904114Y-109400905D01*
X166938140Y-109463217D01*
X166933075Y-109534032D01*
X166890528Y-109590868D01*
X166824008Y-109615679D01*
X166815019Y-109616000D01*
X165614981Y-109616000D01*
X165546860Y-109595998D01*
X165500367Y-109542342D01*
X165490263Y-109472068D01*
X165519757Y-109407488D01*
X165525886Y-109400905D01*
X165566916Y-109359875D01*
X165573972Y-109351467D01*
X165698931Y-109173007D01*
X165704414Y-109163511D01*
X165796490Y-108966053D01*
X165800236Y-108955761D01*
X165846394Y-108783497D01*
X165846058Y-108769401D01*
X165838116Y-108766000D01*
X161897033Y-108766000D01*
X161883502Y-108769973D01*
X161882273Y-108778522D01*
X161929764Y-108955761D01*
X161933510Y-108966053D01*
X162025586Y-109163511D01*
X162031069Y-109173007D01*
X162156028Y-109351467D01*
X162163084Y-109359875D01*
X162204114Y-109400905D01*
X162238140Y-109463217D01*
X162233075Y-109534032D01*
X162190528Y-109590868D01*
X162124008Y-109615679D01*
X162115019Y-109616000D01*
X161053207Y-109616000D01*
X160985086Y-109595998D01*
X160938593Y-109542342D01*
X160928489Y-109472068D01*
X160944752Y-109425864D01*
X161011145Y-109313601D01*
X161057562Y-109153831D01*
X161060500Y-109116502D01*
X161060500Y-108683498D01*
X161059486Y-108670615D01*
X161058067Y-108652579D01*
X161058066Y-108652574D01*
X161057562Y-108646169D01*
X161011145Y-108486399D01*
X160994107Y-108457589D01*
X160930491Y-108350020D01*
X160930489Y-108350017D01*
X160926453Y-108343193D01*
X160823763Y-108240503D01*
X161883606Y-108240503D01*
X161883942Y-108254599D01*
X161891884Y-108258000D01*
X163592885Y-108258000D01*
X163608124Y-108253525D01*
X163609329Y-108252135D01*
X163611000Y-108244452D01*
X163611000Y-108239885D01*
X164119000Y-108239885D01*
X164123475Y-108255124D01*
X164124865Y-108256329D01*
X164132548Y-108258000D01*
X165832967Y-108258000D01*
X165846498Y-108254027D01*
X165847727Y-108245478D01*
X165846394Y-108240503D01*
X166583606Y-108240503D01*
X166583942Y-108254599D01*
X166591884Y-108258000D01*
X168292885Y-108258000D01*
X168308124Y-108253525D01*
X168309329Y-108252135D01*
X168311000Y-108244452D01*
X168311000Y-108239885D01*
X168819000Y-108239885D01*
X168823475Y-108255124D01*
X168824865Y-108256329D01*
X168832548Y-108258000D01*
X170532967Y-108258000D01*
X170546498Y-108254027D01*
X170547727Y-108245478D01*
X170500236Y-108068239D01*
X170496490Y-108057947D01*
X170404414Y-107860489D01*
X170398931Y-107850993D01*
X170273972Y-107672533D01*
X170266916Y-107664125D01*
X170112875Y-107510084D01*
X170104467Y-107503028D01*
X169926007Y-107378069D01*
X169916511Y-107372586D01*
X169719053Y-107280510D01*
X169708761Y-107276764D01*
X169498312Y-107220375D01*
X169487519Y-107218472D01*
X169324830Y-107204238D01*
X169319365Y-107204000D01*
X168837115Y-107204000D01*
X168821876Y-107208475D01*
X168820671Y-107209865D01*
X168819000Y-107217548D01*
X168819000Y-108239885D01*
X168311000Y-108239885D01*
X168311000Y-107222115D01*
X168306525Y-107206876D01*
X168305135Y-107205671D01*
X168297452Y-107204000D01*
X167810635Y-107204000D01*
X167805170Y-107204238D01*
X167642481Y-107218472D01*
X167631688Y-107220375D01*
X167421239Y-107276764D01*
X167410947Y-107280510D01*
X167213489Y-107372586D01*
X167203993Y-107378069D01*
X167025533Y-107503028D01*
X167017125Y-107510084D01*
X166863084Y-107664125D01*
X166856028Y-107672533D01*
X166731069Y-107850993D01*
X166725586Y-107860489D01*
X166633510Y-108057947D01*
X166629764Y-108068239D01*
X166583606Y-108240503D01*
X165846394Y-108240503D01*
X165800236Y-108068239D01*
X165796490Y-108057947D01*
X165704414Y-107860489D01*
X165698931Y-107850993D01*
X165573972Y-107672533D01*
X165566916Y-107664125D01*
X165412875Y-107510084D01*
X165404467Y-107503028D01*
X165226007Y-107378069D01*
X165216511Y-107372586D01*
X165019053Y-107280510D01*
X165008761Y-107276764D01*
X164798312Y-107220375D01*
X164787519Y-107218472D01*
X164624830Y-107204238D01*
X164619365Y-107204000D01*
X164137115Y-107204000D01*
X164121876Y-107208475D01*
X164120671Y-107209865D01*
X164119000Y-107217548D01*
X164119000Y-108239885D01*
X163611000Y-108239885D01*
X163611000Y-107222115D01*
X163606525Y-107206876D01*
X163605135Y-107205671D01*
X163597452Y-107204000D01*
X163110635Y-107204000D01*
X163105170Y-107204238D01*
X162942481Y-107218472D01*
X162931688Y-107220375D01*
X162721239Y-107276764D01*
X162710947Y-107280510D01*
X162513489Y-107372586D01*
X162503993Y-107378069D01*
X162325533Y-107503028D01*
X162317125Y-107510084D01*
X162163084Y-107664125D01*
X162156028Y-107672533D01*
X162031069Y-107850993D01*
X162025586Y-107860489D01*
X161933510Y-108057947D01*
X161929764Y-108068239D01*
X161883606Y-108240503D01*
X160823763Y-108240503D01*
X160808807Y-108225547D01*
X160801983Y-108221511D01*
X160801980Y-108221509D01*
X160682958Y-108151120D01*
X160665601Y-108140855D01*
X160657990Y-108138644D01*
X160657988Y-108138643D01*
X160586003Y-108117730D01*
X160505831Y-108094438D01*
X160499426Y-108093934D01*
X160499421Y-108093933D01*
X160470958Y-108091693D01*
X160470950Y-108091693D01*
X160468502Y-108091500D01*
X159675100Y-108091500D01*
X159606979Y-108071498D01*
X159560486Y-108017842D01*
X159549100Y-107965500D01*
X159549100Y-107934500D01*
X159569102Y-107866379D01*
X159622758Y-107819886D01*
X159675100Y-107808500D01*
X160468502Y-107808500D01*
X160470950Y-107808307D01*
X160470958Y-107808307D01*
X160499421Y-107806067D01*
X160499426Y-107806066D01*
X160505831Y-107805562D01*
X160605769Y-107776528D01*
X160657988Y-107761357D01*
X160657990Y-107761356D01*
X160665601Y-107759145D01*
X160694411Y-107742107D01*
X160801980Y-107678491D01*
X160801983Y-107678489D01*
X160808807Y-107674453D01*
X160926453Y-107556807D01*
X160930489Y-107549983D01*
X160930491Y-107549980D01*
X161007108Y-107420427D01*
X161011145Y-107413601D01*
X161020576Y-107381141D01*
X161029542Y-107350277D01*
X161057562Y-107253831D01*
X161058937Y-107236368D01*
X161060307Y-107218951D01*
X161060500Y-107216502D01*
X161060500Y-106783498D01*
X161057562Y-106746169D01*
X161011145Y-106586399D01*
X160954684Y-106490929D01*
X160930491Y-106450020D01*
X160930489Y-106450017D01*
X160926453Y-106443193D01*
X160808807Y-106325547D01*
X160686534Y-106253234D01*
X160638082Y-106201342D01*
X160625377Y-106131492D01*
X160652453Y-106065861D01*
X160710713Y-106025287D01*
X160734228Y-106019860D01*
X160824842Y-106007931D01*
X160824843Y-106007931D01*
X160833030Y-106006853D01*
X160890496Y-105983049D01*
X160916888Y-105972117D01*
X160916890Y-105972116D01*
X160968558Y-105950715D01*
X160968559Y-105950714D01*
X160976189Y-105947554D01*
X161099123Y-105853223D01*
X161117780Y-105828909D01*
X161128647Y-105816518D01*
X162426038Y-104519127D01*
X166756500Y-104519127D01*
X166756738Y-104521844D01*
X166756738Y-104521851D01*
X166761582Y-104577216D01*
X166771457Y-104690087D01*
X166772881Y-104695400D01*
X166772881Y-104695402D01*
X166824933Y-104889659D01*
X166830716Y-104911243D01*
X166833039Y-104916224D01*
X166833039Y-104916225D01*
X166925151Y-105113762D01*
X166925154Y-105113767D01*
X166927477Y-105118749D01*
X166970813Y-105180639D01*
X167054601Y-105300300D01*
X167058802Y-105306300D01*
X167220700Y-105468198D01*
X167225208Y-105471355D01*
X167225211Y-105471357D01*
X167278994Y-105509016D01*
X167408251Y-105599523D01*
X167413233Y-105601846D01*
X167413238Y-105601849D01*
X167592742Y-105685552D01*
X167615757Y-105696284D01*
X167621065Y-105697706D01*
X167621067Y-105697707D01*
X167831598Y-105754119D01*
X167831600Y-105754119D01*
X167836913Y-105755543D01*
X168065000Y-105775498D01*
X168293087Y-105755543D01*
X168298400Y-105754119D01*
X168298402Y-105754119D01*
X168508933Y-105697707D01*
X168508935Y-105697706D01*
X168514243Y-105696284D01*
X168537258Y-105685552D01*
X168716762Y-105601849D01*
X168716767Y-105601846D01*
X168721749Y-105599523D01*
X168851006Y-105509016D01*
X168904789Y-105471357D01*
X168904792Y-105471355D01*
X168909300Y-105468198D01*
X169071198Y-105306300D01*
X169075400Y-105300300D01*
X169159187Y-105180639D01*
X169202523Y-105118749D01*
X169204846Y-105113767D01*
X169204849Y-105113762D01*
X169296961Y-104916225D01*
X169296961Y-104916224D01*
X169299284Y-104911243D01*
X169305068Y-104889659D01*
X169357119Y-104695402D01*
X169357119Y-104695400D01*
X169358543Y-104690087D01*
X169368418Y-104577216D01*
X169373262Y-104521851D01*
X169373262Y-104521844D01*
X169373500Y-104519127D01*
X169373500Y-102804873D01*
X169373045Y-102799665D01*
X169364463Y-102701578D01*
X169358543Y-102633913D01*
X169356196Y-102625155D01*
X169300707Y-102418067D01*
X169300706Y-102418065D01*
X169299284Y-102412757D01*
X169281852Y-102375373D01*
X169204849Y-102210238D01*
X169204846Y-102210233D01*
X169202523Y-102205251D01*
X169114678Y-102079796D01*
X169074357Y-102022211D01*
X169074355Y-102022208D01*
X169071198Y-102017700D01*
X168909300Y-101855802D01*
X168904792Y-101852645D01*
X168904789Y-101852643D01*
X168805748Y-101783294D01*
X168721749Y-101724477D01*
X168716767Y-101722154D01*
X168716762Y-101722151D01*
X168519225Y-101630039D01*
X168519224Y-101630039D01*
X168514243Y-101627716D01*
X168508935Y-101626294D01*
X168508933Y-101626293D01*
X168298402Y-101569881D01*
X168298400Y-101569881D01*
X168293087Y-101568457D01*
X168065000Y-101548502D01*
X167836913Y-101568457D01*
X167831600Y-101569881D01*
X167831598Y-101569881D01*
X167621067Y-101626293D01*
X167621065Y-101626294D01*
X167615757Y-101627716D01*
X167610776Y-101630039D01*
X167610775Y-101630039D01*
X167413238Y-101722151D01*
X167413233Y-101722154D01*
X167408251Y-101724477D01*
X167324252Y-101783294D01*
X167225211Y-101852643D01*
X167225208Y-101852645D01*
X167220700Y-101855802D01*
X167058802Y-102017700D01*
X167055645Y-102022208D01*
X167055643Y-102022211D01*
X167015322Y-102079796D01*
X166927477Y-102205251D01*
X166925154Y-102210233D01*
X166925151Y-102210238D01*
X166848148Y-102375373D01*
X166830716Y-102412757D01*
X166829294Y-102418065D01*
X166829293Y-102418067D01*
X166773804Y-102625155D01*
X166771457Y-102633913D01*
X166765537Y-102701578D01*
X166756956Y-102799665D01*
X166756500Y-102804873D01*
X166756500Y-104519127D01*
X162426038Y-104519127D01*
X166439218Y-100505947D01*
X166451609Y-100495080D01*
X166469373Y-100481449D01*
X166475923Y-100476423D01*
X166570254Y-100353489D01*
X166617686Y-100238977D01*
X166620497Y-100232191D01*
X166626392Y-100217959D01*
X166629552Y-100210330D01*
X166649778Y-100056700D01*
X166645778Y-100026317D01*
X166644700Y-100009871D01*
X166644700Y-99745681D01*
X166664702Y-99677560D01*
X166718358Y-99631067D01*
X166788632Y-99620963D01*
X166853212Y-99650457D01*
X166859795Y-99656586D01*
X167017125Y-99813916D01*
X167025533Y-99820972D01*
X167203993Y-99945931D01*
X167213489Y-99951414D01*
X167410947Y-100043490D01*
X167421239Y-100047236D01*
X167631688Y-100103625D01*
X167642481Y-100105528D01*
X167805170Y-100119762D01*
X167810635Y-100120000D01*
X168292885Y-100120000D01*
X168308124Y-100115525D01*
X168309329Y-100114135D01*
X168311000Y-100106452D01*
X168311000Y-100101885D01*
X168819000Y-100101885D01*
X168823475Y-100117124D01*
X168824865Y-100118329D01*
X168832548Y-100120000D01*
X169319365Y-100120000D01*
X169324830Y-100119762D01*
X169487519Y-100105528D01*
X169498312Y-100103625D01*
X169708761Y-100047236D01*
X169719053Y-100043490D01*
X169916511Y-99951414D01*
X169926007Y-99945931D01*
X170104467Y-99820972D01*
X170112875Y-99813916D01*
X170266916Y-99659875D01*
X170273972Y-99651467D01*
X170398931Y-99473007D01*
X170404414Y-99463511D01*
X170496490Y-99266053D01*
X170500236Y-99255761D01*
X170546394Y-99083497D01*
X170546058Y-99069401D01*
X170538116Y-99066000D01*
X168837115Y-99066000D01*
X168821876Y-99070475D01*
X168820671Y-99071865D01*
X168819000Y-99079548D01*
X168819000Y-100101885D01*
X168311000Y-100101885D01*
X168311000Y-98539885D01*
X168819000Y-98539885D01*
X168823475Y-98555124D01*
X168824865Y-98556329D01*
X168832548Y-98558000D01*
X170532967Y-98558000D01*
X170546498Y-98554027D01*
X170547727Y-98545478D01*
X170500236Y-98368239D01*
X170496490Y-98357947D01*
X170404414Y-98160489D01*
X170398931Y-98150993D01*
X170273972Y-97972533D01*
X170266916Y-97964125D01*
X170112875Y-97810084D01*
X170104467Y-97803028D01*
X169926007Y-97678069D01*
X169916511Y-97672586D01*
X169719053Y-97580510D01*
X169708761Y-97576764D01*
X169498312Y-97520375D01*
X169487519Y-97518472D01*
X169324830Y-97504238D01*
X169319365Y-97504000D01*
X168837115Y-97504000D01*
X168821876Y-97508475D01*
X168820671Y-97509865D01*
X168819000Y-97517548D01*
X168819000Y-98539885D01*
X168311000Y-98539885D01*
X168311000Y-97522115D01*
X168306525Y-97506876D01*
X168305135Y-97505671D01*
X168297452Y-97504000D01*
X167810635Y-97504000D01*
X167805170Y-97504238D01*
X167642481Y-97518472D01*
X167631688Y-97520375D01*
X167421239Y-97576764D01*
X167410947Y-97580510D01*
X167213489Y-97672586D01*
X167203993Y-97678069D01*
X167025533Y-97803028D01*
X167017125Y-97810084D01*
X166859795Y-97967414D01*
X166797483Y-98001440D01*
X166726668Y-97996375D01*
X166669832Y-97953828D01*
X166645021Y-97887308D01*
X166644700Y-97878319D01*
X166644700Y-97103130D01*
X166645778Y-97086684D01*
X166648700Y-97064488D01*
X166649778Y-97056300D01*
X166644898Y-97019231D01*
X166630631Y-96910856D01*
X166630630Y-96910854D01*
X166629553Y-96902670D01*
X166593211Y-96814934D01*
X166570254Y-96759511D01*
X166475923Y-96636577D01*
X166458005Y-96622828D01*
X166451609Y-96617920D01*
X166439218Y-96607053D01*
X166153874Y-96321709D01*
X166119848Y-96259397D01*
X166117660Y-96219438D01*
X166118677Y-96209766D01*
X166145693Y-96144110D01*
X166203916Y-96103483D01*
X166274861Y-96100783D01*
X166301966Y-96111075D01*
X166310340Y-96115415D01*
X166495312Y-96189961D01*
X166506770Y-96193355D01*
X166703928Y-96231857D01*
X166712791Y-96232934D01*
X166715500Y-96233000D01*
X167044885Y-96233000D01*
X167060124Y-96228525D01*
X167061329Y-96227135D01*
X167063000Y-96219452D01*
X167063000Y-96214885D01*
X167571000Y-96214885D01*
X167575475Y-96230124D01*
X167576865Y-96231329D01*
X167584548Y-96233000D01*
X167866832Y-96233000D01*
X167872808Y-96232715D01*
X168021494Y-96218529D01*
X168033228Y-96216270D01*
X168224599Y-96160128D01*
X168235675Y-96155698D01*
X168412978Y-96064381D01*
X168423024Y-96057931D01*
X168579857Y-95934738D01*
X168588506Y-95926501D01*
X168719212Y-95775877D01*
X168726147Y-95766153D01*
X168826010Y-95593533D01*
X168830984Y-95582669D01*
X168896407Y-95394273D01*
X168896648Y-95393284D01*
X168896522Y-95392399D01*
X170121712Y-95392399D01*
X170143194Y-95481537D01*
X170147083Y-95492832D01*
X170229629Y-95674382D01*
X170235576Y-95684724D01*
X170350968Y-95847397D01*
X170358761Y-95856425D01*
X170502831Y-95994342D01*
X170512196Y-96001738D01*
X170679741Y-96109921D01*
X170690345Y-96115417D01*
X170875312Y-96189961D01*
X170886770Y-96193355D01*
X171083928Y-96231857D01*
X171092791Y-96232934D01*
X171095500Y-96233000D01*
X171224885Y-96233000D01*
X171240124Y-96228525D01*
X171241329Y-96227135D01*
X171243000Y-96219452D01*
X171243000Y-95397115D01*
X171238525Y-95381876D01*
X171237135Y-95380671D01*
X171229452Y-95379000D01*
X170136598Y-95379000D01*
X170123067Y-95382973D01*
X170121712Y-95392399D01*
X168896522Y-95392399D01*
X168895180Y-95382992D01*
X168881615Y-95379000D01*
X167589115Y-95379000D01*
X167573876Y-95383475D01*
X167572671Y-95384865D01*
X167571000Y-95392548D01*
X167571000Y-96214885D01*
X167063000Y-96214885D01*
X167063000Y-95397115D01*
X167058525Y-95381876D01*
X167057135Y-95380671D01*
X167049452Y-95379000D01*
X165756598Y-95379000D01*
X165712471Y-95391957D01*
X165701336Y-95399112D01*
X165630339Y-95399107D01*
X165614598Y-95393320D01*
X165493923Y-95339592D01*
X165493915Y-95339589D01*
X165487888Y-95336906D01*
X165390235Y-95316149D01*
X165307544Y-95298572D01*
X165307539Y-95298572D01*
X165301087Y-95297200D01*
X165110113Y-95297200D01*
X165103661Y-95298572D01*
X165103656Y-95298572D01*
X165020965Y-95316149D01*
X164923312Y-95336906D01*
X164917282Y-95339591D01*
X164917281Y-95339591D01*
X164754878Y-95411897D01*
X164754876Y-95411898D01*
X164748848Y-95414582D01*
X164743507Y-95418462D01*
X164743506Y-95418463D01*
X164725536Y-95431519D01*
X164594347Y-95526834D01*
X164589926Y-95531744D01*
X164589925Y-95531745D01*
X164473588Y-95660951D01*
X164466560Y-95668756D01*
X164414489Y-95758945D01*
X164386886Y-95806756D01*
X164371073Y-95834144D01*
X164312058Y-96015772D01*
X164311368Y-96022333D01*
X164311368Y-96022335D01*
X164299269Y-96137448D01*
X164292096Y-96205700D01*
X164292786Y-96212265D01*
X164306687Y-96344521D01*
X164312058Y-96395628D01*
X164371073Y-96577256D01*
X164375368Y-96584696D01*
X164375640Y-96585816D01*
X164377061Y-96589007D01*
X164376477Y-96589267D01*
X164392106Y-96653689D01*
X164368886Y-96720781D01*
X164313080Y-96764669D01*
X164242404Y-96771418D01*
X164177154Y-96736790D01*
X163671941Y-96231577D01*
X163637915Y-96169265D01*
X163642980Y-96098450D01*
X163687509Y-96040160D01*
X163790290Y-95966304D01*
X163790294Y-95966300D01*
X163794851Y-95963026D01*
X163887675Y-95867239D01*
X163941074Y-95812136D01*
X163941076Y-95812133D01*
X163944977Y-95808108D01*
X164054136Y-95645663D01*
X164062165Y-95633714D01*
X164062165Y-95633713D01*
X164065297Y-95629053D01*
X164152008Y-95431520D01*
X164202368Y-95221755D01*
X164211334Y-95066263D01*
X164214463Y-95011994D01*
X164214463Y-95011991D01*
X164214786Y-95006387D01*
X164196763Y-94857452D01*
X164189544Y-94797792D01*
X164189544Y-94797791D01*
X164188870Y-94792223D01*
X164185366Y-94780831D01*
X164127085Y-94591391D01*
X164125437Y-94586034D01*
X164072407Y-94483289D01*
X164058938Y-94413583D01*
X164085293Y-94347659D01*
X164143106Y-94306449D01*
X164184373Y-94299500D01*
X165081735Y-94299500D01*
X165084522Y-94299251D01*
X165084528Y-94299251D01*
X165151240Y-94293297D01*
X165241872Y-94285208D01*
X165247286Y-94283727D01*
X165247291Y-94283726D01*
X165264177Y-94279106D01*
X165335161Y-94280424D01*
X165394165Y-94319909D01*
X165422688Y-94387034D01*
X165424895Y-94407352D01*
X165428521Y-94422604D01*
X165473676Y-94543054D01*
X165482214Y-94558649D01*
X165558715Y-94660724D01*
X165571276Y-94673285D01*
X165680538Y-94755172D01*
X165679285Y-94756844D01*
X165721057Y-94798712D01*
X165735137Y-94841181D01*
X165738820Y-94867008D01*
X165752385Y-94871000D01*
X167044885Y-94871000D01*
X167060124Y-94866525D01*
X167061329Y-94865135D01*
X167063000Y-94857452D01*
X167063000Y-94455640D01*
X167083002Y-94387519D01*
X167136658Y-94341026D01*
X167206932Y-94330922D01*
X167263060Y-94353704D01*
X167290105Y-94373353D01*
X167378900Y-94437866D01*
X167385385Y-94442578D01*
X167391413Y-94445262D01*
X167391415Y-94445263D01*
X167496249Y-94491938D01*
X167550345Y-94537918D01*
X167571000Y-94607045D01*
X167571000Y-94852885D01*
X167575475Y-94868124D01*
X167576865Y-94869329D01*
X167584548Y-94871000D01*
X168877402Y-94871000D01*
X168890933Y-94867027D01*
X168892288Y-94857601D01*
X168892075Y-94856716D01*
X170117352Y-94856716D01*
X170118820Y-94867008D01*
X170132385Y-94871000D01*
X171224885Y-94871000D01*
X171240124Y-94866525D01*
X171241329Y-94865135D01*
X171243000Y-94857452D01*
X171243000Y-94035115D01*
X171238525Y-94019876D01*
X171237135Y-94018671D01*
X171229452Y-94017000D01*
X171147168Y-94017000D01*
X171141192Y-94017285D01*
X170992506Y-94031471D01*
X170980772Y-94033730D01*
X170789401Y-94089872D01*
X170778325Y-94094302D01*
X170601022Y-94185619D01*
X170590976Y-94192069D01*
X170434143Y-94315262D01*
X170425494Y-94323499D01*
X170294788Y-94474123D01*
X170287853Y-94483847D01*
X170187990Y-94656467D01*
X170183016Y-94667331D01*
X170117593Y-94855727D01*
X170117352Y-94856716D01*
X168892075Y-94856716D01*
X168870806Y-94768463D01*
X168866917Y-94757168D01*
X168784371Y-94575618D01*
X168778424Y-94565276D01*
X168663032Y-94402603D01*
X168655239Y-94393574D01*
X168565498Y-94307666D01*
X168530122Y-94246110D01*
X168533641Y-94175201D01*
X168543510Y-94153648D01*
X168602295Y-94051830D01*
X168602296Y-94051829D01*
X168605599Y-94046107D01*
X168639334Y-93942279D01*
X168659325Y-93880754D01*
X168659325Y-93880753D01*
X168661365Y-93874475D01*
X168664396Y-93845643D01*
X168679539Y-93701565D01*
X168680229Y-93695000D01*
X168661365Y-93515525D01*
X168649601Y-93479317D01*
X168614028Y-93369835D01*
X168605599Y-93343893D01*
X168515367Y-93187607D01*
X168489590Y-93158978D01*
X168399034Y-93058406D01*
X168394613Y-93053496D01*
X168389271Y-93049615D01*
X168388515Y-93048934D01*
X168351277Y-92988486D01*
X168352631Y-92917503D01*
X168392146Y-92858519D01*
X168457278Y-92830263D01*
X168472828Y-92829300D01*
X168611770Y-92829300D01*
X168628215Y-92830378D01*
X168658600Y-92834378D01*
X168666789Y-92833300D01*
X168804042Y-92815231D01*
X168804043Y-92815231D01*
X168812230Y-92814153D01*
X168834478Y-92804937D01*
X168896088Y-92779417D01*
X168896090Y-92779416D01*
X168947758Y-92758015D01*
X168947759Y-92758014D01*
X168955389Y-92754854D01*
X169078323Y-92660523D01*
X169096980Y-92636209D01*
X169107847Y-92623818D01*
X169461718Y-92269947D01*
X169474109Y-92259080D01*
X169491873Y-92245449D01*
X169498423Y-92240423D01*
X169592754Y-92117489D01*
X169620151Y-92051346D01*
X169652053Y-91974330D01*
X169661234Y-91904595D01*
X169671200Y-91828889D01*
X169672278Y-91820700D01*
X169668278Y-91790316D01*
X169667200Y-91773870D01*
X169667200Y-88851000D01*
X169687202Y-88782879D01*
X169740858Y-88736386D01*
X169793200Y-88725000D01*
X169918587Y-88725000D01*
X169925039Y-88723628D01*
X169925044Y-88723628D01*
X170019101Y-88703635D01*
X170105388Y-88685294D01*
X170111419Y-88682609D01*
X170273822Y-88610303D01*
X170273824Y-88610302D01*
X170279852Y-88607618D01*
X170434353Y-88495366D01*
X170447568Y-88480689D01*
X170557721Y-88358352D01*
X170557722Y-88358351D01*
X170562140Y-88353444D01*
X170657627Y-88188056D01*
X170716642Y-88006428D01*
X170725240Y-87924628D01*
X170735914Y-87823065D01*
X170736604Y-87816500D01*
X170731454Y-87767500D01*
X170722944Y-87686528D01*
X170735716Y-87616690D01*
X170784219Y-87564843D01*
X170853051Y-87547449D01*
X170884044Y-87552548D01*
X170886767Y-87553355D01*
X171083928Y-87591857D01*
X171092791Y-87592934D01*
X171095500Y-87593000D01*
X171224885Y-87593000D01*
X171240124Y-87588525D01*
X171241329Y-87587135D01*
X171243000Y-87579452D01*
X171243000Y-85395115D01*
X171237353Y-85375885D01*
X171203285Y-85322873D01*
X171203285Y-85251877D01*
X171241668Y-85192151D01*
X171257879Y-85180230D01*
X171294493Y-85157573D01*
X171305890Y-85148540D01*
X171418363Y-85035871D01*
X171427375Y-85024460D01*
X171510912Y-84888937D01*
X171517056Y-84875759D01*
X171567315Y-84724234D01*
X171570181Y-84710868D01*
X171579672Y-84618230D01*
X171580000Y-84611815D01*
X171580000Y-84600115D01*
X171575525Y-84584876D01*
X171574135Y-84583671D01*
X171566452Y-84582000D01*
X170456500Y-84582000D01*
X170388379Y-84561998D01*
X170341886Y-84508342D01*
X170330500Y-84456000D01*
X170330500Y-84200000D01*
X170350502Y-84131879D01*
X170404158Y-84085386D01*
X170456500Y-84074000D01*
X171561883Y-84074000D01*
X171610128Y-84059834D01*
X171681125Y-84059834D01*
X171689648Y-84062670D01*
G37*
%TD.AperFunction*%
%TA.AperFunction,Conductor*%
G36*
X107797512Y-93174131D02*
G01*
X107804095Y-93180260D01*
X109898250Y-95274414D01*
X109909117Y-95286805D01*
X109927777Y-95311123D01*
X110050711Y-95405454D01*
X110113641Y-95431520D01*
X110193871Y-95464753D01*
X110202059Y-95465831D01*
X110243579Y-95471297D01*
X110347500Y-95484978D01*
X110377885Y-95480978D01*
X110394330Y-95479900D01*
X111610794Y-95479900D01*
X111678915Y-95499902D01*
X111725408Y-95553558D01*
X111736057Y-95619507D01*
X111729500Y-95679866D01*
X111729500Y-98376134D01*
X111736255Y-98438316D01*
X111787385Y-98574705D01*
X111874739Y-98691261D01*
X111991295Y-98778615D01*
X112127684Y-98829745D01*
X112189866Y-98836500D01*
X114886134Y-98836500D01*
X114948316Y-98829745D01*
X115084705Y-98778615D01*
X115201261Y-98691261D01*
X115288615Y-98574705D01*
X115339745Y-98438316D01*
X115346500Y-98376134D01*
X115346500Y-97653155D01*
X115366502Y-97585034D01*
X115408881Y-97544625D01*
X115415089Y-97542054D01*
X115538023Y-97447723D01*
X115556680Y-97423409D01*
X115567547Y-97411018D01*
X116325680Y-96652885D01*
X117101459Y-95877105D01*
X117163771Y-95843080D01*
X117190554Y-95840200D01*
X126392500Y-95840200D01*
X126460621Y-95860202D01*
X126507114Y-95913858D01*
X126518500Y-95966200D01*
X126518500Y-96140000D01*
X126498498Y-96208121D01*
X126444842Y-96254614D01*
X126392500Y-96266000D01*
X125237115Y-96266000D01*
X125221876Y-96270475D01*
X125220671Y-96271865D01*
X125219000Y-96279548D01*
X125219000Y-96295766D01*
X125219337Y-96302282D01*
X125229075Y-96396132D01*
X125231968Y-96409528D01*
X125282488Y-96560953D01*
X125288653Y-96574115D01*
X125372426Y-96709492D01*
X125381460Y-96720890D01*
X125494129Y-96833363D01*
X125505540Y-96842375D01*
X125641063Y-96925912D01*
X125654241Y-96932056D01*
X125805766Y-96982315D01*
X125819132Y-96985181D01*
X125911770Y-96994672D01*
X125918185Y-96995000D01*
X126050445Y-96995000D01*
X126118566Y-97015002D01*
X126165059Y-97068658D01*
X126175163Y-97138932D01*
X126145669Y-97203512D01*
X126133500Y-97214978D01*
X126128727Y-97219751D01*
X126122177Y-97224777D01*
X126027846Y-97347711D01*
X126007100Y-97397797D01*
X125973747Y-97478320D01*
X125968548Y-97490871D01*
X125967470Y-97499059D01*
X125958070Y-97570464D01*
X125954003Y-97601353D01*
X125948322Y-97644500D01*
X125949400Y-97652688D01*
X125952322Y-97674883D01*
X125953400Y-97691329D01*
X125953400Y-100994145D01*
X125933398Y-101062266D01*
X125916495Y-101083240D01*
X122046140Y-104953595D01*
X121983828Y-104987621D01*
X121957045Y-104990500D01*
X119982600Y-104990500D01*
X119979354Y-104990837D01*
X119979350Y-104990837D01*
X119883692Y-105000762D01*
X119883688Y-105000763D01*
X119876834Y-105001474D01*
X119870298Y-105003655D01*
X119870296Y-105003655D01*
X119752498Y-105042956D01*
X119709054Y-105057450D01*
X119558652Y-105150522D01*
X119433695Y-105275697D01*
X119429855Y-105281927D01*
X119429854Y-105281928D01*
X119368312Y-105381768D01*
X119340885Y-105426262D01*
X119285203Y-105594139D01*
X119274500Y-105698600D01*
X119274500Y-106323245D01*
X119254498Y-106391366D01*
X119200842Y-106437859D01*
X119130568Y-106447963D01*
X119065988Y-106418469D01*
X119059416Y-106412352D01*
X118332614Y-105685550D01*
X118298590Y-105623239D01*
X118301877Y-105557521D01*
X118312225Y-105525672D01*
X118321701Y-105496511D01*
X118321702Y-105496506D01*
X118323742Y-105490228D01*
X118325726Y-105471357D01*
X118343014Y-105306865D01*
X118343704Y-105300300D01*
X118327962Y-105150522D01*
X118324432Y-105116935D01*
X118324432Y-105116933D01*
X118323742Y-105110372D01*
X118264727Y-104928744D01*
X118169240Y-104763356D01*
X118149556Y-104741494D01*
X118045875Y-104626345D01*
X118045874Y-104626344D01*
X118041453Y-104621434D01*
X117912456Y-104527712D01*
X117892294Y-104513063D01*
X117892293Y-104513062D01*
X117886952Y-104509182D01*
X117880924Y-104506498D01*
X117880922Y-104506497D01*
X117718519Y-104434191D01*
X117718518Y-104434191D01*
X117712488Y-104431506D01*
X117619087Y-104411653D01*
X117532144Y-104393172D01*
X117532139Y-104393172D01*
X117525687Y-104391800D01*
X117334713Y-104391800D01*
X117328261Y-104393172D01*
X117328256Y-104393172D01*
X117241313Y-104411653D01*
X117147912Y-104431506D01*
X117141882Y-104434191D01*
X117141881Y-104434191D01*
X116979478Y-104506497D01*
X116979476Y-104506498D01*
X116973448Y-104509182D01*
X116968107Y-104513062D01*
X116968106Y-104513063D01*
X116947944Y-104527712D01*
X116818947Y-104621434D01*
X116814526Y-104626344D01*
X116814525Y-104626345D01*
X116710845Y-104741494D01*
X116691160Y-104763356D01*
X116595673Y-104928744D01*
X116536658Y-105110372D01*
X116535968Y-105116933D01*
X116535968Y-105116935D01*
X116532438Y-105150522D01*
X116516696Y-105300300D01*
X116517386Y-105306865D01*
X116534675Y-105471357D01*
X116536658Y-105490228D01*
X116595673Y-105671856D01*
X116598976Y-105677578D01*
X116598977Y-105677579D01*
X116610598Y-105697707D01*
X116691160Y-105837244D01*
X116695578Y-105842151D01*
X116695579Y-105842152D01*
X116812599Y-105972116D01*
X116818947Y-105979166D01*
X116973448Y-106091418D01*
X116979476Y-106094102D01*
X116979478Y-106094103D01*
X117133281Y-106162580D01*
X117171127Y-106188592D01*
X120245550Y-109263014D01*
X120256417Y-109275405D01*
X120275077Y-109299723D01*
X120281627Y-109304749D01*
X120392777Y-109390038D01*
X120434644Y-109447376D01*
X120438866Y-109518247D01*
X120404102Y-109580150D01*
X120341389Y-109613431D01*
X120316073Y-109616000D01*
X109130328Y-109616000D01*
X109110943Y-109614500D01*
X109110661Y-109614456D01*
X109108117Y-109614060D01*
X109096141Y-109612195D01*
X109096139Y-109612195D01*
X109087270Y-109610814D01*
X109078368Y-109611978D01*
X109078366Y-109611978D01*
X109072041Y-109612805D01*
X109046718Y-109613548D01*
X108877657Y-109601457D01*
X108859863Y-109598899D01*
X108672409Y-109558121D01*
X108669460Y-109557479D01*
X108652212Y-109552414D01*
X108469642Y-109484318D01*
X108453290Y-109476851D01*
X108359906Y-109425860D01*
X108282266Y-109383466D01*
X108267152Y-109373752D01*
X108111159Y-109256977D01*
X108097572Y-109245204D01*
X107959796Y-109107428D01*
X107948023Y-109093842D01*
X107888984Y-109014975D01*
X107831248Y-108937848D01*
X107821531Y-108922729D01*
X107812798Y-108906734D01*
X107728149Y-108751710D01*
X107720682Y-108735358D01*
X107682469Y-108632906D01*
X112457839Y-108632906D01*
X112466553Y-108644427D01*
X112573452Y-108722809D01*
X112581351Y-108727745D01*
X112810905Y-108848519D01*
X112819454Y-108852236D01*
X113064327Y-108937749D01*
X113073336Y-108940163D01*
X113328166Y-108988544D01*
X113337423Y-108989598D01*
X113596607Y-108999783D01*
X113605921Y-108999457D01*
X113863753Y-108971220D01*
X113872930Y-108969519D01*
X114123758Y-108903481D01*
X114132574Y-108900445D01*
X114370880Y-108798062D01*
X114379167Y-108793748D01*
X114599718Y-108657266D01*
X114607268Y-108651780D01*
X114612559Y-108647301D01*
X114620997Y-108634497D01*
X114614935Y-108624145D01*
X113550812Y-107560022D01*
X113536868Y-107552408D01*
X113535035Y-107552539D01*
X113528420Y-107556790D01*
X112464497Y-108620713D01*
X112457839Y-108632906D01*
X107682469Y-108632906D01*
X107652586Y-108552788D01*
X107647520Y-108535538D01*
X107606101Y-108345137D01*
X107603543Y-108327342D01*
X107598378Y-108255124D01*
X107591959Y-108165369D01*
X107592703Y-108147467D01*
X107592805Y-108139142D01*
X107594186Y-108130270D01*
X107592547Y-108117730D01*
X107590064Y-108098749D01*
X107589000Y-108082411D01*
X107589000Y-107145211D01*
X111725775Y-107145211D01*
X111738220Y-107404288D01*
X111739356Y-107413543D01*
X111789961Y-107667945D01*
X111792449Y-107676917D01*
X111880095Y-107921033D01*
X111883895Y-107929568D01*
X112006658Y-108158042D01*
X112011666Y-108165904D01*
X112081720Y-108259716D01*
X112092979Y-108268165D01*
X112105397Y-108261393D01*
X113165978Y-107200812D01*
X113172356Y-107189132D01*
X113902408Y-107189132D01*
X113902539Y-107190965D01*
X113906790Y-107197580D01*
X114974094Y-108264884D01*
X114986474Y-108271644D01*
X114994815Y-108265400D01*
X115128832Y-108057048D01*
X115133275Y-108048864D01*
X115239807Y-107812370D01*
X115242997Y-107803605D01*
X115313402Y-107553972D01*
X115315262Y-107544830D01*
X115348187Y-107286019D01*
X115348668Y-107279733D01*
X115350987Y-107191160D01*
X115350836Y-107184851D01*
X115331501Y-106924663D01*
X115330125Y-106915457D01*
X115272878Y-106662467D01*
X115270154Y-106653556D01*
X115176143Y-106411806D01*
X115172132Y-106403397D01*
X115043422Y-106178202D01*
X115038211Y-106170476D01*
X114994996Y-106115658D01*
X114983071Y-106107187D01*
X114971537Y-106113673D01*
X113910022Y-107175188D01*
X113902408Y-107189132D01*
X113172356Y-107189132D01*
X113173592Y-107186868D01*
X113173461Y-107185035D01*
X113169210Y-107178420D01*
X112103816Y-106113026D01*
X112090507Y-106105758D01*
X112080472Y-106112878D01*
X112064937Y-106131556D01*
X112059531Y-106139135D01*
X111924965Y-106360891D01*
X111920736Y-106369192D01*
X111820432Y-106608389D01*
X111817471Y-106617239D01*
X111753628Y-106868625D01*
X111752006Y-106877822D01*
X111726020Y-107135879D01*
X111725775Y-107145211D01*
X107589000Y-107145211D01*
X107589000Y-105740689D01*
X112455102Y-105740689D01*
X112459675Y-105750465D01*
X113525188Y-106815978D01*
X113539132Y-106823592D01*
X113540965Y-106823461D01*
X113547580Y-106819210D01*
X114612349Y-105754441D01*
X114618733Y-105742751D01*
X114609321Y-105730641D01*
X114462045Y-105628471D01*
X114454010Y-105623738D01*
X114221376Y-105509016D01*
X114212743Y-105505528D01*
X113965703Y-105426450D01*
X113956643Y-105424274D01*
X113700630Y-105382580D01*
X113691343Y-105381768D01*
X113431992Y-105378373D01*
X113422681Y-105378943D01*
X113165682Y-105413919D01*
X113156546Y-105415860D01*
X112907543Y-105488439D01*
X112898800Y-105491707D01*
X112663252Y-105600296D01*
X112655097Y-105604816D01*
X112464240Y-105729947D01*
X112455102Y-105740689D01*
X107589000Y-105740689D01*
X107589000Y-102060526D01*
X111725050Y-102060526D01*
X111725274Y-102065192D01*
X111725274Y-102065197D01*
X111737481Y-102319313D01*
X111737947Y-102329019D01*
X111790388Y-102592656D01*
X111881220Y-102845646D01*
X112008450Y-103082431D01*
X112011241Y-103086168D01*
X112011245Y-103086175D01*
X112087382Y-103188134D01*
X112169281Y-103297810D01*
X112172590Y-103301090D01*
X112172595Y-103301096D01*
X112279973Y-103407540D01*
X112360180Y-103487050D01*
X112363942Y-103489808D01*
X112363945Y-103489811D01*
X112476299Y-103572192D01*
X112576954Y-103645995D01*
X112581089Y-103648171D01*
X112581093Y-103648173D01*
X112753722Y-103738998D01*
X112814840Y-103771154D01*
X113068613Y-103859775D01*
X113073206Y-103860647D01*
X113328109Y-103909042D01*
X113328112Y-103909042D01*
X113332698Y-103909913D01*
X113460370Y-103914929D01*
X113596625Y-103920283D01*
X113596630Y-103920283D01*
X113601293Y-103920466D01*
X113705607Y-103909042D01*
X113863844Y-103891713D01*
X113863850Y-103891712D01*
X113868497Y-103891203D01*
X113972774Y-103863749D01*
X114123918Y-103823956D01*
X114123920Y-103823955D01*
X114128441Y-103822765D01*
X114210518Y-103787502D01*
X114371120Y-103718502D01*
X114371122Y-103718501D01*
X114375414Y-103716657D01*
X114494071Y-103643230D01*
X114600017Y-103577669D01*
X114600021Y-103577666D01*
X114603990Y-103575210D01*
X114809149Y-103401530D01*
X114986382Y-103199434D01*
X114991466Y-103191531D01*
X115094609Y-103031176D01*
X115131797Y-102973361D01*
X115223067Y-102770749D01*
X115269283Y-102716855D01*
X115337949Y-102696500D01*
X119483670Y-102696500D01*
X119500115Y-102697578D01*
X119530500Y-102701578D01*
X119538689Y-102700500D01*
X119675942Y-102682431D01*
X119675943Y-102682431D01*
X119684130Y-102681353D01*
X119767990Y-102646616D01*
X119810300Y-102629091D01*
X119858517Y-102619500D01*
X120302072Y-102619500D01*
X120305318Y-102619163D01*
X120305322Y-102619163D01*
X120399235Y-102609419D01*
X120399239Y-102609418D01*
X120406093Y-102608707D01*
X120412629Y-102606526D01*
X120412631Y-102606526D01*
X120564159Y-102555972D01*
X120571107Y-102553654D01*
X120719031Y-102462116D01*
X120768304Y-102412757D01*
X120836758Y-102344184D01*
X120836762Y-102344179D01*
X120841929Y-102339003D01*
X120888741Y-102263060D01*
X120941513Y-102215567D01*
X121011585Y-102204143D01*
X121040231Y-102211194D01*
X121065794Y-102220777D01*
X121081049Y-102224404D01*
X121131914Y-102229930D01*
X121138728Y-102230299D01*
X121825685Y-102230299D01*
X121840924Y-102225824D01*
X121842129Y-102224434D01*
X121843800Y-102216751D01*
X121843800Y-101706800D01*
X121863802Y-101638679D01*
X121917458Y-101592186D01*
X121969800Y-101580800D01*
X122076772Y-101580800D01*
X122144893Y-101600802D01*
X122191386Y-101654458D01*
X122201490Y-101724732D01*
X122199892Y-101733586D01*
X122199400Y-101735847D01*
X122199400Y-102212183D01*
X122203875Y-102227422D01*
X122205265Y-102228627D01*
X122212948Y-102230298D01*
X122904469Y-102230298D01*
X122911290Y-102229928D01*
X122962152Y-102224404D01*
X122977404Y-102220778D01*
X123097854Y-102175623D01*
X123113449Y-102167085D01*
X123215524Y-102090584D01*
X123228085Y-102078023D01*
X123304586Y-101975948D01*
X123313124Y-101960353D01*
X123358278Y-101839905D01*
X123361905Y-101824650D01*
X123367431Y-101773785D01*
X123367800Y-101766971D01*
X123367800Y-101740414D01*
X123363325Y-101725175D01*
X123361935Y-101723970D01*
X123354252Y-101722299D01*
X123218686Y-101722299D01*
X123150565Y-101702297D01*
X123104072Y-101648641D01*
X123093968Y-101578367D01*
X123123462Y-101513787D01*
X123143121Y-101495473D01*
X123215880Y-101440943D01*
X123215881Y-101440942D01*
X123223061Y-101435561D01*
X123236871Y-101417134D01*
X123293729Y-101374619D01*
X123337697Y-101366699D01*
X123349684Y-101366699D01*
X123364923Y-101362224D01*
X123366128Y-101360834D01*
X123367799Y-101353151D01*
X123367799Y-101322030D01*
X123367429Y-101315209D01*
X123361905Y-101264349D01*
X123358431Y-101249736D01*
X123358432Y-101191443D01*
X123358772Y-101190013D01*
X123361545Y-101182616D01*
X123368300Y-101120434D01*
X123368300Y-100668566D01*
X123361545Y-100606384D01*
X123358773Y-100598988D01*
X123358431Y-100597552D01*
X123358432Y-100539258D01*
X123361905Y-100524651D01*
X123367431Y-100473785D01*
X123367800Y-100466971D01*
X123367800Y-100440414D01*
X123363325Y-100425175D01*
X123361935Y-100423970D01*
X123354252Y-100422299D01*
X123337696Y-100422299D01*
X123269575Y-100402297D01*
X123236872Y-100371867D01*
X123223061Y-100353439D01*
X123212234Y-100345325D01*
X123169721Y-100288466D01*
X123164696Y-100217648D01*
X123198756Y-100155354D01*
X123212229Y-100143679D01*
X123223061Y-100135561D01*
X123236871Y-100117134D01*
X123293729Y-100074619D01*
X123337697Y-100066699D01*
X123349684Y-100066699D01*
X123364923Y-100062224D01*
X123366128Y-100060834D01*
X123367799Y-100053151D01*
X123367799Y-100022030D01*
X123367429Y-100015209D01*
X123361905Y-99964349D01*
X123358431Y-99949736D01*
X123358432Y-99891443D01*
X123358772Y-99890013D01*
X123361545Y-99882616D01*
X123368300Y-99820434D01*
X123368300Y-99368566D01*
X123361545Y-99306384D01*
X123358773Y-99298990D01*
X123358691Y-99298645D01*
X123358691Y-99240354D01*
X123358771Y-99240015D01*
X123361545Y-99232617D01*
X123368300Y-99170435D01*
X123368300Y-98718567D01*
X123366881Y-98705500D01*
X123365480Y-98692608D01*
X123378008Y-98622725D01*
X123426329Y-98570710D01*
X123490743Y-98553000D01*
X123567087Y-98553000D01*
X123573539Y-98551628D01*
X123573544Y-98551628D01*
X123669050Y-98531327D01*
X123753888Y-98513294D01*
X123776387Y-98503277D01*
X123922322Y-98438303D01*
X123922324Y-98438302D01*
X123928352Y-98435618D01*
X123935452Y-98430460D01*
X124005549Y-98379531D01*
X124082853Y-98323366D01*
X124092836Y-98312279D01*
X124206221Y-98186352D01*
X124206222Y-98186351D01*
X124210640Y-98181444D01*
X124271728Y-98075637D01*
X124302823Y-98021779D01*
X124302824Y-98021778D01*
X124306127Y-98016056D01*
X124365142Y-97834428D01*
X124368140Y-97805910D01*
X124384414Y-97651065D01*
X124385104Y-97644500D01*
X124380364Y-97599402D01*
X124365832Y-97461135D01*
X124365832Y-97461133D01*
X124365142Y-97454572D01*
X124306127Y-97272944D01*
X124298077Y-97259000D01*
X124224139Y-97130937D01*
X124210640Y-97107556D01*
X124171862Y-97064488D01*
X124087275Y-96970545D01*
X124087274Y-96970544D01*
X124082853Y-96965634D01*
X123928352Y-96853382D01*
X123922324Y-96850698D01*
X123922322Y-96850697D01*
X123759919Y-96778391D01*
X123759918Y-96778391D01*
X123753888Y-96775706D01*
X123646882Y-96752961D01*
X123573544Y-96737372D01*
X123573539Y-96737372D01*
X123567087Y-96736000D01*
X123376113Y-96736000D01*
X123369661Y-96737372D01*
X123369656Y-96737372D01*
X123296318Y-96752961D01*
X123189312Y-96775706D01*
X123183282Y-96778391D01*
X123183281Y-96778391D01*
X123020878Y-96850697D01*
X123020876Y-96850698D01*
X123014848Y-96853382D01*
X123009507Y-96857262D01*
X123009506Y-96857263D01*
X122903701Y-96934135D01*
X122829640Y-96958199D01*
X121135266Y-96958199D01*
X121073084Y-96964954D01*
X120936695Y-97016084D01*
X120820139Y-97103438D01*
X120732785Y-97219994D01*
X120681655Y-97356383D01*
X120674900Y-97418565D01*
X120674900Y-97870433D01*
X120681655Y-97932615D01*
X120684427Y-97940011D01*
X120684769Y-97941447D01*
X120684768Y-97999741D01*
X120681295Y-98014348D01*
X120675769Y-98065214D01*
X120675400Y-98072028D01*
X120675400Y-98098585D01*
X120679875Y-98113824D01*
X120681265Y-98115029D01*
X120688948Y-98116700D01*
X120705504Y-98116700D01*
X120773625Y-98136702D01*
X120806339Y-98167147D01*
X120808153Y-98169568D01*
X120832993Y-98236077D01*
X120817932Y-98305458D01*
X120767752Y-98355682D01*
X120731432Y-98367539D01*
X120731537Y-98367932D01*
X120724239Y-98369888D01*
X120723763Y-98370043D01*
X120715370Y-98371148D01*
X120707739Y-98374309D01*
X120689494Y-98381866D01*
X120579843Y-98427284D01*
X120579838Y-98427287D01*
X120572211Y-98430446D01*
X120449277Y-98524777D01*
X120444251Y-98531327D01*
X120430620Y-98549091D01*
X120419753Y-98561482D01*
X120215640Y-98765595D01*
X120153328Y-98799621D01*
X120126545Y-98802500D01*
X119727928Y-98802500D01*
X119724682Y-98802837D01*
X119724678Y-98802837D01*
X119630765Y-98812581D01*
X119630761Y-98812582D01*
X119623907Y-98813293D01*
X119617371Y-98815474D01*
X119617369Y-98815474D01*
X119566780Y-98832352D01*
X119458893Y-98868346D01*
X119310969Y-98959884D01*
X119305796Y-98965066D01*
X119193242Y-99077816D01*
X119193238Y-99077821D01*
X119188071Y-99082997D01*
X119184231Y-99089227D01*
X119184230Y-99089228D01*
X119105855Y-99216376D01*
X119096791Y-99231080D01*
X119042026Y-99396191D01*
X119041326Y-99403027D01*
X119041325Y-99403030D01*
X119038788Y-99427798D01*
X119031500Y-99498928D01*
X119031500Y-100098072D01*
X119031837Y-100101318D01*
X119031837Y-100101322D01*
X119041418Y-100193658D01*
X119042293Y-100202093D01*
X119044474Y-100208629D01*
X119044474Y-100208631D01*
X119052334Y-100232191D01*
X119097346Y-100367107D01*
X119188884Y-100515031D01*
X119194066Y-100520204D01*
X119295786Y-100621747D01*
X119329865Y-100684030D01*
X119324862Y-100754850D01*
X119295941Y-100799937D01*
X119193246Y-100902812D01*
X119193242Y-100902817D01*
X119188071Y-100907997D01*
X119184231Y-100914227D01*
X119184230Y-100914228D01*
X119109683Y-101035166D01*
X119096791Y-101056080D01*
X119042026Y-101221191D01*
X119041326Y-101228027D01*
X119041325Y-101228030D01*
X119037615Y-101264239D01*
X119031500Y-101323928D01*
X119031500Y-101393500D01*
X119011498Y-101461621D01*
X118957842Y-101508114D01*
X118905500Y-101519500D01*
X115335862Y-101519500D01*
X115267741Y-101499498D01*
X115221248Y-101445842D01*
X115218429Y-101439167D01*
X115176595Y-101331591D01*
X115176594Y-101331589D01*
X115174902Y-101327238D01*
X115171926Y-101322030D01*
X115073661Y-101150103D01*
X115041518Y-101093864D01*
X115016609Y-101062266D01*
X114899905Y-100914228D01*
X114875105Y-100882769D01*
X114679317Y-100698591D01*
X114468738Y-100552506D01*
X114462299Y-100548039D01*
X114462296Y-100548037D01*
X114458457Y-100545374D01*
X114454264Y-100543306D01*
X114221564Y-100428551D01*
X114221561Y-100428550D01*
X114217376Y-100426486D01*
X114209523Y-100423972D01*
X114094290Y-100387086D01*
X113961370Y-100344538D01*
X113956763Y-100343788D01*
X113956760Y-100343787D01*
X113700674Y-100302081D01*
X113700675Y-100302081D01*
X113696063Y-100301330D01*
X113565719Y-100299624D01*
X113431961Y-100297873D01*
X113431958Y-100297873D01*
X113427284Y-100297812D01*
X113160937Y-100334060D01*
X113156451Y-100335368D01*
X113156449Y-100335368D01*
X113130951Y-100342800D01*
X112902874Y-100409278D01*
X112658763Y-100521815D01*
X112634283Y-100537865D01*
X112437881Y-100666631D01*
X112437876Y-100666635D01*
X112433968Y-100669197D01*
X112405559Y-100694553D01*
X112287487Y-100799937D01*
X112233426Y-100848188D01*
X112061544Y-101054854D01*
X112044319Y-101083240D01*
X111934978Y-101263428D01*
X111922096Y-101284656D01*
X111920287Y-101288970D01*
X111920285Y-101288974D01*
X111832611Y-101498054D01*
X111818148Y-101532545D01*
X111751981Y-101793077D01*
X111725050Y-102060526D01*
X107589000Y-102060526D01*
X107589000Y-93269355D01*
X107609002Y-93201234D01*
X107662658Y-93154741D01*
X107732932Y-93144637D01*
X107797512Y-93174131D01*
G37*
%TD.AperFunction*%
%TA.AperFunction,Conductor*%
G36*
X129186875Y-98081823D02*
G01*
X129216711Y-98104717D01*
X129241911Y-98124054D01*
X129249538Y-98127213D01*
X129249543Y-98127216D01*
X129258097Y-98130759D01*
X129313377Y-98175308D01*
X129335797Y-98242672D01*
X129327859Y-98291395D01*
X129320030Y-98312279D01*
X129320028Y-98312287D01*
X129317255Y-98319684D01*
X129310500Y-98381866D01*
X129310500Y-99378134D01*
X129317255Y-99440316D01*
X129328672Y-99470771D01*
X129333855Y-99541577D01*
X129328674Y-99559224D01*
X129317255Y-99589684D01*
X129310500Y-99651866D01*
X129310500Y-100648134D01*
X129317255Y-100710316D01*
X129328672Y-100740771D01*
X129333855Y-100811577D01*
X129328674Y-100829224D01*
X129317255Y-100859684D01*
X129310500Y-100921866D01*
X129310500Y-101918134D01*
X129317255Y-101980316D01*
X129328672Y-102010771D01*
X129333855Y-102081577D01*
X129328674Y-102099224D01*
X129317255Y-102129684D01*
X129310500Y-102191866D01*
X129310500Y-103188134D01*
X129317255Y-103250316D01*
X129328672Y-103280771D01*
X129333855Y-103351577D01*
X129328674Y-103369224D01*
X129317255Y-103399684D01*
X129310500Y-103461866D01*
X129310500Y-104458134D01*
X129317255Y-104520316D01*
X129328672Y-104550771D01*
X129333855Y-104621577D01*
X129328674Y-104639224D01*
X129317255Y-104669684D01*
X129310500Y-104731866D01*
X129310500Y-105052617D01*
X129290498Y-105120738D01*
X129236842Y-105167231D01*
X129166568Y-105177335D01*
X129106410Y-105151500D01*
X129099765Y-105146252D01*
X128961757Y-105061184D01*
X128948576Y-105055037D01*
X128794290Y-105003862D01*
X128780914Y-105000995D01*
X128686562Y-104991328D01*
X128680145Y-104991000D01*
X127405115Y-104991000D01*
X127389876Y-104995475D01*
X127388671Y-104996865D01*
X127387000Y-105004548D01*
X127387000Y-107588884D01*
X127391475Y-107604123D01*
X127392865Y-107605328D01*
X127400548Y-107606999D01*
X128680095Y-107606999D01*
X128686614Y-107606662D01*
X128782206Y-107596743D01*
X128795600Y-107593851D01*
X128949784Y-107542412D01*
X128962962Y-107536239D01*
X129100808Y-107450936D01*
X129106235Y-107446635D01*
X129172045Y-107419997D01*
X129241809Y-107433167D01*
X129293378Y-107481964D01*
X129310500Y-107545380D01*
X129310500Y-108165500D01*
X129290498Y-108233621D01*
X129236842Y-108280114D01*
X129184500Y-108291500D01*
X120990754Y-108291500D01*
X120922633Y-108271498D01*
X120901659Y-108254595D01*
X120469659Y-107822595D01*
X120435633Y-107760283D01*
X120440698Y-107689468D01*
X120483245Y-107632632D01*
X120549765Y-107607821D01*
X120558754Y-107607500D01*
X123083400Y-107607500D01*
X123086646Y-107607163D01*
X123086650Y-107607163D01*
X123182308Y-107597238D01*
X123182312Y-107597237D01*
X123189166Y-107596526D01*
X123195702Y-107594345D01*
X123195704Y-107594345D01*
X123349998Y-107542868D01*
X123356946Y-107540550D01*
X123507348Y-107447478D01*
X123632305Y-107322303D01*
X123654671Y-107286019D01*
X123721275Y-107177968D01*
X123721276Y-107177966D01*
X123725115Y-107171738D01*
X123762072Y-107060316D01*
X123778632Y-107010389D01*
X123778632Y-107010387D01*
X123780797Y-107003861D01*
X123791500Y-106899400D01*
X123791500Y-106896095D01*
X124875001Y-106896095D01*
X124875338Y-106902614D01*
X124885257Y-106998206D01*
X124888149Y-107011600D01*
X124939588Y-107165784D01*
X124945761Y-107178962D01*
X125031063Y-107316807D01*
X125040099Y-107328208D01*
X125154829Y-107442739D01*
X125166240Y-107451751D01*
X125304243Y-107536816D01*
X125317424Y-107542963D01*
X125471710Y-107594138D01*
X125485086Y-107597005D01*
X125579438Y-107606672D01*
X125585854Y-107607000D01*
X126860885Y-107607000D01*
X126876124Y-107602525D01*
X126877329Y-107601135D01*
X126879000Y-107593452D01*
X126879000Y-106571115D01*
X126874525Y-106555876D01*
X126873135Y-106554671D01*
X126865452Y-106553000D01*
X124893116Y-106553000D01*
X124877877Y-106557475D01*
X124876672Y-106558865D01*
X124875001Y-106566548D01*
X124875001Y-106896095D01*
X123791500Y-106896095D01*
X123791500Y-106026885D01*
X124875000Y-106026885D01*
X124879475Y-106042124D01*
X124880865Y-106043329D01*
X124888548Y-106045000D01*
X126860885Y-106045000D01*
X126876124Y-106040525D01*
X126877329Y-106039135D01*
X126879000Y-106031452D01*
X126879000Y-105009116D01*
X126874525Y-104993877D01*
X126873135Y-104992672D01*
X126865452Y-104991001D01*
X125585905Y-104991001D01*
X125579386Y-104991338D01*
X125483794Y-105001257D01*
X125470400Y-105004149D01*
X125316216Y-105055588D01*
X125303038Y-105061761D01*
X125165193Y-105147063D01*
X125153792Y-105156099D01*
X125039261Y-105270829D01*
X125030249Y-105282240D01*
X124945184Y-105420243D01*
X124939037Y-105433424D01*
X124887862Y-105587710D01*
X124884995Y-105601086D01*
X124875328Y-105695438D01*
X124875000Y-105701855D01*
X124875000Y-106026885D01*
X123791500Y-106026885D01*
X123791500Y-105698600D01*
X123789319Y-105677579D01*
X123781238Y-105599692D01*
X123781237Y-105599688D01*
X123780526Y-105592834D01*
X123767055Y-105552455D01*
X123734272Y-105454194D01*
X123724550Y-105425054D01*
X123631478Y-105274652D01*
X123599690Y-105242920D01*
X123565611Y-105180639D01*
X123570614Y-105109819D01*
X123599613Y-105064652D01*
X126456929Y-102207336D01*
X126519241Y-102173310D01*
X126590253Y-102178449D01*
X126704482Y-102221272D01*
X126704488Y-102221274D01*
X126711884Y-102224046D01*
X126774066Y-102230801D01*
X128546734Y-102230801D01*
X128608916Y-102224046D01*
X128745305Y-102172916D01*
X128861861Y-102085562D01*
X128949215Y-101969006D01*
X129000345Y-101832617D01*
X129007100Y-101770435D01*
X129007100Y-101318567D01*
X129000345Y-101256385D01*
X128997573Y-101248991D01*
X128997490Y-101248641D01*
X128997491Y-101190353D01*
X128997571Y-101190014D01*
X129000345Y-101182616D01*
X129007100Y-101120434D01*
X129007100Y-100668566D01*
X129000345Y-100606384D01*
X128997571Y-100598984D01*
X128997232Y-100597559D01*
X128997232Y-100539263D01*
X129000705Y-100524658D01*
X129006231Y-100473787D01*
X129006600Y-100466973D01*
X129006600Y-100440416D01*
X129002125Y-100425177D01*
X129000735Y-100423972D01*
X128993052Y-100422301D01*
X128976497Y-100422301D01*
X128908376Y-100402299D01*
X128875672Y-100371867D01*
X128861861Y-100353439D01*
X128851034Y-100345325D01*
X128808521Y-100288466D01*
X128803496Y-100217648D01*
X128837556Y-100155354D01*
X128851029Y-100143679D01*
X128861861Y-100135561D01*
X128875671Y-100117134D01*
X128932530Y-100074621D01*
X128976496Y-100066701D01*
X128988484Y-100066701D01*
X129003723Y-100062226D01*
X129004928Y-100060836D01*
X129006599Y-100053153D01*
X129006599Y-100022032D01*
X129006229Y-100015211D01*
X129000705Y-99964351D01*
X128997231Y-99949738D01*
X128997231Y-99891448D01*
X128997573Y-99890012D01*
X129000345Y-99882616D01*
X129007100Y-99820434D01*
X129007100Y-99368566D01*
X129000345Y-99306384D01*
X128997573Y-99298990D01*
X128997491Y-99298645D01*
X128997491Y-99240354D01*
X128997571Y-99240015D01*
X129000345Y-99232617D01*
X129007100Y-99170435D01*
X129007100Y-98718567D01*
X129000345Y-98656385D01*
X128997573Y-98648989D01*
X128997231Y-98647553D01*
X128997232Y-98589259D01*
X129000705Y-98574652D01*
X129006231Y-98523786D01*
X129006600Y-98516972D01*
X129006600Y-98490415D01*
X129002125Y-98475176D01*
X129000735Y-98473971D01*
X128993052Y-98472300D01*
X128976496Y-98472300D01*
X128908375Y-98452298D01*
X128875672Y-98421868D01*
X128861861Y-98403440D01*
X128851034Y-98395326D01*
X128808521Y-98338467D01*
X128803496Y-98267649D01*
X128837556Y-98205355D01*
X128851029Y-98193680D01*
X128861861Y-98185562D01*
X128875671Y-98167135D01*
X128932529Y-98124620D01*
X128976497Y-98116700D01*
X128988484Y-98116700D01*
X129003723Y-98112225D01*
X129014946Y-98099273D01*
X129074672Y-98060889D01*
X129145669Y-98060889D01*
X129186875Y-98081823D01*
G37*
%TD.AperFunction*%
%TA.AperFunction,Conductor*%
G36*
X153162836Y-107062602D02*
G01*
X153174341Y-107071215D01*
X153182548Y-107073000D01*
X154555000Y-107073000D01*
X154623121Y-107093002D01*
X154669614Y-107146658D01*
X154681000Y-107199000D01*
X154681000Y-107379200D01*
X154660998Y-107447321D01*
X154607342Y-107493814D01*
X154555000Y-107505200D01*
X150499000Y-107505200D01*
X150430879Y-107485198D01*
X150384386Y-107431542D01*
X150373000Y-107379200D01*
X150373000Y-107199000D01*
X150393002Y-107130879D01*
X150446658Y-107084386D01*
X150499000Y-107073000D01*
X151866884Y-107073000D01*
X151908318Y-107060834D01*
X151923979Y-107050770D01*
X151966554Y-107047470D01*
X151966554Y-107046600D01*
X151974812Y-107046600D01*
X151983000Y-107047678D01*
X152013385Y-107043678D01*
X152029830Y-107042600D01*
X153094715Y-107042600D01*
X153162836Y-107062602D01*
G37*
%TD.AperFunction*%
%TA.AperFunction,Conductor*%
G36*
X148015121Y-91111502D02*
G01*
X148061614Y-91165158D01*
X148073000Y-91217500D01*
X148073000Y-91388000D01*
X148052998Y-91456121D01*
X147999342Y-91502614D01*
X147947000Y-91514000D01*
X146329116Y-91514000D01*
X146313877Y-91518475D01*
X146312672Y-91519865D01*
X146311001Y-91527548D01*
X146311001Y-91754669D01*
X146311371Y-91761490D01*
X146316895Y-91812352D01*
X146320520Y-91827600D01*
X146328939Y-91850057D01*
X146334122Y-91920864D01*
X146328942Y-91938510D01*
X146317255Y-91969684D01*
X146310500Y-92031866D01*
X146310500Y-93013856D01*
X146290498Y-93081977D01*
X146236842Y-93128470D01*
X146166568Y-93138574D01*
X146133251Y-93128963D01*
X146031119Y-93083491D01*
X146031118Y-93083491D01*
X146025088Y-93080806D01*
X145919705Y-93058406D01*
X145844744Y-93042472D01*
X145844739Y-93042472D01*
X145838287Y-93041100D01*
X145647313Y-93041100D01*
X145640861Y-93042472D01*
X145640856Y-93042472D01*
X145565895Y-93058406D01*
X145460512Y-93080806D01*
X145454482Y-93083491D01*
X145454481Y-93083491D01*
X145292078Y-93155797D01*
X145292076Y-93155798D01*
X145286048Y-93158482D01*
X145131547Y-93270734D01*
X145127136Y-93275633D01*
X145127127Y-93275641D01*
X145087718Y-93319410D01*
X145027272Y-93356650D01*
X144994082Y-93361100D01*
X143838518Y-93361100D01*
X143770397Y-93341098D01*
X143744882Y-93319410D01*
X143705473Y-93275641D01*
X143705464Y-93275633D01*
X143701053Y-93270734D01*
X143546552Y-93158482D01*
X143540524Y-93155798D01*
X143540522Y-93155797D01*
X143378119Y-93083491D01*
X143378118Y-93083491D01*
X143372088Y-93080806D01*
X143266705Y-93058406D01*
X143191744Y-93042472D01*
X143191739Y-93042472D01*
X143185287Y-93041100D01*
X142994313Y-93041100D01*
X142987861Y-93042472D01*
X142987856Y-93042472D01*
X142912895Y-93058406D01*
X142807512Y-93080806D01*
X142801482Y-93083491D01*
X142801481Y-93083491D01*
X142639078Y-93155797D01*
X142639076Y-93155798D01*
X142633048Y-93158482D01*
X142478547Y-93270734D01*
X142474129Y-93275641D01*
X142474125Y-93275645D01*
X142385878Y-93373654D01*
X142350760Y-93412656D01*
X142255273Y-93578044D01*
X142196258Y-93759672D01*
X142195568Y-93766233D01*
X142195568Y-93766235D01*
X142192177Y-93798500D01*
X142176296Y-93949600D01*
X142176986Y-93956165D01*
X142191526Y-94094502D01*
X142196258Y-94139528D01*
X142255273Y-94321156D01*
X142258576Y-94326878D01*
X142258577Y-94326879D01*
X142274065Y-94353704D01*
X142350760Y-94486544D01*
X142355178Y-94491451D01*
X142355179Y-94491452D01*
X142459259Y-94607045D01*
X142478547Y-94628466D01*
X142522100Y-94660109D01*
X142607211Y-94721946D01*
X142633048Y-94740718D01*
X142639078Y-94743403D01*
X142644801Y-94746707D01*
X142644063Y-94747985D01*
X142692321Y-94789004D01*
X142712970Y-94856932D01*
X142693617Y-94925239D01*
X142640406Y-94972241D01*
X142613174Y-94981376D01*
X142603976Y-94983331D01*
X142603967Y-94983334D01*
X142597512Y-94984706D01*
X142591482Y-94987391D01*
X142591481Y-94987391D01*
X142429078Y-95059697D01*
X142429076Y-95059698D01*
X142423048Y-95062382D01*
X142268547Y-95174634D01*
X142264126Y-95179544D01*
X142264125Y-95179545D01*
X142151550Y-95304573D01*
X142140760Y-95316556D01*
X142102913Y-95382109D01*
X142050129Y-95473534D01*
X142045273Y-95481944D01*
X141986258Y-95663572D01*
X141985568Y-95670133D01*
X141985568Y-95670135D01*
X141976344Y-95757895D01*
X141966296Y-95853500D01*
X141966986Y-95860065D01*
X141966986Y-95860067D01*
X141967740Y-95867239D01*
X141954971Y-95937078D01*
X141931526Y-95969509D01*
X141542094Y-96358941D01*
X141479782Y-96392967D01*
X141408967Y-96387902D01*
X141352131Y-96345355D01*
X141327320Y-96278835D01*
X141326999Y-96269846D01*
X141326999Y-96215331D01*
X141326629Y-96208510D01*
X141321105Y-96157648D01*
X141317479Y-96142396D01*
X141272324Y-96021946D01*
X141263786Y-96006351D01*
X141187285Y-95904276D01*
X141174724Y-95891715D01*
X141072649Y-95815214D01*
X141057054Y-95806676D01*
X140936606Y-95761522D01*
X140921351Y-95757895D01*
X140870486Y-95752369D01*
X140863672Y-95752000D01*
X140426115Y-95752000D01*
X140410876Y-95756475D01*
X140409671Y-95757865D01*
X140408000Y-95765548D01*
X140408000Y-100723000D01*
X140387998Y-100791121D01*
X140334342Y-100837614D01*
X140282000Y-100849000D01*
X138591115Y-100849000D01*
X138575876Y-100853475D01*
X138574671Y-100854865D01*
X138573000Y-100862548D01*
X138573000Y-101749884D01*
X138577475Y-101765123D01*
X138578865Y-101766328D01*
X138586548Y-101767999D01*
X139028669Y-101767999D01*
X139035490Y-101767629D01*
X139086352Y-101762105D01*
X139101606Y-101758478D01*
X139192271Y-101724490D01*
X139263078Y-101719307D01*
X139280729Y-101724490D01*
X139371391Y-101758478D01*
X139386649Y-101762105D01*
X139437514Y-101767631D01*
X139444328Y-101768000D01*
X139602745Y-101768000D01*
X139670866Y-101788002D01*
X139717359Y-101841658D01*
X139727463Y-101911932D01*
X139697969Y-101976512D01*
X139691840Y-101983095D01*
X135800340Y-105874595D01*
X135738028Y-105908621D01*
X135711245Y-105911500D01*
X132448009Y-105911500D01*
X132379888Y-105891498D01*
X132333395Y-105837842D01*
X132322746Y-105771893D01*
X132327500Y-105728134D01*
X132327500Y-104731866D01*
X132320745Y-104669684D01*
X132310141Y-104641398D01*
X132304956Y-104570592D01*
X132338876Y-104508222D01*
X132379904Y-104480758D01*
X132382487Y-104479688D01*
X132396089Y-104474054D01*
X132519023Y-104379723D01*
X132537680Y-104355409D01*
X132548547Y-104343018D01*
X133633014Y-103258550D01*
X133645405Y-103247683D01*
X133663173Y-103234049D01*
X133669723Y-103229023D01*
X133764054Y-103106089D01*
X133772239Y-103086329D01*
X133823353Y-102962929D01*
X133843578Y-102809300D01*
X133839578Y-102778915D01*
X133838500Y-102762470D01*
X133838500Y-101304669D01*
X135311001Y-101304669D01*
X135311371Y-101311490D01*
X135316895Y-101362352D01*
X135320521Y-101377604D01*
X135365676Y-101498054D01*
X135374214Y-101513649D01*
X135450715Y-101615724D01*
X135463276Y-101628285D01*
X135565351Y-101704786D01*
X135580946Y-101713324D01*
X135701394Y-101758478D01*
X135716649Y-101762105D01*
X135767514Y-101767631D01*
X135774328Y-101768000D01*
X136211885Y-101768000D01*
X136227124Y-101763525D01*
X136228329Y-101762135D01*
X136230000Y-101754452D01*
X136230000Y-101749884D01*
X136738000Y-101749884D01*
X136742475Y-101765123D01*
X136743865Y-101766328D01*
X136751548Y-101767999D01*
X137193669Y-101767999D01*
X137200490Y-101767629D01*
X137251352Y-101762105D01*
X137266606Y-101758478D01*
X137357271Y-101724490D01*
X137428078Y-101719307D01*
X137445729Y-101724490D01*
X137536391Y-101758478D01*
X137551649Y-101762105D01*
X137602514Y-101767631D01*
X137609328Y-101768000D01*
X138046885Y-101768000D01*
X138062124Y-101763525D01*
X138063329Y-101762135D01*
X138065000Y-101754452D01*
X138065000Y-100867115D01*
X138060525Y-100851876D01*
X138059135Y-100850671D01*
X138051452Y-100849000D01*
X136756115Y-100849000D01*
X136740876Y-100853475D01*
X136739671Y-100854865D01*
X136738000Y-100862548D01*
X136738000Y-101749884D01*
X136230000Y-101749884D01*
X136230000Y-100867115D01*
X136225525Y-100851876D01*
X136224135Y-100850671D01*
X136216452Y-100849000D01*
X135329116Y-100849000D01*
X135313877Y-100853475D01*
X135312672Y-100854865D01*
X135311001Y-100862548D01*
X135311001Y-101304669D01*
X133838500Y-101304669D01*
X133838500Y-100658002D01*
X133858502Y-100589881D01*
X133870864Y-100573692D01*
X133984621Y-100447352D01*
X133984622Y-100447351D01*
X133989040Y-100442444D01*
X134049501Y-100337722D01*
X134058067Y-100322885D01*
X135311000Y-100322885D01*
X135315475Y-100338124D01*
X135316865Y-100339329D01*
X135324548Y-100341000D01*
X136211885Y-100341000D01*
X136227124Y-100336525D01*
X136228329Y-100335135D01*
X136230000Y-100327452D01*
X136230000Y-100322885D01*
X136738000Y-100322885D01*
X136742475Y-100338124D01*
X136743865Y-100339329D01*
X136751548Y-100341000D01*
X136917253Y-100341000D01*
X136928278Y-100337763D01*
X136925040Y-100330672D01*
X136750812Y-100156444D01*
X136740723Y-100150935D01*
X136738000Y-100158236D01*
X136738000Y-100322885D01*
X136230000Y-100322885D01*
X136230000Y-99701253D01*
X136738000Y-99701253D01*
X136745530Y-99726898D01*
X137346820Y-100328188D01*
X137370282Y-100341000D01*
X137425253Y-100341000D01*
X137434527Y-100338277D01*
X137874935Y-100338277D01*
X137882236Y-100341000D01*
X138046885Y-100341000D01*
X138062124Y-100336525D01*
X138063329Y-100335135D01*
X138065000Y-100327452D01*
X138065000Y-100322885D01*
X138573000Y-100322885D01*
X138577475Y-100338124D01*
X138578865Y-100339329D01*
X138586548Y-100341000D01*
X138752253Y-100341000D01*
X138763278Y-100337763D01*
X138760040Y-100330672D01*
X138585812Y-100156444D01*
X138575723Y-100150935D01*
X138573000Y-100158236D01*
X138573000Y-100322885D01*
X138065000Y-100322885D01*
X138065000Y-100161747D01*
X138061763Y-100150722D01*
X138054672Y-100153960D01*
X137880444Y-100328188D01*
X137874935Y-100338277D01*
X137434527Y-100338277D01*
X137450898Y-100333470D01*
X138052188Y-99732180D01*
X138065000Y-99708718D01*
X138065000Y-99701253D01*
X138573000Y-99701253D01*
X138580530Y-99726898D01*
X139181820Y-100328188D01*
X139205282Y-100341000D01*
X139260253Y-100341000D01*
X139269527Y-100338277D01*
X139709935Y-100338277D01*
X139717236Y-100341000D01*
X139881885Y-100341000D01*
X139897124Y-100336525D01*
X139898329Y-100335135D01*
X139900000Y-100327452D01*
X139900000Y-100161747D01*
X139896763Y-100150722D01*
X139889672Y-100153960D01*
X139715444Y-100328188D01*
X139709935Y-100338277D01*
X139269527Y-100338277D01*
X139285898Y-100333470D01*
X139887188Y-99732180D01*
X139900000Y-99708718D01*
X139900000Y-99653747D01*
X139892470Y-99628102D01*
X139291180Y-99026812D01*
X139273646Y-99017237D01*
X139709722Y-99017237D01*
X139712960Y-99024328D01*
X139887188Y-99198556D01*
X139897277Y-99204065D01*
X139900000Y-99196764D01*
X139900000Y-99032115D01*
X139895525Y-99016876D01*
X139894135Y-99015671D01*
X139886452Y-99014000D01*
X139720747Y-99014000D01*
X139709722Y-99017237D01*
X139273646Y-99017237D01*
X139267718Y-99014000D01*
X139212747Y-99014000D01*
X139187102Y-99021530D01*
X138585812Y-99622820D01*
X138573000Y-99646282D01*
X138573000Y-99701253D01*
X138065000Y-99701253D01*
X138065000Y-99653747D01*
X138057470Y-99628102D01*
X137456180Y-99026812D01*
X137438646Y-99017237D01*
X137874722Y-99017237D01*
X137877960Y-99024328D01*
X138052188Y-99198556D01*
X138062277Y-99204065D01*
X138065000Y-99196764D01*
X138065000Y-99193253D01*
X138573000Y-99193253D01*
X138576237Y-99204278D01*
X138583328Y-99201040D01*
X138757556Y-99026812D01*
X138763065Y-99016723D01*
X138755764Y-99014000D01*
X138591115Y-99014000D01*
X138575876Y-99018475D01*
X138574671Y-99019865D01*
X138573000Y-99027548D01*
X138573000Y-99193253D01*
X138065000Y-99193253D01*
X138065000Y-99032115D01*
X138060525Y-99016876D01*
X138059135Y-99015671D01*
X138051452Y-99014000D01*
X137885747Y-99014000D01*
X137874722Y-99017237D01*
X137438646Y-99017237D01*
X137432718Y-99014000D01*
X137377747Y-99014000D01*
X137352102Y-99021530D01*
X136750812Y-99622820D01*
X136738000Y-99646282D01*
X136738000Y-99701253D01*
X136230000Y-99701253D01*
X136230000Y-99193253D01*
X136738000Y-99193253D01*
X136741237Y-99204278D01*
X136748328Y-99201040D01*
X136922556Y-99026812D01*
X136928065Y-99016723D01*
X136920764Y-99014000D01*
X136756115Y-99014000D01*
X136740876Y-99018475D01*
X136739671Y-99019865D01*
X136738000Y-99027548D01*
X136738000Y-99193253D01*
X136230000Y-99193253D01*
X136230000Y-99032115D01*
X136225525Y-99016876D01*
X136224135Y-99015671D01*
X136216452Y-99014000D01*
X135329116Y-99014000D01*
X135313877Y-99018475D01*
X135312672Y-99019865D01*
X135311001Y-99027548D01*
X135311001Y-99469669D01*
X135311371Y-99476490D01*
X135316895Y-99527352D01*
X135320522Y-99542606D01*
X135354510Y-99633271D01*
X135359693Y-99704078D01*
X135354510Y-99721729D01*
X135320522Y-99812391D01*
X135316895Y-99827649D01*
X135311369Y-99878514D01*
X135311000Y-99885328D01*
X135311000Y-100322885D01*
X134058067Y-100322885D01*
X134081223Y-100282779D01*
X134081224Y-100282778D01*
X134084527Y-100277056D01*
X134143542Y-100095428D01*
X134146522Y-100067080D01*
X134162814Y-99912065D01*
X134163504Y-99905500D01*
X134145288Y-99732180D01*
X134144232Y-99722135D01*
X134144232Y-99722133D01*
X134143542Y-99715572D01*
X134084527Y-99533944D01*
X134064311Y-99498928D01*
X134013173Y-99410355D01*
X133989040Y-99368556D01*
X133926928Y-99299573D01*
X133865675Y-99231545D01*
X133865674Y-99231544D01*
X133861253Y-99226634D01*
X133706752Y-99114382D01*
X133700726Y-99111699D01*
X133700719Y-99111695D01*
X133630072Y-99080242D01*
X133575976Y-99034262D01*
X133555326Y-98966335D01*
X133574678Y-98898027D01*
X133592225Y-98876040D01*
X135095906Y-97372359D01*
X135158218Y-97338333D01*
X135229033Y-97343398D01*
X135285869Y-97385945D01*
X135310680Y-97452465D01*
X135311001Y-97461454D01*
X135311001Y-97634669D01*
X135311371Y-97641490D01*
X135316895Y-97692352D01*
X135320522Y-97707606D01*
X135354510Y-97798271D01*
X135359693Y-97869078D01*
X135354510Y-97886729D01*
X135320522Y-97977391D01*
X135316895Y-97992649D01*
X135311369Y-98043514D01*
X135311000Y-98050328D01*
X135311000Y-98487885D01*
X135315475Y-98503124D01*
X135316865Y-98504329D01*
X135324548Y-98506000D01*
X136211885Y-98506000D01*
X136227124Y-98501525D01*
X136228329Y-98500135D01*
X136230000Y-98492452D01*
X136230000Y-98487885D01*
X136738000Y-98487885D01*
X136742475Y-98503124D01*
X136743865Y-98504329D01*
X136751548Y-98506000D01*
X136917253Y-98506000D01*
X136928278Y-98502763D01*
X136925040Y-98495672D01*
X136750812Y-98321444D01*
X136740723Y-98315935D01*
X136738000Y-98323236D01*
X136738000Y-98487885D01*
X136230000Y-98487885D01*
X136230000Y-97866253D01*
X136738000Y-97866253D01*
X136745530Y-97891898D01*
X137346820Y-98493188D01*
X137370282Y-98506000D01*
X137425253Y-98506000D01*
X137434527Y-98503277D01*
X137874935Y-98503277D01*
X137882236Y-98506000D01*
X138046885Y-98506000D01*
X138062124Y-98501525D01*
X138063329Y-98500135D01*
X138065000Y-98492452D01*
X138065000Y-98487885D01*
X138573000Y-98487885D01*
X138577475Y-98503124D01*
X138578865Y-98504329D01*
X138586548Y-98506000D01*
X138752253Y-98506000D01*
X138763278Y-98502763D01*
X138760040Y-98495672D01*
X138585812Y-98321444D01*
X138575723Y-98315935D01*
X138573000Y-98323236D01*
X138573000Y-98487885D01*
X138065000Y-98487885D01*
X138065000Y-98326747D01*
X138061763Y-98315722D01*
X138054672Y-98318960D01*
X137880444Y-98493188D01*
X137874935Y-98503277D01*
X137434527Y-98503277D01*
X137450898Y-98498470D01*
X138052188Y-97897180D01*
X138065000Y-97873718D01*
X138065000Y-97866253D01*
X138573000Y-97866253D01*
X138580530Y-97891898D01*
X139181820Y-98493188D01*
X139205282Y-98506000D01*
X139260253Y-98506000D01*
X139269527Y-98503277D01*
X139709935Y-98503277D01*
X139717236Y-98506000D01*
X139881885Y-98506000D01*
X139897124Y-98501525D01*
X139898329Y-98500135D01*
X139900000Y-98492452D01*
X139900000Y-98326747D01*
X139896763Y-98315722D01*
X139889672Y-98318960D01*
X139715444Y-98493188D01*
X139709935Y-98503277D01*
X139269527Y-98503277D01*
X139285898Y-98498470D01*
X139887188Y-97897180D01*
X139900000Y-97873718D01*
X139900000Y-97818747D01*
X139892470Y-97793102D01*
X139291180Y-97191812D01*
X139273646Y-97182237D01*
X139709722Y-97182237D01*
X139712960Y-97189328D01*
X139887188Y-97363556D01*
X139897277Y-97369065D01*
X139900000Y-97361764D01*
X139900000Y-97197115D01*
X139895525Y-97181876D01*
X139894135Y-97180671D01*
X139886452Y-97179000D01*
X139720747Y-97179000D01*
X139709722Y-97182237D01*
X139273646Y-97182237D01*
X139267718Y-97179000D01*
X139212747Y-97179000D01*
X139187102Y-97186530D01*
X138585812Y-97787820D01*
X138573000Y-97811282D01*
X138573000Y-97866253D01*
X138065000Y-97866253D01*
X138065000Y-97818747D01*
X138057470Y-97793102D01*
X137456180Y-97191812D01*
X137438646Y-97182237D01*
X137874722Y-97182237D01*
X137877960Y-97189328D01*
X138052188Y-97363556D01*
X138062277Y-97369065D01*
X138065000Y-97361764D01*
X138065000Y-97358253D01*
X138573000Y-97358253D01*
X138576237Y-97369278D01*
X138583328Y-97366040D01*
X138757556Y-97191812D01*
X138763065Y-97181723D01*
X138755764Y-97179000D01*
X138591115Y-97179000D01*
X138575876Y-97183475D01*
X138574671Y-97184865D01*
X138573000Y-97192548D01*
X138573000Y-97358253D01*
X138065000Y-97358253D01*
X138065000Y-97197115D01*
X138060525Y-97181876D01*
X138059135Y-97180671D01*
X138051452Y-97179000D01*
X137885747Y-97179000D01*
X137874722Y-97182237D01*
X137438646Y-97182237D01*
X137432718Y-97179000D01*
X137377747Y-97179000D01*
X137352102Y-97186530D01*
X136750812Y-97787820D01*
X136738000Y-97811282D01*
X136738000Y-97866253D01*
X136230000Y-97866253D01*
X136230000Y-97358253D01*
X136738000Y-97358253D01*
X136741237Y-97369278D01*
X136748328Y-97366040D01*
X136922556Y-97191812D01*
X136928065Y-97181723D01*
X136920764Y-97179000D01*
X136756115Y-97179000D01*
X136740876Y-97183475D01*
X136739671Y-97184865D01*
X136738000Y-97192548D01*
X136738000Y-97358253D01*
X136230000Y-97358253D01*
X136230000Y-96797000D01*
X136250002Y-96728879D01*
X136303658Y-96682386D01*
X136356000Y-96671000D01*
X138046885Y-96671000D01*
X138062124Y-96666525D01*
X138063329Y-96665135D01*
X138065000Y-96657452D01*
X138065000Y-96652885D01*
X138573000Y-96652885D01*
X138577475Y-96668124D01*
X138578865Y-96669329D01*
X138586548Y-96671000D01*
X139881885Y-96671000D01*
X139897124Y-96666525D01*
X139898329Y-96665135D01*
X139900000Y-96657452D01*
X139900000Y-95770116D01*
X139895525Y-95754877D01*
X139894135Y-95753672D01*
X139886452Y-95752001D01*
X139444331Y-95752001D01*
X139437510Y-95752371D01*
X139386648Y-95757895D01*
X139371394Y-95761522D01*
X139280729Y-95795510D01*
X139209922Y-95800693D01*
X139192271Y-95795510D01*
X139101609Y-95761522D01*
X139086351Y-95757895D01*
X139035486Y-95752369D01*
X139028672Y-95752000D01*
X138591115Y-95752000D01*
X138575876Y-95756475D01*
X138574671Y-95757865D01*
X138573000Y-95765548D01*
X138573000Y-96652885D01*
X138065000Y-96652885D01*
X138065000Y-95770116D01*
X138060525Y-95754877D01*
X138059135Y-95753672D01*
X138051452Y-95752001D01*
X137609331Y-95752001D01*
X137602510Y-95752371D01*
X137551648Y-95757895D01*
X137536394Y-95761522D01*
X137445729Y-95795510D01*
X137374922Y-95800693D01*
X137357271Y-95795510D01*
X137266609Y-95761522D01*
X137251351Y-95757895D01*
X137200486Y-95752369D01*
X137193672Y-95752000D01*
X137020455Y-95752000D01*
X136952334Y-95731998D01*
X136905841Y-95678342D01*
X136895737Y-95608068D01*
X136925231Y-95543488D01*
X136931360Y-95536905D01*
X141339860Y-91128405D01*
X141402172Y-91094379D01*
X141428955Y-91091500D01*
X147947000Y-91091500D01*
X148015121Y-91111502D01*
G37*
%TD.AperFunction*%
%TA.AperFunction,Conductor*%
G36*
X153533649Y-101737893D02*
G01*
X153601271Y-101768000D01*
X153612712Y-101773094D01*
X153706113Y-101792947D01*
X153793056Y-101811428D01*
X153793061Y-101811428D01*
X153799513Y-101812800D01*
X153990487Y-101812800D01*
X153996939Y-101811428D01*
X153996944Y-101811428D01*
X154129303Y-101783294D01*
X154200094Y-101788696D01*
X154256727Y-101831513D01*
X154281220Y-101898151D01*
X154281500Y-101906541D01*
X154281500Y-102109000D01*
X154261498Y-102177121D01*
X154207842Y-102223614D01*
X154155500Y-102235000D01*
X152645615Y-102235000D01*
X152630376Y-102239475D01*
X152629171Y-102240865D01*
X152627500Y-102248548D01*
X152627500Y-102463885D01*
X152639976Y-102506374D01*
X152648898Y-102520258D01*
X152654000Y-102555752D01*
X152654000Y-103633000D01*
X152633998Y-103701121D01*
X152580342Y-103747614D01*
X152528000Y-103759000D01*
X152272000Y-103759000D01*
X152203879Y-103738998D01*
X152157386Y-103685342D01*
X152146000Y-103633000D01*
X152146000Y-103013938D01*
X152143200Y-102994464D01*
X152143200Y-101853000D01*
X152163202Y-101784879D01*
X152216858Y-101738386D01*
X152269200Y-101727000D01*
X153482400Y-101727000D01*
X153533649Y-101737893D01*
G37*
%TD.AperFunction*%
%TA.AperFunction,Conductor*%
G36*
X162387994Y-96620237D02*
G01*
X162418554Y-96642718D01*
X163074939Y-97299103D01*
X163108962Y-97361413D01*
X163103898Y-97432228D01*
X163061351Y-97489064D01*
X162996824Y-97513716D01*
X162942491Y-97518470D01*
X162931688Y-97520375D01*
X162721239Y-97576764D01*
X162710947Y-97580510D01*
X162513489Y-97672586D01*
X162503993Y-97678069D01*
X162325533Y-97803028D01*
X162317125Y-97810084D01*
X162163084Y-97964125D01*
X162156028Y-97972533D01*
X162031069Y-98150993D01*
X162025586Y-98160489D01*
X161933510Y-98357947D01*
X161929764Y-98368239D01*
X161883606Y-98540503D01*
X161883942Y-98554599D01*
X161891884Y-98558000D01*
X163993000Y-98558000D01*
X164061121Y-98578002D01*
X164107614Y-98631658D01*
X164119000Y-98684000D01*
X164119000Y-98940000D01*
X164098998Y-99008121D01*
X164045342Y-99054614D01*
X163993000Y-99066000D01*
X161897033Y-99066000D01*
X161883502Y-99069973D01*
X161882273Y-99078522D01*
X161929764Y-99255761D01*
X161933510Y-99266053D01*
X162025586Y-99463511D01*
X162031069Y-99473007D01*
X162156028Y-99651467D01*
X162163084Y-99659875D01*
X162317125Y-99813916D01*
X162325533Y-99820972D01*
X162503993Y-99945931D01*
X162513489Y-99951414D01*
X162710947Y-100043490D01*
X162721239Y-100047236D01*
X162931688Y-100103625D01*
X162942481Y-100105528D01*
X163105170Y-100119762D01*
X163110635Y-100120000D01*
X163682245Y-100120000D01*
X163750366Y-100140002D01*
X163796859Y-100193658D01*
X163806963Y-100263932D01*
X163777469Y-100328512D01*
X163771340Y-100335095D01*
X161666565Y-102439870D01*
X161604253Y-102473896D01*
X161533438Y-102468831D01*
X161495640Y-102446586D01*
X161432273Y-102392466D01*
X161342856Y-102316097D01*
X161120271Y-102179697D01*
X161115701Y-102177804D01*
X161115697Y-102177802D01*
X160883662Y-102081690D01*
X160883660Y-102081689D01*
X160879089Y-102079796D01*
X160790069Y-102058424D01*
X160630062Y-102020009D01*
X160630056Y-102020008D01*
X160625249Y-102018854D01*
X160365000Y-101998372D01*
X160104751Y-102018854D01*
X160099944Y-102020008D01*
X160099938Y-102020009D01*
X159939931Y-102058424D01*
X159850911Y-102079796D01*
X159846340Y-102081689D01*
X159846338Y-102081690D01*
X159761921Y-102116657D01*
X159691331Y-102124246D01*
X159624608Y-102089343D01*
X159480860Y-101945595D01*
X159446834Y-101883283D01*
X159451899Y-101812468D01*
X159494446Y-101755632D01*
X159560966Y-101730821D01*
X159569955Y-101730500D01*
X159672072Y-101730500D01*
X159675318Y-101730163D01*
X159675322Y-101730163D01*
X159769235Y-101720419D01*
X159769239Y-101720418D01*
X159776093Y-101719707D01*
X159782629Y-101717526D01*
X159782631Y-101717526D01*
X159934159Y-101666972D01*
X159941107Y-101664654D01*
X160089031Y-101573116D01*
X160133838Y-101528231D01*
X160206758Y-101455184D01*
X160206762Y-101455179D01*
X160211929Y-101450003D01*
X160218609Y-101439167D01*
X160289177Y-101324684D01*
X160341949Y-101277191D01*
X160396437Y-101264800D01*
X160559287Y-101264800D01*
X160565739Y-101263428D01*
X160565744Y-101263428D01*
X160652687Y-101244947D01*
X160746088Y-101225094D01*
X160752119Y-101222409D01*
X160914522Y-101150103D01*
X160914524Y-101150102D01*
X160920552Y-101147418D01*
X161075053Y-101035166D01*
X161079475Y-101030255D01*
X161198421Y-100898152D01*
X161198422Y-100898151D01*
X161202840Y-100893244D01*
X161298327Y-100727856D01*
X161357342Y-100546228D01*
X161359964Y-100521286D01*
X161376614Y-100362865D01*
X161377304Y-100356300D01*
X161375104Y-100335368D01*
X161358032Y-100172935D01*
X161358032Y-100172933D01*
X161357342Y-100166372D01*
X161298327Y-99984744D01*
X161286351Y-99964000D01*
X161244462Y-99891448D01*
X161202840Y-99819356D01*
X161189592Y-99804642D01*
X161079475Y-99682345D01*
X161079474Y-99682344D01*
X161075053Y-99677434D01*
X160941400Y-99580329D01*
X160925894Y-99569063D01*
X160925893Y-99569062D01*
X160920552Y-99565182D01*
X160914524Y-99562498D01*
X160914522Y-99562497D01*
X160752119Y-99490191D01*
X160752118Y-99490191D01*
X160746088Y-99487506D01*
X160652688Y-99467653D01*
X160565744Y-99449172D01*
X160565739Y-99449172D01*
X160559287Y-99447800D01*
X160493348Y-99447800D01*
X160425227Y-99427798D01*
X160378734Y-99374142D01*
X160367512Y-99315374D01*
X160368000Y-99305818D01*
X160368000Y-99231615D01*
X160363525Y-99216376D01*
X160362135Y-99215171D01*
X160354452Y-99213500D01*
X159257000Y-99213500D01*
X159188879Y-99193498D01*
X159142386Y-99139842D01*
X159131000Y-99087500D01*
X159131000Y-98687385D01*
X159639000Y-98687385D01*
X159643475Y-98702624D01*
X159644865Y-98703829D01*
X159652548Y-98705500D01*
X160349885Y-98705500D01*
X160365124Y-98701025D01*
X160366329Y-98699635D01*
X160368000Y-98691952D01*
X160368000Y-98613234D01*
X160367663Y-98606718D01*
X160357925Y-98512868D01*
X160355032Y-98499472D01*
X160304512Y-98348047D01*
X160298347Y-98334885D01*
X160214574Y-98199508D01*
X160205540Y-98188110D01*
X160092871Y-98075637D01*
X160081460Y-98066625D01*
X159945937Y-97983088D01*
X159932759Y-97976944D01*
X159781234Y-97926685D01*
X159767868Y-97923819D01*
X159675230Y-97914328D01*
X159668815Y-97914000D01*
X159657115Y-97914000D01*
X159641876Y-97918475D01*
X159640671Y-97919865D01*
X159639000Y-97927548D01*
X159639000Y-98687385D01*
X159131000Y-98687385D01*
X159131000Y-97932115D01*
X159126525Y-97916876D01*
X159125135Y-97915671D01*
X159117452Y-97914000D01*
X159101234Y-97914000D01*
X159094718Y-97914337D01*
X159000861Y-97924076D01*
X158989094Y-97926617D01*
X158918286Y-97921444D01*
X158861516Y-97878810D01*
X158836807Y-97812252D01*
X158836500Y-97803456D01*
X158836500Y-97461678D01*
X158856502Y-97393557D01*
X158910158Y-97347064D01*
X158980432Y-97336960D01*
X159013953Y-97347587D01*
X159014135Y-97347134D01*
X159029799Y-97353431D01*
X159045228Y-97360890D01*
X159059891Y-97369253D01*
X159065174Y-97371124D01*
X159065181Y-97371127D01*
X159135227Y-97395931D01*
X159140135Y-97397786D01*
X159214293Y-97427597D01*
X159219787Y-97428735D01*
X159219788Y-97428735D01*
X159230823Y-97431020D01*
X159247330Y-97435629D01*
X159263243Y-97441264D01*
X159306173Y-97448294D01*
X159342091Y-97454176D01*
X159347280Y-97455138D01*
X159421011Y-97470407D01*
X159421015Y-97470408D01*
X159425537Y-97471344D01*
X159430148Y-97471610D01*
X159430149Y-97471610D01*
X159451966Y-97472868D01*
X159465071Y-97474315D01*
X159470305Y-97475172D01*
X159476134Y-97476126D01*
X159481748Y-97476038D01*
X159481750Y-97476038D01*
X159578635Y-97474516D01*
X159580614Y-97474500D01*
X160947915Y-97474500D01*
X160964360Y-97475578D01*
X160985189Y-97478320D01*
X160990788Y-97478056D01*
X160990790Y-97478056D01*
X161063223Y-97474640D01*
X161069158Y-97474500D01*
X161090735Y-97474500D01*
X161093521Y-97474251D01*
X161093529Y-97474251D01*
X161115601Y-97472281D01*
X161120865Y-97471922D01*
X161173653Y-97469432D01*
X161200675Y-97468158D01*
X161206134Y-97466908D01*
X161206139Y-97466907D01*
X161217132Y-97464389D01*
X161234063Y-97461708D01*
X161240483Y-97461135D01*
X161250872Y-97460208D01*
X161256284Y-97458727D01*
X161256292Y-97458726D01*
X161327941Y-97439125D01*
X161333059Y-97437839D01*
X161355226Y-97432762D01*
X161410957Y-97419998D01*
X161416114Y-97417798D01*
X161416121Y-97417796D01*
X161426483Y-97413376D01*
X161442670Y-97407739D01*
X161453537Y-97404766D01*
X161453544Y-97404763D01*
X161458952Y-97403284D01*
X161464010Y-97400872D01*
X161464014Y-97400870D01*
X161531080Y-97368881D01*
X161535879Y-97366714D01*
X161609386Y-97335360D01*
X161614074Y-97332281D01*
X161614077Y-97332279D01*
X161623494Y-97326093D01*
X161638428Y-97317678D01*
X161648594Y-97312829D01*
X161648595Y-97312828D01*
X161653663Y-97310411D01*
X161658218Y-97307138D01*
X161658228Y-97307132D01*
X161718544Y-97263790D01*
X161722894Y-97260800D01*
X161785832Y-97219458D01*
X161785836Y-97219455D01*
X161789692Y-97216922D01*
X161809460Y-97199309D01*
X161819755Y-97191062D01*
X161824292Y-97187802D01*
X161824293Y-97187802D01*
X161828851Y-97184526D01*
X161874420Y-97137503D01*
X161893751Y-97117555D01*
X161907529Y-97105279D01*
X161923311Y-97093169D01*
X161975902Y-97035372D01*
X161980001Y-97031076D01*
X161995242Y-97015835D01*
X162011260Y-96996678D01*
X162014731Y-96992699D01*
X162039359Y-96965634D01*
X162068497Y-96933611D01*
X162073327Y-96925912D01*
X162077471Y-96919307D01*
X162087541Y-96905447D01*
X162091831Y-96900316D01*
X162098370Y-96892495D01*
X162137967Y-96823075D01*
X162140658Y-96818578D01*
X162183134Y-96750865D01*
X162189431Y-96735201D01*
X162196890Y-96719771D01*
X162199465Y-96715256D01*
X162205253Y-96705109D01*
X162210689Y-96689759D01*
X162252281Y-96632223D01*
X162318378Y-96606305D01*
X162387994Y-96620237D01*
G37*
%TD.AperFunction*%
%TA.AperFunction,Conductor*%
G36*
X155274766Y-97599402D02*
G01*
X155295740Y-97616305D01*
X155598449Y-97919014D01*
X155609314Y-97931402D01*
X155627977Y-97955723D01*
X155634527Y-97960749D01*
X155634530Y-97960752D01*
X155680955Y-97996375D01*
X155750911Y-98050054D01*
X155757026Y-98052587D01*
X155805494Y-98103419D01*
X155819500Y-98161155D01*
X155819500Y-98334134D01*
X155826255Y-98396316D01*
X155877385Y-98532705D01*
X155896343Y-98558000D01*
X155935953Y-98610852D01*
X155960801Y-98677358D01*
X155945748Y-98746741D01*
X155935953Y-98761982D01*
X155883214Y-98832352D01*
X155874676Y-98847946D01*
X155829522Y-98968394D01*
X155825895Y-98983649D01*
X155820369Y-99034514D01*
X155820000Y-99041328D01*
X155820000Y-99563885D01*
X155824475Y-99579124D01*
X155825865Y-99580329D01*
X155833548Y-99582000D01*
X157456000Y-99582000D01*
X157524121Y-99602002D01*
X157570614Y-99655658D01*
X157582000Y-99708000D01*
X157582000Y-99964000D01*
X157561998Y-100032121D01*
X157508342Y-100078614D01*
X157456000Y-100090000D01*
X155838116Y-100090000D01*
X155822877Y-100094475D01*
X155821672Y-100095865D01*
X155820001Y-100103548D01*
X155820001Y-100469744D01*
X155799999Y-100537865D01*
X155783096Y-100558839D01*
X155280327Y-101061608D01*
X155257541Y-101079653D01*
X155135969Y-101154884D01*
X155028899Y-101262141D01*
X154966618Y-101296220D01*
X154895798Y-101291217D01*
X154850710Y-101262297D01*
X154817233Y-101228879D01*
X154783153Y-101166597D01*
X154786099Y-101107174D01*
X154785128Y-101106968D01*
X154786408Y-101100945D01*
X154786417Y-101100768D01*
X154788542Y-101094228D01*
X154790074Y-101079658D01*
X154807814Y-100910865D01*
X154808504Y-100904300D01*
X154802692Y-100849000D01*
X154789232Y-100720935D01*
X154789232Y-100720933D01*
X154788542Y-100714372D01*
X154729527Y-100532744D01*
X154724855Y-100524651D01*
X154668179Y-100426486D01*
X154634040Y-100367356D01*
X154627718Y-100360334D01*
X154510675Y-100230345D01*
X154510671Y-100230341D01*
X154506253Y-100225434D01*
X154403421Y-100150722D01*
X154357094Y-100117063D01*
X154357093Y-100117062D01*
X154351752Y-100113182D01*
X154345724Y-100110498D01*
X154345722Y-100110497D01*
X154183319Y-100038191D01*
X154183318Y-100038191D01*
X154177288Y-100035506D01*
X154071825Y-100013089D01*
X153996944Y-99997172D01*
X153996939Y-99997172D01*
X153990487Y-99995800D01*
X153799513Y-99995800D01*
X153793061Y-99997172D01*
X153793056Y-99997172D01*
X153718175Y-100013089D01*
X153612712Y-100035506D01*
X153606682Y-100038191D01*
X153606681Y-100038191D01*
X153444278Y-100110497D01*
X153444276Y-100110498D01*
X153438248Y-100113182D01*
X153432907Y-100117062D01*
X153432906Y-100117063D01*
X153356005Y-100172935D01*
X153283747Y-100225434D01*
X153279336Y-100230333D01*
X153279327Y-100230341D01*
X153239918Y-100274110D01*
X153179472Y-100311350D01*
X153146282Y-100315800D01*
X152209030Y-100315800D01*
X152192584Y-100314722D01*
X152162200Y-100310722D01*
X152008571Y-100330947D01*
X151961232Y-100350556D01*
X151865411Y-100390246D01*
X151815491Y-100428551D01*
X151749030Y-100479548D01*
X151749027Y-100479551D01*
X151742477Y-100484577D01*
X151730561Y-100500106D01*
X151723815Y-100508897D01*
X151712949Y-100521286D01*
X151618754Y-100615481D01*
X151556442Y-100649507D01*
X151485627Y-100644442D01*
X151428791Y-100601895D01*
X151404737Y-100542833D01*
X151400405Y-100509930D01*
X151400402Y-100509909D01*
X151398453Y-100495080D01*
X151390376Y-100433657D01*
X151390357Y-100433612D01*
X151390352Y-100433571D01*
X151360017Y-100360334D01*
X151350116Y-100336421D01*
X151342539Y-100265830D01*
X151377438Y-100199127D01*
X151411018Y-100165547D01*
X151423409Y-100154680D01*
X151441170Y-100141052D01*
X151441173Y-100141049D01*
X151447723Y-100136023D01*
X151472783Y-100103365D01*
X151484713Y-100087817D01*
X151542054Y-100013089D01*
X151544587Y-100006974D01*
X151595419Y-99958506D01*
X151653155Y-99944500D01*
X152076134Y-99944500D01*
X152138316Y-99937745D01*
X152274705Y-99886615D01*
X152391261Y-99799261D01*
X152478615Y-99682705D01*
X152529745Y-99546316D01*
X152536500Y-99484134D01*
X152536500Y-97705400D01*
X152556502Y-97637279D01*
X152610158Y-97590786D01*
X152662500Y-97579400D01*
X155206645Y-97579400D01*
X155274766Y-97599402D01*
G37*
%TD.AperFunction*%
%TA.AperFunction,Conductor*%
G36*
X154687621Y-92716002D02*
G01*
X154734114Y-92769658D01*
X154745500Y-92822000D01*
X154745500Y-92973372D01*
X154725498Y-93041493D01*
X154671842Y-93087986D01*
X154601568Y-93098090D01*
X154592715Y-93096492D01*
X154590453Y-93096000D01*
X154372115Y-93096000D01*
X154356876Y-93100475D01*
X154355671Y-93101865D01*
X154354000Y-93109548D01*
X154354000Y-93685884D01*
X154358475Y-93701123D01*
X154359865Y-93702328D01*
X154367548Y-93703999D01*
X154398669Y-93703999D01*
X154405490Y-93703629D01*
X154464207Y-93697252D01*
X154464467Y-93699647D01*
X154493533Y-93699649D01*
X154493793Y-93697252D01*
X154552514Y-93703631D01*
X154559328Y-93704000D01*
X154585885Y-93704000D01*
X154601124Y-93699525D01*
X154602329Y-93698135D01*
X154604000Y-93690452D01*
X154604000Y-93554885D01*
X154624002Y-93486764D01*
X154677658Y-93440271D01*
X154747932Y-93430167D01*
X154812512Y-93459661D01*
X154830824Y-93479317D01*
X154831866Y-93480707D01*
X154840325Y-93491993D01*
X154865174Y-93558497D01*
X154865500Y-93567560D01*
X154865500Y-96276400D01*
X154845498Y-96344521D01*
X154791842Y-96391014D01*
X154739500Y-96402400D01*
X152662500Y-96402400D01*
X152594379Y-96382398D01*
X152547886Y-96328742D01*
X152536500Y-96276400D01*
X152536500Y-95587866D01*
X152529745Y-95525684D01*
X152478615Y-95389295D01*
X152391261Y-95272739D01*
X152274705Y-95185385D01*
X152138316Y-95134255D01*
X152076134Y-95127500D01*
X151742500Y-95127500D01*
X151674379Y-95107498D01*
X151627886Y-95053842D01*
X151616500Y-95001500D01*
X151616500Y-94179051D01*
X151636502Y-94110930D01*
X151690158Y-94064437D01*
X151760432Y-94054333D01*
X151782167Y-94059458D01*
X151787765Y-94061315D01*
X151801132Y-94064181D01*
X151893770Y-94073672D01*
X151900185Y-94074000D01*
X151974385Y-94074000D01*
X151989624Y-94069525D01*
X151990829Y-94068135D01*
X151992500Y-94060452D01*
X151992500Y-93043500D01*
X152012502Y-92975379D01*
X152066158Y-92928886D01*
X152118500Y-92917500D01*
X152374500Y-92917500D01*
X152442621Y-92937502D01*
X152489114Y-92991158D01*
X152500500Y-93043500D01*
X152500500Y-94055885D01*
X152504975Y-94071124D01*
X152506365Y-94072329D01*
X152514048Y-94074000D01*
X152592766Y-94074000D01*
X152599282Y-94073663D01*
X152693132Y-94063925D01*
X152706528Y-94061032D01*
X152857953Y-94010512D01*
X152871115Y-94004347D01*
X153006492Y-93920574D01*
X153017890Y-93911540D01*
X153130363Y-93798871D01*
X153139375Y-93787460D01*
X153222912Y-93651937D01*
X153229056Y-93638759D01*
X153281480Y-93480707D01*
X153283342Y-93481325D01*
X153312608Y-93427335D01*
X153374815Y-93393118D01*
X153445646Y-93397966D01*
X153502613Y-93440337D01*
X153504965Y-93443979D01*
X153585715Y-93551724D01*
X153598276Y-93564285D01*
X153700351Y-93640786D01*
X153715946Y-93649324D01*
X153836394Y-93694478D01*
X153851649Y-93698105D01*
X153902514Y-93703631D01*
X153909328Y-93704000D01*
X153935885Y-93704000D01*
X153951124Y-93699525D01*
X153952329Y-93698135D01*
X153954000Y-93690452D01*
X153954000Y-92982661D01*
X153974002Y-92914540D01*
X154031781Y-92866253D01*
X154041592Y-92862189D01*
X154087789Y-92843054D01*
X154210723Y-92748723D01*
X154215749Y-92742173D01*
X154221590Y-92736332D01*
X154223293Y-92738035D01*
X154270699Y-92703426D01*
X154313315Y-92696000D01*
X154619500Y-92696000D01*
X154687621Y-92716002D01*
G37*
%TD.AperFunction*%
%TA.AperFunction,Conductor*%
G36*
X110928026Y-88198144D02*
G01*
X110955875Y-88229994D01*
X110971852Y-88256066D01*
X111015987Y-88328088D01*
X111162250Y-88496938D01*
X111334126Y-88639632D01*
X111527000Y-88752338D01*
X111531825Y-88754180D01*
X111531826Y-88754181D01*
X111570489Y-88768945D01*
X111735692Y-88832030D01*
X111740760Y-88833061D01*
X111740763Y-88833062D01*
X111828932Y-88851000D01*
X111954597Y-88876567D01*
X111959772Y-88876757D01*
X111959774Y-88876757D01*
X112172673Y-88884564D01*
X112172677Y-88884564D01*
X112177837Y-88884753D01*
X112182957Y-88884097D01*
X112182959Y-88884097D01*
X112394288Y-88857025D01*
X112394289Y-88857025D01*
X112399416Y-88856368D01*
X112404366Y-88854883D01*
X112608429Y-88793661D01*
X112608434Y-88793659D01*
X112613384Y-88792174D01*
X112813994Y-88693896D01*
X112918007Y-88619705D01*
X112991651Y-88567176D01*
X112991657Y-88567171D01*
X112995860Y-88564173D01*
X113027602Y-88532542D01*
X113089970Y-88498627D01*
X113160776Y-88503815D01*
X113205634Y-88532699D01*
X115861607Y-91188671D01*
X118400441Y-93727505D01*
X118434467Y-93789817D01*
X118429402Y-93860632D01*
X118386855Y-93917468D01*
X118320335Y-93942279D01*
X118311346Y-93942600D01*
X112237655Y-93942600D01*
X112169534Y-93922598D01*
X112148560Y-93905695D01*
X111767481Y-93524616D01*
X111733455Y-93462304D01*
X111738520Y-93391489D01*
X111781067Y-93334653D01*
X111790259Y-93328386D01*
X111865031Y-93282116D01*
X111883344Y-93263771D01*
X111982758Y-93164184D01*
X111982762Y-93164179D01*
X111987929Y-93159003D01*
X111991770Y-93152772D01*
X112075369Y-93017150D01*
X112075370Y-93017148D01*
X112079209Y-93010920D01*
X112133974Y-92845809D01*
X112135666Y-92829300D01*
X112144172Y-92746271D01*
X112144500Y-92743072D01*
X112144500Y-92168928D01*
X112144163Y-92165678D01*
X112134419Y-92071765D01*
X112134418Y-92071761D01*
X112133707Y-92064907D01*
X112129183Y-92051345D01*
X112080972Y-91906841D01*
X112078654Y-91899893D01*
X111987116Y-91751969D01*
X111954714Y-91719623D01*
X111920634Y-91657342D01*
X111925637Y-91586521D01*
X111954558Y-91541432D01*
X111957204Y-91538782D01*
X111987929Y-91508003D01*
X112026232Y-91445865D01*
X112075369Y-91366150D01*
X112075370Y-91366148D01*
X112079209Y-91359920D01*
X112133974Y-91194809D01*
X112144500Y-91092072D01*
X112144500Y-90517928D01*
X112144089Y-90513968D01*
X112134419Y-90420765D01*
X112134418Y-90420761D01*
X112133707Y-90413907D01*
X112078654Y-90248893D01*
X111987116Y-90100969D01*
X111981934Y-90095796D01*
X111869184Y-89983242D01*
X111869179Y-89983238D01*
X111864003Y-89978071D01*
X111819121Y-89950405D01*
X111722150Y-89890631D01*
X111722148Y-89890630D01*
X111715920Y-89886791D01*
X111550809Y-89832026D01*
X111543973Y-89831326D01*
X111543970Y-89831325D01*
X111492474Y-89826049D01*
X111448072Y-89821500D01*
X110773928Y-89821500D01*
X110770682Y-89821837D01*
X110770678Y-89821837D01*
X110676765Y-89831581D01*
X110676761Y-89831582D01*
X110669907Y-89832293D01*
X110663371Y-89834474D01*
X110663369Y-89834474D01*
X110530605Y-89878768D01*
X110504893Y-89887346D01*
X110356969Y-89978884D01*
X110324769Y-90011141D01*
X110262488Y-90045220D01*
X110191668Y-90040218D01*
X110146578Y-90011296D01*
X110118871Y-89983637D01*
X110107460Y-89974625D01*
X109971937Y-89891088D01*
X109958759Y-89884944D01*
X109807234Y-89834685D01*
X109793868Y-89831819D01*
X109701230Y-89822328D01*
X109694815Y-89822000D01*
X109543756Y-89822000D01*
X109475635Y-89801998D01*
X109429142Y-89748342D01*
X109419038Y-89678068D01*
X109448532Y-89613488D01*
X109454660Y-89606905D01*
X109959017Y-89102547D01*
X109971409Y-89091680D01*
X109989173Y-89078049D01*
X109995723Y-89073023D01*
X110090054Y-88950089D01*
X110125269Y-88865072D01*
X110129234Y-88855500D01*
X110146193Y-88814558D01*
X110146193Y-88814557D01*
X110149353Y-88806929D01*
X110150024Y-88801835D01*
X110186222Y-88742447D01*
X110215538Y-88722533D01*
X110273994Y-88693896D01*
X110455860Y-88564173D01*
X110521636Y-88498627D01*
X110568630Y-88451796D01*
X110614096Y-88406489D01*
X110638520Y-88372500D01*
X110744453Y-88225077D01*
X110745776Y-88226028D01*
X110792645Y-88182857D01*
X110862580Y-88170625D01*
X110928026Y-88198144D01*
G37*
%TD.AperFunction*%
%TA.AperFunction,Conductor*%
G36*
X160761532Y-92470899D02*
G01*
X160818368Y-92513446D01*
X160843179Y-92579966D01*
X160843500Y-92588955D01*
X160843500Y-93224235D01*
X160843749Y-93227022D01*
X160843749Y-93227028D01*
X160847303Y-93266851D01*
X160857792Y-93384372D01*
X160873750Y-93442705D01*
X160912494Y-93584329D01*
X160914716Y-93592452D01*
X160917131Y-93597515D01*
X160917135Y-93597526D01*
X160930484Y-93625512D01*
X160941758Y-93695608D01*
X160913345Y-93760671D01*
X160854267Y-93800045D01*
X160848820Y-93801387D01*
X160848169Y-93801438D01*
X160746616Y-93830942D01*
X160696012Y-93845643D01*
X160696010Y-93845644D01*
X160688399Y-93847855D01*
X160595084Y-93903042D01*
X160526270Y-93920500D01*
X160458938Y-93897983D01*
X160423802Y-93860889D01*
X160341573Y-93728008D01*
X160332536Y-93716606D01*
X160313121Y-93697224D01*
X160279041Y-93634942D01*
X160284044Y-93564122D01*
X160294879Y-93541934D01*
X160299368Y-93534652D01*
X160299369Y-93534649D01*
X160303209Y-93528420D01*
X160357974Y-93363309D01*
X160359320Y-93350178D01*
X160366293Y-93282116D01*
X160368500Y-93260572D01*
X160368500Y-92811956D01*
X160388502Y-92743835D01*
X160405404Y-92722861D01*
X160504447Y-92623818D01*
X160628405Y-92499859D01*
X160690716Y-92465835D01*
X160761532Y-92470899D01*
G37*
%TD.AperFunction*%
%TA.AperFunction,Conductor*%
G36*
X158316103Y-90051402D02*
G01*
X158341618Y-90073090D01*
X158381027Y-90116859D01*
X158381036Y-90116867D01*
X158385447Y-90121766D01*
X158390786Y-90125645D01*
X158539948Y-90234018D01*
X158538171Y-90236464D01*
X158578086Y-90278508D01*
X158591371Y-90348250D01*
X158564850Y-90414093D01*
X158554625Y-90427040D01*
X158471088Y-90562563D01*
X158464944Y-90575741D01*
X158414685Y-90727266D01*
X158411819Y-90740632D01*
X158402328Y-90833270D01*
X158402000Y-90839685D01*
X158402000Y-90913885D01*
X158406475Y-90929124D01*
X158407865Y-90930329D01*
X158415548Y-90932000D01*
X159513000Y-90932000D01*
X159581121Y-90952002D01*
X159627614Y-91005658D01*
X159639000Y-91058000D01*
X159639000Y-91314000D01*
X159618998Y-91382121D01*
X159565342Y-91428614D01*
X159513000Y-91440000D01*
X158420115Y-91440000D01*
X158404876Y-91444475D01*
X158403671Y-91445865D01*
X158402000Y-91453548D01*
X158402000Y-91532266D01*
X158402337Y-91538782D01*
X158412075Y-91632632D01*
X158414968Y-91646028D01*
X158465488Y-91797453D01*
X158471653Y-91810615D01*
X158555426Y-91945992D01*
X158564464Y-91957394D01*
X158566139Y-91959067D01*
X158566919Y-91960493D01*
X158569007Y-91963127D01*
X158568556Y-91963484D01*
X158600219Y-92021349D01*
X158595216Y-92092169D01*
X158566299Y-92137254D01*
X158563476Y-92140083D01*
X158558071Y-92145497D01*
X158554231Y-92151727D01*
X158554230Y-92151728D01*
X158472921Y-92283636D01*
X158466791Y-92293580D01*
X158412026Y-92458691D01*
X158411326Y-92465527D01*
X158411325Y-92465530D01*
X158407808Y-92499860D01*
X158401500Y-92561428D01*
X158401500Y-92761800D01*
X158381498Y-92829921D01*
X158327842Y-92876414D01*
X158275500Y-92887800D01*
X157850185Y-92887800D01*
X157782064Y-92867798D01*
X157735571Y-92814142D01*
X157725467Y-92743868D01*
X157753122Y-92682025D01*
X157754038Y-92681109D01*
X157768453Y-92660523D01*
X157835586Y-92564646D01*
X157887822Y-92490046D01*
X157890145Y-92485064D01*
X157890148Y-92485059D01*
X157984072Y-92283636D01*
X157984072Y-92283635D01*
X157986395Y-92278654D01*
X157990711Y-92262549D01*
X158045339Y-92058672D01*
X158045339Y-92058670D01*
X158046763Y-92053357D01*
X158067092Y-91821000D01*
X158046763Y-91588643D01*
X158031657Y-91532266D01*
X157987818Y-91368656D01*
X157987817Y-91368654D01*
X157986395Y-91363346D01*
X157963385Y-91314000D01*
X157890148Y-91156941D01*
X157890145Y-91156936D01*
X157887822Y-91151954D01*
X157790755Y-91013328D01*
X157757197Y-90965402D01*
X157757195Y-90965399D01*
X157754038Y-90960891D01*
X157589109Y-90795962D01*
X157584595Y-90792801D01*
X157561641Y-90776728D01*
X157517313Y-90721271D01*
X157510005Y-90650651D01*
X157542036Y-90587291D01*
X157582665Y-90558409D01*
X157657919Y-90524905D01*
X157657926Y-90524901D01*
X157663952Y-90522218D01*
X157818453Y-90409966D01*
X157874022Y-90348250D01*
X157941821Y-90272952D01*
X157941822Y-90272951D01*
X157946240Y-90268044D01*
X158040332Y-90105073D01*
X158040334Y-90105070D01*
X158041727Y-90102656D01*
X158042168Y-90102911D01*
X158085397Y-90052054D01*
X158154522Y-90031400D01*
X158247982Y-90031400D01*
X158316103Y-90051402D01*
G37*
%TD.AperFunction*%
%TA.AperFunction,Conductor*%
G36*
X129304462Y-90452002D02*
G01*
X129350955Y-90505658D01*
X129361059Y-90575932D01*
X129354323Y-90602230D01*
X129320522Y-90692394D01*
X129316895Y-90707649D01*
X129311369Y-90758514D01*
X129311000Y-90765328D01*
X129311000Y-90987885D01*
X129315475Y-91003124D01*
X129316865Y-91004329D01*
X129324548Y-91006000D01*
X132308884Y-91006000D01*
X132324123Y-91001525D01*
X132325328Y-91000135D01*
X132326999Y-90992452D01*
X132326999Y-90765331D01*
X132326629Y-90758510D01*
X132321105Y-90707648D01*
X132317479Y-90692396D01*
X132283677Y-90602230D01*
X132278494Y-90531423D01*
X132312415Y-90469054D01*
X132374670Y-90434924D01*
X132401659Y-90432000D01*
X135903145Y-90432000D01*
X135971266Y-90452002D01*
X136017759Y-90505658D01*
X136027863Y-90575932D01*
X135998369Y-90640512D01*
X135992240Y-90647095D01*
X134699340Y-91939995D01*
X134637028Y-91974021D01*
X134610245Y-91976900D01*
X132441453Y-91976900D01*
X132373332Y-91956898D01*
X132326839Y-91903242D01*
X132316735Y-91832968D01*
X132318870Y-91821756D01*
X132321105Y-91812356D01*
X132326631Y-91761486D01*
X132327000Y-91754672D01*
X132327000Y-91532115D01*
X132322525Y-91516876D01*
X132321135Y-91515671D01*
X132313452Y-91514000D01*
X129329116Y-91514000D01*
X129313877Y-91518475D01*
X129312672Y-91519865D01*
X129311001Y-91527548D01*
X129311001Y-91754669D01*
X129311371Y-91761490D01*
X129315759Y-91801895D01*
X129303230Y-91871777D01*
X129254908Y-91923792D01*
X129190496Y-91941500D01*
X129143555Y-91941500D01*
X129075434Y-91921498D01*
X129054460Y-91904595D01*
X127796960Y-90647095D01*
X127762934Y-90584783D01*
X127767999Y-90513968D01*
X127810546Y-90457132D01*
X127877066Y-90432321D01*
X127886055Y-90432000D01*
X129236341Y-90432000D01*
X129304462Y-90452002D01*
G37*
%TD.AperFunction*%
%TA.AperFunction,Conductor*%
G36*
X159880747Y-87875669D02*
G01*
X159904612Y-87886294D01*
X159998013Y-87906147D01*
X160084956Y-87924628D01*
X160084961Y-87924628D01*
X160091413Y-87926000D01*
X160152800Y-87926000D01*
X160220921Y-87946002D01*
X160267414Y-87999658D01*
X160278800Y-88052000D01*
X160278800Y-90189085D01*
X160258798Y-90257206D01*
X160205142Y-90303699D01*
X160134868Y-90313803D01*
X160086685Y-90296345D01*
X159945941Y-90209590D01*
X159932762Y-90203445D01*
X159805824Y-90161341D01*
X159747465Y-90120910D01*
X159720228Y-90055346D01*
X159732762Y-89985464D01*
X159736373Y-89978748D01*
X159827923Y-89820179D01*
X159827924Y-89820178D01*
X159831227Y-89814456D01*
X159890242Y-89632828D01*
X159891354Y-89622254D01*
X159909514Y-89449465D01*
X159910204Y-89442900D01*
X159900876Y-89354146D01*
X159890932Y-89259535D01*
X159890932Y-89259533D01*
X159890242Y-89252972D01*
X159831227Y-89071344D01*
X159735740Y-88905956D01*
X159713388Y-88881131D01*
X159612375Y-88768945D01*
X159612374Y-88768944D01*
X159607953Y-88764034D01*
X159524140Y-88703140D01*
X159480787Y-88646917D01*
X159474712Y-88576181D01*
X159507844Y-88513389D01*
X159521498Y-88501241D01*
X159533191Y-88492269D01*
X159533192Y-88492268D01*
X159539742Y-88487242D01*
X159631267Y-88367963D01*
X159688803Y-88229061D01*
X159692874Y-88198144D01*
X159702962Y-88121512D01*
X159702962Y-88121511D01*
X159703500Y-88117425D01*
X159703499Y-87990776D01*
X159723501Y-87922656D01*
X159777156Y-87876163D01*
X159847430Y-87866058D01*
X159880747Y-87875669D01*
G37*
%TD.AperFunction*%
%TA.AperFunction,Conductor*%
G36*
X123622667Y-83933500D02*
G01*
X123637468Y-83935805D01*
X123637472Y-83935805D01*
X123646341Y-83937186D01*
X123655243Y-83936022D01*
X123655247Y-83936022D01*
X123655343Y-83936009D01*
X123685780Y-83935738D01*
X123747985Y-83942746D01*
X123775492Y-83949024D01*
X123817247Y-83963635D01*
X123852681Y-83976034D01*
X123878101Y-83988276D01*
X123947348Y-84031787D01*
X123969407Y-84049379D01*
X124027231Y-84107203D01*
X124044823Y-84129262D01*
X124088334Y-84198509D01*
X124100576Y-84223930D01*
X124127585Y-84301117D01*
X124133864Y-84328624D01*
X124140132Y-84384251D01*
X124140915Y-84399897D01*
X124140806Y-84408855D01*
X124139424Y-84417729D01*
X124141064Y-84430269D01*
X124143546Y-84449250D01*
X124144610Y-84465588D01*
X124144610Y-88870792D01*
X124142864Y-88891697D01*
X124139539Y-88911460D01*
X124139386Y-88923999D01*
X124141496Y-88938733D01*
X124142445Y-88947580D01*
X124156146Y-89139159D01*
X124201998Y-89349938D01*
X124203565Y-89354140D01*
X124203567Y-89354146D01*
X124263973Y-89516097D01*
X124277381Y-89552046D01*
X124279535Y-89555991D01*
X124279536Y-89555993D01*
X124321491Y-89632828D01*
X124380759Y-89741369D01*
X124510028Y-89914053D01*
X124546380Y-89950405D01*
X124580406Y-90012717D01*
X124575341Y-90083532D01*
X124532794Y-90140368D01*
X124466274Y-90165179D01*
X124457285Y-90165500D01*
X123676654Y-90165500D01*
X123608533Y-90145498D01*
X123587559Y-90128595D01*
X122555560Y-89096595D01*
X122521534Y-89034283D01*
X122526599Y-88963467D01*
X122569146Y-88906632D01*
X122635666Y-88881821D01*
X122644655Y-88881500D01*
X123174134Y-88881500D01*
X123236316Y-88874745D01*
X123372705Y-88823615D01*
X123489261Y-88736261D01*
X123576615Y-88619705D01*
X123627745Y-88483316D01*
X123634500Y-88421134D01*
X123634500Y-86624866D01*
X123627745Y-86562684D01*
X123576615Y-86426295D01*
X123489261Y-86309739D01*
X123372705Y-86222385D01*
X123253687Y-86177767D01*
X123196923Y-86135125D01*
X123172223Y-86068564D01*
X123187430Y-85999215D01*
X123208977Y-85970535D01*
X123310052Y-85869812D01*
X123316730Y-85861965D01*
X123441003Y-85689020D01*
X123446313Y-85680183D01*
X123540670Y-85489267D01*
X123544469Y-85479672D01*
X123606377Y-85275910D01*
X123608555Y-85265837D01*
X123609986Y-85254962D01*
X123607775Y-85240778D01*
X123594617Y-85237000D01*
X122148000Y-85237000D01*
X122079879Y-85216998D01*
X122033386Y-85163342D01*
X122022000Y-85111000D01*
X122022000Y-84855000D01*
X122042002Y-84786879D01*
X122095658Y-84740386D01*
X122148000Y-84729000D01*
X123594344Y-84729000D01*
X123607875Y-84725027D01*
X123609180Y-84715947D01*
X123567214Y-84548875D01*
X123563894Y-84539124D01*
X123478972Y-84343814D01*
X123474105Y-84334739D01*
X123358426Y-84155926D01*
X123352136Y-84147757D01*
X123347625Y-84142800D01*
X123316573Y-84078954D01*
X123324967Y-84008456D01*
X123370144Y-83953687D01*
X123440818Y-83932000D01*
X123603283Y-83932000D01*
X123622667Y-83933500D01*
G37*
%TD.AperFunction*%
%TA.AperFunction,Conductor*%
G36*
X163769121Y-83952002D02*
G01*
X163815614Y-84005658D01*
X163825224Y-84049838D01*
X163831475Y-84071124D01*
X163832865Y-84072329D01*
X163840548Y-84074000D01*
X164950500Y-84074000D01*
X165018621Y-84094002D01*
X165065114Y-84147658D01*
X165076500Y-84200000D01*
X165076500Y-85292885D01*
X165080975Y-85308124D01*
X165082365Y-85309329D01*
X165090048Y-85311000D01*
X165118766Y-85311000D01*
X165125282Y-85310663D01*
X165219132Y-85300925D01*
X165232528Y-85298032D01*
X165383953Y-85247512D01*
X165397115Y-85241347D01*
X165532492Y-85157574D01*
X165543890Y-85148540D01*
X165645393Y-85046860D01*
X165707676Y-85012781D01*
X165778496Y-85017784D01*
X165823583Y-85046704D01*
X165931997Y-85154929D01*
X165938227Y-85158769D01*
X165938228Y-85158770D01*
X166066716Y-85237971D01*
X166080080Y-85246209D01*
X166169626Y-85275910D01*
X166234922Y-85297568D01*
X166293282Y-85337999D01*
X166320519Y-85403563D01*
X166307986Y-85473445D01*
X166259661Y-85525456D01*
X166252947Y-85529177D01*
X166221022Y-85545619D01*
X166210976Y-85552069D01*
X166054143Y-85675262D01*
X166045494Y-85683499D01*
X165914788Y-85834123D01*
X165907853Y-85843847D01*
X165807990Y-86016467D01*
X165803016Y-86027331D01*
X165737593Y-86215727D01*
X165737352Y-86216716D01*
X165738820Y-86227008D01*
X165752385Y-86231000D01*
X167445000Y-86231000D01*
X167513121Y-86251002D01*
X167559614Y-86304658D01*
X167571000Y-86357000D01*
X167571000Y-86613000D01*
X167550998Y-86681121D01*
X167497342Y-86727614D01*
X167445000Y-86739000D01*
X165756598Y-86739000D01*
X165743067Y-86742973D01*
X165739780Y-86765835D01*
X165710287Y-86830415D01*
X165680819Y-86854189D01*
X165680295Y-86854385D01*
X165563739Y-86941739D01*
X165476385Y-87058295D01*
X165473233Y-87066703D01*
X165447279Y-87135934D01*
X165404637Y-87192698D01*
X165338075Y-87217398D01*
X165303746Y-87215086D01*
X165195638Y-87192698D01*
X165166463Y-87186656D01*
X165157252Y-87186125D01*
X165090395Y-87162238D01*
X165047065Y-87105997D01*
X165038500Y-87060334D01*
X165038500Y-86829085D01*
X165039578Y-86812639D01*
X165041588Y-86797370D01*
X165042320Y-86791811D01*
X165041308Y-86770340D01*
X165038640Y-86713777D01*
X165038500Y-86707842D01*
X165038500Y-86686265D01*
X165036281Y-86661399D01*
X165035922Y-86656135D01*
X165032423Y-86581934D01*
X165032422Y-86581929D01*
X165032158Y-86576325D01*
X165028388Y-86559867D01*
X165025710Y-86542956D01*
X165024208Y-86526128D01*
X165003119Y-86449040D01*
X165001836Y-86443932D01*
X164999722Y-86434703D01*
X164983997Y-86366043D01*
X164981798Y-86360888D01*
X164981796Y-86360881D01*
X164977376Y-86350519D01*
X164971739Y-86334332D01*
X164968764Y-86323456D01*
X164968762Y-86323451D01*
X164967284Y-86318048D01*
X164932877Y-86245912D01*
X164930706Y-86241103D01*
X164901561Y-86172774D01*
X164901561Y-86172773D01*
X164899360Y-86167614D01*
X164890093Y-86153506D01*
X164881678Y-86138572D01*
X164876829Y-86128406D01*
X164876828Y-86128405D01*
X164874411Y-86123337D01*
X164871138Y-86118782D01*
X164871132Y-86118772D01*
X164827790Y-86058456D01*
X164824800Y-86054106D01*
X164783458Y-85991168D01*
X164783455Y-85991164D01*
X164780922Y-85987308D01*
X164763309Y-85967540D01*
X164755062Y-85957245D01*
X164751802Y-85952708D01*
X164751802Y-85952707D01*
X164748526Y-85948149D01*
X164674850Y-85876752D01*
X164673440Y-85875363D01*
X164619829Y-85821752D01*
X164608962Y-85809361D01*
X164599585Y-85797140D01*
X164599581Y-85797136D01*
X164596169Y-85792689D01*
X164538372Y-85740098D01*
X164534076Y-85735999D01*
X164518835Y-85720758D01*
X164499678Y-85704740D01*
X164495699Y-85701269D01*
X164482778Y-85689511D01*
X164436611Y-85647503D01*
X164428416Y-85642362D01*
X164422307Y-85638529D01*
X164408447Y-85628459D01*
X164406981Y-85627233D01*
X164395495Y-85617630D01*
X164326075Y-85578033D01*
X164321578Y-85575342D01*
X164253865Y-85532866D01*
X164238201Y-85526569D01*
X164222771Y-85519110D01*
X164208109Y-85510747D01*
X164202826Y-85508876D01*
X164202819Y-85508873D01*
X164132776Y-85484070D01*
X164127868Y-85482215D01*
X164053707Y-85452403D01*
X164048209Y-85451264D01*
X164048208Y-85451264D01*
X164037170Y-85448978D01*
X164020674Y-85444373D01*
X164004756Y-85438736D01*
X163999222Y-85437830D01*
X163999219Y-85437829D01*
X163925917Y-85425826D01*
X163920726Y-85424864D01*
X163886278Y-85417730D01*
X163842463Y-85408656D01*
X163837852Y-85408390D01*
X163837851Y-85408390D01*
X163816034Y-85407132D01*
X163802929Y-85405685D01*
X163797411Y-85404782D01*
X163791866Y-85403874D01*
X163786252Y-85403962D01*
X163786250Y-85403962D01*
X163689365Y-85405484D01*
X163687386Y-85405500D01*
X163583291Y-85405500D01*
X163515170Y-85385498D01*
X163468677Y-85331842D01*
X163458028Y-85293108D01*
X163456159Y-85275910D01*
X163453745Y-85253684D01*
X163402615Y-85117295D01*
X163315261Y-85000739D01*
X163198705Y-84913385D01*
X163190296Y-84910233D01*
X163190295Y-84910232D01*
X163131577Y-84888220D01*
X163074812Y-84845579D01*
X163050112Y-84779018D01*
X163056213Y-84730569D01*
X163058316Y-84724228D01*
X163061181Y-84710868D01*
X163070672Y-84618230D01*
X163071000Y-84611815D01*
X163071000Y-84611766D01*
X163827000Y-84611766D01*
X163827337Y-84618282D01*
X163837075Y-84712132D01*
X163839968Y-84725528D01*
X163890488Y-84876953D01*
X163896653Y-84890115D01*
X163980426Y-85025492D01*
X163989460Y-85036890D01*
X164102129Y-85149363D01*
X164113540Y-85158375D01*
X164249063Y-85241912D01*
X164262241Y-85248056D01*
X164413766Y-85298315D01*
X164427132Y-85301181D01*
X164519770Y-85310672D01*
X164526185Y-85311000D01*
X164550385Y-85311000D01*
X164565624Y-85306525D01*
X164566829Y-85305135D01*
X164568500Y-85297452D01*
X164568500Y-84600115D01*
X164564025Y-84584876D01*
X164562635Y-84583671D01*
X164554952Y-84582000D01*
X163845115Y-84582000D01*
X163829876Y-84586475D01*
X163828671Y-84587865D01*
X163827000Y-84595548D01*
X163827000Y-84611766D01*
X163071000Y-84611766D01*
X163071000Y-84600115D01*
X163066525Y-84584876D01*
X163065135Y-84583671D01*
X163057452Y-84582000D01*
X161897500Y-84582000D01*
X161829379Y-84561998D01*
X161782886Y-84508342D01*
X161771500Y-84456000D01*
X161771500Y-84200000D01*
X161791502Y-84131879D01*
X161845158Y-84085386D01*
X161897500Y-84074000D01*
X163052885Y-84074000D01*
X163068124Y-84069525D01*
X163069329Y-84068135D01*
X163071000Y-84060452D01*
X163071000Y-84058000D01*
X163073058Y-84050991D01*
X163073879Y-84047217D01*
X163074149Y-84047276D01*
X163091002Y-83989879D01*
X163144658Y-83943386D01*
X163197000Y-83932000D01*
X163701000Y-83932000D01*
X163769121Y-83952002D01*
G37*
%TD.AperFunction*%
%TD*%
M02*
