M48
; DRILL file {KiCad (6.0.0-0)} date 2022 February 21, Monday 15:37:49
; FORMAT={-:-/ absolute / inch / decimal}
; #@! TF.CreationDate,2022-02-21T15:37:49+01:00
; #@! TF.GenerationSoftware,Kicad,Pcbnew,(6.0.0-0)
; #@! TF.FileFunction,Plated,1,2,PTH
FMAT,2
INCH
; #@! TA.AperFunction,Plated,PTH,ComponentDrill
T1C0.0079
; #@! TA.AperFunction,Plated,PTH,ViaDrill
T2C0.0157
; #@! TA.AperFunction,Plated,PTH,ComponentDrill
T3C0.0276
; #@! TA.AperFunction,Plated,PTH,ComponentDrill
T4C0.0276
; #@! TA.AperFunction,Plated,PTH,ComponentDrill
T5C0.0354
; #@! TA.AperFunction,Plated,PTH,ComponentDrill
T6C0.0394
; #@! TA.AperFunction,Plated,PTH,ComponentDrill
T7C0.0472
; #@! TA.AperFunction,Plated,PTH,ComponentDrill
T8C0.0591
; #@! TA.AperFunction,Plated,PTH,ComponentDrill
T9C0.0591
; #@! TA.AperFunction,Plated,PTH,ComponentDrill
T10C0.0709
%
G90
G05
T1
X5.6355Y-3.6559
X5.6355Y-3.7281
X5.6716Y-3.6197
X5.6716Y-3.692
X5.6716Y-3.7642
X5.7078Y-3.6559
X5.7078Y-3.7281
X5.7439Y-3.6197
X5.7439Y-3.692
X5.7439Y-3.7642
X5.78Y-3.6559
X5.78Y-3.7281
T2
X5.3073Y-4.793
X5.3073Y-4.857
X5.3073Y-4.948
X5.5278Y-4.7668
X5.5567Y-4.2988
X5.6076Y-4.7668
X5.6151Y-3.0619
X5.6327Y-3.2923
X5.6328Y-3.8742
X5.6603Y-3.1665
X5.6626Y-4.7668
X5.68Y-4.4142
X5.7088Y-4.252
X5.7663Y-2.9981
X5.8197Y-4.5052
X5.8348Y-3.2367
X5.868Y-4.634
X5.903Y-3.6668
X5.9108Y-4.9175
X5.9108Y-4.9755
X5.9108Y-5.0497
X5.9354Y-5.583
X6.0006Y-5.6962
X6.0338Y-5.7225
X6.058Y-5.1086
X6.0708Y-4.8055
X6.075Y-5.759
X6.1739Y-5.3405
X6.1884Y-5.3866
X6.2189Y-5.7494
X6.2639Y-4.4819
X6.269Y-5.1103
X6.2884Y-5.7613
X6.2979Y-5.1384
T3
X5.8511Y-5.6958
X6.0787Y-5.6958
T6
X6.2292Y-2.5408
X6.2292Y-2.6408
X6.2292Y-2.7408
X6.2292Y-2.8408
X6.2292Y-2.9408
X6.2292Y-3.0408
T7
X5.4069Y-5.2979
X5.6069Y-5.2979
T8
X5.4829Y-5.422
T9
X5.59Y-2.6436
X5.74Y-2.6436
X5.89Y-2.6436
T10
X5.4829Y-5.8531
T4
G00X5.7948Y-5.6544
M15
G01X5.7948Y-5.6978
M16
G05
G00X5.7948Y-5.8289
M15
G01X5.7948Y-5.8525
M16
G05
G00X6.135Y-5.6544
M15
G01X6.135Y-5.6978
M16
G05
G00X6.135Y-5.8289
M15
G01X6.135Y-5.8525
M16
G05
T5
G00X5.2919Y-5.5834
M15
G01X5.2919Y-5.5361
M16
G05
G00X5.2919Y-5.7684
M15
G01X5.2919Y-5.7212
M16
G05
G00X5.5144Y-5.7251
M15
G01X5.4514Y-5.7251
M16
G05
G00X5.6738Y-5.5834
M15
G01X5.6738Y-5.5361
M16
G05
G00X5.6738Y-5.7684
M15
G01X5.6738Y-5.7212
M16
G05
T0
M30
