M48
; DRILL file {KiCad (6.0.0-0)} date 2022 March 13, Sunday 17:01:38
; FORMAT={-:-/ absolute / inch / decimal}
; #@! TF.CreationDate,2022-03-13T17:01:38+01:00
; #@! TF.GenerationSoftware,Kicad,Pcbnew,(6.0.0-0)
; #@! TF.FileFunction,Plated,1,2,PTH
FMAT,2
INCH
; #@! TA.AperFunction,Plated,PTH,ComponentDrill
T1C0.0079
; #@! TA.AperFunction,Plated,PTH,ViaDrill
T2C0.0157
; #@! TA.AperFunction,Plated,PTH,ComponentDrill
T3C0.0276
; #@! TA.AperFunction,Plated,PTH,ComponentDrill
T4C0.0276
; #@! TA.AperFunction,Plated,PTH,ComponentDrill
T5C0.0354
; #@! TA.AperFunction,Plated,PTH,ComponentDrill
T6C0.0394
; #@! TA.AperFunction,Plated,PTH,ComponentDrill
T7C0.0591
; #@! TA.AperFunction,Plated,PTH,ComponentDrill
T8C0.0591
; #@! TA.AperFunction,Plated,PTH,ComponentDrill
T9C0.0709
%
G90
G05
T1
X5.6353Y-4.071
X5.6353Y-4.1433
X5.6714Y-4.0349
X5.6714Y-4.1071
X5.6714Y-4.1794
X5.7076Y-4.071
X5.7076Y-4.1433
X5.7437Y-4.0349
X5.7437Y-4.1071
X5.7437Y-4.1794
X5.7798Y-4.071
X5.7798Y-4.1433
T2
X5.3303Y-5.3276
X5.3752Y-3.3425
X5.3787Y-4.9965
X5.4047Y-3.372
X5.4047Y-3.4146
X5.4085Y-4.9667
X5.4354Y-4.9398
X5.4992Y-4.6098
X5.4992Y-4.8724
X5.5028Y-3.6618
X5.5035Y-3.539
X5.5098Y-4.6567
X5.5107Y-4.9627
X5.5126Y-3.5953
X5.524Y-4.7906
X5.5268Y-4.5563
X5.6047Y-3.4398
X5.6386Y-3.4708
X5.6386Y-5.0165
X5.6417Y-5.1228
X5.648Y-3.5823
X5.6484Y-3.4354
X5.652Y-5.0724
X5.7795Y-3.8768
X5.7945Y-4.8583
X5.7949Y-3.5795
X5.802Y-4.2874
X5.8051Y-3.9067
X5.8173Y-4.8146
X5.8287Y-4.9594
X5.8343Y-3.5232
X5.8343Y-3.6063
X5.8586Y-3.9783
X5.8646Y-3.637
X5.865Y-4.2933
X5.8665Y-5.0906
X5.8874Y-3.5217
X5.8878Y-4.724
X5.8988Y-4.4114
X5.9232Y-4.3646
X5.939Y-4.0256
X5.9398Y-3.9299
X5.9488Y-4.0724
X5.9551Y-2.9327
X5.9606Y-4.1291
X5.9606Y-4.5457
X5.9799Y-2.8933
X6.0087Y-3.572
X6.0104Y-4.9905
X6.0165Y-2.9697
X6.0185Y-3.3445
X6.0264Y-5.0902
X6.0323Y-5.0307
X6.05Y-4.8945
X6.0587Y-2.9508
X6.0677Y-3.176
X6.0783Y-5.2185
X6.0862Y-4.8496
X6.0945Y-4.7874
X6.0972Y-2.9012
X6.1097Y-5.1563
X6.1315Y-2.9417
X6.1539Y-3.1389
X6.1588Y-5.1864
X6.172Y-3.1819
X6.2587Y-5.1399
X6.2765Y-5.1048
T3
X5.9421Y-2.9757
X6.1697Y-2.9757
T6
X5.9134Y-5.5008
X5.9535Y-5.4008
X5.9937Y-5.5008
X6.0339Y-5.4008
X6.074Y-5.5008
X6.1142Y-5.4008
X6.1449Y-3.248
X6.1449Y-3.348
X6.1449Y-3.448
X6.2449Y-3.248
X6.2449Y-3.348
X6.2449Y-3.448
T7
X5.4925Y-5.2929
T8
X5.384Y-3.0325
X5.534Y-3.0325
X5.684Y-3.0325
T9
X5.4925Y-5.724
T4
G00X5.8858Y-2.8426
M15
G01X5.8858Y-2.819
M16
G05
G00X5.8858Y-3.017
M15
G01X5.8858Y-2.9737
M16
G05
G00X6.226Y-2.8426
M15
G01X6.226Y-2.819
M16
G05
G00X6.226Y-3.017
M15
G01X6.226Y-2.9737
M16
G05
T5
G00X5.3016Y-5.4543
M15
G01X5.3016Y-5.4071
M16
G05
G00X5.3016Y-5.6394
M15
G01X5.3016Y-5.5921
M16
G05
G00X5.524Y-5.5961
M15
G01X5.461Y-5.5961
M16
G05
G00X5.6835Y-5.4543
M15
G01X5.6835Y-5.4071
M16
G05
G00X5.6835Y-5.6394
M15
G01X5.6835Y-5.5921
M16
G05
T0
M30
