%TF.GenerationSoftware,KiCad,Pcbnew,(6.0.0-0)*%
%TF.CreationDate,2022-02-21T14:12:12+01:00*%
%TF.ProjectId,GlowCoreMini,476c6f77-436f-4726-954d-696e692e6b69,rev?*%
%TF.SameCoordinates,Original*%
%TF.FileFunction,Copper,L2,Bot*%
%TF.FilePolarity,Positive*%
%FSLAX46Y46*%
G04 Gerber Fmt 4.6, Leading zero omitted, Abs format (unit mm)*
G04 Created by KiCad (PCBNEW (6.0.0-0)) date 2022-02-21 14:12:12*
%MOMM*%
%LPD*%
G01*
G04 APERTURE LIST*
%TA.AperFunction,ComponentPad*%
%ADD10R,1.700000X1.700000*%
%TD*%
%TA.AperFunction,ComponentPad*%
%ADD11O,1.700000X1.700000*%
%TD*%
%TA.AperFunction,ComponentPad*%
%ADD12C,2.000000*%
%TD*%
%TA.AperFunction,ComponentPad*%
%ADD13C,0.700000*%
%TD*%
%TA.AperFunction,ComponentPad*%
%ADD14O,1.200000X2.200000*%
%TD*%
%TA.AperFunction,ComponentPad*%
%ADD15O,1.200000X1.800000*%
%TD*%
%TA.AperFunction,ComponentPad*%
%ADD16C,1.800000*%
%TD*%
%TA.AperFunction,ComponentPad*%
%ADD17O,1.600000X3.000000*%
%TD*%
%TA.AperFunction,ComponentPad*%
%ADD18O,3.200000X1.600000*%
%TD*%
%TA.AperFunction,ComponentPad*%
%ADD19C,2.300000*%
%TD*%
%TA.AperFunction,ComponentPad*%
%ADD20C,0.300000*%
%TD*%
%TA.AperFunction,ComponentPad*%
%ADD21R,2.200000X2.200000*%
%TD*%
%TA.AperFunction,ComponentPad*%
%ADD22C,2.200000*%
%TD*%
%TA.AperFunction,SMDPad,CuDef*%
%ADD23R,1.000000X1.500000*%
%TD*%
%TA.AperFunction,ViaPad*%
%ADD24C,0.800000*%
%TD*%
%TA.AperFunction,Conductor*%
%ADD25C,0.160000*%
%TD*%
%TA.AperFunction,Conductor*%
%ADD26C,5.300000*%
%TD*%
%TA.AperFunction,Conductor*%
%ADD27C,3.000000*%
%TD*%
%TA.AperFunction,Conductor*%
%ADD28C,2.500000*%
%TD*%
G04 APERTURE END LIST*
D10*
%TO.P,J1,1,Pin_1*%
%TO.N,+5V*%
X158220900Y-64537100D03*
D11*
%TO.P,J1,2,Pin_2*%
%TO.N,GND*%
X158220900Y-67077100D03*
%TO.P,J1,3,Pin_3*%
%TO.N,+3V3*%
X158220900Y-69617100D03*
%TO.P,J1,4,Pin_4*%
%TO.N,IO26{slash}A0{slash}DAC2*%
X158220900Y-72157100D03*
%TO.P,J1,5,Pin_5*%
%TO.N,IO25{slash}A1{slash}DAC1*%
X158220900Y-74697100D03*
%TO.P,J1,6,Pin_6*%
%TO.N,IO13*%
X158220900Y-77237100D03*
%TD*%
D12*
%TO.P,F2,1,1*%
%TO.N,+5V*%
X142414832Y-134566127D03*
%TO.P,F2,2,2*%
%TO.N,Net-(F2-Pad2)*%
X137334822Y-134566127D03*
%TD*%
D13*
%TO.P,USB1,*%
%TO.N,*%
X148617900Y-144673000D03*
X154397900Y-144673000D03*
D14*
%TO.P,USB1,SHELL,SHELL*%
%TO.N,GND*%
X147187900Y-144173000D03*
X155827900Y-144173000D03*
D15*
X155827900Y-148353000D03*
X147187900Y-148353000D03*
%TD*%
D16*
%TO.P,J2,*%
%TO.N,*%
X139265100Y-148667700D03*
D17*
%TO.P,J2,1*%
%TO.N,GND*%
X144115100Y-141217700D03*
X144115100Y-145917700D03*
X134415100Y-145917700D03*
X134415100Y-141217700D03*
D18*
%TO.P,J2,2*%
%TO.N,N/C*%
X139265100Y-145417700D03*
D19*
%TO.P,J2,3*%
%TO.N,Net-(F2-Pad2)*%
X139265100Y-137717700D03*
%TD*%
D20*
%TO.P,U2,39_10,GND*%
%TO.N,GND*%
X146812300Y-92858800D03*
%TO.P,U2,39_11,GND*%
X146812300Y-94693800D03*
%TO.P,U2,39_12,GND*%
X145894800Y-91941300D03*
%TO.P,U2,39_13,GND*%
X145894800Y-93776300D03*
%TO.P,U2,39_14,GND*%
X145894800Y-95611300D03*
%TO.P,U2,39_15,GND*%
X144977300Y-92858800D03*
%TO.P,U2,39_16,GND*%
X144977300Y-94693800D03*
%TO.P,U2,39_17,GND*%
X144059800Y-91941300D03*
%TO.P,U2,39_18,GND*%
X144059800Y-93776300D03*
%TO.P,U2,39_19,GND*%
X144059800Y-95611300D03*
%TO.P,U2,39_20,GND*%
X143142300Y-92858800D03*
%TO.P,U2,39_21,GND*%
X143142300Y-94693800D03*
%TD*%
D21*
%TO.P,P1,1,1*%
%TO.N,+5V*%
X149606108Y-67146750D03*
D22*
%TO.P,P1,2,2*%
%TO.N,Net-(P1-Pad2)*%
X145796100Y-67146750D03*
%TO.P,P1,3,3*%
%TO.N,GND*%
X141986092Y-67146750D03*
%TD*%
D23*
%TO.P,Status_LED1,2,B*%
%TO.N,Net-(R7-Pad1)*%
X157657700Y-111880800D03*
%TO.P,Status_LED1,1,A*%
%TO.N,IO13*%
X158957700Y-111880800D03*
%TD*%
D24*
%TO.N,GND*%
X134806500Y-123367600D03*
X134806500Y-125678600D03*
X134806500Y-121741600D03*
X150134500Y-126378600D03*
X150134500Y-128263600D03*
X150134500Y-124904600D03*
X146464900Y-76151900D03*
%TO.N,+5V*%
X143829500Y-121075600D03*
X159967300Y-130515500D03*
X140406500Y-121075600D03*
X142623100Y-77772200D03*
X142432500Y-121075600D03*
X141140000Y-109190400D03*
%TO.N,+3V3*%
X145003100Y-108000000D03*
X159232500Y-129802200D03*
%TO.N,RESET*%
X149937300Y-93137900D03*
X144271400Y-112121500D03*
%TO.N,USB-C DATA+*%
X152416500Y-144683300D03*
X156817600Y-135649800D03*
%TO.N,USB-C DATA-*%
X157184600Y-136818900D03*
X150757900Y-141809400D03*
%TO.N,IO15{slash}WS*%
X148202800Y-82212600D03*
X143072000Y-98404500D03*
%TO.N,DTR*%
X153874200Y-129758200D03*
X147819800Y-114431900D03*
%TO.N,RTS*%
X149047200Y-117703600D03*
X154197300Y-122060300D03*
%TO.N,IO25{slash}A1{slash}DAC1*%
X143069900Y-83624400D03*
%TO.N,IO26{slash}A0{slash}DAC2*%
X143771000Y-80428600D03*
%TO.N,USB-C CC1*%
X154305000Y-146278600D03*
X159725500Y-146336200D03*
%TO.N,USB-C CC2*%
X157959500Y-146033700D03*
X153257900Y-145350500D03*
%TO.N,Net-(R7-Pad1)*%
X159103700Y-113839100D03*
%TD*%
D25*
%TO.N,GND*%
X146812300Y-92858800D02*
X146353500Y-92400000D01*
X146353500Y-92400000D02*
X145894800Y-92400000D01*
D26*
X141986100Y-65665100D02*
X141986500Y-65665100D01*
X150134500Y-126378600D02*
X150134500Y-128263600D01*
D25*
X144977300Y-92400000D02*
X144518500Y-92400000D01*
D26*
X133136500Y-120071600D02*
X133136500Y-72841000D01*
X150134500Y-124904600D02*
X150134500Y-126378600D01*
D25*
X145894800Y-95611300D02*
X146812300Y-94693800D01*
X144059800Y-93776300D02*
X144977300Y-92858800D01*
X141986100Y-67146800D02*
X141986100Y-65665100D01*
D26*
X134806500Y-121741600D02*
X133136500Y-120071600D01*
D25*
X145894800Y-92400000D02*
X144977300Y-92400000D01*
D26*
X134711500Y-128187600D02*
X134711500Y-121837600D01*
X140312500Y-65665100D02*
X141986100Y-65665100D01*
X134711500Y-121837600D02*
X134806500Y-121741600D01*
D25*
X158220900Y-67077100D02*
X157090600Y-67077100D01*
X157090600Y-67077100D02*
X157090600Y-67783500D01*
X157090600Y-67783500D02*
X148722200Y-76151900D01*
D26*
X133136500Y-72841000D02*
X140312500Y-65665100D01*
D25*
X145894800Y-91941300D02*
X145894800Y-92400000D01*
X148722200Y-76151900D02*
X146464900Y-76151900D01*
X143142300Y-92858800D02*
X144059800Y-93776300D01*
X144977300Y-92400000D02*
X144977300Y-92858800D01*
D26*
X134787500Y-128263600D02*
X134711500Y-128187600D01*
D25*
X146812300Y-92858800D02*
X145894800Y-93776300D01*
D26*
X150134500Y-128263600D02*
X134787500Y-128263600D01*
D25*
X144518500Y-92400000D02*
X144059800Y-91941300D01*
D26*
%TO.N,+5V*%
X139816500Y-107349700D02*
X139816500Y-80237600D01*
X139816500Y-74949200D02*
X143669500Y-71096300D01*
D25*
X141139900Y-109190400D02*
X141140000Y-109190400D01*
D27*
X155031500Y-64382800D02*
X155175500Y-64527600D01*
D26*
X149745500Y-70977600D02*
X149745500Y-67146800D01*
X149745500Y-70977600D02*
X149745500Y-67146800D01*
X149626500Y-71096300D02*
X149745500Y-70977600D01*
D28*
X158211400Y-64527600D02*
X158220500Y-64527600D01*
D25*
X140157700Y-80237600D02*
X142623100Y-77772200D01*
X153507500Y-64332000D02*
X154980700Y-64332000D01*
D26*
X139816500Y-118459600D02*
X139816500Y-107349700D01*
X152541500Y-64332000D02*
X153507500Y-64332000D01*
D25*
X139816500Y-107349700D02*
X141139900Y-108673100D01*
X155916700Y-134566100D02*
X159967300Y-130515500D01*
D26*
X143669500Y-71096300D02*
X149626500Y-71096300D01*
X149745500Y-67146800D02*
X149745500Y-67128300D01*
D25*
X141139900Y-108673100D02*
X141139900Y-109190400D01*
X158211400Y-64527600D02*
X158220900Y-64537100D01*
D26*
X142432500Y-121075600D02*
X139816500Y-118459600D01*
D25*
X139816500Y-80237600D02*
X140157700Y-80237600D01*
X149606100Y-67146800D02*
X149745500Y-67146800D01*
X154980700Y-64332000D02*
X155031500Y-64382800D01*
D28*
X155175500Y-64527600D02*
X158211400Y-64527600D01*
D26*
X149745500Y-67128300D02*
X152541500Y-64332000D01*
D25*
X142414800Y-134566100D02*
X155916700Y-134566100D01*
D26*
X139816500Y-80237600D02*
X139816500Y-74949200D01*
D25*
%TO.N,+3V3*%
X158497500Y-76019700D02*
X156792200Y-76019700D01*
X156792200Y-76019700D02*
X151516300Y-81295600D01*
X158220900Y-70747400D02*
X158503500Y-70747400D01*
X151516300Y-81295600D02*
X151516300Y-101996400D01*
X145512700Y-108000000D02*
X145003100Y-108000000D01*
X159232500Y-121719800D02*
X145512700Y-108000000D01*
X158503500Y-70747400D02*
X159402800Y-71646700D01*
X159402800Y-71646700D02*
X159402800Y-75114400D01*
X151516300Y-101996400D02*
X145512700Y-108000000D01*
X159232500Y-129802200D02*
X159232500Y-121719800D01*
X159402800Y-75114400D02*
X158497500Y-76019700D01*
X158220900Y-69617100D02*
X158220900Y-70747400D01*
%TO.N,RESET*%
X149937300Y-93137900D02*
X144271400Y-98803800D01*
X144271400Y-98803800D02*
X144271400Y-112121500D01*
%TO.N,USB-C DATA+*%
X156817600Y-135649800D02*
X157036000Y-135649800D01*
X157882700Y-136496500D02*
X157882700Y-139217100D01*
X157036000Y-135649800D02*
X157882700Y-136496500D01*
X157882700Y-139217100D02*
X152416500Y-144683300D01*
%TO.N,USB-C DATA-*%
X155748400Y-136818900D02*
X150757900Y-141809400D01*
X157184600Y-136818900D02*
X155748400Y-136818900D01*
%TO.N,IO15{slash}WS*%
X143072000Y-98404500D02*
X143784900Y-98404500D01*
X148202800Y-93986600D02*
X148202800Y-82212600D01*
X143784900Y-98404500D02*
X148202800Y-93986600D01*
%TO.N,DTR*%
X153874200Y-129758200D02*
X154921800Y-128710600D01*
X154921800Y-121533900D02*
X147819800Y-114431900D01*
X154921800Y-128710600D02*
X154921800Y-121533900D01*
%TO.N,RTS*%
X153403900Y-122060300D02*
X149047200Y-117703600D01*
X154197300Y-122060300D02*
X153403900Y-122060300D01*
%TO.N,IO13*%
X158957700Y-111880800D02*
X158957700Y-110850500D01*
X156092500Y-77237100D02*
X153068100Y-80261500D01*
X157090600Y-77237100D02*
X156092500Y-77237100D01*
X153068100Y-80261500D02*
X153068100Y-109459000D01*
X158220900Y-77237100D02*
X157090600Y-77237100D01*
X153068100Y-109459000D02*
X154459600Y-110850500D01*
X154459600Y-110850500D02*
X158957700Y-110850500D01*
%TO.N,IO25{slash}A1{slash}DAC1*%
X150632800Y-79543200D02*
X155478900Y-74697100D01*
X155478900Y-74697100D02*
X158220900Y-74697100D01*
X146054000Y-79543200D02*
X150632800Y-79543200D01*
X143069900Y-83624400D02*
X143069900Y-82527300D01*
X143069900Y-82527300D02*
X146054000Y-79543200D01*
%TO.N,IO26{slash}A0{slash}DAC2*%
X143771000Y-80428600D02*
X146269100Y-77930500D01*
X146269100Y-77930500D02*
X147958900Y-77930500D01*
X147958900Y-77930500D02*
X153732300Y-72157100D01*
X153732300Y-72157100D02*
X158220900Y-72157100D01*
%TO.N,USB-C CC1*%
X159347600Y-146714100D02*
X159725500Y-146336200D01*
X154305000Y-146278600D02*
X154740500Y-146714100D01*
X154740500Y-146714100D02*
X159347600Y-146714100D01*
%TO.N,USB-C CC2*%
X154729100Y-145491200D02*
X153398600Y-145491200D01*
X153398600Y-145491200D02*
X153257900Y-145350500D01*
X155271600Y-146033700D02*
X154729100Y-145491200D01*
X157959500Y-146033700D02*
X155271600Y-146033700D01*
%TO.N,Net-(R7-Pad1)*%
X157657700Y-112911100D02*
X158175700Y-112911100D01*
X157657700Y-111880800D02*
X157657700Y-112911100D01*
X158175700Y-112911100D02*
X159103700Y-113839100D01*
D26*
%TO.N,Net-(F2-Pad2)*%
X137334500Y-134566600D02*
X137334500Y-135177100D01*
D25*
X137334800Y-135176800D02*
X137334800Y-134566100D01*
D26*
X137334500Y-135177100D02*
X137334500Y-135787600D01*
X138300000Y-136752600D02*
X139265500Y-137717600D01*
X137334500Y-135787600D02*
X138300000Y-136752600D01*
D25*
X138300000Y-136752600D02*
X139265100Y-137717700D01*
X137334500Y-135177100D02*
X137334800Y-135176800D01*
%TD*%
%TA.AperFunction,Conductor*%
%TO.N,GND*%
G36*
X151345036Y-61527802D02*
G01*
X151391529Y-61581458D01*
X151401633Y-61651732D01*
X151372139Y-61716312D01*
X151325038Y-61750248D01*
X151298553Y-61761193D01*
X151295343Y-61762983D01*
X151295338Y-61762986D01*
X151282313Y-61770252D01*
X151271071Y-61775808D01*
X151254012Y-61783208D01*
X151132114Y-61854012D01*
X151130209Y-61855096D01*
X151051747Y-61898863D01*
X151007104Y-61923765D01*
X151004112Y-61925927D01*
X151004106Y-61925931D01*
X150992025Y-61934661D01*
X150981509Y-61941491D01*
X150965436Y-61950827D01*
X150962490Y-61953035D01*
X150852672Y-62035339D01*
X150850925Y-62036625D01*
X150736612Y-62119231D01*
X150734068Y-62121530D01*
X150720866Y-62133460D01*
X150711964Y-62140793D01*
X150698386Y-62150969D01*
X150695725Y-62153499D01*
X150695721Y-62153502D01*
X150639774Y-62206686D01*
X150637442Y-62208847D01*
X150596972Y-62245419D01*
X150596961Y-62245430D01*
X150595783Y-62246494D01*
X150594655Y-62247622D01*
X150556260Y-62286022D01*
X150553977Y-62288249D01*
X150456511Y-62380901D01*
X150454157Y-62383732D01*
X150454148Y-62383741D01*
X150436077Y-62405469D01*
X150428305Y-62413989D01*
X149577392Y-63264994D01*
X147943168Y-64899394D01*
X147811037Y-65031539D01*
X147804023Y-65038040D01*
X147761893Y-65074214D01*
X147687888Y-65154552D01*
X147684333Y-65158256D01*
X147669205Y-65173386D01*
X147632622Y-65214523D01*
X147631217Y-65216075D01*
X147535788Y-65319671D01*
X147524780Y-65334851D01*
X147516933Y-65344611D01*
X147504464Y-65358632D01*
X147423743Y-65474143D01*
X147422532Y-65475842D01*
X147339865Y-65589832D01*
X147338069Y-65593039D01*
X147338062Y-65593050D01*
X147330699Y-65606199D01*
X147324049Y-65616801D01*
X147313301Y-65632181D01*
X147272736Y-65707686D01*
X147246675Y-65756194D01*
X147245614Y-65758127D01*
X147178605Y-65877779D01*
X147178597Y-65877795D01*
X147176799Y-65881006D01*
X147175386Y-65884409D01*
X147175383Y-65884415D01*
X147169608Y-65898324D01*
X147164235Y-65909640D01*
X147157104Y-65922912D01*
X147157097Y-65922927D01*
X147155358Y-65926164D01*
X147105767Y-66051758D01*
X147103658Y-66057098D01*
X147102830Y-66059143D01*
X147057029Y-66169445D01*
X147048819Y-66189216D01*
X147047812Y-66192765D01*
X147047811Y-66192766D01*
X147043696Y-66207260D01*
X147039682Y-66219122D01*
X147032793Y-66236569D01*
X147031849Y-66240129D01*
X147031847Y-66240136D01*
X147023624Y-66271157D01*
X146986835Y-66331878D01*
X146923057Y-66363070D01*
X146852540Y-66354830D01*
X146803917Y-66315429D01*
X146802839Y-66316333D01*
X146799306Y-66312123D01*
X146796147Y-66307611D01*
X146635239Y-66146703D01*
X146448834Y-66016182D01*
X146443856Y-66013861D01*
X146443853Y-66013859D01*
X146247578Y-65922334D01*
X146247576Y-65922333D01*
X146242596Y-65920011D01*
X146237288Y-65918589D01*
X146237286Y-65918588D01*
X146028107Y-65862539D01*
X146028105Y-65862539D01*
X146022792Y-65861115D01*
X145796100Y-65841282D01*
X145569408Y-65861115D01*
X145564095Y-65862539D01*
X145564093Y-65862539D01*
X145354914Y-65918588D01*
X145354912Y-65918589D01*
X145349604Y-65920011D01*
X145344624Y-65922333D01*
X145344622Y-65922334D01*
X145148347Y-66013859D01*
X145148344Y-66013861D01*
X145143366Y-66016182D01*
X144956961Y-66146703D01*
X144796053Y-66307611D01*
X144665532Y-66494016D01*
X144663211Y-66498994D01*
X144663209Y-66498997D01*
X144591337Y-66653126D01*
X144569361Y-66700254D01*
X144567939Y-66705562D01*
X144567938Y-66705564D01*
X144518623Y-66889613D01*
X144510465Y-66920058D01*
X144490632Y-67146750D01*
X144510465Y-67373442D01*
X144569361Y-67593246D01*
X144571683Y-67598226D01*
X144571684Y-67598228D01*
X144653781Y-67774283D01*
X144665532Y-67799484D01*
X144796053Y-67985889D01*
X144840869Y-68030705D01*
X144874895Y-68093017D01*
X144869830Y-68163832D01*
X144827283Y-68220668D01*
X144760763Y-68245479D01*
X144751774Y-68245800D01*
X143784347Y-68245800D01*
X143774788Y-68245437D01*
X143772027Y-68245227D01*
X143719373Y-68241221D01*
X143715691Y-68241372D01*
X143715687Y-68241372D01*
X143610337Y-68245694D01*
X143605172Y-68245800D01*
X143583824Y-68245800D01*
X143528832Y-68249019D01*
X143526656Y-68249126D01*
X143501275Y-68250168D01*
X143423970Y-68253339D01*
X143355086Y-68236146D01*
X143306433Y-68184441D01*
X143293457Y-68114640D01*
X143311372Y-68061610D01*
X143420675Y-67883244D01*
X143425156Y-67874450D01*
X143518226Y-67649759D01*
X143521275Y-67640374D01*
X143578051Y-67403887D01*
X143579594Y-67394140D01*
X143598676Y-67151680D01*
X143598676Y-67141820D01*
X143579594Y-66899360D01*
X143578051Y-66889613D01*
X143521275Y-66653126D01*
X143518226Y-66643741D01*
X143425156Y-66419050D01*
X143420675Y-66410256D01*
X143301379Y-66215583D01*
X143290922Y-66206123D01*
X143282146Y-66209906D01*
X141052292Y-68439760D01*
X141045532Y-68452140D01*
X141051259Y-68459790D01*
X141249598Y-68581333D01*
X141258392Y-68585814D01*
X141483083Y-68678884D01*
X141492468Y-68681933D01*
X141729606Y-68738865D01*
X141791175Y-68774217D01*
X141823858Y-68837244D01*
X141817277Y-68907935D01*
X141787006Y-68952704D01*
X141767726Y-68971032D01*
X141765447Y-68973144D01*
X141723922Y-69010664D01*
X141722782Y-69011804D01*
X141684328Y-69050257D01*
X141682046Y-69052482D01*
X141584511Y-69145201D01*
X141582161Y-69148027D01*
X141582154Y-69148034D01*
X141564137Y-69169696D01*
X141556360Y-69178220D01*
X137882095Y-72852391D01*
X137875081Y-72858891D01*
X137832893Y-72895114D01*
X137797182Y-72933881D01*
X137758964Y-72975370D01*
X137755385Y-72979097D01*
X137740335Y-72994147D01*
X137739120Y-72995513D01*
X137739104Y-72995530D01*
X137703696Y-73035340D01*
X137702241Y-73036948D01*
X137606788Y-73140571D01*
X137595832Y-73155679D01*
X137587988Y-73165434D01*
X137575582Y-73179382D01*
X137563516Y-73196646D01*
X137494851Y-73294888D01*
X137493577Y-73296677D01*
X137413029Y-73407747D01*
X137413023Y-73407756D01*
X137410865Y-73410732D01*
X137401745Y-73427016D01*
X137395099Y-73437611D01*
X137384400Y-73452919D01*
X137382664Y-73456150D01*
X137382654Y-73456166D01*
X137317680Y-73577085D01*
X137316623Y-73579011D01*
X137249605Y-73698679D01*
X137249597Y-73698695D01*
X137247799Y-73701906D01*
X137240636Y-73719155D01*
X137235274Y-73730448D01*
X137226438Y-73746892D01*
X137225086Y-73750316D01*
X137174687Y-73877930D01*
X137173862Y-73879967D01*
X137171782Y-73884977D01*
X137119819Y-74010116D01*
X137118817Y-74013646D01*
X137118815Y-74013651D01*
X137114723Y-74028066D01*
X137110705Y-74039935D01*
X137103852Y-74057288D01*
X137102908Y-74060847D01*
X137102908Y-74060848D01*
X137067747Y-74193454D01*
X137067165Y-74195573D01*
X137029680Y-74327602D01*
X137028672Y-74331153D01*
X137028086Y-74334789D01*
X137028086Y-74334791D01*
X137025706Y-74349570D01*
X137023100Y-74361832D01*
X137018318Y-74379866D01*
X137017797Y-74383505D01*
X137017796Y-74383509D01*
X136998348Y-74519294D01*
X136998018Y-74521465D01*
X136975603Y-74660632D01*
X136975430Y-74664051D01*
X136975429Y-74664059D01*
X136974526Y-74681894D01*
X136973414Y-74693384D01*
X136971526Y-74706563D01*
X136971525Y-74706577D01*
X136971003Y-74710220D01*
X136970910Y-74713904D01*
X136968955Y-74791060D01*
X136968834Y-74794242D01*
X136966000Y-74850201D01*
X136966000Y-74906157D01*
X136965960Y-74909347D01*
X136964159Y-74980479D01*
X136962554Y-75043837D01*
X136962891Y-75047502D01*
X136965472Y-75075598D01*
X136966000Y-75087126D01*
X136966000Y-118344771D01*
X136965637Y-118354328D01*
X136961420Y-118409764D01*
X136961571Y-118413445D01*
X136961571Y-118413449D01*
X136965894Y-118518784D01*
X136966000Y-118523950D01*
X136966000Y-118545276D01*
X136966105Y-118547078D01*
X136966106Y-118547096D01*
X136969220Y-118600283D01*
X136969329Y-118602480D01*
X136975104Y-118743209D01*
X136975684Y-118746851D01*
X136975685Y-118746860D01*
X136978040Y-118761643D01*
X136979394Y-118774099D01*
X136980486Y-118792755D01*
X136981129Y-118796383D01*
X137005075Y-118931496D01*
X137005439Y-118933665D01*
X137027016Y-119069134D01*
X137027021Y-119069155D01*
X137027598Y-119072780D01*
X137028597Y-119076322D01*
X137032668Y-119090758D01*
X137035464Y-119102969D01*
X137038079Y-119117724D01*
X137038082Y-119117735D01*
X137038724Y-119121360D01*
X137039787Y-119124892D01*
X137079336Y-119256301D01*
X137079951Y-119258412D01*
X137117181Y-119390420D01*
X137118184Y-119393976D01*
X137125316Y-119411236D01*
X137129517Y-119423036D01*
X137133838Y-119437391D01*
X137134902Y-119440925D01*
X137136368Y-119444304D01*
X137190960Y-119570157D01*
X137191818Y-119572183D01*
X137245626Y-119702409D01*
X137247423Y-119705631D01*
X137254726Y-119718725D01*
X137260276Y-119729955D01*
X137267708Y-119747088D01*
X137269558Y-119750273D01*
X137269559Y-119750275D01*
X137338470Y-119868912D01*
X137339553Y-119870816D01*
X137408183Y-119993867D01*
X137419134Y-120009023D01*
X137425941Y-120019506D01*
X137435327Y-120035664D01*
X137437530Y-120038604D01*
X137437533Y-120038608D01*
X137519810Y-120148392D01*
X137521112Y-120150162D01*
X137601616Y-120261578D01*
X137601629Y-120261594D01*
X137603634Y-120264369D01*
X137605934Y-120266914D01*
X137617917Y-120280176D01*
X137625255Y-120289086D01*
X137633253Y-120299758D01*
X137633260Y-120299766D01*
X137635469Y-120302714D01*
X137691234Y-120361375D01*
X137693301Y-120363605D01*
X137730889Y-120405205D01*
X137770454Y-120444770D01*
X137772680Y-120447053D01*
X137862860Y-120541917D01*
X137862868Y-120541925D01*
X137865401Y-120544589D01*
X137889921Y-120564982D01*
X137898436Y-120572752D01*
X140477474Y-123151790D01*
X140662712Y-123316541D01*
X140665734Y-123318653D01*
X140665739Y-123318657D01*
X140789514Y-123405164D01*
X140936251Y-123507719D01*
X141054125Y-123571055D01*
X141226972Y-123663930D01*
X141226978Y-123663933D01*
X141230226Y-123665678D01*
X141371850Y-123721608D01*
X141537192Y-123786905D01*
X141537197Y-123786907D01*
X141540624Y-123788260D01*
X141691669Y-123828308D01*
X141859636Y-123872844D01*
X141859644Y-123872846D01*
X141863202Y-123873789D01*
X141866854Y-123874312D01*
X141866859Y-123874313D01*
X142028380Y-123897445D01*
X142193557Y-123921100D01*
X142348758Y-123925029D01*
X142523486Y-123929452D01*
X142523493Y-123929452D01*
X142527175Y-123929545D01*
X142530852Y-123929207D01*
X142530856Y-123929207D01*
X142634321Y-123919700D01*
X142859500Y-123899009D01*
X143185993Y-123829908D01*
X143502194Y-123723188D01*
X143803785Y-123580304D01*
X143919721Y-123507719D01*
X144083525Y-123405164D01*
X144086646Y-123403210D01*
X144346913Y-123194323D01*
X144581032Y-122956498D01*
X144785805Y-122692982D01*
X144854210Y-122579809D01*
X144956526Y-122410533D01*
X144956529Y-122410528D01*
X144958435Y-122407374D01*
X145024796Y-122261420D01*
X145095042Y-122106923D01*
X145095044Y-122106918D01*
X145096563Y-122103577D01*
X145174087Y-121861394D01*
X145197180Y-121789250D01*
X145197181Y-121789247D01*
X145198304Y-121785738D01*
X145203370Y-121759798D01*
X145261561Y-121461817D01*
X145261562Y-121461808D01*
X145262267Y-121458199D01*
X145262613Y-121453659D01*
X145287300Y-121129114D01*
X145287580Y-121125436D01*
X145273896Y-120791992D01*
X145221402Y-120462421D01*
X145130816Y-120141224D01*
X145069929Y-119993867D01*
X145004778Y-119836188D01*
X145004775Y-119836182D01*
X145003374Y-119832791D01*
X144840818Y-119541333D01*
X144838669Y-119538359D01*
X144838664Y-119538351D01*
X144647377Y-119273614D01*
X144647376Y-119273612D01*
X144645366Y-119270831D01*
X144518111Y-119129995D01*
X142703905Y-117315789D01*
X142669879Y-117253477D01*
X142667000Y-117226694D01*
X142667000Y-114431900D01*
X147214118Y-114431900D01*
X147234756Y-114588662D01*
X147295264Y-114734741D01*
X147391518Y-114860182D01*
X147516959Y-114956436D01*
X147663038Y-115016944D01*
X147819800Y-115037582D01*
X147827988Y-115036504D01*
X147942878Y-115021379D01*
X148013027Y-115032319D01*
X148048419Y-115057206D01*
X154236250Y-121245037D01*
X154270276Y-121307349D01*
X154265211Y-121378164D01*
X154222664Y-121435000D01*
X154163602Y-121459054D01*
X154071612Y-121471165D01*
X154040538Y-121475256D01*
X153894459Y-121535764D01*
X153769018Y-121632018D01*
X153763995Y-121638564D01*
X153693447Y-121730504D01*
X153636109Y-121772371D01*
X153593484Y-121779800D01*
X153572277Y-121779800D01*
X153504156Y-121759798D01*
X153483182Y-121742895D01*
X149672506Y-117932219D01*
X149638480Y-117869907D01*
X149636679Y-117826678D01*
X149651804Y-117711788D01*
X149652882Y-117703600D01*
X149632244Y-117546838D01*
X149571736Y-117400759D01*
X149475482Y-117275318D01*
X149350041Y-117179064D01*
X149203962Y-117118556D01*
X149047200Y-117097918D01*
X148890438Y-117118556D01*
X148744359Y-117179064D01*
X148618918Y-117275318D01*
X148522664Y-117400759D01*
X148462156Y-117546838D01*
X148441518Y-117703600D01*
X148462156Y-117860362D01*
X148522664Y-118006441D01*
X148618918Y-118131882D01*
X148744359Y-118228136D01*
X148890438Y-118288644D01*
X149047200Y-118309282D01*
X149055388Y-118308204D01*
X149170278Y-118293079D01*
X149240427Y-118304019D01*
X149275819Y-118328906D01*
X153171237Y-122224324D01*
X153172582Y-122225882D01*
X153174809Y-122230438D01*
X153183337Y-122238349D01*
X153183338Y-122238350D01*
X153208208Y-122261420D01*
X153211613Y-122264700D01*
X153224005Y-122277092D01*
X153227796Y-122279692D01*
X153229861Y-122281505D01*
X153251418Y-122301503D01*
X153262222Y-122305813D01*
X153268136Y-122309552D01*
X153272303Y-122311777D01*
X153278698Y-122314611D01*
X153288289Y-122321190D01*
X153299607Y-122323876D01*
X153310073Y-122326360D01*
X153327670Y-122331925D01*
X153340216Y-122336930D01*
X153348473Y-122340224D01*
X153354347Y-122340800D01*
X153357428Y-122340800D01*
X153360498Y-122340950D01*
X153360481Y-122341304D01*
X153367022Y-122342069D01*
X153367022Y-122342063D01*
X153378640Y-122342631D01*
X153389961Y-122345318D01*
X153401490Y-122343749D01*
X153401491Y-122343749D01*
X153414702Y-122341951D01*
X153431693Y-122340800D01*
X153593484Y-122340800D01*
X153661605Y-122360802D01*
X153693447Y-122390096D01*
X153706705Y-122407374D01*
X153769018Y-122488582D01*
X153894459Y-122584836D01*
X154040538Y-122645344D01*
X154197300Y-122665982D01*
X154205488Y-122664904D01*
X154345874Y-122646422D01*
X154354062Y-122645344D01*
X154361689Y-122642185D01*
X154361692Y-122642184D01*
X154467082Y-122598530D01*
X154537672Y-122590941D01*
X154601159Y-122622721D01*
X154637386Y-122683779D01*
X154641300Y-122714939D01*
X154641300Y-128542223D01*
X154621298Y-128610344D01*
X154604395Y-128631318D01*
X154102819Y-129132894D01*
X154040507Y-129166920D01*
X153997278Y-129168721D01*
X153882388Y-129153596D01*
X153874200Y-129152518D01*
X153717438Y-129173156D01*
X153571359Y-129233664D01*
X153445918Y-129329918D01*
X153349664Y-129455359D01*
X153289156Y-129601438D01*
X153268518Y-129758200D01*
X153289156Y-129914962D01*
X153349664Y-130061041D01*
X153445918Y-130186482D01*
X153571359Y-130282736D01*
X153717438Y-130343244D01*
X153874200Y-130363882D01*
X153882388Y-130362804D01*
X154022774Y-130344322D01*
X154030962Y-130343244D01*
X154177041Y-130282736D01*
X154302482Y-130186482D01*
X154398736Y-130061041D01*
X154459244Y-129914962D01*
X154479882Y-129758200D01*
X154465037Y-129645438D01*
X154463679Y-129635122D01*
X154474619Y-129564973D01*
X154499506Y-129529581D01*
X155085824Y-128943263D01*
X155087382Y-128941918D01*
X155091938Y-128939691D01*
X155122920Y-128906292D01*
X155126200Y-128902887D01*
X155138592Y-128890495D01*
X155141192Y-128886704D01*
X155143005Y-128884639D01*
X155163003Y-128863082D01*
X155167313Y-128852278D01*
X155171052Y-128846364D01*
X155173277Y-128842197D01*
X155176111Y-128835802D01*
X155182690Y-128826211D01*
X155187860Y-128804427D01*
X155193425Y-128786830D01*
X155198430Y-128774284D01*
X155198430Y-128774283D01*
X155201724Y-128766027D01*
X155202300Y-128760153D01*
X155202300Y-128757072D01*
X155202450Y-128754002D01*
X155202804Y-128754019D01*
X155203569Y-128747478D01*
X155203563Y-128747478D01*
X155204131Y-128735860D01*
X155206818Y-128724539D01*
X155203451Y-128699798D01*
X155202300Y-128682807D01*
X155202300Y-121582434D01*
X155202450Y-121580385D01*
X155204098Y-121575586D01*
X155203382Y-121556496D01*
X155202389Y-121530062D01*
X155202300Y-121525335D01*
X155202300Y-121507810D01*
X155201460Y-121503300D01*
X155201280Y-121500527D01*
X155200614Y-121482791D01*
X155200178Y-121471165D01*
X155195586Y-121460478D01*
X155194050Y-121453659D01*
X155192672Y-121449125D01*
X155190157Y-121442606D01*
X155188027Y-121431172D01*
X155176275Y-121412106D01*
X155167771Y-121395735D01*
X155162441Y-121383330D01*
X155162440Y-121383328D01*
X155158929Y-121375157D01*
X155155183Y-121370596D01*
X155152993Y-121368406D01*
X155150936Y-121366138D01*
X155151199Y-121365899D01*
X155147117Y-121360735D01*
X155147113Y-121360739D01*
X155139300Y-121352122D01*
X155133195Y-121342218D01*
X155113306Y-121327094D01*
X155100487Y-121315900D01*
X148445106Y-114660519D01*
X148411080Y-114598207D01*
X148409279Y-114554978D01*
X148424404Y-114440088D01*
X148425482Y-114431900D01*
X148404844Y-114275138D01*
X148344336Y-114129059D01*
X148248082Y-114003618D01*
X148122641Y-113907364D01*
X147976562Y-113846856D01*
X147819800Y-113826218D01*
X147663038Y-113846856D01*
X147516959Y-113907364D01*
X147391518Y-114003618D01*
X147295264Y-114129059D01*
X147234756Y-114275138D01*
X147214118Y-114431900D01*
X142667000Y-114431900D01*
X142667000Y-99075293D01*
X142687002Y-99007172D01*
X142740658Y-98960679D01*
X142810932Y-98950575D01*
X142841218Y-98958884D01*
X142907608Y-98986384D01*
X142907611Y-98986385D01*
X142915238Y-98989544D01*
X143072000Y-99010182D01*
X143080188Y-99009104D01*
X143220574Y-98990622D01*
X143228762Y-98989544D01*
X143374841Y-98929036D01*
X143500282Y-98832782D01*
X143533030Y-98790104D01*
X143575853Y-98734296D01*
X143633191Y-98692429D01*
X143675816Y-98685000D01*
X143736367Y-98685000D01*
X143738415Y-98685150D01*
X143743214Y-98686798D01*
X143788727Y-98685089D01*
X143793455Y-98685000D01*
X143810990Y-98685000D01*
X143815502Y-98684159D01*
X143818286Y-98683979D01*
X143844241Y-98683004D01*
X143847634Y-98682877D01*
X143847702Y-98684690D01*
X143904691Y-98688340D01*
X143961842Y-98730462D01*
X143984595Y-98790104D01*
X143986382Y-98789861D01*
X143989749Y-98814602D01*
X143990900Y-98831593D01*
X143990900Y-111517684D01*
X143970898Y-111585805D01*
X143941604Y-111617647D01*
X143843118Y-111693218D01*
X143746864Y-111818659D01*
X143686356Y-111964738D01*
X143665718Y-112121500D01*
X143686356Y-112278262D01*
X143746864Y-112424341D01*
X143843118Y-112549782D01*
X143968559Y-112646036D01*
X144114638Y-112706544D01*
X144271400Y-112727182D01*
X144279588Y-112726104D01*
X144419974Y-112707622D01*
X144428162Y-112706544D01*
X144574241Y-112646036D01*
X144699682Y-112549782D01*
X144795936Y-112424341D01*
X144856444Y-112278262D01*
X144877082Y-112121500D01*
X144856444Y-111964738D01*
X144795936Y-111818659D01*
X144699682Y-111693218D01*
X144601196Y-111617647D01*
X144559329Y-111560309D01*
X144551900Y-111517684D01*
X144551900Y-108651656D01*
X144571902Y-108583535D01*
X144625558Y-108537042D01*
X144695832Y-108526938D01*
X144726117Y-108535247D01*
X144846338Y-108585044D01*
X145003100Y-108605682D01*
X145011288Y-108604604D01*
X145151674Y-108586122D01*
X145159862Y-108585044D01*
X145305941Y-108524536D01*
X145407607Y-108446525D01*
X145473827Y-108420925D01*
X145543376Y-108435190D01*
X145573406Y-108457393D01*
X158915095Y-121799082D01*
X158949121Y-121861394D01*
X158952000Y-121888177D01*
X158952000Y-129198384D01*
X158931998Y-129266505D01*
X158902704Y-129298347D01*
X158804218Y-129373918D01*
X158707964Y-129499359D01*
X158647456Y-129645438D01*
X158626818Y-129802200D01*
X158647456Y-129958962D01*
X158707964Y-130105041D01*
X158804218Y-130230482D01*
X158810764Y-130235505D01*
X158840418Y-130258259D01*
X158929659Y-130326736D01*
X159075738Y-130387244D01*
X159083926Y-130388322D01*
X159154119Y-130397563D01*
X159232500Y-130407882D01*
X159238010Y-130407157D01*
X159304930Y-130426806D01*
X159351423Y-130480462D01*
X159361731Y-130516358D01*
X159377821Y-130638578D01*
X159366881Y-130708727D01*
X159341994Y-130744119D01*
X155837418Y-134248695D01*
X155775106Y-134282721D01*
X155748323Y-134285600D01*
X143678515Y-134285600D01*
X143610394Y-134265598D01*
X143563901Y-134211942D01*
X143557246Y-134193802D01*
X143541967Y-134139626D01*
X143541963Y-134139615D01*
X143540397Y-134134063D01*
X143528662Y-134110265D01*
X143445367Y-133941361D01*
X143442812Y-133936180D01*
X143310799Y-133759394D01*
X143171975Y-133631066D01*
X143153021Y-133613545D01*
X143153018Y-133613543D01*
X143148781Y-133609626D01*
X142962182Y-133491891D01*
X142757253Y-133410133D01*
X142751593Y-133409007D01*
X142751589Y-133409006D01*
X142546523Y-133368216D01*
X142546520Y-133368216D01*
X142540856Y-133367089D01*
X142535081Y-133367013D01*
X142535077Y-133367013D01*
X142424336Y-133365564D01*
X142320238Y-133364201D01*
X142314541Y-133365180D01*
X142314540Y-133365180D01*
X142108486Y-133400586D01*
X142108485Y-133400586D01*
X142102789Y-133401565D01*
X141895789Y-133477931D01*
X141706173Y-133590741D01*
X141540289Y-133736217D01*
X141403695Y-133909487D01*
X141300963Y-134104747D01*
X141235535Y-134315460D01*
X141209602Y-134534567D01*
X141224032Y-134754731D01*
X141225453Y-134760327D01*
X141225454Y-134760332D01*
X141269078Y-134932099D01*
X141278343Y-134968579D01*
X141280760Y-134973821D01*
X141280760Y-134973822D01*
X141324138Y-135067916D01*
X141370715Y-135168948D01*
X141498054Y-135349129D01*
X141656096Y-135503088D01*
X141660892Y-135506293D01*
X141660895Y-135506295D01*
X141745093Y-135562554D01*
X141839549Y-135625667D01*
X141844852Y-135627945D01*
X141844855Y-135627947D01*
X141961164Y-135677917D01*
X142042268Y-135712762D01*
X142121920Y-135730785D01*
X142251827Y-135760181D01*
X142251833Y-135760182D01*
X142257464Y-135761456D01*
X142263235Y-135761683D01*
X142263237Y-135761683D01*
X142331043Y-135764347D01*
X142477930Y-135770118D01*
X142587107Y-135754288D01*
X142690570Y-135739287D01*
X142690575Y-135739286D01*
X142696284Y-135738458D01*
X142701748Y-135736603D01*
X142701753Y-135736602D01*
X142899739Y-135669395D01*
X142899744Y-135669393D01*
X142905211Y-135667537D01*
X142951504Y-135641612D01*
X143031942Y-135596564D01*
X143097716Y-135559729D01*
X143267350Y-135418645D01*
X143329088Y-135344414D01*
X143404740Y-135253453D01*
X143404742Y-135253450D01*
X143408434Y-135249011D01*
X143511622Y-135064756D01*
X143513418Y-135061549D01*
X143513419Y-135061547D01*
X143516242Y-135056506D01*
X143518098Y-135051039D01*
X143518100Y-135051034D01*
X143558472Y-134932099D01*
X143599309Y-134874023D01*
X143665061Y-134847244D01*
X143677785Y-134846600D01*
X155868167Y-134846600D01*
X155870215Y-134846750D01*
X155875014Y-134848398D01*
X155920527Y-134846689D01*
X155925255Y-134846600D01*
X155942790Y-134846600D01*
X155947302Y-134845759D01*
X155950086Y-134845579D01*
X155967808Y-134844914D01*
X155967811Y-134844913D01*
X155979435Y-134844477D01*
X155990125Y-134839885D01*
X155996948Y-134838347D01*
X156001484Y-134836969D01*
X156007994Y-134834457D01*
X156019428Y-134832327D01*
X156038492Y-134820576D01*
X156054868Y-134812069D01*
X156067271Y-134806740D01*
X156075443Y-134803229D01*
X156080004Y-134799483D01*
X156082200Y-134797287D01*
X156084462Y-134795236D01*
X156084701Y-134795499D01*
X156089865Y-134791417D01*
X156089861Y-134791413D01*
X156098478Y-134783600D01*
X156108382Y-134777495D01*
X156123506Y-134757606D01*
X156134700Y-134744787D01*
X159738681Y-131140806D01*
X159800993Y-131106780D01*
X159844222Y-131104979D01*
X159959112Y-131120104D01*
X159967300Y-131121182D01*
X159975488Y-131120104D01*
X160115874Y-131101622D01*
X160124062Y-131100544D01*
X160270141Y-131040036D01*
X160395582Y-130943782D01*
X160474137Y-130841407D01*
X160531475Y-130799540D01*
X160602346Y-130795318D01*
X160664249Y-130830082D01*
X160697530Y-130892795D01*
X160700100Y-130918111D01*
X160700100Y-148274059D01*
X160698186Y-148295938D01*
X160695472Y-148311330D01*
X160697386Y-148322187D01*
X160697386Y-148333206D01*
X160697017Y-148333206D01*
X160697653Y-148345532D01*
X160683439Y-148544274D01*
X160680881Y-148562068D01*
X160679274Y-148569457D01*
X160639029Y-148754463D01*
X160633154Y-148781468D01*
X160628090Y-148798715D01*
X160549623Y-149009094D01*
X160549622Y-149009096D01*
X160542155Y-149025445D01*
X160463080Y-149170259D01*
X160434549Y-149222510D01*
X160424832Y-149237630D01*
X160313948Y-149385754D01*
X160290272Y-149417382D01*
X160278499Y-149430968D01*
X160119738Y-149589729D01*
X160106152Y-149601502D01*
X159931283Y-149732407D01*
X159926403Y-149736060D01*
X159911284Y-149745777D01*
X159714215Y-149853385D01*
X159697871Y-149860850D01*
X159491904Y-149937672D01*
X159487488Y-149939319D01*
X159470240Y-149944383D01*
X159470233Y-149944385D01*
X159250838Y-149992111D01*
X159233044Y-149994669D01*
X159034302Y-150008883D01*
X159021976Y-150008247D01*
X159021976Y-150008616D01*
X159010957Y-150008616D01*
X159000100Y-150006702D01*
X158989245Y-150008616D01*
X158984708Y-150009416D01*
X158962829Y-150011330D01*
X139734583Y-150011330D01*
X139666462Y-149991328D01*
X139619969Y-149937672D01*
X139609865Y-149867398D01*
X139639359Y-149802818D01*
X139687684Y-149768923D01*
X139687806Y-149768888D01*
X139881404Y-149673416D01*
X139903470Y-149656939D01*
X139977707Y-149601503D01*
X140054361Y-149544263D01*
X140159090Y-149430968D01*
X140196962Y-149389999D01*
X140200886Y-149385754D01*
X140203967Y-149380871D01*
X140203970Y-149380867D01*
X140312990Y-149208080D01*
X140312992Y-149208075D01*
X140316071Y-149203196D01*
X140396059Y-149002705D01*
X140397184Y-148997048D01*
X140397186Y-148997042D01*
X140437043Y-148796663D01*
X140437043Y-148796659D01*
X140438170Y-148790995D01*
X140438497Y-148766072D01*
X140439325Y-148702832D01*
X146079900Y-148702832D01*
X146080185Y-148708808D01*
X146094371Y-148857494D01*
X146096630Y-148869228D01*
X146152772Y-149060599D01*
X146157202Y-149071675D01*
X146248519Y-149248978D01*
X146254969Y-149259024D01*
X146378162Y-149415857D01*
X146386399Y-149424506D01*
X146537023Y-149555212D01*
X146546747Y-149562147D01*
X146719367Y-149662010D01*
X146730231Y-149666984D01*
X146918627Y-149732407D01*
X146919616Y-149732648D01*
X146929908Y-149731180D01*
X146933900Y-149717615D01*
X146933900Y-149713402D01*
X147441900Y-149713402D01*
X147445873Y-149726933D01*
X147455299Y-149728288D01*
X147544437Y-149706806D01*
X147555732Y-149702917D01*
X147737282Y-149620371D01*
X147747624Y-149614424D01*
X147910297Y-149499032D01*
X147919325Y-149491239D01*
X148057242Y-149347169D01*
X148064638Y-149337804D01*
X148172821Y-149170259D01*
X148178317Y-149159655D01*
X148252861Y-148974688D01*
X148256255Y-148963230D01*
X148294757Y-148766072D01*
X148295834Y-148757209D01*
X148295900Y-148754500D01*
X148295900Y-148702832D01*
X154719900Y-148702832D01*
X154720185Y-148708808D01*
X154734371Y-148857494D01*
X154736630Y-148869228D01*
X154792772Y-149060599D01*
X154797202Y-149071675D01*
X154888519Y-149248978D01*
X154894969Y-149259024D01*
X155018162Y-149415857D01*
X155026399Y-149424506D01*
X155177023Y-149555212D01*
X155186747Y-149562147D01*
X155359367Y-149662010D01*
X155370231Y-149666984D01*
X155558627Y-149732407D01*
X155559616Y-149732648D01*
X155569908Y-149731180D01*
X155573900Y-149717615D01*
X155573900Y-149713402D01*
X156081900Y-149713402D01*
X156085873Y-149726933D01*
X156095299Y-149728288D01*
X156184437Y-149706806D01*
X156195732Y-149702917D01*
X156377282Y-149620371D01*
X156387624Y-149614424D01*
X156550297Y-149499032D01*
X156559325Y-149491239D01*
X156697242Y-149347169D01*
X156704638Y-149337804D01*
X156812821Y-149170259D01*
X156818317Y-149159655D01*
X156892861Y-148974688D01*
X156896255Y-148963230D01*
X156934757Y-148766072D01*
X156935834Y-148757209D01*
X156935900Y-148754500D01*
X156935900Y-148625115D01*
X156931425Y-148609876D01*
X156930035Y-148608671D01*
X156922352Y-148607000D01*
X156100015Y-148607000D01*
X156084776Y-148611475D01*
X156083571Y-148612865D01*
X156081900Y-148620548D01*
X156081900Y-149713402D01*
X155573900Y-149713402D01*
X155573900Y-148625115D01*
X155569425Y-148609876D01*
X155568035Y-148608671D01*
X155560352Y-148607000D01*
X154738015Y-148607000D01*
X154722776Y-148611475D01*
X154721571Y-148612865D01*
X154719900Y-148620548D01*
X154719900Y-148702832D01*
X148295900Y-148702832D01*
X148295900Y-148625115D01*
X148291425Y-148609876D01*
X148290035Y-148608671D01*
X148282352Y-148607000D01*
X147460015Y-148607000D01*
X147444776Y-148611475D01*
X147443571Y-148612865D01*
X147441900Y-148620548D01*
X147441900Y-149713402D01*
X146933900Y-149713402D01*
X146933900Y-148625115D01*
X146929425Y-148609876D01*
X146928035Y-148608671D01*
X146920352Y-148607000D01*
X146098015Y-148607000D01*
X146082776Y-148611475D01*
X146081571Y-148612865D01*
X146079900Y-148620548D01*
X146079900Y-148702832D01*
X140439325Y-148702832D01*
X140440342Y-148625115D01*
X140440996Y-148575155D01*
X140438749Y-148562075D01*
X140405419Y-148368112D01*
X140405419Y-148368111D01*
X140404440Y-148362415D01*
X140329728Y-148159898D01*
X140310346Y-148127320D01*
X140282720Y-148080885D01*
X146079900Y-148080885D01*
X146084375Y-148096124D01*
X146085765Y-148097329D01*
X146093448Y-148099000D01*
X146915785Y-148099000D01*
X146931024Y-148094525D01*
X146932229Y-148093135D01*
X146933900Y-148085452D01*
X146933900Y-148080885D01*
X147441900Y-148080885D01*
X147446375Y-148096124D01*
X147447765Y-148097329D01*
X147455448Y-148099000D01*
X148277785Y-148099000D01*
X148293024Y-148094525D01*
X148294229Y-148093135D01*
X148295900Y-148085452D01*
X148295900Y-148003168D01*
X148295615Y-147997192D01*
X148281429Y-147848506D01*
X148279170Y-147836772D01*
X148223028Y-147645401D01*
X148218598Y-147634325D01*
X148127281Y-147457022D01*
X148120831Y-147446976D01*
X147997638Y-147290143D01*
X147989401Y-147281494D01*
X147838777Y-147150788D01*
X147829053Y-147143853D01*
X147656433Y-147043990D01*
X147645569Y-147039016D01*
X147457173Y-146973593D01*
X147456184Y-146973352D01*
X147445892Y-146974820D01*
X147441900Y-146988385D01*
X147441900Y-148080885D01*
X146933900Y-148080885D01*
X146933900Y-146992598D01*
X146929927Y-146979067D01*
X146920501Y-146977712D01*
X146831363Y-146999194D01*
X146820068Y-147003083D01*
X146638518Y-147085629D01*
X146628176Y-147091576D01*
X146465503Y-147206968D01*
X146456475Y-147214761D01*
X146318558Y-147358831D01*
X146311162Y-147368196D01*
X146202979Y-147535741D01*
X146197483Y-147546345D01*
X146122939Y-147731312D01*
X146119545Y-147742770D01*
X146081043Y-147939928D01*
X146079966Y-147948791D01*
X146079900Y-147951500D01*
X146079900Y-148080885D01*
X140282720Y-148080885D01*
X140222317Y-147979356D01*
X140222315Y-147979353D01*
X140219361Y-147974388D01*
X140215555Y-147970048D01*
X140215552Y-147970044D01*
X140080843Y-147816439D01*
X140077036Y-147812098D01*
X140046062Y-147787680D01*
X139912053Y-147682035D01*
X139912051Y-147682033D01*
X139907519Y-147678461D01*
X139716487Y-147577955D01*
X139510338Y-147513944D01*
X139459435Y-147507919D01*
X139338764Y-147493636D01*
X139338759Y-147493636D01*
X139335078Y-147493200D01*
X139210336Y-147493200D01*
X139123849Y-147501147D01*
X139055901Y-147507390D01*
X139055898Y-147507391D01*
X139050147Y-147507919D01*
X139044588Y-147509487D01*
X139044587Y-147509487D01*
X138847953Y-147564944D01*
X138847951Y-147564945D01*
X138842394Y-147566512D01*
X138837219Y-147569064D01*
X138837214Y-147569066D01*
X138704883Y-147634325D01*
X138648796Y-147661984D01*
X138644170Y-147665438D01*
X138644169Y-147665439D01*
X138621944Y-147682035D01*
X138475839Y-147791137D01*
X138329314Y-147949646D01*
X138326233Y-147954529D01*
X138326230Y-147954533D01*
X138217210Y-148127320D01*
X138217208Y-148127325D01*
X138214129Y-148132204D01*
X138211989Y-148137568D01*
X138146996Y-148300475D01*
X138134141Y-148332695D01*
X138133016Y-148338352D01*
X138133014Y-148338358D01*
X138129308Y-148356992D01*
X138092030Y-148544405D01*
X138091954Y-148550180D01*
X138091954Y-148550184D01*
X138091173Y-148609876D01*
X138089204Y-148760245D01*
X138125760Y-148972985D01*
X138200472Y-149175502D01*
X138203424Y-149180463D01*
X138203424Y-149180464D01*
X138297032Y-149337804D01*
X138310839Y-149361012D01*
X138314645Y-149365352D01*
X138314648Y-149365356D01*
X138425045Y-149491239D01*
X138453164Y-149523302D01*
X138457699Y-149526877D01*
X138457700Y-149526878D01*
X138545514Y-149596105D01*
X138622681Y-149656939D01*
X138813713Y-149757445D01*
X138819227Y-149759157D01*
X138819234Y-149759160D01*
X138838035Y-149764998D01*
X138897160Y-149804301D01*
X138925650Y-149869330D01*
X138914460Y-149939440D01*
X138867142Y-149992369D01*
X138800670Y-150011330D01*
X131992508Y-150011330D01*
X131970629Y-150009416D01*
X131966093Y-150008616D01*
X131966092Y-150008616D01*
X131955237Y-150006702D01*
X131944380Y-150008617D01*
X131933357Y-150008617D01*
X131933357Y-150008248D01*
X131921032Y-150008884D01*
X131870330Y-150005258D01*
X131722282Y-149994669D01*
X131704499Y-149992112D01*
X131485095Y-149944383D01*
X131467859Y-149939323D01*
X131257469Y-149860852D01*
X131241122Y-149853387D01*
X131044052Y-149745778D01*
X131028933Y-149736061D01*
X131018550Y-149728288D01*
X130849183Y-149601502D01*
X130835598Y-149589730D01*
X130676837Y-149430969D01*
X130665064Y-149417383D01*
X130605492Y-149337804D01*
X130530504Y-149237631D01*
X130520787Y-149222511D01*
X130520787Y-149222510D01*
X130413180Y-149025445D01*
X130405713Y-149009094D01*
X130394268Y-148978408D01*
X130327244Y-148798708D01*
X130322182Y-148781466D01*
X130274455Y-148562068D01*
X130271897Y-148544280D01*
X130257683Y-148345535D01*
X130258319Y-148333210D01*
X130257950Y-148333210D01*
X130257950Y-148322187D01*
X130259865Y-148311330D01*
X130257151Y-148295938D01*
X130255237Y-148274059D01*
X130255237Y-146672065D01*
X133107100Y-146672065D01*
X133107338Y-146677530D01*
X133121572Y-146840219D01*
X133123475Y-146851012D01*
X133179864Y-147061461D01*
X133183610Y-147071753D01*
X133275686Y-147269211D01*
X133281169Y-147278707D01*
X133406128Y-147457167D01*
X133413184Y-147465575D01*
X133567225Y-147619616D01*
X133575633Y-147626672D01*
X133754093Y-147751631D01*
X133763589Y-147757114D01*
X133961047Y-147849190D01*
X133971339Y-147852936D01*
X134143603Y-147899094D01*
X134157699Y-147898758D01*
X134161100Y-147890816D01*
X134161100Y-147885667D01*
X134669100Y-147885667D01*
X134673073Y-147899198D01*
X134681622Y-147900427D01*
X134858861Y-147852936D01*
X134869153Y-147849190D01*
X135066611Y-147757114D01*
X135076107Y-147751631D01*
X135254567Y-147626672D01*
X135262975Y-147619616D01*
X135417016Y-147465575D01*
X135424072Y-147457167D01*
X135549031Y-147278707D01*
X135554514Y-147269211D01*
X135646590Y-147071753D01*
X135650336Y-147061461D01*
X135706725Y-146851012D01*
X135708628Y-146840219D01*
X135722862Y-146677530D01*
X135723100Y-146672065D01*
X142807100Y-146672065D01*
X142807338Y-146677530D01*
X142821572Y-146840219D01*
X142823475Y-146851012D01*
X142879864Y-147061461D01*
X142883610Y-147071753D01*
X142975686Y-147269211D01*
X142981169Y-147278707D01*
X143106128Y-147457167D01*
X143113184Y-147465575D01*
X143267225Y-147619616D01*
X143275633Y-147626672D01*
X143454093Y-147751631D01*
X143463589Y-147757114D01*
X143661047Y-147849190D01*
X143671339Y-147852936D01*
X143843603Y-147899094D01*
X143857699Y-147898758D01*
X143861100Y-147890816D01*
X143861100Y-147885667D01*
X144369100Y-147885667D01*
X144373073Y-147899198D01*
X144381622Y-147900427D01*
X144558861Y-147852936D01*
X144569153Y-147849190D01*
X144766611Y-147757114D01*
X144776107Y-147751631D01*
X144954567Y-147626672D01*
X144962975Y-147619616D01*
X145117016Y-147465575D01*
X145124072Y-147457167D01*
X145249031Y-147278707D01*
X145254514Y-147269211D01*
X145346590Y-147071753D01*
X145350336Y-147061461D01*
X145406725Y-146851012D01*
X145408628Y-146840219D01*
X145422862Y-146677530D01*
X145423100Y-146672065D01*
X145423100Y-146189815D01*
X145418625Y-146174576D01*
X145417235Y-146173371D01*
X145409552Y-146171700D01*
X144387215Y-146171700D01*
X144371976Y-146176175D01*
X144370771Y-146177565D01*
X144369100Y-146185248D01*
X144369100Y-147885667D01*
X143861100Y-147885667D01*
X143861100Y-146189815D01*
X143856625Y-146174576D01*
X143855235Y-146173371D01*
X143847552Y-146171700D01*
X142825215Y-146171700D01*
X142809976Y-146176175D01*
X142808771Y-146177565D01*
X142807100Y-146185248D01*
X142807100Y-146672065D01*
X135723100Y-146672065D01*
X135723100Y-146189815D01*
X135718625Y-146174576D01*
X135717235Y-146173371D01*
X135709552Y-146171700D01*
X134687215Y-146171700D01*
X134671976Y-146176175D01*
X134670771Y-146177565D01*
X134669100Y-146185248D01*
X134669100Y-147885667D01*
X134161100Y-147885667D01*
X134161100Y-146189815D01*
X134156625Y-146174576D01*
X134155235Y-146173371D01*
X134147552Y-146171700D01*
X133125215Y-146171700D01*
X133109976Y-146176175D01*
X133108771Y-146177565D01*
X133107100Y-146185248D01*
X133107100Y-146672065D01*
X130255237Y-146672065D01*
X130255237Y-145645585D01*
X133107100Y-145645585D01*
X133111575Y-145660824D01*
X133112965Y-145662029D01*
X133120648Y-145663700D01*
X134142985Y-145663700D01*
X134158224Y-145659225D01*
X134159429Y-145657835D01*
X134161100Y-145650152D01*
X134161100Y-145645585D01*
X134669100Y-145645585D01*
X134673575Y-145660824D01*
X134674965Y-145662029D01*
X134682648Y-145663700D01*
X135704985Y-145663700D01*
X135720224Y-145659225D01*
X135721429Y-145657835D01*
X135723100Y-145650152D01*
X135723100Y-145466826D01*
X137460641Y-145466826D01*
X137491035Y-145667797D01*
X137561219Y-145858552D01*
X137564579Y-145863972D01*
X137564580Y-145863973D01*
X137664963Y-146025876D01*
X137664966Y-146025880D01*
X137668326Y-146031299D01*
X137672712Y-146035937D01*
X137801097Y-146171700D01*
X137807981Y-146178980D01*
X137974479Y-146295563D01*
X138161019Y-146376286D01*
X138207047Y-146385902D01*
X138355244Y-146416862D01*
X138355249Y-146416863D01*
X138359980Y-146417851D01*
X138364862Y-146418107D01*
X138364971Y-146418113D01*
X138364987Y-146418113D01*
X138366639Y-146418200D01*
X140115900Y-146418200D01*
X140163893Y-146413325D01*
X140260968Y-146403465D01*
X140260970Y-146403465D01*
X140267316Y-146402820D01*
X140461272Y-146342038D01*
X140639044Y-146243497D01*
X140793371Y-146111223D01*
X140917948Y-145950619D01*
X141007687Y-145768245D01*
X141012132Y-145751180D01*
X141039638Y-145645585D01*
X142807100Y-145645585D01*
X142811575Y-145660824D01*
X142812965Y-145662029D01*
X142820648Y-145663700D01*
X143842985Y-145663700D01*
X143858224Y-145659225D01*
X143859429Y-145657835D01*
X143861100Y-145650152D01*
X143861100Y-145645585D01*
X144369100Y-145645585D01*
X144373575Y-145660824D01*
X144374965Y-145662029D01*
X144382648Y-145663700D01*
X145404985Y-145663700D01*
X145420224Y-145659225D01*
X145421429Y-145657835D01*
X145423100Y-145650152D01*
X145423100Y-145163335D01*
X145422862Y-145157870D01*
X145408628Y-144995181D01*
X145406725Y-144984388D01*
X145350336Y-144773939D01*
X145346590Y-144763647D01*
X145327558Y-144722832D01*
X146079900Y-144722832D01*
X146080185Y-144728808D01*
X146094371Y-144877494D01*
X146096630Y-144889228D01*
X146152772Y-145080599D01*
X146157202Y-145091675D01*
X146248519Y-145268978D01*
X146254969Y-145279024D01*
X146378162Y-145435857D01*
X146386399Y-145444506D01*
X146537023Y-145575212D01*
X146546747Y-145582147D01*
X146719367Y-145682010D01*
X146730231Y-145686984D01*
X146918627Y-145752407D01*
X146919616Y-145752648D01*
X146929908Y-145751180D01*
X146933900Y-145737615D01*
X146933900Y-145733402D01*
X147441900Y-145733402D01*
X147445873Y-145746933D01*
X147455299Y-145748288D01*
X147544437Y-145726806D01*
X147555732Y-145722917D01*
X147737282Y-145640371D01*
X147747624Y-145634424D01*
X147910297Y-145519032D01*
X147919325Y-145511239D01*
X148057242Y-145367169D01*
X148064638Y-145357804D01*
X148132631Y-145252502D01*
X148186387Y-145206124D01*
X148256682Y-145196171D01*
X148299184Y-145210435D01*
X148379233Y-145254443D01*
X148379237Y-145254445D01*
X148386179Y-145258261D01*
X148393854Y-145260232D01*
X148393855Y-145260232D01*
X148531329Y-145295529D01*
X148531332Y-145295529D01*
X148539007Y-145297500D01*
X148657194Y-145297500D01*
X148774441Y-145282688D01*
X148921147Y-145224604D01*
X149048798Y-145131860D01*
X149149374Y-145010284D01*
X149216556Y-144867515D01*
X149246122Y-144712524D01*
X149236214Y-144555050D01*
X149230448Y-144537302D01*
X149217177Y-144496460D01*
X149187456Y-144404987D01*
X149167733Y-144373908D01*
X149107156Y-144278456D01*
X149102910Y-144271765D01*
X149079728Y-144249995D01*
X148993666Y-144169177D01*
X148987890Y-144163753D01*
X148849621Y-144087739D01*
X148841946Y-144085768D01*
X148841945Y-144085768D01*
X148704471Y-144050471D01*
X148704468Y-144050471D01*
X148696793Y-144048500D01*
X148578606Y-144048500D01*
X148522716Y-144055561D01*
X148469224Y-144062318D01*
X148469221Y-144062319D01*
X148461359Y-144063312D01*
X148453991Y-144066229D01*
X148453232Y-144066424D01*
X148382277Y-144063990D01*
X148323902Y-144023581D01*
X148296641Y-143958026D01*
X148295900Y-143944382D01*
X148295900Y-143623168D01*
X148295615Y-143617192D01*
X148281429Y-143468506D01*
X148279170Y-143456772D01*
X148223028Y-143265401D01*
X148218598Y-143254325D01*
X148127281Y-143077022D01*
X148120831Y-143066976D01*
X147997638Y-142910143D01*
X147989401Y-142901494D01*
X147838777Y-142770788D01*
X147829053Y-142763853D01*
X147656433Y-142663990D01*
X147645569Y-142659016D01*
X147457173Y-142593593D01*
X147456184Y-142593352D01*
X147445892Y-142594820D01*
X147441900Y-142608385D01*
X147441900Y-145733402D01*
X146933900Y-145733402D01*
X146933900Y-144445115D01*
X146929425Y-144429876D01*
X146928035Y-144428671D01*
X146920352Y-144427000D01*
X146098015Y-144427000D01*
X146082776Y-144431475D01*
X146081571Y-144432865D01*
X146079900Y-144440548D01*
X146079900Y-144722832D01*
X145327558Y-144722832D01*
X145254514Y-144566189D01*
X145249031Y-144556693D01*
X145124072Y-144378233D01*
X145117016Y-144369825D01*
X144962975Y-144215784D01*
X144954567Y-144208728D01*
X144776107Y-144083769D01*
X144766611Y-144078286D01*
X144569153Y-143986210D01*
X144558861Y-143982464D01*
X144386597Y-143936306D01*
X144372501Y-143936642D01*
X144369100Y-143944584D01*
X144369100Y-145645585D01*
X143861100Y-145645585D01*
X143861100Y-143949733D01*
X143857127Y-143936202D01*
X143848578Y-143934973D01*
X143671339Y-143982464D01*
X143661047Y-143986210D01*
X143463589Y-144078286D01*
X143454093Y-144083769D01*
X143275633Y-144208728D01*
X143267225Y-144215784D01*
X143113184Y-144369825D01*
X143106128Y-144378233D01*
X142981169Y-144556693D01*
X142975686Y-144566189D01*
X142883610Y-144763647D01*
X142879864Y-144773939D01*
X142823475Y-144984388D01*
X142821572Y-144995181D01*
X142807338Y-145157870D01*
X142807100Y-145163335D01*
X142807100Y-145645585D01*
X141039638Y-145645585D01*
X141057312Y-145577734D01*
X141057312Y-145577731D01*
X141058922Y-145571552D01*
X141066033Y-145435857D01*
X141069225Y-145374956D01*
X141069225Y-145374952D01*
X141069559Y-145368574D01*
X141039165Y-145167603D01*
X140968981Y-144976848D01*
X140965620Y-144971427D01*
X140865237Y-144809524D01*
X140865234Y-144809520D01*
X140861874Y-144804101D01*
X140829537Y-144769906D01*
X140726608Y-144661061D01*
X140726607Y-144661060D01*
X140722219Y-144656420D01*
X140555721Y-144539837D01*
X140369181Y-144459114D01*
X140323153Y-144449498D01*
X140174956Y-144418538D01*
X140174951Y-144418537D01*
X140170220Y-144417549D01*
X140165338Y-144417293D01*
X140165229Y-144417287D01*
X140165213Y-144417287D01*
X140163561Y-144417200D01*
X138414300Y-144417200D01*
X138366307Y-144422075D01*
X138269232Y-144431935D01*
X138269230Y-144431935D01*
X138262884Y-144432580D01*
X138068928Y-144493362D01*
X137891156Y-144591903D01*
X137736829Y-144724177D01*
X137732922Y-144729214D01*
X137732920Y-144729216D01*
X137695693Y-144777209D01*
X137612252Y-144884781D01*
X137522513Y-145067155D01*
X137520904Y-145073333D01*
X137520903Y-145073335D01*
X137480352Y-145229014D01*
X137471278Y-145263848D01*
X137468280Y-145321062D01*
X137461428Y-145451816D01*
X137460641Y-145466826D01*
X135723100Y-145466826D01*
X135723100Y-145163335D01*
X135722862Y-145157870D01*
X135708628Y-144995181D01*
X135706725Y-144984388D01*
X135650336Y-144773939D01*
X135646590Y-144763647D01*
X135554514Y-144566189D01*
X135549031Y-144556693D01*
X135424072Y-144378233D01*
X135417016Y-144369825D01*
X135262975Y-144215784D01*
X135254567Y-144208728D01*
X135076107Y-144083769D01*
X135066611Y-144078286D01*
X134869153Y-143986210D01*
X134858861Y-143982464D01*
X134686597Y-143936306D01*
X134672501Y-143936642D01*
X134669100Y-143944584D01*
X134669100Y-145645585D01*
X134161100Y-145645585D01*
X134161100Y-143949733D01*
X134157127Y-143936202D01*
X134148578Y-143934973D01*
X133971339Y-143982464D01*
X133961047Y-143986210D01*
X133763589Y-144078286D01*
X133754093Y-144083769D01*
X133575633Y-144208728D01*
X133567225Y-144215784D01*
X133413184Y-144369825D01*
X133406128Y-144378233D01*
X133281169Y-144556693D01*
X133275686Y-144566189D01*
X133183610Y-144763647D01*
X133179864Y-144773939D01*
X133123475Y-144984388D01*
X133121572Y-144995181D01*
X133107338Y-145157870D01*
X133107100Y-145163335D01*
X133107100Y-145645585D01*
X130255237Y-145645585D01*
X130255237Y-143900885D01*
X146079900Y-143900885D01*
X146084375Y-143916124D01*
X146085765Y-143917329D01*
X146093448Y-143919000D01*
X146915785Y-143919000D01*
X146931024Y-143914525D01*
X146932229Y-143913135D01*
X146933900Y-143905452D01*
X146933900Y-142612598D01*
X146929927Y-142599067D01*
X146920501Y-142597712D01*
X146831363Y-142619194D01*
X146820068Y-142623083D01*
X146638518Y-142705629D01*
X146628176Y-142711576D01*
X146465503Y-142826968D01*
X146456475Y-142834761D01*
X146318558Y-142978831D01*
X146311162Y-142988196D01*
X146202979Y-143155741D01*
X146197483Y-143166345D01*
X146122939Y-143351312D01*
X146119545Y-143362770D01*
X146081043Y-143559928D01*
X146079966Y-143568791D01*
X146079900Y-143571500D01*
X146079900Y-143900885D01*
X130255237Y-143900885D01*
X130255237Y-141972065D01*
X133107100Y-141972065D01*
X133107338Y-141977530D01*
X133121572Y-142140219D01*
X133123475Y-142151012D01*
X133179864Y-142361461D01*
X133183610Y-142371753D01*
X133275686Y-142569211D01*
X133281169Y-142578707D01*
X133406128Y-142757167D01*
X133413184Y-142765575D01*
X133567225Y-142919616D01*
X133575633Y-142926672D01*
X133754093Y-143051631D01*
X133763589Y-143057114D01*
X133961047Y-143149190D01*
X133971339Y-143152936D01*
X134143603Y-143199094D01*
X134157699Y-143198758D01*
X134161100Y-143190816D01*
X134161100Y-143185667D01*
X134669100Y-143185667D01*
X134673073Y-143199198D01*
X134681622Y-143200427D01*
X134858861Y-143152936D01*
X134869153Y-143149190D01*
X135066611Y-143057114D01*
X135076107Y-143051631D01*
X135254567Y-142926672D01*
X135262975Y-142919616D01*
X135417016Y-142765575D01*
X135424072Y-142757167D01*
X135549031Y-142578707D01*
X135554514Y-142569211D01*
X135646590Y-142371753D01*
X135650336Y-142361461D01*
X135706725Y-142151012D01*
X135708628Y-142140219D01*
X135722862Y-141977530D01*
X135723100Y-141972065D01*
X142807100Y-141972065D01*
X142807338Y-141977530D01*
X142821572Y-142140219D01*
X142823475Y-142151012D01*
X142879864Y-142361461D01*
X142883610Y-142371753D01*
X142975686Y-142569211D01*
X142981169Y-142578707D01*
X143106128Y-142757167D01*
X143113184Y-142765575D01*
X143267225Y-142919616D01*
X143275633Y-142926672D01*
X143454093Y-143051631D01*
X143463589Y-143057114D01*
X143661047Y-143149190D01*
X143671339Y-143152936D01*
X143843603Y-143199094D01*
X143857699Y-143198758D01*
X143861100Y-143190816D01*
X143861100Y-143185667D01*
X144369100Y-143185667D01*
X144373073Y-143199198D01*
X144381622Y-143200427D01*
X144558861Y-143152936D01*
X144569153Y-143149190D01*
X144766611Y-143057114D01*
X144776107Y-143051631D01*
X144954567Y-142926672D01*
X144962975Y-142919616D01*
X145117016Y-142765575D01*
X145124072Y-142757167D01*
X145249031Y-142578707D01*
X145254514Y-142569211D01*
X145346590Y-142371753D01*
X145350336Y-142361461D01*
X145406725Y-142151012D01*
X145408628Y-142140219D01*
X145422862Y-141977530D01*
X145423100Y-141972065D01*
X145423100Y-141809400D01*
X150152218Y-141809400D01*
X150172856Y-141966162D01*
X150233364Y-142112241D01*
X150329618Y-142237682D01*
X150455059Y-142333936D01*
X150601138Y-142394444D01*
X150757900Y-142415082D01*
X150766088Y-142414004D01*
X150906474Y-142395522D01*
X150914662Y-142394444D01*
X151060741Y-142333936D01*
X151186182Y-142237682D01*
X151282436Y-142112241D01*
X151342944Y-141966162D01*
X151363582Y-141809400D01*
X151347379Y-141686322D01*
X151358319Y-141616173D01*
X151383206Y-141580781D01*
X155827682Y-137136305D01*
X155889994Y-137102279D01*
X155916777Y-137099400D01*
X156580784Y-137099400D01*
X156648905Y-137119402D01*
X156680747Y-137148696D01*
X156751295Y-137240636D01*
X156756318Y-137247182D01*
X156762864Y-137252205D01*
X156792518Y-137274959D01*
X156881759Y-137343436D01*
X157027838Y-137403944D01*
X157184600Y-137424582D01*
X157192788Y-137423504D01*
X157333174Y-137405022D01*
X157341362Y-137403944D01*
X157348989Y-137400785D01*
X157348992Y-137400784D01*
X157427982Y-137368065D01*
X157498572Y-137360476D01*
X157562059Y-137392255D01*
X157598286Y-137453314D01*
X157602200Y-137484474D01*
X157602200Y-139048723D01*
X157582198Y-139116844D01*
X157565295Y-139137818D01*
X152645119Y-144057994D01*
X152582807Y-144092020D01*
X152539578Y-144093821D01*
X152424688Y-144078696D01*
X152416500Y-144077618D01*
X152259738Y-144098256D01*
X152113659Y-144158764D01*
X151988218Y-144255018D01*
X151891964Y-144380459D01*
X151831456Y-144526538D01*
X151810818Y-144683300D01*
X151831456Y-144840062D01*
X151891964Y-144986141D01*
X151988218Y-145111582D01*
X152113659Y-145207836D01*
X152259738Y-145268344D01*
X152416500Y-145288982D01*
X152515320Y-145275972D01*
X152585467Y-145286911D01*
X152638566Y-145334039D01*
X152656687Y-145384447D01*
X152668364Y-145473144D01*
X152672856Y-145507262D01*
X152733364Y-145653341D01*
X152829618Y-145778782D01*
X152955059Y-145875036D01*
X153101138Y-145935544D01*
X153257900Y-145956182D01*
X153266088Y-145955104D01*
X153406474Y-145936622D01*
X153414662Y-145935544D01*
X153560741Y-145875036D01*
X153567290Y-145870011D01*
X153567293Y-145870009D01*
X153570931Y-145867217D01*
X153637151Y-145841616D01*
X153706700Y-145855880D01*
X153757497Y-145905481D01*
X153773413Y-145974670D01*
X153764045Y-146015397D01*
X153724353Y-146111223D01*
X153719956Y-146121838D01*
X153699318Y-146278600D01*
X153719956Y-146435362D01*
X153780464Y-146581441D01*
X153876718Y-146706882D01*
X154002159Y-146803136D01*
X154148238Y-146863644D01*
X154305000Y-146884282D01*
X154313188Y-146883204D01*
X154427081Y-146868210D01*
X154497230Y-146879149D01*
X154529218Y-146900758D01*
X154544809Y-146915221D01*
X154548213Y-146918500D01*
X154560605Y-146930892D01*
X154564393Y-146933491D01*
X154566470Y-146935314D01*
X154588018Y-146955303D01*
X154598820Y-146959612D01*
X154604723Y-146963344D01*
X154608906Y-146965578D01*
X154615295Y-146968409D01*
X154624889Y-146974991D01*
X154636209Y-146977677D01*
X154636211Y-146977678D01*
X154646676Y-146980161D01*
X154664276Y-146985727D01*
X154685073Y-146994024D01*
X154690947Y-146994600D01*
X154694031Y-146994600D01*
X154697098Y-146994750D01*
X154697081Y-146995103D01*
X154703625Y-146995869D01*
X154703625Y-146995863D01*
X154715238Y-146996431D01*
X154726561Y-146999118D01*
X154738090Y-146997549D01*
X154738091Y-146997549D01*
X154751302Y-146995751D01*
X154768293Y-146994600D01*
X155012730Y-146994600D01*
X155080851Y-147014602D01*
X155127344Y-147068258D01*
X155137448Y-147138532D01*
X155107954Y-147203112D01*
X155100576Y-147210477D01*
X154958558Y-147358831D01*
X154951162Y-147368196D01*
X154842979Y-147535741D01*
X154837483Y-147546345D01*
X154762939Y-147731312D01*
X154759545Y-147742770D01*
X154721043Y-147939928D01*
X154719966Y-147948791D01*
X154719900Y-147951500D01*
X154719900Y-148080885D01*
X154724375Y-148096124D01*
X154725765Y-148097329D01*
X154733448Y-148099000D01*
X156917785Y-148099000D01*
X156933024Y-148094525D01*
X156934229Y-148093135D01*
X156935900Y-148085452D01*
X156935900Y-148003168D01*
X156935615Y-147997192D01*
X156921429Y-147848506D01*
X156919170Y-147836772D01*
X156863028Y-147645401D01*
X156858598Y-147634325D01*
X156767281Y-147457022D01*
X156760831Y-147446976D01*
X156637638Y-147290143D01*
X156629401Y-147281494D01*
X156553655Y-147215765D01*
X156515315Y-147156012D01*
X156515365Y-147085015D01*
X156553792Y-147025317D01*
X156618394Y-146995870D01*
X156636236Y-146994600D01*
X159299067Y-146994600D01*
X159301115Y-146994750D01*
X159305914Y-146996398D01*
X159351427Y-146994689D01*
X159356155Y-146994600D01*
X159373690Y-146994600D01*
X159378202Y-146993759D01*
X159380986Y-146993579D01*
X159398708Y-146992914D01*
X159398711Y-146992913D01*
X159410335Y-146992477D01*
X159421025Y-146987885D01*
X159427848Y-146986347D01*
X159432384Y-146984969D01*
X159438894Y-146982457D01*
X159450328Y-146980327D01*
X159469392Y-146968576D01*
X159485768Y-146960069D01*
X159498175Y-146954739D01*
X159498179Y-146954737D01*
X159506343Y-146951229D01*
X159510904Y-146947483D01*
X159512158Y-146946229D01*
X159518045Y-146942646D01*
X159586635Y-146924319D01*
X159599994Y-146925359D01*
X159717312Y-146940804D01*
X159725500Y-146941882D01*
X159733688Y-146940804D01*
X159874074Y-146922322D01*
X159882262Y-146921244D01*
X160028341Y-146860736D01*
X160153782Y-146764482D01*
X160250036Y-146639041D01*
X160310544Y-146492962D01*
X160320433Y-146417851D01*
X160330104Y-146344388D01*
X160331182Y-146336200D01*
X160310544Y-146179438D01*
X160250036Y-146033359D01*
X160153782Y-145907918D01*
X160028341Y-145811664D01*
X159882262Y-145751156D01*
X159725500Y-145730518D01*
X159568738Y-145751156D01*
X159422659Y-145811664D01*
X159297218Y-145907918D01*
X159200964Y-146033359D01*
X159140456Y-146179438D01*
X159139378Y-146187626D01*
X159121418Y-146324046D01*
X159092696Y-146388973D01*
X159033430Y-146428065D01*
X158996496Y-146433600D01*
X158632405Y-146433600D01*
X158564284Y-146413598D01*
X158517791Y-146359942D01*
X158507687Y-146289668D01*
X158515994Y-146259387D01*
X158544544Y-146190462D01*
X158565182Y-146033700D01*
X158544544Y-145876938D01*
X158484036Y-145730859D01*
X158387782Y-145605418D01*
X158262341Y-145509164D01*
X158116262Y-145448656D01*
X158084740Y-145444506D01*
X157967688Y-145429096D01*
X157959500Y-145428018D01*
X157951312Y-145429096D01*
X157834261Y-145444506D01*
X157802738Y-145448656D01*
X157656659Y-145509164D01*
X157531218Y-145605418D01*
X157526195Y-145611964D01*
X157455647Y-145703904D01*
X157398309Y-145745771D01*
X157355684Y-145753200D01*
X156615587Y-145753200D01*
X156547466Y-145733198D01*
X156500973Y-145679542D01*
X156490869Y-145609268D01*
X156520363Y-145544688D01*
X156542687Y-145524430D01*
X156550297Y-145519032D01*
X156559325Y-145511239D01*
X156697242Y-145367169D01*
X156704638Y-145357804D01*
X156812821Y-145190259D01*
X156818317Y-145179655D01*
X156892861Y-144994688D01*
X156896255Y-144983230D01*
X156934757Y-144786072D01*
X156935834Y-144777209D01*
X156935900Y-144774500D01*
X156935900Y-144445115D01*
X156931425Y-144429876D01*
X156930035Y-144428671D01*
X156922352Y-144427000D01*
X155699900Y-144427000D01*
X155631779Y-144406998D01*
X155585286Y-144353342D01*
X155573900Y-144301000D01*
X155573900Y-143900885D01*
X156081900Y-143900885D01*
X156086375Y-143916124D01*
X156087765Y-143917329D01*
X156095448Y-143919000D01*
X156917785Y-143919000D01*
X156933024Y-143914525D01*
X156934229Y-143913135D01*
X156935900Y-143905452D01*
X156935900Y-143623168D01*
X156935615Y-143617192D01*
X156921429Y-143468506D01*
X156919170Y-143456772D01*
X156863028Y-143265401D01*
X156858598Y-143254325D01*
X156767281Y-143077022D01*
X156760831Y-143066976D01*
X156637638Y-142910143D01*
X156629401Y-142901494D01*
X156478777Y-142770788D01*
X156469053Y-142763853D01*
X156296433Y-142663990D01*
X156285569Y-142659016D01*
X156097173Y-142593593D01*
X156096184Y-142593352D01*
X156085892Y-142594820D01*
X156081900Y-142608385D01*
X156081900Y-143900885D01*
X155573900Y-143900885D01*
X155573900Y-142612598D01*
X155569927Y-142599067D01*
X155560501Y-142597712D01*
X155471363Y-142619194D01*
X155460068Y-142623083D01*
X155278518Y-142705629D01*
X155268176Y-142711576D01*
X155105503Y-142826968D01*
X155096475Y-142834761D01*
X154958558Y-142978831D01*
X154951162Y-142988196D01*
X154842979Y-143155741D01*
X154837483Y-143166345D01*
X154762939Y-143351312D01*
X154759545Y-143362770D01*
X154721043Y-143559928D01*
X154719966Y-143568791D01*
X154719900Y-143571500D01*
X154719900Y-143948480D01*
X154699898Y-144016601D01*
X154646242Y-144063094D01*
X154575968Y-144073198D01*
X154562566Y-144070522D01*
X154502987Y-144055225D01*
X154476793Y-144048500D01*
X154358606Y-144048500D01*
X154241359Y-144063312D01*
X154094653Y-144121396D01*
X153967002Y-144214140D01*
X153866426Y-144335716D01*
X153799244Y-144478485D01*
X153769678Y-144633476D01*
X153775301Y-144722832D01*
X153775601Y-144727606D01*
X153759917Y-144796849D01*
X153709287Y-144846619D01*
X153639786Y-144861116D01*
X153573150Y-144835484D01*
X153567299Y-144830995D01*
X153567293Y-144830992D01*
X153560741Y-144825964D01*
X153414662Y-144765456D01*
X153257900Y-144744818D01*
X153159080Y-144757828D01*
X153088933Y-144746889D01*
X153035834Y-144699761D01*
X153017713Y-144649352D01*
X153005979Y-144560222D01*
X153016918Y-144490073D01*
X153041806Y-144454681D01*
X158046724Y-139449763D01*
X158048282Y-139448418D01*
X158052838Y-139446191D01*
X158083820Y-139412792D01*
X158087100Y-139409387D01*
X158099492Y-139396995D01*
X158102092Y-139393204D01*
X158103905Y-139391139D01*
X158123903Y-139369582D01*
X158128213Y-139358778D01*
X158131952Y-139352864D01*
X158134177Y-139348697D01*
X158137011Y-139342302D01*
X158143590Y-139332711D01*
X158148760Y-139310927D01*
X158154325Y-139293330D01*
X158159330Y-139280784D01*
X158159330Y-139280783D01*
X158162624Y-139272527D01*
X158163200Y-139266653D01*
X158163200Y-139263572D01*
X158163350Y-139260502D01*
X158163704Y-139260519D01*
X158164469Y-139253978D01*
X158164463Y-139253978D01*
X158165031Y-139242360D01*
X158167718Y-139231039D01*
X158164351Y-139206298D01*
X158163200Y-139189307D01*
X158163200Y-136545034D01*
X158163350Y-136542985D01*
X158164998Y-136538186D01*
X158164168Y-136516059D01*
X158163289Y-136492662D01*
X158163200Y-136487935D01*
X158163200Y-136470410D01*
X158162360Y-136465900D01*
X158162180Y-136463127D01*
X158161514Y-136445391D01*
X158161078Y-136433765D01*
X158156486Y-136423078D01*
X158154950Y-136416259D01*
X158153572Y-136411725D01*
X158151057Y-136405206D01*
X158148927Y-136393772D01*
X158137175Y-136374706D01*
X158128671Y-136358335D01*
X158123341Y-136345930D01*
X158123340Y-136345928D01*
X158119829Y-136337757D01*
X158116083Y-136333196D01*
X158113893Y-136331006D01*
X158111836Y-136328738D01*
X158112099Y-136328499D01*
X158108017Y-136323335D01*
X158108013Y-136323339D01*
X158100200Y-136314722D01*
X158094095Y-136304818D01*
X158074206Y-136289694D01*
X158061387Y-136278500D01*
X157452100Y-135669213D01*
X157418074Y-135606901D01*
X157416273Y-135596564D01*
X157410938Y-135556035D01*
X157402644Y-135493038D01*
X157342136Y-135346959D01*
X157245882Y-135221518D01*
X157120441Y-135125264D01*
X156974362Y-135064756D01*
X156817600Y-135044118D01*
X156660838Y-135064756D01*
X156514759Y-135125264D01*
X156389318Y-135221518D01*
X156293064Y-135346959D01*
X156232556Y-135493038D01*
X156211918Y-135649800D01*
X156232556Y-135806562D01*
X156293064Y-135952641D01*
X156389318Y-136078082D01*
X156514759Y-136174336D01*
X156660838Y-136234844D01*
X156660959Y-136234860D01*
X156718362Y-136269846D01*
X156749387Y-136333705D01*
X156740961Y-136404200D01*
X156725094Y-136431309D01*
X156680746Y-136489104D01*
X156623408Y-136530971D01*
X156580784Y-136538400D01*
X155796933Y-136538400D01*
X155794885Y-136538250D01*
X155790086Y-136536602D01*
X155745131Y-136538290D01*
X155744573Y-136538311D01*
X155739845Y-136538400D01*
X155722310Y-136538400D01*
X155717798Y-136539241D01*
X155715014Y-136539421D01*
X155697292Y-136540086D01*
X155697289Y-136540087D01*
X155685665Y-136540523D01*
X155674975Y-136545115D01*
X155668152Y-136546653D01*
X155663616Y-136548031D01*
X155657106Y-136550543D01*
X155645672Y-136552673D01*
X155626922Y-136564231D01*
X155626608Y-136564424D01*
X155610232Y-136572931D01*
X155589657Y-136581771D01*
X155585096Y-136585517D01*
X155582900Y-136587713D01*
X155580638Y-136589764D01*
X155580399Y-136589501D01*
X155575235Y-136593583D01*
X155575239Y-136593587D01*
X155566622Y-136601400D01*
X155556718Y-136607505D01*
X155541594Y-136627394D01*
X155530400Y-136640213D01*
X150986519Y-141184094D01*
X150924207Y-141218120D01*
X150880978Y-141219921D01*
X150766088Y-141204796D01*
X150757900Y-141203718D01*
X150601138Y-141224356D01*
X150455059Y-141284864D01*
X150329618Y-141381118D01*
X150233364Y-141506559D01*
X150172856Y-141652638D01*
X150152218Y-141809400D01*
X145423100Y-141809400D01*
X145423100Y-141489815D01*
X145418625Y-141474576D01*
X145417235Y-141473371D01*
X145409552Y-141471700D01*
X144387215Y-141471700D01*
X144371976Y-141476175D01*
X144370771Y-141477565D01*
X144369100Y-141485248D01*
X144369100Y-143185667D01*
X143861100Y-143185667D01*
X143861100Y-141489815D01*
X143856625Y-141474576D01*
X143855235Y-141473371D01*
X143847552Y-141471700D01*
X142825215Y-141471700D01*
X142809976Y-141476175D01*
X142808771Y-141477565D01*
X142807100Y-141485248D01*
X142807100Y-141972065D01*
X135723100Y-141972065D01*
X135723100Y-141489815D01*
X135718625Y-141474576D01*
X135717235Y-141473371D01*
X135709552Y-141471700D01*
X134687215Y-141471700D01*
X134671976Y-141476175D01*
X134670771Y-141477565D01*
X134669100Y-141485248D01*
X134669100Y-143185667D01*
X134161100Y-143185667D01*
X134161100Y-141489815D01*
X134156625Y-141474576D01*
X134155235Y-141473371D01*
X134147552Y-141471700D01*
X133125215Y-141471700D01*
X133109976Y-141476175D01*
X133108771Y-141477565D01*
X133107100Y-141485248D01*
X133107100Y-141972065D01*
X130255237Y-141972065D01*
X130255237Y-140945585D01*
X133107100Y-140945585D01*
X133111575Y-140960824D01*
X133112965Y-140962029D01*
X133120648Y-140963700D01*
X134142985Y-140963700D01*
X134158224Y-140959225D01*
X134159429Y-140957835D01*
X134161100Y-140950152D01*
X134161100Y-140945585D01*
X134669100Y-140945585D01*
X134673575Y-140960824D01*
X134674965Y-140962029D01*
X134682648Y-140963700D01*
X135704985Y-140963700D01*
X135720224Y-140959225D01*
X135721429Y-140957835D01*
X135723100Y-140950152D01*
X135723100Y-140945585D01*
X142807100Y-140945585D01*
X142811575Y-140960824D01*
X142812965Y-140962029D01*
X142820648Y-140963700D01*
X143842985Y-140963700D01*
X143858224Y-140959225D01*
X143859429Y-140957835D01*
X143861100Y-140950152D01*
X143861100Y-140945585D01*
X144369100Y-140945585D01*
X144373575Y-140960824D01*
X144374965Y-140962029D01*
X144382648Y-140963700D01*
X145404985Y-140963700D01*
X145420224Y-140959225D01*
X145421429Y-140957835D01*
X145423100Y-140950152D01*
X145423100Y-140463335D01*
X145422862Y-140457870D01*
X145408628Y-140295181D01*
X145406725Y-140284388D01*
X145350336Y-140073939D01*
X145346590Y-140063647D01*
X145254514Y-139866189D01*
X145249031Y-139856693D01*
X145124072Y-139678233D01*
X145117016Y-139669825D01*
X144962975Y-139515784D01*
X144954567Y-139508728D01*
X144776107Y-139383769D01*
X144766611Y-139378286D01*
X144569153Y-139286210D01*
X144558861Y-139282464D01*
X144386597Y-139236306D01*
X144372501Y-139236642D01*
X144369100Y-139244584D01*
X144369100Y-140945585D01*
X143861100Y-140945585D01*
X143861100Y-139249733D01*
X143857127Y-139236202D01*
X143848578Y-139234973D01*
X143671339Y-139282464D01*
X143661047Y-139286210D01*
X143463589Y-139378286D01*
X143454093Y-139383769D01*
X143275633Y-139508728D01*
X143267225Y-139515784D01*
X143113184Y-139669825D01*
X143106128Y-139678233D01*
X142981169Y-139856693D01*
X142975686Y-139866189D01*
X142883610Y-140063647D01*
X142879864Y-140073939D01*
X142823475Y-140284388D01*
X142821572Y-140295181D01*
X142807338Y-140457870D01*
X142807100Y-140463335D01*
X142807100Y-140945585D01*
X135723100Y-140945585D01*
X135723100Y-140463335D01*
X135722862Y-140457870D01*
X135708628Y-140295181D01*
X135706725Y-140284388D01*
X135650336Y-140073939D01*
X135646590Y-140063647D01*
X135554514Y-139866189D01*
X135549031Y-139856693D01*
X135424072Y-139678233D01*
X135417016Y-139669825D01*
X135262975Y-139515784D01*
X135254567Y-139508728D01*
X135076107Y-139383769D01*
X135066611Y-139378286D01*
X134869153Y-139286210D01*
X134858861Y-139282464D01*
X134686597Y-139236306D01*
X134672501Y-139236642D01*
X134669100Y-139244584D01*
X134669100Y-140945585D01*
X134161100Y-140945585D01*
X134161100Y-139249733D01*
X134157127Y-139236202D01*
X134148578Y-139234973D01*
X133971339Y-139282464D01*
X133961047Y-139286210D01*
X133763589Y-139378286D01*
X133754093Y-139383769D01*
X133575633Y-139508728D01*
X133567225Y-139515784D01*
X133413184Y-139669825D01*
X133406128Y-139678233D01*
X133281169Y-139856693D01*
X133275686Y-139866189D01*
X133183610Y-140063647D01*
X133179864Y-140073939D01*
X133123475Y-140284388D01*
X133121572Y-140295181D01*
X133107338Y-140457870D01*
X133107100Y-140463335D01*
X133107100Y-140945585D01*
X130255237Y-140945585D01*
X130255237Y-135738503D01*
X134479407Y-135738503D01*
X134482218Y-135806562D01*
X134483893Y-135847132D01*
X134484000Y-135852331D01*
X134484000Y-135873276D01*
X134487240Y-135928623D01*
X134487346Y-135930755D01*
X134493177Y-136071944D01*
X134493756Y-136075571D01*
X134493757Y-136075584D01*
X134496058Y-136090004D01*
X134497417Y-136102492D01*
X134498486Y-136120755D01*
X134499128Y-136124379D01*
X134499129Y-136124385D01*
X134523148Y-136259914D01*
X134523507Y-136262049D01*
X134545757Y-136401502D01*
X134546757Y-136405043D01*
X134550724Y-136419096D01*
X134553529Y-136431337D01*
X134556079Y-136445726D01*
X134556083Y-136445742D01*
X134556724Y-136449360D01*
X134569043Y-136490291D01*
X134597426Y-136584600D01*
X134598032Y-136586679D01*
X134635420Y-136719113D01*
X134636426Y-136722675D01*
X134637834Y-136726080D01*
X134637836Y-136726086D01*
X134643418Y-136739585D01*
X134647628Y-136751401D01*
X134652902Y-136768925D01*
X134654369Y-136772308D01*
X134654372Y-136772315D01*
X134709106Y-136898495D01*
X134709946Y-136900478D01*
X134763948Y-137031075D01*
X134772868Y-137047057D01*
X134778431Y-137058312D01*
X134785708Y-137075088D01*
X134821266Y-137136305D01*
X134856649Y-137197221D01*
X134857721Y-137199104D01*
X134889127Y-137255379D01*
X134926580Y-137322491D01*
X134937311Y-137337334D01*
X134944142Y-137347851D01*
X134953327Y-137363664D01*
X134955530Y-137366604D01*
X134955533Y-137366608D01*
X135038028Y-137476681D01*
X135039310Y-137478422D01*
X135122102Y-137592942D01*
X135124403Y-137595487D01*
X135136104Y-137608431D01*
X135143458Y-137617357D01*
X135153469Y-137630714D01*
X135156011Y-137633388D01*
X135209118Y-137689254D01*
X135211263Y-137691568D01*
X135249393Y-137733745D01*
X135250509Y-137734860D01*
X135250520Y-137734872D01*
X135269518Y-137753859D01*
X135288774Y-137773105D01*
X135290978Y-137775366D01*
X135383401Y-137872589D01*
X135386226Y-137874939D01*
X135386233Y-137874945D01*
X135408210Y-137893222D01*
X135416715Y-137900980D01*
X136214890Y-138698743D01*
X136214893Y-138698746D01*
X136214893Y-138698745D01*
X137117186Y-139600570D01*
X137311012Y-139794296D01*
X137496292Y-139958999D01*
X137769881Y-140150107D01*
X138063897Y-140307989D01*
X138374326Y-140430491D01*
X138377884Y-140431433D01*
X138377892Y-140431436D01*
X138693370Y-140514995D01*
X138696927Y-140515937D01*
X138700566Y-140516457D01*
X138700570Y-140516458D01*
X138825607Y-140534331D01*
X139027294Y-140563162D01*
X139360914Y-140571521D01*
X139364591Y-140571182D01*
X139364596Y-140571182D01*
X139689563Y-140541236D01*
X139693231Y-140540898D01*
X139696821Y-140540137D01*
X139696829Y-140540136D01*
X140016111Y-140472475D01*
X140016110Y-140472475D01*
X140019707Y-140471713D01*
X140141738Y-140430491D01*
X140332376Y-140366094D01*
X140332381Y-140366092D01*
X140335880Y-140364910D01*
X140637434Y-140221949D01*
X140752116Y-140150107D01*
X140917121Y-140046741D01*
X140917127Y-140046737D01*
X140920249Y-140044781D01*
X141142652Y-139866189D01*
X141177592Y-139838132D01*
X141177596Y-139838129D01*
X141180462Y-139835827D01*
X141183045Y-139833202D01*
X141411933Y-139600570D01*
X141411938Y-139600564D01*
X141414519Y-139597941D01*
X141619223Y-139334372D01*
X141750628Y-139116844D01*
X141789871Y-139051881D01*
X141789874Y-139051875D01*
X141791780Y-139048720D01*
X141929829Y-138744886D01*
X142031488Y-138427022D01*
X142095366Y-138099467D01*
X142120593Y-137766697D01*
X142113523Y-137595487D01*
X142106975Y-137436931D01*
X142106975Y-137436927D01*
X142106823Y-137433256D01*
X142102319Y-137405022D01*
X142059445Y-137136305D01*
X142054243Y-137103698D01*
X141963574Y-136782526D01*
X141882592Y-136586679D01*
X141837457Y-136477523D01*
X141837455Y-136477518D01*
X141836052Y-136474126D01*
X141673420Y-136182710D01*
X141631255Y-136124385D01*
X141479906Y-135915034D01*
X141479905Y-135915033D01*
X141477899Y-135912258D01*
X141350607Y-135771455D01*
X140325847Y-134747226D01*
X140221928Y-134643361D01*
X140187886Y-134581057D01*
X140185000Y-134554242D01*
X140185000Y-134480924D01*
X140170514Y-134233445D01*
X140147705Y-134104747D01*
X140112918Y-133908461D01*
X140112917Y-133908457D01*
X140112276Y-133904840D01*
X140028811Y-133627516D01*
X140017159Y-133588800D01*
X140017158Y-133588799D01*
X140016098Y-133585275D01*
X139920626Y-133365180D01*
X139884761Y-133282498D01*
X139884759Y-133282495D01*
X139883292Y-133279112D01*
X139715673Y-132990536D01*
X139515531Y-132723486D01*
X139395174Y-132596878D01*
X139288131Y-132484274D01*
X139288127Y-132484270D01*
X139285599Y-132481611D01*
X139029017Y-132268214D01*
X139025931Y-132266206D01*
X138752372Y-132088215D01*
X138752368Y-132088213D01*
X138749290Y-132086210D01*
X138746002Y-132084581D01*
X138745996Y-132084578D01*
X138453535Y-131939717D01*
X138453527Y-131939714D01*
X138450239Y-131938085D01*
X138446771Y-131936847D01*
X138446767Y-131936845D01*
X138139426Y-131827104D01*
X138135948Y-131825862D01*
X138069543Y-131810592D01*
X137814301Y-131751899D01*
X137814292Y-131751898D01*
X137810711Y-131751074D01*
X137807054Y-131750673D01*
X137807051Y-131750673D01*
X137482640Y-131715144D01*
X137482639Y-131715144D01*
X137478969Y-131714742D01*
X137475276Y-131714771D01*
X137148941Y-131717334D01*
X137148940Y-131717334D01*
X137145254Y-131717363D01*
X137141595Y-131717822D01*
X136817781Y-131758442D01*
X136817777Y-131758443D01*
X136814124Y-131758901D01*
X136810553Y-131759782D01*
X136810550Y-131759782D01*
X136721037Y-131781851D01*
X136490101Y-131838788D01*
X136486650Y-131840082D01*
X136486649Y-131840082D01*
X136225225Y-131938085D01*
X136177612Y-131955934D01*
X135880925Y-132108738D01*
X135604091Y-132295114D01*
X135350893Y-132512514D01*
X135124788Y-132757971D01*
X134991179Y-132942206D01*
X134953822Y-132993719D01*
X134928865Y-133028132D01*
X134927062Y-133031351D01*
X134927061Y-133031353D01*
X134786413Y-133282498D01*
X134765799Y-133319306D01*
X134692856Y-133494972D01*
X134645248Y-133609626D01*
X134637819Y-133627516D01*
X134636812Y-133631064D01*
X134636811Y-133631066D01*
X134551499Y-133931553D01*
X134546672Y-133948553D01*
X134493603Y-134278032D01*
X134493430Y-134281452D01*
X134493429Y-134281459D01*
X134493220Y-134285600D01*
X134484000Y-134467601D01*
X134484000Y-135673154D01*
X134483639Y-135682679D01*
X134479407Y-135738503D01*
X130255237Y-135738503D01*
X130255237Y-67151680D01*
X140373508Y-67151680D01*
X140392590Y-67394140D01*
X140394133Y-67403887D01*
X140450909Y-67640374D01*
X140453958Y-67649759D01*
X140547028Y-67874450D01*
X140551509Y-67883244D01*
X140670805Y-68077917D01*
X140681262Y-68087377D01*
X140690038Y-68083594D01*
X141614070Y-67159562D01*
X141621684Y-67145618D01*
X141621553Y-67143785D01*
X141617302Y-67137170D01*
X140693082Y-66212950D01*
X140680702Y-66206190D01*
X140673052Y-66211917D01*
X140551509Y-66410256D01*
X140547028Y-66419050D01*
X140453958Y-66643741D01*
X140450909Y-66653126D01*
X140394133Y-66889613D01*
X140392590Y-66899360D01*
X140373508Y-67141820D01*
X140373508Y-67151680D01*
X130255237Y-67151680D01*
X130255237Y-65841920D01*
X141045465Y-65841920D01*
X141049248Y-65850696D01*
X141973280Y-66774728D01*
X141987224Y-66782342D01*
X141989057Y-66782211D01*
X141995672Y-66777960D01*
X142919892Y-65853740D01*
X142926652Y-65841360D01*
X142920925Y-65833710D01*
X142722586Y-65712167D01*
X142713792Y-65707686D01*
X142489101Y-65614616D01*
X142479716Y-65611567D01*
X142243229Y-65554791D01*
X142233482Y-65553248D01*
X141991022Y-65534166D01*
X141981162Y-65534166D01*
X141738702Y-65553248D01*
X141728955Y-65554791D01*
X141492468Y-65611567D01*
X141483083Y-65614616D01*
X141258392Y-65707686D01*
X141249598Y-65712167D01*
X141054925Y-65831463D01*
X141045465Y-65841920D01*
X130255237Y-65841920D01*
X130255237Y-63245071D01*
X130257151Y-63223192D01*
X130257951Y-63218656D01*
X130257951Y-63218655D01*
X130259865Y-63207800D01*
X130257950Y-63196943D01*
X130257950Y-63185920D01*
X130258319Y-63185920D01*
X130257683Y-63173595D01*
X130266775Y-63046469D01*
X130271898Y-62974845D01*
X130274455Y-62957062D01*
X130322184Y-62737658D01*
X130327244Y-62720422D01*
X130405715Y-62510032D01*
X130413182Y-62493682D01*
X130473215Y-62383741D01*
X130520789Y-62296615D01*
X130530506Y-62281496D01*
X130585694Y-62207774D01*
X130665064Y-62101747D01*
X130676837Y-62088161D01*
X130835598Y-61929400D01*
X130849184Y-61917627D01*
X131026275Y-61785059D01*
X131028936Y-61783067D01*
X131044052Y-61773352D01*
X131241122Y-61665743D01*
X131257469Y-61658278D01*
X131467859Y-61579807D01*
X131485095Y-61574747D01*
X131704499Y-61527018D01*
X131722282Y-61524461D01*
X131870330Y-61513872D01*
X131921032Y-61510246D01*
X131933357Y-61510882D01*
X131933357Y-61510513D01*
X131944380Y-61510513D01*
X131955237Y-61512428D01*
X131966092Y-61510514D01*
X131966093Y-61510514D01*
X131970629Y-61509714D01*
X131992508Y-61507800D01*
X151276915Y-61507800D01*
X151345036Y-61527802D01*
G37*
%TD.AperFunction*%
%TA.AperFunction,Conductor*%
G36*
X157181624Y-74997602D02*
G01*
X157228117Y-75051258D01*
X157234621Y-75068867D01*
X157239444Y-75085686D01*
X157242259Y-75091163D01*
X157242260Y-75091166D01*
X157321828Y-75245989D01*
X157333612Y-75268918D01*
X157461577Y-75430370D01*
X157466270Y-75434364D01*
X157466271Y-75434365D01*
X157563656Y-75517246D01*
X157602569Y-75576629D01*
X157603200Y-75647623D01*
X157565348Y-75707688D01*
X157501032Y-75737753D01*
X157481993Y-75739200D01*
X156840727Y-75739200D01*
X156838683Y-75739050D01*
X156833886Y-75737403D01*
X156822261Y-75737839D01*
X156822259Y-75737839D01*
X156788388Y-75739111D01*
X156783661Y-75739200D01*
X156766110Y-75739200D01*
X156761595Y-75740041D01*
X156758813Y-75740221D01*
X156741092Y-75740886D01*
X156741089Y-75740887D01*
X156729465Y-75741323D01*
X156718775Y-75745915D01*
X156711952Y-75747453D01*
X156707421Y-75748830D01*
X156700910Y-75751342D01*
X156689472Y-75753473D01*
X156679567Y-75759579D01*
X156679566Y-75759579D01*
X156670411Y-75765222D01*
X156654033Y-75773730D01*
X156641632Y-75779058D01*
X156641629Y-75779060D01*
X156633456Y-75782571D01*
X156628896Y-75786318D01*
X156626710Y-75788504D01*
X156624453Y-75790551D01*
X156624215Y-75790288D01*
X156619036Y-75794382D01*
X156619039Y-75794386D01*
X156610420Y-75802202D01*
X156600518Y-75808305D01*
X156593478Y-75817564D01*
X156593476Y-75817565D01*
X156585397Y-75828190D01*
X156574196Y-75841018D01*
X151352276Y-81062937D01*
X151350718Y-81064282D01*
X151346162Y-81066509D01*
X151338251Y-81075037D01*
X151338250Y-81075038D01*
X151315180Y-81099908D01*
X151311900Y-81103313D01*
X151299508Y-81115705D01*
X151296909Y-81119493D01*
X151295086Y-81121570D01*
X151275097Y-81143118D01*
X151270788Y-81153920D01*
X151267056Y-81159823D01*
X151264822Y-81164006D01*
X151261991Y-81170395D01*
X151255409Y-81179989D01*
X151252723Y-81191309D01*
X151252722Y-81191311D01*
X151250239Y-81201776D01*
X151244673Y-81219376D01*
X151236376Y-81240173D01*
X151235800Y-81246047D01*
X151235800Y-81249131D01*
X151235650Y-81252198D01*
X151235297Y-81252181D01*
X151234531Y-81258725D01*
X151234537Y-81258725D01*
X151233969Y-81270338D01*
X151231282Y-81281661D01*
X151232851Y-81293190D01*
X151232851Y-81293191D01*
X151234649Y-81306402D01*
X151235800Y-81323393D01*
X151235800Y-101828023D01*
X151215798Y-101896144D01*
X151198895Y-101917118D01*
X145573406Y-107542607D01*
X145511094Y-107576633D01*
X145440279Y-107571568D01*
X145407607Y-107553475D01*
X145305941Y-107475464D01*
X145159862Y-107414956D01*
X145003100Y-107394318D01*
X144846338Y-107414956D01*
X144838709Y-107418116D01*
X144726118Y-107464753D01*
X144655529Y-107472342D01*
X144592042Y-107440563D01*
X144555814Y-107379505D01*
X144551900Y-107348344D01*
X144551900Y-98972177D01*
X144571902Y-98904056D01*
X144588805Y-98883082D01*
X149708681Y-93763206D01*
X149770993Y-93729180D01*
X149814222Y-93727379D01*
X149929112Y-93742504D01*
X149937300Y-93743582D01*
X149945488Y-93742504D01*
X150085874Y-93724022D01*
X150094062Y-93722944D01*
X150240141Y-93662436D01*
X150365582Y-93566182D01*
X150371217Y-93558839D01*
X150409176Y-93509369D01*
X150461836Y-93440741D01*
X150522344Y-93294662D01*
X150542982Y-93137900D01*
X150522344Y-92981138D01*
X150461836Y-92835059D01*
X150365582Y-92709618D01*
X150240141Y-92613364D01*
X150094062Y-92552856D01*
X149937300Y-92532218D01*
X149780538Y-92552856D01*
X149634459Y-92613364D01*
X149509018Y-92709618D01*
X149412764Y-92835059D01*
X149352256Y-92981138D01*
X149331618Y-93137900D01*
X149332696Y-93146088D01*
X149347821Y-93260978D01*
X149336881Y-93331127D01*
X149311994Y-93366519D01*
X148698395Y-93980118D01*
X148636083Y-94014144D01*
X148565268Y-94009079D01*
X148508432Y-93966532D01*
X148483621Y-93900012D01*
X148483300Y-93891023D01*
X148483300Y-82816416D01*
X148503302Y-82748295D01*
X148532596Y-82716453D01*
X148624536Y-82645905D01*
X148631082Y-82640882D01*
X148727336Y-82515441D01*
X148787844Y-82369362D01*
X148808482Y-82212600D01*
X148787844Y-82055838D01*
X148727336Y-81909759D01*
X148631082Y-81784318D01*
X148505641Y-81688064D01*
X148359562Y-81627556D01*
X148202800Y-81606918D01*
X148046038Y-81627556D01*
X147899959Y-81688064D01*
X147774518Y-81784318D01*
X147678264Y-81909759D01*
X147617756Y-82055838D01*
X147597118Y-82212600D01*
X147617756Y-82369362D01*
X147678264Y-82515441D01*
X147774518Y-82640882D01*
X147781064Y-82645905D01*
X147873004Y-82716453D01*
X147914871Y-82773791D01*
X147922300Y-82816416D01*
X147922300Y-93818223D01*
X147902298Y-93886344D01*
X147885395Y-93907318D01*
X147477161Y-94315552D01*
X147414849Y-94349578D01*
X147374310Y-94351654D01*
X147358199Y-94360033D01*
X146464501Y-95253731D01*
X146462224Y-95251454D01*
X146452052Y-95261422D01*
X146454431Y-95263801D01*
X145559813Y-96158419D01*
X145552199Y-96172362D01*
X145552643Y-96178568D01*
X145537552Y-96247943D01*
X145516059Y-96276654D01*
X143739167Y-98053546D01*
X143676855Y-98087572D01*
X143606040Y-98082507D01*
X143550109Y-98041154D01*
X143505308Y-97982767D01*
X143505305Y-97982764D01*
X143500282Y-97976218D01*
X143374841Y-97879964D01*
X143228762Y-97819456D01*
X143072000Y-97798818D01*
X142915238Y-97819456D01*
X142907611Y-97822615D01*
X142907608Y-97822616D01*
X142841218Y-97850116D01*
X142770628Y-97857705D01*
X142707141Y-97825926D01*
X142670914Y-97764867D01*
X142667000Y-97733707D01*
X142667000Y-96170799D01*
X143718053Y-96170799D01*
X143722742Y-96177063D01*
X143809118Y-96223962D01*
X143823144Y-96229515D01*
X143962493Y-96266072D01*
X143977444Y-96268119D01*
X144121487Y-96270383D01*
X144136491Y-96268806D01*
X144276925Y-96236642D01*
X144291110Y-96231535D01*
X144392554Y-96180514D01*
X144402860Y-96170883D01*
X144400648Y-96164280D01*
X144072612Y-95836244D01*
X144058668Y-95828630D01*
X144056835Y-95828761D01*
X144050220Y-95833012D01*
X143724813Y-96158419D01*
X143718053Y-96170799D01*
X142667000Y-96170799D01*
X142667000Y-95396291D01*
X142687002Y-95328170D01*
X142740658Y-95281677D01*
X142810932Y-95271573D01*
X142853122Y-95285560D01*
X142891618Y-95306462D01*
X142905644Y-95312015D01*
X143044993Y-95348572D01*
X143059944Y-95350619D01*
X143203987Y-95352883D01*
X143218991Y-95351306D01*
X143260174Y-95341874D01*
X143331041Y-95346164D01*
X143388339Y-95388086D01*
X143413876Y-95454331D01*
X143413225Y-95481140D01*
X143397994Y-95596828D01*
X143397837Y-95611909D01*
X143413646Y-95755105D01*
X143417092Y-95769794D01*
X143466599Y-95905083D01*
X143473449Y-95918526D01*
X143490270Y-95943559D01*
X143500254Y-95951858D01*
X143514345Y-95944623D01*
X143834856Y-95624112D01*
X143841234Y-95612432D01*
X144277130Y-95612432D01*
X144277261Y-95614265D01*
X144281512Y-95620880D01*
X144607182Y-95946550D01*
X144619192Y-95953108D01*
X144630933Y-95944138D01*
X144636213Y-95936790D01*
X144643478Y-95923575D01*
X144697213Y-95789907D01*
X144701119Y-95775328D01*
X144721907Y-95629262D01*
X144722531Y-95621058D01*
X144722590Y-95615421D01*
X144722138Y-95607206D01*
X144706911Y-95481382D01*
X144718584Y-95411352D01*
X144766265Y-95358750D01*
X144834816Y-95340277D01*
X144863969Y-95344369D01*
X144879988Y-95348571D01*
X144894944Y-95350619D01*
X145038987Y-95352883D01*
X145053991Y-95351306D01*
X145095174Y-95341874D01*
X145166041Y-95346164D01*
X145223339Y-95388086D01*
X145248876Y-95454331D01*
X145248225Y-95481140D01*
X145232994Y-95596828D01*
X145232837Y-95611909D01*
X145248646Y-95755105D01*
X145252092Y-95769794D01*
X145301599Y-95905083D01*
X145308449Y-95918526D01*
X145325270Y-95943559D01*
X145335254Y-95951858D01*
X145349345Y-95944623D01*
X145669856Y-95624112D01*
X145677470Y-95610168D01*
X145677339Y-95608335D01*
X145673088Y-95601720D01*
X145334913Y-95263545D01*
X145335645Y-95262813D01*
X145324810Y-95253928D01*
X145322306Y-95250938D01*
X144990112Y-94918744D01*
X144976168Y-94911130D01*
X144974335Y-94911261D01*
X144967720Y-94915512D01*
X144629501Y-95253731D01*
X144627224Y-95251454D01*
X144617052Y-95261422D01*
X144619431Y-95263801D01*
X144284744Y-95598488D01*
X144277130Y-95612432D01*
X143841234Y-95612432D01*
X143842470Y-95610168D01*
X143842339Y-95608335D01*
X143838088Y-95601720D01*
X143499913Y-95263545D01*
X143500645Y-95262813D01*
X143489810Y-95253928D01*
X143487306Y-95250938D01*
X143019263Y-94782895D01*
X142985237Y-94720583D01*
X142987072Y-94694932D01*
X143359630Y-94694932D01*
X143359761Y-94696765D01*
X143364012Y-94703380D01*
X143702494Y-95041862D01*
X143701810Y-95042546D01*
X143712087Y-95050927D01*
X143714997Y-95054365D01*
X144046988Y-95386356D01*
X144060932Y-95393970D01*
X144062765Y-95393839D01*
X144069380Y-95389588D01*
X144407924Y-95051044D01*
X144410260Y-95053380D01*
X144420335Y-95043557D01*
X144417873Y-95041095D01*
X144752356Y-94706612D01*
X144758734Y-94694932D01*
X145194630Y-94694932D01*
X145194761Y-94696765D01*
X145199012Y-94703380D01*
X145537494Y-95041862D01*
X145536810Y-95042546D01*
X145547087Y-95050927D01*
X145549997Y-95054365D01*
X145881988Y-95386356D01*
X145895932Y-95393970D01*
X145897765Y-95393839D01*
X145904380Y-95389588D01*
X146242924Y-95051044D01*
X146245260Y-95053380D01*
X146255335Y-95043557D01*
X146252873Y-95041095D01*
X146587356Y-94706612D01*
X146594970Y-94692668D01*
X146594839Y-94690835D01*
X146590588Y-94684220D01*
X146252413Y-94346045D01*
X146253145Y-94345313D01*
X146242310Y-94336428D01*
X146239806Y-94333438D01*
X145907612Y-94001244D01*
X145893668Y-93993630D01*
X145891835Y-93993761D01*
X145885220Y-93998012D01*
X145547001Y-94336231D01*
X145544724Y-94333954D01*
X145534552Y-94343922D01*
X145536931Y-94346301D01*
X145202244Y-94680988D01*
X145194630Y-94694932D01*
X144758734Y-94694932D01*
X144759970Y-94692668D01*
X144759839Y-94690835D01*
X144755588Y-94684220D01*
X144417413Y-94346045D01*
X144418145Y-94345313D01*
X144407310Y-94336428D01*
X144404806Y-94333438D01*
X144072612Y-94001244D01*
X144058668Y-93993630D01*
X144056835Y-93993761D01*
X144050220Y-93998012D01*
X143712001Y-94336231D01*
X143709724Y-94333954D01*
X143699552Y-94343922D01*
X143701931Y-94346301D01*
X143367244Y-94680988D01*
X143359630Y-94694932D01*
X142987072Y-94694932D01*
X142990302Y-94649768D01*
X143019263Y-94604705D01*
X143490424Y-94133544D01*
X143492760Y-94135880D01*
X143502835Y-94126057D01*
X143500373Y-94123595D01*
X143834856Y-93789112D01*
X143841234Y-93777432D01*
X144277130Y-93777432D01*
X144277261Y-93779265D01*
X144281512Y-93785880D01*
X144619994Y-94124362D01*
X144619310Y-94125046D01*
X144629587Y-94133427D01*
X144632497Y-94136865D01*
X144964488Y-94468856D01*
X144978432Y-94476470D01*
X144980265Y-94476339D01*
X144986880Y-94472088D01*
X145325424Y-94133544D01*
X145327760Y-94135880D01*
X145337835Y-94126057D01*
X145335373Y-94123595D01*
X145669856Y-93789112D01*
X145676234Y-93777432D01*
X146112130Y-93777432D01*
X146112261Y-93779265D01*
X146116512Y-93785880D01*
X146454994Y-94124362D01*
X146454310Y-94125046D01*
X146464587Y-94133427D01*
X146467497Y-94136865D01*
X146799488Y-94468856D01*
X146813432Y-94476470D01*
X146815265Y-94476339D01*
X146821880Y-94472088D01*
X147147612Y-94146356D01*
X147154372Y-94133976D01*
X147149862Y-94127952D01*
X147056549Y-94078545D01*
X147042472Y-94073142D01*
X146902746Y-94038045D01*
X146887774Y-94036154D01*
X146743710Y-94035400D01*
X146728734Y-94037132D01*
X146695321Y-94045154D01*
X146624413Y-94041607D01*
X146566679Y-94000287D01*
X146540449Y-93934313D01*
X146541164Y-93904882D01*
X146556907Y-93794263D01*
X146557531Y-93786058D01*
X146557590Y-93780421D01*
X146557138Y-93772206D01*
X146541911Y-93646382D01*
X146553584Y-93576352D01*
X146601265Y-93523750D01*
X146669816Y-93505277D01*
X146698969Y-93509369D01*
X146714988Y-93513571D01*
X146729944Y-93515619D01*
X146873987Y-93517883D01*
X146888991Y-93516306D01*
X147029425Y-93484142D01*
X147043610Y-93479035D01*
X147145054Y-93428014D01*
X147155360Y-93418383D01*
X147153148Y-93411780D01*
X146825112Y-93083744D01*
X146811168Y-93076130D01*
X146809335Y-93076261D01*
X146802720Y-93080512D01*
X146464501Y-93418731D01*
X146462224Y-93416454D01*
X146452052Y-93426422D01*
X146454431Y-93428801D01*
X146119744Y-93763488D01*
X146112130Y-93777432D01*
X145676234Y-93777432D01*
X145677470Y-93775168D01*
X145677339Y-93773335D01*
X145673088Y-93766720D01*
X145334913Y-93428545D01*
X145335645Y-93427813D01*
X145324810Y-93418928D01*
X145322306Y-93415938D01*
X144990112Y-93083744D01*
X144976168Y-93076130D01*
X144974335Y-93076261D01*
X144967720Y-93080512D01*
X144629501Y-93418731D01*
X144627224Y-93416454D01*
X144617052Y-93426422D01*
X144619431Y-93428801D01*
X144284744Y-93763488D01*
X144277130Y-93777432D01*
X143841234Y-93777432D01*
X143842470Y-93775168D01*
X143842339Y-93773335D01*
X143838088Y-93766720D01*
X143499913Y-93428545D01*
X143500645Y-93427813D01*
X143489810Y-93418928D01*
X143487306Y-93415938D01*
X143019263Y-92947895D01*
X142985237Y-92885583D01*
X142987072Y-92859932D01*
X143359630Y-92859932D01*
X143359761Y-92861765D01*
X143364012Y-92868380D01*
X143702494Y-93206862D01*
X143701810Y-93207546D01*
X143712087Y-93215927D01*
X143714997Y-93219365D01*
X144046988Y-93551356D01*
X144060932Y-93558970D01*
X144062765Y-93558839D01*
X144069380Y-93554588D01*
X144407924Y-93216044D01*
X144410260Y-93218380D01*
X144420335Y-93208557D01*
X144417873Y-93206095D01*
X144752356Y-92871612D01*
X144758734Y-92859932D01*
X145194630Y-92859932D01*
X145194761Y-92861765D01*
X145199012Y-92868380D01*
X145537494Y-93206862D01*
X145536810Y-93207546D01*
X145547087Y-93215927D01*
X145549997Y-93219365D01*
X145881988Y-93551356D01*
X145895932Y-93558970D01*
X145897765Y-93558839D01*
X145904380Y-93554588D01*
X146242924Y-93216044D01*
X146245260Y-93218380D01*
X146255335Y-93208557D01*
X146252873Y-93206095D01*
X146587356Y-92871612D01*
X146593734Y-92859932D01*
X147029630Y-92859932D01*
X147029761Y-92861765D01*
X147034012Y-92868380D01*
X147359682Y-93194050D01*
X147371692Y-93200608D01*
X147383433Y-93191638D01*
X147388713Y-93184290D01*
X147395978Y-93171075D01*
X147449713Y-93037407D01*
X147453619Y-93022828D01*
X147474407Y-92876762D01*
X147475031Y-92868558D01*
X147475090Y-92862921D01*
X147474638Y-92854706D01*
X147456912Y-92708232D01*
X147453316Y-92693589D01*
X147402389Y-92558814D01*
X147395406Y-92545457D01*
X147382192Y-92526231D01*
X147371938Y-92517888D01*
X147358199Y-92525033D01*
X147037244Y-92845988D01*
X147029630Y-92859932D01*
X146593734Y-92859932D01*
X146594970Y-92857668D01*
X146594839Y-92855835D01*
X146590588Y-92849220D01*
X146252413Y-92511045D01*
X146253145Y-92510313D01*
X146242310Y-92501428D01*
X146239806Y-92498438D01*
X145907612Y-92166244D01*
X145893668Y-92158630D01*
X145891835Y-92158761D01*
X145885220Y-92163012D01*
X145547001Y-92501231D01*
X145544724Y-92498954D01*
X145534552Y-92508922D01*
X145536931Y-92511301D01*
X145202244Y-92845988D01*
X145194630Y-92859932D01*
X144758734Y-92859932D01*
X144759970Y-92857668D01*
X144759839Y-92855835D01*
X144755588Y-92849220D01*
X144417413Y-92511045D01*
X144418145Y-92510313D01*
X144407310Y-92501428D01*
X144404806Y-92498438D01*
X144072612Y-92166244D01*
X144058668Y-92158630D01*
X144056835Y-92158761D01*
X144050220Y-92163012D01*
X143712001Y-92501231D01*
X143709724Y-92498954D01*
X143699552Y-92508922D01*
X143701931Y-92511301D01*
X143367244Y-92845988D01*
X143359630Y-92859932D01*
X142987072Y-92859932D01*
X142990302Y-92814768D01*
X143019263Y-92769705D01*
X143490424Y-92298544D01*
X143492760Y-92300880D01*
X143502835Y-92291057D01*
X143500373Y-92288595D01*
X143834856Y-91954112D01*
X143841234Y-91942432D01*
X144277130Y-91942432D01*
X144277261Y-91944265D01*
X144281512Y-91950880D01*
X144619994Y-92289362D01*
X144619310Y-92290046D01*
X144629587Y-92298427D01*
X144632497Y-92301865D01*
X144964488Y-92633856D01*
X144978432Y-92641470D01*
X144980265Y-92641339D01*
X144986880Y-92637088D01*
X145325424Y-92298544D01*
X145327760Y-92300880D01*
X145337835Y-92291057D01*
X145335373Y-92288595D01*
X145669856Y-91954112D01*
X145676234Y-91942432D01*
X146112130Y-91942432D01*
X146112261Y-91944265D01*
X146116512Y-91950880D01*
X146454994Y-92289362D01*
X146454310Y-92290046D01*
X146464587Y-92298427D01*
X146467497Y-92301865D01*
X146799488Y-92633856D01*
X146813432Y-92641470D01*
X146815265Y-92641339D01*
X146821880Y-92637088D01*
X147147612Y-92311356D01*
X147154372Y-92298976D01*
X147149862Y-92292952D01*
X147056549Y-92243545D01*
X147042472Y-92238142D01*
X146902746Y-92203045D01*
X146887774Y-92201154D01*
X146743710Y-92200400D01*
X146728734Y-92202132D01*
X146695321Y-92210154D01*
X146624413Y-92206607D01*
X146566679Y-92165287D01*
X146540449Y-92099313D01*
X146541164Y-92069882D01*
X146556907Y-91959263D01*
X146557531Y-91951058D01*
X146557590Y-91945421D01*
X146557138Y-91937206D01*
X146539412Y-91790732D01*
X146535816Y-91776089D01*
X146484889Y-91641314D01*
X146477906Y-91627957D01*
X146464692Y-91608731D01*
X146454438Y-91600388D01*
X146440699Y-91607533D01*
X146119744Y-91928488D01*
X146112130Y-91942432D01*
X145676234Y-91942432D01*
X145677470Y-91940168D01*
X145677339Y-91938335D01*
X145673088Y-91931720D01*
X145347725Y-91606357D01*
X145335916Y-91599908D01*
X145323942Y-91609156D01*
X145315012Y-91621862D01*
X145307883Y-91635156D01*
X145255551Y-91769380D01*
X145251799Y-91783994D01*
X145232994Y-91926828D01*
X145232837Y-91941909D01*
X145247304Y-92072948D01*
X145234898Y-92142852D01*
X145186669Y-92194952D01*
X145117928Y-92212707D01*
X145091371Y-92208979D01*
X145067749Y-92203046D01*
X145052774Y-92201154D01*
X144908710Y-92200400D01*
X144893734Y-92202132D01*
X144860321Y-92210154D01*
X144789413Y-92206607D01*
X144731679Y-92165287D01*
X144705449Y-92099313D01*
X144706164Y-92069882D01*
X144721907Y-91959263D01*
X144722531Y-91951058D01*
X144722590Y-91945421D01*
X144722138Y-91937206D01*
X144704412Y-91790732D01*
X144700816Y-91776089D01*
X144649889Y-91641314D01*
X144642906Y-91627957D01*
X144629692Y-91608731D01*
X144619438Y-91600388D01*
X144605699Y-91607533D01*
X144284744Y-91928488D01*
X144277130Y-91942432D01*
X143841234Y-91942432D01*
X143842470Y-91940168D01*
X143842339Y-91938335D01*
X143838088Y-91931720D01*
X143512725Y-91606357D01*
X143500916Y-91599908D01*
X143488942Y-91609156D01*
X143480012Y-91621862D01*
X143472883Y-91635156D01*
X143420551Y-91769380D01*
X143416799Y-91783994D01*
X143397994Y-91926828D01*
X143397837Y-91941909D01*
X143412304Y-92072948D01*
X143399898Y-92142852D01*
X143351669Y-92194952D01*
X143282928Y-92212707D01*
X143256371Y-92208979D01*
X143232749Y-92203046D01*
X143217774Y-92201154D01*
X143073710Y-92200400D01*
X143058734Y-92202132D01*
X142918635Y-92235767D01*
X142904507Y-92241021D01*
X142850789Y-92268747D01*
X142781082Y-92282216D01*
X142715159Y-92255860D01*
X142673949Y-92198048D01*
X142667000Y-92156781D01*
X142667000Y-91382092D01*
X143717193Y-91382092D01*
X143719564Y-91388932D01*
X144046988Y-91716356D01*
X144060932Y-91723970D01*
X144062765Y-91723839D01*
X144069380Y-91719588D01*
X144395112Y-91393856D01*
X144401536Y-91382092D01*
X145552193Y-91382092D01*
X145554564Y-91388932D01*
X145881988Y-91716356D01*
X145895932Y-91723970D01*
X145897765Y-91723839D01*
X145904380Y-91719588D01*
X146230112Y-91393856D01*
X146236872Y-91381476D01*
X146232362Y-91375452D01*
X146139049Y-91326045D01*
X146124972Y-91320642D01*
X145985246Y-91285545D01*
X145970274Y-91283654D01*
X145826210Y-91282900D01*
X145811234Y-91284632D01*
X145671135Y-91318267D01*
X145657011Y-91323520D01*
X145562395Y-91372355D01*
X145552193Y-91382092D01*
X144401536Y-91382092D01*
X144401872Y-91381476D01*
X144397362Y-91375452D01*
X144304049Y-91326045D01*
X144289972Y-91320642D01*
X144150246Y-91285545D01*
X144135274Y-91283654D01*
X143991210Y-91282900D01*
X143976234Y-91284632D01*
X143836135Y-91318267D01*
X143822011Y-91323520D01*
X143727395Y-91372355D01*
X143717193Y-91382092D01*
X142667000Y-91382092D01*
X142667000Y-84296063D01*
X142687002Y-84227942D01*
X142740658Y-84181449D01*
X142810932Y-84171345D01*
X142841218Y-84179654D01*
X142905508Y-84206284D01*
X142905511Y-84206285D01*
X142913138Y-84209444D01*
X143069900Y-84230082D01*
X143078088Y-84229004D01*
X143218474Y-84210522D01*
X143226662Y-84209444D01*
X143372741Y-84148936D01*
X143498182Y-84052682D01*
X143594436Y-83927241D01*
X143654944Y-83781162D01*
X143675582Y-83624400D01*
X143654944Y-83467638D01*
X143594436Y-83321559D01*
X143498182Y-83196118D01*
X143399696Y-83120547D01*
X143357829Y-83063209D01*
X143350400Y-83020584D01*
X143350400Y-82695677D01*
X143370402Y-82627556D01*
X143387305Y-82606582D01*
X145338218Y-80655669D01*
X145400530Y-80621643D01*
X145471345Y-80626708D01*
X145528181Y-80669255D01*
X145552992Y-80735775D01*
X145551771Y-80764415D01*
X145533767Y-80878439D01*
X145533767Y-80878441D01*
X145531500Y-80892800D01*
X145590274Y-81080876D01*
X145645852Y-81258725D01*
X145658500Y-81299200D01*
X145659227Y-81301091D01*
X145659228Y-81301093D01*
X145701803Y-81411787D01*
X145785500Y-81629400D01*
X146141100Y-81959600D01*
X146141100Y-81468730D01*
X146161102Y-81400609D01*
X146214758Y-81354116D01*
X146285032Y-81344012D01*
X146320648Y-81354675D01*
X146390356Y-81387402D01*
X146398482Y-81391217D01*
X146407346Y-81392597D01*
X146407349Y-81392598D01*
X146475263Y-81403172D01*
X146508197Y-81408300D01*
X146583726Y-81408300D01*
X146646063Y-81399372D01*
X146681665Y-81394274D01*
X146681667Y-81394273D01*
X146690552Y-81393001D01*
X146698723Y-81389286D01*
X146698726Y-81389285D01*
X146775750Y-81354265D01*
X146846040Y-81344279D01*
X146910572Y-81373880D01*
X146948855Y-81433670D01*
X146953900Y-81468966D01*
X146953900Y-81883400D01*
X146965617Y-81875589D01*
X146965619Y-81875588D01*
X147246173Y-81688552D01*
X147246175Y-81688550D01*
X147258700Y-81680200D01*
X147419246Y-81391217D01*
X147506527Y-81234112D01*
X147506527Y-81234111D01*
X147512700Y-81223000D01*
X147514656Y-81204424D01*
X147562189Y-80752856D01*
X147562189Y-80752855D01*
X147563500Y-80740400D01*
X147487300Y-80486400D01*
X147360300Y-80232400D01*
X147093507Y-80054538D01*
X147047922Y-80000109D01*
X147039000Y-79929675D01*
X147069574Y-79865599D01*
X147129937Y-79828224D01*
X147163399Y-79823700D01*
X150584267Y-79823700D01*
X150586315Y-79823850D01*
X150591114Y-79825498D01*
X150636627Y-79823789D01*
X150641355Y-79823700D01*
X150658890Y-79823700D01*
X150663402Y-79822859D01*
X150666186Y-79822679D01*
X150683908Y-79822014D01*
X150683911Y-79822013D01*
X150695535Y-79821577D01*
X150706225Y-79816985D01*
X150713048Y-79815447D01*
X150717584Y-79814069D01*
X150724094Y-79811557D01*
X150735528Y-79809427D01*
X150754592Y-79797676D01*
X150770968Y-79789169D01*
X150783371Y-79783840D01*
X150791543Y-79780329D01*
X150796104Y-79776583D01*
X150798300Y-79774387D01*
X150800562Y-79772336D01*
X150800801Y-79772599D01*
X150805965Y-79768517D01*
X150805961Y-79768513D01*
X150814578Y-79760700D01*
X150824482Y-79754595D01*
X150839606Y-79734706D01*
X150850800Y-79721887D01*
X155558182Y-75014505D01*
X155620494Y-74980479D01*
X155647277Y-74977600D01*
X157113503Y-74977600D01*
X157181624Y-74997602D01*
G37*
%TD.AperFunction*%
%TA.AperFunction,Conductor*%
G36*
X158984708Y-61509714D02*
G01*
X158989244Y-61510514D01*
X158989245Y-61510514D01*
X159000100Y-61512428D01*
X159010957Y-61510513D01*
X159021980Y-61510513D01*
X159021980Y-61510882D01*
X159034305Y-61510246D01*
X159085007Y-61513872D01*
X159233055Y-61524461D01*
X159250838Y-61527018D01*
X159470242Y-61574747D01*
X159487478Y-61579807D01*
X159697868Y-61658278D01*
X159714215Y-61665743D01*
X159911285Y-61773352D01*
X159926401Y-61783067D01*
X159929062Y-61785059D01*
X160106153Y-61917627D01*
X160119739Y-61929400D01*
X160278500Y-62088161D01*
X160290273Y-62101747D01*
X160369644Y-62207774D01*
X160424831Y-62281496D01*
X160434548Y-62296615D01*
X160482122Y-62383741D01*
X160542155Y-62493682D01*
X160549622Y-62510032D01*
X160628093Y-62720422D01*
X160633153Y-62737658D01*
X160680882Y-62957062D01*
X160683439Y-62974845D01*
X160688562Y-63046469D01*
X160697654Y-63173595D01*
X160697018Y-63185920D01*
X160697387Y-63185920D01*
X160697387Y-63196943D01*
X160695472Y-63207800D01*
X160697386Y-63218655D01*
X160697386Y-63218656D01*
X160698186Y-63223192D01*
X160700100Y-63245071D01*
X160700100Y-78228371D01*
X160698186Y-78250250D01*
X160695472Y-78265642D01*
X160697387Y-78276499D01*
X160697387Y-78287522D01*
X160697018Y-78287522D01*
X160697654Y-78299847D01*
X160694028Y-78350549D01*
X160684584Y-78482601D01*
X160683440Y-78498592D01*
X160680882Y-78516380D01*
X160675008Y-78543383D01*
X160633155Y-78735778D01*
X160628093Y-78753020D01*
X160549624Y-78963406D01*
X160542155Y-78979760D01*
X160434550Y-79176823D01*
X160424833Y-79191943D01*
X160364659Y-79272327D01*
X160290273Y-79371695D01*
X160278500Y-79385281D01*
X160119739Y-79544042D01*
X160106153Y-79555815D01*
X159926404Y-79690373D01*
X159911285Y-79700090D01*
X159714215Y-79807699D01*
X159697868Y-79815164D01*
X159487478Y-79893635D01*
X159470242Y-79898695D01*
X159250838Y-79946424D01*
X159233055Y-79948981D01*
X159085007Y-79959570D01*
X159034305Y-79963196D01*
X159021980Y-79962560D01*
X159021980Y-79962929D01*
X159010957Y-79962929D01*
X159000100Y-79961014D01*
X158989245Y-79962928D01*
X158989244Y-79962928D01*
X158984708Y-79963728D01*
X158962829Y-79965642D01*
X155562188Y-79965642D01*
X155540309Y-79963728D01*
X155535768Y-79962927D01*
X155535766Y-79962927D01*
X155524917Y-79961014D01*
X155521257Y-79961659D01*
X155511418Y-79962254D01*
X155511417Y-79962254D01*
X155250973Y-79978008D01*
X155250968Y-79978009D01*
X155247176Y-79978238D01*
X154973485Y-80028394D01*
X154969853Y-80029526D01*
X154969852Y-80029526D01*
X154711473Y-80110040D01*
X154711468Y-80110042D01*
X154707835Y-80111174D01*
X154454100Y-80225370D01*
X154418138Y-80247110D01*
X154314256Y-80309908D01*
X154249529Y-80328078D01*
X153973412Y-80329079D01*
X153700865Y-80330067D01*
X153632673Y-80310312D01*
X153585986Y-80256825D01*
X153575627Y-80186589D01*
X153604886Y-80121901D01*
X153611314Y-80114973D01*
X156171782Y-77554505D01*
X156234094Y-77520479D01*
X156260877Y-77517600D01*
X157113503Y-77517600D01*
X157181624Y-77537602D01*
X157228117Y-77591258D01*
X157234621Y-77608867D01*
X157239444Y-77625686D01*
X157242259Y-77631163D01*
X157242260Y-77631166D01*
X157330797Y-77803441D01*
X157333612Y-77808918D01*
X157461577Y-77970370D01*
X157466270Y-77974364D01*
X157466271Y-77974365D01*
X157592263Y-78081592D01*
X157618464Y-78103891D01*
X157798298Y-78204397D01*
X157872082Y-78228371D01*
X157988371Y-78266156D01*
X157988375Y-78266157D01*
X157994229Y-78268059D01*
X158198794Y-78292451D01*
X158204929Y-78291979D01*
X158204931Y-78291979D01*
X158262853Y-78287522D01*
X158404200Y-78276646D01*
X158410130Y-78274990D01*
X158410132Y-78274990D01*
X158596697Y-78222900D01*
X158596696Y-78222900D01*
X158602625Y-78221245D01*
X158608114Y-78218472D01*
X158608120Y-78218470D01*
X158781016Y-78131133D01*
X158786510Y-78128358D01*
X158948851Y-78001524D01*
X159011485Y-77928962D01*
X159079440Y-77850234D01*
X159079440Y-77850233D01*
X159083464Y-77845572D01*
X159104287Y-77808918D01*
X159129797Y-77764012D01*
X159185223Y-77666444D01*
X159250251Y-77470963D01*
X159276071Y-77266574D01*
X159276483Y-77237100D01*
X159256380Y-77032070D01*
X159196835Y-76834849D01*
X159100118Y-76652949D01*
X159026759Y-76563002D01*
X158973806Y-76498075D01*
X158973803Y-76498072D01*
X158969911Y-76493300D01*
X158957358Y-76482915D01*
X158815925Y-76365911D01*
X158815921Y-76365909D01*
X158811175Y-76361982D01*
X158791591Y-76351393D01*
X158741183Y-76301398D01*
X158725805Y-76232087D01*
X158750341Y-76165465D01*
X158762425Y-76151462D01*
X159566824Y-75347063D01*
X159568382Y-75345718D01*
X159572938Y-75343491D01*
X159603920Y-75310092D01*
X159607200Y-75306687D01*
X159619592Y-75294295D01*
X159622191Y-75290507D01*
X159624018Y-75288426D01*
X159636094Y-75275408D01*
X159644003Y-75266882D01*
X159648312Y-75256080D01*
X159652044Y-75250177D01*
X159654280Y-75245989D01*
X159657109Y-75239606D01*
X159663691Y-75230011D01*
X159668865Y-75208208D01*
X159674425Y-75190630D01*
X159682724Y-75169827D01*
X159683300Y-75163953D01*
X159683300Y-75160869D01*
X159683450Y-75157802D01*
X159683804Y-75157819D01*
X159684570Y-75151278D01*
X159684564Y-75151278D01*
X159685132Y-75139660D01*
X159687819Y-75128339D01*
X159684451Y-75103591D01*
X159683300Y-75086600D01*
X159683300Y-71695227D01*
X159683450Y-71693183D01*
X159685097Y-71688386D01*
X159683389Y-71642888D01*
X159683300Y-71638161D01*
X159683300Y-71620610D01*
X159682459Y-71616095D01*
X159682279Y-71613313D01*
X159681614Y-71595592D01*
X159681613Y-71595589D01*
X159681177Y-71583965D01*
X159676585Y-71573275D01*
X159675047Y-71566452D01*
X159673670Y-71561921D01*
X159671158Y-71555410D01*
X159669027Y-71543972D01*
X159662921Y-71534066D01*
X159657278Y-71524911D01*
X159648770Y-71508533D01*
X159643441Y-71496128D01*
X159643437Y-71496121D01*
X159639929Y-71487956D01*
X159636183Y-71483396D01*
X159633993Y-71481206D01*
X159631946Y-71478949D01*
X159632209Y-71478711D01*
X159628117Y-71473535D01*
X159628113Y-71473539D01*
X159620300Y-71464922D01*
X159614195Y-71455018D01*
X159594306Y-71439894D01*
X159581487Y-71428700D01*
X158816835Y-70664048D01*
X158782809Y-70601736D01*
X158787874Y-70530921D01*
X158828356Y-70475665D01*
X158948851Y-70381524D01*
X159083464Y-70225572D01*
X159104287Y-70188918D01*
X159182176Y-70051807D01*
X159185223Y-70046444D01*
X159250251Y-69850963D01*
X159276071Y-69646574D01*
X159276483Y-69617100D01*
X159256380Y-69412070D01*
X159196835Y-69214849D01*
X159100118Y-69032949D01*
X158998159Y-68907935D01*
X158973806Y-68878075D01*
X158973803Y-68878072D01*
X158969911Y-68873300D01*
X158926327Y-68837244D01*
X158815925Y-68745911D01*
X158815921Y-68745909D01*
X158811175Y-68741982D01*
X158629955Y-68643997D01*
X158579083Y-68628250D01*
X158519925Y-68588999D01*
X158491377Y-68523995D01*
X158502505Y-68453876D01*
X158549776Y-68400904D01*
X158580135Y-68387199D01*
X158713155Y-68347291D01*
X158722742Y-68343533D01*
X158913995Y-68249839D01*
X158922845Y-68244564D01*
X159096228Y-68120892D01*
X159104100Y-68114239D01*
X159254952Y-67963912D01*
X159261630Y-67956065D01*
X159385903Y-67783120D01*
X159391213Y-67774283D01*
X159485570Y-67583367D01*
X159489369Y-67573772D01*
X159551277Y-67370010D01*
X159553455Y-67359937D01*
X159554886Y-67349062D01*
X159552675Y-67334878D01*
X159539517Y-67331100D01*
X156904125Y-67331100D01*
X156890594Y-67335073D01*
X156889157Y-67345066D01*
X156919465Y-67479546D01*
X156922545Y-67489375D01*
X157002670Y-67686703D01*
X157007313Y-67695894D01*
X157118594Y-67877488D01*
X157124677Y-67885799D01*
X157264113Y-68046767D01*
X157271480Y-68053983D01*
X157435334Y-68190016D01*
X157443781Y-68195931D01*
X157627656Y-68303379D01*
X157636942Y-68307829D01*
X157835901Y-68383803D01*
X157850766Y-68388122D01*
X157850189Y-68390108D01*
X157905160Y-68419182D01*
X157940010Y-68481036D01*
X157935888Y-68551913D01*
X157894101Y-68609309D01*
X157852830Y-68630328D01*
X157831389Y-68636638D01*
X157831384Y-68636640D01*
X157825472Y-68638380D01*
X157642902Y-68733826D01*
X157638101Y-68737686D01*
X157638098Y-68737688D01*
X157514275Y-68837244D01*
X157482347Y-68862915D01*
X157349924Y-69020730D01*
X157346956Y-69026128D01*
X157346953Y-69026133D01*
X157265590Y-69174134D01*
X157250676Y-69201262D01*
X157188384Y-69397632D01*
X157187698Y-69403749D01*
X157187697Y-69403753D01*
X157166107Y-69596237D01*
X157165420Y-69602362D01*
X157182659Y-69807653D01*
X157239444Y-70005686D01*
X157242259Y-70011163D01*
X157242260Y-70011166D01*
X157263147Y-70051807D01*
X157333612Y-70188918D01*
X157461577Y-70350370D01*
X157618464Y-70483891D01*
X157798298Y-70584397D01*
X157851193Y-70601584D01*
X157909797Y-70641656D01*
X157937435Y-70707052D01*
X157937521Y-70717421D01*
X157936903Y-70719554D01*
X157937605Y-70727660D01*
X157937605Y-70727661D01*
X157939930Y-70754506D01*
X157940400Y-70765377D01*
X157940400Y-70773490D01*
X157941468Y-70779226D01*
X157943126Y-70791411D01*
X157945919Y-70823659D01*
X157951028Y-70834111D01*
X157951587Y-70836127D01*
X157951661Y-70836445D01*
X157951785Y-70836730D01*
X157952544Y-70838696D01*
X157954673Y-70850128D01*
X157970222Y-70875354D01*
X157971655Y-70877678D01*
X157977594Y-70888460D01*
X157986698Y-70907085D01*
X157986702Y-70907090D01*
X157991809Y-70917538D01*
X158000335Y-70925447D01*
X158001587Y-70927133D01*
X158001767Y-70927398D01*
X158001980Y-70927614D01*
X158003403Y-70929183D01*
X158009505Y-70939082D01*
X158011822Y-70940844D01*
X158040297Y-70999641D01*
X158031784Y-71070126D01*
X157986516Y-71124818D01*
X157951593Y-71141261D01*
X157825472Y-71178380D01*
X157642902Y-71273826D01*
X157638101Y-71277686D01*
X157638098Y-71277688D01*
X157487154Y-71399050D01*
X157482347Y-71402915D01*
X157349924Y-71560730D01*
X157346956Y-71566128D01*
X157346953Y-71566133D01*
X157279745Y-71688386D01*
X157250676Y-71741262D01*
X157248815Y-71747129D01*
X157248814Y-71747131D01*
X157235628Y-71788699D01*
X157195964Y-71847583D01*
X157130762Y-71875675D01*
X157115526Y-71876600D01*
X153780834Y-71876600D01*
X153778785Y-71876450D01*
X153773986Y-71874802D01*
X153762362Y-71875238D01*
X153762359Y-71875238D01*
X153728462Y-71876511D01*
X153723735Y-71876600D01*
X153706210Y-71876600D01*
X153701700Y-71877440D01*
X153698928Y-71877620D01*
X153669565Y-71878722D01*
X153658878Y-71883314D01*
X153652059Y-71884850D01*
X153647527Y-71886227D01*
X153641005Y-71888744D01*
X153629572Y-71890873D01*
X153610506Y-71902625D01*
X153594135Y-71911129D01*
X153581730Y-71916459D01*
X153581728Y-71916460D01*
X153573557Y-71919971D01*
X153568996Y-71923717D01*
X153566806Y-71925907D01*
X153564538Y-71927964D01*
X153564299Y-71927701D01*
X153559135Y-71931783D01*
X153559139Y-71931787D01*
X153550522Y-71939600D01*
X153540618Y-71945705D01*
X153525494Y-71965594D01*
X153514300Y-71978413D01*
X147879618Y-77613095D01*
X147817306Y-77647121D01*
X147790523Y-77650000D01*
X146317633Y-77650000D01*
X146315585Y-77649850D01*
X146310786Y-77648202D01*
X146265831Y-77649890D01*
X146265273Y-77649911D01*
X146260545Y-77650000D01*
X146243010Y-77650000D01*
X146238498Y-77650841D01*
X146235714Y-77651021D01*
X146217992Y-77651686D01*
X146217989Y-77651687D01*
X146206365Y-77652123D01*
X146195675Y-77656715D01*
X146188852Y-77658253D01*
X146184316Y-77659631D01*
X146177806Y-77662143D01*
X146166372Y-77664273D01*
X146147622Y-77675831D01*
X146147308Y-77676024D01*
X146130932Y-77684531D01*
X146110357Y-77693371D01*
X146105796Y-77697117D01*
X146103600Y-77699313D01*
X146101338Y-77701364D01*
X146101099Y-77701101D01*
X146095935Y-77705183D01*
X146095939Y-77705187D01*
X146087322Y-77713000D01*
X146077418Y-77719105D01*
X146062294Y-77738994D01*
X146051100Y-77751813D01*
X143999619Y-79803294D01*
X143937307Y-79837320D01*
X143894078Y-79839121D01*
X143779188Y-79823996D01*
X143771000Y-79822918D01*
X143614238Y-79843556D01*
X143468159Y-79904064D01*
X143342718Y-80000318D01*
X143246464Y-80125759D01*
X143185956Y-80271838D01*
X143165318Y-80428600D01*
X143185956Y-80585362D01*
X143246464Y-80731441D01*
X143342718Y-80856882D01*
X143468159Y-80953136D01*
X143614238Y-81013644D01*
X143771000Y-81034282D01*
X143858146Y-81022809D01*
X143928294Y-81033748D01*
X143981393Y-81080876D01*
X144000583Y-81149230D01*
X143979772Y-81217108D01*
X143963687Y-81236826D01*
X142905876Y-82294637D01*
X142904318Y-82295982D01*
X142899762Y-82298209D01*
X142891851Y-82306737D01*
X142891850Y-82306738D01*
X142885374Y-82313719D01*
X142824382Y-82350057D01*
X142753426Y-82347652D01*
X142695035Y-82307267D01*
X142667747Y-82241724D01*
X142667000Y-82228028D01*
X142667000Y-78482601D01*
X142687002Y-78414480D01*
X142740658Y-78367987D01*
X142763925Y-78361307D01*
X142763698Y-78360459D01*
X142771674Y-78358322D01*
X142779862Y-78357244D01*
X142925941Y-78296736D01*
X143033923Y-78213879D01*
X143044836Y-78205505D01*
X143051382Y-78200482D01*
X143147636Y-78075041D01*
X143208144Y-77928962D01*
X143228782Y-77772200D01*
X143208144Y-77615438D01*
X143147636Y-77469359D01*
X143051382Y-77343918D01*
X142925941Y-77247664D01*
X142779862Y-77187156D01*
X142771674Y-77186078D01*
X142763698Y-77183941D01*
X142764395Y-77181339D01*
X142711641Y-77158011D01*
X142672540Y-77098752D01*
X142667000Y-77061799D01*
X142667000Y-76182129D01*
X142687002Y-76114008D01*
X142703906Y-76093032D01*
X144090411Y-74706563D01*
X144813290Y-73983703D01*
X144875602Y-73949679D01*
X144902384Y-73946800D01*
X149509814Y-73946800D01*
X149519530Y-73947175D01*
X149569387Y-73951031D01*
X149569388Y-73951031D01*
X149573060Y-73951315D01*
X149684063Y-73946900D01*
X149689071Y-73946800D01*
X149712176Y-73946800D01*
X149713981Y-73946694D01*
X149713993Y-73946694D01*
X149735671Y-73945425D01*
X149765362Y-73943686D01*
X149767619Y-73943576D01*
X149860059Y-73939900D01*
X149902831Y-73938199D01*
X149902834Y-73938199D01*
X149906522Y-73938052D01*
X149926834Y-73934843D01*
X149939125Y-73933515D01*
X149959655Y-73932314D01*
X149963280Y-73931672D01*
X149963285Y-73931671D01*
X150096574Y-73908049D01*
X150098898Y-73907660D01*
X150232521Y-73886549D01*
X150232525Y-73886548D01*
X150236159Y-73885974D01*
X150239698Y-73884981D01*
X150239715Y-73884977D01*
X150255956Y-73880419D01*
X150268010Y-73877666D01*
X150284622Y-73874722D01*
X150284642Y-73874717D01*
X150288260Y-73874076D01*
X150421371Y-73834014D01*
X150423594Y-73833367D01*
X150474602Y-73819051D01*
X150553919Y-73796790D01*
X150553925Y-73796788D01*
X150557470Y-73795793D01*
X150560884Y-73794387D01*
X150560888Y-73794386D01*
X150576480Y-73787966D01*
X150588129Y-73783826D01*
X150607825Y-73777898D01*
X150611205Y-73776432D01*
X150611210Y-73776430D01*
X150735308Y-73722599D01*
X150737481Y-73721680D01*
X150793347Y-73698679D01*
X150866063Y-73668741D01*
X150884039Y-73658745D01*
X150895125Y-73653274D01*
X150913988Y-73645092D01*
X150918990Y-73642187D01*
X151034146Y-73575299D01*
X151036195Y-73574134D01*
X151154501Y-73508346D01*
X151154509Y-73508341D01*
X151157726Y-73506552D01*
X151174414Y-73494526D01*
X151184782Y-73487802D01*
X151202564Y-73477473D01*
X151313763Y-73394134D01*
X151315647Y-73392749D01*
X151425695Y-73313446D01*
X151425703Y-73313440D01*
X151428475Y-73311442D01*
X151445840Y-73295791D01*
X151454631Y-73288560D01*
X151466663Y-73279543D01*
X151466667Y-73279540D01*
X151469614Y-73277331D01*
X151528553Y-73221302D01*
X151530969Y-73219067D01*
X151569471Y-73184365D01*
X151610270Y-73143669D01*
X151612389Y-73141605D01*
X151616326Y-73137863D01*
X151711489Y-73047399D01*
X151711520Y-73047432D01*
X151717997Y-73041226D01*
X151726305Y-73034093D01*
X151726316Y-73034083D01*
X151729107Y-73031686D01*
X151801686Y-72952895D01*
X151805377Y-72949054D01*
X151817917Y-72936546D01*
X151817922Y-72936540D01*
X151819221Y-72935245D01*
X151857162Y-72892694D01*
X151858493Y-72891226D01*
X151894266Y-72852391D01*
X151955212Y-72786229D01*
X151965075Y-72772629D01*
X151973028Y-72762751D01*
X151981756Y-72752963D01*
X151981759Y-72752959D01*
X151984205Y-72750216D01*
X152066150Y-72633283D01*
X152067334Y-72631622D01*
X152148977Y-72519044D01*
X152148979Y-72519041D01*
X152151135Y-72516068D01*
X152159341Y-72501415D01*
X152166086Y-72490678D01*
X152173613Y-72479937D01*
X152175729Y-72476918D01*
X152243475Y-72351216D01*
X152244453Y-72349437D01*
X152312403Y-72228104D01*
X152314201Y-72224894D01*
X152320644Y-72209379D01*
X152326093Y-72197923D01*
X152332308Y-72186391D01*
X152332311Y-72186385D01*
X152334058Y-72183143D01*
X152335414Y-72179721D01*
X152335420Y-72179709D01*
X152386676Y-72050401D01*
X152387442Y-72048512D01*
X152438813Y-71924795D01*
X152442181Y-71916684D01*
X152444795Y-71907479D01*
X152446768Y-71900528D01*
X152450843Y-71888515D01*
X152455671Y-71876334D01*
X152455672Y-71876331D01*
X152457032Y-71872900D01*
X152457979Y-71869345D01*
X152457983Y-71869334D01*
X152493798Y-71734937D01*
X152494340Y-71732969D01*
X152533328Y-71595647D01*
X152536002Y-71579044D01*
X152538647Y-71566642D01*
X152542018Y-71553997D01*
X152542021Y-71553982D01*
X152542968Y-71550429D01*
X152543901Y-71543972D01*
X152563376Y-71409199D01*
X152563684Y-71407183D01*
X152585851Y-71269558D01*
X152585851Y-71269557D01*
X152586397Y-71266168D01*
X152587371Y-71246944D01*
X152588505Y-71235302D01*
X152590168Y-71223791D01*
X152590168Y-71223786D01*
X152590696Y-71220135D01*
X152592827Y-71139957D01*
X152592944Y-71136931D01*
X152595920Y-71078189D01*
X152595921Y-71078168D01*
X152596000Y-71076599D01*
X152596000Y-71022249D01*
X152596044Y-71018902D01*
X152598483Y-70927133D01*
X152599562Y-70886528D01*
X152596514Y-70852891D01*
X152596000Y-70841520D01*
X152596000Y-68361113D01*
X152616002Y-68292992D01*
X152632900Y-68272022D01*
X152668772Y-68236146D01*
X153696444Y-67208364D01*
X153758753Y-67174337D01*
X153778178Y-67171671D01*
X153840655Y-67168014D01*
X153844281Y-67167371D01*
X153844284Y-67167371D01*
X154165639Y-67110418D01*
X154165643Y-67110417D01*
X154169260Y-67109776D01*
X154488825Y-67013598D01*
X154704467Y-66920058D01*
X154791602Y-66882261D01*
X154791605Y-66882259D01*
X154794988Y-66880792D01*
X155083564Y-66713173D01*
X155350614Y-66513031D01*
X155517032Y-66354830D01*
X155589826Y-66285631D01*
X155589830Y-66285627D01*
X155592489Y-66283099D01*
X155687014Y-66169445D01*
X155740605Y-66131682D01*
X155876671Y-66081912D01*
X155876675Y-66081910D01*
X155881170Y-66080266D01*
X156038734Y-65993676D01*
X156099418Y-65978100D01*
X157097967Y-65978100D01*
X157166088Y-65998102D01*
X157212581Y-66051758D01*
X157222685Y-66122032D01*
X157189062Y-66191150D01*
X157165491Y-66215817D01*
X157159004Y-66223827D01*
X157038998Y-66399749D01*
X157033900Y-66408723D01*
X156944238Y-66601883D01*
X156940675Y-66611570D01*
X156885289Y-66811283D01*
X156886812Y-66819707D01*
X156899192Y-66823100D01*
X159539244Y-66823100D01*
X159552775Y-66819127D01*
X159554080Y-66810047D01*
X159512114Y-66642975D01*
X159508794Y-66633224D01*
X159423872Y-66437914D01*
X159419005Y-66428839D01*
X159303326Y-66250026D01*
X159297036Y-66241857D01*
X159153706Y-66084340D01*
X159146173Y-66077315D01*
X158991322Y-65955022D01*
X158950259Y-65897105D01*
X158947027Y-65826182D01*
X158982652Y-65764770D01*
X159000974Y-65750348D01*
X159059993Y-65712167D01*
X159108549Y-65680755D01*
X159181235Y-65614616D01*
X159281142Y-65523707D01*
X159281143Y-65523705D01*
X159284964Y-65520229D01*
X159288163Y-65516178D01*
X159288167Y-65516174D01*
X159429591Y-65337100D01*
X159429593Y-65337096D01*
X159432793Y-65333045D01*
X159548064Y-65124231D01*
X159566626Y-65071815D01*
X159625959Y-64904263D01*
X159625960Y-64904261D01*
X159627683Y-64899394D01*
X159669512Y-64664572D01*
X159672426Y-64426071D01*
X159636347Y-64190298D01*
X159562245Y-63963582D01*
X159452110Y-63752014D01*
X159308898Y-63561275D01*
X159136458Y-63396487D01*
X158939418Y-63262075D01*
X158814607Y-63204140D01*
X158727767Y-63163830D01*
X158727764Y-63163829D01*
X158723072Y-63161651D01*
X158493228Y-63097909D01*
X158488091Y-63097360D01*
X158301849Y-63077456D01*
X158301841Y-63077456D01*
X158298514Y-63077100D01*
X156168307Y-63077100D01*
X156100186Y-63057098D01*
X156085962Y-63046469D01*
X156044985Y-63011088D01*
X156045874Y-63010059D01*
X156013650Y-62972182D01*
X155967043Y-62881689D01*
X155965362Y-62878425D01*
X155778986Y-62601591D01*
X155561586Y-62348393D01*
X155316129Y-62122288D01*
X155062478Y-61938338D01*
X155048951Y-61928528D01*
X155048948Y-61928526D01*
X155045968Y-61926365D01*
X155042747Y-61924561D01*
X154758021Y-61765106D01*
X154758018Y-61765105D01*
X154754794Y-61763299D01*
X154751392Y-61761886D01*
X154751385Y-61761883D01*
X154723169Y-61750167D01*
X154667927Y-61705570D01*
X154645565Y-61638187D01*
X154663184Y-61569411D01*
X154715188Y-61521078D01*
X154771489Y-61507800D01*
X158962829Y-61507800D01*
X158984708Y-61509714D01*
G37*
%TD.AperFunction*%
%TD*%
M02*
