%TF.GenerationSoftware,KiCad,Pcbnew,(6.0.0-0)*%
%TF.CreationDate,2022-02-03T17:22:11+01:00*%
%TF.ProjectId,GlowCoreMini,476c6f77-436f-4726-954d-696e692e6b69,rev?*%
%TF.SameCoordinates,Original*%
%TF.FileFunction,Copper,L2,Bot*%
%TF.FilePolarity,Positive*%
%FSLAX46Y46*%
G04 Gerber Fmt 4.6, Leading zero omitted, Abs format (unit mm)*
G04 Created by KiCad (PCBNEW (6.0.0-0)) date 2022-02-03 17:22:11*
%MOMM*%
%LPD*%
G01*
G04 APERTURE LIST*
%TA.AperFunction,ComponentPad*%
%ADD10R,1.700000X1.700000*%
%TD*%
%TA.AperFunction,ComponentPad*%
%ADD11O,1.700000X1.700000*%
%TD*%
%TA.AperFunction,ComponentPad*%
%ADD12C,0.700000*%
%TD*%
%TA.AperFunction,ComponentPad*%
%ADD13O,1.200000X2.200000*%
%TD*%
%TA.AperFunction,ComponentPad*%
%ADD14O,1.200000X1.800000*%
%TD*%
%TA.AperFunction,ComponentPad*%
%ADD15C,1.800000*%
%TD*%
%TA.AperFunction,ComponentPad*%
%ADD16O,1.600000X3.000000*%
%TD*%
%TA.AperFunction,ComponentPad*%
%ADD17O,3.200000X1.600000*%
%TD*%
%TA.AperFunction,ComponentPad*%
%ADD18C,2.300000*%
%TD*%
%TA.AperFunction,ComponentPad*%
%ADD19C,0.300000*%
%TD*%
%TA.AperFunction,ComponentPad*%
%ADD20R,2.200000X2.200000*%
%TD*%
%TA.AperFunction,ComponentPad*%
%ADD21C,2.200000*%
%TD*%
%TA.AperFunction,SMDPad,CuDef*%
%ADD22R,1.000000X1.500000*%
%TD*%
%TA.AperFunction,ViaPad*%
%ADD23C,0.800000*%
%TD*%
%TA.AperFunction,Conductor*%
%ADD24C,2.000000*%
%TD*%
%TA.AperFunction,Conductor*%
%ADD25C,5.000000*%
%TD*%
%TA.AperFunction,Conductor*%
%ADD26C,0.160000*%
%TD*%
%TA.AperFunction,Conductor*%
%ADD27C,1.400000*%
%TD*%
%TA.AperFunction,Conductor*%
%ADD28C,3.000000*%
%TD*%
G04 APERTURE END LIST*
D10*
%TO.P,J1,1,Pin_1*%
%TO.N,+5V*%
X155056600Y-69443600D03*
D11*
%TO.P,J1,2,Pin_2*%
%TO.N,GND*%
X155056600Y-71983600D03*
%TO.P,J1,3,Pin_3*%
%TO.N,+3V3*%
X155056600Y-74523600D03*
%TO.P,J1,4,Pin_4*%
%TO.N,IO26{slash}A0{slash}DAC2*%
X155056600Y-77063600D03*
%TO.P,J1,5,Pin_5*%
%TO.N,IO25{slash}A1{slash}DAC1*%
X155056600Y-79603600D03*
%TO.P,J1,6,Pin_6*%
%TO.N,IO13*%
X155056600Y-82143600D03*
%TD*%
D12*
%TO.P,USB1,*%
%TO.N,*%
X152130000Y-127786600D03*
X146350000Y-127786600D03*
D13*
%TO.P,USB1,SHELL,SHELL*%
%TO.N,GND*%
X144920000Y-127286600D03*
D14*
X144920000Y-131466600D03*
D13*
X153560000Y-127286600D03*
D14*
X153560000Y-131466600D03*
%TD*%
D15*
%TO.P,J2,*%
%TO.N,*%
X137018000Y-131206600D03*
D16*
%TO.P,J2,1*%
%TO.N,GND*%
X132168000Y-128456600D03*
X141868000Y-128456600D03*
X132168000Y-123756600D03*
X141868000Y-123756600D03*
D17*
%TO.P,J2,2*%
%TO.N,N/C*%
X137018000Y-127956600D03*
D18*
%TO.P,J2,3*%
%TO.N,+5V*%
X137018000Y-120256600D03*
%TD*%
D19*
%TO.P,U2,39_10,GND*%
%TO.N,GND*%
X143755000Y-97117100D03*
%TO.P,U2,39_11,GND*%
X143755000Y-98952100D03*
%TO.P,U2,39_12,GND*%
X142837500Y-96199600D03*
%TO.P,U2,39_13,GND*%
X142837500Y-98034600D03*
%TO.P,U2,39_14,GND*%
X142837500Y-99869600D03*
%TO.P,U2,39_15,GND*%
X141920000Y-97117100D03*
%TO.P,U2,39_16,GND*%
X141920000Y-98952100D03*
%TO.P,U2,39_17,GND*%
X141002500Y-96199600D03*
%TO.P,U2,39_18,GND*%
X141002500Y-98034600D03*
%TO.P,U2,39_19,GND*%
X141002500Y-99869600D03*
%TO.P,U2,39_20,GND*%
X140085000Y-97117100D03*
%TO.P,U2,39_21,GND*%
X140085000Y-98952100D03*
%TD*%
D20*
%TO.P,P1,1,1*%
%TO.N,+5V*%
X142229608Y-71235450D03*
D21*
%TO.P,P1,2,2*%
%TO.N,Net-(R1-Pad2)*%
X138419600Y-71235450D03*
%TO.P,P1,3,3*%
%TO.N,GND*%
X134609592Y-71235450D03*
%TD*%
D22*
%TO.P,Status_LED1,1,A*%
%TO.N,IO13*%
X150575800Y-77317600D03*
%TO.P,Status_LED1,2,B*%
%TO.N,Net-(R7-Pad1)*%
X149275800Y-77317600D03*
%TD*%
D23*
%TO.N,GND*%
X142928700Y-119224800D03*
X153095300Y-121004300D03*
X132227300Y-82316300D03*
%TO.N,+5V*%
X142102600Y-80136600D03*
X156417700Y-119520400D03*
%TO.N,+3V3*%
X136599700Y-103630500D03*
X136708700Y-87127400D03*
X148055100Y-116778000D03*
X137685600Y-93532800D03*
X141792900Y-109172400D03*
%TO.N,RESET*%
X139145600Y-105922500D03*
X137342600Y-111081100D03*
%TO.N,USB-C DATA+*%
X150045600Y-125290300D03*
X153717200Y-121974500D03*
%TO.N,USB-C DATA-*%
X149320900Y-123816700D03*
X154546000Y-120592300D03*
%TO.N,IO15{slash}WS*%
X136600400Y-96369600D03*
X136715200Y-83718000D03*
%TO.N,DTR*%
X150483200Y-118517800D03*
X147392700Y-114306700D03*
%TO.N,RTS*%
X150425800Y-115624600D03*
X149067000Y-116792500D03*
%TO.N,IO13*%
X148374500Y-114743200D03*
X141090100Y-111659300D03*
X138438600Y-105214700D03*
X138753500Y-103854000D03*
X136997300Y-100502500D03*
%TO.N,IO25{slash}A1{slash}DAC1*%
X153906600Y-81046300D03*
X146187900Y-87694000D03*
%TO.N,IO26{slash}A0{slash}DAC2*%
X145421600Y-86954600D03*
X152979900Y-79538000D03*
%TO.N,IO16{slash}LED1*%
X138568200Y-92855200D03*
X138517500Y-83381000D03*
%TO.N,RXD0*%
X141212900Y-110269800D03*
X143373100Y-105927500D03*
%TO.N,USB-C CC1*%
X148433500Y-128100200D03*
X155242100Y-127252100D03*
%TO.N,USB-C CC2*%
X155488500Y-129574300D03*
X151265300Y-128878200D03*
%TO.N,Net-(R7-Pad1)*%
X149737100Y-78768200D03*
%TO.N,Net-(R1-Pad2)*%
X155803900Y-67922800D03*
X145207800Y-84301300D03*
%TD*%
D24*
%TO.N,GND*%
X132168000Y-123756600D02*
X132687000Y-123756600D01*
D25*
X133492000Y-84150600D02*
X133492000Y-81305600D01*
D24*
X132168000Y-123756600D02*
X132168000Y-117732600D01*
D26*
X141868000Y-120285500D02*
X142928700Y-119224800D01*
D27*
X144920000Y-131466600D02*
X144878000Y-131466600D01*
D24*
X132168000Y-117732600D02*
X133492000Y-116408600D01*
D28*
X132687000Y-123756600D02*
X134432000Y-125501600D01*
D26*
X154397600Y-125068700D02*
X154397600Y-121609900D01*
D24*
X132168000Y-128456600D02*
X132168000Y-123756600D01*
D27*
X143038000Y-127286600D02*
X141868000Y-128456600D01*
D26*
X142837500Y-99869600D02*
X141920000Y-98952100D01*
X141868000Y-123756600D02*
X141868000Y-120285500D01*
D24*
X140123000Y-125501600D02*
X141868000Y-123756600D01*
D28*
X134889000Y-125044600D02*
X139666000Y-125044600D01*
X139666000Y-125044600D02*
X140123000Y-125501600D01*
D25*
X141868000Y-128456600D02*
X141868000Y-123756600D01*
X133492000Y-81305600D02*
X133492000Y-72694600D01*
X133492000Y-81305600D02*
X133365000Y-81178600D01*
X133492000Y-99386600D02*
X133492000Y-84150600D01*
D27*
X144920000Y-127286600D02*
X143038000Y-127286600D01*
D25*
X133492000Y-72694600D02*
X134520000Y-71666600D01*
X134520000Y-71666600D02*
X134520000Y-71320800D01*
D26*
X141002500Y-96199600D02*
X140085000Y-97117100D01*
D25*
X133492000Y-84150600D02*
X133492000Y-81305600D01*
D26*
X153560000Y-125906300D02*
X154397600Y-125068700D01*
X134520000Y-71320800D02*
X134609600Y-71231200D01*
X139650500Y-99386600D02*
X140085000Y-98952100D01*
X142837500Y-96199600D02*
X141920000Y-97117100D01*
X153792000Y-121004300D02*
X153095300Y-121004300D01*
D25*
X134520000Y-71320800D02*
X134520000Y-71231600D01*
X133492000Y-116408600D02*
X133492000Y-99386600D01*
D26*
X133492000Y-99386600D02*
X139650500Y-99386600D01*
X154397600Y-121609900D02*
X153792000Y-121004300D01*
D27*
X144878000Y-131466600D02*
X141868000Y-128456600D01*
D26*
X153560000Y-127286600D02*
X153560000Y-125906300D01*
D28*
X134432000Y-125501600D02*
X134889000Y-125044600D01*
D25*
%TO.N,+5V*%
X143407200Y-89569600D02*
X142102600Y-88264600D01*
D26*
X149965700Y-119198200D02*
X150287900Y-119520400D01*
D25*
X137018000Y-120256600D02*
X142372100Y-114902200D01*
X143652000Y-89569600D02*
X143407200Y-89569600D01*
D26*
X150287900Y-119520400D02*
X156417700Y-119520400D01*
D25*
X142102600Y-74802600D02*
X143652000Y-73253600D01*
D26*
X142229600Y-71231200D02*
X142230000Y-71231600D01*
D25*
X147409500Y-69496600D02*
X152516600Y-69496600D01*
X143652000Y-73253600D02*
X147409500Y-69496600D01*
X142102600Y-88264600D02*
X142102600Y-80136600D01*
X142102600Y-80136600D02*
X142102600Y-74802600D01*
D26*
X147922100Y-118770200D02*
X148350100Y-119198200D01*
D24*
X155056600Y-69443600D02*
X152569100Y-69443600D01*
D26*
X148350100Y-119198200D02*
X149965700Y-119198200D01*
D25*
X146628500Y-92546600D02*
X143652000Y-89569600D01*
D24*
X152569100Y-69443600D02*
X152516600Y-69496600D01*
D26*
X146240100Y-118770200D02*
X147922100Y-118770200D01*
X142372100Y-114902200D02*
X146240100Y-118770200D01*
D25*
X146628500Y-110645600D02*
X146628500Y-92546600D01*
X143652000Y-73253600D02*
X142319100Y-71920600D01*
D26*
X142230000Y-71231600D02*
X142319100Y-71231600D01*
D25*
X142372100Y-114902200D02*
X146628500Y-110645600D01*
X142319100Y-71920600D02*
X142319100Y-71231600D01*
D26*
%TO.N,+3V3*%
X150438600Y-84851900D02*
X151405900Y-83884600D01*
X136599700Y-103630500D02*
X137503500Y-104534300D01*
X156199900Y-76514600D02*
X155339200Y-75653900D01*
X137503500Y-104534300D02*
X139263600Y-104534300D01*
X136708700Y-87127400D02*
X137685600Y-88104300D01*
X151405900Y-83884600D02*
X154965600Y-83884600D01*
X141792900Y-107063600D02*
X141792900Y-109172400D01*
X155056600Y-74523600D02*
X155056600Y-75653900D01*
X155339200Y-75653900D02*
X155056600Y-75653900D01*
X154965600Y-83884600D02*
X156199900Y-82650300D01*
X150438600Y-114394500D02*
X150438600Y-84851900D01*
X137685600Y-88104300D02*
X137685600Y-93532800D01*
X148055100Y-116778000D02*
X150438600Y-114394500D01*
X156199900Y-82650300D02*
X156199900Y-76514600D01*
X139263600Y-104534300D02*
X141792900Y-107063600D01*
%TO.N,RESET*%
X139145500Y-109278200D02*
X139145500Y-105922500D01*
X137342600Y-111081100D02*
X139145500Y-109278200D01*
X139145500Y-105922500D02*
X139145600Y-105922500D01*
%TO.N,USB-C DATA+*%
X153717200Y-121974500D02*
X150401400Y-125290300D01*
X150401400Y-125290300D02*
X150045600Y-125290300D01*
%TO.N,USB-C DATA-*%
X154546000Y-120592300D02*
X154277700Y-120324000D01*
X154277700Y-120324000D02*
X152813600Y-120324000D01*
X152813600Y-120324000D02*
X149320900Y-123816700D01*
%TO.N,IO15{slash}WS*%
X139074500Y-93311000D02*
X139248500Y-93137000D01*
X138799200Y-82700700D02*
X138235800Y-82700700D01*
X139074500Y-93895500D02*
X139074500Y-93311000D01*
X137837200Y-83099300D02*
X137837200Y-83213500D01*
X137219700Y-83213500D02*
X136715200Y-83718000D01*
X139197800Y-83099300D02*
X138799200Y-82700700D01*
X139197800Y-83662800D02*
X139197800Y-83099300D01*
X138235800Y-82700700D02*
X137837200Y-83099300D01*
X136600400Y-96369600D02*
X139074500Y-93895500D01*
X139074500Y-92399500D02*
X139074500Y-84012800D01*
X139248500Y-92573500D02*
X139074500Y-92399500D01*
X139086300Y-84001000D02*
X139086300Y-83774300D01*
X137837200Y-83213500D02*
X137219700Y-83213500D01*
X139086300Y-83774300D02*
X139197800Y-83662800D01*
X139248500Y-93137000D02*
X139248500Y-92573500D01*
X139074500Y-84012800D02*
X139086300Y-84001000D01*
%TO.N,DTR*%
X148791300Y-118517800D02*
X147374700Y-117101200D01*
X147374700Y-114324700D02*
X147392700Y-114306700D01*
X150483200Y-118517800D02*
X148791300Y-118517800D01*
X147374700Y-117101200D02*
X147374700Y-114324700D01*
%TO.N,RTS*%
X150425800Y-115624600D02*
X149257900Y-116792500D01*
X149257900Y-116792500D02*
X149067000Y-116792500D01*
%TO.N,IO13*%
X140214300Y-110783500D02*
X140214300Y-105994500D01*
X150078200Y-113039500D02*
X148374500Y-114743200D01*
X152872900Y-81845000D02*
X150078200Y-84639700D01*
X154853500Y-81013300D02*
X155056600Y-81013300D01*
X153660200Y-79820000D02*
X154853500Y-81013300D01*
X140214300Y-105994500D02*
X139434500Y-105214700D01*
X151356100Y-77317600D02*
X151721500Y-77317600D01*
X153660200Y-79256300D02*
X153660200Y-79820000D01*
X155056600Y-81845000D02*
X152872900Y-81845000D01*
X150575800Y-77317600D02*
X151356100Y-77317600D01*
X155056600Y-81845000D02*
X155056600Y-81013300D01*
X138753500Y-102258700D02*
X136997300Y-100502500D01*
X141090100Y-111659300D02*
X140214300Y-110783500D01*
X139434500Y-105214700D02*
X138438600Y-105214700D01*
X151721500Y-77317600D02*
X153660200Y-79256300D01*
X155056600Y-82143600D02*
X155056600Y-81845000D01*
X138753500Y-103854000D02*
X138753500Y-102258700D01*
X150078200Y-84639700D02*
X150078200Y-113039500D01*
%TO.N,IO25{slash}A1{slash}DAC1*%
X152835600Y-81046300D02*
X153906600Y-81046300D01*
X146187900Y-87694000D02*
X152835600Y-81046300D01*
%TO.N,IO26{slash}A0{slash}DAC2*%
X152979900Y-79538000D02*
X152838200Y-79538000D01*
X152838200Y-79538000D02*
X145421600Y-86954600D01*
%TO.N,IO16{slash}LED1*%
X138568200Y-83431700D02*
X138517500Y-83381000D01*
X138568200Y-92855200D02*
X138568200Y-83431700D01*
%TO.N,RXD0*%
X143373100Y-108613600D02*
X143373100Y-105927500D01*
X141212900Y-110269800D02*
X141716900Y-110269800D01*
X141716900Y-110269800D02*
X143373100Y-108613600D01*
%TO.N,USB-C CC1*%
X152019470Y-128671000D02*
X153930900Y-128671000D01*
X148433500Y-128100200D02*
X151448670Y-128100200D01*
X153930900Y-128671000D02*
X155242000Y-127359900D01*
X155242000Y-127359900D02*
X155242000Y-127252100D01*
X155242000Y-127252100D02*
X155242100Y-127252100D01*
X151448670Y-128100200D02*
X152019470Y-128671000D01*
%TO.N,USB-C CC2*%
X151265300Y-128878200D02*
X151961400Y-129574300D01*
X151961400Y-129574300D02*
X155488500Y-129574300D01*
%TO.N,Net-(R7-Pad1)*%
X149275800Y-78347900D02*
X149316800Y-78347900D01*
X149316800Y-78347900D02*
X149737100Y-78768200D01*
X149275800Y-77317600D02*
X149275800Y-78347900D01*
%TO.N,Net-(R1-Pad2)*%
X145207800Y-79737100D02*
X145207800Y-84301300D01*
X156337000Y-72388400D02*
X155332200Y-73393200D01*
X155803900Y-67922800D02*
X156337000Y-68455900D01*
X155332200Y-73393200D02*
X151551700Y-73393200D01*
X156337000Y-68455900D02*
X156337000Y-72388400D01*
X151551700Y-73393200D02*
X145207800Y-79737100D01*
%TD*%
%TA.AperFunction,Conductor*%
%TO.N,GND*%
G36*
X145026273Y-67016813D02*
G01*
X145155468Y-67075814D01*
X145262807Y-67168824D01*
X145339594Y-67288308D01*
X145379609Y-67424585D01*
X145379609Y-67566615D01*
X145339594Y-67702892D01*
X145262807Y-67822376D01*
X145238511Y-67848469D01*
X144273312Y-68813541D01*
X144159605Y-68898650D01*
X144026527Y-68948275D01*
X143884858Y-68958398D01*
X143746076Y-68928198D01*
X143660879Y-68886822D01*
X143585054Y-68840629D01*
X143571384Y-68834414D01*
X143571381Y-68834412D01*
X143302322Y-68712078D01*
X143302323Y-68712078D01*
X143288642Y-68705858D01*
X143243123Y-68691462D01*
X142992512Y-68612204D01*
X142992511Y-68612204D01*
X142978185Y-68607673D01*
X142963428Y-68604898D01*
X142963424Y-68604897D01*
X142672939Y-68550272D01*
X142672936Y-68550272D01*
X142658181Y-68547497D01*
X142550518Y-68540440D01*
X142348254Y-68527183D01*
X142348248Y-68527183D01*
X142333266Y-68526201D01*
X142008145Y-68544094D01*
X141993344Y-68546717D01*
X141993336Y-68546718D01*
X141702339Y-68598290D01*
X141702334Y-68598291D01*
X141687529Y-68600915D01*
X141673152Y-68605297D01*
X141673147Y-68605298D01*
X141463383Y-68669230D01*
X141376061Y-68695844D01*
X141362317Y-68701920D01*
X141362312Y-68701922D01*
X141092000Y-68821425D01*
X141091993Y-68821429D01*
X141078253Y-68827503D01*
X140798419Y-68993986D01*
X140540613Y-69192882D01*
X140308569Y-69421310D01*
X140105648Y-69675960D01*
X139934790Y-69953144D01*
X139921521Y-69981927D01*
X139844311Y-70101131D01*
X139736641Y-70193758D01*
X139607236Y-70252299D01*
X139466581Y-70272011D01*
X139326069Y-70251297D01*
X139197085Y-70191835D01*
X139182147Y-70181773D01*
X139114550Y-70134442D01*
X139072334Y-70104882D01*
X138866096Y-70008711D01*
X138646292Y-69949815D01*
X138624592Y-69947916D01*
X138624589Y-69947916D01*
X138441306Y-69931881D01*
X138419600Y-69929982D01*
X138397894Y-69931881D01*
X138214611Y-69947916D01*
X138214608Y-69947916D01*
X138192908Y-69949815D01*
X137973104Y-70008711D01*
X137766866Y-70104882D01*
X137580461Y-70235403D01*
X137419553Y-70396311D01*
X137289032Y-70582716D01*
X137192861Y-70788954D01*
X137133965Y-71008758D01*
X137132066Y-71030458D01*
X137132066Y-71030461D01*
X137118650Y-71183812D01*
X137114132Y-71235450D01*
X137116031Y-71257156D01*
X137127255Y-71385442D01*
X137133965Y-71462142D01*
X137192861Y-71681946D01*
X137289032Y-71888184D01*
X137419553Y-72074589D01*
X137580461Y-72235497D01*
X137598305Y-72247992D01*
X137598307Y-72247993D01*
X137632897Y-72272213D01*
X137766866Y-72366018D01*
X137973104Y-72462189D01*
X138192908Y-72521085D01*
X138214608Y-72522984D01*
X138214611Y-72522984D01*
X138397894Y-72539019D01*
X138419600Y-72540918D01*
X138441306Y-72539019D01*
X138624589Y-72522984D01*
X138624592Y-72522984D01*
X138646292Y-72521085D01*
X138866096Y-72462189D01*
X139037749Y-72382145D01*
X139173702Y-72341051D01*
X139315728Y-72339924D01*
X139452318Y-72378856D01*
X139572407Y-72454692D01*
X139666266Y-72561290D01*
X139726033Y-72689519D01*
X139729104Y-72702460D01*
X139734307Y-72716564D01*
X139734307Y-72716565D01*
X139756473Y-72776656D01*
X139764859Y-72801361D01*
X139788316Y-72876904D01*
X139794466Y-72890620D01*
X139794467Y-72890623D01*
X139810337Y-72926018D01*
X139823183Y-72957500D01*
X139828943Y-72973117D01*
X139858627Y-73112011D01*
X139847978Y-73253641D01*
X139797858Y-73386534D01*
X139794494Y-73392355D01*
X139788647Y-73400812D01*
X139781649Y-73414109D01*
X139763453Y-73448682D01*
X139746670Y-73478102D01*
X139718290Y-73524144D01*
X139685290Y-73595726D01*
X139673718Y-73619190D01*
X139637000Y-73688956D01*
X139617743Y-73739498D01*
X139604613Y-73770728D01*
X139581969Y-73819847D01*
X139577362Y-73834154D01*
X139557812Y-73894863D01*
X139549132Y-73919575D01*
X139521068Y-73993231D01*
X139517443Y-74007817D01*
X139517440Y-74007826D01*
X139508023Y-74045716D01*
X139498737Y-74078306D01*
X139489252Y-74107762D01*
X139482160Y-74129785D01*
X139467184Y-74207190D01*
X139461543Y-74232730D01*
X139446157Y-74294634D01*
X139446155Y-74294646D01*
X139442530Y-74309230D01*
X139440685Y-74324137D01*
X139440682Y-74324151D01*
X139435886Y-74362900D01*
X139430587Y-74396349D01*
X139420309Y-74449470D01*
X139416104Y-74508862D01*
X139414741Y-74528106D01*
X139412209Y-74554152D01*
X139402525Y-74632376D01*
X139402367Y-74689839D01*
X139402336Y-74701298D01*
X139402283Y-74704060D01*
X139402100Y-74706646D01*
X139402100Y-74786352D01*
X139402098Y-74787724D01*
X139401708Y-74929790D01*
X139401630Y-74957987D01*
X139401994Y-74961067D01*
X139402100Y-74964749D01*
X139402100Y-81924136D01*
X139381887Y-82064721D01*
X139322886Y-82193916D01*
X139229876Y-82301255D01*
X139110392Y-82378042D01*
X138974115Y-82418057D01*
X138873153Y-82420331D01*
X138873072Y-82421986D01*
X138855506Y-82421127D01*
X138854627Y-82420776D01*
X138848753Y-82420200D01*
X138832178Y-82420200D01*
X138832178Y-82419986D01*
X138831042Y-82419930D01*
X138824435Y-82418363D01*
X138824479Y-82417459D01*
X138821012Y-82417550D01*
X138813139Y-82415682D01*
X138794235Y-82418255D01*
X138787231Y-82418439D01*
X138786032Y-82418331D01*
X138746274Y-82420200D01*
X138306776Y-82420200D01*
X138292831Y-82418886D01*
X138278739Y-82418832D01*
X138277486Y-82418402D01*
X138267203Y-82418788D01*
X138267195Y-82418788D01*
X138238941Y-82419849D01*
X138235885Y-82419906D01*
X138234834Y-82420003D01*
X138230082Y-82420182D01*
X138227687Y-82420060D01*
X138220221Y-82420200D01*
X138209710Y-82420200D01*
X138204691Y-82421135D01*
X138173065Y-82422322D01*
X138153744Y-82430623D01*
X138133072Y-82434473D01*
X138106131Y-82451079D01*
X138077057Y-82463571D01*
X138072496Y-82467317D01*
X138060776Y-82479037D01*
X138053997Y-82483215D01*
X138052502Y-82484137D01*
X138044118Y-82489305D01*
X138032574Y-82504486D01*
X138027744Y-82509577D01*
X138026830Y-82510340D01*
X138000022Y-82539791D01*
X137752967Y-82786846D01*
X137639266Y-82871962D01*
X137506191Y-82921596D01*
X137400121Y-82933000D01*
X137290676Y-82933000D01*
X137276731Y-82931686D01*
X137262639Y-82931632D01*
X137261386Y-82931202D01*
X137251103Y-82931588D01*
X137251095Y-82931588D01*
X137222841Y-82932649D01*
X137219785Y-82932706D01*
X137218734Y-82932803D01*
X137213982Y-82932982D01*
X137211587Y-82932860D01*
X137204121Y-82933000D01*
X137193610Y-82933000D01*
X137188591Y-82933935D01*
X137156965Y-82935122D01*
X137137644Y-82943423D01*
X137116972Y-82947273D01*
X137090031Y-82963879D01*
X137060957Y-82976371D01*
X137056396Y-82980117D01*
X137044676Y-82991837D01*
X137028018Y-83002105D01*
X137027932Y-83001965D01*
X137025188Y-83003928D01*
X137020309Y-83006897D01*
X136931687Y-83066712D01*
X136796345Y-83109784D01*
X136734728Y-83114889D01*
X136715200Y-83112318D01*
X136682774Y-83116587D01*
X136590863Y-83128687D01*
X136590862Y-83128687D01*
X136558438Y-83132956D01*
X136528226Y-83145470D01*
X136528223Y-83145471D01*
X136442577Y-83180947D01*
X136442575Y-83180948D01*
X136412359Y-83193464D01*
X136286918Y-83289718D01*
X136267009Y-83315664D01*
X136214730Y-83383796D01*
X136190664Y-83415159D01*
X136178148Y-83445375D01*
X136178147Y-83445377D01*
X136145214Y-83524886D01*
X136130156Y-83561238D01*
X136109518Y-83718000D01*
X136130156Y-83874762D01*
X136142670Y-83904974D01*
X136142671Y-83904977D01*
X136174466Y-83981736D01*
X136190664Y-84020841D01*
X136210574Y-84046788D01*
X136210575Y-84046790D01*
X136256210Y-84106263D01*
X136286918Y-84146282D01*
X136354607Y-84198221D01*
X136365155Y-84206315D01*
X136464383Y-84307933D01*
X136530963Y-84433391D01*
X136559501Y-84572525D01*
X136547684Y-84714062D01*
X136514907Y-84810265D01*
X136514600Y-84810600D01*
X136512069Y-84816505D01*
X136512067Y-84816510D01*
X136352921Y-85187850D01*
X136286000Y-85344000D01*
X136362200Y-85801200D01*
X136373199Y-85817087D01*
X136373201Y-85817091D01*
X136469339Y-85955958D01*
X136532742Y-86083051D01*
X136557771Y-86222859D01*
X136542397Y-86364054D01*
X136487866Y-86495199D01*
X136398597Y-86605669D01*
X136362843Y-86635871D01*
X136280418Y-86699118D01*
X136260509Y-86725064D01*
X136204668Y-86797838D01*
X136184164Y-86824559D01*
X136171648Y-86854775D01*
X136171647Y-86854777D01*
X136149927Y-86907215D01*
X136123656Y-86970638D01*
X136103018Y-87127400D01*
X136123656Y-87284162D01*
X136136170Y-87314374D01*
X136136171Y-87314377D01*
X136171647Y-87400023D01*
X136184164Y-87430241D01*
X136280418Y-87555682D01*
X136405859Y-87651936D01*
X136436075Y-87664452D01*
X136436077Y-87664453D01*
X136521723Y-87699929D01*
X136521726Y-87699930D01*
X136551938Y-87712444D01*
X136584362Y-87716713D01*
X136584363Y-87716713D01*
X136654626Y-87725963D01*
X136708700Y-87733082D01*
X136723173Y-87731177D01*
X136847319Y-87749026D01*
X136976514Y-87808027D01*
X137059580Y-87874967D01*
X137258946Y-88074333D01*
X137344062Y-88188034D01*
X137393696Y-88321109D01*
X137405100Y-88427179D01*
X137405100Y-92756081D01*
X137384887Y-92896666D01*
X137325886Y-93025861D01*
X137270894Y-93094101D01*
X137257318Y-93104518D01*
X137237409Y-93130464D01*
X137194371Y-93186553D01*
X137161064Y-93229959D01*
X137148548Y-93260175D01*
X137148547Y-93260177D01*
X137119226Y-93330965D01*
X137100556Y-93376038D01*
X137079918Y-93532800D01*
X137100556Y-93689562D01*
X137161064Y-93835641D01*
X137180974Y-93861588D01*
X137180975Y-93861590D01*
X137217691Y-93909439D01*
X137257318Y-93961082D01*
X137283264Y-93980991D01*
X137345118Y-94028453D01*
X137382759Y-94057336D01*
X137412976Y-94069852D01*
X137412979Y-94069854D01*
X137494108Y-94103459D01*
X137616256Y-94175933D01*
X137713037Y-94279885D01*
X137776612Y-94406892D01*
X137801829Y-94546666D01*
X137786646Y-94687882D01*
X137732293Y-94819101D01*
X137655993Y-94917320D01*
X136951280Y-95622033D01*
X136837579Y-95707149D01*
X136704504Y-95756783D01*
X136617366Y-95766152D01*
X136600400Y-95763918D01*
X136567974Y-95768187D01*
X136476063Y-95780287D01*
X136476062Y-95780287D01*
X136443638Y-95784556D01*
X136413426Y-95797070D01*
X136413423Y-95797071D01*
X136327777Y-95832547D01*
X136327775Y-95832548D01*
X136297559Y-95845064D01*
X136172118Y-95941318D01*
X136152209Y-95967264D01*
X136112726Y-96018720D01*
X136075864Y-96066759D01*
X136063348Y-96096975D01*
X136063347Y-96096977D01*
X136029184Y-96179455D01*
X136015356Y-96212838D01*
X136011087Y-96245262D01*
X136011087Y-96245263D01*
X136006769Y-96278066D01*
X135994718Y-96369600D01*
X135998987Y-96402026D01*
X136006827Y-96461574D01*
X136015356Y-96526362D01*
X136075864Y-96672441D01*
X136172118Y-96797882D01*
X136297559Y-96894136D01*
X136327775Y-96906652D01*
X136327777Y-96906653D01*
X136413423Y-96942129D01*
X136413426Y-96942130D01*
X136443638Y-96954644D01*
X136476062Y-96958913D01*
X136476063Y-96958913D01*
X136567974Y-96971013D01*
X136600400Y-96975282D01*
X136632826Y-96971013D01*
X136724737Y-96958913D01*
X136724738Y-96958913D01*
X136757162Y-96954644D01*
X136787374Y-96942130D01*
X136787377Y-96942129D01*
X136873023Y-96906653D01*
X136873025Y-96906652D01*
X136903241Y-96894136D01*
X137028682Y-96797882D01*
X137124936Y-96672441D01*
X137185444Y-96526362D01*
X137193974Y-96461574D01*
X137201813Y-96402026D01*
X137206082Y-96369600D01*
X137204177Y-96355127D01*
X137222026Y-96230981D01*
X137227157Y-96219745D01*
X140853568Y-96219745D01*
X140854240Y-96223124D01*
X140872612Y-96275203D01*
X140874526Y-96278066D01*
X140911434Y-96319155D01*
X140914296Y-96321067D01*
X140964118Y-96344904D01*
X140967491Y-96345575D01*
X141022645Y-96348532D01*
X141026024Y-96347860D01*
X141078103Y-96329488D01*
X141080966Y-96327574D01*
X141122055Y-96290666D01*
X141123967Y-96287804D01*
X141147804Y-96237982D01*
X141148475Y-96234609D01*
X141149272Y-96219745D01*
X142688568Y-96219745D01*
X142689240Y-96223124D01*
X142707612Y-96275203D01*
X142709526Y-96278066D01*
X142746434Y-96319155D01*
X142749296Y-96321067D01*
X142799118Y-96344904D01*
X142802491Y-96345575D01*
X142857645Y-96348532D01*
X142861024Y-96347860D01*
X142913103Y-96329488D01*
X142915966Y-96327574D01*
X142957055Y-96290666D01*
X142958967Y-96287805D01*
X142978866Y-96246213D01*
X143008772Y-96201456D01*
X142985117Y-96153127D01*
X142971366Y-96129952D01*
X142965474Y-96121134D01*
X142928566Y-96080045D01*
X142925704Y-96078133D01*
X142875882Y-96054296D01*
X142872509Y-96053625D01*
X142817355Y-96050668D01*
X142813976Y-96051340D01*
X142761897Y-96069712D01*
X142759034Y-96071626D01*
X142717945Y-96108534D01*
X142716033Y-96111396D01*
X142692196Y-96161218D01*
X142691525Y-96164591D01*
X142688568Y-96219745D01*
X141149272Y-96219745D01*
X141151432Y-96179455D01*
X141150760Y-96176076D01*
X141132388Y-96123997D01*
X141130474Y-96121134D01*
X141093566Y-96080045D01*
X141090704Y-96078133D01*
X141040882Y-96054296D01*
X141037509Y-96053625D01*
X140982355Y-96050668D01*
X140978976Y-96051340D01*
X140926897Y-96069712D01*
X140924034Y-96071626D01*
X140882945Y-96108534D01*
X140881033Y-96111396D01*
X140857196Y-96161218D01*
X140856525Y-96164591D01*
X140853568Y-96219745D01*
X137227157Y-96219745D01*
X137281027Y-96101786D01*
X137347967Y-96018720D01*
X139222656Y-94144031D01*
X139233439Y-94135105D01*
X139243446Y-94125174D01*
X139244638Y-94124591D01*
X139270852Y-94096332D01*
X139272997Y-94094105D01*
X139273677Y-94093286D01*
X139276925Y-94089785D01*
X139278714Y-94088169D01*
X139283840Y-94082847D01*
X139291292Y-94075395D01*
X139294183Y-94071181D01*
X139315703Y-94047982D01*
X139323494Y-94028453D01*
X139335391Y-94011111D01*
X139342699Y-93980316D01*
X139354424Y-93950927D01*
X139355000Y-93945053D01*
X139355000Y-93928481D01*
X139356838Y-93920735D01*
X139359519Y-93909439D01*
X139356947Y-93890545D01*
X139356763Y-93883529D01*
X139356870Y-93882348D01*
X139355000Y-93842558D01*
X139355000Y-93630500D01*
X139375213Y-93489915D01*
X139434214Y-93360720D01*
X139445959Y-93345575D01*
X139445128Y-93345000D01*
X139462116Y-93320438D01*
X139463271Y-93318916D01*
X139465292Y-93316895D01*
X139468182Y-93312681D01*
X139489703Y-93289482D01*
X139497495Y-93269951D01*
X139509390Y-93252611D01*
X139516697Y-93221822D01*
X139528424Y-93192427D01*
X139529000Y-93186553D01*
X139529000Y-93169977D01*
X139530837Y-93162235D01*
X139530852Y-93162174D01*
X139533518Y-93150939D01*
X139530947Y-93132046D01*
X139530762Y-93125023D01*
X139530869Y-93123839D01*
X139529000Y-93084074D01*
X139529000Y-92644473D01*
X139530313Y-92630541D01*
X139530367Y-92616439D01*
X139530797Y-92615186D01*
X139529351Y-92576667D01*
X139529293Y-92573564D01*
X139529194Y-92572497D01*
X139529016Y-92567753D01*
X139529139Y-92565342D01*
X139529000Y-92557948D01*
X139529000Y-92547410D01*
X139528064Y-92542384D01*
X139526877Y-92510765D01*
X139518578Y-92491447D01*
X139517767Y-92487094D01*
X139517767Y-92487090D01*
X139516926Y-92482579D01*
X139514727Y-92470772D01*
X139498120Y-92443830D01*
X139485629Y-92414757D01*
X139481883Y-92410196D01*
X139470163Y-92398476D01*
X139459895Y-92381818D01*
X139460034Y-92381733D01*
X139458078Y-92378996D01*
X139444978Y-92357471D01*
X139445931Y-92356891D01*
X139404879Y-92296070D01*
X139361804Y-92160729D01*
X139355000Y-92078604D01*
X139355000Y-90540910D01*
X139375213Y-90400325D01*
X139434214Y-90271130D01*
X139527224Y-90163791D01*
X139646708Y-90087004D01*
X139782985Y-90046989D01*
X139925015Y-90046989D01*
X140061292Y-90087004D01*
X140180776Y-90163791D01*
X140207770Y-90188990D01*
X140297242Y-90278933D01*
X140297251Y-90278941D01*
X140302862Y-90284582D01*
X140305069Y-90286322D01*
X140307460Y-90288578D01*
X141485662Y-91467142D01*
X141488294Y-91469796D01*
X141596910Y-91580131D01*
X141608659Y-91589494D01*
X141608662Y-91589496D01*
X141658524Y-91629230D01*
X141678574Y-91646086D01*
X141714975Y-91678357D01*
X141737523Y-91698347D01*
X141749887Y-91706895D01*
X141782042Y-91729126D01*
X141809229Y-91749320D01*
X141851560Y-91783052D01*
X141864356Y-91790939D01*
X141864361Y-91790943D01*
X141918620Y-91824389D01*
X141940559Y-91838720D01*
X142005356Y-91883519D01*
X142018645Y-91890513D01*
X142018653Y-91890518D01*
X142053249Y-91908726D01*
X142082688Y-91925521D01*
X142115951Y-91946025D01*
X142115960Y-91946030D01*
X142128744Y-91953910D01*
X142142388Y-91960200D01*
X142200282Y-91986890D01*
X142223759Y-91998469D01*
X142230655Y-92002098D01*
X142236856Y-92005362D01*
X142357339Y-92094126D01*
X143752894Y-93489915D01*
X143781876Y-93518902D01*
X143866982Y-93632610D01*
X143916605Y-93765690D01*
X143928000Y-93871719D01*
X143928000Y-95932580D01*
X143907787Y-96073165D01*
X143849062Y-96201755D01*
X143886534Y-96262416D01*
X143924110Y-96399386D01*
X143928000Y-96461574D01*
X143928000Y-96555111D01*
X143907787Y-96695696D01*
X143848786Y-96824891D01*
X143755776Y-96932230D01*
X143696108Y-96975257D01*
X143696473Y-96975803D01*
X143676534Y-96989126D01*
X143635445Y-97026034D01*
X143633533Y-97028896D01*
X143609696Y-97078718D01*
X143609025Y-97082091D01*
X143606068Y-97137245D01*
X143606740Y-97140624D01*
X143625112Y-97192703D01*
X143627026Y-97195566D01*
X143663934Y-97236655D01*
X143696473Y-97258397D01*
X143694507Y-97261340D01*
X143762466Y-97306752D01*
X143853542Y-97415737D01*
X143910224Y-97545966D01*
X143928000Y-97677968D01*
X143928000Y-97767580D01*
X143907787Y-97908165D01*
X143849062Y-98036755D01*
X143886534Y-98097416D01*
X143924110Y-98234386D01*
X143928000Y-98296574D01*
X143928000Y-98390111D01*
X143907787Y-98530696D01*
X143848786Y-98659891D01*
X143755776Y-98767230D01*
X143696108Y-98810257D01*
X143696473Y-98810803D01*
X143676534Y-98824126D01*
X143635445Y-98861034D01*
X143633533Y-98863896D01*
X143609696Y-98913718D01*
X143609025Y-98917091D01*
X143606068Y-98972245D01*
X143606740Y-98975624D01*
X143625112Y-99027703D01*
X143627026Y-99030566D01*
X143663934Y-99071655D01*
X143696473Y-99093397D01*
X143694507Y-99096340D01*
X143762466Y-99141752D01*
X143853542Y-99250737D01*
X143910224Y-99380966D01*
X143928000Y-99512968D01*
X143928000Y-99602580D01*
X143907787Y-99743165D01*
X143849062Y-99871755D01*
X143886534Y-99932416D01*
X143924110Y-100069386D01*
X143928000Y-100131574D01*
X143928000Y-104827087D01*
X143907787Y-104967672D01*
X143848786Y-105096867D01*
X143755776Y-105204206D01*
X143636292Y-105280993D01*
X143500015Y-105321008D01*
X143429000Y-105326087D01*
X143405526Y-105326087D01*
X143373100Y-105321818D01*
X143340674Y-105326087D01*
X143248763Y-105338187D01*
X143248762Y-105338187D01*
X143216338Y-105342456D01*
X143186126Y-105354970D01*
X143186123Y-105354971D01*
X143100477Y-105390447D01*
X143100475Y-105390448D01*
X143070259Y-105402964D01*
X142944818Y-105499218D01*
X142848564Y-105624659D01*
X142836048Y-105654875D01*
X142836047Y-105654877D01*
X142801105Y-105739236D01*
X142788056Y-105770738D01*
X142767418Y-105927500D01*
X142788056Y-106084262D01*
X142800570Y-106114474D01*
X142800571Y-106114477D01*
X142833976Y-106195123D01*
X142848564Y-106230341D01*
X142944818Y-106355782D01*
X142956399Y-106364668D01*
X143031562Y-106465074D01*
X143081196Y-106598149D01*
X143092600Y-106704219D01*
X143092600Y-108290721D01*
X143072387Y-108431306D01*
X143013386Y-108560501D01*
X142946446Y-108643567D01*
X142925246Y-108664767D01*
X142811545Y-108749883D01*
X142678470Y-108799517D01*
X142536802Y-108809650D01*
X142398017Y-108779459D01*
X142273360Y-108711391D01*
X142172930Y-108610961D01*
X142104862Y-108486304D01*
X142074671Y-108347519D01*
X142073400Y-108311921D01*
X142073400Y-107134573D01*
X142074713Y-107120641D01*
X142074767Y-107106539D01*
X142075197Y-107105286D01*
X142073751Y-107066767D01*
X142073693Y-107063664D01*
X142073594Y-107062597D01*
X142073416Y-107057853D01*
X142073539Y-107055442D01*
X142073400Y-107048048D01*
X142073400Y-107037510D01*
X142072464Y-107032484D01*
X142071277Y-107000865D01*
X142062978Y-106981547D01*
X142062167Y-106977194D01*
X142062167Y-106977190D01*
X142061326Y-106972679D01*
X142059127Y-106960872D01*
X142042520Y-106933931D01*
X142030029Y-106904856D01*
X142026282Y-106900296D01*
X142014565Y-106888579D01*
X142004295Y-106871918D01*
X141989104Y-106860366D01*
X141984030Y-106855552D01*
X141983262Y-106854632D01*
X141953807Y-106827820D01*
X139512131Y-104386144D01*
X139503211Y-104375367D01*
X139493274Y-104365355D01*
X139492691Y-104364162D01*
X139487422Y-104359275D01*
X139465883Y-104330272D01*
X139452427Y-104314017D01*
X139448543Y-104308309D01*
X139449226Y-104307845D01*
X139403283Y-104245985D01*
X139354153Y-104112723D01*
X139344557Y-103971018D01*
X139347413Y-103943398D01*
X139359182Y-103854000D01*
X139338544Y-103697238D01*
X139324332Y-103662926D01*
X139290553Y-103581377D01*
X139290552Y-103581375D01*
X139278036Y-103551159D01*
X139243510Y-103506163D01*
X139201691Y-103451664D01*
X139181782Y-103425718D01*
X139170201Y-103416832D01*
X139095038Y-103316426D01*
X139045404Y-103183351D01*
X139034000Y-103077281D01*
X139034000Y-102329676D01*
X139035314Y-102315731D01*
X139035368Y-102301639D01*
X139035798Y-102300386D01*
X139034351Y-102261850D01*
X139034294Y-102258792D01*
X139034197Y-102257738D01*
X139034018Y-102252976D01*
X139034140Y-102250572D01*
X139034000Y-102243127D01*
X139034000Y-102232610D01*
X139033064Y-102227586D01*
X139031877Y-102195965D01*
X139023578Y-102176647D01*
X139019727Y-102155972D01*
X139003120Y-102129030D01*
X138990629Y-102099957D01*
X138986883Y-102095396D01*
X138975163Y-102083676D01*
X138970985Y-102076897D01*
X138970025Y-102075340D01*
X138964895Y-102067018D01*
X138949714Y-102055474D01*
X138944623Y-102050644D01*
X138943860Y-102049730D01*
X138914409Y-102022922D01*
X137744867Y-100853380D01*
X137659751Y-100739679D01*
X137610117Y-100606604D01*
X137600748Y-100519466D01*
X137602982Y-100502500D01*
X137582344Y-100345738D01*
X137521836Y-100199659D01*
X137425582Y-100074218D01*
X137397080Y-100052347D01*
X137326090Y-99997875D01*
X137326088Y-99997874D01*
X137300141Y-99977964D01*
X137269925Y-99965448D01*
X137269923Y-99965447D01*
X137184277Y-99929971D01*
X137184274Y-99929970D01*
X137154062Y-99917456D01*
X137121638Y-99913187D01*
X137121637Y-99913187D01*
X137029726Y-99901087D01*
X136997300Y-99896818D01*
X136964874Y-99901087D01*
X136872963Y-99913187D01*
X136872962Y-99913187D01*
X136840538Y-99917456D01*
X136810326Y-99929970D01*
X136810323Y-99929971D01*
X136724677Y-99965447D01*
X136724675Y-99965448D01*
X136694459Y-99977964D01*
X136668512Y-99997874D01*
X136668510Y-99997875D01*
X136597520Y-100052347D01*
X136569018Y-100074218D01*
X136472764Y-100199659D01*
X136412256Y-100345738D01*
X136391618Y-100502500D01*
X136412256Y-100659262D01*
X136472764Y-100805341D01*
X136492674Y-100831288D01*
X136492675Y-100831290D01*
X136547147Y-100902280D01*
X136569018Y-100930782D01*
X136694459Y-101027036D01*
X136724675Y-101039552D01*
X136724677Y-101039553D01*
X136810323Y-101075029D01*
X136810326Y-101075030D01*
X136840538Y-101087544D01*
X136872962Y-101091813D01*
X136872963Y-101091813D01*
X136943226Y-101101063D01*
X136997300Y-101108182D01*
X137011773Y-101106277D01*
X137135919Y-101124126D01*
X137265114Y-101183127D01*
X137348180Y-101250067D01*
X138326846Y-102228733D01*
X138411962Y-102342434D01*
X138461596Y-102475509D01*
X138473000Y-102581579D01*
X138473000Y-103077281D01*
X138452787Y-103217866D01*
X138393786Y-103347061D01*
X138338794Y-103415301D01*
X138325218Y-103425718D01*
X138305309Y-103451664D01*
X138263491Y-103506163D01*
X138228964Y-103551159D01*
X138168456Y-103697238D01*
X138168202Y-103699167D01*
X138123400Y-103803792D01*
X138032971Y-103913315D01*
X137915349Y-103992925D01*
X137780064Y-104036172D01*
X137638074Y-104039553D01*
X137500883Y-104002794D01*
X137379605Y-103928873D01*
X137284066Y-103823778D01*
X137222006Y-103696024D01*
X137202580Y-103609215D01*
X137189013Y-103506163D01*
X137189013Y-103506162D01*
X137184744Y-103473738D01*
X137164854Y-103425718D01*
X137136753Y-103357877D01*
X137136752Y-103357875D01*
X137124236Y-103327659D01*
X137027982Y-103202218D01*
X136902541Y-103105964D01*
X136872325Y-103093448D01*
X136872323Y-103093447D01*
X136786677Y-103057971D01*
X136786674Y-103057970D01*
X136756462Y-103045456D01*
X136724038Y-103041187D01*
X136724037Y-103041187D01*
X136632126Y-103029087D01*
X136599700Y-103024818D01*
X136567274Y-103029087D01*
X136475363Y-103041187D01*
X136475362Y-103041187D01*
X136442938Y-103045456D01*
X136412726Y-103057970D01*
X136412723Y-103057971D01*
X136327077Y-103093447D01*
X136327075Y-103093448D01*
X136296859Y-103105964D01*
X136171418Y-103202218D01*
X136075164Y-103327659D01*
X136062648Y-103357875D01*
X136062647Y-103357877D01*
X136034547Y-103425718D01*
X136014656Y-103473738D01*
X136010387Y-103506162D01*
X136010387Y-103506163D01*
X136004463Y-103551159D01*
X135994018Y-103630500D01*
X136014656Y-103787262D01*
X136027170Y-103817474D01*
X136027171Y-103817477D01*
X136055729Y-103886422D01*
X136075164Y-103933341D01*
X136171418Y-104058782D01*
X136296859Y-104155036D01*
X136327075Y-104167552D01*
X136327077Y-104167553D01*
X136412723Y-104203029D01*
X136412726Y-104203030D01*
X136442938Y-104215544D01*
X136475362Y-104219813D01*
X136475363Y-104219813D01*
X136545626Y-104229063D01*
X136599700Y-104236182D01*
X136614173Y-104234277D01*
X136738319Y-104252126D01*
X136867514Y-104311127D01*
X136950580Y-104378067D01*
X137254969Y-104682456D01*
X137263895Y-104693239D01*
X137273826Y-104703246D01*
X137274409Y-104704438D01*
X137281968Y-104711450D01*
X137281971Y-104711453D01*
X137302667Y-104730651D01*
X137304883Y-104732786D01*
X137305701Y-104733466D01*
X137309181Y-104736693D01*
X137310791Y-104738476D01*
X137316153Y-104743640D01*
X137323605Y-104751092D01*
X137327819Y-104753982D01*
X137351018Y-104775503D01*
X137370549Y-104783295D01*
X137387889Y-104795190D01*
X137418678Y-104802497D01*
X137448073Y-104814224D01*
X137453947Y-104814800D01*
X137466245Y-104814800D01*
X137590171Y-104864509D01*
X137701755Y-104952382D01*
X137784063Y-105068132D01*
X137830426Y-105202382D01*
X137835110Y-105231349D01*
X137853556Y-105371462D01*
X137866070Y-105401674D01*
X137866071Y-105401677D01*
X137901547Y-105487323D01*
X137914064Y-105517541D01*
X138010318Y-105642982D01*
X138135759Y-105739236D01*
X138165975Y-105751752D01*
X138165977Y-105751753D01*
X138281838Y-105799744D01*
X138280280Y-105803506D01*
X138357164Y-105836424D01*
X138466693Y-105926846D01*
X138546309Y-106044463D01*
X138559458Y-106079717D01*
X138560556Y-106079262D01*
X138575143Y-106114477D01*
X138621064Y-106225341D01*
X138717318Y-106350782D01*
X138728840Y-106359623D01*
X138803962Y-106459974D01*
X138853596Y-106593049D01*
X138865000Y-106699119D01*
X138865000Y-108955321D01*
X138844787Y-109095906D01*
X138785786Y-109225101D01*
X138718846Y-109308167D01*
X137693480Y-110333533D01*
X137579779Y-110418649D01*
X137446704Y-110468283D01*
X137359566Y-110477652D01*
X137342600Y-110475418D01*
X137310174Y-110479687D01*
X137218263Y-110491787D01*
X137218262Y-110491787D01*
X137185838Y-110496056D01*
X137155626Y-110508570D01*
X137155623Y-110508571D01*
X137069977Y-110544047D01*
X137069975Y-110544048D01*
X137039759Y-110556564D01*
X136914318Y-110652818D01*
X136894409Y-110678764D01*
X136846229Y-110741554D01*
X136818064Y-110778259D01*
X136805548Y-110808475D01*
X136805547Y-110808477D01*
X136773342Y-110886228D01*
X136757556Y-110924338D01*
X136736918Y-111081100D01*
X136757556Y-111237862D01*
X136818064Y-111383941D01*
X136914318Y-111509382D01*
X137039759Y-111605636D01*
X137069975Y-111618152D01*
X137069977Y-111618153D01*
X137155623Y-111653629D01*
X137155626Y-111653630D01*
X137185838Y-111666144D01*
X137218262Y-111670413D01*
X137218263Y-111670413D01*
X137310174Y-111682513D01*
X137342600Y-111686782D01*
X137375026Y-111682513D01*
X137466937Y-111670413D01*
X137466938Y-111670413D01*
X137499362Y-111666144D01*
X137529574Y-111653630D01*
X137529577Y-111653629D01*
X137615223Y-111618153D01*
X137615225Y-111618152D01*
X137645441Y-111605636D01*
X137770882Y-111509382D01*
X137867136Y-111383941D01*
X137927644Y-111237862D01*
X137948282Y-111081100D01*
X137946377Y-111066627D01*
X137964226Y-110942481D01*
X138023227Y-110813286D01*
X138090167Y-110730220D01*
X139081954Y-109738433D01*
X139195655Y-109653317D01*
X139328730Y-109603683D01*
X139470398Y-109593550D01*
X139609183Y-109623741D01*
X139733840Y-109691809D01*
X139834270Y-109792239D01*
X139902338Y-109916896D01*
X139932529Y-110055681D01*
X139933800Y-110091279D01*
X139933800Y-110712524D01*
X139932486Y-110726469D01*
X139932432Y-110740561D01*
X139932002Y-110741814D01*
X139932388Y-110752095D01*
X139932388Y-110752103D01*
X139933449Y-110780349D01*
X139933506Y-110783408D01*
X139933603Y-110784462D01*
X139933782Y-110789224D01*
X139933660Y-110791628D01*
X139933800Y-110799073D01*
X139933800Y-110809590D01*
X139934736Y-110814614D01*
X139935923Y-110846235D01*
X139944222Y-110865553D01*
X139948073Y-110886228D01*
X139959997Y-110905572D01*
X139959997Y-110905573D01*
X139960770Y-110906826D01*
X139964680Y-110913170D01*
X139977171Y-110942243D01*
X139980917Y-110946804D01*
X139992637Y-110958524D01*
X139996815Y-110965303D01*
X139997775Y-110966860D01*
X140002905Y-110975182D01*
X140018086Y-110986726D01*
X140023177Y-110991556D01*
X140023940Y-110992470D01*
X140053391Y-111019278D01*
X140342533Y-111308420D01*
X140427649Y-111422121D01*
X140477283Y-111555196D01*
X140486652Y-111642334D01*
X140484418Y-111659300D01*
X140505056Y-111816062D01*
X140517570Y-111846274D01*
X140517571Y-111846277D01*
X140553047Y-111931923D01*
X140565564Y-111962141D01*
X140585474Y-111988088D01*
X140585475Y-111988090D01*
X140625548Y-112040314D01*
X140661818Y-112087582D01*
X140674254Y-112097124D01*
X140750010Y-112198322D01*
X140799644Y-112331397D01*
X140809777Y-112473065D01*
X140779586Y-112611850D01*
X140711518Y-112736507D01*
X140664903Y-112790304D01*
X140530360Y-112924853D01*
X140530352Y-112924860D01*
X135050513Y-118405007D01*
X134888951Y-118587309D01*
X134703827Y-118855176D01*
X134696829Y-118868478D01*
X134573532Y-119102844D01*
X134552225Y-119143344D01*
X134436341Y-119447637D01*
X134432717Y-119462227D01*
X134432716Y-119462231D01*
X134418269Y-119520400D01*
X134357853Y-119763648D01*
X134356009Y-119778561D01*
X134356008Y-119778567D01*
X134319741Y-120071891D01*
X134317898Y-120086800D01*
X134317054Y-120412412D01*
X134318822Y-120427345D01*
X134318822Y-120427347D01*
X134334512Y-120559874D01*
X134355335Y-120735766D01*
X134432186Y-121052180D01*
X134437460Y-121066247D01*
X134519627Y-121285411D01*
X134546492Y-121357069D01*
X134553416Y-121370398D01*
X134553419Y-121370404D01*
X134689667Y-121632675D01*
X134696599Y-121646018D01*
X134705082Y-121658429D01*
X134705084Y-121658433D01*
X134813965Y-121817738D01*
X134880333Y-121914841D01*
X135095030Y-122159643D01*
X135337584Y-122376879D01*
X135349897Y-122385484D01*
X135585715Y-122550290D01*
X135604478Y-122563403D01*
X135617750Y-122570474D01*
X135617753Y-122570476D01*
X135729133Y-122629818D01*
X135891848Y-122716511D01*
X135918898Y-122726975D01*
X136181518Y-122828568D01*
X136181524Y-122828570D01*
X136195530Y-122833988D01*
X136346797Y-122872400D01*
X136496562Y-122910432D01*
X136496568Y-122910433D01*
X136511126Y-122914130D01*
X136526025Y-122916051D01*
X136526028Y-122916052D01*
X136819160Y-122953855D01*
X136819163Y-122953855D01*
X136834065Y-122955777D01*
X136849088Y-122955895D01*
X136849095Y-122955895D01*
X137144648Y-122958207D01*
X137144656Y-122958207D01*
X137159667Y-122958324D01*
X137483218Y-122921737D01*
X137800029Y-122846545D01*
X137834064Y-122833988D01*
X138091405Y-122739041D01*
X138105513Y-122733836D01*
X138118884Y-122726978D01*
X138118892Y-122726975D01*
X138381868Y-122592104D01*
X138381867Y-122592104D01*
X138395244Y-122585244D01*
X138665026Y-122402921D01*
X138859748Y-122233940D01*
X138924013Y-122169672D01*
X143730458Y-117362957D01*
X143844156Y-117277838D01*
X143977230Y-117228200D01*
X144118898Y-117218063D01*
X144257684Y-117248250D01*
X144382342Y-117316315D01*
X144436160Y-117362947D01*
X145991569Y-118918356D01*
X146000495Y-118929139D01*
X146010426Y-118939146D01*
X146011009Y-118940338D01*
X146018568Y-118947350D01*
X146018571Y-118947353D01*
X146039267Y-118966551D01*
X146041495Y-118968697D01*
X146042314Y-118969377D01*
X146045815Y-118972625D01*
X146047431Y-118974414D01*
X146052753Y-118979540D01*
X146060205Y-118986992D01*
X146064419Y-118989883D01*
X146087618Y-119011403D01*
X146107147Y-119019194D01*
X146124489Y-119031091D01*
X146148085Y-119036690D01*
X146151163Y-119037421D01*
X146151169Y-119037422D01*
X146155282Y-119038398D01*
X146184673Y-119050124D01*
X146190547Y-119050700D01*
X146207122Y-119050700D01*
X146216938Y-119053029D01*
X146218288Y-119053350D01*
X146218289Y-119053350D01*
X146226161Y-119055218D01*
X146245065Y-119052645D01*
X146252069Y-119052461D01*
X146253268Y-119052569D01*
X146293026Y-119050700D01*
X147599221Y-119050700D01*
X147739806Y-119070913D01*
X147869001Y-119129914D01*
X147952067Y-119196854D01*
X148101569Y-119346356D01*
X148110495Y-119357139D01*
X148120426Y-119367146D01*
X148121009Y-119368338D01*
X148128568Y-119375350D01*
X148128571Y-119375353D01*
X148149267Y-119394551D01*
X148151495Y-119396697D01*
X148152314Y-119397377D01*
X148155815Y-119400625D01*
X148157431Y-119402414D01*
X148162753Y-119407540D01*
X148170205Y-119414992D01*
X148174419Y-119417883D01*
X148197618Y-119439403D01*
X148217148Y-119447195D01*
X148234488Y-119459090D01*
X148265279Y-119466397D01*
X148294673Y-119478124D01*
X148300547Y-119478700D01*
X148317123Y-119478700D01*
X148326249Y-119480866D01*
X148328292Y-119481351D01*
X148328294Y-119481351D01*
X148336161Y-119483218D01*
X148355054Y-119480647D01*
X148362077Y-119480462D01*
X148363261Y-119480569D01*
X148403026Y-119478700D01*
X149642821Y-119478700D01*
X149783406Y-119498913D01*
X149912601Y-119557914D01*
X149995667Y-119624854D01*
X150039369Y-119668556D01*
X150048295Y-119679339D01*
X150058226Y-119689346D01*
X150058809Y-119690538D01*
X150066368Y-119697550D01*
X150066371Y-119697553D01*
X150087067Y-119716751D01*
X150089295Y-119718897D01*
X150090114Y-119719577D01*
X150093615Y-119722825D01*
X150095231Y-119724614D01*
X150100553Y-119729740D01*
X150108005Y-119737192D01*
X150112219Y-119740083D01*
X150135418Y-119761603D01*
X150154947Y-119769394D01*
X150172289Y-119781291D01*
X150194389Y-119786536D01*
X150194390Y-119786536D01*
X150198141Y-119787426D01*
X150203084Y-119788599D01*
X150232473Y-119800324D01*
X150238347Y-119800900D01*
X150254919Y-119800900D01*
X150273961Y-119805419D01*
X150292857Y-119802847D01*
X150299871Y-119802663D01*
X150301055Y-119802770D01*
X150340838Y-119800900D01*
X151735321Y-119800900D01*
X151875906Y-119821113D01*
X152005101Y-119880114D01*
X152112440Y-119973124D01*
X152189227Y-120092608D01*
X152229242Y-120228885D01*
X152229242Y-120370915D01*
X152189227Y-120507192D01*
X152112440Y-120626676D01*
X152088167Y-120652746D01*
X149671780Y-123069133D01*
X149558079Y-123154249D01*
X149425004Y-123203883D01*
X149337866Y-123213252D01*
X149320900Y-123211018D01*
X149288474Y-123215287D01*
X149196563Y-123227387D01*
X149196562Y-123227387D01*
X149164138Y-123231656D01*
X149133926Y-123244170D01*
X149133923Y-123244171D01*
X149048277Y-123279647D01*
X149048275Y-123279648D01*
X149018059Y-123292164D01*
X148892618Y-123388418D01*
X148872709Y-123414364D01*
X148833226Y-123465820D01*
X148796364Y-123513859D01*
X148735856Y-123659938D01*
X148715218Y-123816700D01*
X148735856Y-123973462D01*
X148748370Y-124003674D01*
X148748371Y-124003677D01*
X148783847Y-124089323D01*
X148796364Y-124119541D01*
X148892618Y-124244982D01*
X148918564Y-124264891D01*
X148980791Y-124312639D01*
X149018059Y-124341236D01*
X149048275Y-124353752D01*
X149048277Y-124353753D01*
X149133921Y-124389228D01*
X149133923Y-124389229D01*
X149164138Y-124401744D01*
X149174544Y-124403114D01*
X149286381Y-124451006D01*
X149395903Y-124541436D01*
X149475512Y-124659058D01*
X149518757Y-124794345D01*
X149522137Y-124936335D01*
X149487681Y-125068052D01*
X149460556Y-125133538D01*
X149439918Y-125290300D01*
X149460556Y-125447062D01*
X149521064Y-125593141D01*
X149617318Y-125718582D01*
X149742759Y-125814836D01*
X149772975Y-125827352D01*
X149772977Y-125827353D01*
X149858623Y-125862829D01*
X149858626Y-125862830D01*
X149888838Y-125875344D01*
X149921262Y-125879613D01*
X149921263Y-125879613D01*
X150013174Y-125891713D01*
X150045600Y-125895982D01*
X150078026Y-125891713D01*
X150169937Y-125879613D01*
X150169938Y-125879613D01*
X150202362Y-125875344D01*
X150232574Y-125862830D01*
X150232577Y-125862829D01*
X150318223Y-125827353D01*
X150318225Y-125827352D01*
X150348441Y-125814836D01*
X150473882Y-125718582D01*
X150570136Y-125593141D01*
X150585109Y-125556993D01*
X150657584Y-125434846D01*
X150693278Y-125395109D01*
X153366320Y-122722067D01*
X153480021Y-122636951D01*
X153613096Y-122587317D01*
X153700234Y-122577948D01*
X153717200Y-122580182D01*
X153749626Y-122575913D01*
X153841537Y-122563813D01*
X153841538Y-122563813D01*
X153873962Y-122559544D01*
X153904174Y-122547030D01*
X153904177Y-122547029D01*
X153989823Y-122511553D01*
X153989825Y-122511552D01*
X154020041Y-122499036D01*
X154145482Y-122402782D01*
X154241736Y-122277341D01*
X154254253Y-122247123D01*
X154289729Y-122161477D01*
X154289730Y-122161474D01*
X154302244Y-122131262D01*
X154322882Y-121974500D01*
X154302244Y-121817738D01*
X154292195Y-121793477D01*
X154276035Y-121658325D01*
X154299588Y-121518261D01*
X154361647Y-121390506D01*
X154457185Y-121285411D01*
X154578462Y-121211488D01*
X154645746Y-121188201D01*
X154670331Y-121181614D01*
X154702762Y-121177344D01*
X154732981Y-121164827D01*
X154818623Y-121129353D01*
X154818625Y-121129352D01*
X154848841Y-121116836D01*
X154974282Y-121020582D01*
X155070536Y-120895141D01*
X155131044Y-120749062D01*
X155151682Y-120592300D01*
X155131044Y-120435538D01*
X155123477Y-120417271D01*
X155108024Y-120288025D01*
X155131577Y-120147961D01*
X155193637Y-120020207D01*
X155289175Y-119915111D01*
X155410452Y-119841189D01*
X155547642Y-119804429D01*
X155606883Y-119800900D01*
X155640981Y-119800900D01*
X155781566Y-119821113D01*
X155910761Y-119880114D01*
X155979001Y-119935106D01*
X155989418Y-119948682D01*
X156114859Y-120044936D01*
X156145075Y-120057452D01*
X156145077Y-120057453D01*
X156230723Y-120092929D01*
X156230726Y-120092930D01*
X156260938Y-120105444D01*
X156293362Y-120109713D01*
X156293363Y-120109713D01*
X156385274Y-120121813D01*
X156417700Y-120126082D01*
X156450126Y-120121813D01*
X156450130Y-120121813D01*
X156491870Y-120116318D01*
X156633890Y-120118009D01*
X156769681Y-120159643D01*
X156888242Y-120237847D01*
X156979967Y-120346286D01*
X157037427Y-120476174D01*
X157056000Y-120611049D01*
X157056000Y-129310327D01*
X157035787Y-129450912D01*
X156978684Y-129575950D01*
X157032305Y-129686333D01*
X157056000Y-129838273D01*
X157056000Y-130773877D01*
X157053123Y-130773877D01*
X157053453Y-130784953D01*
X157050857Y-130796242D01*
X157054234Y-130811166D01*
X157054359Y-130815360D01*
X157051135Y-130854008D01*
X157051538Y-130864671D01*
X157042740Y-130998911D01*
X157034220Y-131063627D01*
X157001048Y-131230394D01*
X156984154Y-131293442D01*
X156929495Y-131454462D01*
X156904521Y-131514755D01*
X156829308Y-131667275D01*
X156796679Y-131723789D01*
X156702199Y-131865188D01*
X156662477Y-131916954D01*
X156550350Y-132044810D01*
X156504210Y-132090950D01*
X156376354Y-132203077D01*
X156324588Y-132242799D01*
X156183189Y-132337279D01*
X156126675Y-132369908D01*
X155974155Y-132445121D01*
X155913862Y-132470095D01*
X155752842Y-132524754D01*
X155689794Y-132541648D01*
X155523027Y-132574820D01*
X155458312Y-132583340D01*
X155293593Y-132594136D01*
X155266979Y-132593899D01*
X155256358Y-132591457D01*
X155246374Y-132593716D01*
X155238477Y-132593646D01*
X155196662Y-132596600D01*
X154602911Y-132596600D01*
X154462326Y-132576387D01*
X154333131Y-132517386D01*
X154225792Y-132424376D01*
X154149005Y-132304892D01*
X154108990Y-132168615D01*
X154108990Y-132026585D01*
X154119412Y-131974193D01*
X154120543Y-131969761D01*
X154095376Y-131966600D01*
X153029098Y-131966600D01*
X152998487Y-131971001D01*
X152998487Y-131976125D01*
X153014863Y-132106507D01*
X152992144Y-132246709D01*
X152930846Y-132374830D01*
X152835935Y-132480492D01*
X152715100Y-132555134D01*
X152578130Y-132592710D01*
X152515943Y-132596600D01*
X145962911Y-132596600D01*
X145822326Y-132576387D01*
X145693131Y-132517386D01*
X145585792Y-132424376D01*
X145509005Y-132304892D01*
X145468990Y-132168615D01*
X145468990Y-132026585D01*
X145479412Y-131974193D01*
X145480543Y-131969761D01*
X145455376Y-131966600D01*
X144389098Y-131966600D01*
X144358487Y-131971001D01*
X144358487Y-131976125D01*
X144374863Y-132106507D01*
X144352144Y-132246709D01*
X144290846Y-132374830D01*
X144195935Y-132480492D01*
X144075100Y-132555134D01*
X143938130Y-132592710D01*
X143875943Y-132596600D01*
X138434690Y-132596600D01*
X138294105Y-132576387D01*
X138164910Y-132517386D01*
X138057571Y-132424376D01*
X137980784Y-132304892D01*
X137940769Y-132168615D01*
X137940769Y-132026585D01*
X137980784Y-131890308D01*
X138012671Y-131831328D01*
X138056765Y-131761443D01*
X138056769Y-131761435D01*
X138068971Y-131742096D01*
X138148959Y-131541605D01*
X138191070Y-131329895D01*
X138193896Y-131114055D01*
X138174111Y-130998912D01*
X138168015Y-130963439D01*
X144359457Y-130963439D01*
X144384457Y-130966579D01*
X144416046Y-130962037D01*
X144420000Y-130948570D01*
X144420000Y-130930910D01*
X145420000Y-130930910D01*
X145424563Y-130962646D01*
X145438030Y-130966600D01*
X145450902Y-130966600D01*
X145481357Y-130962221D01*
X145474645Y-130937758D01*
X145456614Y-130894227D01*
X145431773Y-130851200D01*
X145422106Y-130841760D01*
X145421449Y-130843587D01*
X145420000Y-130857862D01*
X145420000Y-130930910D01*
X144420000Y-130930910D01*
X144420000Y-130868295D01*
X144416097Y-130841151D01*
X144414463Y-130842201D01*
X144411775Y-130845054D01*
X144383386Y-130894227D01*
X144367066Y-130933625D01*
X144359457Y-130963439D01*
X138168015Y-130963439D01*
X138161214Y-130923861D01*
X138157340Y-130901315D01*
X138146376Y-130871595D01*
X138090548Y-130720265D01*
X138090546Y-130720261D01*
X138082628Y-130698798D01*
X138019651Y-130592943D01*
X137983956Y-130532945D01*
X137983954Y-130532943D01*
X137972261Y-130513288D01*
X137829936Y-130350998D01*
X137743409Y-130282785D01*
X137678383Y-130231522D01*
X137678378Y-130231519D01*
X137660419Y-130217361D01*
X137469387Y-130116855D01*
X137447541Y-130110072D01*
X137447537Y-130110070D01*
X137349067Y-130079495D01*
X137263238Y-130052844D01*
X137087978Y-130032100D01*
X136963236Y-130032100D01*
X136803047Y-130046819D01*
X136781033Y-130053028D01*
X136781031Y-130053028D01*
X136689209Y-130078925D01*
X136595294Y-130105412D01*
X136574775Y-130115531D01*
X136574772Y-130115532D01*
X136444081Y-130179982D01*
X136401696Y-130200884D01*
X136383365Y-130214572D01*
X136383364Y-130214573D01*
X136360667Y-130231522D01*
X136228739Y-130330037D01*
X136082214Y-130488546D01*
X135967029Y-130671104D01*
X135887041Y-130871595D01*
X135876645Y-130923861D01*
X135861717Y-130998912D01*
X135844930Y-131083305D01*
X135842104Y-131299145D01*
X135845979Y-131321694D01*
X135845979Y-131321698D01*
X135847388Y-131329895D01*
X135878660Y-131511885D01*
X135886576Y-131533343D01*
X135886577Y-131533346D01*
X135897463Y-131562852D01*
X135953372Y-131714402D01*
X136016708Y-131820860D01*
X136029561Y-131842464D01*
X136084069Y-131973618D01*
X136099420Y-132114817D01*
X136074368Y-132254620D01*
X136010945Y-132381703D01*
X135914286Y-132485769D01*
X135792225Y-132558388D01*
X135654648Y-132593677D01*
X135600717Y-132596600D01*
X132578723Y-132596600D01*
X132578723Y-132593723D01*
X132567647Y-132594053D01*
X132556358Y-132591457D01*
X132541434Y-132594834D01*
X132537240Y-132594959D01*
X132498592Y-132591735D01*
X132487929Y-132592138D01*
X132353689Y-132583340D01*
X132288973Y-132574820D01*
X132122206Y-132541648D01*
X132059158Y-132524754D01*
X131898138Y-132470095D01*
X131837845Y-132445121D01*
X131685325Y-132369908D01*
X131628811Y-132337279D01*
X131487412Y-132242799D01*
X131435646Y-132203077D01*
X131307790Y-132090950D01*
X131261650Y-132044810D01*
X131149523Y-131916954D01*
X131109801Y-131865188D01*
X131015321Y-131723789D01*
X130982692Y-131667275D01*
X130907479Y-131514755D01*
X130882505Y-131454462D01*
X130827846Y-131293442D01*
X130810952Y-131230394D01*
X130777780Y-131063627D01*
X130769260Y-130998912D01*
X130758464Y-130834193D01*
X130758701Y-130807579D01*
X130761143Y-130796958D01*
X130758884Y-130786974D01*
X130758954Y-130779077D01*
X130756000Y-130737262D01*
X130756000Y-130080776D01*
X130776213Y-129940191D01*
X130835214Y-129810996D01*
X130928224Y-129703657D01*
X131047708Y-129626870D01*
X131183985Y-129586855D01*
X131326015Y-129586855D01*
X131462292Y-129626870D01*
X131581776Y-129703657D01*
X131609077Y-129729165D01*
X131643880Y-129764212D01*
X131661418Y-129778312D01*
X131664738Y-129779806D01*
X131668000Y-129768456D01*
X131668000Y-129751044D01*
X132668000Y-129751044D01*
X132671903Y-129778188D01*
X132685937Y-129769169D01*
X132771947Y-129684941D01*
X132806990Y-129641975D01*
X132873990Y-129538011D01*
X132898647Y-129488340D01*
X132940947Y-129372122D01*
X132953986Y-129318223D01*
X132966035Y-129222848D01*
X132968000Y-129191613D01*
X132968000Y-129187786D01*
X141068000Y-129187786D01*
X141069554Y-129215587D01*
X141079834Y-129307235D01*
X141092118Y-129361304D01*
X141132795Y-129478111D01*
X141156753Y-129528115D01*
X141222295Y-129633004D01*
X141256736Y-129676458D01*
X141343879Y-129764212D01*
X141361418Y-129778312D01*
X141364738Y-129779806D01*
X141368000Y-129768456D01*
X141368000Y-129751044D01*
X142368000Y-129751044D01*
X142371903Y-129778188D01*
X142385937Y-129769169D01*
X142471947Y-129684941D01*
X142506990Y-129641975D01*
X142573990Y-129538011D01*
X142598647Y-129488340D01*
X142640947Y-129372122D01*
X142653986Y-129318223D01*
X142666035Y-129222848D01*
X142668000Y-129191613D01*
X142668000Y-128992290D01*
X142663437Y-128960554D01*
X142649970Y-128956600D01*
X142403690Y-128956600D01*
X142371954Y-128961163D01*
X142368000Y-128974630D01*
X142368000Y-129751044D01*
X141368000Y-129751044D01*
X141368000Y-128992290D01*
X141363437Y-128960554D01*
X141349970Y-128956600D01*
X141103690Y-128956600D01*
X141071954Y-128961163D01*
X141068000Y-128974630D01*
X141068000Y-129187786D01*
X132968000Y-129187786D01*
X132968000Y-128992290D01*
X132963437Y-128960554D01*
X132949970Y-128956600D01*
X132703690Y-128956600D01*
X132671954Y-128961163D01*
X132668000Y-128974630D01*
X132668000Y-129751044D01*
X131668000Y-129751044D01*
X131668000Y-128005726D01*
X135213541Y-128005726D01*
X135217321Y-128030719D01*
X135217321Y-128030722D01*
X135227114Y-128095476D01*
X135243935Y-128206697D01*
X135314119Y-128397452D01*
X135421226Y-128570199D01*
X135560881Y-128717880D01*
X135581588Y-128732379D01*
X135581589Y-128732380D01*
X135653021Y-128782397D01*
X135727379Y-128834463D01*
X135913919Y-128915186D01*
X135938663Y-128920355D01*
X135938662Y-128920355D01*
X136094115Y-128952831D01*
X136094118Y-128952831D01*
X136112880Y-128956751D01*
X136119539Y-128957100D01*
X137868800Y-128957100D01*
X137881349Y-128955825D01*
X137881356Y-128955825D01*
X137936297Y-128950244D01*
X138020216Y-128941720D01*
X138214172Y-128880938D01*
X138300580Y-128833041D01*
X138369842Y-128794649D01*
X138369846Y-128794646D01*
X138391944Y-128782397D01*
X138450300Y-128732380D01*
X138527079Y-128666573D01*
X138527082Y-128666570D01*
X138546271Y-128650123D01*
X138670848Y-128489519D01*
X138760587Y-128307145D01*
X138811822Y-128110452D01*
X138817982Y-127992915D01*
X138819001Y-127973451D01*
X138821755Y-127920910D01*
X141068000Y-127920910D01*
X141072563Y-127952646D01*
X141086030Y-127956600D01*
X141332310Y-127956600D01*
X141364046Y-127952037D01*
X141368000Y-127938570D01*
X141368000Y-127920910D01*
X142368000Y-127920910D01*
X142372563Y-127952646D01*
X142386030Y-127956600D01*
X142632310Y-127956600D01*
X142664046Y-127952037D01*
X142668000Y-127938570D01*
X142668000Y-127809582D01*
X144320000Y-127809582D01*
X144322133Y-127842124D01*
X144331175Y-127910802D01*
X144347962Y-127973451D01*
X144383386Y-128058973D01*
X144408227Y-128102000D01*
X144417894Y-128111440D01*
X144418551Y-128109613D01*
X144420000Y-128095338D01*
X144420000Y-128084905D01*
X145420000Y-128084905D01*
X145424193Y-128114070D01*
X145426147Y-128113496D01*
X145566732Y-128093283D01*
X145707316Y-128113496D01*
X145836512Y-128172497D01*
X145908323Y-128228529D01*
X145957121Y-128274354D01*
X145957128Y-128274359D01*
X145980010Y-128295847D01*
X146023486Y-128319748D01*
X146090766Y-128356736D01*
X146090769Y-128356737D01*
X146118279Y-128371861D01*
X146271107Y-128411100D01*
X146389294Y-128411100D01*
X146404847Y-128409135D01*
X146404850Y-128409135D01*
X146475393Y-128400223D01*
X146506541Y-128396288D01*
X146535726Y-128384733D01*
X146535730Y-128384732D01*
X146624054Y-128349762D01*
X146624053Y-128349762D01*
X146653247Y-128338204D01*
X146678648Y-128319749D01*
X146678650Y-128319748D01*
X146717072Y-128291832D01*
X146780898Y-128245460D01*
X146881474Y-128123884D01*
X146895874Y-128093283D01*
X146899149Y-128086324D01*
X146960258Y-127993584D01*
X147742288Y-127993584D01*
X147806902Y-128096696D01*
X147834071Y-128193386D01*
X147835722Y-128192944D01*
X147844187Y-128224538D01*
X147848456Y-128256962D01*
X147860970Y-128287174D01*
X147860971Y-128287177D01*
X147896049Y-128371861D01*
X147908964Y-128403041D01*
X148005218Y-128528482D01*
X148031164Y-128548391D01*
X148083515Y-128588561D01*
X148130659Y-128624736D01*
X148160875Y-128637252D01*
X148160877Y-128637253D01*
X148246523Y-128672729D01*
X148246526Y-128672730D01*
X148276738Y-128685244D01*
X148309162Y-128689513D01*
X148309163Y-128689513D01*
X148401074Y-128701613D01*
X148433500Y-128705882D01*
X148465926Y-128701613D01*
X148557837Y-128689513D01*
X148557838Y-128689513D01*
X148590262Y-128685244D01*
X148620474Y-128672730D01*
X148620477Y-128672729D01*
X148706123Y-128637253D01*
X148706125Y-128637252D01*
X148736341Y-128624736D01*
X148783486Y-128588561D01*
X148835836Y-128548391D01*
X148861782Y-128528482D01*
X148870668Y-128516901D01*
X148971074Y-128441738D01*
X149104149Y-128392104D01*
X149210219Y-128380700D01*
X150164887Y-128380700D01*
X150305472Y-128400913D01*
X150434667Y-128459914D01*
X150542006Y-128552924D01*
X150618793Y-128672408D01*
X150658808Y-128808685D01*
X150662315Y-128857716D01*
X150659618Y-128878200D01*
X150663887Y-128910626D01*
X150669940Y-128956600D01*
X150680256Y-129034962D01*
X150692770Y-129065174D01*
X150692771Y-129065177D01*
X150718010Y-129126109D01*
X150740764Y-129181041D01*
X150760674Y-129206988D01*
X150760675Y-129206990D01*
X150790233Y-129245510D01*
X150837018Y-129306482D01*
X150862964Y-129326391D01*
X150908464Y-129361304D01*
X150962459Y-129402736D01*
X150992675Y-129415252D01*
X150992677Y-129415253D01*
X151078323Y-129450729D01*
X151078326Y-129450730D01*
X151108538Y-129463244D01*
X151140962Y-129467513D01*
X151140963Y-129467513D01*
X151211226Y-129476763D01*
X151265300Y-129483882D01*
X151279773Y-129481977D01*
X151403919Y-129499826D01*
X151533114Y-129558827D01*
X151616180Y-129625767D01*
X151712869Y-129722456D01*
X151721795Y-129733239D01*
X151731726Y-129743246D01*
X151732309Y-129744438D01*
X151739868Y-129751450D01*
X151739871Y-129751453D01*
X151760567Y-129770651D01*
X151762795Y-129772797D01*
X151763614Y-129773477D01*
X151767115Y-129776725D01*
X151768731Y-129778514D01*
X151774053Y-129783640D01*
X151781505Y-129791092D01*
X151785719Y-129793983D01*
X151808918Y-129815503D01*
X151828447Y-129823294D01*
X151845789Y-129835191D01*
X151869385Y-129840790D01*
X151872463Y-129841521D01*
X151872469Y-129841522D01*
X151876582Y-129842498D01*
X151905973Y-129854224D01*
X151911847Y-129854800D01*
X151928422Y-129854800D01*
X151938238Y-129857129D01*
X151939588Y-129857450D01*
X151939589Y-129857450D01*
X151947461Y-129859318D01*
X151966365Y-129856745D01*
X151973369Y-129856561D01*
X151974568Y-129856669D01*
X152014326Y-129854800D01*
X152817295Y-129854800D01*
X152957880Y-129875013D01*
X153087075Y-129934014D01*
X153194414Y-130027024D01*
X153271201Y-130146508D01*
X153311216Y-130282785D01*
X153311216Y-130424815D01*
X153271201Y-130561092D01*
X153194414Y-130680576D01*
X153170141Y-130706646D01*
X153112166Y-130764621D01*
X153055812Y-130838063D01*
X153023384Y-130894231D01*
X153007066Y-130933625D01*
X152999457Y-130963439D01*
X153024624Y-130966600D01*
X154090902Y-130966600D01*
X154121357Y-130962221D01*
X154114645Y-130937758D01*
X154096616Y-130894231D01*
X154064188Y-130838063D01*
X154007833Y-130764620D01*
X153949858Y-130706644D01*
X153864743Y-130592943D01*
X153815109Y-130459867D01*
X153804978Y-130318199D01*
X153835169Y-130179414D01*
X153903238Y-130054758D01*
X154003669Y-129954328D01*
X154128326Y-129886261D01*
X154267111Y-129856071D01*
X154302706Y-129854800D01*
X154711781Y-129854800D01*
X154852366Y-129875013D01*
X154981561Y-129934014D01*
X155049801Y-129989006D01*
X155060218Y-130002582D01*
X155086164Y-130022491D01*
X155134561Y-130059627D01*
X155185659Y-130098836D01*
X155215875Y-130111352D01*
X155215877Y-130111353D01*
X155301523Y-130146829D01*
X155301526Y-130146830D01*
X155331738Y-130159344D01*
X155364162Y-130163613D01*
X155364163Y-130163613D01*
X155456074Y-130175713D01*
X155488500Y-130179982D01*
X155520926Y-130175713D01*
X155612837Y-130163613D01*
X155612838Y-130163613D01*
X155645262Y-130159344D01*
X155675474Y-130146830D01*
X155675477Y-130146829D01*
X155761123Y-130111353D01*
X155761125Y-130111352D01*
X155791341Y-130098836D01*
X155842440Y-130059627D01*
X155890836Y-130022491D01*
X155916782Y-130002582D01*
X155938653Y-129974080D01*
X155993125Y-129903090D01*
X155993126Y-129903088D01*
X156013036Y-129877141D01*
X156027791Y-129841521D01*
X156048168Y-129792325D01*
X156073544Y-129731062D01*
X156077067Y-129704304D01*
X156130913Y-129578561D01*
X156134570Y-129574131D01*
X156077038Y-129444077D01*
X156073544Y-129417538D01*
X156013036Y-129271459D01*
X155916782Y-129146018D01*
X155791341Y-129049764D01*
X155761125Y-129037248D01*
X155761123Y-129037247D01*
X155675477Y-129001771D01*
X155675474Y-129001770D01*
X155645262Y-128989256D01*
X155612838Y-128984987D01*
X155612837Y-128984987D01*
X155520926Y-128972887D01*
X155488500Y-128968618D01*
X155456074Y-128972887D01*
X155364163Y-128984987D01*
X155364162Y-128984987D01*
X155331738Y-128989256D01*
X155309869Y-128998315D01*
X155177069Y-129014193D01*
X155037005Y-128990639D01*
X154909251Y-128928580D01*
X154804155Y-128833041D01*
X154730234Y-128711764D01*
X154693474Y-128574574D01*
X154696854Y-128432584D01*
X154740101Y-128297298D01*
X154819710Y-128179676D01*
X154836099Y-128162488D01*
X155005672Y-127992915D01*
X155119373Y-127907799D01*
X155252448Y-127858165D01*
X155293384Y-127851030D01*
X155331609Y-127845998D01*
X155366437Y-127841413D01*
X155366438Y-127841413D01*
X155398862Y-127837144D01*
X155429074Y-127824630D01*
X155429077Y-127824629D01*
X155514723Y-127789153D01*
X155514725Y-127789152D01*
X155544941Y-127776636D01*
X155575282Y-127753355D01*
X155644436Y-127700291D01*
X155670382Y-127680382D01*
X155735457Y-127595575D01*
X155746725Y-127580890D01*
X155746726Y-127580888D01*
X155766636Y-127554941D01*
X155779153Y-127524723D01*
X155814629Y-127439077D01*
X155814630Y-127439074D01*
X155827144Y-127408862D01*
X155847782Y-127252100D01*
X155833978Y-127147249D01*
X155831413Y-127127763D01*
X155831413Y-127127762D01*
X155827144Y-127095338D01*
X155806094Y-127044517D01*
X155779153Y-126979477D01*
X155779152Y-126979475D01*
X155766636Y-126949259D01*
X155670382Y-126823818D01*
X155641880Y-126801947D01*
X155570890Y-126747475D01*
X155570887Y-126747473D01*
X155544941Y-126727564D01*
X155514725Y-126715048D01*
X155514723Y-126715047D01*
X155429077Y-126679571D01*
X155429074Y-126679570D01*
X155398862Y-126667056D01*
X155366438Y-126662787D01*
X155366437Y-126662787D01*
X155274526Y-126650687D01*
X155242100Y-126646418D01*
X155209674Y-126650687D01*
X155117763Y-126662787D01*
X155117762Y-126662787D01*
X155085338Y-126667056D01*
X155055126Y-126679570D01*
X155055123Y-126679571D01*
X154969477Y-126715047D01*
X154969475Y-126715048D01*
X154939259Y-126727564D01*
X154882821Y-126770870D01*
X154758987Y-126840414D01*
X154620571Y-126872255D01*
X154478792Y-126863809D01*
X154345136Y-126815762D01*
X154230430Y-126732006D01*
X154143967Y-126619326D01*
X154118036Y-126565944D01*
X154096613Y-126514225D01*
X154071773Y-126471200D01*
X154062106Y-126461760D01*
X154061449Y-126463587D01*
X154060000Y-126477862D01*
X154060000Y-127287600D01*
X154039787Y-127428185D01*
X153980786Y-127557380D01*
X153887776Y-127664719D01*
X153768292Y-127741506D01*
X153632015Y-127781521D01*
X153561000Y-127786600D01*
X153559000Y-127786600D01*
X153418415Y-127766387D01*
X153289220Y-127707386D01*
X153181881Y-127614376D01*
X153105094Y-127494892D01*
X153065079Y-127358615D01*
X153060000Y-127287600D01*
X153060000Y-126488295D01*
X153056097Y-126461151D01*
X153054463Y-126462201D01*
X153051775Y-126465054D01*
X153023386Y-126514227D01*
X152987962Y-126599749D01*
X152971175Y-126662398D01*
X152962133Y-126731078D01*
X152961229Y-126744867D01*
X152931865Y-126883829D01*
X152864541Y-127008889D01*
X152764711Y-127109916D01*
X152640461Y-127178725D01*
X152501859Y-127209742D01*
X152360133Y-127200453D01*
X152339227Y-127195564D01*
X152208893Y-127162100D01*
X152090706Y-127162100D01*
X152075153Y-127164065D01*
X152075150Y-127164065D01*
X152028908Y-127169907D01*
X151973459Y-127176912D01*
X151944274Y-127188467D01*
X151944270Y-127188468D01*
X151911762Y-127201339D01*
X151826753Y-127234996D01*
X151801352Y-127253451D01*
X151801350Y-127253452D01*
X151789270Y-127262229D01*
X151699102Y-127327740D01*
X151598526Y-127449316D01*
X151585161Y-127477718D01*
X151585156Y-127477726D01*
X151559069Y-127533164D01*
X151480922Y-127651763D01*
X151372527Y-127743540D01*
X151242666Y-127801062D01*
X151107561Y-127819700D01*
X149210219Y-127819700D01*
X149069634Y-127799487D01*
X148940439Y-127740486D01*
X148872199Y-127685494D01*
X148861782Y-127671918D01*
X148833280Y-127650047D01*
X148762290Y-127595575D01*
X148762288Y-127595574D01*
X148736341Y-127575664D01*
X148706125Y-127563148D01*
X148706123Y-127563147D01*
X148620477Y-127527671D01*
X148620474Y-127527670D01*
X148590262Y-127515156D01*
X148557838Y-127510887D01*
X148557837Y-127510887D01*
X148465926Y-127498787D01*
X148433500Y-127494518D01*
X148401074Y-127498787D01*
X148309163Y-127510887D01*
X148309162Y-127510887D01*
X148276738Y-127515156D01*
X148246526Y-127527670D01*
X148246523Y-127527671D01*
X148160877Y-127563147D01*
X148160875Y-127563148D01*
X148130659Y-127575664D01*
X148104712Y-127595574D01*
X148104710Y-127595575D01*
X148033720Y-127650047D01*
X148005218Y-127671918D01*
X147985309Y-127697864D01*
X147932730Y-127766387D01*
X147908964Y-127797359D01*
X147896448Y-127827576D01*
X147889478Y-127839648D01*
X147801680Y-127951291D01*
X147742288Y-127993584D01*
X146960258Y-127993584D01*
X146977296Y-127967726D01*
X147064493Y-127893897D01*
X147050857Y-127879596D01*
X146985776Y-127753355D01*
X146969902Y-127693884D01*
X146968314Y-127668650D01*
X146955923Y-127630514D01*
X146929258Y-127548446D01*
X146929257Y-127548444D01*
X146919556Y-127518587D01*
X146835010Y-127385365D01*
X146719990Y-127277353D01*
X146631687Y-127228808D01*
X146609234Y-127216464D01*
X146609231Y-127216463D01*
X146581721Y-127201339D01*
X146428893Y-127162100D01*
X146310706Y-127162100D01*
X146295153Y-127164065D01*
X146295150Y-127164065D01*
X146261059Y-127168372D01*
X146193459Y-127176912D01*
X146164267Y-127188470D01*
X146140729Y-127194513D01*
X145999534Y-127209896D01*
X145859725Y-127184877D01*
X145732627Y-127121482D01*
X145628539Y-127024849D01*
X145555891Y-126902804D01*
X145520571Y-126765236D01*
X145518704Y-126743830D01*
X145517869Y-126731089D01*
X145508825Y-126662398D01*
X145492038Y-126599749D01*
X145456614Y-126514227D01*
X145431773Y-126471200D01*
X145422106Y-126461760D01*
X145421449Y-126463587D01*
X145420000Y-126477862D01*
X145420000Y-128084905D01*
X144420000Y-128084905D01*
X144420000Y-127822290D01*
X144415437Y-127790554D01*
X144401970Y-127786600D01*
X144355690Y-127786600D01*
X144323954Y-127791163D01*
X144320000Y-127804630D01*
X144320000Y-127809582D01*
X142668000Y-127809582D01*
X142668000Y-127725414D01*
X142666446Y-127697613D01*
X142656166Y-127605965D01*
X142643882Y-127551896D01*
X142603205Y-127435089D01*
X142579247Y-127385085D01*
X142513705Y-127280196D01*
X142479264Y-127236742D01*
X142392121Y-127148988D01*
X142374582Y-127134888D01*
X142371262Y-127133394D01*
X142368000Y-127144744D01*
X142368000Y-127920910D01*
X141368000Y-127920910D01*
X141368000Y-127162156D01*
X141364097Y-127135012D01*
X141350063Y-127144031D01*
X141264053Y-127228259D01*
X141229010Y-127271225D01*
X141162010Y-127375189D01*
X141137353Y-127424860D01*
X141095053Y-127541078D01*
X141082014Y-127594977D01*
X141069965Y-127690352D01*
X141068000Y-127721587D01*
X141068000Y-127920910D01*
X138821755Y-127920910D01*
X138822459Y-127907474D01*
X138809185Y-127819700D01*
X138795845Y-127731498D01*
X138792065Y-127706503D01*
X138782455Y-127680382D01*
X138755074Y-127605965D01*
X138721881Y-127515748D01*
X138614774Y-127343001D01*
X138498150Y-127219674D01*
X138492486Y-127213685D01*
X138475119Y-127195320D01*
X138438826Y-127169907D01*
X138329325Y-127093234D01*
X138329324Y-127093234D01*
X138308621Y-127078737D01*
X138122081Y-126998014D01*
X138033349Y-126979477D01*
X137941885Y-126960369D01*
X137941882Y-126960369D01*
X137923120Y-126956449D01*
X137916461Y-126956100D01*
X136167200Y-126956100D01*
X136154651Y-126957375D01*
X136154644Y-126957375D01*
X136099703Y-126962956D01*
X136015784Y-126971480D01*
X135821828Y-127032262D01*
X135762545Y-127065123D01*
X135666158Y-127118551D01*
X135666154Y-127118554D01*
X135644056Y-127130803D01*
X135624868Y-127147249D01*
X135508921Y-127246627D01*
X135508918Y-127246630D01*
X135489729Y-127263077D01*
X135365152Y-127423681D01*
X135275413Y-127606055D01*
X135224178Y-127802748D01*
X135222855Y-127827987D01*
X135222855Y-127827989D01*
X135221911Y-127845998D01*
X135213541Y-128005726D01*
X131668000Y-128005726D01*
X131668000Y-127920910D01*
X132668000Y-127920910D01*
X132672563Y-127952646D01*
X132686030Y-127956600D01*
X132932310Y-127956600D01*
X132964046Y-127952037D01*
X132968000Y-127938570D01*
X132968000Y-127725414D01*
X132966446Y-127697613D01*
X132956166Y-127605965D01*
X132943882Y-127551896D01*
X132903205Y-127435089D01*
X132879247Y-127385085D01*
X132813705Y-127280196D01*
X132779264Y-127236742D01*
X132692121Y-127148988D01*
X132674582Y-127134888D01*
X132671262Y-127133394D01*
X132668000Y-127144744D01*
X132668000Y-127920910D01*
X131668000Y-127920910D01*
X131668000Y-127162156D01*
X131664097Y-127135012D01*
X131650063Y-127144031D01*
X131604134Y-127189009D01*
X131489549Y-127272930D01*
X131355961Y-127321169D01*
X131214195Y-127329818D01*
X131075734Y-127298176D01*
X130951796Y-127228808D01*
X130852422Y-127127332D01*
X130785663Y-127001969D01*
X130756926Y-126862876D01*
X130756000Y-126832489D01*
X130756000Y-126754889D01*
X144320572Y-126754889D01*
X144324563Y-126782646D01*
X144338030Y-126786600D01*
X144384310Y-126786600D01*
X144416046Y-126782037D01*
X144420000Y-126768570D01*
X144420000Y-126488295D01*
X144416097Y-126461151D01*
X144414463Y-126462201D01*
X144411775Y-126465054D01*
X144383386Y-126514227D01*
X144347962Y-126599749D01*
X144331175Y-126662398D01*
X144322133Y-126731076D01*
X144320572Y-126754889D01*
X130756000Y-126754889D01*
X130756000Y-125380776D01*
X130776213Y-125240191D01*
X130835214Y-125110996D01*
X130928224Y-125003657D01*
X131047708Y-124926870D01*
X131183985Y-124886855D01*
X131326015Y-124886855D01*
X131462292Y-124926870D01*
X131581776Y-125003657D01*
X131609077Y-125029165D01*
X131643880Y-125064212D01*
X131661418Y-125078312D01*
X131664738Y-125079806D01*
X131668000Y-125068456D01*
X131668000Y-125051044D01*
X132668000Y-125051044D01*
X132671903Y-125078188D01*
X132685937Y-125069169D01*
X132771947Y-124984941D01*
X132806990Y-124941975D01*
X132873990Y-124838011D01*
X132898647Y-124788340D01*
X132940947Y-124672122D01*
X132953986Y-124618223D01*
X132966035Y-124522848D01*
X132968000Y-124491613D01*
X132968000Y-124487786D01*
X141068000Y-124487786D01*
X141069554Y-124515587D01*
X141079834Y-124607235D01*
X141092118Y-124661304D01*
X141132795Y-124778111D01*
X141156753Y-124828115D01*
X141222295Y-124933004D01*
X141256736Y-124976458D01*
X141343879Y-125064212D01*
X141361418Y-125078312D01*
X141364738Y-125079806D01*
X141368000Y-125068456D01*
X141368000Y-125051044D01*
X142368000Y-125051044D01*
X142371903Y-125078188D01*
X142385937Y-125069169D01*
X142471947Y-124984941D01*
X142506990Y-124941975D01*
X142573990Y-124838011D01*
X142598647Y-124788340D01*
X142640947Y-124672122D01*
X142653986Y-124618223D01*
X142666035Y-124522848D01*
X142668000Y-124491613D01*
X142668000Y-124292290D01*
X142663437Y-124260554D01*
X142649970Y-124256600D01*
X142403690Y-124256600D01*
X142371954Y-124261163D01*
X142368000Y-124274630D01*
X142368000Y-125051044D01*
X141368000Y-125051044D01*
X141368000Y-124292290D01*
X141363437Y-124260554D01*
X141349970Y-124256600D01*
X141103690Y-124256600D01*
X141071954Y-124261163D01*
X141068000Y-124274630D01*
X141068000Y-124487786D01*
X132968000Y-124487786D01*
X132968000Y-124292290D01*
X132963437Y-124260554D01*
X132949970Y-124256600D01*
X132703690Y-124256600D01*
X132671954Y-124261163D01*
X132668000Y-124274630D01*
X132668000Y-125051044D01*
X131668000Y-125051044D01*
X131668000Y-123220910D01*
X132668000Y-123220910D01*
X132672563Y-123252646D01*
X132686030Y-123256600D01*
X132932310Y-123256600D01*
X132964046Y-123252037D01*
X132968000Y-123238570D01*
X132968000Y-123220910D01*
X141068000Y-123220910D01*
X141072563Y-123252646D01*
X141086030Y-123256600D01*
X141332310Y-123256600D01*
X141364046Y-123252037D01*
X141368000Y-123238570D01*
X141368000Y-123220910D01*
X142368000Y-123220910D01*
X142372563Y-123252646D01*
X142386030Y-123256600D01*
X142632310Y-123256600D01*
X142664046Y-123252037D01*
X142668000Y-123238570D01*
X142668000Y-123025414D01*
X142666446Y-122997613D01*
X142656166Y-122905965D01*
X142643882Y-122851896D01*
X142603205Y-122735089D01*
X142579247Y-122685085D01*
X142513705Y-122580196D01*
X142479264Y-122536742D01*
X142392121Y-122448988D01*
X142374582Y-122434888D01*
X142371262Y-122433394D01*
X142368000Y-122444744D01*
X142368000Y-123220910D01*
X141368000Y-123220910D01*
X141368000Y-122462156D01*
X141364097Y-122435012D01*
X141350063Y-122444031D01*
X141264053Y-122528259D01*
X141229010Y-122571225D01*
X141162010Y-122675189D01*
X141137353Y-122724860D01*
X141095053Y-122841078D01*
X141082014Y-122894977D01*
X141069965Y-122990352D01*
X141068000Y-123021587D01*
X141068000Y-123220910D01*
X132968000Y-123220910D01*
X132968000Y-123025414D01*
X132966446Y-122997613D01*
X132956166Y-122905965D01*
X132943882Y-122851896D01*
X132903205Y-122735089D01*
X132879247Y-122685085D01*
X132813705Y-122580196D01*
X132779264Y-122536742D01*
X132692121Y-122448988D01*
X132674582Y-122434888D01*
X132671262Y-122433394D01*
X132668000Y-122444744D01*
X132668000Y-123220910D01*
X131668000Y-123220910D01*
X131668000Y-122462156D01*
X131664097Y-122435012D01*
X131650063Y-122444031D01*
X131604134Y-122489009D01*
X131489549Y-122572930D01*
X131355961Y-122621169D01*
X131214195Y-122629818D01*
X131075734Y-122598176D01*
X130951796Y-122528808D01*
X130852422Y-122427332D01*
X130785663Y-122301969D01*
X130756926Y-122162876D01*
X130756000Y-122132489D01*
X130756000Y-99889745D01*
X140853568Y-99889745D01*
X140854240Y-99893124D01*
X140872612Y-99945203D01*
X140874526Y-99948066D01*
X140911434Y-99989155D01*
X140914296Y-99991067D01*
X140964118Y-100014904D01*
X140967491Y-100015575D01*
X141022645Y-100018532D01*
X141026024Y-100017860D01*
X141078103Y-99999488D01*
X141080966Y-99997574D01*
X141122055Y-99960666D01*
X141123967Y-99957804D01*
X141147804Y-99907982D01*
X141148475Y-99904609D01*
X141149272Y-99889745D01*
X142688568Y-99889745D01*
X142689240Y-99893124D01*
X142707612Y-99945203D01*
X142709526Y-99948066D01*
X142746434Y-99989155D01*
X142749296Y-99991067D01*
X142799118Y-100014904D01*
X142802491Y-100015575D01*
X142857645Y-100018532D01*
X142861024Y-100017860D01*
X142913103Y-99999488D01*
X142915966Y-99997574D01*
X142957055Y-99960666D01*
X142958967Y-99957805D01*
X142978866Y-99916213D01*
X143008772Y-99871456D01*
X142985117Y-99823127D01*
X142971366Y-99799952D01*
X142965474Y-99791134D01*
X142928566Y-99750045D01*
X142925704Y-99748133D01*
X142875882Y-99724296D01*
X142872509Y-99723625D01*
X142817355Y-99720668D01*
X142813976Y-99721340D01*
X142761897Y-99739712D01*
X142759034Y-99741626D01*
X142717945Y-99778534D01*
X142716033Y-99781396D01*
X142692196Y-99831218D01*
X142691525Y-99834591D01*
X142688568Y-99889745D01*
X141149272Y-99889745D01*
X141151432Y-99849455D01*
X141150760Y-99846076D01*
X141132388Y-99793997D01*
X141130474Y-99791134D01*
X141093566Y-99750045D01*
X141090704Y-99748133D01*
X141040882Y-99724296D01*
X141037509Y-99723625D01*
X140982355Y-99720668D01*
X140978976Y-99721340D01*
X140926897Y-99739712D01*
X140924034Y-99741626D01*
X140882945Y-99778534D01*
X140881033Y-99781396D01*
X140857196Y-99831218D01*
X140856525Y-99834591D01*
X140853568Y-99889745D01*
X130756000Y-99889745D01*
X130756000Y-98972245D01*
X139936068Y-98972245D01*
X139936740Y-98975624D01*
X139955112Y-99027703D01*
X139957026Y-99030566D01*
X139993934Y-99071655D01*
X139996796Y-99073567D01*
X140046618Y-99097404D01*
X140049991Y-99098075D01*
X140105145Y-99101032D01*
X140108524Y-99100360D01*
X140160603Y-99081988D01*
X140163466Y-99080074D01*
X140204555Y-99043166D01*
X140206467Y-99040304D01*
X140230304Y-98990482D01*
X140230975Y-98987109D01*
X140231772Y-98972245D01*
X141771068Y-98972245D01*
X141771740Y-98975624D01*
X141790112Y-99027703D01*
X141792026Y-99030566D01*
X141828934Y-99071655D01*
X141831796Y-99073567D01*
X141881618Y-99097404D01*
X141884991Y-99098075D01*
X141940145Y-99101032D01*
X141943524Y-99100360D01*
X141995603Y-99081988D01*
X141998466Y-99080074D01*
X142039555Y-99043166D01*
X142041467Y-99040304D01*
X142065304Y-98990482D01*
X142065975Y-98987109D01*
X142068932Y-98931955D01*
X142068260Y-98928576D01*
X142049888Y-98876497D01*
X142047974Y-98873634D01*
X142011066Y-98832545D01*
X142008204Y-98830633D01*
X141958382Y-98806796D01*
X141955009Y-98806125D01*
X141899855Y-98803168D01*
X141896476Y-98803840D01*
X141844397Y-98822212D01*
X141841534Y-98824126D01*
X141800445Y-98861034D01*
X141798533Y-98863896D01*
X141774696Y-98913718D01*
X141774025Y-98917091D01*
X141771068Y-98972245D01*
X140231772Y-98972245D01*
X140233932Y-98931955D01*
X140233260Y-98928576D01*
X140214888Y-98876497D01*
X140212974Y-98873634D01*
X140176066Y-98832545D01*
X140173204Y-98830633D01*
X140123382Y-98806796D01*
X140120009Y-98806125D01*
X140064855Y-98803168D01*
X140061476Y-98803840D01*
X140009397Y-98822212D01*
X140006534Y-98824126D01*
X139965445Y-98861034D01*
X139963533Y-98863896D01*
X139939696Y-98913718D01*
X139939025Y-98917091D01*
X139936068Y-98972245D01*
X130756000Y-98972245D01*
X130756000Y-98054745D01*
X140853568Y-98054745D01*
X140854240Y-98058124D01*
X140872612Y-98110203D01*
X140874526Y-98113066D01*
X140911434Y-98154155D01*
X140914296Y-98156067D01*
X140964118Y-98179904D01*
X140967491Y-98180575D01*
X141022645Y-98183532D01*
X141026024Y-98182860D01*
X141078103Y-98164488D01*
X141080966Y-98162574D01*
X141122055Y-98125666D01*
X141123967Y-98122804D01*
X141147804Y-98072982D01*
X141148475Y-98069609D01*
X141149272Y-98054745D01*
X142688568Y-98054745D01*
X142689240Y-98058124D01*
X142707612Y-98110203D01*
X142709526Y-98113066D01*
X142746434Y-98154155D01*
X142749296Y-98156067D01*
X142799118Y-98179904D01*
X142802491Y-98180575D01*
X142857645Y-98183532D01*
X142861024Y-98182860D01*
X142913103Y-98164488D01*
X142915966Y-98162574D01*
X142957055Y-98125666D01*
X142958967Y-98122805D01*
X142978866Y-98081213D01*
X143008772Y-98036456D01*
X142985117Y-97988127D01*
X142971366Y-97964952D01*
X142965474Y-97956134D01*
X142928566Y-97915045D01*
X142925704Y-97913133D01*
X142875882Y-97889296D01*
X142872509Y-97888625D01*
X142817355Y-97885668D01*
X142813976Y-97886340D01*
X142761897Y-97904712D01*
X142759034Y-97906626D01*
X142717945Y-97943534D01*
X142716033Y-97946396D01*
X142692196Y-97996218D01*
X142691525Y-97999591D01*
X142688568Y-98054745D01*
X141149272Y-98054745D01*
X141151432Y-98014455D01*
X141150760Y-98011076D01*
X141132388Y-97958997D01*
X141130474Y-97956134D01*
X141093566Y-97915045D01*
X141090704Y-97913133D01*
X141040882Y-97889296D01*
X141037509Y-97888625D01*
X140982355Y-97885668D01*
X140978976Y-97886340D01*
X140926897Y-97904712D01*
X140924034Y-97906626D01*
X140882945Y-97943534D01*
X140881033Y-97946396D01*
X140857196Y-97996218D01*
X140856525Y-97999591D01*
X140853568Y-98054745D01*
X130756000Y-98054745D01*
X130756000Y-97137245D01*
X139936068Y-97137245D01*
X139936740Y-97140624D01*
X139955112Y-97192703D01*
X139957026Y-97195566D01*
X139993934Y-97236655D01*
X139996796Y-97238567D01*
X140046618Y-97262404D01*
X140049991Y-97263075D01*
X140105145Y-97266032D01*
X140108524Y-97265360D01*
X140160603Y-97246988D01*
X140163466Y-97245074D01*
X140204555Y-97208166D01*
X140206467Y-97205304D01*
X140230304Y-97155482D01*
X140230975Y-97152109D01*
X140231772Y-97137245D01*
X141771068Y-97137245D01*
X141771740Y-97140624D01*
X141790112Y-97192703D01*
X141792026Y-97195566D01*
X141828934Y-97236655D01*
X141831796Y-97238567D01*
X141881618Y-97262404D01*
X141884991Y-97263075D01*
X141940145Y-97266032D01*
X141943524Y-97265360D01*
X141995603Y-97246988D01*
X141998466Y-97245074D01*
X142039555Y-97208166D01*
X142041467Y-97205304D01*
X142065304Y-97155482D01*
X142065975Y-97152109D01*
X142068932Y-97096955D01*
X142068260Y-97093576D01*
X142049888Y-97041497D01*
X142047974Y-97038634D01*
X142011066Y-96997545D01*
X142008204Y-96995633D01*
X141958382Y-96971796D01*
X141955009Y-96971125D01*
X141899855Y-96968168D01*
X141896476Y-96968840D01*
X141844397Y-96987212D01*
X141841534Y-96989126D01*
X141800445Y-97026034D01*
X141798533Y-97028896D01*
X141774696Y-97078718D01*
X141774025Y-97082091D01*
X141771068Y-97137245D01*
X140231772Y-97137245D01*
X140233932Y-97096955D01*
X140233260Y-97093576D01*
X140214888Y-97041497D01*
X140212974Y-97038634D01*
X140176066Y-96997545D01*
X140173204Y-96995633D01*
X140123382Y-96971796D01*
X140120009Y-96971125D01*
X140064855Y-96968168D01*
X140061476Y-96968840D01*
X140009397Y-96987212D01*
X140006534Y-96989126D01*
X139965445Y-97026034D01*
X139963533Y-97028896D01*
X139939696Y-97078718D01*
X139939025Y-97082091D01*
X139936068Y-97137245D01*
X130756000Y-97137245D01*
X130756000Y-72284965D01*
X134273408Y-72284965D01*
X134274183Y-72285740D01*
X134274527Y-72285939D01*
X134290551Y-72291148D01*
X134443090Y-72325664D01*
X134488256Y-72331610D01*
X134644548Y-72337751D01*
X134690048Y-72335366D01*
X134844839Y-72312923D01*
X134889148Y-72302285D01*
X134915206Y-72293440D01*
X134941477Y-72280094D01*
X134928087Y-72261052D01*
X134634830Y-71967795D01*
X134609161Y-71948579D01*
X134596843Y-71955306D01*
X134291943Y-72260206D01*
X134273408Y-72284965D01*
X130756000Y-72284965D01*
X130756000Y-71229359D01*
X133506754Y-71229359D01*
X133516984Y-71385442D01*
X133524110Y-71430434D01*
X133552468Y-71542090D01*
X133563712Y-71569326D01*
X133575706Y-71562229D01*
X133877247Y-71260688D01*
X133895818Y-71235881D01*
X135322721Y-71235881D01*
X135329448Y-71248199D01*
X135630872Y-71549623D01*
X135654461Y-71567282D01*
X135665619Y-71546848D01*
X135676427Y-71515006D01*
X135687065Y-71470697D01*
X135710681Y-71307822D01*
X135713176Y-71278565D01*
X135713920Y-71250145D01*
X135712960Y-71220815D01*
X135697899Y-71056907D01*
X135689597Y-71012116D01*
X135666383Y-70929804D01*
X135654430Y-70902872D01*
X135640592Y-70911557D01*
X135341937Y-71210212D01*
X135322721Y-71235881D01*
X133895818Y-71235881D01*
X133896463Y-71235019D01*
X133889736Y-71222701D01*
X133588325Y-70921290D01*
X133564736Y-70903631D01*
X133555458Y-70920623D01*
X133535806Y-70983912D01*
X133526330Y-71028492D01*
X133507947Y-71183812D01*
X133506754Y-71229359D01*
X130756000Y-71229359D01*
X130756000Y-70189942D01*
X134277278Y-70189942D01*
X134295138Y-70213889D01*
X134584354Y-70503105D01*
X134610023Y-70522321D01*
X134622341Y-70515594D01*
X134925529Y-70212406D01*
X134943694Y-70188141D01*
X134929703Y-70180295D01*
X134900908Y-70171766D01*
X134747510Y-70141253D01*
X134702183Y-70136489D01*
X134545798Y-70134442D01*
X134500363Y-70138017D01*
X134346217Y-70164505D01*
X134302748Y-70176152D01*
X134277278Y-70189942D01*
X130756000Y-70189942D01*
X130756000Y-68819323D01*
X130758877Y-68819323D01*
X130758547Y-68808247D01*
X130761143Y-68796958D01*
X130757766Y-68782034D01*
X130757641Y-68777840D01*
X130760865Y-68739192D01*
X130760462Y-68728529D01*
X130769260Y-68594289D01*
X130777780Y-68529573D01*
X130778287Y-68527027D01*
X130810952Y-68362806D01*
X130827846Y-68299758D01*
X130882505Y-68138738D01*
X130907479Y-68078445D01*
X130982692Y-67925925D01*
X131015324Y-67869406D01*
X131029314Y-67848469D01*
X131109801Y-67728012D01*
X131149523Y-67676246D01*
X131261650Y-67548390D01*
X131307790Y-67502250D01*
X131435646Y-67390123D01*
X131487412Y-67350401D01*
X131628811Y-67255921D01*
X131685325Y-67223292D01*
X131837845Y-67148079D01*
X131898138Y-67123105D01*
X132059158Y-67068446D01*
X132122206Y-67051552D01*
X132288973Y-67018380D01*
X132353688Y-67009860D01*
X132518407Y-66999064D01*
X132545021Y-66999301D01*
X132555642Y-67001743D01*
X132565626Y-66999484D01*
X132573523Y-66999554D01*
X132615338Y-66996600D01*
X144885688Y-66996600D01*
X145026273Y-67016813D01*
G37*
%TD.AperFunction*%
%TA.AperFunction,Conductor*%
G36*
X152886493Y-121060331D02*
G01*
X153011150Y-121128399D01*
X153111580Y-121228829D01*
X153179648Y-121353486D01*
X153209839Y-121492271D01*
X153199706Y-121633939D01*
X153173128Y-121718824D01*
X153132156Y-121817738D01*
X153111518Y-121974500D01*
X153113423Y-121988974D01*
X153095574Y-122113120D01*
X153036573Y-122242315D01*
X152969633Y-122325381D01*
X150708121Y-124586892D01*
X150594420Y-124672008D01*
X150461345Y-124721642D01*
X150319677Y-124731775D01*
X150229954Y-124716685D01*
X150202362Y-124705256D01*
X150191952Y-124703886D01*
X150080105Y-124655985D01*
X149970586Y-124565552D01*
X149890981Y-124447927D01*
X149847740Y-124312639D01*
X149844365Y-124170649D01*
X149878819Y-124038947D01*
X149893429Y-124003677D01*
X149893430Y-124003674D01*
X149905944Y-123973462D01*
X149926582Y-123816700D01*
X149924677Y-123802227D01*
X149942526Y-123678081D01*
X150001527Y-123548886D01*
X150068467Y-123465820D01*
X152359264Y-121175023D01*
X152472965Y-121089907D01*
X152606040Y-121040273D01*
X152747708Y-121030140D01*
X152886493Y-121060331D01*
G37*
%TD.AperFunction*%
%TD*%
M02*
