%TF.GenerationSoftware,KiCad,Pcbnew,(6.0.0-0)*%
%TF.CreationDate,2022-01-27T17:40:45+01:00*%
%TF.ProjectId,GlowCoreMini,476c6f77-436f-4726-954d-696e692e6b69,rev?*%
%TF.SameCoordinates,Original*%
%TF.FileFunction,Legend,Top*%
%TF.FilePolarity,Positive*%
%FSLAX46Y46*%
G04 Gerber Fmt 4.6, Leading zero omitted, Abs format (unit mm)*
G04 Created by KiCad (PCBNEW (6.0.0-0)) date 2022-01-27 17:40:45*
%MOMM*%
%LPD*%
G01*
G04 APERTURE LIST*
%ADD10C,0.150000*%
%ADD11C,0.250000*%
%ADD12C,0.120000*%
%ADD13C,0.100000*%
%ADD14C,0.200000*%
%ADD15C,0.127000*%
G04 APERTURE END LIST*
D10*
X108497619Y-96710523D02*
X108497619Y-96234333D01*
X108021428Y-96186714D01*
X108069047Y-96234333D01*
X108116666Y-96329571D01*
X108116666Y-96567666D01*
X108069047Y-96662904D01*
X108021428Y-96710523D01*
X107926190Y-96758142D01*
X107688095Y-96758142D01*
X107592857Y-96710523D01*
X107545238Y-96662904D01*
X107497619Y-96567666D01*
X107497619Y-96329571D01*
X107545238Y-96234333D01*
X107592857Y-96186714D01*
X108497619Y-97043857D02*
X107497619Y-97377190D01*
X108497619Y-97710523D01*
X108323000Y-106426095D02*
X108370619Y-106330857D01*
X108370619Y-106188000D01*
X108323000Y-106045142D01*
X108227761Y-105949904D01*
X108132523Y-105902285D01*
X107942047Y-105854666D01*
X107799190Y-105854666D01*
X107608714Y-105902285D01*
X107513476Y-105949904D01*
X107418238Y-106045142D01*
X107370619Y-106188000D01*
X107370619Y-106283238D01*
X107418238Y-106426095D01*
X107465857Y-106473714D01*
X107799190Y-106473714D01*
X107799190Y-106283238D01*
X107370619Y-106902285D02*
X108370619Y-106902285D01*
X107370619Y-107473714D01*
X108370619Y-107473714D01*
X107370619Y-107949904D02*
X108370619Y-107949904D01*
X108370619Y-108188000D01*
X108323000Y-108330857D01*
X108227761Y-108426095D01*
X108132523Y-108473714D01*
X107942047Y-108521333D01*
X107799190Y-108521333D01*
X107608714Y-108473714D01*
X107513476Y-108426095D01*
X107418238Y-108330857D01*
X107370619Y-108188000D01*
X107370619Y-107949904D01*
X107497619Y-100655619D02*
X108497619Y-100655619D01*
X108497619Y-100893714D01*
X108450000Y-101036571D01*
X108354761Y-101131809D01*
X108259523Y-101179428D01*
X108069047Y-101227047D01*
X107926190Y-101227047D01*
X107735714Y-101179428D01*
X107640476Y-101131809D01*
X107545238Y-101036571D01*
X107497619Y-100893714D01*
X107497619Y-100655619D01*
X107497619Y-102084190D02*
X108021428Y-102084190D01*
X108116666Y-102036571D01*
X108164285Y-101941333D01*
X108164285Y-101750857D01*
X108116666Y-101655619D01*
X107545238Y-102084190D02*
X107497619Y-101988952D01*
X107497619Y-101750857D01*
X107545238Y-101655619D01*
X107640476Y-101608000D01*
X107735714Y-101608000D01*
X107830952Y-101655619D01*
X107878571Y-101750857D01*
X107878571Y-101988952D01*
X107926190Y-102084190D01*
X108164285Y-102417523D02*
X108164285Y-102798476D01*
X108497619Y-102560380D02*
X107640476Y-102560380D01*
X107545238Y-102608000D01*
X107497619Y-102703238D01*
X107497619Y-102798476D01*
X107497619Y-103560380D02*
X108021428Y-103560380D01*
X108116666Y-103512761D01*
X108164285Y-103417523D01*
X108164285Y-103227047D01*
X108116666Y-103131809D01*
X107545238Y-103560380D02*
X107497619Y-103465142D01*
X107497619Y-103227047D01*
X107545238Y-103131809D01*
X107640476Y-103084190D01*
X107735714Y-103084190D01*
X107830952Y-103131809D01*
X107878571Y-103227047D01*
X107878571Y-103465142D01*
X107926190Y-103560380D01*
%TO.C,U1*%
X121767600Y-95598280D02*
X121767600Y-95836376D01*
X121529504Y-95741138D02*
X121767600Y-95836376D01*
X122005695Y-95741138D01*
X121624742Y-96026852D02*
X121767600Y-95836376D01*
X121910457Y-96026852D01*
D11*
%TO.C,SW1*%
X150677000Y-108007000D02*
X150677000Y-108147000D01*
X154377000Y-106577000D02*
X154377000Y-106647000D01*
X150677000Y-106577000D02*
X150677000Y-106647000D01*
X150677000Y-109507000D02*
X150677000Y-109577000D01*
X154377000Y-109507000D02*
X154377000Y-109577000D01*
X154377000Y-108007000D02*
X154377000Y-108147000D01*
X150677000Y-109577000D02*
X154377000Y-109577000D01*
X150677000Y-106577000D02*
X154377000Y-106577000D01*
X153417000Y-108077000D02*
G75*
G03*
X153417000Y-108077000I-890000J0D01*
G01*
D12*
%TO.C,R9*%
X169926724Y-83805500D02*
X169417276Y-83805500D01*
X169926724Y-84850500D02*
X169417276Y-84850500D01*
%TO.C,C9*%
X158875000Y-99675733D02*
X158875000Y-99968267D01*
X159895000Y-99675733D02*
X159895000Y-99968267D01*
%TO.C,C5*%
X151364733Y-102491000D02*
X151657267Y-102491000D01*
X151364733Y-101471000D02*
X151657267Y-101471000D01*
%TO.C,C1*%
X126980733Y-95502000D02*
X127273267Y-95502000D01*
X126980733Y-96522000D02*
X127273267Y-96522000D01*
%TO.C,U4*%
X158480000Y-88877500D02*
X158955000Y-88877500D01*
X154735000Y-88877500D02*
X154735000Y-88402500D01*
X158480000Y-84657500D02*
X158955000Y-84657500D01*
X154735000Y-84657500D02*
X154735000Y-85132500D01*
X155210000Y-88877500D02*
X154735000Y-88877500D01*
X158955000Y-84657500D02*
X158955000Y-85132500D01*
X155210000Y-84657500D02*
X154735000Y-84657500D01*
%TO.C,R1*%
X119492500Y-100456276D02*
X119492500Y-100965724D01*
X120537500Y-100456276D02*
X120537500Y-100965724D01*
%TO.C,C3*%
X160022000Y-95204233D02*
X160022000Y-95496767D01*
X159002000Y-95204233D02*
X159002000Y-95496767D01*
%TO.C,U1*%
X122593100Y-102147200D02*
X127088900Y-102147200D01*
X127088900Y-97041800D02*
X122593100Y-97041800D01*
X124536200Y-97041800D02*
G75*
G03*
X125145800Y-97041800I304800J0D01*
G01*
D13*
X129006600Y-100053999D02*
X129006600Y-100434999D01*
X129006600Y-100434999D02*
X128752600Y-100434999D01*
X128752600Y-100434999D02*
X128752600Y-100053999D01*
X128752600Y-100053999D02*
X129006600Y-100053999D01*
G36*
X129006600Y-100434999D02*
G01*
X128752600Y-100434999D01*
X128752600Y-100053999D01*
X129006600Y-100053999D01*
X129006600Y-100434999D01*
G37*
X129006600Y-100434999D02*
X128752600Y-100434999D01*
X128752600Y-100053999D01*
X129006600Y-100053999D01*
X129006600Y-100434999D01*
D12*
%TO.C,Q2*%
X158877000Y-109510000D02*
X158227000Y-109510000D01*
X158877000Y-106390000D02*
X158227000Y-106390000D01*
X158877000Y-109510000D02*
X160552000Y-109510000D01*
X158877000Y-106390000D02*
X159527000Y-106390000D01*
%TO.C,U3*%
X156028000Y-94126000D02*
X152268000Y-94126000D01*
X158278000Y-100946000D02*
X152268000Y-100946000D01*
X152268000Y-94126000D02*
X152268000Y-95386000D01*
X152268000Y-100946000D02*
X152268000Y-99686000D01*
%TO.C,R6*%
X157338500Y-104775724D02*
X157338500Y-104266276D01*
X158383500Y-104775724D02*
X158383500Y-104266276D01*
D14*
%TO.C,MK1*%
X154304000Y-93721000D02*
G75*
G03*
X154304000Y-93721000I-100000J0D01*
G01*
D12*
%TO.C,R8*%
X156732500Y-108204724D02*
X156732500Y-107695276D01*
X155687500Y-108204724D02*
X155687500Y-107695276D01*
%TO.C,C6*%
X161016733Y-84838000D02*
X161309267Y-84838000D01*
X161016733Y-83818000D02*
X161309267Y-83818000D01*
%TO.C,D2*%
X108576000Y-91540000D02*
X111036000Y-91540000D01*
X111036000Y-90070000D02*
X108576000Y-90070000D01*
X108576000Y-90070000D02*
X108576000Y-91540000D01*
%TO.C,Q1*%
X163612000Y-94107000D02*
X163612000Y-94757000D01*
X163612000Y-94107000D02*
X163612000Y-93457000D01*
X160492000Y-94107000D02*
X160492000Y-95782000D01*
X160492000Y-94107000D02*
X160492000Y-93457000D01*
%TO.C,R4*%
X151129276Y-91044500D02*
X151638724Y-91044500D01*
X151129276Y-92089500D02*
X151638724Y-92089500D01*
%TO.C,C8*%
X151237733Y-92581000D02*
X151530267Y-92581000D01*
X151237733Y-93601000D02*
X151530267Y-93601000D01*
%TO.C,C4*%
X151683767Y-104015000D02*
X151391233Y-104015000D01*
X151683767Y-102995000D02*
X151391233Y-102995000D01*
%TO.C,R3*%
X165480276Y-84850500D02*
X165989724Y-84850500D01*
X165480276Y-83805500D02*
X165989724Y-83805500D01*
%TO.C,R5*%
X151765724Y-105141500D02*
X151256276Y-105141500D01*
X151765724Y-106186500D02*
X151256276Y-106186500D01*
%TO.C,C2*%
X120923000Y-108644563D02*
X121987437Y-109709000D01*
X121987437Y-102889000D02*
X127743000Y-102889000D01*
X120923000Y-103953437D02*
X121987437Y-102889000D01*
X119895500Y-104451500D02*
X120683000Y-104451500D01*
X121987437Y-109709000D02*
X127743000Y-109709000D01*
X120923000Y-108644563D02*
X120923000Y-107359000D01*
X127743000Y-109709000D02*
X127743000Y-107359000D01*
X120923000Y-103953437D02*
X120923000Y-105239000D01*
X127743000Y-102889000D02*
X127743000Y-105239000D01*
X120289250Y-104057750D02*
X120289250Y-104845250D01*
%TO.C,J4*%
X108638000Y-94188000D02*
X108638000Y-94688000D01*
X109438000Y-94428000D02*
X109438000Y-109788000D01*
X118799000Y-109788000D02*
X108878000Y-109788000D01*
X118799000Y-94428000D02*
X108878000Y-94428000D01*
X112299000Y-101074000D02*
X112264000Y-101039000D01*
X114607000Y-108463000D02*
X114561000Y-108416000D01*
X115839000Y-94428000D02*
X115839000Y-109788000D01*
X108878000Y-94428000D02*
X108878000Y-109788000D01*
X109378000Y-94188000D02*
X108638000Y-94188000D01*
X112515000Y-100881000D02*
X112469000Y-100834000D01*
X112299000Y-106154000D02*
X112264000Y-106119000D01*
X114813000Y-103178000D02*
X114777000Y-103143000D01*
X110938000Y-94428000D02*
X110938000Y-109788000D01*
X118799000Y-94428000D02*
X118799000Y-109788000D01*
X112515000Y-105961000D02*
X112469000Y-105914000D01*
X114813000Y-108258000D02*
X114777000Y-108223000D01*
X114607000Y-103383000D02*
X114561000Y-103336000D01*
X112003000Y-96344000D02*
G75*
G03*
X111857747Y-97056805I1535001J-683999D01*
G01*
X111858000Y-97028000D02*
G75*
G03*
X112003244Y-97711318I1679992J-1D01*
G01*
X112854000Y-98563000D02*
G75*
G03*
X114221042Y-98563427I684001J1534993D01*
G01*
X114222000Y-95493000D02*
G75*
G03*
X112854958Y-95492573I-684001J-1534993D01*
G01*
X115073000Y-97712000D02*
G75*
G03*
X115073427Y-96344958I-1534993J684001D01*
G01*
X115218000Y-102108000D02*
G75*
G03*
X115218000Y-102108000I-1680000J0D01*
G01*
X115218000Y-107188000D02*
G75*
G03*
X115218000Y-107188000I-1680000J0D01*
G01*
%TO.C,D1*%
X160402000Y-92014000D02*
X160402000Y-86614000D01*
X163702000Y-92014000D02*
X163702000Y-86614000D01*
X160402000Y-92014000D02*
X163702000Y-92014000D01*
D15*
%TO.C,U2*%
X145869000Y-109270000D02*
X148319000Y-109270000D01*
X130319000Y-108620000D02*
X130319000Y-109270000D01*
X148319000Y-109270000D02*
X148319000Y-108620000D01*
X130319000Y-109270000D02*
X132769000Y-109270000D01*
D14*
X129419000Y-91270000D02*
G75*
G03*
X129419000Y-91270000I-100000J0D01*
G01*
D12*
%TO.C,C7*%
X158875000Y-91902233D02*
X158875000Y-92194767D01*
X159895000Y-91902233D02*
X159895000Y-92194767D01*
%TO.C,R7*%
X109981276Y-92978500D02*
X110490724Y-92978500D01*
X109981276Y-91933500D02*
X110490724Y-91933500D01*
%TO.C,R2*%
X155194724Y-101458500D02*
X154685276Y-101458500D01*
X155194724Y-102503500D02*
X154685276Y-102503500D01*
%TO.C,Q3*%
X155194000Y-106081000D02*
X154544000Y-106081000D01*
X155194000Y-102961000D02*
X153519000Y-102961000D01*
X155194000Y-102961000D02*
X155844000Y-102961000D01*
X155194000Y-106081000D02*
X155844000Y-106081000D01*
%TD*%
M02*
