M48
; DRILL file {KiCad (6.0.0-0)} date 2022 January 27, Thursday 22:48:40
; FORMAT={-:-/ absolute / inch / decimal}
; #@! TF.CreationDate,2022-01-27T22:48:40+01:00
; #@! TF.GenerationSoftware,Kicad,Pcbnew,(6.0.0-0)
; #@! TF.FileFunction,Plated,1,2,PTH
FMAT,2
INCH
; #@! TA.AperFunction,Plated,PTH,ComponentDrill
T1C0.0079
; #@! TA.AperFunction,Plated,PTH,ViaDrill
T2C0.0157
; #@! TA.AperFunction,Plated,PTH,ComponentDrill
T3C0.0276
; #@! TA.AperFunction,Plated,PTH,ComponentDrill
T4C0.0276
; #@! TA.AperFunction,Plated,PTH,ComponentDrill
T5C0.0354
; #@! TA.AperFunction,Plated,PTH,ComponentDrill
T6C0.0394
; #@! TA.AperFunction,Plated,PTH,ComponentDrill
T7C0.0512
; #@! TA.AperFunction,Plated,PTH,ComponentDrill
T8C0.0591
; #@! TA.AperFunction,Plated,PTH,ComponentDrill
T9C0.0709
%
G90
G05
T1
X5.3734Y-3.8521
X5.3734Y-3.9243
X5.4095Y-3.8159
X5.4095Y-3.8882
X5.4095Y-3.9604
X5.4456Y-3.8521
X5.4456Y-3.9243
X5.4818Y-3.8159
X5.4818Y-3.8882
X5.4818Y-3.9604
X5.5179Y-3.8521
X5.5179Y-3.9243
T2
X4.622Y-3.5242
X4.6574Y-3.5511
X4.8438Y-4.0812
X4.8935Y-3.6049
X4.9207Y-3.6763
X4.9344Y-3.82
X4.9658Y-3.9779
X5.0085Y-4.2465
X5.079Y-3.6627
X5.2287Y-3.6979
X5.2417Y-3.9783
X5.2623Y-3.7841
X5.3185Y-3.785
X5.3299Y-3.7056
X5.3463Y-3.6313
X5.4702Y-3.6138
X5.6236Y-3.8989
X5.6693Y-3.8914
X5.6797Y-3.9787
X5.7191Y-3.978
X5.8962Y-3.7031
X5.9206Y-3.942
X5.9665Y-3.9724
X6.005Y-4.2355
X6.0498Y-3.7429
X6.0648Y-3.6192
X6.0704Y-3.5466
X6.1309Y-3.7426
X6.1448Y-3.5416
X6.1927Y-3.5822
X6.2125Y-3.5449
X6.2868Y-3.3129
X6.2953Y-3.5368
X6.3082Y-3.4916
X6.3426Y-3.6938
X6.3505Y-3.3853
X6.4099Y-3.5434
X6.4306Y-3.7436
X6.4772Y-3.4317
X6.5052Y-3.7736
X6.6177Y-3.5311
X6.6248Y-3.6158
X6.6432Y-3.5616
X6.6591Y-3.7188
X6.671Y-3.3633
T3
X6.617Y-3.4862
X6.617Y-3.7138
T6
X4.35Y-3.34
X4.35Y-3.44
X4.45Y-3.34
X4.45Y-3.44
X4.55Y-3.34
X4.55Y-3.44
X4.65Y-3.34
X4.65Y-3.44
X4.75Y-3.34
X4.75Y-3.44
X4.85Y-3.34
X4.85Y-3.44
T7
X4.47Y-3.82
X4.47Y-4.02
X4.47Y-4.22
T8
X6.3205Y-4.0812
T9
X6.7516Y-4.0812
T4
G00X6.5756Y-3.4299
M15
G01X6.6189Y-3.4299
M16
G05
G00X6.5756Y-3.7701
M15
G01X6.6189Y-3.7701
M16
G05
G00X6.75Y-3.4299
M15
G01X6.7737Y-3.4299
M16
G05
G00X6.75Y-3.7701
M15
G01X6.7737Y-3.7701
M16
G05
T5
G00X6.4819Y-3.8902
M15
G01X6.4347Y-3.8902
M16
G05
G00X6.4819Y-4.2721
M15
G01X6.4347Y-4.2721
M16
G05
G00X6.6237Y-4.0497
M15
G01X6.6237Y-4.1127
M16
G05
G00X6.667Y-3.8902
M15
G01X6.6197Y-3.8902
M16
G05
G00X6.667Y-4.2721
M15
G01X6.6197Y-4.2721
M16
G05
T0
M30
